<svg xmlns="http://www.w3.org/2000/svg" viewBox="0 0 70 70"><defs><style>.cls-1{fill:#6add92;}</style></defs><title>01_Icons_category_v1</title><g id="Layer_15" data-name="Layer 15"><path class="cls-1" d="M8.62,31.19a.91.91,0,0,1-.71-.34.89.89,0,0,1,.14-1.26L34.44,10.64a.9.9,0,0,1,1.12,0L62,29.59a.89.89,0,0,1,.14,1.26.9.9,0,0,1-1.27.14L35,12.5,9.18,31A.94.94,0,0,1,8.62,31.19Z"/><path class="cls-1" d="M26.71,50.93a3,3,0,1,1,3-3A3,3,0,0,1,26.71,50.93Zm0-4.19a1.2,1.2,0,1,0,0,2.39,1.16,1.16,0,0,0,1.19-1.2A1.2,1.2,0,0,0,26.71,46.74Z"/><path class="cls-1" d="M43.29,50.93a3,3,0,1,1,3-3A3,3,0,0,1,43.29,50.93Zm0-4.19a1.2,1.2,0,0,0,0,2.39,1.16,1.16,0,0,0,1.2-1.2A1.21,1.21,0,0,0,43.29,46.74Z"/><path class="cls-1" d="M49,54.94H21a1.77,1.77,0,0,1-1.77-1.77V43.12a1.77,1.77,0,0,1,1.12-1.65l.8-.31,2.42-11a2.67,2.67,0,0,1,2.58-1.85h17.6a2.69,2.69,0,0,1,2.59,1.86l2.49,11,.79.31a1.75,1.75,0,0,1,1.13,1.65V53.17A1.77,1.77,0,0,1,49,54.94ZM26.16,30.09a.89.89,0,0,0-.88.63L22.72,42.14a.91.91,0,0,1-.52.55L21,43.15l0,10,27.92,0v-10l-1.16-.43a.92.92,0,0,1-.52-.54L44.64,30.73a.89.89,0,0,0-.88-.64Z"/><path class="cls-1" d="M37.87,48.83H32.14a.9.9,0,1,1,0-1.8h5.73a.9.9,0,0,1,0,1.8Z"/><path class="cls-1" d="M27.9,59.56H23.26a1.43,1.43,0,0,1-1.42-1.43V54a.9.9,0,0,1,.9-.9h5.68a.9.9,0,0,1,.9.9v4.09A1.42,1.42,0,0,1,27.9,59.56Zm-4.26-1.8h3.88V54.94H23.64Z"/><path class="cls-1" d="M46.74,59.56H42.1a1.42,1.42,0,0,1-1.42-1.43V54a.9.9,0,0,1,.9-.9h5.68a.9.9,0,0,1,.9.9v4.09A1.43,1.43,0,0,1,46.74,59.56Zm-4.26-1.8h3.88V54.94H42.48Z"/><path class="cls-1" d="M48.13,42.75H21.87a.9.9,0,1,1,0-1.8H48.13a.9.9,0,0,1,0,1.8Z"/><path class="cls-1" d="M57.57,59.56a.9.9,0,0,1-.9-.9V32.6a.9.9,0,1,1,1.8,0V58.66A.9.9,0,0,1,57.57,59.56Z"/><path class="cls-1" d="M12.43,59.56a.9.9,0,0,1-.9-.9V32.6a.9.9,0,1,1,1.8,0V58.66A.9.9,0,0,1,12.43,59.56Z"/></g></svg>