<svg xmlns="http://www.w3.org/2000/svg" viewBox="0 0 70 70"><defs><style>.cls-1{fill:#6add92;}</style></defs><title>01_Icons_category_v1</title><g id="Layer_87" data-name="Layer 87"><path class="cls-1" d="M37.9,60.45H32.1a.94.94,0,0,1-1-1V46.85a.94.94,0,0,1,1-1h5.8a.94.94,0,0,1,1,1v12.6A1,1,0,0,1,37.9,60.45Zm-4.8-2h3.8V47.85H33.1Z"/><path class="cls-1" d="M37.9,41.15H32.1a.94.94,0,0,1-1-1v-5.8a.94.94,0,0,1,1-1h5.8a.94.94,0,0,1,1,1v5.8A1,1,0,0,1,37.9,41.15Zm-4.8-2h3.8v-3.8H33.1Z"/><path class="cls-1" d="M37.9,28.55H32.1a.94.94,0,0,1-1-1v-5.8a.94.94,0,0,1,1-1h5.8a.94.94,0,0,1,1,1v5.8A1,1,0,0,1,37.9,28.55Zm-4.8-2h3.8v-3.8H33.1Z"/><path class="cls-1" d="M26.65,53.75h-5.8a.94.94,0,0,1-1-1V47a.94.94,0,0,1,1-1h5.8a.94.94,0,0,1,1,1v5.8A1,1,0,0,1,26.65,53.75Zm-4.7-2h3.8V48H22Z"/><path class="cls-1" d="M26.65,41.15h-5.8a.94.94,0,0,1-1-1v-5.8a.94.94,0,0,1,1-1h5.8a.94.94,0,0,1,1,1v5.8A.94.94,0,0,1,26.65,41.15Zm-4.7-2h3.8v-3.8H22Z"/><path class="cls-1" d="M26.65,28.55h-5.8a.94.94,0,0,1-1-1v-5.8a.94.94,0,0,1,1-1h5.8a.94.94,0,0,1,1,1v5.8A.94.94,0,0,1,26.65,28.55Zm-4.7-2h3.8v-3.8H22Z"/><path class="cls-1" d="M49.15,53.75h-5.8a.94.94,0,0,1-1-1V47a.94.94,0,0,1,1-1h5.8a.94.94,0,0,1,1,1v5.8A1,1,0,0,1,49.15,53.75Zm-4.7-2h3.8V48h-3.8Z"/><path class="cls-1" d="M49.15,41.15h-5.8a.94.94,0,0,1-1-1v-5.8a.94.94,0,0,1,1-1h5.8a.94.94,0,0,1,1,1v5.8A.94.94,0,0,1,49.15,41.15Zm-4.7-2h3.8v-3.8h-3.8Z"/><path class="cls-1" d="M49.15,28.55h-5.8a.94.94,0,0,1-1-1v-5.8a.94.94,0,0,1,1-1h5.8a.94.94,0,0,1,1,1v5.8A.94.94,0,0,1,49.15,28.55Zm-4.7-2h3.8v-3.8h-3.8Z"/><path class="cls-1" d="M55.65,60.45H14.35a.94.94,0,0,1-1-1v-44a.94.94,0,0,1,1-1h41.3a.94.94,0,0,1,1,1v44A1,1,0,0,1,55.65,60.45Zm-40.4-2h39.3v-42H15.25Z"/><path class="cls-1" d="M49.05,16.45a.94.94,0,0,1-1-1v-3.9h-5.4l-4.6,4.6a1,1,0,1,1-1.4-1.4l4.9-4.9a.91.91,0,0,1,.7-.3h6.8a.94.94,0,0,1,1,1v4.9A.94.94,0,0,1,49.05,16.45Z"/><path class="cls-1" d="M24.25,16.45a.94.94,0,0,1-1-1v-4.9a1,1,0,1,1,2,0v4.9A.94.94,0,0,1,24.25,16.45Z"/></g></svg>