<svg xmlns="http://www.w3.org/2000/svg" viewBox="0 0 70 70"><defs><style>.cls-1{fill:#6dde94;}</style></defs><title>01_Icons_category_v1</title><g id="Layer_64" data-name="Layer 64"><path class="cls-1" d="M26.63,33.58a11,11,0,1,1,11-11A11,11,0,0,1,26.63,33.58Zm0-20.08a9,9,0,1,0,9,9A9,9,0,0,0,26.63,13.5Z"/><path class="cls-1" d="M44.52,58.5H8.74v-1c0-12.5,7.19-20.89,17.89-20.89S44.52,45,44.52,57.5Zm-33.76-2H42.5C42.15,45.59,36,38.61,26.63,38.61S11.11,45.59,10.76,56.5Z"/><path class="cls-1" d="M47.93,39a8.42,8.42,0,1,1,8.42-8.42A8.43,8.43,0,0,1,47.93,39Zm0-14.84a6.42,6.42,0,1,0,6.42,6.42A6.43,6.43,0,0,0,47.93,24.16Z"/><path class="cls-1" d="M61.26,58.5H48.62a1,1,0,0,1,0-2H59.23c-.3-5.83-3.31-12.17-11-12.17a13.09,13.09,0,0,0-2.65.27,1,1,0,1,1-.4-2,15.62,15.62,0,0,1,3.05-.31c7.81,0,13,6.1,13,15.17Z"/></g></svg>