<svg xmlns="http://www.w3.org/2000/svg" viewBox="0 0 70 70"><defs><style>.cls-1{fill:#6add92;}</style></defs><title>02_Icons_sub_category_v1</title><g id="Layer_144" data-name="Layer 144"><path class="cls-1" d="M51.2,30.34a.94.94,0,1,0-.94-.94A.94.94,0,0,0,51.2,30.34Z"/><path class="cls-1" d="M51.2,39.64a.94.94,0,1,0-.94-.94A.94.94,0,0,0,51.2,39.64Z"/><path class="cls-1" d="M51.2,49a.94.94,0,1,0-.94-.94A.94.94,0,0,0,51.2,49Z"/><path class="cls-1" d="M62,16.2H8v9.5h3V53.8h6V25.7H43.4V53.8H59V25.7h3ZM15,52H13V25.7h2Zm42-.17H45.4V44.4H57Zm0-9.4H45.4V35.1H57ZM57,33H45.4V25.7H57Zm3-9.3H10V18.2H60Z"/></g></svg>