<svg xmlns="http://www.w3.org/2000/svg" viewBox="0 0 70 70"><defs></defs><title>03_Icons_amenities_v1</title><g id="Layer_22" data-name="Layer 22"><path  d="M56.68,17.84H13.32a.9.9,0,0,0-.9.9v5.44a.9.9,0,0,0,.9.9H32.08V36.13a14.09,14.09,0,0,1-2,7.66,9.67,9.67,0,0,0-1.23,3.15h0a4.33,4.33,0,0,0-4.31,4.32.9.9,0,0,0,.9.9H44.57a.9.9,0,0,0,.9-.9,4.33,4.33,0,0,0-4.31-4.32h0a9.67,9.67,0,0,0-1.23-3.15,14.09,14.09,0,0,1-2-7.66V25.08H56.68a.9.9,0,0,0,.9-.9V18.74A.9.9,0,0,0,56.68,17.84ZM43.5,50.36h-17a2.51,2.51,0,0,1,2.34-1.62H41.16A2.51,2.51,0,0,1,43.5,50.36Zm-5.19-5.72a9.34,9.34,0,0,1,1,2.3H30.7a9.34,9.34,0,0,1,1-2.3,15.83,15.83,0,0,0,2.19-8.51V25.08h2.24V36.13A15.83,15.83,0,0,0,38.31,44.64ZM55.78,23.28H14.22V19.64H55.78Z"/></g></svg>