<svg xmlns="http://www.w3.org/2000/svg" viewBox="0 0 70 70"><defs></defs><title>03_Icons_amenities_v1</title><g id="Layer_116" data-name="Layer 116"><path  d="M52,58.35H18.05a1,1,0,0,1-1-1v-.6a7.32,7.32,0,0,1,7.31-7.31H45.64A7.32,7.32,0,0,1,53,56.75v.6A1,1,0,0,1,52,58.35Zm-32.88-2H50.93a5.31,5.31,0,0,0-5.29-4.91H24.36A5.31,5.31,0,0,0,19.07,56.35Z"/><path  d="M46,51.44a1,1,0,0,1-1-1V36.21a10,10,0,0,0-19.9,0V50.44a1,1,0,0,1-2,0V36.21a12,12,0,0,1,23.9,0V50.44A1,1,0,0,1,46,51.44Z"/><path  d="M35,41.29a1,1,0,0,1-1-1V33.16a1,1,0,0,1,2,0v7.13A1,1,0,0,1,35,41.29Z"/><path  d="M35,46.89a1,1,0,0,1-1-1V44a1,1,0,0,1,2,0v1.89A1,1,0,0,1,35,46.89Z"/><path  d="M35,20.78a1,1,0,0,1-1-1V12.65a1,1,0,1,1,2,0v7.13A1,1,0,0,1,35,20.78Z"/><path  d="M47,25.75a1,1,0,0,1-.7-1.71l5-5a1,1,0,1,1,1.42,1.41l-5.05,5A1,1,0,0,1,47,25.75Z"/><path  d="M59.08,37.73H52a1,1,0,0,1,0-2h7.13a1,1,0,0,1,0,2Z"/><path  d="M18.05,37.73H10.92a1,1,0,0,1,0-2h7.13a1,1,0,1,1,0,2Z"/><path  d="M23,25.75a1,1,0,0,1-.71-.3l-5-5A1,1,0,1,1,18.68,19l5,5a1,1,0,0,1-.7,1.71Z"/></g></svg>