<svg xmlns="http://www.w3.org/2000/svg" viewBox="0 0 70 70"><defs></defs><title>03_Icons_amenities_v1</title><g id="Layer_90" data-name="Layer 90"><path  d="M19.25,45.1a5,5,0,0,1-5-5,5,5,0,0,1,5-5,5,5,0,0,1,0,10Zm0-8a3,3,0,0,0,0,6,3,3,0,0,0,3-3A3.08,3.08,0,0,0,19.25,37.1Z"/><path  d="M50.85,45.1a5,5,0,0,1-5-5,5,5,0,0,1,5-5,5,5,0,0,1,0,10Zm0-8a3,3,0,0,0,0,6,3,3,0,0,0,3-3A3.08,3.08,0,0,0,50.85,37.1Z"/><path  d="M57.85,50.5H12.25a2.69,2.69,0,0,1-2.7-2.7V32.5a2.72,2.72,0,0,1,1.7-2.5l1.8-.7,4.7-13.7a4.42,4.42,0,0,1,4.2-3h25.9a4.32,4.32,0,0,1,4.2,3L57,29.3l1.8.7a2.72,2.72,0,0,1,1.7,2.5V47.8A2.55,2.55,0,0,1,57.85,50.5ZM22.05,14.6a2.26,2.26,0,0,0-2.3,1.7l-4.9,14.1a.9.9,0,0,1-.6.6l-2.2.9a.55.55,0,0,0-.4.6V47.8a.68.68,0,0,0,.7.7H58a.68.68,0,0,0,.7-.7V32.5a.68.68,0,0,0-.4-.6l-2.2-.9a.9.9,0,0,1-.6-.6l-5-14.1a2.41,2.41,0,0,0-2.4-1.7Z"/><path  d="M42.45,41.1H27.75a1,1,0,1,1,0-2h14.7a.94.94,0,0,1,1,1A1,1,0,0,1,42.45,41.1Z"/><path  d="M23.35,57.4h-6.7a2.05,2.05,0,0,1-2.1-2.1V49.5a.94.94,0,0,1,1-1h8.9a.94.94,0,0,1,1,1v5.8A2.11,2.11,0,0,1,23.35,57.4Zm-6.8-6.9v4.8l6.8.1c.1,0,.1,0,.1-.1V50.5Z"/><path  d="M53.45,57.4h-6.7a2.05,2.05,0,0,1-2.1-2.1V49.5a.94.94,0,0,1,1-1h8.9a.94.94,0,0,1,1,1v5.8A2.11,2.11,0,0,1,53.45,57.4Zm-6.8-6.9v4.8l6.8.1c.1,0,.1,0,.1-.1V50.5Z"/><path  d="M56.25,31.1H14a1,1,0,1,1,0-2h42.3a.94.94,0,0,1,1,1A1,1,0,0,1,56.25,31.1Z"/></g></svg>