<svg xmlns="http://www.w3.org/2000/svg" viewBox="0 0 70 70"><defs></defs><title>03_Icons_amenities_v1</title><g id="Layer_20" data-name="Layer 20"><path  d="M35,53.12c-3.46,0-9.25-1.34-9.25-10.33,0-7.11,5.62-18.11,9.25-18.11s9.25,11,9.25,18.11C44.25,51.78,38.46,53.12,35,53.12Zm0-26.63c-1.94,0-7.45,9.42-7.45,16.3,0,5.66,2.5,8.53,7.45,8.53s7.45-2.87,7.45-8.53C42.45,35.91,36.94,26.49,35,26.49Z"/><path  d="M35,56.28a.9.9,0,0,1-.9-.9V30.79a.9.9,0,0,1,1.8,0V55.38A.9.9,0,0,1,35,56.28Z"/><path  d="M35,48.73a.93.93,0,0,1-.64-.26.91.91,0,0,1,0-1.28l3.9-3.89a.9.9,0,0,1,1.27,1.27l-3.89,3.9A.93.93,0,0,1,35,48.73Z"/><path  d="M35,44.42a.89.89,0,0,1-.64-.26l-3.62-3.62a.9.9,0,0,1,0-1.27.88.88,0,0,1,1.27,0l3.63,3.62A.9.9,0,0,1,35,44.42Z"/><path  d="M35,39.06a.91.91,0,0,1-.64-1.54L36.89,35a.91.91,0,0,1,1.28,0,.9.9,0,0,1,0,1.27l-2.53,2.53A.9.9,0,0,1,35,39.06Z"/><path  d="M50.65,56.28H19.35a.9.9,0,0,1,0-1.8h31.3a.9.9,0,1,1,0,1.8Z"/><path  d="M16.35,34.17a.9.9,0,0,1-.64-.26.91.91,0,0,1,0-1.28L34.36,14a.91.91,0,0,1,1.28,0L54.29,32.63a.91.91,0,0,1,0,1.28.9.9,0,0,1-1.27,0l-18-18-18,18A.89.89,0,0,1,16.35,34.17Z"/></g></svg>