<svg xmlns="http://www.w3.org/2000/svg" viewBox="0 0 70 70"><defs></defs><title>03_Icons_amenities_v1</title><g id="Layer_90" data-name="Layer 90"><path  d="M22.26,51.48a4.59,4.59,0,0,1-4.63-4.64,4.65,4.65,0,0,1,4.63-4.63,4.64,4.64,0,0,1,0,9.27Zm0-7.41a2.78,2.78,0,1,0,0,5.55A2.72,2.72,0,0,0,25,46.84,2.85,2.85,0,0,0,22.26,44.07Z"/><path  d="M47.82,51.48a4.59,4.59,0,0,1-4.63-4.64,4.65,4.65,0,0,1,4.63-4.63,4.64,4.64,0,1,1,0,9.27Zm0-7.41a2.78,2.78,0,0,0,0,5.55,2.72,2.72,0,0,0,2.78-2.78A2.84,2.84,0,0,0,47.82,44.07Z"/><path  d="M55.23,55.55H14.85a2.49,2.49,0,0,1-2.5-2.5V40.73a2.51,2.51,0,0,1,1.58-2.31l1.66-.65L19,26.93a4.09,4.09,0,0,1,3.89-2.78h24a4,4,0,0,1,3.89,2.78L54.4,37.77l1.67.65a2.52,2.52,0,0,1,1.57,2.31V53.05A2.36,2.36,0,0,1,55.23,55.55ZM23,26a2.09,2.09,0,0,0-2.13,1.57L17.26,38.79a.84.84,0,0,1-.55.55l-2,.84a.5.5,0,0,0-.37.55V53.05a.64.64,0,0,0,.65.65H55.33a.64.64,0,0,0,.65-.65V40.73a.61.61,0,0,0-.38-.55l-2-.84a.83.83,0,0,1-.56-.55l-3.7-11.21A2.22,2.22,0,0,0,47.08,26Z"/><path  d="M40,47.77h-9.9a.93.93,0,1,1,0-1.85H40a.87.87,0,0,1,.93.92A.93.93,0,0,1,40,47.77Z"/><path  d="M25.13,61h-6.2A1.9,1.9,0,0,1,17,59.07V54.62a.87.87,0,0,1,.93-.92h8.24a.87.87,0,0,1,.93.92v4.45A2,2,0,0,1,25.13,61Zm-6.29-5.46v3.52h6.39V55.55Z"/><path  d="M51.16,61H45A1.89,1.89,0,0,1,43,59.07V54.62a.87.87,0,0,1,.92-.92h8.25a.87.87,0,0,1,.92.92v4.45A2,2,0,0,1,51.16,61Zm-6.3-5.46v3.52h6.39V55.55Z"/><path  d="M53.75,39.44H16.43a.93.93,0,0,1,0-1.86H53.75a.88.88,0,0,1,.93.93A.93.93,0,0,1,53.75,39.44Z"/><path  d="M43.45,26H26.55a.94.94,0,0,1-.86-1.27l2.38-5.93a.92.92,0,0,1,.86-.58H41.07a.92.92,0,0,1,.86.58l2.38,5.93A.94.94,0,0,1,43.45,26ZM27.92,24.1H42.08L40.44,20H29.56Z"/><path  d="M35,26a.93.93,0,0,1-.93-.93V19.1a.93.93,0,0,1,1.86,0V25A.93.93,0,0,1,35,26Z"/><path  d="M35.06,15a.92.92,0,0,1-.93-.92V8.82a.93.93,0,1,1,1.85,0v5.24A.92.92,0,0,1,35.06,15Z"/><path  d="M42.14,16.73a.87.87,0,0,1-.49-.14.93.93,0,0,1-.3-1.27l2.26-3.62a.93.93,0,0,1,1.57,1L42.93,16.3A.93.93,0,0,1,42.14,16.73Z"/><path  d="M49.92,20.49l-3.57.21a.91.91,0,0,1-1-.86.93.93,0,0,1,.87-1l3.57-.22a.92.92,0,0,1,1,.86A.94.94,0,0,1,49.92,20.49Z"/><path  d="M20.08,20.49l3.57.21a.91.91,0,0,0,1-.86.93.93,0,0,0-.87-1l-3.57-.22a.92.92,0,0,0-1,.86A.94.94,0,0,0,20.08,20.49Z"/><path  d="M27.94,16.67a.94.94,0,0,1-.79-.44L24.9,12.62a.93.93,0,1,1,1.57-1l2.25,3.61a.93.93,0,0,1-.29,1.28A1,1,0,0,1,27.94,16.67Z"/></g></svg>