<svg xmlns="http://www.w3.org/2000/svg" viewBox="0 0 70 70"><defs></defs><title>03_Icons_amenities_v1</title><g id="Layer_37" data-name="Layer 37"><path  d="M55.36,56.12H14.64a1.06,1.06,0,0,1-1-1.12l1.66-22.53a1,1,0,0,1,1.11-1,1,1,0,0,1,1,1.11L15.76,54H54.24L52.67,32.62a1,1,0,0,1,2.07-.15L56.4,55a1.06,1.06,0,0,1-1,1.12Z"/><path  d="M16.3,33.59a1,1,0,0,1-.47-2A42.62,42.62,0,0,0,34.06,14.47a1,1,0,0,1,1.88.91c-.22.46-5.58,11.25-19.18,18.1A1.11,1.11,0,0,1,16.3,33.59Z"/><path  d="M53.7,33.59a1,1,0,0,1-.47-.12A46,46,0,0,1,34.07,15.4a1,1,0,0,1,1.86-1A44.69,44.69,0,0,0,54.18,31.62a1,1,0,0,1-.48,2Z"/><path  d="M40.57,56.12H29.43a1,1,0,0,1-1.05-1V42.44a6.62,6.62,0,1,1,13.24,0V55.07A1,1,0,0,1,40.57,56.12ZM30.47,54h9.06V42.44a4.53,4.53,0,0,0-9.06,0Z"/><path  d="M62.57,56.12a1,1,0,0,1-1-.66L52.73,32.93a1,1,0,0,1,2-.77l8.86,22.53A1,1,0,0,1,63,56,1,1,0,0,1,62.57,56.12Z"/><path  d="M7.43,56.12A1,1,0,0,1,7.05,56a1,1,0,0,1-.59-1.35l8.86-22.53a1,1,0,1,1,1.95.77L8.4,55.46A1,1,0,0,1,7.43,56.12Z"/><path  d="M53.71,33.59H16.29a1,1,0,0,1,0-2.09H53.71a1,1,0,0,1,0,2.09Z"/></g></svg>