<svg xmlns="http://www.w3.org/2000/svg" viewBox="0 0 70 70"><defs></defs><title>03_Icons_amenities_v1</title><g id="Layer_13" data-name="Layer 13"><path  d="M51.21,58.4H18.79a7.2,7.2,0,0,1-7.19-7.19V18.79a7.2,7.2,0,0,1,7.19-7.19H51.21a7.2,7.2,0,0,1,7.19,7.19V51.21A7.2,7.2,0,0,1,51.21,58.4ZM18.79,13.6a5.2,5.2,0,0,0-5.19,5.19V51.21a5.2,5.2,0,0,0,5.19,5.19H51.21a5.2,5.2,0,0,0,5.19-5.19V18.79a5.2,5.2,0,0,0-5.19-5.19Z"/><path  d="M35,41.42a1,1,0,0,1-.5-.14l-4.69-2.71a1,1,0,0,1-.5-.86V32.29a1,1,0,0,1,.5-.86l4.69-2.71a1,1,0,0,1,1,0l4.69,2.71a1,1,0,0,1,.5.86v5.42a1,1,0,0,1-.5.86L35.5,41.28A1,1,0,0,1,35,41.42Zm-3.69-4.29L35,39.26l3.69-2.13V32.87L35,30.74l-3.69,2.13Z"/><path  d="M35,30.58a1,1,0,0,1-1-1V18.44a1,1,0,1,1,2,0V29.58A1,1,0,0,1,35,30.58Z"/><path  d="M35,26.43a1,1,0,0,1-.71-.29l-3.83-3.83a1,1,0,0,1,0-1.41,1,1,0,0,1,1.42,0L35,24l3.12-3.12a1,1,0,0,1,1.42,0,1,1,0,0,1,0,1.41l-3.83,3.83A1,1,0,0,1,35,26.43Z"/><path  d="M35,52.56a1,1,0,0,1-1-1V40.42a1,1,0,0,1,2,0V51.56A1,1,0,0,1,35,52.56Z"/><path  d="M38.83,49.4a1,1,0,0,1-.71-.3L35,46,31.88,49.1a1,1,0,0,1-1.42,0,1,1,0,0,1,0-1.41l3.83-3.83a1,1,0,0,1,1.42,0l3.83,3.83a1,1,0,0,1-.71,1.71Z"/><path  d="M39.73,33.37a1,1,0,0,1-.87-.51,1,1,0,0,1,.39-1.36L49,26.08a1,1,0,1,1,1,1.75l-9.74,5.41A1,1,0,0,1,39.73,33.37Z"/><path  d="M48.57,32.84a1,1,0,0,1-.28,0l-5.2-1.49a1,1,0,0,1-.69-1.23l1.49-5.21a1,1,0,1,1,1.92.55L44.6,29.67l4.24,1.21a1,1,0,0,1,.69,1.23A1,1,0,0,1,48.57,32.84Z"/><path  d="M49.45,44.1A1.12,1.12,0,0,1,49,44l-9.72-5.45a1,1,0,1,1,1-1.75l9.73,5.45a1,1,0,0,1-.49,1.88Z"/><path  d="M44.81,45.89a1,1,0,0,1-1-.73L42.38,40a1,1,0,0,1,.09-.76,1.06,1.06,0,0,1,.6-.48l5.22-1.47a1,1,0,0,1,.54,1.93l-4.25,1.2,1.2,4.25a1,1,0,0,1-.69,1.23A.9.9,0,0,1,44.81,45.89Z"/><path  d="M30.25,33.37a1,1,0,0,1-.49-.13L20,27.83a1,1,0,1,1,1-1.75l9.73,5.42a1,1,0,0,1-.49,1.87Z"/><path  d="M21.43,32.84a1,1,0,0,1-.28-2l4.24-1.21-1.21-4.25a1,1,0,1,1,1.93-.55l1.48,5.21a1,1,0,0,1-.69,1.23L21.7,32.8A.84.84,0,0,1,21.43,32.84Z"/><path  d="M20.55,44.1a1,1,0,0,1-.49-1.88l9.71-5.45a1,1,0,0,1,1,1.75L21,44A1.09,1.09,0,0,1,20.55,44.1Z"/><path  d="M25.18,45.89a1,1,0,0,1-.28,0,1,1,0,0,1-.69-1.23l1.2-4.25-4.24-1.2a1,1,0,0,1,.54-1.93l5.21,1.47A1,1,0,0,1,27.61,40l-1.47,5.21A1,1,0,0,1,25.18,45.89Z"/></g></svg>