<svg xmlns="http://www.w3.org/2000/svg" viewBox="0 0 70 70"><defs></defs><title>03_Icons_amenities_v1</title><g id="Layer_3" data-name="Layer 3"><path  d="M33.26,52.6A17.6,17.6,0,1,1,50.86,35a.9.9,0,1,1-1.8,0,15.79,15.79,0,1,0-.61,4.36.9.9,0,1,1,1.73.49A17.67,17.67,0,0,1,33.26,52.6Z"/><path  d="M33.26,44.42a5.17,5.17,0,0,1-5.17-5.16.91.91,0,0,1,1.81,0,3.36,3.36,0,0,0,6.72,0c0-1.46-1.49-2.32-3.77-3.46s-4.76-2.37-4.76-5.06a5.17,5.17,0,0,1,10.33,0,.9.9,0,1,1-1.8,0,3.36,3.36,0,0,0-6.72,0c0,1.46,1.49,2.32,3.76,3.46s4.76,2.37,4.76,5.06A5.17,5.17,0,0,1,33.26,44.42Z"/><path  d="M50,35.91a.89.89,0,0,1-.64-.26l-3.48-3.48a.91.91,0,0,1,0-1.28.9.9,0,0,1,1.27,0l3.49,3.49A.9.9,0,0,1,50,35.91Z"/><path  d="M50,35.91a.9.9,0,0,1-.64-1.53l3.49-3.49a.9.9,0,0,1,1.27,0,.91.91,0,0,1,0,1.28L50.6,35.65A.89.89,0,0,1,50,35.91Z"/></g></svg>