<svg xmlns="http://www.w3.org/2000/svg" viewBox="0 0 70 70"><defs></defs><title>03_Icons_amenities_v1</title><g id="Layer_72" data-name="Layer 72"><path  d="M20.18,49.7H15a.94.94,0,0,1-1-1V45.9h-3.3a.94.94,0,0,1-1-1V41H6.78a1.23,1.23,0,0,1-.8-.4c-1.4-2-1.5-8.7-.1-10.9l.1-.2a1,1,0,0,1,.8-.5h2.8V25.1a.94.94,0,0,1,1-1H14V21.3a.94.94,0,0,1,1-1h5.2a.94.94,0,0,1,1,1V48.7A1,1,0,0,1,20.18,49.7Zm-4.2-2h3.2V22.3H16v2.8a.94.94,0,0,1-1,1h-3.4V30a.94.94,0,0,1-1,1H7.28a15.12,15.12,0,0,0,0,7.9h3.3a.94.94,0,0,1,1,1v3.9h3.3a1,1,0,0,1,1.1,1v2.9Z"/><path  d="M55,49.7h-5.2a.94.94,0,0,1-1-1V21.3a.94.94,0,0,1,1-1H55a.94.94,0,0,1,1,1v2.8h3.4a.94.94,0,0,1,1,1V29h2.8a1.23,1.23,0,0,1,.8.4c1.5,2,1.5,8.7.1,10.9l-.1.2a1,1,0,0,1-.8.5h-2.7v3.9a.94.94,0,0,1-1,1H56v2.8A.94.94,0,0,1,55,49.7Zm-4.2-2H54V44.9a.94.94,0,0,1,1-1h3.5V40a.94.94,0,0,1,1-1h3.2a15.12,15.12,0,0,0,0-7.9h-3.2a.94.94,0,0,1-1-1V26.2H55a.94.94,0,0,1-1-1V22.4h-3.2Z"/><path  d="M49.78,36H21.18a1,1,0,0,1,0-2h28.6a1,1,0,0,1,0,2Z"/><path  d="M55,45.9a.94.94,0,0,1-1-1V25.1a1,1,0,0,1,2,0V44.9A1,1,0,0,1,55,45.9Z"/><path  d="M59.48,41a.94.94,0,0,1-1-1V30a1,1,0,1,1,2,0v9.9A1,1,0,0,1,59.48,41Z"/><path  d="M15,45.9a.94.94,0,0,1-1-1V25.1a1,1,0,0,1,2,0V44.9A1.08,1.08,0,0,1,15,45.9Z"/><path  d="M10.58,41a.94.94,0,0,1-1-1V30a.94.94,0,0,1,1-1,.94.94,0,0,1,1,1v9.9A1.1,1.1,0,0,1,10.58,41Z"/></g></svg>