<svg xmlns="http://www.w3.org/2000/svg" viewBox="0 0 70 70"><defs></defs><title>03_Icons_amenities_v1</title><g id="Layer_82" data-name="Layer 82"><path  d="M47.88,57.6H22.28a1,1,0,0,1-1-.8.91.91,0,0,1,.6-1.1l9.8-4.5V35.4l-19-21.3a1.09,1.09,0,0,1-.2-1.1,1,1,0,0,1,.9-.6h43.2a.87.87,0,0,1,.9.6.91.91,0,0,1-.2,1.1l-19,21.3V51.2l9.8,4.5a1.08,1.08,0,0,1,.6,1.1C48.78,57.3,48.38,57.6,47.88,57.6Zm-21.1-2h16.5L37,52.7a1,1,0,0,1-.6-.9V35a1.08,1.08,0,0,1,.3-.7l17.7-20H15.58l17.7,20a.91.91,0,0,1,.3.7V51.8a1,1,0,0,1-.6.9Z"/><path  d="M46.45,21H23.55a1,1,0,0,1,0-2h22.9a.94.94,0,0,1,1,1A1,1,0,0,1,46.45,21Z"/></g></svg>