<svg xmlns="http://www.w3.org/2000/svg" viewBox="0 0 70 70"><defs></defs><title>03_Icons_amenities_v1</title><g id="Layer_11" data-name="Layer 11"><path  d="M54.58,54.72H22.84a.9.9,0,0,1-.9-.9V43.25a.9.9,0,0,1,.9-.9h9.68V32.67a.9.9,0,0,1,.9-.9H43.1V22.09a.9.9,0,0,1,.9-.9H54.58a.9.9,0,0,1,.9.9V53.82A.9.9,0,0,1,54.58,54.72Zm-30.84-1.8H53.67V23H44.9v9.68a.9.9,0,0,1-.9.9H34.32v9.68a.9.9,0,0,1-.9.9H23.74Z"/><path  d="M26.76,38.86H15.42a.9.9,0,0,1-.9-.9V26.62a.91.91,0,0,1,1.81,0V37.06H26.76a.9.9,0,0,1,0,1.8Z"/><path  d="M15.42,38.86a.86.86,0,0,1-.63-.27.9.9,0,0,1,0-1.27L36.57,15.54a.9.9,0,0,1,1.27,1.27L16.06,38.59A.87.87,0,0,1,15.42,38.86Z"/></g></svg>