<svg xmlns="http://www.w3.org/2000/svg" viewBox="0 0 70 70"><defs></defs><title>03_Icons_amenities_v1</title><g id="Layer_102" data-name="Layer 102"><path  d="M50.55,61.7H19.45A4.48,4.48,0,0,1,15,57.2V33.6a4.48,4.48,0,0,1,4.5-4.5h31.1a4.48,4.48,0,0,1,4.5,4.5V57.2A4.61,4.61,0,0,1,50.55,61.7ZM19.35,31.2a2.48,2.48,0,0,0-2.5,2.5V57.3a2.48,2.48,0,0,0,2.5,2.5h31.1A2.48,2.48,0,0,0,53,57.3V33.7a2.48,2.48,0,0,0-2.5-2.5Z"/><path  d="M48.45,30.2h-2V21.8a11.5,11.5,0,1,0-23,0v8.4h-2V21.8a13.5,13.5,0,1,1,27,0Z"/><path  d="M35,54.1a3.12,3.12,0,0,1-3.1-3.1V46.7a5.45,5.45,0,0,1-2.3-5.4A5.55,5.55,0,0,1,34,36.9a5.24,5.24,0,0,1,4.5,1.2,5.63,5.63,0,0,1,2,4.2,5.73,5.73,0,0,1-2.3,4.5v4.3A3.26,3.26,0,0,1,35,54.1Zm0-15.3a1.27,1.27,0,0,0-.6.1,3.52,3.52,0,0,0-2.8,2.8,3.23,3.23,0,0,0,1.8,3.6l.5.3v5.5a1.1,1.1,0,0,0,2.2,0V45.6l.5-.3a3.49,3.49,0,0,0,1.8-3,4,4,0,0,0-1.2-2.7A3,3,0,0,0,35,38.8Z"/></g></svg>