<svg xmlns="http://www.w3.org/2000/svg" viewBox="0 0 70 70"><defs></defs><title>03_Icons_amenities_v1</title><g id="Layer_76" data-name="Layer 76"><g ><path  d="M35.09,32.4a.91.91,0,0,1-.7-.3l-8.9-8.9a1,1,0,1,1,1.4-1.4l8.2,8.2,8.2-8.2a1,1,0,0,1,1.4,1.4l-8.9,8.9A.91.91,0,0,1,35.09,32.4Z"/></g><g ><path  d="M56.69,58.4H13.39a.94.94,0,0,1-1-1V52a1.05,1.05,0,0,1,.5-.9l21.6-12.6a.91.91,0,0,1,1,0l9.1,5.3V32.5a.94.94,0,0,1,1-1H51a.94.94,0,0,1,1,1V48.1l5.1,3a1.05,1.05,0,0,1,.5.9v5.4A.83.83,0,0,1,56.69,58.4Zm-42.2-2h41.3V52.6l-5.1-3a1.05,1.05,0,0,1-.5-.9V33.5h-3.4v12a1.05,1.05,0,0,1-.5.9.91.91,0,0,1-1,0l-10.1-5.9-20.6,12v3.9Z"/></g><path  d="M35.09,23.5a.94.94,0,0,1-1-1V12.6a1,1,0,0,1,2,0v9.9A.94.94,0,0,1,35.09,23.5Z"/></g></svg>