<svg xmlns="http://www.w3.org/2000/svg" viewBox="0 0 70 70"><defs></defs><title>03_Icons_amenities_v1</title><g id="Layer_99" data-name="Layer 99"><path  d="M49.3,58.9H20.7a3.8,3.8,0,0,1-3.8-3.8V14.9a3.8,3.8,0,0,1,3.8-3.8H49.3a3.8,3.8,0,0,1,3.8,3.8V55.1A3.8,3.8,0,0,1,49.3,58.9ZM20.7,13.1a1.79,1.79,0,0,0-1.8,1.8V55.1a1.79,1.79,0,0,0,1.8,1.8H49.3a1.79,1.79,0,0,0,1.8-1.8V14.9a1.79,1.79,0,0,0-1.8-1.8Z"/><path  d="M24.5,26.3a.94.94,0,0,1-1-1v-7a1,1,0,1,1,2,0v7A.94.94,0,0,1,24.5,26.3Z"/><path  d="M24.5,46a.94.94,0,0,1-1-1V35.3a1,1,0,0,1,2,0V45A.94.94,0,0,1,24.5,46Z"/><path  d="M47.6,31.3H22.3a1,1,0,0,1,0-2H47.6a1,1,0,0,1,0,2Z"/></g></svg>