<svg xmlns="http://www.w3.org/2000/svg" viewBox="0 0 70 70"><defs></defs><title>03_Icons_amenities_v1</title><g id="Layer_135" data-name="Layer 135"><path  d="M59.35,18.6H10.65a.94.94,0,0,1-1-1V11a.94.94,0,0,1,1-1h48.7a.94.94,0,0,1,1,1v6.6A1,1,0,0,1,59.35,18.6Zm-47.7-2h46.7V12H11.65Z"/><path  d="M17.45,25.5a.94.94,0,0,1-1-1V17.6a1,1,0,0,1,2,0v6.9A1.08,1.08,0,0,1,17.45,25.5Z"/><path  d="M35.05,25.5a.94.94,0,0,1-1-1V17.6a1,1,0,0,1,2,0v6.9A1.08,1.08,0,0,1,35.05,25.5Z"/><path  d="M30.45,59.92a.94.94,0,0,1-1-1V46.8a1,1,0,0,1,2,0V58.92A1.08,1.08,0,0,1,30.45,59.92Z"/><path  d="M52.55,25.5a.94.94,0,0,1-1-1V17.6a1,1,0,0,1,2,0v6.9A1,1,0,0,1,52.55,25.5Z"/><path  d="M17.45,60c-3.6,0-6.5-3.6-6.5-8a8.46,8.46,0,0,1,3.4-7.1V26.5a3,3,0,0,1,3-3,3.08,3.08,0,0,1,3,3V44.9a8.46,8.46,0,0,1,3.4,7.1C24,56.4,21.05,60,17.45,60Zm0-34.5a1,1,0,0,0-1,1v19a1.05,1.05,0,0,1-.5.9,6.3,6.3,0,0,0-2.9,5.6c0,3.3,2,6,4.5,6s4.5-2.7,4.5-6a6.3,6.3,0,0,0-2.9-5.6,1.05,1.05,0,0,1-.5-.9v-19A1.36,1.36,0,0,0,17.45,25.5Z"/><path  d="M54.65,43.1h-4.1a.94.94,0,0,1-1-1V26.5a3,3,0,0,1,3-3,3.08,3.08,0,0,1,3,3V42.1A.92.92,0,0,1,54.65,43.1Zm-3.1-2h2.1V26.5a1,1,0,0,0-2,0l-.1,14.6Z"/><path  d="M50.55,60a.94.94,0,0,1-1-1V42.1a.94.94,0,0,1,1-1H57a.94.94,0,0,1,1,1v4.6C58,55.3,54.15,60,50.55,60Zm1-16.9V57.8c2.3-.9,4.4-5,4.4-11.1V43.1Z"/><path  d="M35.05,51a.94.94,0,0,0-1,1v6.9a.94.94,0,0,0,1,1,1.08,1.08,0,0,0,1-1V52A.94.94,0,0,0,35.05,51Z"/><path  d="M37.85,43.5v-17a3.08,3.08,0,0,0-3-3,3,3,0,0,0-3,3v17c-.9.5-2.4,1.6-2.4,3.2V58.9a1.06,1.06,0,0,0,.9,1,.92.92,0,0,0,1.1-.7V46.8c0-.63,1.2-1.4,2.1-1.8a1,1,0,0,0,.6-.9V26.5a1.08,1.08,0,0,1,1-1,1,1,0,0,1,1,1V44.1a1.15,1.15,0,0,0,.6.9c.63.35,1.5,1.13,1.5,1.8V58.92a.94.94,0,0,0,1,1l.09,0h0a.87.87,0,0,0,.89-.95s0,0,0,0V46.7C40.25,45.2,38.75,44,37.85,43.5Z"/></g></svg>