<svg xmlns="http://www.w3.org/2000/svg" viewBox="0 0 70 70"><defs></defs><title>03_Icons_amenities_v1</title><g id="Layer_17" data-name="Layer 17"><path  d="M42.87,49.67H15.35a.9.9,0,0,1-.9-.9V25.31a.9.9,0,0,1,.9-.9H42.87a.91.91,0,0,1,.9.9V48.77A.9.9,0,0,1,42.87,49.67Zm-26.62-1.8H42V26.21H16.25Z"/><path  d="M44.5,26.21H13.72a.9.9,0,0,1-.9-.9V21.23a.9.9,0,0,1,.9-.9H44.5a.9.9,0,0,1,.9.9v4.08A.9.9,0,0,1,44.5,26.21Zm-29.88-1.8h29V22.13h-29Z"/><path  d="M54.65,49.67H42.87a.9.9,0,0,1-.91-.9V25.31a.91.91,0,0,1,.91-.9H54.65a.9.9,0,0,1,.9.9V48.77A.9.9,0,0,1,54.65,49.67Zm-10.88-1.8h10V26.21h-10Z"/><path  d="M56.28,26.21H44.5a.9.9,0,0,1-.9-.9V21.23a.9.9,0,0,1,.9-.9H56.28a.9.9,0,0,1,.9.9v4.08A.9.9,0,0,1,56.28,26.21ZM45.4,24.41h10V22.13h-10Z"/><path  d="M32.71,32H25.5a.9.9,0,0,1-.9-.9V28.45a.9.9,0,0,1,.9-.9h7.21a.9.9,0,0,1,.9.9v2.61A.9.9,0,0,1,32.71,32Zm-6.31-1.8h5.41v-.81H26.4Z"/><path  d="M24.33,46.23H18.21a.91.91,0,0,1,0-1.81h6.12a.91.91,0,0,1,0,1.81Z"/><path  d="M22.19,43.57h-4a.9.9,0,1,1,0-1.8h4a.9.9,0,0,1,0,1.8Z"/></g></svg>