<svg xmlns="http://www.w3.org/2000/svg" viewBox="0 0 70 70"><defs></defs><title>03_Icons_amenities_v1</title><g id="Layer_29" data-name="Layer 29"><path  d="M19.55,55.89a3.49,3.49,0,0,1-2.46-1l-2-2a3.47,3.47,0,0,1,.27-5.15L23,41.41a1.54,1.54,0,0,0,.11-1.91c-3.22-4.82-3.87-9.84-1.86-14.12a.9.9,0,1,1,1.63.76c-2.23,4.74-.29,9.33,1.72,12.36a3.36,3.36,0,0,1-.39,4.24l-7.71,6.41a1.68,1.68,0,0,0-.13,2.49l1.95,2a1.68,1.68,0,0,0,2.49-.13l6.36-7.66a3.38,3.38,0,0,1,4.29-.45c3.39,2.25,10,5.14,16-.86,6.58-6.58,9.82-16.61,2.24-24.19C41.44,12.06,31.77,17.7,29,19.62a.9.9,0,1,1-1-1.47c8.16-5.68,16.76-5.35,23,.89s7.76,16.72-2.25,26.74c-5,5-11.68,5.43-18.21,1.08a1.54,1.54,0,0,0-2,.17l-6.29,7.58a3.44,3.44,0,0,1-2.51,1.27Z"/><path  d="M39.88,49.58a.9.9,0,0,1-.64-.27L20.69,30.76A.9.9,0,0,1,22,29.49L40.51,48a.9.9,0,0,1,0,1.27A.86.86,0,0,1,39.88,49.58Z"/><path  d="M24.86,27.55a5.63,5.63,0,1,1,5.63-5.63A5.64,5.64,0,0,1,24.86,27.55Zm0-9.46a3.83,3.83,0,1,0,3.83,3.83A3.84,3.84,0,0,0,24.86,18.09Z"/></g></svg>