<svg xmlns="http://www.w3.org/2000/svg" viewBox="0 0 70 70"><defs></defs><title>03_Icons_amenities_v1</title><g id="Layer_101" data-name="Layer 101"><path  d="M61,49.5H56.6a1,1,0,1,1,0-2H60V16.2H10V47.5H44.8a1,1,0,0,1,0,2H9a.94.94,0,0,1-1-1V15.2a.94.94,0,0,1,1-1H61a.94.94,0,0,1,1,1V48.5A.94.94,0,0,1,61,49.5Z"/><path  d="M13.7,49.5a.94.94,0,0,1-1-1V46.3a1,1,0,0,1,2,0v2.2A.94.94,0,0,1,13.7,49.5Z"/><path  d="M16.6,49.5a.94.94,0,0,1-1-1V46.3a1,1,0,1,1,2,0v2.2A.94.94,0,0,1,16.6,49.5Z"/><path  d="M38.1,55.8H31.9a.94.94,0,0,1-1-1V48.6a.94.94,0,0,1,1-1h6.2a.94.94,0,0,1,1,1v6.2A1,1,0,0,1,38.1,55.8Zm-5.2-2h4.2V49.6H32.9Z"/><path  d="M41.9,55.8H28.1a1,1,0,0,1,0-2H41.9a.94.94,0,0,1,1,1A1,1,0,0,1,41.9,55.8Z"/><path  d="M53.7,55.8H47.4a.94.94,0,0,1-1-1V35.5a.94.94,0,0,1,1-1h6.3a.94.94,0,0,1,1,1V54.8A1,1,0,0,1,53.7,55.8Zm-5.3-2h4.3V36.5H48.4Z"/><path  d="M50.6,39.9a.94.94,0,0,1-1-1v-.6a1,1,0,0,1,2,0v.6A1.08,1.08,0,0,1,50.6,39.9Z"/><path  d="M50.6,45.15a.94.94,0,0,1-1-1v-.6a1,1,0,0,1,2,0v.6A1.08,1.08,0,0,1,50.6,45.15Z"/><path  d="M50.6,48.5a.94.94,0,0,1-1-1v-.6a1,1,0,0,1,2,0v.6A1,1,0,0,1,50.6,48.5Z"/><path  d="M50.6,51.9a.94.94,0,0,1-1-1v-.6a1,1,0,0,1,2,0v.6A1,1,0,0,1,50.6,51.9Z"/></g></svg>