<svg xmlns="http://www.w3.org/2000/svg" viewBox="0 0 70 70"><defs></defs><title>03_Icons_amenities_v1</title><g id="Layer_90" data-name="Layer 90"><path  d="M50.34,40.07a5,5,0,1,0,5,5A5,5,0,0,0,50.34,40.07Zm0,8a3,3,0,0,1-3-3,3,3,0,1,1,3,3Z"/><path  d="M20.74,40.07a5,5,0,1,0,5,5A5,5,0,0,0,20.74,40.07Zm0,8a3,3,0,0,1-3-3,3,3,0,1,1,3,3Z"/><path  d="M41.84,44.07H29.14a.94.94,0,0,0-1,1,1,1,0,0,0,1,1h12.7a1,1,0,0,0,0-2Z"/><path  d="M20.66,30A10.7,10.7,0,1,0,10,19.32,10.71,10.71,0,0,0,20.66,30Zm0-19.39A8.7,8.7,0,1,1,12,19.32,8.7,8.7,0,0,1,20.66,10.63Z"/><path  d="M58.34,36l-1.8-.7-4.7-13.7a4.42,4.42,0,0,0-4.2-3H34.88a1,1,0,0,0,0,2H47.54a2.26,2.26,0,0,1,2.3,1.7l4.44,12.8H16.59l.85-2.4a.88.88,0,0,0-1.66-.59l-1.14,3.19-1.8.7a2.72,2.72,0,0,0-1.7,2.5v13.3a2.55,2.55,0,0,0,2.6,2.7H16v4.8a2.11,2.11,0,0,0,2.1,2.1h6.7a2.05,2.05,0,0,0,2.1-2.1v-4.8h17.2v4.8a2.11,2.11,0,0,0,2.1,2.1h6.7a2.05,2.05,0,0,0,2.1-2.1v-4.8h2.3a2.7,2.7,0,0,0,2.7-2.7V38.47A2.72,2.72,0,0,0,58.34,36Zm-33.4,23.3-6.8.1c-.1,0-.1,0-.1-.1v-4.8h6.9Zm28.1,0-6.8.1c-.1,0-.1,0-.1-.1v-4.8H53Zm4.9-7.5a.7.7,0,0,1-.7.7H13.64a.7.7,0,0,1-.7-.7V38.47a.68.68,0,0,1,.39-.6l2-.81H55.58l2,.8a.55.55,0,0,1,.4.6Z"/><path  d="M19.49,20.55h1.66a3.46,3.46,0,0,0,2.45-.8,2.86,2.86,0,0,0,.87-2.23,2.68,2.68,0,0,0-.87-2.14,3.59,3.59,0,0,0-2.45-.76H17.64V24h1.85Zm0-4.31H21a1.92,1.92,0,0,1,1.21.33,1.22,1.22,0,0,1,.42,1,1.24,1.24,0,0,1-.42,1,1.86,1.86,0,0,1-1.21.34H19.49Z"/></g></svg>