<svg xmlns="http://www.w3.org/2000/svg" viewBox="0 0 70 70"><defs></defs><title>03_Icons_amenities_v1_accomodation</title><g id="Layer_90" data-name="Layer 90"><path  d="M51.34,27.22V16.4a1,1,0,0,0-.7-1,63.59,63.59,0,0,0-15.6-2,63.59,63.59,0,0,0-15.6,2,1.2,1.2,0,0,0-.7,1V26.9l-5.1,17.2V55.6a.94.94,0,0,0,1,1H18a.94.94,0,0,0,1-1V49.3H51v6.3a.94.94,0,0,0,1,1h3.4a.86.86,0,0,0,.9-1V44.1Zm-30.9,1h1.9v1.5a.94.94,0,0,0,1,1h9.6a1,1,0,0,0,1-1V28.2h2.2v1.5a.94.94,0,0,0,1,1h9.6a1,1,0,0,0,1-1V28.2h1.8l1,3.3H19.45Zm11.5.5h-7.6V27.2h0V25.8h7.6Zm13.8-1.95a1.06,1.06,0,0,0,0,.9V28.7h-7.6V25.8h7.6ZM35,15.4a62.23,62.23,0,0,1,14.3,1.8v9h-1.6V24.8a.94.94,0,0,0-1-1h-9.6a.94.94,0,0,0-1,1v1.4h-2.2V24.8a.94.94,0,0,0-1-1h-9.6a.94.94,0,0,0-1,1v1.4h-1.6v-9A62.23,62.23,0,0,1,35,15.4Zm19.4,39.1H53V48.2a.94.94,0,0,0-1-1H17.94a.94.94,0,0,0-1,1v6.3h-1.4v-10l3.31-11H51.14l3.3,11Z"/><path  d="M18,43.4a1,1,0,0,0,0,2H52a1.09,1.09,0,0,0,1.1-1,.94.94,0,0,0-1-1Z"/></g></svg>