<svg xmlns="http://www.w3.org/2000/svg" viewBox="0 0 70 70"><defs></defs><title>03_Icons_amenities_v1</title><g id="Layer_68" data-name="Layer 68"><path  d="M53.4,54.2a.94.94,0,0,1-1-1A35.89,35.89,0,0,0,16.6,17.4a1,1,0,0,1,0-2A37.9,37.9,0,0,1,54.4,53.2.94.94,0,0,1,53.4,54.2Zm-8.2,0a.94.94,0,0,1-1-1A27.66,27.66,0,0,0,16.6,25.6a1,1,0,0,1,0-2A29.66,29.66,0,0,1,46.2,53.2.94.94,0,0,1,45.2,54.2Zm-8.2,0a.94.94,0,0,1-1-1A19.77,19.77,0,0,0,16.6,33.7a1,1,0,0,1,0-2A21.45,21.45,0,0,1,38,53.2.94.94,0,0,1,37,54.2Z"/><path  d="M21.9,54.6a6.28,6.28,0,0,1-4.4-1.8,6.2,6.2,0,0,1-1.8-4.4A6.47,6.47,0,0,1,17.5,44a6.4,6.4,0,0,1,8.9,0,6.2,6.2,0,0,1,1.8,4.4,6.47,6.47,0,0,1-1.8,4.4h0A6.91,6.91,0,0,1,21.9,54.6Zm0-10.6a4,4,0,0,0-3,1.3,4.34,4.34,0,0,0-1.3,3,4,4,0,0,0,1.3,3,4.48,4.48,0,0,0,6.1,0h0a4.34,4.34,0,0,0,1.3-3,4,4,0,0,0-1.3-3A4.77,4.77,0,0,0,21.9,44Z"/></g></svg>