<svg xmlns="http://www.w3.org/2000/svg" viewBox="0 0 70 70"><defs></defs><title>03_Icons_amenities_v1</title><g id="Layer_115" data-name="Layer 115"><path  d="M56.19,59.75a46,46,0,0,1-45.9-45.9,3.65,3.65,0,0,1,3.6-3.6h9.2a3.65,3.65,0,0,1,3.6,3.6,28.17,28.17,0,0,0,1.5,9.2,3.49,3.49,0,0,1-.9,3.7L22,32.05a39.75,39.75,0,0,0,16,16l5.3-5.3a4,4,0,0,1,3.5-1,26.76,26.76,0,0,0,9.3,1.6,3.65,3.65,0,0,1,3.6,3.6v9.2A3.44,3.44,0,0,1,56.19,59.75ZM14,12.15a1.64,1.64,0,0,0-1.6,1.6,44,44,0,0,0,43.9,43.9,1.64,1.64,0,0,0,1.6-1.6V47a1.64,1.64,0,0,0-1.6-1.6,31.45,31.45,0,0,1-9.8-1.6,1.8,1.8,0,0,0-1.6.5l-5.8,5.8a1.06,1.06,0,0,1-1.2.2A41.8,41.8,0,0,1,20,32.35a1.06,1.06,0,0,1,.2-1.2l5.8-5.8a1.52,1.52,0,0,0,.5-1.6,29.41,29.41,0,0,1-1.7-9.9,1.64,1.64,0,0,0-1.6-1.6l-9.2-.1Z"/></g></svg>