<svg xmlns="http://www.w3.org/2000/svg" viewBox="0 0 70 70"><defs></defs><title>03_Icons_amenities_v1</title><g id="Layer_107" data-name="Layer 107"><g id="Camera"><path  d="M43.45,21.35a.89.89,0,0,1-.8-.5l-2.2-3.5c0-.1-.2-.2-.3-.2h-9.9c-.1,0-.2,0-.3.2l-2.2,3.5a1,1,0,0,1-1.7-1.1l2.2-3.5a2.43,2.43,0,0,1,2-1.1h9.9a2.57,2.57,0,0,1,2,1.1l2.3,3.5a1,1,0,0,1-.3,1.4A1.08,1.08,0,0,1,43.45,21.35Z"/><path  d="M49,54.85H21.05a9.39,9.39,0,0,1-9.4-9.4V28.75a9.39,9.39,0,0,1,9.4-9.4h5.6a1,1,0,0,1,0,2h-5.6a7.38,7.38,0,0,0-7.4,7.4v16.7a7.38,7.38,0,0,0,7.4,7.4H49a7.38,7.38,0,0,0,7.4-7.4V28.75a7.38,7.38,0,0,0-7.4-7.4h-5.6a1,1,0,0,1,0-2H49a9.39,9.39,0,0,1,9.4,9.4v16.7A9.39,9.39,0,0,1,49,54.85Z"/><path  d="M35.15,49.15a12.1,12.1,0,1,1,12.1-12.1A12.21,12.21,0,0,1,35.15,49.15Zm0-22.3A10.1,10.1,0,1,0,45.25,37,10.2,10.2,0,0,0,35.15,26.85Z"/><path  d="M35.15,45a8,8,0,1,1,8-8A8,8,0,0,1,35.15,45Zm0-14a6,6,0,1,0,6,6A6,6,0,0,0,35.15,31Z"/><path  d="M50.65,28H48a1,1,0,0,1,0-2h2.7a.94.94,0,0,1,1,1A1,1,0,0,1,50.65,28Z"/></g></g></svg>