<svg xmlns="http://www.w3.org/2000/svg" viewBox="0 0 70 70"><defs></defs><title>03_Icons_amenities_v1</title><g id="Layer_129" data-name="Layer 129"><path  d="M37.6,62.34H32.4a.94.94,0,0,1-1-1v-9.9a1,1,0,0,1,2,0v8.9h3.2v-8.9a1,1,0,0,1,2,0v9.9A1.08,1.08,0,0,1,37.6,62.34Z"/><path  d="M33.1,62.34H27.7a1,1,0,0,1,0-2h5.4a1,1,0,0,1,0,2Z"/><path  d="M42.3,62.34H36.9a1,1,0,0,1,0-2h5.4a1,1,0,0,1,0,2Z"/><path  d="M35,47.23a13,13,0,0,1-13-13V20.62a13,13,0,0,1,25.92,0V34.27A13,13,0,0,1,35,47.23ZM35,9.66a11,11,0,0,0-11,11V34.27a11,11,0,0,0,21.92,0V20.62A11,11,0,0,0,35,9.66Z"/><path  d="M35,52.22A18.29,18.29,0,0,1,16.73,33.94a1,1,0,0,1,2,0,16.27,16.27,0,1,0,32.54,0,1,1,0,0,1,2,0A18.29,18.29,0,0,1,35,52.22Z"/><path  d="M46.81,22.94H40.53a1,1,0,0,1,0-2h6.28a1,1,0,0,1,0,2Z"/><path  d="M46.81,27.94H40.53a1,1,0,0,1,0-2h6.28a1,1,0,0,1,0,2Z"/><path  d="M29.32,22.94H23a1,1,0,0,1,0-2h6.28a1,1,0,0,1,0,2Z"/><path  d="M29.32,27.94H23a1,1,0,0,1,0-2h6.28a1,1,0,0,1,0,2Z"/><path  d="M46.81,32.94H40.53a1,1,0,0,1,0-2h6.28a1,1,0,0,1,0,2Z"/><path  d="M29.32,32.94H23a1,1,0,0,1,0-2h6.28a1,1,0,1,1,0,2Z"/></g></svg>