<svg xmlns="http://www.w3.org/2000/svg" viewBox="0 0 70 70"><defs></defs><title>03_Icons_amenities_v1</title><g id="Layer_32" data-name="Layer 32"><path  d="M49,48.29H21a1.06,1.06,0,0,1-1-1.45L28.75,25a1.06,1.06,0,0,1,1-.66H40.27a1.05,1.05,0,0,1,1,.66L50,46.84a1.06,1.06,0,0,1-1,1.45ZM22.54,46.17H47.46L39.55,26.41h-9.1Z"/><path  d="M49,57.89A1.06,1.06,0,0,1,48,56.83v-9.6a1.06,1.06,0,1,1,2.11,0v9.6A1.06,1.06,0,0,1,49,57.89Z"/><path  d="M21,57.89a1.06,1.06,0,0,1-1.06-1.06v-9.6a1.06,1.06,0,1,1,2.11,0v9.6A1.06,1.06,0,0,1,21,57.89Z"/><path  d="M43.64,34.62a1.06,1.06,0,0,1-1.06-1V16.78a1.06,1.06,0,0,1,2.12,0V33.57A1.05,1.05,0,0,1,43.64,34.62Z"/><path  d="M26.36,34.62a1.06,1.06,0,0,1-1.06-1V16.78a1.06,1.06,0,0,1,2.12,0V33.57A1.06,1.06,0,0,1,26.36,34.62Z"/><path  d="M50.07,19.29H19.93a1.06,1.06,0,1,1,0-2.11H50.07a1.06,1.06,0,1,1,0,2.11Z"/><path  d="M50.07,24.36A1.07,1.07,0,0,1,49,23.3V13.17a1.06,1.06,0,0,1,2.12,0V23.3A1.07,1.07,0,0,1,50.07,24.36Z"/><path  d="M53.44,22.94a1.05,1.05,0,0,1-1.06-1.05v-7.3a1.06,1.06,0,1,1,2.11,0v7.3A1,1,0,0,1,53.44,22.94Z"/><path  d="M56.8,20.75a1,1,0,0,1-1-1.05V16.78a1.06,1.06,0,1,1,2.11,0V19.7A1.05,1.05,0,0,1,56.8,20.75Z"/><path  d="M19.93,24.36a1.07,1.07,0,0,1-1.06-1.06V13.17a1.06,1.06,0,1,1,2.12,0V23.3A1.07,1.07,0,0,1,19.93,24.36Z"/><path  d="M16.56,22.94a1,1,0,0,1-1-1.05v-7.3a1.06,1.06,0,1,1,2.11,0v7.3A1.05,1.05,0,0,1,16.56,22.94Z"/><path  d="M13.2,20.75a1.05,1.05,0,0,1-1.06-1.05V16.78a1.06,1.06,0,1,1,2.11,0V19.7A1,1,0,0,1,13.2,20.75Z"/><path  d="M49,52.37H21a1.05,1.05,0,0,1-1.06-1.06V47.23A1.06,1.06,0,0,1,21,46.17H49a1.06,1.06,0,0,1,1.06,1.06v4.08A1.05,1.05,0,0,1,49,52.37ZM22,50.25H48v-2H22Z"/></g></svg>