<svg xmlns="http://www.w3.org/2000/svg" viewBox="0 0 70 70"><defs></defs><title>03_Icons_amenities_v1</title><g id="Layer_28" data-name="Layer 28"><path  d="M33.68,53.55a15.61,15.61,0,0,1-11.32-4.82c-6-6.27-10-19.83-6.41-31.64a.89.89,0,0,1,.5-.57.92.92,0,0,1,.76,0c3.82,1.94,8.29,3,12.61,4.06,6,1.46,11.74,2.84,15.18,6.43h0A15.67,15.67,0,0,1,33.68,53.55ZM17.37,18.63c-2.92,10.93.81,23.13,6.29,28.85a13.88,13.88,0,0,0,19.62.42,13.9,13.9,0,0,0,.42-19.62c-3.07-3.2-8.53-4.52-14.31-5.92A65.19,65.19,0,0,1,17.37,18.63Z"/><path  d="M52.71,53.11c-14.59,0-31.81-25.36-32.57-26.49a.9.9,0,0,1,1.49-1c.19.28,18.94,27.88,32.76,25.55a.89.89,0,0,1,1,.74.91.91,0,0,1-.74,1A13,13,0,0,1,52.71,53.11Z"/><path  d="M36.92,45.34a1,1,0,0,1-.29,0,.91.91,0,0,1-.56-1.15L40,32.76a.9.9,0,0,1,1.7.59l-3.9,11.39A.9.9,0,0,1,36.92,45.34Z"/><path  d="M29.13,37.54a1,1,0,0,1-.29,0,.9.9,0,0,1-.56-1.14l1.61-4.74a.9.9,0,0,1,1.71.58L30,36.93A.91.91,0,0,1,29.13,37.54Z"/><path  d="M25.28,43.61a.9.9,0,0,1-.85-.62A.89.89,0,0,1,25,41.86l7.26-2.39a.9.9,0,0,1,.57,1.71l-7.26,2.39A1,1,0,0,1,25.28,43.61Z"/><path  d="M21.8,32.92a.9.9,0,0,1-.84-.59.89.89,0,0,1,.52-1.16l2-.77a.9.9,0,1,1,.64,1.68l-2,.78A.91.91,0,0,1,21.8,32.92Z"/></g></svg>