<svg xmlns="http://www.w3.org/2000/svg" viewBox="0 0 70 70"><defs></defs><title>03_Icons_amenities_v1</title><g id="Layer_106" data-name="Layer 106"><path  d="M54,55.1H16.05a5.53,5.53,0,0,1-5.6-5.6v-13a5.53,5.53,0,0,1,5.6-5.6,5.47,5.47,0,0,1,5.6,5.6v6.3h26.5V36.5a5.53,5.53,0,0,1,5.6-5.6,5.7,5.7,0,0,1,5.8,5.6V49.6A5.51,5.51,0,0,1,54,55.1ZM16.15,32.9a3.59,3.59,0,0,0-3.6,3.6V49.6a3.59,3.59,0,0,0,3.6,3.6h37.9a3.59,3.59,0,0,0,3.6-3.6V36.5a3.7,3.7,0,0,0-3.8-3.6,3.59,3.59,0,0,0-3.6,3.6v7.3a.94.94,0,0,1-1,1H20.75a.94.94,0,0,1-1-1V36.5A3.65,3.65,0,0,0,16.15,32.9Z"/><path  d="M54.25,30a.94.94,0,0,1-1-1V21.1a4.29,4.29,0,0,0-4.2-4.2h-28a4.16,4.16,0,0,0-4.2,4.2V29a1,1,0,0,1-2,0V21.1a6.11,6.11,0,0,1,6.2-6.2h28a6.3,6.3,0,0,1,6.2,6.2V29A1,1,0,0,1,54.25,30Z"/></g></svg>