<svg xmlns="http://www.w3.org/2000/svg" viewBox="0 0 70 70"><defs></defs><title>03_Icons_amenities_v1</title><g id="Layer_104" data-name="Layer 104"><path  d="M17.83,60.8a1.42,1.42,0,0,1-.6-.2,1,1,0,0,1-.3-1.2l9.6-21.6-7.4-.9a.75.75,0,0,1-.7-.5,1,1,0,0,1-.1-.9L28.56,10.8a1,1,0,0,1,.9-.6h21.7a1.05,1.05,0,0,1,.9.5.92.92,0,0,1-.1,1L39.23,29l12.1,1.5a.85.85,0,0,1,.8.7.91.91,0,0,1-.3,1L18.53,60.4A.75.75,0,0,1,17.83,60.8Zm2.9-25.7,7.4.9a.75.75,0,0,1,.7.5,1.41,1.41,0,0,1,.1.9L20.63,56l28.3-23.6-11.6-1.5a1,1,0,0,1-.8-.6,1.18,1.18,0,0,1,.1-1L49.26,12.2h-19Z"/></g></svg>