<svg xmlns="http://www.w3.org/2000/svg" viewBox="0 0 70 70"><defs></defs><title>03_Icons_amenities_v1</title><g id="Layer_74" data-name="Layer 74"><path  d="M54.78,54.8H32.08a.94.94,0,0,1-1-1V40.7h-7.9V53.8a.94.94,0,0,1-1,1h-7.1a.94.94,0,0,1-1-1V36.6a1,1,0,1,1,2,0V52.8h5.1V39.7a.94.94,0,0,1,1-1h9.9a.94.94,0,0,1,1,1V52.8h20.7V36.6a1,1,0,1,1,2,0V53.8A.94.94,0,0,1,54.78,54.8Z"/><path  d="M59,30H11a1.23,1.23,0,0,1-.8-.4,1,1,0,0,1-.1-.9l4.1-12.8a1,1,0,0,1,1-.7h39.7a1.2,1.2,0,0,1,1,.7L60,28.7a1.41,1.41,0,0,1-.1.9A1.22,1.22,0,0,1,59,30Zm-46.6-2h45.2l-3.5-10.8H15.88Z"/><path  d="M48.58,47.9h-9.7a.94.94,0,0,1-1-1V39.7a.94.94,0,0,1,1-1h9.7a.94.94,0,0,1,1,1v7.2A1,1,0,0,1,48.58,47.9Zm-8.8-2h7.7V40.7h-7.7Z"/><path  d="M15.78,34.8A5.8,5.8,0,0,1,10,29a.94.94,0,0,1,1-1,.94.94,0,0,1,1,1,3.8,3.8,0,0,0,7.6,0,1,1,0,0,1,2,0A5.8,5.8,0,0,1,15.78,34.8Z"/><path  d="M25.38,34.8a5.8,5.8,0,0,1-5.8-5.8,1,1,0,0,1,2,0,3.8,3.8,0,1,0,7.6,0,1,1,0,0,1,2,0A5.8,5.8,0,0,1,25.38,34.8Z"/><path  d="M35,34.8a5.8,5.8,0,0,1-5.8-5.8,1,1,0,0,1,2,0,3.8,3.8,0,0,0,7.6,0,1,1,0,0,1,2,0A5.8,5.8,0,0,1,35,34.8Z"/><path  d="M44.58,34.8a5.8,5.8,0,0,1-5.8-5.8,1,1,0,0,1,2,0,3.8,3.8,0,0,0,7.6,0,1,1,0,1,1,2,0A5.8,5.8,0,0,1,44.58,34.8Z"/><path  d="M54.18,34.8a5.8,5.8,0,0,1-5.8-5.8,1,1,0,1,1,2,0A3.8,3.8,0,1,0,58,29a1,1,0,1,1,2,0A5.8,5.8,0,0,1,54.18,34.8Z"/></g></svg>