<svg xmlns="http://www.w3.org/2000/svg" viewBox="0 0 70 70"><defs></defs><title>03_Icons_amenities_v1</title><g id="Layer_143" data-name="Layer 143"><g id="Favorite"><path  d="M26.89,28.21a1.62,1.62,0,0,1-.67-.23l-5.35-2.67-5.45,2.56A1.39,1.39,0,0,1,14,27.76a1.44,1.44,0,0,1-.56-1.45L15,20.74l-3.79-4a1.77,1.77,0,0,1-.33-1.44,1.29,1.29,0,0,1,1.11-.9l5.35-.66,2.45-5a1.43,1.43,0,0,1,1.34-.78,1.31,1.31,0,0,1,1.22.9L24.66,14l5.35.89a1.31,1.31,0,0,1,1.11,1,1.62,1.62,0,0,1-.33,1.45l-3.9,3.79,1.33,5.57a1.55,1.55,0,0,1-.55,1.56ZM14.53,25.87Zm6.33-2.25a1.85,1.85,0,0,1,.75.25l4.59,2.36L25,21.51A1.59,1.59,0,0,1,25.45,20l3.48-3.47-5.46-1-2.36-5.09L19,14.81a1.79,1.79,0,0,1-1.24.87L13,16.3l3.35,3.6a1.4,1.4,0,0,1,.37,1.37L15.4,26.11l4.72-2.24A.89.89,0,0,1,20.86,23.62Zm-.32,1.58Zm.78,0Zm-6-4.12Z"/></g></g><g id="Layer_90" data-name="Layer 90"><path  d="M49.84,39.57a5,5,0,1,0,5,5A5,5,0,0,0,49.84,39.57Zm0,8a3,3,0,0,1-3-3,3,3,0,1,1,3,3Z"/><path  d="M20.24,39.57a5,5,0,1,0,5,5A5,5,0,0,0,20.24,39.57Zm0,8a3,3,0,0,1-3-3,3,3,0,1,1,3,3Z"/><path  d="M41.34,43.57H28.64a.94.94,0,0,0-1,1,1,1,0,0,0,1,1h12.7a1,1,0,0,0,0-2Z"/><path  d="M57.84,35.47l-1.8-.7-4.7-13.7a4.42,4.42,0,0,0-4.2-3H33.68a1,1,0,0,0,0,2H47a2.26,2.26,0,0,1,2.3,1.7l4.44,12.8H16.09l1.27-3.76a.87.87,0,0,0-.48-1.1.88.88,0,0,0-1.18.51l-1.56,4.55-1.8.7a2.72,2.72,0,0,0-1.7,2.5v13.3a2.55,2.55,0,0,0,2.6,2.7h2.3v4.8a2.11,2.11,0,0,0,2.1,2.1h6.7a2.05,2.05,0,0,0,2.1-2.1V54h17.2v4.8a2.11,2.11,0,0,0,2.1,2.1h6.7a2.05,2.05,0,0,0,2.1-2.1V54h2.3a2.7,2.7,0,0,0,2.7-2.7V38A2.72,2.72,0,0,0,57.84,35.47Zm-33.4,23.3-6.8.1c-.1,0-.1,0-.1-.1V54h6.9Zm28.1,0-6.8.1c-.1,0-.1,0-.1-.1V54h6.9Zm4.9-7.5a.7.7,0,0,1-.7.7H13.14a.7.7,0,0,1-.7-.7V38a.68.68,0,0,1,.39-.6l2-.81H55.08l2,.8a.55.55,0,0,1,.4.6Z"/></g></svg>