<svg xmlns="http://www.w3.org/2000/svg" viewBox="0 0 70 70"><defs></defs><title>03_Icons_amenities_v1</title><g id="Layer_78" data-name="Layer 78"><path  d="M59.05,56.55a.94.94,0,0,1-1-1V19.25a5.8,5.8,0,0,0-5.8-5.8H17.65a5.8,5.8,0,0,0-5.8,5.8v36.3a.94.94,0,0,1-1,1,.94.94,0,0,1-1-1V19.25a7.81,7.81,0,0,1,7.8-7.8h34.6a7.81,7.81,0,0,1,7.8,7.8v36.3A1.08,1.08,0,0,1,59.05,56.55Z"/><path  d="M65.25,60.15a.94.94,0,0,1-1-1v-1.5a1.11,1.11,0,0,0-1.1-1.1H55a1.11,1.11,0,0,0-1.1,1.1v1.5a1,1,0,0,1-2,0v-1.5a3.12,3.12,0,0,1,3.1-3.1h8.2a3.12,3.12,0,0,1,3.1,3.1v1.5A1,1,0,0,1,65.25,60.15Z"/><path  d="M17.15,60.15a.94.94,0,0,1-1-1v-1.5a1.11,1.11,0,0,0-1.1-1.1H6.85a1.11,1.11,0,0,0-1.1,1.1v1.5a.94.94,0,0,1-1,1,.94.94,0,0,1-1-1v-1.5a3.12,3.12,0,0,1,3.1-3.1h8.2a3.12,3.12,0,0,1,3.1,3.1v1.5A1.08,1.08,0,0,1,17.15,60.15Z"/><path  d="M30.75,37.65h-9.6a.94.94,0,0,1-1-1V26.25l-.4.2a1,1,0,0,1-1.4-.3l-3.6-5.5a1,1,0,0,1,.3-1.4l5.5-3.6a1.69,1.69,0,0,1,.5-.2h8.1a1,1,0,0,1,0,2h-7.8L17,20.35l2.5,3.8,1.1-.7a.91.91,0,0,1,1,0,1.05,1.05,0,0,1,.5.9v11.3h8.6a.94.94,0,0,1,1,1A.92.92,0,0,1,30.75,37.65Z"/><path  d="M26.65,19.05a1.19,1.19,0,0,1-.9-.5,4.49,4.49,0,0,1-.5-1.9,1,1,0,0,1,2,0,3.55,3.55,0,0,0,.2,1,1,1,0,0,1-.4,1.4C27,19,26.85,19.05,26.65,19.05Z"/><path  d="M28.15,17.55a.94.94,0,0,1-1-1v-5.7a1,1,0,0,1,2,0v5.7A.94.94,0,0,1,28.15,17.55Z"/><path  d="M49.85,40.05H33.65a.94.94,0,0,1-1-1V26.25l-.4.2a1,1,0,0,1-1.4-.3l-3.6-5.5a1.06,1.06,0,0,1-.1-.8.92.92,0,0,1,.4-.6l5.5-3.6a1.69,1.69,0,0,1,.5-.2h16.2a.76.76,0,0,1,.5.2l5.5,3.6a.82.82,0,0,1,.4.6,2.49,2.49,0,0,1-.1.8l-3.6,5.5a1,1,0,0,1-1.4.3l-.4-.2v12.8A.76.76,0,0,1,49.85,40.05Zm-15.2-2h14.2V24.45a1.05,1.05,0,0,1,.5-.9.91.91,0,0,1,1,0l1.1.7,2.5-3.8-4.4-2.9H34l-4.4,2.9,2.5,3.8,1.1-.7a.91.91,0,0,1,1,0,1.05,1.05,0,0,1,.5.9v13.6Z"/><path  d="M41.75,20.55a4,4,0,0,1-4-4,1,1,0,1,1,2,0,2,2,0,0,0,4,0,1,1,0,1,1,2,0A4,4,0,0,1,41.75,20.55Z"/><path  d="M41.75,17.55a.94.94,0,0,1-1-1v-5.7a1,1,0,0,1,2,0v5.7A.94.94,0,0,1,41.75,17.55Z"/></g></svg>