<svg xmlns="http://www.w3.org/2000/svg" viewBox="0 0 70 70"><defs></defs><title>03_Icons_amenities_v1</title><g id="Layer_71" data-name="Layer 71"><path  d="M55.7,55.85H15.5a.94.94,0,0,1-1-1v-6.6a.94.94,0,0,1,1-1H55.7a.94.94,0,0,1,1,1v6.6A1,1,0,0,1,55.7,55.85Zm-39.2-2H54.7v-4.6H16.5Z"/><path  d="M52.7,49.25H32.6a.94.94,0,0,1-1-1V29.15H17.8a.94.94,0,0,1-1-1v-13a.94.94,0,0,1,1-1H52.7a.94.94,0,0,1,1,1v33.1A1.08,1.08,0,0,1,52.7,49.25Zm-19.1-2H51.7V16.15H18.8v11H32.6a.94.94,0,0,1,1,1v19.1Z"/><path  d="M28.5,37.65H19.7a.94.94,0,0,1-1-1v-3.9a.94.94,0,0,1,1-1h8.8a.94.94,0,0,1,1,1v3.9A1.08,1.08,0,0,1,28.5,37.65Zm-7.8-2h6.8v-1.9H20.7Z"/><path  d="M19.7,35.65H14.3a1,1,0,0,1,0-2h5.4a.94.94,0,0,1,1,1A1,1,0,0,1,19.7,35.65Z"/><path  d="M27.1,33.75H21a.94.94,0,0,1-1-1v-4.6a.94.94,0,0,1,1-1h6.1a.94.94,0,0,1,1,1v4.6A1,1,0,0,1,27.1,33.75Zm-5.1-2h4.1v-2.6H22Z"/><path  d="M36,46.05a.94.94,0,0,1-1-1v-1.4a1,1,0,0,1,2,0v1.4A1.08,1.08,0,0,1,36,46.05Z"/><path  d="M38.6,46.05a.94.94,0,0,1-1-1v-1.4a1,1,0,0,1,2,0v1.4A1.08,1.08,0,0,1,38.6,46.05Z"/><path  d="M46,26a4.33,4.33,0,0,1-4.3-4.3A4.3,4.3,0,1,1,46,26Zm0-6.5a2.33,2.33,0,0,0-2.3,2.3,2.3,2.3,0,0,0,4.6,0A2.33,2.33,0,0,0,46,19.45Z"/></g></svg>