<?xml version="1.0" encoding="utf-8"?>
<!-- Generator: Adobe Illustrator 23.0.4, SVG Export Plug-In . SVG Version: 6.00 Build 0)  -->
<svg version="1.1" id="Layer_1" xmlns="http://www.w3.org/2000/svg" xmlns:xlink="http://www.w3.org/1999/xlink" x="0px" y="0px"
	 viewBox="0 0 1254 611" style="enable-background:new 0 0 1254 611;" xml:space="preserve">
<style type="text/css">
	.st0{fill:#DDDDDD;}
	.st1{fill:#C4C4C4;}
	.st2{fill:#BABABA;}
</style>
<g>
	<g>
		<path class="st0" d="M11.4,582.8h1191c-244.1-93.2-208.7-353.9-396.9-353.9c-123.5,0-135.3,201.7-220.6,201.7
			c-86.8,0-98.5-114.2-227.9-114.2C226,316.4,154,533.3,11.4,582.8z"/>
		<path class="st1" d="M1242.6,582.8H351.1c182.7-60.9,156.2-231,297.1-231c92.5,0,101.3,131.7,165.2,131.7
			c64.9,0,73.7-74.5,170.6-74.5C1081.9,408.9,1135.9,550.5,1242.6,582.8z"/>
		<circle class="st0" cx="536.4" cy="226.5" r="27.2"/>
		<ellipse class="st2" cx="536.4" cy="226.5" rx="53.6" ry="13.5"/>
		<path class="st0" d="M510.8,235.6c3.7,10.5,13.8,18.1,25.6,18.1c10.1,0,19.7-7,24.4-15.2C569.9,221.4,507.3,224.7,510.8,235.6z"/>
		<path class="st0" d="M536.4,253.7c10.1,0,19.3-5.3,24.4-15.2c4.7-8.8-5.9-16.4-20.7-16.9c-13.6-0.4-31.1,8.7-29.4,14"/>
		<path class="st0" d="M1004.8,71c-4.3,0-8.3,1.5-11.5,3.9c-2.9-12.2-13.8-21.3-26.9-21.3c-4.6,0-8.9,1.1-12.6,3.1
			c-5.6-13.8-19.2-23.5-35-23.5c-19,0-34.8,14-37.4,32.3c-2.8-1.2-5.8-1.9-9-1.9c-12.5,0-22.6,10.1-22.6,22.6s10.1,22.6,22.6,22.6
			c8.3,0,35.9,0,46.4,0c10.1,0,38.9,0,47.7,0c8.7,0,31,0,38.3,0c10.4,0,18.9-8.5,18.9-18.9C1023.7,79.5,1015.2,71,1004.8,71z"/>
		<path class="st0" d="M293,139.6c-4.6,0-8.9,1.1-12.6,3.1c-5.6-13.8-19.2-23.5-35-23.5c-19,0-34.8,14-37.4,32.3
			c-2.8-1.2-5.8-1.9-9-1.9c-12.5,0-22.6,10.1-22.6,22.6s10.1,22.6,22.6,22.6c8.3,0,35.9,0,46.4,0c10.1,0,38.9,0,47.7,0
			c15.2,0,27.6-12.4,27.6-27.6S308.2,139.6,293,139.6z"/>
	</g>
	<path class="st1" d="M291.9,502.6c-3.4,0.4-6,4.4-6,8.9v14.3H279V486c0-5.6-3.5-10.1-7.8-10.1s-7.8,4.5-7.8,10.1v59.2H257v-21
		c0-4.5-2.5-8.5-6-8.9c-3.9-0.5-7.3,3.5-7.3,8.5V552c0,4.9,3.1,8.9,6.9,8.9h6.4h6.4v21.9H279v-41.4h6.9h6.4c3.8,0,6.9-4,6.9-8.9V511
		C299.1,506.1,295.8,502.1,291.9,502.6z"/>
</g>
</svg>
