<svg height="512pt" viewBox="0 0 512 512" width="512pt" xmlns="http://www.w3.org/2000/svg"><path d="m17.066406 332.800781h170.667969c9.421875-.011719 17.054687-7.644531 17.066406-17.066406v-119.46875c-.011719-9.421875-7.644531-17.054687-17.066406-17.066406h-170.667969c-9.421875.011719-17.0546872 7.644531-17.066406 17.066406v119.46875c.0117188 9.421875 7.644531 17.054687 17.066406 17.066406zm0-136.535156h170.667969l.007813 119.46875h-170.675782zm0 0"/><path d="m17.066406 512h68.265625c9.421875-.011719 17.058594-7.644531 17.066407-17.066406v-119.46875c-.007813-9.417969-7.644532-17.054688-17.066407-17.066406h-68.265625c-9.421875.011718-17.0546872 7.648437-17.066406 17.066406v119.46875c.0117188 9.421875 7.644531 17.054687 17.066406 17.066406zm0-136.535156h68.265625l.011719 119.46875h-68.277344zm0 0"/><path d="m494.933594 0h-477.867188c-9.421875.0117188-17.0546872 7.644531-17.066406 17.066406v119.46875c.0117188 9.417969 7.644531 17.054688 17.066406 17.066406h234.964844c4.8125 8.179688 8.941406 16.742188 12.351562 25.597657h-16.917968c-9.417969.011719-17.054688 7.644531-17.066406 17.066406v119.46875c.011718 9.421875 7.648437 17.054687 17.066406 17.066406h16.425781c-.117187 3.855469-.34375 7.730469-.300781 11.539063.058594 4.515625.277344 9.246094.570312 14.058594h-119.09375c-9.421875.011718-17.054687 7.648437-17.066406 17.066406v119.46875c.011719 9.421875 7.644531 17.054687 17.066406 17.066406h349.867188c9.421875-.011719 17.054687-7.644531 17.066406-17.066406v-477.867188c-.011719-9.421875-7.644531-17.0546872-17.066406-17.066406zm-477.867188 17.066406h142.871094c-.546875 11.957032-.160156 23.9375 1.164062 35.832032 4.722657 24.5 23.847657 36.871093 40.722657 47.789062l2.742187 1.773438c13.921875 9.191406 26.148438 20.71875 36.144532 34.074218h-223.644532zm230.398438 179.199219h22.390625c3.898437 14.238281 6.011719 28.90625 6.285156 43.664063-.246094 13.183593-2.0625 26.289062-5.40625 39.042968-1.269531 5.753906-2.542969 11.554688-3.59375 17.53125-1.109375 6.25-1.835937 12.71875-2.382813 19.230469h-17.292968zm-102.398438 179.199219h120.792969c4.546875 43.5 21.128906 84.871094 47.886719 119.46875h-168.679688zm349.867188 119.46875h-158.550782c-32.058593-35.621094-51.269531-80.957032-54.558593-128.769532-.691407-7.652343-1.082031-15.070312-1.164063-22.042968-.085937-6.367188.089844-12.867188.511719-19.445313.394531-8.453125 1.324219-16.871093 2.773437-25.207031 1.019532-5.738281 2.242188-11.308594 3.460938-16.832031 3.644531-14.042969 5.59375-28.46875 5.808594-42.976563-.308594-18.480468-3.230469-36.824218-8.679688-54.488281-4.859375-15.664063-11.6875-30.644531-20.328125-44.585937-12.6875-20.984376-29.875-38.890626-50.324219-52.425782l-2.792968-1.808594c-16.03125-10.375-29.890625-19.332031-33.199219-36.449218-1.003906-10.914063-1.328125-21.882813-.972656-32.835938h318.015625zm0 0"/><path d="m195 48.039062c2.558594 8.867188 11.300781 14.890626 25.359375 23.976563l2.882813 1.871094c22.503906 14.859375 41.429687 34.535156 55.398437 57.605469 9.457031 15.253906 16.929687 31.648437 22.246094 48.792968 1.414062 4.496094 6.203125 6.992188 10.699219 5.582032 4.496093-1.414063 6.996093-6.207032 5.582031-10.703126-5.742188-18.507812-13.816407-36.210937-24.023438-52.683593-15.289062-25.195313-35.984375-46.675781-60.589843-62.894531l-2.921876-1.894532c-6.652343-3.71875-12.722656-8.390625-18.019531-13.867187l-.132812-1.722657c-.3125-4.707031-4.378907-8.265624-9.082031-7.953124-4.703126.316406-8.261719 4.382812-7.949219 9.085937.085937 1.222656.167969 2.332031.253906 3.265625.054687.519531.152344 1.035156.296875 1.539062zm0 0"/><path d="m310.265625 239.359375c-.195313 16.019531-2.3125 31.957031-6.308594 47.472656-1.132812 5.128907-2.265625 10.289063-3.199219 15.59375-1.351562 7.761719-2.207031 15.597657-2.566406 23.46875-.382812 5.996094-.542968 12.066407-.46875 18.023438.078125 6.53125.445313 13.445312 1.09375 20.605469 2.816406 40.167968 17.609375 78.566406 42.464844 110.246093 1.910156 2.453125 5.003906 3.671875 8.074219 3.1875 3.070312-.488281 5.632812-2.605469 6.6875-5.527343 1.058593-2.925782.441406-6.191407-1.609375-8.527344-22.523438-29.117188-35.960938-64.234375-38.625-100.949219-.597656-6.679687-.9375-13.152344-1.015625-19.246094-.078125-5.53125.070312-11.144531.441406-16.851562.320313-7.195313 1.097656-14.359375 2.324219-21.457031.898437-5.058594 1.992187-9.996094 3.183594-15.429688 4.25-16.632812 6.460937-33.722656 6.589843-50.890625-.074219-4.65625-3.875-8.394531-8.53125-8.390625h-.140625c-2.265625.035156-4.421875.96875-5.992187 2.597656-1.574219 1.625-2.4375 3.8125-2.402344 6.074219zm0 0"/></svg>