<?xml version="1.0" encoding="iso-8859-1"?>
<!-- Generator: Adobe Illustrator 19.0.0, SVG Export Plug-In . SVG Version: 6.00 Build 0)  -->
<svg version="1.1" id="Layer_1" xmlns="http://www.w3.org/2000/svg" xmlns:xlink="http://www.w3.org/1999/xlink" x="0px" y="0px"
	 viewBox="0 0 512.001 512.001" style="enable-background:new 0 0 512.001 512.001;" xml:space="preserve">
<g>
	<g>
		<path d="M500.327,370.718h-71.159V304.24h71.158c6.437,0,11.674-5.237,11.674-11.674v-73.13c0-6.437-5.237-11.674-11.674-11.674
			h-71.159v-69.804c0-6.437-5.237-11.674-11.674-11.674H346.37V56.481c0-6.437-5.237-11.674-11.674-11.674h-39.071
			c-4.143,0-7.5,3.358-7.5,7.5c0,4.142,3.357,7.5,7.5,7.5h35.745v66.478H256h-75.292V59.807h84.667c4.143,0,7.5-3.358,7.5-7.5
			c0-4.142-3.357-7.5-7.5-7.5h-92.167h-0.005H11.715c-6.437,0-11.674,5.237-11.674,11.674v76.518C0.015,133.258,0,133.52,0,133.785
			v81.478c0,0.265,0.015,0.527,0.042,0.785v79.907C0.015,296.213,0,296.475,0,296.74v26.555c0,4.142,3.358,7.5,7.5,7.5
			s7.5-3.358,7.5-7.5V304.24h67.833v66.478H15v-17.319c0-4.142-3.358-7.5-7.5-7.5s-7.5,3.358-7.5,7.5v24.819
			c0,0.265,0.015,0.527,0.042,0.785v76.518c0,6.437,5.237,11.673,11.674,11.673h161.488h0.005h165.625h0.037h161.456
			c6.437,0,11.674-5.237,11.674-11.673v-73.13C512.001,375.954,506.764,370.718,500.327,370.718z M421.667,222.762H497v66.478
			h-75.333H346.37v-66.478H421.667z M263.5,141.285h75.37h75.297v66.478H338.87h-0.037H263.5V141.285z M331.333,222.762v66.478
			h-75.328H256h-75.292v-66.478H256H331.333z M248.5,141.285v66.478h-75.292h-0.005h-75.37v-66.478H248.5z M15.042,59.807h150.662
			v66.478h-75.37H15.042V59.807z M15,141.284h67.833v66.478H15V141.284z M15.042,289.24v-66.478h75.292h75.37v66.478H90.338h-0.005
			H15.042z M165.704,452.195H15.042v-66.477h75.292h0.005h75.365V452.195z M173.208,370.718h-0.005H97.838V304.24h75.365h0.005
			H248.5v66.478H173.208z M331.333,452.195H180.708v-66.477H256h0.005h75.328V452.195z M338.87,370.718h-0.037h-75.327V304.24
			h75.327h0.037h75.297v66.478H338.87z M497,452.195H346.37v-66.477h75.297H497V452.195z"/>
	</g>
</g>
<g>
</g>
<g>
</g>
<g>
</g>
<g>
</g>
<g>
</g>
<g>
</g>
<g>
</g>
<g>
</g>
<g>
</g>
<g>
</g>
<g>
</g>
<g>
</g>
<g>
</g>
<g>
</g>
<g>
</g>
</svg>
