<svg xmlns="http://www.w3.org/2000/svg" viewBox="0 0 70 70"><defs><style>.cls-1{fill:#6add92;}</style></defs><title>03_Icons_amenities_v1</title><g id="Layer_24" data-name="Layer 24"><path class="cls-1" d="M39.72,53H31.18V50.59h4.31a.9.9,0,0,0,0-1.8H31.18v-3h4.31a.9.9,0,0,0,0-1.8H31.18v-3h4.31a.9.9,0,0,0,0-1.8H31.18v-3h4.31a.9.9,0,0,0,0-1.8H31.18V32h8.54a.9.9,0,0,0,0-1.8H30.28a.9.9,0,0,0-.9.9v22.8a.9.9,0,0,0,.9.9h9.44a.9.9,0,0,0,0-1.8Z"/><path class="cls-1" d="M56.89,32.92,35.55,15.33s0,0-.06,0a.8.8,0,0,0-.16-.08l-.16-.05h-.34l-.16.05a.8.8,0,0,0-.16.08s0,0-.06,0L13.11,32.92A.89.89,0,0,0,13,34.18a.88.88,0,0,0,.71.35.9.9,0,0,0,.55-.19L35,17.21,55.79,34.34a.9.9,0,0,0,.55.19.88.88,0,0,0,.71-.35A.89.89,0,0,0,56.89,32.92Z"/><path class="cls-1" d="M52.82,54.84a.9.9,0,0,1-.9-.9V31.14a.9.9,0,1,1,1.8,0v22.8A.9.9,0,0,1,52.82,54.84Z"/><path class="cls-1" d="M17.27,54.84a.9.9,0,0,1-.9-.9V31.14a.9.9,0,0,1,1.8,0v22.8A.9.9,0,0,1,17.27,54.84Z"/></g></svg>