<?xml version="1.0"?>
<svg xmlns="http://www.w3.org/2000/svg" viewBox="0 0 64 64" width="512" height="512"><g id="outline"><path d="M44,14a1,1,0,0,0-.1-.447L43,11.764V9a1,1,0,0,0-1-1H38a1,1,0,0,0-1,1v2.764l-.9,1.789A1,1,0,0,0,36,14v9H31.443l2.494-6.648A1,1,0,0,0,33,15H32V12a5.009,5.009,0,0,0-4-4.9V6a1,1,0,0,0-1-1,5.006,5.006,0,0,0-5,5v5H21a1,1,0,0,0-.937,1.352L22.557,23H2v8H4v4H15.648L26.4,43.6,9.375,57.219A1,1,0,0,0,10,59h8a1,1,0,0,0,.625-.219L32,48.081l13.375,10.7A1,1,0,0,0,46,59h8a1,1,0,0,0,.625-1.781L37.6,43.6,48.352,35H60V31h2V23H44Zm-6,3h4v2H38Zm.9-4.553A1,1,0,0,0,39,12V10h2v2a1,1,0,0,0,.1.447l.9,1.789V15H38v-.764ZM38,21h4v2H38Zm-8-9v3H28V9.171A3.006,3.006,0,0,1,30,12Zm-6-2a3.006,3.006,0,0,1,2-2.829V15H24Zm-.057,11H26V19H23.193l-.75-2h9.114l-.75,2H28v2h2.057l-.75,2H24.693ZM17.649,57h-4.8L28,44.881,30.4,46.8Zm28.7,0-27.5-22h4.8l27.5,22Zm-19.5-22h10.3L32,39.119ZM36,42.319,33.6,40.4,40.351,35h4.8ZM58,33H6V31H58Zm2-4H4V25h6v2h2V25h7v2h2V25h8v2h2V25h2v2h2V25H49v2h2V25h9Z"/></g></svg>
