<svg height="480pt" viewBox="0 0 480 480.00004" width="480pt" xmlns="http://www.w3.org/2000/svg"><path d="m400 440c0 4.417969 3.582031 8 8 8s8-3.582031 8-8c.015625-13.25 10.75-23.984375 24-24 4.417969 0 8-3.582031 8-8s-3.582031-8-8-8c-13.25-.015625-23.984375-10.75-24-24 0-4.417969-3.582031-8-8-8s-8 3.582031-8 8c-.015625 13.25-10.75 23.984375-24 24-4.417969 0-8 3.582031-8 8s3.582031 8 8 8c13.25.015625 23.984375 10.75 24 24zm8-40.246094c2.332031 3.132813 5.113281 5.914063 8.246094 8.246094-3.132813 2.332031-5.914063 5.113281-8.246094 8.246094-2.332031-3.132813-5.113281-5.914063-8.246094-8.246094 3.132813-2.332031 5.914063-5.113281 8.246094-8.246094zm0 0"/><path d="m32 376c0 4.417969 3.582031 8 8 8s8-3.582031 8-8c.015625-13.25 10.75-23.984375 24-24 4.417969 0 8-3.582031 8-8s-3.582031-8-8-8c-13.25-.015625-23.984375-10.75-24-24 0-4.417969-3.582031-8-8-8s-8 3.582031-8 8c-.015625 13.25-10.75 23.984375-24 24-4.417969 0-8 3.582031-8 8s3.582031 8 8 8c13.25.015625 23.984375 10.75 24 24zm8-40.246094c2.332031 3.132813 5.113281 5.914063 8.246094 8.246094-3.132813 2.332031-5.914063 5.113281-8.246094 8.246094-2.332031-3.132813-5.113281-5.914063-8.246094-8.246094 3.132813-2.332031 5.914063-5.113281 8.246094-8.246094zm0 0"/><path d="m240 184c-30.929688 0-56 25.070312-56 56s25.070312 56 56 56 56-25.070312 56-56c-.035156-30.914062-25.085938-55.964844-56-56zm0 96c-22.089844 0-40-17.910156-40-40s17.910156-40 40-40 40 17.910156 40 40c-.027344 22.082031-17.917969 39.972656-40 40zm0 0"/><path d="m240 216c-13.253906 0-24 10.746094-24 24s10.746094 24 24 24 24-10.746094 24-24c-.015625-13.25-10.75-23.984375-24-24zm0 32c-4.417969 0-8-3.582031-8-8s3.582031-8 8-8 8 3.582031 8 8c-.003906 4.417969-3.582031 7.996094-8 8zm0 0"/><path d="m112 264c13.253906 0 24-10.746094 24-24s-10.746094-24-24-24-24 10.746094-24 24c.015625 13.25 10.75 23.984375 24 24zm0-32c4.417969 0 8 3.582031 8 8s-3.582031 8-8 8-8-3.582031-8-8c.003906-4.417969 3.582031-7.996094 8-8zm0 0"/><path d="m368 216c-13.253906 0-24 10.746094-24 24s10.746094 24 24 24 24-10.746094 24-24c-.015625-13.25-10.75-23.984375-24-24zm0 32c-4.417969 0-8-3.582031-8-8s3.582031-8 8-8 8 3.582031 8 8c-.003906 4.417969-3.582031 7.996094-8 8zm0 0"/><path d="m448 48h-52.449219c2.878907-4.839844 4.417969-10.367188 4.449219-16-.019531-17.664062-14.335938-31.9804688-32-32h-256c-17.664062.0195312-31.980469 14.335938-32 32 .03125 5.632812 1.570312 11.160156 4.449219 16h-52.449219c-17.664062.019531-31.9804688 14.335938-32 32v64c.0195312 17.664062 14.335938 31.980469 32 32h16.609375c-.363281 5.277344-.609375 10.589844-.609375 16 0 5.929688.21875 12.054688.652344 18.1875.023437.351562.074218.703125.105468 1.054688.128907 1.601562.285157 3.199218.464844 4.789062l.070313.644531.472656 4.582031c.0625.671876.128906 1.351563.195313 2.023438.160156 1.625.335937 3.25.554687 4.875.308594 2.28125.683594 4.546875 1.082031 6.8125.179688 1.054688.367188 2.101562.554688 3.15625l.664062 3.859375c.214844 1.296875.425782 2.585937.683594 3.890625v.007812l.003906.015626.011719.054687c.441406 2.226563.929687 4.445313 1.441406 6.65625.523438 2.261719 1.070313 4.511719 1.628907 6.765625l.035156.15625.898437 3.796875c.234375.894531.507813 1.8125.75 2.710937.4375 1.605469.863281 3.207032 1.328125 4.804688l.027344.09375c.757812 2.605469 1.574219 5.296875 2.464844 8.15625v.007812l.414062 1.375.003906.007813c.347657 1.085937.738282 2.191406 1.097657 3.277344.527343 1.582031 1.039062 3.164062 1.585937 4.738281.253906.726562.527344 1.441406.785156 2.164062.726563 2.039063 1.457032 4.078126 2.269532 6.261719l.050781.144531.058594.164063.003906.007813c.40625 1.066406.878906 2.117187 1.292969 3.179687 1.734375 4.453125 3.496094 8.890625 5.402344 13.273437h.003906l.011718.023438.160157.347656.003906.011719.011719.023437.007812.011719c2.335938 5.339844 4.789063 10.617188 7.363282 15.832031 11 22.234376 24.097656 43.363282 39.109374 63.109376 11.058594 14.609374 23.179688 28.378906 36.269532 41.199218-10.253906 4.6875-15.847656 15.890625-13.441406 26.90625 2.410156 11.011719 12.171874 18.859375 23.445312 18.839844h144c11.277344.019531 21.039062-7.828125 23.449219-18.84375 2.40625-11.019531-3.195313-22.222656-13.453125-26.90625 12.148437-11.855469 23.457031-24.535156 33.851562-37.953125 17.460938-22.496094 32.398438-46.84375 44.542969-72.601563 20.023437-41.066406 30.8125-86.015624 31.609375-131.695312 0-5.410156-.246094-10.722656-.605469-16h16.605469c17.664062-.019531 31.980469-14.335938 32-32v-64c-.019531-17.664062-14.335938-31.980469-32-32zm-80 136c-23.894531-.046875-45.1875 15.070312-53.019531 37.644531s-.480469 47.628907 18.308593 62.390625c18.789063 14.761719 44.875 15.976563 64.957032 3.023438-3.324219 9.195312-7.023438 18.378906-11.242188 27.496094l-36.378906 20.289062-53.480469-29.828125c-2.421875-1.359375-5.375-1.359375-7.796875 0l-53.4375 29.820313-53.386718-29.820313c-2.421876-1.359375-5.378907-1.359375-7.800782 0l-53.417968 29.820313-25.433594-14.203126c-2.132813-4.390624-4.179688-8.832031-6.144532-13.328124-2.074218-4.765626-4.019531-9.582032-5.875-14.433594-.261718-.679688-.515624-1.285156-.777343-1.984375l-.003907-.011719h.003907l-.097657-.269531c-.441406-1.179688-.8125-2.378907-1.242187-3.5625 19.074219 12.300781 43.691406 11.871093 62.320313-1.09375 18.632812-12.964844 27.59375-35.890625 22.691406-58.054688-4.902344-22.160156-22.699219-39.167969-45.0625-43.0625-22.359375-3.894531-44.859375 6.09375-56.964844 25.292969-.03125-.351562-.082031-.703125-.105469-1.054688v-.007812c-.40625-5.824219-.613281-11.566406-.613281-17.0625-.015625-9.972656.675781-19.9375 2.066406-29.8125l19.601563 12.546875c2.628906 1.6875 5.996093 1.6875 8.625 0l45.667969-29.234375 45.667968 29.234375c2.628906 1.6875 5.996094 1.6875 8.625 0l45.679688-29.234375 45.65625 29.234375c2.628906 1.683594 5.992187 1.683594 8.625.007813l45.695312-29.242188 45.738282 29.242188c2.628906 1.675781 5.988281 1.675781 8.617187 0l19.667969-12.578126c1.390625 9.882813 2.082031 19.855469 2.066406 29.835938 0 5.945312-.308594 11.976562-.765625 18.050781-10.242187-16.203125-28.066406-26.03125-47.234375-26.050781zm40 56c0 22.089844-17.910156 40-40 40s-40-17.910156-40-40 17.910156-40 40-40c22.082031.027344 39.972656 17.917969 40 40zm-318.019531-112c1.53125 0 3.027343-.4375 4.3125-1.265625l45.667969-29.234375 45.667968 29.234375c2.628906 1.6875 5.996094 1.6875 8.625 0l45.679688-29.234375 45.65625 29.234375c2.628906 1.683594 5.992187 1.683594 8.625.007813l45.695312-29.242188 45.738282 29.242188c2.628906 1.671874 5.988281 1.671874 8.617187 0l9.222656-5.898438c3.007813 7.929688 5.453125 16.054688 7.320313 24.324219l-20.851563 13.339843-45.738281-29.25c-2.628906-1.675781-5.992188-1.675781-8.621094 0l-45.695312 29.242188-45.65625-29.234375c-2.628906-1.6875-5.996094-1.6875-8.625 0l-45.679688 29.234375-45.667968-29.234375c-2.628907-1.6875-5.996094-1.6875-8.625 0l-45.667969 29.234375-20.792969-13.3125c1.867188-8.269531 4.3125-16.394531 7.320312-24.316406l9.15625 5.863281c1.289063.828125 2.785157 1.265625 4.316407 1.265625zm-24.484375-22.3125-.011719.015625c-3.226563 7.246094-5.984375 14.695313-8.246094 22.296875h-9.238281v-32h22.253906c-1.621094 3.085938-3.222656 6.273438-4.757812 9.6875zm6.503906 134.3125c0-22.089844 17.910156-40 40-40s40 17.910156 40 40-17.910156 40-40 40c-22.082031-.027344-39.972656-17.917969-40-40zm342.503906-134.320312c-1.535156-3.410157-3.136718-6.597657-4.753906-9.679688h22.25v32h-9.238281c-2.265625-7.609375-5.027344-15.066406-8.257813-22.320312zm-17.550781.351562-6.996094 4.476562-45.738281-29.25c-2.628906-1.675781-5.992188-1.675781-8.621094 0l-45.695312 29.242188-45.65625-29.234375c-2.628906-1.6875-5.996094-1.6875-8.625 0l-45.679688 29.234375-45.667968-29.234375c-2.628907-1.6875-5.996094-1.6875-8.625 0l-45.667969 29.234375-6.945313-4.449219c7.734375-15.960937 18.527344-30.246093 31.765625-42.050781h250.394531c13.234376 11.796875 24.023438 26.078125 31.757813 42.03125zm-300.953125-74.03125c.011719-8.832031 7.167969-15.988281 16-16h256c8.835938 0 16 7.164062 16 16s-7.164062 16-16 16h-256c-8.832031-.011719-15.988281-7.167969-16-16zm-64 128c-8.832031-.011719-15.988281-7.167969-16-16v-64c.011719-8.832031 7.167969-15.988281 16-16h60.101562c-4.453124 5.058594-8.570312 10.40625-12.328124 16h-39.773438c-4.417969 0-8 3.582031-8 8v48c0 4.417969 3.582031 8 8 8h13.128906c-.246094 1.132812-.539062 2.234375-.765625 3.375-.835937 4.214844-1.519531 8.417969-2.113281 12.625zm108.136719 230.648438 38.484375-21.484376 53.386718 29.820313c2.421876 1.359375 5.378907 1.359375 7.800782 0l53.4375-29.820313 44.148437 24.617188c-11.125 13.671875-23.304687 26.449219-36.421875 38.21875h-121.945312c-14.09375-12.675781-27.101563-26.507812-38.890625-41.351562zm171.863281 73.351562h-144c-4.417969 0-8-3.582031-8-8s3.582031-8 8-8h144c4.417969 0 8 3.582031 8 8s-3.582031 8-8 8zm35.371094-82.976562-50.226563-28.007813c-2.421875-1.359375-5.375-1.359375-7.796875 0l-53.4375 29.820313-53.386718-29.820313c-2.421876-1.359375-5.378907-1.359375-7.800782 0l-44.40625 24.789063c-7.304687-9.984376-14.105468-20.316407-20.402344-31l7.488282 4.179687c2.421875 1.359375 5.378906 1.359375 7.800781 0l53.417969-29.820313 53.386718 29.820313c2.421876 1.359375 5.378907 1.359375 7.800782 0l53.4375-29.820313 53.480468 29.820313c2.421876 1.359375 5.375 1.359375 7.792969 0l19.394531-10.8125c-7.941406 14.183594-16.808593 27.832031-26.542968 40.851563zm116.628906-237.023438c-.011719 8.832031-7.167969 15.988281-16 16h-18.25c-.59375-4.210938-1.273438-8.421875-2.113281-12.640625-.226563-1.136719-.519531-2.230469-.761719-3.359375h13.125c4.417969 0 8-3.582031 8-8v-48c0-4.417969-3.582031-8-8-8h-39.769531c-3.757813-5.59375-7.878907-10.941406-12.332031-16h60.101562c8.832031.011719 15.988281 7.167969 16 16zm0 0"/></svg>