<svg height="512pt" viewBox="0 -100 512 512" width="512pt" xmlns="http://www.w3.org/2000/svg"><path d="m507.964844 77.222656c-2.933594-3.226562-7.121094-5.078125-11.480469-5.078125h-10.667969c-2.023437 0-3.992187.269531-5.878906.753907v-41.351563c0-17.394531-14.152344-31.546875-31.550781-31.546875h-168.339844c-9.625 0-18.253906 4.339844-24.046875 11.160156-5.789062-6.820312-14.417969-11.160156-24.046875-11.160156h-168.339844c-17.398437 0-31.550781 14.152344-31.550781 31.546875v41.351563c-1.882812-.484376-3.855469-.753907-5.878906-.753907h-10.667969c-4.359375 0-8.546875 1.851563-11.480469 5.078125-2.933594 3.226563-4.378906 7.570313-3.9648435 11.910156l13.8124995 145.050782c1.15625 12.144531 11.230469 21.300781 23.425782 21.300781h1.625l-6.792969 47.554687c-.308594 2.152344.332031 4.332032 1.757813 5.972657 1.425781 1.640625 3.492187 2.585937 5.664062 2.585937h16.035156c3 0 5.710938-1.789062 6.890625-4.546875l22.101563-51.566406h11.085937c4.140625 0 7.5-3.355469 7.5-7.5 0-4.140625-3.359375-7.5-7.5-7.5h-58.367187c-4.421875 0-8.074219-3.320313-8.492188-7.722656l-13.816406-145.050781c-.003906-.0625-.019531-.226563.132812-.398438.15625-.167969.320313-.167969.382813-.167969h10.667969c4.125 0 7.65625 2.949219 8.394531 7.007813l13.519531 74.347656v7.339844c0 12.976562 10.554688 23.53125 23.53125 23.53125h168.339844c6.191406 0 11.828125-2.40625 16.03125-6.328125 4.207031 3.921875 9.84375 6.328125 16.03125 6.328125h168.339844c12.976562 0 23.53125-10.554688 23.53125-23.53125v-7.339844l13.519531-74.347656c.738281-4.0625 4.269531-7.007813 8.394531-7.007813h10.667969c.0625 0 .226563 0 .382813.167969.152343.171875.136718.335938.132812.398438l-13.816406 145.050781c-.417969 4.402343-4.070313 7.722656-8.492188 7.722656h-346.949218c-4.140626 0-7.5 3.359375-7.5 7.5 0 4.144531 3.359374 7.5 7.5 7.5h299.667968l22.101563 51.566406c1.179687 2.757813 3.894531 4.546875 6.894531 4.546875h16.03125c2.171875 0 4.238281-.945312 5.664062-2.585937 1.425782-1.640625 2.066407-3.820313 1.761719-5.972657l-6.792969-47.554687h1.621094c12.195313 0 22.269532-9.15625 23.425782-21.300781l13.8125-145.050782c.414062-4.34375-1.03125-8.683593-3.964844-11.910156zm-457.3125 219.375h-2.441406l5.875-41.113281h14.183593zm12.960937-281.597656h168.339844c9.125 0 16.546875 7.425781 16.546875 16.546875v88.179687c0 4.703126-3.828125 8.53125-8.53125 8.53125h-168.339844c-5.542968 0-10.640625 1.929688-14.667968 5.148438l-7.625-41.9375c-.429688-2.359375-1.21875-4.570312-2.273438-6.609375v-53.3125c0-9.125 7.425781-16.546875 16.550781-16.546875zm176.355469 169.371094h-168.339844c-4.707031 0-8.53125-3.828125-8.53125-8.53125v-24.046875c0-4.707031 3.828125-8.535157 8.53125-8.535157h168.339844c4.703125 0 8.53125 3.828126 8.53125 8.535157v24.046875c0 4.703125-3.828125 8.53125-8.53125 8.53125zm208.9375-8.53125c0 4.703125-3.828125 8.53125-8.535156 8.53125h-168.339844c-4.703125 0-8.53125-3.828125-8.53125-8.53125v-24.050782c0-4.703124 3.828125-8.53125 8.53125-8.53125h128.257812c4.140626 0 7.5-3.355468 7.5-7.5 0-4.140624-3.359374-7.5-7.5-7.5h-128.257812c-4.703125 0-8.53125-3.828124-8.53125-8.53125v-88.175781c0-9.125 7.421875-16.550781 16.546875-16.550781h168.339844c9.125 0 16.546875 7.425781 16.546875 16.550781v53.308594c-1.054688 2.039063-1.84375 4.25-2.269532 6.609375l-7.625 41.941406c-4.027343-3.21875-9.125-5.152344-14.667968-5.152344h-8.011719c-4.144531 0-7.5 3.359376-7.5 7.5 0 4.144532 3.355469 7.5 7.5 7.5h8.011719c4.707031 0 8.53125 3.828126 8.53125 8.53125v24.050782zm14.882812 120.757812h-2.441406l-17.617187-41.113281h14.183593zm0 0"/><path d="m111.789062 71.113281c4.140626 0 7.5-3.359375 7.5-7.5s-3.359374-7.5-7.5-7.5h-.082031c-4.140625 0-7.457031 3.359375-7.457031 7.5s3.398438 7.5 7.539062 7.5zm0 0"/><path d="m400.292969 56.113281h-.082031c-4.144532 0-7.460938 3.359375-7.460938 7.5s3.398438 7.5 7.542969 7.5c4.140625 0 7.5-3.359375 7.5-7.5s-3.359375-7.5-7.5-7.5zm0 0"/><path d="m183.933594 71.113281c4.144531 0 7.5-3.359375 7.5-7.5s-3.355469-7.5-7.5-7.5h-.078125c-4.144531 0-7.460938 3.359375-7.460938 7.5s3.398438 7.5 7.539063 7.5zm0 0"/><path d="m328.226562 56.113281h-.082031c-4.140625 0-7.460937 3.359375-7.460937 7.5s3.398437 7.5 7.542968 7.5c4.140626 0 7.5-3.359375 7.5-7.5s-3.359374-7.5-7.5-7.5zm0 0"/></svg>