<?xml version="1.0" encoding="iso-8859-1"?>
<!-- Generator: Adobe Illustrator 19.0.0, SVG Export Plug-In . SVG Version: 6.00 Build 0)  -->
<svg version="1.1" id="Capa_1" xmlns="http://www.w3.org/2000/svg" xmlns:xlink="http://www.w3.org/1999/xlink" x="0px" y="0px"
	 viewBox="0 0 491.125 491.125" style="enable-background:new 0 0 491.125 491.125;" xml:space="preserve">
<g>
	<g>
		<g>
			<path d="M488.782,138.062L488.782,138.062L353.022,2.342c-3.124-3.123-8.188-3.123-11.312,0L2.342,341.71
				c-3.123,3.124-3.123,8.188,0,11.312l135.76,135.76c3.124,3.123,8.188,3.123,11.312,0l339.368-339.408
				C491.905,146.25,491.905,141.186,488.782,138.062z M143.718,471.814l-22.624-22.624l79.2-79.2
				c3.07-3.178,2.982-8.242-0.196-11.312c-3.1-2.994-8.015-2.994-11.116,0l-79.2,79.2l-22.64-22.632l11.32-11.304
				c3.126-3.126,3.126-8.194,0-11.32c-3.126-3.126-8.194-3.126-11.32,0l-11.304,11.32l-22.632-22.64l28.288-28.28
				c3.07-3.178,2.982-8.242-0.196-11.312c-3.1-2.995-8.016-2.995-11.116,0l-28.288,28.28L19.27,347.366L347.366,19.27l22.624,22.632
				L353.03,58.87c-3.178,3.07-3.266,8.134-0.196,11.312c3.07,3.178,8.134,3.266,11.312,0.196c0.067-0.064,0.132-0.13,0.196-0.196
				l16.968-16.968l22.632,22.624l-84.864,84.856c-3.178,3.07-3.266,8.134-0.196,11.312c3.07,3.178,8.134,3.266,11.312,0.196
				c0.067-0.064,0.132-0.13,0.196-0.196l84.856-84.864l22.632,22.632l-16.976,16.976c-3.178,3.07-3.266,8.134-0.196,11.312
				c3.07,3.178,8.134,3.266,11.312,0.196c0.067-0.064,0.132-0.13,0.196-0.196l16.976-16.968l22.624,22.624L143.718,471.814z"/>
			<path d="M296.454,183.318l-22.632,22.624c-3.178,3.07-3.266,8.134-0.196,11.312c3.07,3.178,8.134,3.266,11.312,0.196
				c0.067-0.064,0.132-0.13,0.196-0.196l22.632-22.624c3.07-3.178,2.982-8.242-0.196-11.312
				C304.47,180.324,299.555,180.324,296.454,183.318z"/>
			<path d="M217.262,262.518c-3.178,3.069-3.266,8.134-0.196,11.312c3.07,3.178,8.134,3.266,11.312,0.196
				c0.067-0.064,0.132-0.13,0.196-0.196l33.936-33.944c3.178-3.069,3.266-8.134,0.196-11.312c-3.07-3.178-8.134-3.266-11.312-0.196
				c-0.067,0.064-0.132,0.13-0.196,0.196v0L217.262,262.518z"/>
			<path d="M205.942,285.142c-3.124-3.123-8.188-3.123-11.312,0l-90.512,90.512c-3.178,3.07-3.266,8.134-0.196,11.312
				c3.07,3.178,8.134,3.266,11.312,0.196c0.067-0.064,0.132-0.13,0.196-0.196l90.512-90.512
				C209.065,293.33,209.065,288.266,205.942,285.142z"/>
			<path d="M302.11,129.094c2.122,0,4.156-0.844,5.656-2.344l33.944-33.944c3.124-3.126,3.122-8.192-0.004-11.316
				s-8.192-3.122-11.316,0.004l-33.936,33.944c-3.124,3.125-3.123,8.19,0.002,11.314C297.956,128.251,299.99,129.094,302.11,129.094
				z"/>
			<path d="M188.974,242.23c2.122,0,4.156-0.844,5.656-2.344l90.504-90.512c3.178-3.069,3.266-8.134,0.196-11.312
				c-3.07-3.178-8.134-3.266-11.312-0.196c-0.067,0.064-0.132,0.13-0.196,0.196l-90.504,90.512
				c-3.124,3.125-3.123,8.19,0.002,11.314C184.82,241.387,186.854,242.23,188.974,242.23z"/>
			<path d="M228.574,319.078L205.95,341.71c-3.178,3.07-3.266,8.134-0.196,11.312c3.07,3.178,8.134,3.266,11.312,0.196
				c0.067-0.064,0.132-0.13,0.196-0.196l22.624-22.632c3.07-3.178,2.982-8.242-0.196-11.312
				C236.59,316.084,231.675,316.084,228.574,319.078z"/>
			<path d="M285.142,262.518l-33.944,33.936c-3.178,3.07-3.266,8.134-0.196,11.312c3.07,3.178,8.134,3.266,11.312,0.196
				c0.066-0.064,0.132-0.129,0.196-0.196l33.944-33.936c3.07-3.178,2.982-8.242-0.196-11.312
				C293.158,259.524,288.243,259.524,285.142,262.518z"/>
			<path d="M398.278,149.374l-90.512,90.512c-3.178,3.07-3.266,8.134-0.196,11.312c3.07,3.178,8.134,3.266,11.312,0.196
				c0.066-0.064,0.132-0.13,0.196-0.196l90.512-90.504c3.126-3.124,3.128-8.19,0.004-11.316S401.404,146.251,398.278,149.374z"/>
			<path d="M138.054,293.142h0.008c2.122,0,4.156-0.844,5.656-2.344l22.624-22.632c3.069-3.178,2.982-8.242-0.196-11.312
				c-3.1-2.994-8.015-2.994-11.116,0l-22.632,22.632c-3.124,3.125-3.123,8.19,0.002,11.314
				C133.9,292.299,135.934,293.142,138.054,293.142z"/>
			<path d="M121.093,302.117c-0.002-0.002-0.004-0.004-0.006-0.006c-3.124-3.123-8.188-3.123-11.312,0l-22.632,22.632
				c-3.178,3.07-3.266,8.134-0.196,11.312c3.07,3.178,8.134,3.266,11.312,0.196c0.067-0.064,0.132-0.13,0.196-0.196l22.624-22.624
				C124.207,310.31,124.213,305.245,121.093,302.117z"/>
		</g>
	</g>
</g>
<g>
</g>
<g>
</g>
<g>
</g>
<g>
</g>
<g>
</g>
<g>
</g>
<g>
</g>
<g>
</g>
<g>
</g>
<g>
</g>
<g>
</g>
<g>
</g>
<g>
</g>
<g>
</g>
<g>
</g>
</svg>
