  <svg xmlns="http://www.w3.org/2000/svg" viewBox="0 0 70 70">
    <g id="Layer_64" data-name="Layer 64">
      <path
        className="cls-1"
        d="M57.77,56.82H12.23a2.46,2.46,0,0,1-2.46-2.46V21.19a2.46,2.46,0,0,1,2.46-2.46H57.77a2.46,2.46,0,0,1,2.46,2.46V54.36A2.46,2.46,0,0,1,57.77,56.82ZM12.23,20.73a.45.45,0,0,0-.46.46V54.36a.46.46,0,0,0,.46.46H57.77a.46.46,0,0,0,.46-.46V21.19a.45.45,0,0,0-.46-.46Z"
      />
      <path
        className="cls-1"
        d="M43.16,17.73a1,1,0,0,1-1-1,4.55,4.55,0,0,0-4.55-4.55H32.39a4.55,4.55,0,0,0-4.55,4.55,1,1,0,0,1-2,0,6.56,6.56,0,0,1,6.55-6.55h5.22a6.56,6.56,0,0,1,6.55,6.55A1,1,0,0,1,43.16,17.73Z"
      />
      <path
        className="cls-1"
        d="M19.66,56.52a1,1,0,0,1-.71-.29l-8.64-8.65a1,1,0,0,1,1.41-1.41l8.65,8.65a1,1,0,0,1,0,1.41A1,1,0,0,1,19.66,56.52Z"
      />
      <path
        className="cls-1"
        d="M50.59,56.52a1,1,0,0,1-.71-.29,1,1,0,0,1,0-1.41l8.65-8.65a1,1,0,0,1,1.41,1.41l-8.65,8.65A1,1,0,0,1,50.59,56.52Z"
      />
      <path
        className="cls-1"
        d="M11,30.08a1.05,1.05,0,0,1-.68-.26,1,1,0,0,1-.05-1.42l8.64-9.35a1,1,0,1,1,1.47,1.36l-8.64,9.35A1,1,0,0,1,11,30.08Z"
      />
      <path
        className="cls-1"
        d="M59.23,30.08a1,1,0,0,1-.73-.32l-8.65-9.35A1,1,0,0,1,49.91,19a1,1,0,0,1,1.41.06L60,28.4a1,1,0,0,1-.74,1.68Z"
      />
      <path className="cls-1" d="M39.34,26.31H30.66a1,1,0,0,1,0-2h8.68a1,1,0,0,1,0,2Z" />
    </g>
  </svg>