<svg xmlns="http://www.w3.org/2000/svg" viewBox="0 0 70 70"><defs></defs>
    <title>download</title>
      <g
        id="Group_2123"
        data-name="Group 2123"
        transform="translate(677.625 -497.865)"
      >
        <path
          id="Path_624"
          data-name="Path 624"
          d="M-677.625,515.754v4.912a1.256,1.256,0,0,0,1.252,1.251h25.15a1.251,1.251,0,0,0,1.251-1.25v-4.913a1.257,1.257,0,0,0-1.258-1.257h0a1.256,1.256,0,0,0-1.257,1.243l-.041,3.675h-22.541l-.04-3.675a1.258,1.258,0,0,0-1.258-1.243h0A1.257,1.257,0,0,0-677.625,515.754Z"
          fill="#fff"
        />
        <path
          id="Path_625"
          data-name="Path 625"
          d="M-664.275,515.495h0a1.248,1.248,0,0,0,.418.091l.163,0a1.246,1.246,0,0,0,.371-.089,1.248,1.248,0,0,0,.407-.27l6.19-6.191a1.252,1.252,0,0,0,0-1.769,1.252,1.252,0,0,0-1.769,0l-4.055,4.055v-12.2a1.254,1.254,0,0,0-1.252-1.252,1.242,1.242,0,0,0-.884.366,1.243,1.243,0,0,0-.367.885v12.2l-4.054-4.055a1.253,1.253,0,0,0-1.77,0,1.254,1.254,0,0,0,0,1.771l6.191,6.191A1.258,1.258,0,0,0-664.275,515.495Zm.193-.47Z"
          fill="#fff"
        />
      </g>
    </svg>