<?xml version="1.0" encoding="utf-8"?>
<!-- Generator: Adobe Illustrator 23.0.4, SVG Export Plug-In . SVG Version: 6.00 Build 0)  -->
<svg version="1.1" id="Layer_1" xmlns="http://www.w3.org/2000/svg" xmlns:xlink="http://www.w3.org/1999/xlink" x="0px" y="0px"
	 viewBox="0 0 383 332" enable-background="new 0 0 383 332" xml:space="preserve">
<g>
	<g>
		<g>
			<path fill="#E0E0E0" d="M59.4,202h-22c-3.6,0-6.6-2.9-6.6-6.6s2.9-6.6,6.6-6.6c0.7,0,1.3,0.1,1.9,0.3c1.2-4.4,5.2-7.5,9.8-7.5
				c5.6,0,10.2,4.6,10.2,10.2c0,0.1,0,0.2,0,0.3c0,0,0,0,0.1,0c2.7,0,4.9,2.2,4.9,4.9S62.1,202,59.4,202z M37.4,190.9
				c-2.5,0-4.6,2-4.6,4.6c0,2.5,2,4.6,4.6,4.6h22c1.6,0,2.9-1.3,2.9-2.9s-1.3-2.9-2.9-2.9c-0.3,0-0.6,0-0.9,0.1
				c-0.3,0.1-0.7,0-1-0.2c-0.3-0.2-0.4-0.6-0.3-0.9c0.1-0.4,0.1-0.9,0.1-1.3c0-4.5-3.7-8.2-8.2-8.2c-4.1,0-7.6,3-8.1,7.1
				c0,0.3-0.2,0.6-0.5,0.8c-0.3,0.1-0.6,0.1-0.9,0C38.9,191.1,38.2,190.9,37.4,190.9z"/>
		</g>
	</g>
	<g>
		<g>
			<g>
				<g>
					<path fill="#172439" d="M88.2,105c0,0,28,7.6,33.2,8.8l34.1-13.1c4.8-1.4,9.7,1.8,10.7,6.8v0c0.9,4.7-2.1,9.2-6.7,10.1
						l-40.5,7.3l-31.9-13.6L88.2,105z"/>
				</g>
			</g>
		</g>
	</g>
	<g>
		<g>
			<g>
				<g>
					<g>
						<path fill="#172439" d="M151.5,173.4H195c0.1,0,0.2-0.1,0.2-0.1l10.7-56.3c1.7-9-5.2-17.4-14.4-17.4h-30.8
							c-8.5,0-15.2,7.3-14.5,15.8l5.1,57.9C151.4,173.4,151.4,173.4,151.5,173.4z"/>
					</g>
				</g>
			</g>
		</g>
	</g>
	<g>
		<g>
			<g>
				<g>
					<g>
						<path fill="#6ADD91" d="M131.4,293.4c-0.2,0-0.3,0-0.5-0.1l-5.8-3c-0.4-0.2-0.6-0.7-0.5-1.1l25.9-116c0.1-0.5,0.5-0.8,1-0.8
							h43c0.3,0,0.5,0.1,0.7,0.3c0.2,0.2,0.3,0.5,0.3,0.7l-1.9,42.3l42.7,19c0.2,0.1,0.4,0.3,0.5,0.6c0.1,0.2,0.1,0.5,0,0.8
							l-3.4,7.4c-0.2,0.5-0.7,0.7-1.2,0.5L178,226.2c-0.3-0.1-0.6-0.4-0.7-0.8l-6.7-33.1l-38.2,100.4c-0.1,0.3-0.3,0.5-0.6,0.6
							C131.7,293.4,131.6,293.4,131.4,293.4z M126.8,288.9l4.1,2.1L170,188.4c0.2-0.4,0.6-0.7,1-0.6c0.4,0,0.8,0.4,0.9,0.8l7.3,36
							l52.8,17.3l2.6-5.6l-42.4-18.9c-0.4-0.2-0.6-0.5-0.6-1l1.9-41.9h-41.2L126.8,288.9z"/>
					</g>
				</g>
			</g>
		</g>
	</g>
	<g>
		<g>
			<polygon fill="#6ADD91" points="127.2,288.7 114.6,287 113.3,289.5 129.6,298 132.9,291.6 			"/>
		</g>
	</g>
	<g>
		<g>
			<polygon fill="#6ADD91" points="231.5,241.7 231,254.8 233.6,255.8 241.1,236.6 234.4,234 			"/>
		</g>
	</g>
	<g>
		<g>
			<polygon fill="#FFFFFF" points="169.7,95.5 169.7,99.4 169.7,111.3 182.6,99.9 182.6,89.1 			"/>
		</g>
	</g>
	<g>
		<g>
			<g>
				<g>
					<g>
						<path fill="#FFFFFF" d="M172.3,98.1h0.4c5.6,0,10.1-4.5,10.1-10.1V76.8h-18.4v13.3C164.4,94.5,167.9,98.1,172.3,98.1z"/>
					</g>
					<g>
						<path fill="#6ADD91" d="M172.7,99.1h-0.4c-4.9,0-9-4-9-9V76.8c0-0.6,0.4-1,1-1h18.4c0.6,0,1,0.4,1,1V88
							C183.8,94.1,178.9,99.1,172.7,99.1z M165.4,77.8v12.3c0,3.8,3.1,7,7,7h0.4c5,0,9.1-4.1,9.1-9.1V77.8H165.4z"/>
					</g>
				</g>
			</g>
		</g>
	</g>
	<g>
		<g>
			<g>
				<g>
					<g>
						<path fill="#6ADD91" d="M157.9,68.2l21.2,0c3.9,0.5,5.9,4.1,5.9,7.3V78v9.5c0,0.8-0.6,1.4-1.4,1.4l0,0c-1.8,0-4.4-1.5-4.4-3.3
							v-4.6c0-1.7-1.4-3.1-3.1-3.1h-12.3c-3.2,0-5.9-2.6-5.9-5.8L157.9,68.2z"/>
					</g>
				</g>
			</g>
		</g>
	</g>
	<g>
		<g>
			<path fill="#FFFFFF" d="M89.5,105.9c-0.1-0.2-1.1-6.4-1.1-6.4s-2.1,1.5-0.8,4.7"/>
		</g>
		<g>
			<path fill="#6ADD91" d="M89.5,106.9c-0.5,0-0.9-0.3-1-0.8c0-0.1-0.1-0.5-0.2-1.2c-0.1,0.1-0.2,0.2-0.4,0.2
				c-0.5,0.2-1.1,0-1.3-0.6c-1.3-3.1,0.2-5.2,1.2-5.9c0.3-0.2,0.6-0.2,1-0.1s0.5,0.4,0.6,0.8c0.4,2.4,1,6.1,1,6.3
				c0.1,0.5-0.2,1.1-0.8,1.2C89.6,106.9,89.5,106.9,89.5,106.9z"/>
		</g>
	</g>
	<g>
		<g>
			<g>
				<path fill="#6ADD91" d="M308,199.4c0,0-4.6-4.8-12.8-0.9s-12.8-0.9-12.8-0.9l1.1-17.1c0,0,5.8,4.8,12.8,0.9
					c7-3.9,12.8,0.9,12.8,0.9L308,199.4z"/>
			</g>
		</g>
		<g>
			<g>
				<g>
					<path fill="#172439" d="M277.1,282.5C277.1,282.5,277,282.5,277.1,282.5c-0.6,0-1-0.5-1-1.1l6.9-102.8c0-0.6,0.5-0.9,1.1-0.9
						c0.6,0,1,0.5,0.9,1.1l-6.9,102.8C278,282.1,277.6,282.5,277.1,282.5z"/>
				</g>
			</g>
		</g>
		<g>
			<g>
				<path fill="#172439" d="M289.3,201.1c-4.6,0-7.1-2.6-7.3-2.7c-0.4-0.4-0.4-1,0-1.4c0.4-0.4,1-0.4,1.4,0
					c0.2,0.2,4.2,4.2,11.6,0.6c2.2-1.1,4.4-1.6,6.4-1.7c0,0,0,0,0,0c0.5,0,1,0.4,1,1c0,0.6-0.4,1-1,1c-1.8,0-3.7,0.5-5.6,1.5
					C293.4,200.7,291.1,201.1,289.3,201.1z"/>
			</g>
		</g>
		<g>
			<g>
				<path fill="#172439" d="M290.3,184c-0.5,0-1-0.4-1-1c0-0.6,0.4-1,1-1c1.8,0,3.7-0.5,5.6-1.5c8.8-4.2,13.7,0.9,14,1.1
					c0.4,0.4,0.4,1,0,1.4c-0.4,0.4-1,0.4-1.4,0c-0.2-0.2-4.2-4.2-11.6-0.6C294.6,183.4,292.4,183.9,290.3,184
					C290.3,184,290.3,184,290.3,184z"/>
			</g>
		</g>
	</g>
	<g>
		<g>
			<g>
				<path fill="#6ADD91" d="M345.6,220.3c0,0-2.4-2.5-6.7-0.5c-4.3,2.1-6.7-0.5-6.7-0.5l0.6-9c0,0,3,2.5,6.7,0.5s6.7,0.5,6.7,0.5
					L345.6,220.3z"/>
			</g>
		</g>
		<g>
			<g>
				<g>
					<path fill="#172439" d="M329.4,264.4C329.3,264.4,329.3,264.4,329.4,264.4c-0.6,0-1-0.5-1-1.1l3.6-53.9c0-0.6,0.5-1,1.1-0.9
						c0.6,0,1,0.5,0.9,1.1l-3.6,53.9C330.3,264,329.9,264.4,329.4,264.4z"/>
				</g>
			</g>
		</g>
		<g>
			<g>
				<path fill="#172439" d="M335.7,221.7c-2.6,0-4.1-1.5-4.2-1.6c-0.4-0.4-0.4-1,0-1.4c0.4-0.4,1-0.4,1.4,0c0.1,0.1,2,2,5.5,0.2
					c1.2-0.6,2.4-0.9,3.6-0.9c0.6,0,1,0.4,1,1c0,0.6-0.4,1-1,1c-0.9,0-1.8,0.3-2.7,0.7C338,221.4,336.8,221.7,335.7,221.7z"/>
			</g>
		</g>
		<g>
			<g>
				<path fill="#172439" d="M336.3,212.7c-0.5,0-1-0.4-1-1c0-0.6,0.4-1,1-1c0.9,0,1.8-0.3,2.7-0.7c4.9-2.4,7.7,0.5,7.9,0.7
					c0.4,0.4,0.4,1,0,1.4c-0.4,0.4-1,0.4-1.4,0c-0.1-0.1-2-1.9-5.5-0.2C338.7,212.4,337.5,212.7,336.3,212.7
					C336.3,212.7,336.3,212.7,336.3,212.7z"/>
			</g>
		</g>
	</g>
	<g>
		<g>
			<path fill="#E0E0E0" d="M342.5,151h-26.6c-2.9,0-5.7-1.1-7.9-3c-1.4,1.9-3.6,3-6,3c-4.2,0-7.5-3.4-7.5-7.5s3.4-7.5,7.5-7.5
				c0.8,0,1.6,0.1,2.4,0.4c1.3-5.2,6-8.9,11.5-8.9c4.5,0,8.7,2.6,10.6,6.6c1.4-0.8,3-1.3,4.7-1.3c4.5,0,8.2,3.2,9,7.5
				c0.7-0.3,1.5-0.5,2.2-0.5c3.1,0,5.6,2.5,5.6,5.6S345.6,151,342.5,151z M307.9,145.4c0.3,0,0.6,0.1,0.7,0.3
				c1.9,2.1,4.5,3.3,7.3,3.3h26.6c2,0,3.6-1.6,3.6-3.6s-1.6-3.6-3.6-3.6c-0.9,0-1.8,0.3-2.4,0.9c-0.3,0.3-0.7,0.3-1.1,0.2
				c-0.4-0.2-0.6-0.5-0.6-0.9c0,0,0-0.1,0-0.1c0-3.9-3.2-7.1-7.2-7.1c-1.7,0-3.2,0.6-4.5,1.6c-0.3,0.2-0.6,0.3-0.9,0.2
				c-0.3-0.1-0.6-0.3-0.7-0.6c-1.4-3.9-5.1-6.5-9.2-6.5c-4.9,0-9.1,3.6-9.7,8.5c0,0.3-0.2,0.6-0.5,0.8c-0.3,0.1-0.6,0.1-0.9,0
				c-0.8-0.5-1.7-0.7-2.7-0.7c-3.1,0-5.5,2.5-5.5,5.5s2.5,5.5,5.5,5.5c2.1,0,4-1.2,4.9-3c0.1-0.3,0.4-0.5,0.8-0.5
				C307.8,145.4,307.8,145.4,307.9,145.4z"/>
		</g>
	</g>
	<g>
		<g>
			<g>
				<g>
					<g>
						<path fill="#6ADD91" d="M169.9,100.9h2.9c5.2,0,9.5-4.2,9.5-9.5v-0.2c0-1.8-1.4-3.2-3.2-3.2h-13.7c-1.6,0-2.9,1.3-2.9,2.9v2.4
							C162.4,97.5,165.7,100.9,169.9,100.9z"/>
					</g>
				</g>
			</g>
		</g>
	</g>
	<g>
		<g>
			<path fill="#6ADD91" d="M180.8,80.3l-1.8,1.4V85c0,1.7-1.5,3.1-3.3,3.1H174V93l8.2-1.9c0,0,0-9.7,0-9.8
				C182.2,81.3,180.8,80.3,180.8,80.3z"/>
		</g>
	</g>
	<g>
		<g>
			<circle fill="#FFFFFF" cx="180.3" cy="83.8" r="2.5"/>
		</g>
	</g>
	<g>
		<g>
			<path fill="#FFFFFF" d="M145.6,121c-0.5,0-0.9-0.3-1-0.8c-0.1-0.4-1.8-8.7,1.1-12.8c0.3-0.5,0.9-0.6,1.4-0.2
				c0.5,0.3,0.6,0.9,0.2,1.4c-2.4,3.4-0.8,11.2-0.8,11.2c0.1,0.5-0.2,1.1-0.8,1.2C145.8,121,145.7,121,145.6,121z"/>
		</g>
	</g>
	<g>
		<g>
			<path fill="#FFFFFF" d="M165.3,90.5h6.4c0,0,0.1,4-3,4C165.6,94.5,165.3,90.5,165.3,90.5z"/>
		</g>
	</g>
	<g>
		<g>
			<path fill="#6ADD91" d="M141.7,88.1c0,0-9.8-10.3-27.3-1.8s-27.3-1.8-27.3-1.8L89.6,48c0,0,12.4,10.2,27.3,1.8s27.3,1.8,27.3,1.8
				L141.7,88.1z"/>
		</g>
	</g>
	<g>
		<g>
			<path fill="#172439" d="M74.8,242.2C74.7,242.2,74.7,242.2,74.8,242.2c-0.6,0-1-0.5-1-1.1L89.5,44c0-0.6,0.5-1,1.1-0.9
				c0.6,0,1,0.5,0.9,1.1L75.8,241.3C75.7,241.8,75.3,242.2,74.8,242.2z"/>
		</g>
	</g>
	<g>
		<g>
			<path fill="#172439" d="M101.7,90.6c-2.9,0-5.3-0.5-7.2-1.1c-4.8-1.6-7.4-4.2-7.5-4.3c-0.4-0.4-0.4-1,0-1.4c0.4-0.4,1-0.4,1.4,0
				c0.4,0.4,9.5,9.6,26.1,1.6c4.5-2.2,9-3.3,13.2-3.4c0,0,0,0,0,0c0.5,0,1,0.4,1,1c0,0.6-0.4,1-1,1c-4,0.1-8.1,1.2-12.4,3.2
				C110.2,89.8,105.5,90.6,101.7,90.6z"/>
		</g>
	</g>
	<g>
		<g>
			<path fill="#172439" d="M104,54.1c-0.5,0-1-0.4-1-1c0-0.6,0.4-1,1-1c4-0.1,8.1-1.2,12.4-3.2c9.3-4.5,16.5-3.7,20.9-2.3
				c4.8,1.6,7.4,4.2,7.5,4.3c0.4,0.4,0.4,1,0,1.4c-0.4,0.4-1,0.4-1.4,0c-0.4-0.4-9.5-9.6-26.1-1.6C112.7,52.9,108.3,54.1,104,54.1
				C104,54.1,104,54.1,104,54.1z"/>
		</g>
	</g>
	<g>
		<g>
			<path fill="#FFFFFF" d="M85.3,103.5l2.2,0.4c1.2,0.2,2,1.4,1.8,2.7l-0.7,4c-0.2,1.3-1.4,2.1-2.6,1.9l-2.2-0.4
				c-1.2-0.2-2-1.4-1.8-2.7l0.7-4C82.9,104.1,84.1,103.3,85.3,103.5z"/>
		</g>
		<g>
			<path fill="#6ADD91" d="M86.4,113.4c-0.2,0-0.4,0-0.5,0l-2.2-0.4c-0.8-0.1-1.6-0.6-2.1-1.3c-0.5-0.7-0.7-1.6-0.6-2.5l0.7-4
				c0.3-1.8,2-3,3.8-2.7c0,0,0,0,0,0l2.2,0.4c0.8,0.1,1.6,0.6,2.1,1.3c0.5,0.7,0.7,1.6,0.6,2.5l-0.7,4
				C89.4,112.3,88,113.4,86.4,113.4z M85,104.5c-0.6,0-1.2,0.5-1.3,1.1l-0.7,4c-0.1,0.4,0,0.7,0.2,1c0.2,0.3,0.5,0.5,0.8,0.5
				l2.2,0.4c0.7,0.1,1.3-0.4,1.5-1.1l0.7-4c0.1-0.4,0-0.7-0.2-1c-0.2-0.3-0.5-0.5-0.8-0.5l-2.2-0.4C85.1,104.5,85,104.5,85,104.5z"
				/>
		</g>
	</g>
	<g>
		<g>
			<g>
				<path fill="#6ADD91" d="M288.1,119.6c0,0-4-15.4-22.1-25.7s-15-25-15-25l33.5-20c0,0-1.4,17,15,25c16.3,8,22,25.7,22,25.7
					L288.1,119.6z"/>
			</g>
		</g>
		<g>
			<g>
				<path fill="#172439" d="M106.1,154.3c-0.3,0-0.7-0.2-0.9-0.5c-0.3-0.5-0.1-1.1,0.4-1.4L288,46.5c0.5-0.3,1.1-0.1,1.4,0.4
					c0.3,0.5,0.1,1.1-0.4,1.4l-182.4,106C106.4,154.3,106.3,154.3,106.1,154.3z"/>
			</g>
		</g>
		<g>
			<g>
				<path fill="#172439" d="M277.1,104.8c-0.3,0-0.6-0.1-0.8-0.4c-2.5-3.4-6-6.4-10.4-8.9c-18.4-10.4-15.5-25.9-15.5-26.1
					c0.1-0.5,0.6-0.9,1.2-0.8c0.5,0.1,0.9,0.6,0.8,1.2c-0.1,0.6-2.7,14.3,14.5,24c4.7,2.6,8.4,5.9,11,9.5c0.3,0.4,0.2,1.1-0.2,1.4
					C277.5,104.7,277.3,104.8,277.1,104.8z"/>
			</g>
		</g>
		<g>
			<g>
				<path fill="#172439" d="M321.5,100.6c-0.4,0-0.8-0.3-1-0.7c0-0.2-4.2-15.2-21.6-25c-4.7-2.7-8.4-5.9-11-9.5
					c-0.3-0.4-0.2-1.1,0.2-1.4c0.4-0.3,1.1-0.2,1.4,0.2c2.5,3.4,6,6.4,10.4,8.9c18.2,10.3,22.4,25.6,22.5,26.3
					c0.1,0.5-0.2,1.1-0.7,1.2C321.7,100.6,321.6,100.6,321.5,100.6z"/>
			</g>
		</g>
	</g>
	<g>
		<g>
			<g>
				<path fill="#6ADD91" d="M268.6,120.6c0,0,2.2-15-16.4-24.1s-16.4-24.1-16.4-24.1l32.2-22c0,0-0.4,17.1,16.4,24.1
					c16.8,7,16.4,24.1,16.4,24.1L268.6,120.6z"/>
			</g>
			<g>
				<path fill="#FFFFFF" d="M267.3,122.7l0.3-2.2c0.1-0.6,1.8-14.4-15.9-23.1c-9.9-4.9-14-11.4-15.7-16c-1.8-5.1-1.3-9-1.3-9.1
					l0.1-0.4L269,48.5l0,1.9c0,0.7-0.1,16.5,15.8,23.2c17.2,7.2,17,24.9,17,25l0,0.5L267.3,122.7z M236.7,72.9
					c-0.2,2.5-0.3,14.7,15.9,22.6c9.9,4.9,14,11.4,15.7,16c1.1,2.9,1.3,5.4,1.4,7l30.1-20.5c-0.1-2.9-1.3-16.6-15.8-22.6
					c-13.9-5.8-16.5-18.5-16.9-23.2L236.7,72.9z"/>
			</g>
		</g>
		<g>
			<g>
				<path fill="#172439" d="M96.1,166.3c-0.3,0-0.6-0.2-0.8-0.4c-0.3-0.5-0.2-1.1,0.3-1.4L271.3,47.7c0.5-0.3,1.1-0.2,1.4,0.3
					c0.3,0.5,0.2,1.1-0.3,1.4L96.6,166.1C96.4,166.2,96.3,166.3,96.1,166.3z"/>
			</g>
		</g>
		<g>
			<g>
				<path fill="#172439" d="M263.8,106.6c-0.3,0-0.6-0.1-0.8-0.4c-2.7-3.3-6.3-6.1-10.9-8.3c-19-9.3-17-25-17-25.1
					c0.1-0.5,0.6-0.9,1.1-0.8c0.5,0.1,0.9,0.6,0.8,1.1c-0.1,0.6-1.8,14.4,15.9,23.1c4.8,2.4,8.7,5.3,11.6,8.8
					c0.3,0.4,0.3,1.1-0.1,1.4C264.3,106.5,264,106.6,263.8,106.6z"/>
			</g>
		</g>
	</g>
	<g>
		<g>
			<g>
				<g>
					<g>
						<g>
							<path fill="#172439" d="M153,133.2l32.6,27.9c5.2,0.4,6.4-1.8,8-7l11.9-37.9c2-4.7-0.5-9.9-5.3-11.4l0,0
								c-4.5-1.3-9.3,1.3-10.8,5.8l-6.1,33.5c-0.1,0.6-24.3-15.3-24.3-15.3L153,133.2z"/>
						</g>
					</g>
				</g>
			</g>
			<g>
				<g>
					<path fill="#FFFFFF" d="M183.3,145.2c-0.2,0-0.4,0-0.5-0.1l-24.6-14.7c-0.5-0.3-0.6-0.9-0.3-1.4c0.3-0.5,0.9-0.6,1.4-0.3
						l24.6,14.7c0.5,0.3,0.6,0.9,0.3,1.4C184,145,183.7,145.2,183.3,145.2z"/>
				</g>
			</g>
		</g>
		<g>
			<g>
				<path fill="#FFFFFF" d="M187,160.5c-3.9,0-7.2-3.1-7.4-3.3l-25.8-22.9c-0.4-0.4-0.5-1-0.1-1.4c0.4-0.4,1-0.5,1.4-0.1l25.8,23
					c0.1,0.1,3.5,3.3,6.9,2.7c1.9-0.4,3.5-1.9,4.7-4.6l12.6-33.5c0.2-0.5,0.8-0.8,1.3-0.6c0.5,0.2,0.8,0.8,0.6,1.3l-12.6,33.6
					c-1.6,3.4-3.6,5.4-6.2,5.8C187.9,160.5,187.5,160.5,187,160.5z"/>
			</g>
		</g>
		<g>
			<g>
				<path fill="#FFFFFF" d="M157.6,128.9l-2.4-8.3h0c-2.6,1.1-4.2,3.6-4.2,6.4v0c0,1.9,0.8,3.8,2.2,5.1l1,0.9L157.6,128.9z"/>
			</g>
			<g>
				<path fill="#FFFFFF" d="M154.3,134.1c-0.3,0-0.5-0.1-0.7-0.3l-1-0.9c-1.6-1.6-2.5-3.6-2.5-5.9c0-3.1,1.8-6,4.8-7.3
					c0.3-0.1,0.6-0.1,0.8,0c0.3,0.1,0.5,0.4,0.5,0.6l2.4,8.3c0.1,0.3,0,0.6-0.2,0.9l-3.3,4.2C154.9,133.9,154.6,134.1,154.3,134.1
					C154.3,134.1,154.3,134.1,154.3,134.1z M154.6,122.1c-1.6,1.1-2.6,2.9-2.6,4.9c0,1.7,0.7,3.3,1.9,4.4l0.2,0.2l2.3-2.9
					L154.6,122.1z"/>
			</g>
		</g>
		<g>
			<g>
				<path fill="#FFFFFF" d="M156.4,130.4l3.4-4.7c0,0-1-1.3-2.6,1.3"/>
			</g>
			<g>
				<path fill="#FFFFFF" d="M156.4,131.4c-0.2,0-0.4-0.1-0.6-0.2c-0.4-0.3-0.5-0.9-0.2-1.4l1.3-1.8c-0.1,0-0.2-0.1-0.2-0.1
					c-0.5-0.3-0.6-0.9-0.3-1.4c0.8-1.3,1.7-2,2.6-2.1c0.7,0,1.3,0.3,1.6,0.7c0.3,0.4,0.3,0.8,0,1.2l-3.4,4.7
					C157,131.3,156.7,131.4,156.4,131.4z"/>
			</g>
		</g>
	</g>
	<g>
		<g>
			<path fill="#E0E0E0" d="M351.2,269.6h-63.1c-0.6,0-1-0.4-1-1s0.4-1,1-1h63.1c0.6,0,1,0.4,1,1S351.7,269.6,351.2,269.6z"/>
		</g>
	</g>
	<g>
		<g>
			<path fill="#E0E0E0" d="M119.6,269.6H47.5c-0.6,0-1-0.4-1-1s0.4-1,1-1h72.1c0.6,0,1,0.4,1,1S120.1,269.6,119.6,269.6z"/>
		</g>
	</g>
	<g>
		<g>
			<path fill="#E0E0E0" d="M183.2,269.6h-33.8c-0.6,0-1-0.4-1-1s0.4-1,1-1h33.8c0.6,0,1,0.4,1,1S183.8,269.6,183.2,269.6z"/>
		</g>
	</g>
	<g>
		<g>
			<path fill="#E0E0E0" d="M268.6,269.6h-43.5c-0.6,0-1-0.4-1-1s0.4-1,1-1h43.5c0.6,0,1,0.4,1,1S269.1,269.6,268.6,269.6z"/>
		</g>
	</g>
	<g>
		<g>
			<path fill="#E0E0E0" d="M198.7,269.6h-6.7c-0.6,0-1-0.4-1-1s0.4-1,1-1h6.7c0.6,0,1,0.4,1,1S199.2,269.6,198.7,269.6z"/>
		</g>
	</g>
	<g>
		<g>
			<path fill="#E0E0E0" d="M198.7,269.6c-0.2,0-0.3,0-0.5-0.1c-0.5-0.3-0.6-0.9-0.4-1.4l2.7-4.7c0.3-0.5,0.9-0.6,1.4-0.4
				c0.5,0.3,0.6,0.9,0.4,1.4l-2.7,4.7C199.3,269.5,199,269.6,198.7,269.6z"/>
		</g>
	</g>
	<g>
		<g>
			<path fill="#E0E0E0" d="M198.7,269.6c-0.4,0-0.8-0.2-0.9-0.6l-3-8c-0.2-0.5,0.1-1.1,0.6-1.3c0.5-0.2,1.1,0.1,1.3,0.6l3,8
				c0.2,0.5-0.1,1.1-0.6,1.3C198.9,269.6,198.8,269.6,198.7,269.6z"/>
		</g>
	</g>
	<g>
		<g>
			<path fill="#6ADD91" d="M157.9,125.4c-0.3,0-0.7-0.2-0.9-0.5c-0.3-0.5-0.1-1.1,0.3-1.4l37.4-22.9c0.5-0.3,1.1-0.1,1.4,0.3
				c0.3,0.5,0.1,1.1-0.3,1.4l-37.4,22.9C158.3,125.3,158.1,125.4,157.9,125.4z"/>
		</g>
	</g>
	<g>
		<g>
			<path fill="#E0E0E0" d="M205.2,269.6h-6.5c-0.6,0-1-0.4-1-1s0.4-1,1-1h6.5c0.6,0,1,0.4,1,1S205.8,269.6,205.2,269.6z"/>
		</g>
	</g>
</g>
</svg>
