<?xml version="1.0" encoding="utf-8"?>
<!-- Generator: Adobe Illustrator 23.0.4, SVG Export Plug-In . SVG Version: 6.00 Build 0)  -->
<svg version="1.1" id="Layer_1" xmlns="http://www.w3.org/2000/svg" xmlns:xlink="http://www.w3.org/1999/xlink" x="0px" y="0px"
	 viewBox="0 0 383 332" enable-background="new 0 0 383 332" xml:space="preserve">
<g>
	<g>
		<g>
			<path fill="#E0E0E0" d="M253.6,299h-79.2c-0.3,0-0.6-0.1-0.8-0.4c-0.2-0.2-0.3-0.5-0.2-0.8l3.3-14.5c0-0.2,0.2-0.4,0.3-0.5
				l20.9-18.2c0.2-0.2,0.4-0.2,0.7-0.2h28.3c0.1,0,0.3,0,0.4,0.1l8.6,3.8c0.3,0.1,0.5,0.3,0.6,0.6l5.1,17.4l10.5,4.5
				c0.3,0.1,0.5,0.4,0.6,0.6l1.9,6.4c0.1,0.3,0,0.6-0.2,0.9C254.2,298.8,253.9,299,253.6,299z M175.7,297h76.6l-1.4-4.7l-10.5-4.5
				c-0.3-0.1-0.5-0.4-0.6-0.6l-5.1-17.4l-8-3.5H199L178.6,284L175.7,297z"/>
		</g>
	</g>
	<g>
		<g>
			<path fill="#E0E0E0" d="M234.6,299h-60.2c-0.3,0-0.6-0.1-0.8-0.4c-0.2-0.2-0.3-0.5-0.2-0.8l3.3-14.5c0-0.2,0.2-0.4,0.3-0.5
				l20.9-18.2c0.3-0.3,0.8-0.3,1.2-0.1l17,11.1c0.5,0.3,0.6,0.9,0.3,1.4l-5.4,8.5l16,2.3c0.2,0,0.5,0.2,0.6,0.4l7.6,9.3
				c0.2,0.3,0.3,0.7,0.1,1.1C235.3,298.7,235,299,234.6,299z M175.7,297h56.8l-6-7.3l-17.2-2.4c-0.3,0-0.6-0.3-0.8-0.6
				c-0.1-0.3-0.1-0.7,0.1-1l5.7-9l-15.5-10.2L178.6,284L175.7,297z"/>
		</g>
	</g>
	<g>
		<g>
			<path fill="#6ADD91" d="M317.9,75.8c0,0-11.2-11.8-31.2-2.1s-31.2-2.1-31.2-2.1l2.8-41.7c0,0,14.2,11.6,31.2,2.1
				c17-9.5,31.2,2.1,31.2,2.1L317.9,75.8z"/>
		</g>
	</g>
	<g>
		<g>
			<g>
				<g>
					<path fill="#6ADD91" d="M250.9,99.8c0,0-29.7,0.8-35.2,0.8l-39.4-6.3c-5.1-0.5-9.5,3.4-9.5,8.6v0c0,4.8,3.8,8.7,8.6,8.7
						l40.1,0.3l35-5.8L250.9,99.8z"/>
				</g>
			</g>
		</g>
	</g>
	<g>
		<g>
			<g>
				<g>
					<g>
						<path fill="#6ADD91" d="M184.7,168h-43.4c-0.1,0-0.2-0.1-0.2-0.1l-10.7-56.3c-1.7-9,5.2-17.4,14.4-17.4h30.8
							c8.5,0,15.2,7.3,14.5,15.8l-5.1,57.9C184.8,167.9,184.8,168,184.7,168z"/>
					</g>
				</g>
			</g>
		</g>
	</g>
	<g>
		<g>
			<g>
				<g>
					<g>
						<path fill="#172439" d="M145.2,293.2h-6.5c-0.3,0-0.5-0.1-0.7-0.3s-0.3-0.5-0.3-0.7l2.2-124.2c0-0.5,0.5-1,1-1h43.9
							c0.3,0,0.5,0.1,0.7,0.3l30.8,31.1c0.2,0.2,0.3,0.5,0.3,0.7l-2.7,62.1c0,0.5-0.5,1-1,1h-6c-0.5,0-0.9-0.4-1-0.9l-5.6-52.8
							l-32-24.1l-6.3-0.1l-15.8,108.1C146.2,292.8,145.7,293.2,145.2,293.2z M139.7,291.2h4.6l15.8-108.1c0.1-0.5,0.5-0.9,1-0.9
							l7.5,0.1c0.2,0,0.4,0.1,0.6,0.2l32.6,24.6c0.2,0.2,0.4,0.4,0.4,0.7l5.6,52.4h4.1l2.6-60.7L184.4,169h-42.5L139.7,291.2z"/>
					</g>
				</g>
			</g>
		</g>
	</g>
	<g>
		<g>
			<polygon fill="#172439" points="139.7,290.8 127.8,295.1 127.8,298 146.1,298 146.1,290.8 			"/>
		</g>
	</g>
	<g>
		<g>
			<polygon fill="#172439" points="212.2,257.4 224.2,261.8 224.2,264.6 205.8,264.6 205.8,257.4 			"/>
		</g>
	</g>
	<g>
		<g>
			<polygon fill="#FFFFFF" points="168.4,88.1 170.6,93.9 168.4,107.4 155.5,94.4 155.5,81.7 			"/>
		</g>
	</g>
	<g>
		<g>
			<g>
				<g>
					<g>
						<path fill="#FFFFFF" d="M165.8,90.6h-0.4c-5.6,0-10.1-4.5-10.1-10.1V69.3h18.4v13.3C173.7,87,170.2,90.6,165.8,90.6z"/>
					</g>
					<g>
						<path fill="#172439" d="M165.8,91.6h-0.4c-6.1,0-11.1-5-11.1-11.1V69.3c0-0.6,0.4-1,1-1h18.4c0.6,0,1,0.4,1,1v13.3
							C174.7,87.6,170.7,91.6,165.8,91.6z M156.3,70.3v10.2c0,5,4.1,9.1,9.1,9.1h0.4c3.8,0,7-3.1,7-7V70.3H156.3z"/>
					</g>
				</g>
			</g>
		</g>
	</g>
	<g>
		<g>
			<g>
				<g>
					<g>
						<path fill="#172439" d="M180.2,60.7l-21.2,0c-3.9,0.5-5.9,4.1-5.9,7.3v2.5v9.5c0,0.8,0.6,1.4,1.4,1.4l0,0
							c1.8,0,3.3-1.5,3.3-3.3v-4.6c0-1.7,1.4-3.1,3.1-3.1h13.5c3.2,0,5.9-2.6,5.9-5.8L180.2,60.7z"/>
					</g>
				</g>
			</g>
		</g>
	</g>
	<g>
		<g>
			<g>
				<g>
					<path fill="#6ADD91" d="M137.3,170l-26.2-23.4c-3.9-3.6-3-5.9-0.1-10.6l20.8-34.1c2.2-4.6,7.9-6.3,12.3-3.6l0,0
						c4.1,2.5,5.4,7.8,2.9,11.9l-23.1,31.1C123.6,141.7,141,166,141,166L137.3,170z"/>
				</g>
			</g>
		</g>
	</g>
	<g>
		<g>
			<path fill="#FFFFFF" d="M249.5,100.4c0.1-0.2,2.6-6,2.6-6s1.8,2-0.3,4.8"/>
		</g>
		<g>
			<path fill="#172439" d="M249.5,101.4c-0.2,0-0.3,0-0.5-0.1c-0.5-0.3-0.7-0.9-0.4-1.3c0.1-0.3,1.6-3.8,2.6-5.9
				c0.1-0.3,0.4-0.5,0.8-0.6c0.3-0.1,0.7,0.1,0.9,0.3c0.8,0.9,1.8,3.3-0.2,6.1c-0.3,0.4-1,0.5-1.4,0.2c-0.1-0.1-0.2-0.2-0.3-0.4
				c-0.3,0.7-0.5,1.1-0.5,1.2C250.2,101.2,249.8,101.4,249.5,101.4z"/>
		</g>
	</g>
	<g>
		<g>
			<path fill="#FFFFFF" d="M254.2,99l-2.3-0.2c-1.3-0.1-2.4,0.9-2.5,2.2l-0.3,4c-0.1,1.3,0.9,2.4,2.2,2.5l2.3,0.2
				c1.3,0.1,2.4-0.9,2.5-2.2l0.3-4C256.4,100.2,255.4,99.1,254.2,99z"/>
		</g>
		<g>
			<path fill="#172439" d="M253.8,108.7c-0.1,0-0.1,0-0.2,0l-2.3-0.2c-0.9-0.1-1.7-0.5-2.3-1.1c-0.6-0.7-0.9-1.5-0.8-2.4l0.3-4
				c0.1-0.9,0.5-1.7,1.1-2.3c0.7-0.6,1.5-0.9,2.4-0.8l2.3,0.2l0,0c1.8,0.1,3.2,1.7,3.1,3.5l-0.3,4c-0.1,0.9-0.5,1.7-1.1,2.3
				C255.3,108.4,254.6,108.7,253.8,108.7z M251.7,99.9c-0.3,0-0.6,0.1-0.9,0.3c-0.3,0.2-0.4,0.6-0.4,0.9l-0.3,4
				c0,0.7,0.5,1.4,1.2,1.4l2.3,0.2c0.3,0,0.7-0.1,1-0.3c0.3-0.2,0.4-0.6,0.4-0.9l0.3-4c0-0.3-0.1-0.7-0.3-1
				c-0.2-0.3-0.6-0.4-0.9-0.4L251.7,99.9C251.8,99.9,251.8,99.9,251.7,99.9z"/>
		</g>
	</g>
	<g>
		<g>
			<g>
				<path fill="#172439" d="M254.2,100C254.2,100,254.1,100,254.2,100c-0.6,0-1-0.5-1-1.1l5.1-73.6c0-0.6,0.5-1,1.1-0.9
					c0.6,0,1,0.5,0.9,1.1l-5.1,73.6C255.1,99.6,254.7,100,254.2,100z"/>
			</g>
		</g>
		<g>
			<g>
				<path fill="#172439" d="M240.4,307.6C240.4,307.6,240.4,307.6,240.4,307.6c-0.6,0-1-0.5-1-1.1l13.7-203.8c0-0.6,0.5-1,1.1-0.9
					c0.6,0,1,0.5,0.9,1.1l-13.7,203.8C241.4,307.2,240.9,307.6,240.4,307.6z"/>
			</g>
		</g>
	</g>
	<g>
		<g>
			<path fill="#FFFFFF" d="M254.4,99l-1.4-0.1c-1.1-0.1-2.1,0.8-2.2,1.9l-0.3,4.5c-0.1,1.1,0.8,2.1,1.9,2.2l1.4,0.1
				c1.1,0.1,2.1-0.8,2.2-1.9l0.3-4.5C256.4,100.1,255.6,99.1,254.4,99z"/>
		</g>
		<g>
			<path fill="#172439" d="M254,108.7c-0.1,0-0.1,0-0.2,0l-1.4-0.1c-1.7-0.1-3-1.6-2.9-3.3l0.3-4.5c0.1-0.8,0.4-1.6,1-2.1
				c0.6-0.5,1.4-0.8,2.2-0.8l1.4,0.1c0,0,0,0,0,0c0.8,0.1,1.6,0.4,2.1,1c0.5,0.6,0.8,1.4,0.8,2.2l-0.3,4.5
				C256.9,107.4,255.6,108.7,254,108.7z M252.9,99.9c-0.3,0-0.5,0.1-0.7,0.3c-0.2,0.2-0.3,0.4-0.4,0.7l-0.3,4.5c0,0.6,0.4,1.1,1,1.1
				l1.4,0.1c0.6,0,1.1-0.4,1.1-1l0.3-4.5c0-0.3-0.1-0.6-0.3-0.8s-0.4-0.3-0.7-0.4L252.9,99.9C253,99.9,253,99.9,252.9,99.9z"/>
		</g>
	</g>
	<g>
		<g>
			<path fill="#FFFFFF" d="M141,166l8.8,0.9l0,0c-0.7,2.7-2.9,4.8-5.7,5.2l0,0c-2,0.3-4-0.2-5.6-1.3l-1.1-0.8L141,166z"/>
		</g>
		<g>
			<path fill="#172439" d="M142.9,173.3c-1.8,0-3.5-0.6-5-1.6l-1.1-0.8c-0.2-0.2-0.4-0.4-0.4-0.7c0-0.3,0.1-0.6,0.3-0.8l3.6-4
				c0.2-0.2,0.5-0.4,0.8-0.3l8.8,0.9c0.3,0,0.5,0.2,0.7,0.4c0.2,0.2,0.2,0.5,0.2,0.8c-0.8,3.1-3.3,5.4-6.5,5.9
				C143.7,173.2,143.3,173.3,142.9,173.3z M138.8,169.9l0.2,0.1c1.4,1,3.1,1.4,4.9,1.2c2-0.3,3.6-1.6,4.5-3.3l-7-0.8L138.8,169.9z"
				/>
		</g>
	</g>
	<g>
		<g>
			<path fill="#FFFFFF" d="M139.7,167.5l4.1-4.1c0,0,1.4,0.8-0.9,2.7"/>
		</g>
		<g>
			<path fill="#172439" d="M139.7,168.5c-0.3,0-0.5-0.1-0.7-0.3c-0.4-0.4-0.4-1,0-1.4l4.1-4.1c0.3-0.3,0.8-0.4,1.2-0.2
				c0.4,0.2,0.9,0.7,1,1.5c0.1,0.9-0.4,1.9-1.6,2.9c-0.4,0.4-1.1,0.3-1.4-0.1c-0.1-0.1-0.1-0.1-0.1-0.2l-1.7,1.7
				C140.2,168.4,139.9,168.5,139.7,168.5z"/>
		</g>
	</g>
	<g>
		<g>
			<path fill="#FFFFFF" d="M132.5,132.3c-0.2,0-0.4-0.1-0.6-0.2c-0.4-0.3-0.5-1-0.2-1.4l13.4-18c0.3-0.4,1-0.5,1.4-0.2
				c0.4,0.3,0.5,1,0.2,1.4l-13.4,18C133.1,132.2,132.8,132.3,132.5,132.3z"/>
		</g>
	</g>
	<g>
		<g>
			<path fill="#FFFFFF" d="M190.6,115.2c-0.1,0-0.1,0-0.2,0c-0.5-0.1-0.9-0.6-0.8-1.1c0.4-2.6,0.9-10.1-1.8-12.9
				c-0.4-0.4-0.4-1,0-1.4c0.4-0.4,1-0.4,1.4,0c3.9,4,2.4,14.1,2.3,14.6C191.5,114.9,191.1,115.2,190.6,115.2z"/>
		</g>
	</g>
	<g>
		<g>
			<path fill="#172439" d="M272.2,78.6c-3.3,0-6.1-0.6-8.2-1.3c-5.5-1.8-8.4-4.8-8.5-4.9c-0.4-0.4-0.4-1,0-1.4c0.4-0.4,1-0.4,1.4,0
				c0.4,0.5,11,11.1,30.1,1.9c5.2-2.5,10.3-3.8,15.1-3.9c0,0,0,0,0,0c0.5,0,1,0.4,1,1c0,0.6-0.4,1-1,1c-4.5,0.1-9.3,1.3-14.3,3.7
				C281.8,77.6,276.5,78.6,272.2,78.6z"/>
		</g>
	</g>
	<g>
		<g>
			<path fill="#172439" d="M274.8,36.8c-0.5,0-1-0.4-1-1c0-0.6,0.4-1,1-1c4.5-0.1,9.3-1.3,14.3-3.7c10.6-5.1,18.9-4.3,23.9-2.6
				c5.5,1.8,8.4,4.8,8.5,4.9c0.4,0.4,0.4,1,0,1.4c-0.4,0.4-1,0.4-1.4,0c-0.4-0.5-11-11.1-30.1-1.9C284.7,35.4,279.6,36.7,274.8,36.8
				C274.8,36.8,274.8,36.8,274.8,36.8z"/>
		</g>
	</g>
	<g>
		<g>
			<circle fill="#FFFFFF" cx="157.8" cy="76.3" r="2.5"/>
		</g>
	</g>
	<g>
		<g>
			<path fill="#E0E0E0" d="M86,218H47.6c-4.3,0-8.3-1.6-11.4-4.5c-1.9,2.8-5.1,4.5-8.6,4.5c-5.8,0-10.5-4.7-10.5-10.5
				c0-5.8,4.7-10.5,10.5-10.5c1.3,0,2.6,0.2,3.8,0.7c1.7-7.5,8.4-13.1,16.2-13.1c6.6,0,12.5,3.9,15.2,9.8c2.1-1.3,4.5-2.1,7-2.1
				c6.5,0,11.8,4.8,12.7,11c1.1-0.6,2.3-0.9,3.6-0.9c4.3,0,7.7,3.5,7.7,7.7S90.2,218,86,218z M36,210.8c0.3,0,0.6,0.1,0.7,0.3
				c2.8,3.1,6.7,4.8,10.9,4.8H86c3.1,0,5.7-2.6,5.7-5.7s-2.6-5.7-5.7-5.7c-1.4,0-2.8,0.5-3.8,1.5c-0.3,0.3-0.7,0.3-1.1,0.2
				s-0.6-0.5-0.6-0.9c0,0,0-0.1,0-0.1c0-5.9-4.8-10.7-10.8-10.7c-2.5,0-4.8,0.8-6.8,2.4c-0.3,0.2-0.6,0.3-0.9,0.2
				c-0.3-0.1-0.6-0.3-0.7-0.6c-2.1-5.8-7.6-9.7-13.8-9.7c-7.3,0-13.5,5.4-14.5,12.6c0,0.3-0.2,0.6-0.5,0.8c-0.3,0.1-0.6,0.1-0.9,0
				c-1.2-0.7-2.7-1-4.1-1c-4.7,0-8.5,3.8-8.5,8.5s3.8,8.5,8.5,8.5c3.2,0,6.1-1.8,7.5-4.6c0.1-0.3,0.4-0.5,0.8-0.5
				C35.9,210.8,35.9,210.8,36,210.8z"/>
		</g>
	</g>
	<g>
		<g>
			<path fill="#E0E0E0" d="M357.6,157.8h-41.1c-6.3,0-11.4-5.1-11.4-11.4s5.1-11.4,11.4-11.4c1.5,0,2.9,0.3,4.2,0.8
				c1.8-8.3,9.2-14.4,17.7-14.4c10,0,18.1,8.1,18.1,18.1c0,0.5,0,1-0.1,1.5c0.3,0,0.7-0.1,1-0.1c4.6,0,8.4,3.7,8.4,8.4
				S362.2,157.8,357.6,157.8z M316.5,137.1c-5.2,0-9.4,4.2-9.4,9.4c0,5.2,4.2,9.4,9.4,9.4h41.1c3.5,0,6.4-2.9,6.4-6.4
				c0-3.5-2.9-6.4-6.4-6.4c-0.6,0-1.3,0.1-1.9,0.3c-0.3,0.1-0.7,0-1-0.2c-0.3-0.2-0.4-0.6-0.3-0.9c0.1-0.9,0.2-1.7,0.2-2.6
				c0-8.9-7.2-16.1-16.1-16.1c-8,0-14.9,6-16,14c0,0.3-0.2,0.6-0.5,0.8c-0.3,0.1-0.6,0.1-0.9,0C319.6,137.5,318.1,137.1,316.5,137.1
				z"/>
		</g>
	</g>
	<g>
		<g>
			<path fill="#E0E0E0" d="M157.6,299h-5.9c-0.6,0-1-0.4-1-1s0.4-1,1-1h5.9c0.6,0,1,0.4,1,1S158.1,299,157.6,299z"/>
		</g>
	</g>
	<g>
		<g>
			<path fill="#E0E0E0" d="M122.4,299h-21.5c-0.6,0-1-0.4-1-1s0.4-1,1-1h21.5c0.6,0,1,0.4,1,1S123,299,122.4,299z"/>
		</g>
	</g>
	<g>
		<g>
			<path fill="#E0E0E0" d="M276.8,299h-18.4c-0.6,0-1-0.4-1-1s0.4-1,1-1h18.4c0.6,0,1,0.4,1,1S277.3,299,276.8,299z"/>
		</g>
	</g>
	<g>
		<g>
			<path fill="#E0E0E0" d="M167.3,299c-0.2,0-0.3,0-0.5-0.1l-5.1-2.7c-0.5-0.3-0.7-0.9-0.4-1.4c0.3-0.5,0.9-0.7,1.4-0.4l5.1,2.7
				c0.5,0.3,0.7,0.9,0.4,1.4C168,298.8,167.7,299,167.3,299z"/>
		</g>
	</g>
	<g>
		<g>
			<path fill="#E0E0E0" d="M167.3,299c-0.1,0-0.3,0-0.4-0.1c-0.5-0.2-0.7-0.8-0.5-1.3l2.7-6.3c0.2-0.5,0.8-0.7,1.3-0.5
				c0.5,0.2,0.7,0.8,0.5,1.3l-2.7,6.3C168.1,298.7,167.7,299,167.3,299z"/>
		</g>
	</g>
	<g>
		<g>
			<path fill="#E0E0E0" d="M167.3,299c-0.4,0-0.8-0.2-0.9-0.6l-3-8c-0.2-0.5,0.1-1.1,0.6-1.3c0.5-0.2,1.1,0.1,1.3,0.6l3,8
				c0.2,0.5-0.1,1.1-0.6,1.3C167.6,298.9,167.5,299,167.3,299z"/>
		</g>
	</g>
</g>
</svg>
