<svg xmlns="http://www.w3.org/2000/svg" viewBox="0 0 70 70"><defs><style>.cls-1{fill:#6add92;}.cls-2{fill:#6dde94;}</style></defs><title>03_Icons_amenities_v1</title><g id="Layer_92" data-name="Layer 92"><path class="cls-1" d="M57.1,51.5H12.9A5.85,5.85,0,0,1,7,45.6V16.1a5.85,5.85,0,0,1,5.9-5.9H57.1A5.91,5.91,0,0,1,63,16.1V45.6A5.91,5.91,0,0,1,57.1,51.5ZM12.9,12.3A3.84,3.84,0,0,0,9,16.2V45.7a3.84,3.84,0,0,0,3.9,3.9H57.1A3.9,3.9,0,0,0,61,45.7V16.2a3.9,3.9,0,0,0-3.9-3.9Z"/><path class="cls-1" d="M43.6,59.8H26.5a1,1,0,0,1-.9-.6,1.1,1.1,0,0,1,.1-1.1l3.1-3.8V50.6a.94.94,0,0,1,1-1H40.4a.94.94,0,0,1,1,1v3.7l3.1,3.8a1.07,1.07,0,0,1,.1,1.1A1.37,1.37,0,0,1,43.6,59.8Zm-15.1-2h13l-2-2.5a1.42,1.42,0,0,1-.2-.6V51.5H30.7v3.2a1.42,1.42,0,0,1-.2.6Z"/><g id="Users"><path class="cls-2" d="M45.33,45.19H24.67A1.69,1.69,0,0,1,23,43.5V39c0-4.24,5.28-7.57,12-7.57S47,34.75,47,39V43.5A1.69,1.69,0,0,1,45.33,45.19ZM25,43.19H45V39c0-3-4.59-5.57-10-5.57S25,36,25,39Z"/><path class="cls-2" d="M35,30.28a6.89,6.89,0,1,1,6.93-6.88A6.91,6.91,0,0,1,35,30.28Zm0-11.77a4.89,4.89,0,1,0,4.93,4.89A4.91,4.91,0,0,0,35,18.51Z"/></g></g></svg>