<svg xmlns="http://www.w3.org/2000/svg" viewBox="0 0 70 70"><defs><style>.cls-1{fill:#6add92;}</style></defs><title>03_Icons_amenities_v1</title><g id="Layer_86" data-name="Layer 86"><path class="cls-1" d="M54.85,45.1H50a1,1,0,0,1,0-2h3.9V21.6H16.15V43.1h3.9a1,1,0,1,1,0,2h-4.9a.94.94,0,0,1-1-1V20.6a.94.94,0,0,1,1-1h39.7a.94.94,0,0,1,1,1V44.1A.94.94,0,0,1,54.85,45.1Z"/><path class="cls-1" d="M49.85,21.6H20.25a.94.94,0,0,1-1-1V13.9a.94.94,0,0,1,1-1h29.6a.94.94,0,0,1,1,1v6.7A1,1,0,0,1,49.85,21.6Zm-28.6-2h27.6V14.9H21.25Z"/><path class="cls-1" d="M47,57.1H23.15a.94.94,0,0,1-1-1V32.6a.94.94,0,0,1,1-1H47a.94.94,0,0,1,1,1V56.1A1,1,0,0,1,47,57.1Zm-22.8-2H46V33.6H24.15Z"/><path class="cls-1" d="M26.55,25.5h-3.4a1,1,0,0,1,0-2h3.4a.94.94,0,0,1,1,1A1,1,0,0,1,26.55,25.5Z"/><path class="cls-1" d="M47,25.5h-.5a1,1,0,0,1,0-2H47a1,1,0,0,1,0,2Z"/><path class="cls-1" d="M43.35,25.5h-.5a1,1,0,1,1,0-2h.5a1,1,0,0,1,0,2Z"/></g></svg>