<svg xmlns="http://www.w3.org/2000/svg" viewBox="0 0 70 70"><defs><style>.cls-1{fill:#6add92;}</style></defs><title>03_Icons_amenities_v1</title><g id="Layer_25" data-name="Layer 25"><path class="cls-1" d="M44.37,55.46H25.63A10.13,10.13,0,0,1,15.51,45.33V26.12A10.13,10.13,0,0,1,25.63,16H44.37A10.13,10.13,0,0,1,54.49,26.12V45.33A10.13,10.13,0,0,1,44.37,55.46ZM25.63,17.79a8.33,8.33,0,0,0-8.32,8.33V45.33a8.33,8.33,0,0,0,8.32,8.33H44.37a8.33,8.33,0,0,0,8.32-8.33V26.12a8.33,8.33,0,0,0-8.32-8.33Z"/><path class="cls-1" d="M19.1,27.06a.9.9,0,0,1-.9-.9A7.12,7.12,0,0,1,25.32,19a.9.9,0,1,1,0,1.8A5.33,5.33,0,0,0,20,26.16.9.9,0,0,1,19.1,27.06Z"/><path class="cls-1" d="M43.64,17.79H26.36a.9.9,0,0,1-.9-.9V12.66a.9.9,0,0,1,.9-.9H43.64a.9.9,0,0,1,.9.9v4.23A.9.9,0,0,1,43.64,17.79ZM27.26,16H42.74V13.56H27.26Z"/><path class="cls-1" d="M46.3,59.24H23.7a.9.9,0,0,1-.9-.9V54.56a.9.9,0,0,1,.9-.9H46.3a.9.9,0,0,1,.9.9v3.78A.9.9,0,0,1,46.3,59.24Zm-21.7-1.8H45.4v-2H24.6Z"/><path class="cls-1" d="M33.17,17.79a.91.91,0,0,1-.9-.9V15.5a.91.91,0,0,1,1.81,0v1.39A.91.91,0,0,1,33.17,17.79Z"/><path class="cls-1" d="M36.83,17.79a.91.91,0,0,1-.91-.9V15.5a.91.91,0,0,1,1.81,0v1.39A.91.91,0,0,1,36.83,17.79Z"/><path class="cls-1" d="M34.72,45.94c-3.11,0-5.34-1-6.63-2.9-2.66-4,0-10.48.09-10.75a1,1,0,0,1,.8-.64A1.07,1.07,0,0,1,30,32l1.34,1.52a9.42,9.42,0,0,0,2.37-5.23,1.06,1.06,0,0,1,1.66-.82c2.6,1.8,3.51,4.87,3.82,7l1.43-1.33a1.08,1.08,0,0,1,1-.25,1,1,0,0,1,.75.66c.08.24,2.06,5.76-.5,9.41C40.41,44.93,38,45.94,34.72,45.94Zm-5.54-11.3c-.57,2.08-1.15,5.46.3,7.61.93,1.4,2.69,2.1,5.21,2.1,2.77,0,4.7-.75,5.74-2.23,1.24-1.77,1.09-4.42.72-6.29l-1.89,1.76a1.13,1.13,0,0,1-1.91-.87s.1-4-1.92-6.72a14.21,14.21,0,0,1-3.67,5.81,1.1,1.1,0,0,1-.83.3,1.16,1.16,0,0,1-.79-.39Z"/><path class="cls-1" d="M19.1,30.19a.9.9,0,0,1-.9-.9v-.94a.9.9,0,0,1,1.8,0v.94A.9.9,0,0,1,19.1,30.19Z"/></g></svg>