<svg xmlns="http://www.w3.org/2000/svg" viewBox="0 0 70 70"><defs><style>.cls-1{fill:#6add92;}</style></defs><title>03_Icons_amenities_v1</title><g id="Layer_91" data-name="Layer 91"><path class="cls-1" d="M41.7,30.1H28.2a.94.94,0,0,1-1-1V21.9a3.54,3.54,0,0,1,3.5-3.5h8.5a3.54,3.54,0,0,1,3.5,3.5v7.2A1.08,1.08,0,0,1,41.7,30.1Zm-12.6-2H40.6V21.9a1.54,1.54,0,0,0-1.5-1.5H30.6a1.54,1.54,0,0,0-1.5,1.5Z"/><path class="cls-1" d="M55.2,58H14.7a.94.94,0,0,1-1-1V44.7a3.54,3.54,0,0,1,3.5-3.5H52.7a3.54,3.54,0,0,1,3.5,3.5V57A1.08,1.08,0,0,1,55.2,58ZM15.6,56H54.1V44.7a1.54,1.54,0,0,0-1.5-1.5H17.1a1.54,1.54,0,0,0-1.5,1.5V56Z"/><path class="cls-1" d="M48,43.2H21.8a.94.94,0,0,1-1-1V31.7a3.54,3.54,0,0,1,3.5-3.5H45.5A3.54,3.54,0,0,1,49,31.7V42.2A1,1,0,0,1,48,43.2Zm-25.2-2H47V31.7a1.54,1.54,0,0,0-1.5-1.5H24.3a1.54,1.54,0,0,0-1.5,1.5v9.5Z"/><path class="cls-1" d="M58.2,61.6H11.7a.87.87,0,0,1-.9-.6L9.2,57.4a1.18,1.18,0,0,1,.1-1,1,1,0,0,1,.8-.5H59.9a.89.89,0,0,1,.8.5,1.15,1.15,0,0,1,.1,1L59.2,61A1.22,1.22,0,0,1,58.2,61.6Zm-45.9-2H57.5l.7-1.6H11.5Z"/><path class="cls-1" d="M32.7,19.9a.94.94,0,0,1-1-1V13a1,1,0,0,1,2,0v5.9A1,1,0,0,1,32.7,19.9Z"/><path class="cls-1" d="M37.1,19.9a.94.94,0,0,1-1-1V13a1,1,0,0,1,2,0v5.9A.94.94,0,0,1,37.1,19.9Z"/><path class="cls-1" d="M37.1,11.4a.94.94,0,0,1-1-1v-1a1,1,0,1,1,2,0v1A.94.94,0,0,1,37.1,11.4Z"/><path class="cls-1" d="M32.7,11.4a.94.94,0,0,1-1-1v-1a1,1,0,0,1,2,0v1A1,1,0,0,1,32.7,11.4Z"/></g></svg>