<svg xmlns="http://www.w3.org/2000/svg" viewBox="0 0 70 70"><defs><style>.cls-1{fill:#6add92;}</style></defs><title>03_Icons_amenities_v1</title><g id="Layer_83" data-name="Layer 83"><path class="cls-1" d="M56.85,60.55H13.15A5.59,5.59,0,0,1,7.55,55V35.85a5.59,5.59,0,0,1,5.6-5.6h43.7a5.59,5.59,0,0,1,5.6,5.6V55A5.59,5.59,0,0,1,56.85,60.55Zm-43.8-28.4a3.59,3.59,0,0,0-3.6,3.6V55a3.59,3.59,0,0,0,3.6,3.6h43.7a3.59,3.59,0,0,0,3.6-3.6V35.85a3.59,3.59,0,0,0-3.6-3.6l-43.7-.1Z"/><path class="cls-1" d="M52.35,32.15H18.05a.87.87,0,0,1-.9-.6.91.91,0,0,1,.2-1.1l14.9-16.1a1,1,0,0,1,1.5,1.3l-13.3,14.5h29.7l-13.9-14.5a1,1,0,0,1,1.4-1.4l15.5,16.2a.91.91,0,0,1,.2,1.1A1.33,1.33,0,0,1,52.35,32.15Z"/><path class="cls-1" d="M35,16.85a3.7,3.7,0,1,1,3.7-3.7A3.76,3.76,0,0,1,35,16.85Zm0-5.5a1.7,1.7,0,1,0,1.7,1.7A1.75,1.75,0,0,0,35,11.35Z"/><path class="cls-1" d="M18.06,50h4.88a1.79,1.79,0,0,1,1.11.3,1,1,0,0,1,.38.81,1.09,1.09,0,0,1-.3.78,1.22,1.22,0,0,1-.92.32H16.33a1.49,1.49,0,0,1-1.1-.39,1.24,1.24,0,0,1-.39-.91,2.24,2.24,0,0,1,.25-.89,3.25,3.25,0,0,1,.55-.88c.83-.86,1.58-1.6,2.25-2.21a14.79,14.79,0,0,1,1.43-1.21,7.89,7.89,0,0,0,1.27-1.09,4.37,4.37,0,0,0,.78-1.12,2.63,2.63,0,0,0,.27-1.13,2,2,0,0,0-.29-1.07,2,2,0,0,0-.77-.73,2.29,2.29,0,0,0-3,.81,4.26,4.26,0,0,0-.31.77,3.26,3.26,0,0,1-.5,1,1,1,0,0,1-.81.34,1,1,0,0,1-.77-.31,1.13,1.13,0,0,1-.31-.84A3.42,3.42,0,0,1,15.17,41,3.81,3.81,0,0,1,16,39.7a4.29,4.29,0,0,1,1.46-.92,5.48,5.48,0,0,1,2.07-.35,6,6,0,0,1,2.44.45,3.61,3.61,0,0,1,1.15.82,3.73,3.73,0,0,1,.77,1.21,3.68,3.68,0,0,1,.28,1.43,3.91,3.91,0,0,1-.58,2.1,6.33,6.33,0,0,1-1.17,1.49c-.4.36-1.07.92-2,1.69a15.82,15.82,0,0,0-1.94,1.78A5.37,5.37,0,0,0,18.06,50Z"/><path class="cls-1" d="M31.45,51V49.29H26.76a1.93,1.93,0,0,1-1.34-.4A1.42,1.42,0,0,1,25,47.8a1.13,1.13,0,0,1,.06-.36,2.42,2.42,0,0,1,.2-.39l.27-.39.35-.45,4.95-6.63a8,8,0,0,1,.8-.95,1.05,1.05,0,0,1,.75-.3c1,0,1.43.55,1.43,1.63V47.2h.4a2.84,2.84,0,0,1,1.15.19.85.85,0,0,1,.44.86.88.88,0,0,1-.36.79,1.8,1.8,0,0,1-1.06.25h-.57V51a1.55,1.55,0,0,1-.32,1.07,1.07,1.07,0,0,1-.85.35,1.1,1.1,0,0,1-.85-.36A1.56,1.56,0,0,1,31.45,51Zm-4-3.83h4V41.77Z"/><path class="cls-1" d="M42.65,40.21,40,51c-.09.36-.16.64-.23.84a.9.9,0,0,1-.3.48.84.84,0,0,1-.58.18c-.64,0-1-.28-1-.83a7.57,7.57,0,0,1,.18-1.07l2.61-10.78a5.26,5.26,0,0,1,.39-1.18.79.79,0,0,1,.73-.32,1.05,1.05,0,0,1,.72.23.8.8,0,0,1,.25.61A5.25,5.25,0,0,1,42.65,40.21Z"/><path class="cls-1" d="M47.23,38.64h6.23a2.39,2.39,0,0,1,1.3.28,1.05,1.05,0,0,1,.4.93,2,2,0,0,1-.47,1l-1.08,1.42a16.09,16.09,0,0,0-1.24,1.94,15.42,15.42,0,0,0-1.17,2.84,11.93,11.93,0,0,0-.32,1.22c-.06.32-.13.75-.21,1.26s-.14.92-.19,1.19a2.73,2.73,0,0,1-.56,1.32,1.27,1.27,0,0,1-1,.37,1.13,1.13,0,0,1-.91-.4,1.67,1.67,0,0,1-.35-1.17A7.18,7.18,0,0,1,48,49.25a20.08,20.08,0,0,1,.82-2.46,23.24,23.24,0,0,1,1.43-2.94,24.47,24.47,0,0,1,2-3h-5a2.06,2.06,0,0,1-1.17-.28,1,1,0,0,1-.39-.9.81.81,0,0,1,.41-.83A3,3,0,0,1,47.23,38.64Z"/></g></svg>