<svg xmlns="http://www.w3.org/2000/svg" viewBox="0 0 70 70"><defs><style>.cls-1{fill:#6add92;}</style></defs><title>03_Icons_amenities_v1</title><g id="Layer_34" data-name="Layer 34"><path class="cls-1" d="M33.77,28a.93.93,0,0,1-.64-.26L30,24.66a.91.91,0,0,1,0-1.28.9.9,0,0,1,1.27,0l2.47,2.47,4.93-4.93a.88.88,0,0,1,1.27,0,.9.9,0,0,1,0,1.27L34.4,27.76A.89.89,0,0,1,33.77,28Z"/><path class="cls-1" d="M35.11,57.37a6.82,6.82,0,0,1-4.48-1.66c-.65-.64-5.94-6-5.94-9.47l-.83-10.53a1.52,1.52,0,0,1,2-1.55A27.43,27.43,0,0,0,35,35.39a27.56,27.56,0,0,0,9.12-1.23,1.52,1.52,0,0,1,2,1.55h0l-.83,10.73c0,3.35-5,8.56-5.54,9.14A7,7,0,0,1,35.11,57.37ZM25.69,36l.8,10.17c0,2.41,3.86,6.74,5.36,8.22a5.09,5.09,0,0,0,6.67-.11c1.36-1.39,5-5.63,5-7.91L44.31,36A30.74,30.74,0,0,1,35,37.19,30.74,30.74,0,0,1,25.69,36Zm19.55-.36h0Z"/><path class="cls-1" d="M34.94,52.91h-.19c-3.13-.14-5.07-4-5.15-4.14a.92.92,0,0,1,0-.88.89.89,0,0,1,.76-.42h9.18a.89.89,0,0,1,.76,1.37C38.67,51.54,36.85,52.91,34.94,52.91Zm-2.88-3.65a4.24,4.24,0,0,0,2.78,1.85c1.12.06,2.16-.81,3-1.85Z"/><path class="cls-1" d="M32.71,44.24a.9.9,0,0,1-.81-.5h0c-.21-.42-.84-1.3-1.43-1.32-.4,0-1,.49-1.59,1.39a.9.9,0,0,1-1.53-.94c1-1.55,2-2.3,3.2-2.25,1.8.08,2.85,2.09,3,2.32a.91.91,0,0,1-.41,1.21A.89.89,0,0,1,32.71,44.24Z"/><path class="cls-1" d="M41.89,44.24a.9.9,0,0,1-.81-.5h0c-.21-.42-.84-1.3-1.43-1.32s-1,.49-1.59,1.39a.9.9,0,0,1-1.53-.94c1-1.55,2-2.3,3.2-2.25,1.8.08,2.85,2.09,3,2.32a.91.91,0,0,1-.4,1.21A1,1,0,0,1,41.89,44.24Z"/><path class="cls-1" d="M24.19,53.85H17.48a.9.9,0,0,1-.9-.9V13.53a.9.9,0,0,1,.9-.9H46.11a.9.9,0,1,1,0,1.8H18.38V52.05h5.81a.9.9,0,1,1,0,1.8Z"/><path class="cls-1" d="M52.52,53.85H46a.9.9,0,0,1,0-1.8h5.58V19.94a.9.9,0,1,1,1.8,0V53A.9.9,0,0,1,52.52,53.85Z"/><path class="cls-1" d="M52.52,20.84H46.11a.9.9,0,0,1-.9-.9V13.53a.91.91,0,0,1,.55-.83.89.89,0,0,1,1,.2l6.42,6.41a.91.91,0,0,1,.19,1A.89.89,0,0,1,52.52,20.84ZM47,19h3.34L47,15.71Z"/></g></svg>