<svg xmlns="http://www.w3.org/2000/svg" viewBox="0 0 70 70"><defs><style>.cls-1{fill:#6add92;}</style></defs><title>03_Icons_amenities_v1</title><g id="Layer_30" data-name="Layer 30"><path class="cls-1" d="M35,56.47A21.47,21.47,0,1,1,56.47,35,21.49,21.49,0,0,1,35,56.47Zm0-41A19.53,19.53,0,1,0,54.53,35,19.55,19.55,0,0,0,35,15.47Z"/><path class="cls-1" d="M19.59,35.5a1,1,0,0,1-1.05-1A16.1,16.1,0,0,1,34.62,18.37a1.05,1.05,0,1,1,0,2.1,14,14,0,0,0-14,14A1,1,0,0,1,19.59,35.5Z"/><path class="cls-1" d="M35,50A10.83,10.83,0,1,1,45.83,39.17,10.84,10.84,0,0,1,35,50Zm0-20a9.13,9.13,0,1,0,9.13,9.13A9.14,9.14,0,0,0,35,30Z"/><path class="cls-1" d="M35,38.92a2.76,2.76,0,1,1,2.76-2.76A2.77,2.77,0,0,1,35,38.92ZM35,35a1.15,1.15,0,1,0,1.15,1.15A1.16,1.16,0,0,0,35,35Z"/><path class="cls-1" d="M35,44.68A3.68,3.68,0,1,1,38.68,41,3.68,3.68,0,0,1,35,44.68ZM35,39a2,2,0,1,0,2,2A2,2,0,0,0,35,39Z"/></g></svg>