<svg xmlns="http://www.w3.org/2000/svg" viewBox="0 0 70 70"><defs><style>.cls-1{fill:#6add92;}</style></defs><title>03_Icons_amenities_v1</title><g id="Layer_12" data-name="Layer 12"><path class="cls-1" d="M12.62,32.85a.9.9,0,0,1-.57-1.6L34.44,13.3a.9.9,0,0,1,1.12,0L58,31.25a.89.89,0,0,1,.14,1.26.9.9,0,0,1-1.27.14L35,15.16,13.18,32.65A.88.88,0,0,1,12.62,32.85Z"/><path class="cls-1" d="M53.57,56.89a.9.9,0,0,1-.9-.9v-27a.9.9,0,1,1,1.8,0V56A.9.9,0,0,1,53.57,56.89Z"/><path class="cls-1" d="M16.43,56.89a.9.9,0,0,1-.9-.9v-27a.9.9,0,0,1,1.8,0V56A.9.9,0,0,1,16.43,56.89Z"/><path class="cls-1" d="M41.77,34.54H28.23a.91.91,0,0,1,0-1.81H41.77a.91.91,0,0,1,0,1.81Z"/><path class="cls-1" d="M35,54.05a.9.9,0,0,1-.9-.9V31.25a.9.9,0,0,1,1.8,0v21.9A.9.9,0,0,1,35,54.05Z"/><path class="cls-1" d="M35,53.07A11.09,11.09,0,0,1,23.93,42a.9.9,0,0,1,1.8,0,9.27,9.27,0,0,0,18.54,0,.9.9,0,0,1,1.8,0A11.09,11.09,0,0,1,35,53.07Z"/><path class="cls-1" d="M35,32.15a2.45,2.45,0,1,1,2.45-2.44A2.45,2.45,0,0,1,35,32.15Zm0-3.09a.65.65,0,1,0,.65.65A.65.65,0,0,0,35,29.06Z"/><path class="cls-1" d="M43.39,44.68a.93.93,0,0,1-.64-.26.91.91,0,0,1,0-1.28l1.78-1.78a.91.91,0,0,1,1.28,1.28L44,44.42A.93.93,0,0,1,43.39,44.68Z"/><path class="cls-1" d="M26.61,44.68a.93.93,0,0,1-.64-.26l-1.78-1.78a.91.91,0,1,1,1.28-1.28l1.78,1.78a.91.91,0,0,1,0,1.28A.93.93,0,0,1,26.61,44.68Z"/><path class="cls-1" d="M35,54.05a.91.91,0,0,1-.64-1.54l.86-.86a.91.91,0,0,1,1.28,0,.9.9,0,0,1,0,1.28l-.85.86A.93.93,0,0,1,35,54.05Z"/><path class="cls-1" d="M35,54.05a.93.93,0,0,1-.64-.26l-.86-.86a.91.91,0,0,1,1.28-1.28l.86.86a.91.91,0,0,1,0,1.28A.93.93,0,0,1,35,54.05Z"/></g></svg>