<svg xmlns="http://www.w3.org/2000/svg" viewBox="0 0 70 70"><defs><style>.cls-1{fill:#6dde94;}</style></defs><title>03_Icons_amenities_v1</title><g id="Layer_84" data-name="Layer 84"><path class="cls-1" d="M59.9,46.45H10.1a.94.94,0,0,1-1-1v-5.2a.94.94,0,0,1,1-1H59.9a.94.94,0,0,1,1,1v5.2A1.08,1.08,0,0,1,59.9,46.45Zm-48.8-2H58.9v-3.2H11.1Z"/><path class="cls-1" d="M56.2,60.85H13.8a.94.94,0,0,1-1-1V45.45a.94.94,0,0,1,1-1H56.2a.94.94,0,0,1,1,1v14.4A1,1,0,0,1,56.2,60.85Zm-41.4-2H55.2V46.45H14.8Z"/><path class="cls-1" d="M35,26.35a8.6,8.6,0,1,1,8.6-8.6A8.6,8.6,0,0,1,35,26.35Zm0-15.1a6.6,6.6,0,1,0,6.6,6.6A6.59,6.59,0,0,0,35,11.25Z"/><path class="cls-1" d="M51.5,41.25a.94.94,0,0,1-1-1v-2c0-3.9-4.5-7.4-11-8.5a29.48,29.48,0,0,0-9,0c-6.5,1.1-11,4.6-11,8.5v2a1,1,0,0,1-2,0v-2c0-5,5.4-9.3,13-10.5a36.45,36.45,0,0,1,8.8,0c7.7,1.2,13,5.6,13,10.5v2C52.5,40.75,52,41.25,51.5,41.25Z"/><path class="cls-1" d="M44.2,36.65H40.8a1,1,0,0,1,0-2h3.4a1,1,0,0,1,0,2Z"/></g></svg>