<svg xmlns="http://www.w3.org/2000/svg" viewBox="0 0 70 70"><defs><style>.cls-1{fill:#6add92;}</style></defs><title>03_Icons_amenities_v1</title><g id="Layer_100" data-name="Layer 100"><path class="cls-1" d="M21.64,41l-11.3-11.2a12,12,0,0,1,0-16.7l.7-.7L30.64,32l-1.4,1.4-18.1-18.1a10.07,10.07,0,0,0,.7,13.2l11.3,11.1Z"/><path class="cls-1" d="M50.94,61.35h0a3.63,3.63,0,0,1-2.6-1.1l-13.9-14.1,1.4-1.4,13.9,14.1a1.66,1.66,0,0,0,1.2.5h0a1.85,1.85,0,0,0,1.2-.5,1.72,1.72,0,0,0,0-2.4l-14-14.2,1.4-1.4,14,14.2a3.74,3.74,0,0,1,0,5.2A3.63,3.63,0,0,1,50.94,61.35Z"/><path class="cls-1" d="M13.74,61.45a3.68,3.68,0,0,1-2.6-6.3l26.6-26.6c-1.8-4.8.4-8.3,4.2-12.1l7.9-7.9,1.4,1.4-7.9,7.9c-4.2,4.2-5.1,7-3.6,10.6l.3.6-27.5,27.5a1.66,1.66,0,0,0-.5,1.2,1.85,1.85,0,0,0,.5,1.2,1.82,1.82,0,0,0,2.4,0l16.6-16.6,11.1-10.7.6.3c3.5,1.7,6.2.7,10.5-3.6l7.9-7.9,1.4,1.4-7.9,7.9c-3.9,3.9-7.5,6.1-12.2,4.3l-10.1,9.8-16.6,16.6A3.74,3.74,0,0,1,13.74,61.45Z"/><rect class="cls-1" x="43.15" y="16.76" width="13.2" height="2" transform="translate(2.02 40.38) rotate(-45)"/><rect class="cls-1" x="47.22" y="21" width="13.2" height="2" transform="translate(0.21 44.5) rotate(-45)"/></g></svg>