<svg xmlns="http://www.w3.org/2000/svg" viewBox="0 0 70 70"><defs><style>.cls-1{fill:#6add92;}</style></defs><title>03_Icons_amenities_v1</title><g id="Layer_77" data-name="Layer 77"><path class="cls-1" d="M41.4,61.7H20.5a6.59,6.59,0,0,1-6.6-6.6V25.9a.94.94,0,0,1,1-1h32a.94.94,0,0,1,1,1v3.6a9.22,9.22,0,0,1,8.2,9.2v6.2a9.22,9.22,0,0,1-8.2,9.2v1.1A6.42,6.42,0,0,1,41.4,61.7ZM16,26.9V55.1a4.59,4.59,0,0,0,4.6,4.6H41.5a4.59,4.59,0,0,0,4.6-4.6v-2a.94.94,0,0,1,1-1,7.23,7.23,0,0,0,7.2-7.2V38.7a7.23,7.23,0,0,0-7.2-7.2.94.94,0,0,1-1-1V27H16ZM47,49a.94.94,0,0,1-1-1V35.6a.94.94,0,0,1,1-1,5.12,5.12,0,0,1,5.1,5.1v4.2A5.12,5.12,0,0,1,47,49Zm1-12.3V46.8a3.16,3.16,0,0,0,2.1-3V39.6A3.13,3.13,0,0,0,48,36.7Z"/><path class="cls-1" d="M32.8,26.9a.94.94,0,0,1-1-1,4.11,4.11,0,0,1,2-3.4c.8-.7,1.2-1,1.2-1.8s-.4-1.2-1.2-1.8a4.35,4.35,0,0,1-2-3.4,4.11,4.11,0,0,1,2-3.4c.8-.7,1.2-1,1.2-1.8a1,1,0,1,1,2,0,4.11,4.11,0,0,1-2,3.4c-.8.7-1.2,1-1.2,1.8s.4,1.2,1.2,1.8a4.35,4.35,0,0,1,2,3.4,4.11,4.11,0,0,1-2,3.4c-.8.7-1.2,1-1.2,1.8A1.08,1.08,0,0,1,32.8,26.9Z"/><path class="cls-1" d="M27.1,26a.94.94,0,0,1-1-1,4.11,4.11,0,0,1,2-3.4c.8-.7,1.2-1,1.2-1.8s-.4-1.2-1.2-1.8a4.35,4.35,0,0,1-2-3.4,1,1,0,0,1,2,0c0,.8.4,1.2,1.2,1.8a4.35,4.35,0,0,1,2,3.4,4.11,4.11,0,0,1-2,3.4c-.8.7-1.2,1-1.2,1.8A1.08,1.08,0,0,1,27.1,26Z"/><path class="cls-1" d="M26.5,36.7h-.2a1,1,0,0,1-.8-1.2l2.3-9.8a1.1,1.1,0,0,1,1.2-.8,1,1,0,0,1,.8,1.2l-2.3,9.8A1.05,1.05,0,0,1,26.5,36.7Z"/><path class="cls-1" d="M28.7,44.4a.6.6,0,0,1-.4-.1l-8-3.2a1,1,0,0,1-.6-1.2L21,34.2c.1-.3.2-.5.5-.6a1.06,1.06,0,0,1,.8-.1l8.2,2.8a.93.93,0,0,1,.6,1.2l-1.6,6.1a1,1,0,0,1-.5.6C29,44.3,28.8,44.4,28.7,44.4Zm-6.8-4.9L28,42l1.1-4.1-6.3-2.2Z"/></g></svg>