<svg xmlns="http://www.w3.org/2000/svg" viewBox="0 0 70 70"><defs><style>.cls-1{fill:#6add92;}</style></defs><title>03_Icons_amenities_v1</title><g id="Layer_88" data-name="Layer 88"><path class="cls-1" d="M58.5,49.2h-47a.94.94,0,0,1-1-1V17.7a.94.94,0,0,1,1-1h47a.94.94,0,0,1,1,1V48.2A1,1,0,0,1,58.5,49.2Zm-46-2h45V18.7h-45Z"/><path class="cls-1" d="M60.5,53.3H9.5a.94.94,0,0,1-1-1v-4a.94.94,0,0,1,1-1h51a.94.94,0,0,1,1,1v4A1.08,1.08,0,0,1,60.5,53.3Zm-50-2h49v-2h-49Z"/><path class="cls-1" d="M53.4,49.2H46.2a.94.94,0,0,1-1-1V45.1a.94.94,0,0,1,1-1h7.2a.94.94,0,0,1,1,1v3.1A.94.94,0,0,1,53.4,49.2Zm-6.1-2h5.2V46.1H47.3Z"/></g></svg>