<svg xmlns="http://www.w3.org/2000/svg" viewBox="0 0 70 70"><defs><style>.cls-1{fill:#6add92;}</style></defs><title>03_Icons_amenities_v1</title><g id="Layer_19" data-name="Layer 19"><path class="cls-1" d="M35,53.12c-3.46,0-9.26-1.34-9.26-10.33,0-7.11,5.63-18.11,9.26-18.11s9.25,11,9.25,18.11C44.25,51.78,38.45,53.12,35,53.12Zm0-26.63c-1.94,0-7.45,9.42-7.45,16.3,0,5.66,2.5,8.53,7.45,8.53s7.45-2.87,7.45-8.53C42.45,35.91,36.94,26.49,35,26.49Z"/><path class="cls-1" d="M35,56.28a.9.9,0,0,1-.9-.9V30.79a.9.9,0,0,1,1.8,0V55.38A.9.9,0,0,1,35,56.28Z"/><path class="cls-1" d="M35,48.73a.93.93,0,0,1-.64-.26.91.91,0,0,1,0-1.28l3.9-3.89a.88.88,0,0,1,1.27,0,.9.9,0,0,1,0,1.27l-3.89,3.9A.93.93,0,0,1,35,48.73Z"/><path class="cls-1" d="M35,44.42a.89.89,0,0,1-.64-.26l-3.62-3.62a.9.9,0,0,1,0-1.27.88.88,0,0,1,1.27,0l3.63,3.62A.9.9,0,0,1,35,44.42Z"/><path class="cls-1" d="M35,39.06a.91.91,0,0,1-.64-1.54L36.89,35a.9.9,0,0,1,1.27,0,.88.88,0,0,1,0,1.27l-2.52,2.53A.9.9,0,0,1,35,39.06Z"/><path class="cls-1" d="M50.65,56.28H19.35a.9.9,0,0,1,0-1.8h31.3a.9.9,0,1,1,0,1.8Z"/><path class="cls-1" d="M53.65,34.17a.89.89,0,0,1-.63-.26L51.6,32.49a.9.9,0,0,1,0-1.27.91.91,0,0,1,1.28,0l1.41,1.41a.91.91,0,0,1,0,1.28A.93.93,0,0,1,53.65,34.17Z"/><path class="cls-1" d="M49.07,29.59a.89.89,0,0,1-.63-.26l-3.17-3.17a.9.9,0,0,1,0-1.27.91.91,0,0,1,1.28,0l3.16,3.16a.91.91,0,0,1,0,1.28A.93.93,0,0,1,49.07,29.59Zm-6.33-6.33a.89.89,0,0,1-.63-.26l-3.17-3.17a.9.9,0,0,1,0-1.27.91.91,0,0,1,1.28,0l3.16,3.16a.91.91,0,0,1,0,1.28A.93.93,0,0,1,42.74,23.26Z"/><path class="cls-1" d="M36.41,16.93a.89.89,0,0,1-.63-.26L35,15.89l-.78.78a.9.9,0,0,1-1.27,0,.91.91,0,0,1,0-1.28L34.36,14a.9.9,0,0,1,.64-.26h0a.9.9,0,0,1,.64.26l1.41,1.42a.9.9,0,0,1,0,1.27A.93.93,0,0,1,36.41,16.93Z"/><path class="cls-1" d="M20.92,29.59a.89.89,0,0,1-.63-.26.91.91,0,0,1,0-1.28l3.16-3.16a.91.91,0,0,1,1.28,0,.9.9,0,0,1,0,1.27l-3.17,3.17A.9.9,0,0,1,20.92,29.59Zm6.33-6.33a.89.89,0,0,1-.63-.26.91.91,0,0,1,0-1.28l3.16-3.16a.91.91,0,0,1,1.28,0,.9.9,0,0,1,0,1.27L27.89,23A.9.9,0,0,1,27.25,23.26Z"/><path class="cls-1" d="M16.35,34.17a.92.92,0,0,1-.64-.26.9.9,0,0,1,0-1.27l1.41-1.42a.91.91,0,0,1,1.28,0,.9.9,0,0,1,0,1.27L17,33.91A.89.89,0,0,1,16.35,34.17Z"/></g></svg>