<svg xmlns="http://www.w3.org/2000/svg" viewBox="0 0 70 70"><defs><style>.cls-1{fill:#6add92;}</style></defs><title>03_Icons_amenities_v1</title><g id="Layer_70" data-name="Layer 70"><path class="cls-1" d="M54.1,40.2H15.9a3.37,3.37,0,0,1-3.4-3.4v-1a3.37,3.37,0,0,1,3.4-3.4H54.1a3.37,3.37,0,0,1,3.4,3.4v1A3.37,3.37,0,0,1,54.1,40.2ZM15.9,34.4a1.37,1.37,0,0,0-1.4,1.4v1a1.37,1.37,0,0,0,1.4,1.4H54.1a1.37,1.37,0,0,0,1.4-1.4v-1a1.37,1.37,0,0,0-1.4-1.4Z"/><path class="cls-1" d="M21.4,60a.94.94,0,0,1-1-1V55a1,1,0,0,1,2,0v4A.94.94,0,0,1,21.4,60Zm0-12a.94.94,0,0,1-1-1V43a1,1,0,0,1,2,0v4A.94.94,0,0,1,21.4,48Z"/><path class="cls-1" d="M30.5,60a.94.94,0,0,1-1-1V55a1,1,0,0,1,2,0v4A1,1,0,0,1,30.5,60Zm0-12a.94.94,0,0,1-1-1V43a1,1,0,0,1,2,0v4A1,1,0,0,1,30.5,48Z"/><path class="cls-1" d="M39.5,60a.94.94,0,0,1-1-1V55a1,1,0,0,1,2,0v4A.94.94,0,0,1,39.5,60Zm0-12a.94.94,0,0,1-1-1V43a1,1,0,0,1,2,0v4A.94.94,0,0,1,39.5,48Z"/><path class="cls-1" d="M48.6,60a.94.94,0,0,1-1-1V55a1,1,0,0,1,2,0v4A1,1,0,0,1,48.6,60Zm0-12a.94.94,0,0,1-1-1V43a1,1,0,0,1,2,0v4A1,1,0,0,1,48.6,48Z"/><path class="cls-1" d="M52.5,34.4H17.4a.94.94,0,0,1-1-1V30.5A14.72,14.72,0,0,1,31.1,15.8h7.8A14.72,14.72,0,0,1,53.6,30.5v2.9A1.09,1.09,0,0,1,52.5,34.4Zm-34-2H51.6V30.5A12.72,12.72,0,0,0,38.9,17.8H31.1A12.72,12.72,0,0,0,18.4,30.5l.1,1.9Z"/><path class="cls-1" d="M37,17.8H33a.94.94,0,0,1-1-1V10.9a.94.94,0,0,1,1-1h4a.94.94,0,0,1,1,1v5.9A1.08,1.08,0,0,1,37,17.8Zm-3-2h2V11.9H34Z"/><path class="cls-1" d="M44.2,31.5a.94.94,0,0,1-1-1V28.7a1,1,0,0,1,2,0v1.8A.94.94,0,0,1,44.2,31.5Z"/><path class="cls-1" d="M41,31.5a.94.94,0,0,1-1-1V28.7a1,1,0,0,1,2,0v1.8A.94.94,0,0,1,41,31.5Z"/><path class="cls-1" d="M37.8,31.5a.94.94,0,0,1-1-1V28.7a1,1,0,0,1,2,0v1.8A.94.94,0,0,1,37.8,31.5Z"/></g></svg>