<svg xmlns="http://www.w3.org/2000/svg" viewBox="0 0 70 70"><defs><style>.cls-1{fill:#6add92;}</style></defs><title>03_Icons_amenities_v1</title><g id="Layer_98" data-name="Layer 98"><path class="cls-1" d="M56.65,55.6H13.35a5.55,5.55,0,0,1-5.5-5.5V43.9a5.55,5.55,0,0,1,5.5-5.5h43.3a5.55,5.55,0,0,1,5.5,5.5v6.2A5.48,5.48,0,0,1,56.65,55.6ZM13.45,40.4A3.54,3.54,0,0,0,10,43.9v6.2a3.54,3.54,0,0,0,3.5,3.5h43.3a3.54,3.54,0,0,0,3.5-3.5V43.9a3.54,3.54,0,0,0-3.5-3.5Z"/><path class="cls-1" d="M25.05,46.6H14.85a1,1,0,0,1,0-2h10.2a1,1,0,1,1,0,2Z"/><path class="cls-1" d="M20,49.5h-5.1a1,1,0,0,1,0-2H20a1,1,0,1,1,0,2Z"/><path class="cls-1" d="M50.45,52.6a5.6,5.6,0,1,1,5.6-5.6A5.59,5.59,0,0,1,50.45,52.6Zm0-9.1a3.6,3.6,0,1,0,3.6,3.6A3.59,3.59,0,0,0,50.45,43.5Z"/><path class="cls-1" d="M48.65,49.2a1,1,0,0,1-.8-.5,1,1,0,0,1,.3-1.4L52,44.8a1,1,0,1,1,1.1,1.7L49.25,49A.85.85,0,0,1,48.65,49.2Z"/><path class="cls-1" d="M46.25,34.3H23.85a4.69,4.69,0,0,1-4.7-4.7V15.4a.94.94,0,0,1,1-1H50a.94.94,0,0,1,1,1V29.6A4.69,4.69,0,0,1,46.25,34.3ZM21.15,16.4V29.6a2.69,2.69,0,0,0,2.7,2.7h22.4A2.69,2.69,0,0,0,49,29.6V16.4Z"/><path class="cls-1" d="M50.15,24.8a1.05,1.05,0,0,1-.9-.5,1,1,0,0,1,.4-1.4c1.1-.6,3.9-2.6,3.5-4.4,0,.1,0,0-.1,0s-.7-.1-2.3,1.4a1,1,0,1,1-1.4-1.4c1.6-1.6,2.9-2.2,4.1-2a2.2,2.2,0,0,1,1.6,1.3c1.1,3.6-3.8,6.5-4.4,6.8A.55.55,0,0,1,50.15,24.8Z"/><path class="cls-1" d="M20,24.8a.9.9,0,0,1-.5-.1c-.6-.3-5.5-3.1-4.4-6.7a2.29,2.29,0,0,1,1.6-1.4c1.2-.2,2.5.4,4.1,2a1,1,0,0,1-1.4,1.4c-1.5-1.5-2.2-1.5-2.3-1.4-.6,1.7,2.3,3.8,3.4,4.4a1,1,0,0,1,.4,1.4A1.49,1.49,0,0,1,20,24.8Z"/><path class="cls-1" d="M45.05,37.3h-20a1,1,0,1,1,0-2h20a.94.94,0,0,1,1,1A1,1,0,0,1,45.05,37.3Z"/></g></svg>