<svg xmlns="http://www.w3.org/2000/svg" viewBox="0 0 70 70"><defs><style>.cls-1{fill:#6add92;}</style></defs><title>03_Icons_amenities_v1</title><g id="Layer_35" data-name="Layer 35"><path class="cls-1" d="M35,36.63a1,1,0,0,1-.75-.32L23.11,25.15a1.06,1.06,0,0,1,0-1.51L34.27,12.48a1.06,1.06,0,0,1,1.51,0l7.14,7.13a1.07,1.07,0,0,1-1.52,1.52L35,14.75,25.38,24.4,35,34l3.2-3.2a1.07,1.07,0,1,1,1.52,1.52l-4,4A1.07,1.07,0,0,1,35,36.63Z"/><path class="cls-1" d="M46.18,47.79a1.1,1.1,0,0,1-.75-.31L34.27,36.31a1.06,1.06,0,0,1,0-1.51l3.95-4a1.07,1.07,0,1,1,1.52,1.52l-3.2,3.2,9.64,9.64,9.65-9.64L51.23,31a1.07,1.07,0,0,1,0-1.52,1.09,1.09,0,0,1,1.52,0L58.1,34.8a1.06,1.06,0,0,1,0,1.51L46.94,47.48A1.1,1.1,0,0,1,46.18,47.79Z"/><path class="cls-1" d="M23.82,47.84a1.07,1.07,0,0,1-.76-.32L11.9,36.36a1.06,1.06,0,0,1,0-1.51L23.06,23.69a1.06,1.06,0,0,1,1.51,0L35.73,34.85a1.06,1.06,0,0,1,0,1.51L24.57,47.52A1.06,1.06,0,0,1,23.82,47.84ZM14.17,35.6l9.65,9.65,9.64-9.65L23.82,26Z"/><path class="cls-1" d="M35,59a1.07,1.07,0,0,1-.76-.32L23.06,47.52a1.06,1.06,0,0,1,0-1.51L34.22,34.85a1.06,1.06,0,0,1,1.51,0L46.89,46a1.06,1.06,0,0,1,0,1.51L35.73,58.68A1,1,0,0,1,35,59ZM25.33,46.76,35,56.41l9.64-9.65L35,37.12Z"/><path class="cls-1" d="M43.53,31.28a3.65,3.65,0,1,1,3.65-3.65A3.65,3.65,0,0,1,43.53,31.28Zm0-5.15a1.5,1.5,0,1,0,1.5,1.5A1.5,1.5,0,0,0,43.53,26.13Z"/><path class="cls-1" d="M46.11,28.7A1.08,1.08,0,0,1,45,27.63V15.69a1.08,1.08,0,0,1,2.15,0V27.63A1.07,1.07,0,0,1,46.11,28.7Z"/><path class="cls-1" d="M46.11,21A1.07,1.07,0,0,1,45.72,19l8.72-3.36v-2L46.49,16.7a1.08,1.08,0,0,1-.77-2l9.41-3.62a1.08,1.08,0,0,1,1.46,1v4.27a1.08,1.08,0,0,1-.69,1L46.49,21A1,1,0,0,1,46.11,21Z"/><path class="cls-1" d="M53,27.87a3.55,3.55,0,1,1,3.55-3.55A3.55,3.55,0,0,1,53,27.87Zm0-4.95a1.4,1.4,0,1,0,1.4,1.4A1.4,1.4,0,0,0,53,22.92Z"/><path class="cls-1" d="M55.52,25.08A1.07,1.07,0,0,1,54.44,24V12.08a1.08,1.08,0,1,1,2.15,0V24A1.07,1.07,0,0,1,55.52,25.08Z"/></g></svg>