<svg xmlns="http://www.w3.org/2000/svg" viewBox="0 0 70 70"><defs><style>.cls-1{fill:#6add92;}</style></defs><title>03_Icons_amenities_v1</title><g id="Layer_80" data-name="Layer 80"><path class="cls-1" d="M19.39,55.87a7.42,7.42,0,1,1,7.42-7.42A7.42,7.42,0,0,1,19.39,55.87Zm0-12.83a5.42,5.42,0,1,0,5.42,5.41A5.42,5.42,0,0,0,19.39,43Z"/><path class="cls-1" d="M36.81,55.87a5.75,5.75,0,1,1,5.74-5.75A5.76,5.76,0,0,1,36.81,55.87Zm0-9.5a3.75,3.75,0,1,0,3.74,3.75A3.75,3.75,0,0,0,36.81,46.37Z"/><path class="cls-1" d="M60.93,48.85H47.13a3.6,3.6,0,0,1-3.59-3.6v-27a1,1,0,1,1,2,0V45.25a1.6,1.6,0,0,0,1.59,1.6h13.8a1,1,0,0,1,0,2Z"/><path class="cls-1" d="M13,51.12H9.07a1,1,0,0,1-1-1V34.6a1,1,0,0,1,1-1H39.22a1,1,0,0,1,.7.29l5.32,5.32a1,1,0,0,1,0,1.41,1,1,0,0,1-1.41,0l-5-5H10.07V49.12H13a1,1,0,0,1,0,2Z"/><path class="cls-1" d="M34.89,35.6A1,1,0,0,1,34,35l-7.6-18.84H12V34.6a1,1,0,0,1-2,0V15.13a1,1,0,0,1,1-1H27a1,1,0,0,1,.93.63l7.85,19.46a1,1,0,0,1-.55,1.31A1.27,1.27,0,0,1,34.89,35.6Z"/><path class="cls-1" d="M60.93,44.83H48.54a1,1,0,0,1-1-1V33.35a1,1,0,0,1,1-1H60.93a1,1,0,0,1,1,1V43.83A1,1,0,0,1,60.93,44.83Zm-11.39-2H59.93V34.35H49.54Z"/><path class="cls-1" d="M60.93,34.35H48.54a1,1,0,0,1-1-1V22.86a1,1,0,0,1,1-1H60.93a1,1,0,0,1,1,1V33.35A1,1,0,0,1,60.93,34.35Zm-11.39-2H59.93V23.86H49.54Z"/><path class="cls-1" d="M32.06,51.12H25.81a1,1,0,1,1,0-2h6.25a1,1,0,0,1,0,2Z"/></g></svg>