<svg xmlns="http://www.w3.org/2000/svg" viewBox="0 0 70 70"><defs><style>.cls-1{fill:#6add92;}</style></defs><title>03_Icons_amenities_v1</title><g id="Layer_80" data-name="Layer 80"><path class="cls-1" d="M35,59.39a1.26,1.26,0,0,1-.27,0c-27.75-7.81-23-45.59-22.91-46a1,1,0,0,1,1.69-.58c.38.36,9.48,8.77,20.8-1.91a1,1,0,0,1,1.38,0c11.36,10.71,20.42,2.27,20.8,1.91a1,1,0,0,1,1.69.58c0,.38,4.84,38.16-22.91,46A1.26,1.26,0,0,1,35,59.39ZM13.63,15.47c-.54,7.43-1,35.34,21.37,41.88C57.42,50.81,56.91,22.9,56.37,15.47c-4.32,3-12.61,5.26-21.37-2.5C26.24,20.72,18,18.48,13.63,15.47Z"/><path class="cls-1" d="M25.64,44.6a1,1,0,0,1-.71-1.71L36.45,31.38a1,1,0,0,1,1.41,1.41L26.34,44.31A1,1,0,0,1,25.64,44.6Z"/><path class="cls-1" d="M29.88,46.13a1,1,0,0,1-.71-.3L26.29,43a1,1,0,0,1,0-1.41,1,1,0,0,1,1.41,0l2.89,2.88a1,1,0,0,1,0,1.41A1,1,0,0,1,29.88,46.13Z"/><path class="cls-1" d="M32,41.61a1,1,0,0,1-.71-.29l-1.7-1.7a1,1,0,0,1,0-1.41,1,1,0,0,1,1.42,0l1.69,1.7a1,1,0,0,1,0,1.41A1,1,0,0,1,32,41.61Z"/><path class="cls-1" d="M40.14,34.32a5.23,5.23,0,0,1-3.69-8.92,5.23,5.23,0,0,1,7.38,0h0a5.23,5.23,0,0,1-3.69,8.92Zm0-8.45a3.23,3.23,0,0,0-2.28,5.51,3.32,3.32,0,0,0,4.56,0,3.23,3.23,0,0,0-2.28-5.51Z"/></g></svg>