<svg xmlns="http://www.w3.org/2000/svg" viewBox="0 0 70 70"><defs><style>.cls-1{fill:#6add92;}</style></defs><title>03_Icons_amenities_v1</title><g id="Layer_12" data-name="Layer 12"><path class="cls-1" d="M35.24,23.25a3.33,3.33,0,1,1,3.33-3.32A3.32,3.32,0,0,1,35.24,23.25Zm0-4.65a1.33,1.33,0,1,0,1.33,1.33A1.33,1.33,0,0,0,35.24,18.6Z"/><path class="cls-1" d="M49.1,46.32A12.54,12.54,0,1,1,58,24.91a1,1,0,1,1-1.41,1.41,10.54,10.54,0,1,0,0,14.91A1,1,0,0,1,58,42.65,12.42,12.42,0,0,1,49.1,46.32Z"/><path class="cls-1" d="M27.15,39.21a1,1,0,0,1-1-1V16.71a3.32,3.32,0,0,0-6.64,0v21.5a1,1,0,0,1-2,0V16.71a5.32,5.32,0,1,1,10.64,0v21.5A1,1,0,0,1,27.15,39.21Z"/><circle class="cls-1" cx="22.83" cy="47.53" r="6.06"/><path class="cls-1" d="M22.83,58.61a11.08,11.08,0,0,1-4.75-21.09,1,1,0,0,1,1.33.47,1,1,0,0,1-.47,1.34,9.09,9.09,0,1,0,7.78,0A1,1,0,0,1,26.25,38a1,1,0,0,1,1.33-.47,11.08,11.08,0,0,1-4.75,21.09Z"/><path class="cls-1" d="M22.83,48.53a1,1,0,0,1-1-1V28.78a1,1,0,0,1,2,0V47.53A1,1,0,0,1,22.83,48.53Z"/></g></svg>