<svg xmlns="http://www.w3.org/2000/svg" viewBox="0 0 70 70"><defs><style>.cls-1{fill:#6add92;}</style></defs><title>03_Icons_amenities_v1</title><g id="Layer_103" data-name="Layer 103"><path class="cls-1" d="M35,53.7a19.11,19.11,0,0,1-13.2-5.5A18.79,18.79,0,0,1,16.3,35,18.78,18.78,0,0,1,35,16.3H52.7a.94.94,0,0,1,1,1V35h0a19.3,19.3,0,0,1-5.5,13.2A18.79,18.79,0,0,1,35,53.7Zm0-35.4A16.73,16.73,0,0,0,18.3,35a16.82,16.82,0,0,0,4.9,11.8,16.66,16.66,0,0,0,23.6,0A17.33,17.33,0,0,0,51.7,35V18.3ZM52.7,35Z"/><path class="cls-1" d="M23.4,43.2a.89.89,0,0,1-.8-.5A11.26,11.26,0,0,1,21.3,40a1,1,0,0,1,1.9-.7,16.27,16.27,0,0,0,1.1,2.3A1.08,1.08,0,0,1,24,43,3.93,3.93,0,0,1,23.4,43.2ZM21.3,36a.94.94,0,0,1-1-1A14.68,14.68,0,0,1,35,20.3a1,1,0,0,1,0,2A13.24,13.24,0,0,0,26,26a13.06,13.06,0,0,0-3.7,9A1,1,0,0,1,21.3,36Z"/></g></svg>