<svg xmlns="http://www.w3.org/2000/svg" viewBox="0 0 70 70"><defs><style>.cls-1{fill:#6dde94;}</style></defs><title>03_Icons_amenities_v1</title><g id="Layer_79" data-name="Layer 79"><path class="cls-1" d="M27.15,56.3H11.55a.94.94,0,0,1-1-1V14.7a.94.94,0,0,1,1-1h15.6a.94.94,0,0,1,1,1V55.3A1.08,1.08,0,0,1,27.15,56.3Zm-14.7-2h13.6V15.7H12.45Z"/><path class="cls-1" d="M23.35,19.7H15a1,1,0,0,1,0-2h8.4a.94.94,0,0,1,1,1A1,1,0,0,1,23.35,19.7Z"/><path class="cls-1" d="M23.35,23.2H15a1,1,0,0,1,0-2h8.4a.94.94,0,0,1,1,1A1,1,0,0,1,23.35,23.2Z"/><path class="cls-1" d="M23.35,26.7H15a1,1,0,0,1,0-2h8.4a.94.94,0,0,1,1,1A1,1,0,0,1,23.35,26.7Z"/><path class="cls-1" d="M14.85,36.8a.94.94,0,0,1-1-1V32.4a1,1,0,0,1,2,0v3.4A1,1,0,0,1,14.85,36.8Z"/><path class="cls-1" d="M42.75,56.3H27.15a.94.94,0,0,1-1-1V14.7a.94.94,0,0,1,1-1h15.6a.94.94,0,0,1,1,1V55.3A1,1,0,0,1,42.75,56.3Zm-14.6-2h13.6V15.7H28.15Z"/><path class="cls-1" d="M39,19.7h-8.4a1,1,0,0,1,0-2H39a.94.94,0,0,1,1,1A1,1,0,0,1,39,19.7Z"/><path class="cls-1" d="M39,23.2h-8.4a1,1,0,0,1,0-2H39a.94.94,0,0,1,1,1A1,1,0,0,1,39,23.2Z"/><path class="cls-1" d="M39,26.7h-8.4a1,1,0,0,1,0-2H39a.94.94,0,0,1,1,1A1,1,0,0,1,39,26.7Z"/><path class="cls-1" d="M30.55,36.8a.94.94,0,0,1-1-1V32.4a1,1,0,0,1,2,0v3.4A1.08,1.08,0,0,1,30.55,36.8Z"/><path class="cls-1" d="M58.45,56.3H42.85a.94.94,0,0,1-1-1V14.7a.94.94,0,0,1,1-1h15.6a.94.94,0,0,1,1,1V55.3A1.08,1.08,0,0,1,58.45,56.3Zm-14.7-2h13.6V15.7H43.75Z"/><path class="cls-1" d="M54.55,19.7h-8.4a1,1,0,0,1,0-2h8.4a1,1,0,0,1,0,2Z"/><path class="cls-1" d="M54.55,23.2h-8.4a1,1,0,0,1,0-2h8.4a1,1,0,0,1,0,2Z"/><path class="cls-1" d="M54.55,26.7h-8.4a1,1,0,0,1,0-2h8.4a1,1,0,0,1,0,2Z"/><path class="cls-1" d="M46.15,36.8a.94.94,0,0,1-1-1V32.4a1,1,0,0,1,2,0v3.4A1,1,0,0,1,46.15,36.8Z"/></g></svg>