<svg xmlns="http://www.w3.org/2000/svg" viewBox="0 0 70 70"><defs><style>.cls-1{fill:#6add92;}</style></defs><title>03_Icons_amenities_v1</title><g id="Layer_147" data-name="Layer 147"><path class="cls-1" d="M16.47,45.3a5.78,5.78,0,0,1-5.77-5.77V23.78a1,1,0,0,1,1-1h9.55a1,1,0,0,1,1,1V39.53A5.78,5.78,0,0,1,16.47,45.3ZM12.7,24.78V39.53a3.78,3.78,0,0,0,7.55,0V24.78Z"/><path class="cls-1" d="M21.25,39.16H11.7a1,1,0,0,1,0-2h9.55a1,1,0,0,1,0,2Z"/><path class="cls-1" d="M21.25,35H11.7a1,1,0,1,1,0-2h9.55a1,1,0,0,1,0,2Z"/><path class="cls-1" d="M19,24.78H14a1,1,0,0,1-1-1V19.21a1,1,0,0,1,1-1h5a1,1,0,0,1,1,1v4.57A1,1,0,0,1,19,24.78Zm-4-2h3V20.21H15Z"/><path class="cls-1" d="M16.47,20.21a1,1,0,0,1-1-1V9.11a1,1,0,0,1,2,0v10.1A1,1,0,0,1,16.47,20.21Z"/><path class="cls-1" d="M16.47,61.89a1,1,0,0,1-1-1V44.3a1,1,0,0,1,2,0V60.89A1,1,0,0,1,16.47,61.89Z"/><path class="cls-1" d="M35,45.3a5.78,5.78,0,0,1-5.77-5.77V23.78a1,1,0,0,1,1-1h9.54a1,1,0,0,1,1,1V39.53A5.78,5.78,0,0,1,35,45.3ZM31.23,24.78V39.53a3.77,3.77,0,1,0,7.54,0V24.78Z"/><path class="cls-1" d="M39.77,39.16H30.23a1,1,0,0,1,0-2h9.54a1,1,0,1,1,0,2Z"/><path class="cls-1" d="M39.77,35H30.23a1,1,0,1,1,0-2h9.54a1,1,0,0,1,0,2Z"/><path class="cls-1" d="M37.51,24.78h-5a1,1,0,0,1-1-1V19.21a1,1,0,0,1,1-1h5a1,1,0,0,1,1,1v4.57A1,1,0,0,1,37.51,24.78Zm-4-2h3V20.21h-3Z"/><path class="cls-1" d="M35,20.21a1,1,0,0,1-1-1V9.11a1,1,0,0,1,2,0v10.1A1,1,0,0,1,35,20.21Z"/><path class="cls-1" d="M35,54.13a1,1,0,0,1-1-1V44.3a1,1,0,0,1,2,0v8.83A1,1,0,0,1,35,54.13Z"/><path class="cls-1" d="M53.53,45.3a5.78,5.78,0,0,1-5.78-5.77V23.78a1,1,0,0,1,1-1H58.3a1,1,0,0,1,1,1V39.53A5.78,5.78,0,0,1,53.53,45.3ZM49.75,24.78V39.53a3.78,3.78,0,0,0,7.55,0V24.78Z"/><path class="cls-1" d="M58.3,39.16H48.75a1,1,0,0,1,0-2H58.3a1,1,0,0,1,0,2Z"/><path class="cls-1" d="M58.3,35H48.75a1,1,0,0,1,0-2H58.3a1,1,0,0,1,0,2Z"/><path class="cls-1" d="M56,24.78H51a1,1,0,0,1-1-1V19.21a1,1,0,0,1,1-1h5a1,1,0,0,1,1,1v4.57A1,1,0,0,1,56,24.78Zm-4-2h3V20.21H52Z"/><path class="cls-1" d="M53.53,20.21a1,1,0,0,1-1-1V9.11a1,1,0,0,1,2,0v10.1A1,1,0,0,1,53.53,20.21Z"/><path class="cls-1" d="M48.73,54.13H16.47a1,1,0,1,1,0-2H48.73a3.8,3.8,0,0,0,3.8-3.8v-4a1,1,0,0,1,2,0v4A5.81,5.81,0,0,1,48.73,54.13Z"/></g></svg>