<svg xmlns="http://www.w3.org/2000/svg" viewBox="0 0 70 70"><defs><style>.cls-1{fill:#6add92;}</style></defs><title>03_Icons_amenities_v1</title><g id="Layer_97" data-name="Layer 97"><path class="cls-1" d="M25.2,61.8a3.59,3.59,0,0,1-3.6-3.6l-.2-22.7h2l.2,22.7a1.6,1.6,0,1,0,3.2,0V35.5h2V58.2A3.72,3.72,0,0,1,25.2,61.8Z"/><path class="cls-1" d="M25,38.1c-5.5,0-10.8-11.8-10.8-18.6,0-7.1,5.4-10.3,10.8-10.3s10.8,3.2,10.8,10.3C35.8,26.3,30.5,38.1,25,38.1Zm0-26.9c-1.5,0-8.8.4-8.8,8.3,0,6.7,5.3,16.6,8.8,16.6s8.8-9.9,8.8-16.6C33.8,11.6,26.5,11.2,25,11.2Z"/><path class="cls-1" d="M25,37.2c-.7,0-2.2,0-3.9-7a55.19,55.19,0,0,1-1.5-11.7c0-7.6,2.8-10.3,5.3-10.3s5.3,2.7,5.3,10.3a55.19,55.19,0,0,1-1.5,11.7C27.3,37.2,25.7,37.2,25,37.2Zm0-27c-1.6,0-3.3,2.6-3.3,8.3,0,6.8,2.1,15.2,3.3,16.6,1.3-1.4,3.3-9.8,3.3-16.6C28.4,12.8,26.6,10.2,25,10.2Z"/><path class="cls-1" d="M47.1,61.8a3.59,3.59,0,0,1-3.6-3.6l-.2-26.5c-2-1.4-5.1-3.8-5.1-8.4,0-5.7,3.1-13.9,8.8-13.9s8.8,8.2,8.8,13.9c0,4.5-3.1,7-5.1,8.4V58.2A3.59,3.59,0,0,1,47.1,61.8ZM47,11.4c-3.8,0-6.8,6.5-6.8,11.9,0,3.5,2.3,5.4,4.7,7l.4.3.2,27.6a1.6,1.6,0,1,0,3.2,0V30.6l.4-.3c2.4-1.6,4.7-3.5,4.7-7C53.8,17.9,50.7,11.4,47,11.4Z"/></g></svg>