<svg xmlns="http://www.w3.org/2000/svg" viewBox="0 0 70 70"><defs><style>.cls-1{fill:#6add92;}</style></defs><title>03_Icons_amenities_v1</title><g id="Layer_111" data-name="Layer 111"><path class="cls-1" d="M18.43,49.15h0a.79.79,0,0,1-.8-.5c-.1-.1-8.3-14.9,4-27.1h0c12.2-12.2,27-4,27.1-4,.3.2.5.4.5.7a1.14,1.14,0,0,1-.3.8l-29.7,29.7A1.2,1.2,0,0,1,18.43,49.15ZM22.93,23c-9.2,9.2-5.8,20-4.2,23.5l27.7-27.7c-3.6-1.6-14.2-5.2-23.5,4.2Z"/><path class="cls-1" d="M54.13,55.15a.91.91,0,0,1-.7-.3l-17.3-17.3a1,1,0,1,1,1.4-1.4l17.3,17.3a1,1,0,0,1,0,1.4A1.08,1.08,0,0,1,54.13,55.15Z"/><path class="cls-1" d="M27.53,40.05h0a1.23,1.23,0,0,1-.8-.4c-1.1-1.3-10.3-13.1-5.2-18.1h0c5.1-5.1,16.8,4.2,18.1,5.2a1,1,0,0,1,.4.7,1.14,1.14,0,0,1-.3.8l-11.5,11.5A1.08,1.08,0,0,1,27.53,40.05ZM22.93,23c-3,3,1.9,10.8,4.7,14.6l9.9-9.9c-3.8-2.9-11.7-7.7-14.6-4.7Z"/><path class="cls-1" d="M30.73,41.55a5.57,5.57,0,0,1-4-1.9,1,1,0,0,1,1.4-1.4,3.31,3.31,0,0,0,3.6,1.1,12.7,12.7,0,0,0,4.3-3.2c3.81-3.8,4.31-5.8,2.1-7.9a1,1,0,1,1,1.4-1.4c4.31,4.3.1,8.5-2.1,10.8a15.12,15.12,0,0,1-5.09,3.7A7.13,7.13,0,0,1,30.73,41.55Z"/><path class="cls-1" d="M42.53,30.25a6.05,6.05,0,0,1-4.2-2.1,1,1,0,0,1,1.4-1.4c1.6,1.6,2.7,1.6,3.4,1.4a8.23,8.23,0,0,0,3.4-2.3,7.48,7.48,0,0,0,2.31-3.4c.19-.7.19-1.8-1.41-3.4a1,1,0,0,1,0-1.4,1,1,0,0,1,1.41,0c1.69,1.7,2.4,3.5,1.9,5.3a9.69,9.69,0,0,1-2.9,4.3,9.72,9.72,0,0,1-4.31,2.9A3.4,3.4,0,0,1,42.53,30.25Z"/><path class="cls-1" d="M21.93,50.85a5.63,5.63,0,0,1-4.2-2.1,1,1,0,1,1,1.4-1.4c2.5,2.5,4.2,1.6,6.8-.9a7.48,7.48,0,0,0,2.31-3.4c.19-.7.19-1.8-1.4-3.4a1,1,0,0,1,0-1.4,1,1,0,0,1,1.4,0c1.69,1.7,2.4,3.5,1.9,5.3a9.69,9.69,0,0,1-2.9,4.3C26.13,49,24.23,50.85,21.93,50.85Z"/></g></svg>