<svg xmlns="http://www.w3.org/2000/svg" viewBox="0 0 70 70"><defs><style>.cls-1{fill:#6add92;}</style></defs><title>03_Icons_amenities_v1</title><g id="Layer_23" data-name="Layer 23"><path class="cls-1" d="M46.05,42.84H30.4l-.22,0h0a4.18,4.18,0,0,1-4-2.91l-6.25-19.6a4.13,4.13,0,0,1,.27-3.21A4.17,4.17,0,0,1,22.67,15,4.22,4.22,0,0,1,28,17.75L33.29,34.4H46.05a4.22,4.22,0,1,1,0,8.44ZM30.24,41l.2,0H46.05a2.42,2.42,0,0,0,0-4.83H32.63a.89.89,0,0,1-.85-.63L26.26,18.29a2.42,2.42,0,0,0-4.45-.37,2.36,2.36,0,0,0-.16,1.84l6.26,19.6A2.38,2.38,0,0,0,30.22,41h0Z"/><path class="cls-1" d="M44.07,39.13a.9.9,0,0,1-.86-.63l-.76-2.38a5.34,5.34,0,0,0-5.09-3.71H28.81a.9.9,0,1,1,0-1.8h8.55a7.13,7.13,0,0,1,6.8,5L44.92,38a.88.88,0,0,1-.58,1.13A.86.86,0,0,1,44.07,39.13Z"/><path class="cls-1" d="M28.57,55.19l-.2,0a.91.91,0,0,1-.69-1.07l2.66-12.35a.9.9,0,0,1,1.76.38L29.44,54.48A.9.9,0,0,1,28.57,55.19Z"/><path class="cls-1" d="M47.54,55.19a.91.91,0,0,1-.88-.71L44,42.13a.9.9,0,0,1,.69-1.07.91.91,0,0,1,1.07.69L48.42,54.1a.89.89,0,0,1-.69,1.07Z"/></g></svg>