<svg xmlns="http://www.w3.org/2000/svg" viewBox="0 0 70 70"><defs><style>.cls-1{fill:#6add92;}</style></defs><title>03_Icons_amenities_v1</title><g id="Layer_69" data-name="Layer 69"><path class="cls-1" d="M34.85,30.5a1,1,0,1,1,0-2,5.8,5.8,0,1,0-5.8-5.8,1,1,0,0,1-2,0,7.8,7.8,0,1,1,7.8,7.8Z"/><path class="cls-1" d="M34.85,30.5H16.75a1,1,0,0,1,0-2h18.1a1,1,0,0,1,0,2Z"/><path class="cls-1" d="M38.45,55.1a7.81,7.81,0,0,1-7.8-7.8,1,1,0,0,1,2,0,5.8,5.8,0,1,0,5.8-5.8,1,1,0,0,1,0-2,7.8,7.8,0,0,1,0,15.6Z"/><path class="cls-1" d="M38.45,41.5H16.75a1,1,0,0,1,0-2h21.7a1,1,0,0,1,0,2Z"/><path class="cls-1" d="M52.35,36a1,1,0,1,1,0-2,4.3,4.3,0,1,0-4.3-4.3,1,1,0,1,1-2,0,6.3,6.3,0,1,1,12.6,0A6.4,6.4,0,0,1,52.35,36Z"/><path class="cls-1" d="M52.35,36h-40a1,1,0,0,1,0-2h40a.94.94,0,0,1,1,1A1,1,0,0,1,52.35,36Z"/></g></svg>