<svg xmlns="http://www.w3.org/2000/svg" viewBox="0 0 70 70"><defs><style>.cls-1{fill:#6dde94;}</style></defs><title>03_Icons_amenities_v1</title><g id="Layer_133" data-name="Layer 133"><path class="cls-1" d="M47.65,48.67H19.05V28.47h28.6Zm-26.6-2h24.6V30.47H21.05Z"/><path class="cls-1" d="M56.15,47l-10.5-4.7V35l10.5-4.7Zm-8.5-6,6.5,2.9V33.27l-6.5,2.9Z"/><path class="cls-1" d="M23.15,30.47a9.3,9.3,0,1,1,9.3-9.3A9.35,9.35,0,0,1,23.15,30.47Zm0-16.6a7.3,7.3,0,1,0,7.3,7.3A7.34,7.34,0,0,0,23.15,13.87Z"/><path class="cls-1" d="M43.55,30.47a9.3,9.3,0,1,1,9.3-9.3A9.35,9.35,0,0,1,43.55,30.47Zm0-16.6a7.3,7.3,0,1,0,7.3,7.3A7.34,7.34,0,0,0,43.55,13.87Z"/><rect class="cls-1" x="24.72" y="51.7" width="11.4" height="2" transform="translate(-30.43 52.36) rotate(-59.68)"/><rect class="cls-1" x="34.92" y="46.88" width="2" height="11.4" transform="translate(-21.64 25.35) rotate(-30.34)"/><rect class="cls-1" x="23.85" y="34.27" width="7.6" height="2"/></g></svg>