<svg xmlns="http://www.w3.org/2000/svg" viewBox="0 0 70 70"><defs><style>.cls-1{fill:#6add92;}</style></defs><title>03_Icons_amenities_v1</title><g id="Layer_73" data-name="Layer 73"><path class="cls-1" d="M35.24,20.54a6.1,6.1,0,1,1,6.1-6.1A6.19,6.19,0,0,1,35.24,20.54Zm0-10.2a4.1,4.1,0,1,0,4.1,4.1A4.12,4.12,0,0,0,35.24,10.34Z"/><path class="cls-1" d="M30.2,61.66a14.51,14.51,0,0,1-14.5-14.5,14.25,14.25,0,0,1,2.7-8.4,1.06,1.06,0,0,1,1.4-.2A1,1,0,0,1,20,40a12.34,12.34,0,0,0-2.3,7.2,12.5,12.5,0,0,0,25,0,12.38,12.38,0,0,0-12.5-12.5,12.19,12.19,0,0,0-3.2.4,1,1,0,1,1-.5-1.9,14.87,14.87,0,0,1,3.6-.5,14.5,14.5,0,0,1,.1,29Z"/><path class="cls-1" d="M25.2,41a3.19,3.19,0,0,1-1.4-.3,3.27,3.27,0,0,1-1.7-2.1l-.7-1.9-2.1-5.4A5.66,5.66,0,0,1,22.2,24l5.2-2.3a9.15,9.15,0,0,1,6.2-.3c5.4,2.1,5.5,8.5,5.5,8.7v6.1a1,1,0,0,1-2,0v-6.1c0-.2-.1-5.3-4.2-6.9a6.55,6.55,0,0,0-4.6.3l-5.1,2.3a3.72,3.72,0,0,0-1.9,4.7L24.2,38a1.29,1.29,0,0,0,.7.9,2.53,2.53,0,0,0,1.7-.2.82.82,0,0,0,.5-.5,3.28,3.28,0,0,0-.3-2l-1-2.2-1-2.5A2.65,2.65,0,0,1,26.1,28l1.6-.8a.92.92,0,0,1,1,.1,1,1,0,0,1,.5.8v5.5a1,1,0,0,1-.8,1l.3.6a5,5,0,0,1,.4,3.6,2.8,2.8,0,0,1-1.6,1.6A4.87,4.87,0,0,1,25.2,41Zm1.7-11.1-.2.1c-.5.2-.2.9-.2.9L27,32v-2.1Z"/><path class="cls-1" d="M50.9,57.56A4.78,4.78,0,0,1,46.7,55l-2.3-6.4h-.6a1,1,0,0,1,0-2h1.3a1,1,0,0,1,.9.7l2.4,6.9a2.64,2.64,0,0,0,3.4,1.2,1,1,0,0,0,.5-.4c.1-.2,0-.5-.2-.9l-4.7-11.5H42.6a1,1,0,1,1,0-2h5.5a.87.87,0,0,1,.9.6l4.9,12a3.45,3.45,0,0,1,.3,2.4,2.6,2.6,0,0,1-1.5,1.6A4.78,4.78,0,0,1,50.9,57.56Z"/><path class="cls-1" d="M30.2,61.66a14.51,14.51,0,0,1-14.5-14.5,15,15,0,0,1,6-11.8A1,1,0,0,1,22.9,37a12.28,12.28,0,0,0-5.2,10.1,12.5,12.5,0,1,0,12.5-12.5,10.55,10.55,0,0,0-3.1.4,1,1,0,0,1-.5-1.9,15,15,0,0,1,3.7-.5,14.51,14.51,0,0,1,14.5,14.5A14.75,14.75,0,0,1,30.2,61.66Z"/></g></svg>