<svg xmlns="http://www.w3.org/2000/svg" viewBox="0 0 70 70"><defs><style>.cls-1{fill:#6add92;}</style></defs><title>03_Icons_amenities_v1</title><g id="Layer_85" data-name="Layer 85"><path class="cls-1" d="M41.76,23.3A4.8,4.8,0,0,1,37,18.5a4.74,4.74,0,0,1,4.8-4.8,4.8,4.8,0,0,1,4.8,4.8A4.74,4.74,0,0,1,41.76,23.3Zm0-7.7A2.73,2.73,0,0,0,39,18.4a2.8,2.8,0,0,0,2.8,2.8,2.86,2.86,0,0,0,2.8-2.8A2.73,2.73,0,0,0,41.76,15.6Z"/><path class="cls-1" d="M19.6,56.3a9.9,9.9,0,0,1,0-19.8,9.9,9.9,0,0,1,0,19.8Zm0-17.9a7.9,7.9,0,1,0,7.9,7.9A7.85,7.85,0,0,0,19.6,38.4Z"/><path class="cls-1" d="M36,50.7H32.2a.94.94,0,0,1-1-1V40.6l-5.8-5.1a4.07,4.07,0,0,1-1.5-3.4,4.94,4.94,0,0,1,1.4-3.4l5.4-5.4a3.9,3.9,0,0,1,3.4-1.4,5.73,5.73,0,0,1,3.7,1.4L41.6,27a8.86,8.86,0,0,0,6.2,2.5,1.08,1.08,0,0,1,1,.8l.6,3.9a1.08,1.08,0,0,1-.2.8,1,1,0,0,1-.7.4c-5.4.4-8.3-1.5-11.1-4.4l-.8-.8-3.2,3.2,3.5,3.9a.91.91,0,0,1,.3.7V49.9A1.55,1.55,0,0,1,36,50.7Zm-2.8-2H35V38.2l-3.8-4.3a1.06,1.06,0,0,1,0-1.4l4.6-4.6a1,1,0,0,1,1.4,0l1.5,1.5c2.4,2.5,4.6,3.9,8.5,3.9l-.3-2a10.27,10.27,0,0,1-6.7-3.1l-3.7-3.6a3.78,3.78,0,0,0-2.4-.9,2.4,2.4,0,0,0-1.9.7l-5.5,5.5a2.66,2.66,0,0,0-.9,2,2.4,2.4,0,0,0,.7,1.9l6.2,5.4a1.14,1.14,0,0,1,.3.8v8.7Z"/><path class="cls-1" d="M50.4,56.3a9.9,9.9,0,1,1,9.9-9.9A9.74,9.74,0,0,1,50.4,56.3Zm0-17.8a7.9,7.9,0,1,0,7.9,7.9A7.85,7.85,0,0,0,50.4,38.5Z"/><path class="cls-1" d="M19.6,47.8a.91.91,0,0,1-.7-.3,1,1,0,0,1,0-1.4L28,37a1,1,0,0,1,1.4,1.4L20.3,47.5A.91.91,0,0,1,19.6,47.8Z"/><path class="cls-1" d="M50.4,47.4a1,1,0,0,1-1-.8L46.8,30.9a1,1,0,1,1,2-.4l2.6,15.7a1.1,1.1,0,0,1-.8,1.2Z"/></g></svg>