<svg height="496pt" viewBox="0 -12 496 496" width="496pt" xmlns="http://www.w3.org/2000/svg"><path d="m488 208h-56v-16c0-4.417969-3.582031-8-8-8h-352c-4.417969 0-8 3.582031-8 8v16h-56c-4.417969 0-8 3.582031-8 8v24c0 13.253906 10.746094 24 24 24h40v104c.066406 57.410156 46.589844 103.933594 104 104h160c57.410156-.066406 103.933594-46.589844 104-104v-104h40c13.253906 0 24-10.746094 24-24v-24c0-4.417969-3.582031-8-8-8zm-464 40c-4.417969 0-8-3.582031-8-8v-16h48v24zm392 120c-.058594 48.578125-39.421875 87.941406-88 88h-160c-48.578125-.058594-87.941406-39.421875-88-88v-168h336zm64-128c0 4.417969-3.582031 8-8 8h-40v-24h48zm0 0"/><path d="m208 384h-104c-4.417969 0-8 3.582031-8 8s3.582031 8 8 8h104c4.417969 0 8-3.582031 8-8s-3.582031-8-8-8zm0 0"/><path d="m248 384h-16c-4.417969 0-8 3.582031-8 8s3.582031 8 8 8h16c4.417969 0 8-3.582031 8-8s-3.582031-8-8-8zm0 0"/><path d="m88 168c0 4.417969 3.582031 8 8 8s8-3.582031 8-8c-.214844-8.054688 2.191406-15.964844 6.855469-22.535156 6.171875-9.058594 9.367187-19.816406 9.144531-30.777344.222656-10.960938-2.972656-21.71875-9.144531-30.785156-4.664063-6.578125-7.070313-14.496094-6.855469-22.558594-.214844-8.0625 2.191406-15.976562 6.855469-22.550781 6.171875-9.066407 9.367187-19.828125 9.144531-30.792969 0-4.417969-3.582031-8-8-8s-8 3.582031-8 8c.214844 8.0625-2.191406 15.976562-6.855469 22.550781-6.171875 9.066407-9.367187 19.828125-9.144531 30.792969-.222656 10.964844 2.972656 21.726562 9.144531 30.792969 4.664063 6.578125 7.070313 14.488281 6.855469 22.550781.214844 8.058594-2.191406 15.964844-6.855469 22.535156-6.171875 9.0625-9.367187 19.816406-9.144531 30.777344zm0 0"/><path d="m152 168c0 4.417969 3.582031 8 8 8s8-3.582031 8-8c-.214844-8.054688 2.191406-15.964844 6.855469-22.535156 6.171875-9.058594 9.367187-19.816406 9.144531-30.777344.222656-10.960938-2.972656-21.71875-9.144531-30.785156-4.664063-6.578125-7.070313-14.496094-6.855469-22.558594-.214844-8.0625 2.191406-15.976562 6.855469-22.550781 6.171875-9.066407 9.367187-19.828125 9.144531-30.792969 0-4.417969-3.582031-8-8-8s-8 3.582031-8 8c.214844 8.0625-2.191406 15.976562-6.855469 22.550781-6.171875 9.066407-9.367187 19.828125-9.144531 30.792969-.222656 10.964844 2.972656 21.726562 9.144531 30.792969 4.664063 6.578125 7.070313 14.488281 6.855469 22.550781.214844 8.058594-2.191406 15.964844-6.855469 22.535156-6.171875 9.0625-9.367187 19.816406-9.144531 30.777344zm0 0"/><path d="m216 168c0 4.417969 3.582031 8 8 8s8-3.582031 8-8c-.214844-8.054688 2.191406-15.964844 6.855469-22.535156 6.171875-9.058594 9.367187-19.816406 9.144531-30.777344.222656-10.960938-2.972656-21.71875-9.144531-30.785156-4.664063-6.578125-7.070313-14.496094-6.855469-22.558594-.214844-8.0625 2.191406-15.976562 6.855469-22.550781 6.171875-9.066407 9.367187-19.828125 9.144531-30.792969 0-4.417969-3.582031-8-8-8s-8 3.582031-8 8c.214844 8.0625-2.191406 15.976562-6.855469 22.550781-6.171875 9.066407-9.367187 19.828125-9.144531 30.792969-.222656 10.964844 2.972656 21.726562 9.144531 30.792969 4.664063 6.578125 7.070313 14.488281 6.855469 22.550781.214844 8.058594-2.191406 15.964844-6.855469 22.535156-6.171875 9.0625-9.367187 19.816406-9.144531 30.777344zm0 0"/><path d="m304 168c17.671875 0 32-14.328125 32-32s-14.328125-32-32-32-32 14.328125-32 32 14.328125 32 32 32zm0-48c8.835938 0 16 7.164062 16 16s-7.164062 16-16 16-16-7.164062-16-16 7.164062-16 16-16zm0 0"/><path d="m368 104c13.253906 0 24-10.746094 24-24s-10.746094-24-24-24-24 10.746094-24 24 10.746094 24 24 24zm0-32c4.417969 0 8 3.582031 8 8s-3.582031 8-8 8-8-3.582031-8-8 3.582031-8 8-8zm0 0"/></svg>