<svg height="512pt" viewBox="0 0 512 512" width="512pt" xmlns="http://www.w3.org/2000/svg"><path d="m87.671875 301.589844h22.542969v195.378906h-62.621094v15.03125h77.652344v-225.441406h-37.574219zm0 0"/><path d="m15.03125 301.589844h57.609375v-15.03125h-72.640625v225.441406h32.5625v-15.03125h-17.53125zm0 0"/><path d="m348.679688 496.96875h-185.359376v-42.582031h-15.03125v57.613281h215.421876v-157.808594h-15.03125zm0 0"/><path d="m185.863281 290.566406h15.027344v15.03125h-15.027344zm0 0"/><path d="m30.058594 356.195312c0 17.957032 14.609375 32.5625 32.5625 32.5625 17.957031 0 32.566406-14.605468 32.566406-32.5625 0-17.953124-14.609375-32.5625-32.566406-32.5625-17.953125 0-32.5625 14.609376-32.5625 32.5625zm50.097656 0c0 9.667969-7.867188 17.535157-17.535156 17.535157-9.667969 0-17.53125-7.867188-17.53125-17.535157 0-9.667968 7.863281-17.535156 17.53125-17.535156 9.667968 0 17.535156 7.867188 17.535156 17.535156zm0 0"/><path d="m95.1875 442.363281c0-17.953125-14.609375-32.5625-32.566406-32.5625-17.953125 0-32.5625 14.609375-32.5625 32.5625 0 17.957031 14.609375 32.5625 32.5625 32.5625 17.957031 0 32.566406-14.605469 32.566406-32.5625zm-50.097656 0c0-9.667969 7.863281-17.535156 17.53125-17.535156 9.667968 0 17.535156 7.867187 17.535156 17.535156s-7.867188 17.535157-17.535156 17.535157c-9.667969 0-17.53125-7.867188-17.53125-17.535157zm0 0"/><path d="m481.941406 442.363281c0-17.953125-14.609375-32.5625-32.5625-32.5625-17.957031 0-32.566406 14.609375-32.566406 32.5625 0 17.957031 14.609375 32.5625 32.566406 32.5625 17.953125 0 32.5625-14.605469 32.5625-32.5625zm-50.097656 0c0-9.667969 7.867188-17.535156 17.535156-17.535156 9.667969 0 17.53125 7.867187 17.53125 17.535156s-7.863281 17.535157-17.53125 17.535157c-9.667968 0-17.535156-7.867188-17.535156-17.535157zm0 0"/><path d="m401.785156 301.589844h57.613282v-15.03125h-72.644532v225.441406h32.566406v-15.03125h-17.535156zm0 0"/><path d="m474.425781 286.558594v15.03125h22.542969v195.378906h-62.621094v15.03125h77.652344v-225.441406zm0 0"/><path d="m416.8125 361.207031c0 17.953125 14.609375 32.5625 32.566406 32.5625 17.953125 0 32.5625-14.609375 32.5625-32.5625 0-17.957031-14.609375-32.566406-32.5625-32.566406-17.957031 0-32.566406 14.609375-32.566406 32.566406zm50.097656 0c0 9.667969-7.863281 17.53125-17.53125 17.53125-9.667968 0-17.535156-7.863281-17.535156-17.53125s7.867188-17.535156 17.535156-17.535156c9.667969 0 17.53125 7.867187 17.53125 17.535156zm0 0"/><path d="m186.363281 188.476562v21.433594h15.03125v-26.664062l-55.433593-69.976563 20.34375-16.648437 17.765624 21.585937c5.25 6.382813 13.003907 10.042969 21.273438 10.042969h27.28125c6.714844 4.429688 14.746094 7.015625 23.375 7.015625s16.660156-2.585937 23.375-7.015625h27.28125c8.269531 0 16.023438-3.660156 21.273438-10.042969l17.765624-21.582031 20.34375 16.644531-55.433593 69.976563v26.664062h15.03125v-21.433594l114.328125-144.324218c3.875-4.894532 5.921875-10.710938 5.921875-16.824219 0-15.066406-12.234375-27.328125-27.273438-27.328125-8.171875 0-15.839843 3.617188-21.035156 9.929688l-30.617187 37.203124 11.605468 9.550782 30.617188-37.203125c2.328125-2.828125 5.765625-4.449219 9.429687-4.449219 7.664063 0 12.246094 6.253906 12.246094 12.300781 0 2.6875-.925781 5.277344-2.675781 7.488281l-52.808594 66.664063-20.128906-16.464844 13.769531-16.734375-11.605469-9.550781-41.082031 49.921875c-2.390625 2.902344-5.914063 4.566406-9.671875 4.566406h-13.371094c3.371094-6.097656 5.296875-13.097656 5.296875-20.542968v-30.058594c0-23.480469-19.101562-42.582032-42.582031-42.582032s-42.582031 19.101563-42.582031 42.582032v30.058594c0 7.445312 1.925781 14.445312 5.296875 20.542968h-13.371094c-3.757812 0-7.285156-1.664062-9.671875-4.566406l-81.253906-98.726562c-5.191407-6.3125-12.859375-9.929688-21.03125-9.929688-10.535157 0-19.929688 5.894531-24.519531 15.378906-4.589844 9.488282-3.375 20.511719 3.167968 28.773438zm69.636719-153.40625c15.191406 0 27.554688 12.359376 27.554688 27.550782v5.070312l-15.203126-12.582031h-38.855468c3.28125-11.550781 13.917968-20.039063 26.503906-20.039063zm-27.554688 35.066407h34.492188l20.617188 17.0625v5.480469c0 15.195312-12.363282 27.554687-27.554688 27.554687s-27.554688-12.359375-27.554688-27.554687zm-146.046874-48.214844c2.085937-4.316406 6.195312-6.890625 10.988281-6.890625 3.664062 0 7.101562 1.621094 9.429687 4.449219l53.9375 65.539062-20.128906 16.464844-52.808594-66.664063c-2.976562-3.757812-3.507812-8.582031-1.417968-12.898437zm0 0"/><path d="m348.679688 226.441406h-115.222657v30.058594h-15.03125v-30.058594h-55.105469v30.058594h-15.03125v182.859375h15.03125v-167.828125h185.359376v19.035156h-132.757813v15.03125h132.757813v33.566406h15.03125v-82.664062h-15.03125zm-145.28125 30.058594h-25.050782v-15.027344h25.050782zm130.253906 0h-85.167969v-15.027344h85.167969zm0 0"/><path d="m431.84375 141.277344h15.027344v15.027344h-15.027344zm0 0"/><path d="m431.84375 191.375h15.027344v15.027344h-15.027344zm0 0"/><path d="m406.792969 166.324219h15.03125v15.03125h-15.03125zm0 0"/><path d="m456.890625 166.324219h15.03125v15.03125h-15.03125zm0 0"/><path d="m67.953125 207.96875c-5.605469 2.207031-10.011719 6.464844-12.414063 11.984375-2.398437 5.523437-2.507812 11.648437-.300781 17.253906 2.207031 5.601563 6.464844 10.007813 11.984375 12.410157 2.882813 1.253906 5.933594 1.882812 8.984375 1.882812 2.792969 0 5.589844-.527344 8.269531-1.582031 11.5625-4.554688 17.269532-17.671875 12.714844-29.238281l-5.800781-14.714844-15.933594-40.457032 25.753907 1.667969.972656-14.996093-49.390625-3.199219 22.148437 56.234375zm12.5 11.226562 2.753906 6.992188c1.519531 3.855469-.382812 8.230469-4.238281 9.746094-1.867188.738281-3.910156.703125-5.75-.097656-1.839844-.800782-3.261719-2.273438-3.996094-4.136719-.734375-1.871094-.699218-3.910157.101563-5.753907.800781-1.839843 2.269531-3.257812 4.136719-3.992187zm0 0"/><path d="m293.574219 201.394531h-15.03125v-15.03125h15.03125zm-30.058594 0h-15.03125v-15.03125h15.03125zm-30.058594 0h-15.03125v-15.03125h15.03125zm0 0"/><path d="m333.652344 459.398438h-15.03125v-15.03125h15.03125zm0-30.058594h-15.03125v-15.03125h15.03125zm0-30.058594h-15.03125v-50.097656h15.03125zm0 0"/></svg>