<svg id="Capa_1" enable-background="new 0 0 512 512" height="512" viewBox="0 0 512 512" width="512" xmlns="http://www.w3.org/2000/svg"><g><path d="m478.196 117.871-25.844-8.731-8.731-25.842c-1.422-4.212-5.366-7.043-9.813-7.044-4.445 0-8.391 2.83-9.814 7.042l-8.731 25.843-25.843 8.731c-4.213 1.423-7.043 5.367-7.043 9.813s2.83 8.391 7.043 9.813l25.843 8.731 8.731 25.845c1.424 4.212 5.369 7.042 9.814 7.042 4.446 0 8.391-2.832 9.813-7.042l8.731-25.844 25.845-8.731c4.212-1.423 7.042-5.367 7.042-9.813s-2.83-8.39-7.043-9.813zm-32.823 14.883c-3.041 1.029-5.47 3.458-6.496 6.498l-5.069 15.004-5.068-15.002c-1.027-3.041-3.456-5.471-6.499-6.5l-15.004-5.069 15.002-5.069c3.043-1.027 5.474-3.457 6.5-6.498l5.069-15.004 5.068 15.002c1.027 3.043 3.458 5.473 6.501 6.5l15.003 5.069z"/><path d="m122.58 450.755-25.843-8.731-8.731-25.845c-1.424-4.212-5.369-7.042-9.814-7.042-4.446 0-8.391 2.832-9.813 7.043l-8.731 25.843-25.845 8.731c-4.212 1.423-7.042 5.367-7.042 9.813s2.83 8.39 7.043 9.813l25.844 8.731 8.731 25.842c1.422 4.212 5.366 7.043 9.813 7.044 4.445 0 8.391-2.83 9.814-7.043l8.731-25.843 25.843-8.731c4.213-1.423 7.043-5.367 7.043-9.813s-2.83-8.389-7.043-9.812zm-32.818 14.883c-3.043 1.027-5.473 3.457-6.5 6.499l-5.069 15.004-5.069-15.004c-1.027-3.042-3.457-5.472-6.498-6.499l-15.005-5.069 15.003-5.069c3.043-1.027 5.474-3.457 6.5-6.499l5.069-15.004 5.068 15.003c1.027 3.043 3.458 5.473 6.501 6.5l15.002 5.069z"/><path d="m433.808 382.431c-4.143 0-7.5 3.358-7.5 7.5v13.926c0 4.142 3.357 7.5 7.5 7.5s7.5-3.358 7.5-7.5v-13.926c0-4.142-3.358-7.5-7.5-7.5z"/><path d="m433.808 432.542c-4.143 0-7.5 3.358-7.5 7.5v13.926c0 4.142 3.357 7.5 7.5 7.5s7.5-3.358 7.5-7.5v-13.926c0-4.142-3.358-7.5-7.5-7.5z"/><path d="m465.826 414.45h-13.926c-4.143 0-7.5 3.358-7.5 7.5s3.357 7.5 7.5 7.5h13.926c4.143 0 7.5-3.358 7.5-7.5s-3.357-7.5-7.5-7.5z"/><path d="m415.715 414.45h-13.926c-4.143 0-7.5 3.358-7.5 7.5s3.357 7.5 7.5 7.5h13.926c4.143 0 7.5-3.358 7.5-7.5s-3.358-7.5-7.5-7.5z"/><path d="m110.211 96.083c4.143 0 7.5-3.358 7.5-7.5v-13.926c0-4.142-3.357-7.5-7.5-7.5s-7.5 3.358-7.5 7.5v13.926c0 4.142 3.357 7.5 7.5 7.5z"/><path d="m110.211 146.195c4.143 0 7.5-3.358 7.5-7.5v-13.926c0-4.142-3.357-7.5-7.5-7.5s-7.5 3.358-7.5 7.5v13.926c0 4.142 3.357 7.5 7.5 7.5z"/><path d="m128.304 114.176h13.926c4.143 0 7.5-3.358 7.5-7.5s-3.357-7.5-7.5-7.5h-13.926c-4.143 0-7.5 3.358-7.5 7.5s3.357 7.5 7.5 7.5z"/><path d="m78.192 114.176h13.926c4.143 0 7.5-3.358 7.5-7.5s-3.357-7.5-7.5-7.5h-13.926c-4.143 0-7.5 3.358-7.5 7.5s3.358 7.5 7.5 7.5z"/><path d="m396.859 374.626c3.422-5.988 6.496-12.199 9.152-18.633 1.58-3.829-.242-8.213-4.07-9.794-3.832-1.58-8.214.242-9.795 4.071-1.915 4.639-4.064 9.128-6.395 13.482h-26.951c5.711-19.508 8.968-40.542 9.582-62.122h34.65c-.276 5.472-.845 10.927-1.716 16.293-.664 4.089 2.112 7.941 6.201 8.605.407.066.812.098 1.211.098 3.613 0 6.797-2.618 7.395-6.299 1.397-8.609 2.106-17.423 2.106-26.197 0-29.056-7.685-56.348-21.119-79.962-.256-.626-.596-1.207-1.003-1.735-20.599-35.192-54.071-61.965-93.909-73.821-.361-.136-.727-.249-1.098-.327-7.312-2.119-14.835-3.731-22.529-4.807v-24.188c0-5.575-4.535-10.11-10.11-10.11h-4.96v-51.949h31.296c6.313 0 11.872-4.477 13.218-10.645l4.71-21.586h19.55c4.143 0 7.5-3.358 7.5-7.5s-3.357-7.5-7.5-7.5h-152.55c-4.143 0-7.5 3.358-7.5 7.5s3.357 7.5 7.5 7.5h19.55l4.711 21.586c1.346 6.168 6.905 10.645 13.218 10.645h31.296v51.949h-4.96c-5.575 0-10.11 4.535-10.11 10.11v24.153c-28.483 3.919-55.132 15.276-78.063 33.433-3.247 2.571-3.795 7.289-1.224 10.536 2.571 3.248 7.288 3.795 10.536 1.224 4.943-3.914 10.076-7.479 15.377-10.69-7.18 9.951-13.526 21.32-18.839 33.912-1.058 2.508-2.055 5.064-3.021 7.643h-22.692c1.711-2.424 3.497-4.809 5.365-7.149 2.584-3.237 2.055-7.956-1.183-10.54-3.238-2.585-7.957-2.054-10.54 1.183-23.143 28.991-35.375 63.963-35.375 101.135 0 29.054 7.684 56.344 21.117 79.957.255.625.596 1.204 1.001 1.732 20.569 35.141 53.974 61.889 93.737 73.771.387.156.794.271 1.211.361 14.343 4.163 29.495 6.403 45.162 6.403 32.753 0 64.315-9.715 91.276-28.096 20.32-13.853 37.039-31.924 49.188-52.941.145-.222.276-.453.396-.691zm-182.231-359.626h82.745l-3.761 17.231h-75.223zm128.475 348.751h-47.467c1.925-19.118 3.055-40.103 3.266-62.122h54.47c-.669 21.95-4.249 43.051-10.269 62.122zm-46.899 72.041c-5.219 1.471-10.542 2.66-15.953 3.554 5.762-14.786 10.427-35.703 13.656-60.595h43.796c-9.957 24.399-24.205 44.405-41.499 57.041zm-80.445-.028c-17.277-12.638-31.512-32.632-41.462-57.013h43.796c3.229 24.891 7.894 45.808 13.656 60.594-5.435-.904-10.773-2.096-15.99-3.581zm-46.862-72.013c-6.02-19.071-9.6-40.173-10.269-62.122h54.47c.21 22.019 1.341 43.004 3.266 62.122zm-59.936-62.121h34.658c.614 21.58 3.87 42.614 9.582 62.122h-26.895c-10.064-18.67-16.217-39.744-17.345-62.122zm112.919-52.462c.188.014.374.021.559.021 3.892 0 7.182-3.006 7.472-6.949.449-6.088.975-12.006 1.57-17.738h48.994c1.997 19.169 3.2 40.287 3.426 62.128h-55.798c.033-3.267.081-6.532.155-9.769.096-4.141-3.185-7.575-7.325-7.67-4.169-.096-7.575 3.185-7.671 7.326-.077 3.351-.126 6.731-.159 10.114h-54.475c.668-21.954 4.249-43.057 10.269-62.128h47.506c-.545 5.391-1.031 10.937-1.451 16.636-.306 4.129 2.796 7.725 6.928 8.029zm34.12-102.268c2.367 0 4.72.062 7.061.173 6.511 12.512 11.947 34.795 15.638 62.429h-45.446c3.736-27.958 9.239-50.05 15.693-62.432 2.341-.11 4.692-.17 7.054-.17zm40.209 5.581c17.292 12.63 31.537 32.627 41.494 57.02h-43.796c-3.228-24.888-7.892-45.804-13.652-60.592 5.422.903 10.748 2.092 15.954 3.572zm106.83 134.149h-34.658c-.614-21.586-3.87-42.622-9.58-62.128h26.892c10.064 18.67 16.218 39.747 17.346 62.128zm-49.667 0h-54.47c-.21-22.021-1.341-43.009-3.266-62.128h47.468c6.02 19.071 9.599 40.174 10.268 62.128zm-125.272 15h55.8c-.226 21.839-1.429 42.955-3.426 62.122h-48.949c-1.996-19.168-3.199-40.283-3.425-62.122zm148.307-92.129h-22.603c-.967-2.579-1.963-5.135-3.021-7.643-5.283-12.52-11.586-23.832-18.715-33.742 17.483 10.593 32.593 24.722 44.339 41.385zm-127.977-95.321h15.141v17.902c-2.51-.116-5.032-.182-7.57-.182-2.534 0-5.057.062-7.57.176v-17.896zm-32.485 38.187c5.19-1.458 10.471-2.628 15.828-3.506-5.695 14.643-10.38 35.471-13.646 60.64h-43.83c9.987-24.465 24.286-44.511 41.648-57.134zm-62.746 72.134c-5.711 19.507-8.967 40.543-9.581 62.128h-34.655c1.084-22.016 6.947-43.051 17.245-62.128zm-17.608 154.25h22.607c.963 2.57 1.956 5.118 3.01 7.617 5.285 12.53 11.59 23.85 18.722 33.768-17.483-10.592-32.593-24.721-44.339-41.385zm113.354 62.431c-6.514-12.506-11.951-34.791-15.644-62.43h45.397c-3.691 27.629-9.126 49.907-15.636 62.416-2.344.111-4.696.187-7.063.187-2.364-.001-4.716-.063-7.054-.173zm82.95-20.804c7.204-9.976 13.569-21.378 18.897-34.01 1.054-2.499 2.047-5.047 3.01-7.617h22.746c-11.908 17.012-27.163 31.126-44.653 41.627z"/></g></svg>