<svg height="512pt" viewBox="0 0 512 512" width="512pt" xmlns="http://www.w3.org/2000/svg"><path d="m210.011719 464.863281c-3.191407-2.640625-7.917969-2.199219-10.558594.992188l-28.039063 33.863281c-2.640624 3.1875-2.195312 7.917969.996094 10.558594 1.398438 1.160156 3.09375 1.722656 4.777344 1.722656 2.15625 0 4.300781-.925781 5.78125-2.71875l28.035156-33.859375c2.644532-3.1875 2.199219-7.917969-.992187-10.558594zm0 0"/><path d="m92.871094 200.578125 9.863281-11.917969 6.761719 6.195313c1.4375 1.320312 3.253906 1.972656 5.066406 1.972656 2.027344 0 4.050781-.816406 5.53125-2.433594 2.796875-3.050781 2.589844-7.796875-.460938-10.59375l-7.320312-6.710937 9.148438-11.050782 18.625 14.113282c1.351562 1.027344 2.945312 1.523437 4.523437 1.523437 2.265625 0 4.507813-1.023437 5.980469-2.96875 2.503906-3.300781 1.855468-8.007812-1.445313-10.507812l-18.109375-13.726563 5.324219-6.429687 54.265625 34.800781c1.253906.800781 2.65625 1.1875 4.042969 1.1875 2.46875 0 4.886719-1.21875 6.320312-3.453125 2.234375-3.488281 1.222657-8.128906-2.265625-10.363281l-52.726562-33.8125 1.617187-1.953125c3.109375-3.757813 1.742188-9.625-2.699219-11.625l-27.894531-12.554688-38.355469-31.625v-55.992187c0-12.492188-10.160156-22.652344-22.652343-22.652344-12.492188 0-22.652344 10.160156-22.652344 22.652344v51.941406c-.457031.480469-27.039063 32.675781-27.039063 32.675781-9.71875 11.785157-8.039062 29.277344 3.742188 38.996094l45.734375 37.714844 15.636719 26.703125c2.410156 4.117187 8.222656 4.929687 11.667968 1.617187l57.058594 68.910157-136.722656 87.675781c-3.171875 2.035156-4.351562 6.253906-2.675781 9.632812 1.953125 3.953125 7.054687 5.378907 10.773437 2.992188l138.261719-88.660157 96.457031 116.496094-24.304687 29.472656c-2.390625 2.902344-2.230469 7.269532.386719 9.976563 3.070312 3.179687 8.375 2.976563 11.1875-.433594l22.472656-27.25 73.007812 88.167969c2.746094 3.320312 7.882813 3.605469 10.984375.613281 2.789063-2.683593 3.035157-7.199219.566407-10.175781zm-44.511719-177.925781c0-4.21875 3.433594-7.652344 7.652344-7.652344s7.652343 3.433594 7.652343 7.652344v84.855468c0 4.21875-3.433593 7.648438-7.652343 7.648438s-7.652344-3.429688-7.652344-7.648438zm-33.3125 103.457031c-.324219-3.375.6875-6.679687 2.847656-9.300781l15.464844-18.761719v9.460937c0 12.488282 10.160156 22.652344 22.652344 22.652344 12.488281 0 22.652343-10.164062 22.652343-22.652344v-9.421874l23.792969 19.617187-41.875 50.78125-40.976562-33.789063c-2.617188-2.160156-4.234375-5.210937-4.558594-8.585937zm55.667969 53.660156 44.441406-53.886719 14.628906 6.582032-50.820312 61.390625zm0 0"/><path d="m508.535156 368.886719-136.722656-87.675781 57.058594-68.910157c3.445312 3.3125 9.253906 2.5 11.664062-1.617187l15.636719-26.703125 45.734375-37.714844c5.710938-4.707031 9.246094-11.359375 9.953125-18.722656.703125-7.363281-1.5-14.566407-6.207031-20.273438 0 0-26.585938-32.199219-27.042969-32.675781v-51.941406c.003906-12.492188-10.160156-22.652344-22.648437-22.652344-12.492188 0-22.65625 10.160156-22.65625 22.652344v55.992187l-38.355469 31.628907-27.894531 12.554687c-3.027344 1.363281-4.832032 4.664063-4.335938 7.949219.34375 2.308594 1.835938 3.910156 3.257812 5.625l-109.992187 70.535156-27.832031-17.851562c-3.488282-2.234376-8.125-1.21875-10.363282 2.265624-2.234374 3.488282-1.222656 8.125 2.265626 10.363282l280.382812 179.796875c3.714844 2.382812 8.816406.957031 10.773438-2.992188 1.671874-3.378906.496093-7.601562-2.675782-9.632812zm-60.230468-346.234375c0-4.21875 3.433593-7.652344 7.65625-7.652344 4.21875 0 7.652343 3.433594 7.652343 7.652344v84.855468c0 4.21875-3.433593 7.648438-7.652343 7.648438s-7.65625-3.429688-7.65625-7.648438zm-15 75.433594v9.421874c0 12.488282 10.164062 22.648438 22.65625 22.648438 12.488281 0 22.652343-10.160156 22.652343-22.648438v-9.460937l15.464844 18.765625c2.160156 2.617188 3.171875 5.917969 2.847656 9.296875-.324219 3.375-1.941406 6.425781-4.5625 8.582031l-40.972656 33.789063-41.875-50.777344zm-36.492188 27.796874 44.441406 53.886719-8.246094 14.085938-50.820312-61.390625zm-21.203125 22.160157 5.324219 6.433593-18.109375 13.722657c-3 2.277343-3.847657 6.578125-1.914063 9.816406 2.261719 3.785156 7.457032 4.804687 10.976563 2.140625l18.621093-14.117188 9.148438 11.054688-7.316406 6.707031c-2.773438 2.542969-3.21875 6.890625-1.003906 9.933594 2.597656 3.570313 7.878906 4.113281 11.136718 1.125l6.761719-6.199219 9.863281 11.917969-60.007812 72.476563-89.210938-57.207032zm0 0"/><path d="m465.089844 251.378906c4.140625 0 7.5-3.359375 7.5-7.5v-6.0625c0-4.140625-3.359375-7.5-7.5-7.5s-7.5 3.359375-7.5 7.5v6.0625c0 4.140625 3.355468 7.5 7.5 7.5zm0 0"/><path d="m483.273438 263.5c4.140624 0 7.5-3.359375 7.5-7.5s-3.359376-7.5-7.5-7.5h-6.0625c-4.140626 0-7.5 3.359375-7.5 7.5s3.359374 7.5 7.5 7.5zm0 0"/><path d="m465.089844 281.683594c4.140625 0 7.5-3.359375 7.5-7.5v-6.0625c0-4.140625-3.359375-7.5-7.5-7.5s-7.5 3.359375-7.5 7.5v6.0625c0 4.140625 3.355468 7.5 7.5 7.5zm0 0"/><path d="m446.90625 248.5c-4.140625 0-7.5 3.359375-7.5 7.5s3.359375 7.5 7.5 7.5h6.0625c4.140625 0 7.5-3.359375 7.5-7.5s-3.359375-7.5-7.5-7.5zm0 0"/><path d="m46.882812 230.316406c-4.144531 0-7.5 3.359375-7.5 7.5v6.0625c0 4.140625 3.355469 7.5 7.5 7.5 4.140626 0 7.5-3.359375 7.5-7.5v-6.0625c0-4.140625-3.359374-7.5-7.5-7.5zm0 0"/><path d="m28.699219 248.5c-4.144531 0-7.5 3.359375-7.5 7.5s3.355469 7.5 7.5 7.5h6.058593c4.144532 0 7.5-3.359375 7.5-7.5s-3.355468-7.5-7.5-7.5zm0 0"/><path d="m46.882812 260.621094c-4.144531 0-7.5 3.359375-7.5 7.5v6.0625c0 4.140625 3.355469 7.5 7.5 7.5 4.140626 0 7.5-3.359375 7.5-7.5v-6.0625c0-4.140625-3.359374-7.5-7.5-7.5zm0 0"/><path d="m65.0625 263.5c4.144531 0 7.5-3.359375 7.5-7.5s-3.355469-7.5-7.5-7.5h-6.058594c-4.140625 0-7.5 3.359375-7.5 7.5s3.359375 7.5 7.5 7.5zm0 0"/><path d="m256.996094 89.753906c4.140625 0 7.5-3.359375 7.5-7.5v-6.0625c0-4.140625-3.359375-7.5-7.5-7.5-4.144532 0-7.5 3.359375-7.5 7.5v6.0625c0 4.140625 3.355468 7.5 7.5 7.5zm0 0"/><path d="m261.617188 94.375c0 4.140625 3.359374 7.5 7.5 7.5h6.0625c4.140624 0 7.5-3.359375 7.5-7.5 0-4.144531-3.359376-7.5-7.5-7.5h-6.0625c-4.140626 0-7.5 3.355469-7.5 7.5zm0 0"/><path d="m256.996094 98.996094c-4.144532 0-7.5 3.359375-7.5 7.5v6.0625c0 4.140625 3.355468 7.5 7.5 7.5 4.140625 0 7.5-3.359375 7.5-7.5v-6.0625c0-4.140625-3.359375-7.5-7.5-7.5zm0 0"/><path d="m238.8125 101.875h6.0625c4.140625 0 7.5-3.359375 7.5-7.5 0-4.144531-3.359375-7.5-7.5-7.5h-6.0625c-4.140625 0-7.5 3.355469-7.5 7.5 0 4.140625 3.359375 7.5 7.5 7.5zm0 0"/></svg>