<svg id="Capa_1" enable-background="new 0 0 512 512" height="512" viewBox="0 0 512 512" width="512" xmlns="http://www.w3.org/2000/svg"><g><path d="m375.582 184.763c-7.937-9.401-18.737-14.168-32.101-14.168h-4.508v-79.401c0-4.15-3.363-7.515-7.513-7.515s-7.513 3.364-7.513 7.515v79.401h-31.528v-139.797c0-8.695 7.072-15.768 15.764-15.768 8.693 0 15.764 7.073 15.764 15.768v30.337c0 4.15 3.363 7.515 7.513 7.515s7.513-3.365 7.513-7.515v-30.337c0-16.982-13.812-30.798-30.79-30.798-16.977 0-30.79 13.816-30.79 30.798v90.831c-4.615-2.763-10.006-4.356-15.764-4.356-13.276 0-24.615 8.448-28.93 20.252-4.997-3.503-11.072-5.567-17.623-5.567-5.758 0-11.15 1.593-15.764 4.356v-47.335c0-16.982-13.813-30.797-30.79-30.797s-30.79 13.816-30.79 30.797v132.441c0 4.15 3.363 7.515 7.513 7.515s7.513-3.364 7.513-7.515v-132.441c0-8.695 7.072-15.768 15.764-15.768 8.693 0 15.764 7.073 15.764 15.768v72.953c0 .093.011.184.014.276-.003.183-.014.364-.014.548v69.083c0 16.982 13.813 30.798 30.79 30.798 6.514 0 12.558-2.04 17.539-5.506 4.245 11.933 15.646 20.501 29.014 20.501 16.977 0 30.79-13.816 30.79-30.797v-11.843l31.652 6.763-3.505 13.453c-13.476 4.575-54.128 21.996-73.986 70.511-1.469 3.59.121 7.839 3.595 9.57 3.862 1.925 8.677.113 10.31-3.876 20.546-50.194 67.675-62.848 68.13-62.966 2.66-.67 4.742-2.737 5.434-5.392l6.438-24.711c1.098-4.228-1.178-8.703-5.614-9.651l-53.292-11.386c-11.898-2.543-20.535-13.641-20.535-26.39 0-2.919 2.161-5.294 4.817-5.294h77.618c8.856 0 15.601 2.89 20.621 8.835 19.136 22.666 11.484 83.395 4.063 127.102-4.981 29.341-24.111 55.356-35.071 68.251-5.898 6.939-9.146 15.799-9.146 24.948v20.964c0 4.15 3.363 7.515 7.513 7.515s7.513-3.365 7.513-7.515v-20.964c0-5.586 1.977-10.989 5.567-15.213 11.959-14.071 32.855-42.585 38.439-75.469 8.591-50.606 15.515-112.175-7.398-139.314zm-160.506 62.844c-8.693 0-15.764-7.073-15.764-15.768v-69.083c0-8.695 7.072-15.768 15.764-15.768s15.763 7.073 15.763 15.768v69.083c.001 8.695-7.071 15.768-15.763 15.768zm30.945-56.689c0 19.422 13.132 36.414 31.373 40.838v15.079c0 8.694-7.072 15.768-15.764 15.768-8.693 0-15.764-7.073-15.764-15.768v-98.765c0-8.694 7.072-15.768 15.764-15.768 8.693 0 15.764 7.073 15.764 15.768v22.525h-11.53c-10.942 0-19.843 9.117-19.843 20.323z"/><path d="m331.46 458.269c-4.15 0-7.513 3.365-7.513 7.515v31.187h-129.145v-81.961c0-12.645-4.498-24.972-12.665-34.71-28.946-34.516-29.378-86.459-29.379-86.979v-41.841c0-4.15-3.363-7.515-7.513-7.515s-7.513 3.365-7.513 7.515v41.848c0 2.344.374 57.855 32.893 96.632 5.902 7.036 9.151 15.933 9.151 25.051v89.476c0 4.15 3.363 7.515 7.513 7.515h144.171c4.15 0 7.513-3.365 7.513-7.515v-38.701c0-4.152-3.363-7.517-7.513-7.517z"/><path d="m125.732 397.616-24.47-5.504c-.787-.177-1.475-.677-1.888-1.372l-12.794-21.576h.001c-3.27-5.514-9.048-8.806-15.457-8.806-.001 0-.001 0-.001 0-6.409 0-12.188 3.292-15.458 8.806l-12.796 21.576c-.412.694-1.1 1.194-1.887 1.371l-24.469 5.504c-6.253 1.406-11.168 5.887-13.149 11.983-1.981 6.097-.637 12.612 3.596 17.426l16.56 18.838c.534.607.797 1.417.722 2.221l-2.328 24.977c-.595 6.383 2.145 12.444 7.331 16.212 5.115 3.717 11.873 4.47 17.681 1.964l23.031-9.934c.741-.32 1.592-.32 2.332 0l23.031 9.934c5.884 2.538 12.494 1.804 17.68-1.964s7.927-9.829 7.332-16.213l-2.328-24.979c-.075-.803.188-1.612.72-2.218l16.561-18.838c4.233-4.814 5.577-11.328 3.597-17.426-1.981-6.096-6.897-10.576-13.15-11.982zm-1.731 19.484-16.563 18.839c-3.253 3.701-4.855 8.637-4.397 13.54l2.328 24.977c.205 2.198-2.064 3.859-4.101 2.98l-23.03-9.933c-4.522-1.951-9.711-1.951-14.233 0l-23.03 9.933c-2.036.879-4.306-.781-4.101-2.98l2.328-24.978c.457-4.905-1.146-9.84-4.399-13.54l-16.559-18.838c-1.465-1.665-.588-4.337 1.566-4.821l24.469-5.504c4.805-1.081 9.002-4.131 11.514-8.368l12.794-21.575c1.13-1.905 3.94-1.904 5.07 0l12.793 21.575c2.513 4.237 6.71 7.288 11.515 8.368l24.469 5.504c2.155.484 3.031 3.155 1.567 4.821z"/><path d="m17.266 163.406c.16.181.238.422.215.662l-1.868 20.044c-.526 5.649 1.899 11.013 6.488 14.348 4.527 3.29 10.509 3.955 15.649 1.739l18.481-7.972c.221-.095.475-.095.696.001l18.481 7.971c5.208 2.248 11.059 1.598 15.649-1.738 4.589-3.335 7.014-8.699 6.488-14.348l-1.868-20.042c-.022-.241.056-.483.216-.664l13.288-15.117c3.747-4.261 4.936-10.026 3.183-15.423-1.753-5.396-6.103-9.361-11.637-10.606l-19.636-4.417c-.236-.053-.441-.203-.563-.41l-10.268-17.316h-.001c-2.894-4.88-8.008-7.793-13.681-7.793s-10.787 2.913-13.682 7.793l-10.266 17.314c-.123.208-.329.358-.564.41l-19.636 4.417c-5.534 1.245-9.884 5.209-11.637 10.606s-.564 11.162 3.182 15.423zm-2.182-25.897c.155-.477.51-.557.644-.587l19.636-4.417c4.251-.956 7.966-3.656 10.191-7.406l10.266-17.314c.337-.564 1.181-.571 1.515 0l10.268 17.315c2.224 3.749 5.939 6.449 10.19 7.405l19.636 4.417c.64.143.901.948.467 1.44l-13.289 15.118c-2.878 3.273-4.297 7.641-3.893 11.984l1.868 20.044c.061.651-.622 1.152-1.226.89l-18.481-7.971c-4.003-1.727-8.595-1.727-12.596-.001l-18.48 7.972c-.608.257-1.287-.237-1.226-.89l1.868-20.045c.404-4.342-1.015-8.71-3.892-11.982l-13.29-15.117c-.09-.104-.331-.378-.176-.855z"/><path d="m486.275 367.334-20.265-4.558c-.306-.069-.574-.264-.736-.535l-10.596-17.869.001.001c-2.942-4.962-8.143-7.926-13.911-7.926 0 0 0 0-.001 0-5.768 0-10.969 2.962-13.912 7.926l-10.593 17.866c-.161.272-.43.468-.738.537l-20.265 4.558c-5.627 1.266-10.051 5.297-11.834 10.784-1.783 5.488-.573 11.351 3.236 15.684l13.717 15.603c.207.236.309.55.28.864l-1.928 20.686c-.535 5.745 1.931 11.199 6.598 14.59s10.615 4.052 15.912 1.768l19.073-8.227c.289-.125.621-.125.911 0l19.072 8.227c5.228 2.254 11.31 1.578 15.914-1.769 4.666-3.392 7.132-8.846 6.596-14.59l-1.928-20.685c-.029-.314.073-.63.281-.867l13.717-15.602c3.809-4.334 5.018-10.197 3.236-15.685-1.785-5.484-6.21-9.516-11.837-10.781zm-2.685 16.544-13.717 15.602c-2.926 3.329-4.369 7.77-3.958 12.185l1.928 20.687c.083.856-.81 1.497-1.599 1.161l-19.072-8.227c-2.036-.878-4.22-1.316-6.404-1.316-2.185 0-4.37.439-6.405 1.317l-19.073 8.227c-.794.342-1.677-.31-1.599-1.162l1.928-20.684c.413-4.416-1.03-8.859-3.959-12.188l-13.715-15.601c-.569-.645-.23-1.694.611-1.881l20.265-4.558c4.323-.973 8.1-3.717 10.363-7.531l10.594-17.868c.242-.406.66-.608 1.136-.548.262.033.73.547.842.547l10.595 17.868c2.262 3.814 6.039 6.559 10.363 7.531l20.264 4.558c.841.189 1.181 1.233.612 1.881z"/><path d="m511.103 93.843c-1.981-6.096-6.897-10.576-13.149-11.983l-24.469-5.504c-.787-.177-1.475-.677-1.888-1.372l-12.794-21.576c-3.27-5.514-9.05-8.805-15.459-8.805-6.408 0-12.187 3.292-15.456 8.805l-12.795 21.577c-.412.694-1.1 1.194-1.887 1.371l-24.469 5.504c-6.253 1.407-11.169 5.887-13.149 11.984s-.636 12.612 3.597 17.426l16.561 18.838c.533.607.796 1.415.721 2.221l-2.327 24.977c-.595 6.383 2.145 12.444 7.331 16.212 5.115 3.717 11.872 4.469 17.68 1.964l23.031-9.934c.741-.32 1.592-.319 2.332.001l23.03 9.932c5.887 2.539 12.495 1.805 17.681-1.963 5.186-3.769 7.926-9.829 7.331-16.213l-2.328-24.977c-.075-.804.188-1.614.721-2.221l16.563-18.839c4.228-4.813 5.572-11.327 3.591-17.425zm-14.879 7.502-16.563 18.839c-3.252 3.7-4.855 8.635-4.398 13.54l2.328 24.977c.206 2.198-2.063 3.859-4.1 2.979l-23.03-9.932c-4.522-1.951-9.711-1.951-14.233-.001l-23.031 9.934c-2.036.879-4.305-.782-4.1-2.98l2.327-24.975c.458-4.905-1.145-9.841-4.398-13.542l-16.561-18.839c-1.463-1.666-.589-4.337 1.566-4.821l24.469-5.504c4.805-1.081 9.002-4.131 11.514-8.368l12.794-21.576c1.129-1.902 3.94-1.905 5.069 0l12.794 21.576c2.513 4.237 6.71 7.288 11.515 8.368l24.469 5.504c2.155.484 3.034 3.155 1.569 4.821z"/></g></svg>