<svg height="512" viewBox="0 0 64 64" width="512" xmlns="http://www.w3.org/2000/svg"><path d="m6 41c0 1.638.112 16 4 16s4-14.362 4-16-.112-16-4-16-4 14.362-4 16zm6 0c0 8.223-1.243 12.906-2 13.883-.757-.977-2-5.66-2-13.883s1.243-12.906 2-13.883c.757.977 2 5.66 2 13.883z"/><path d="m35 9v6h-10v-1a1 1 0 0 0 -1-1h-10a1 1 0 0 0 -1 1v1h-3a1 1 0 0 0 -1 1v4.142c-4.555 1.291-7 11.352-7 20.858 0 10.181 2.8 21 8 21s8-10.819 8-21c0-9.506-2.445-19.567-7-20.858v-3.142h2v1a1 1 0 0 0 1 1h10a1 1 0 0 0 1-1v-1h8v4.184a3 3 0 0 0 -2 2.816v1h-1a1 1 0 0 0 -1 1v5h-4v2h2v2h-4v2h6v2.1c-2.948.32-9 1.3-9 3.9 0 2.219 4.679 3.207 9 3.647v11.353a3 3 0 0 0 3 3h8a3 3 0 0 0 3-3v-11.353c4.321-.44 9-1.428 9-3.647 0-2.6-6.052-3.58-9-3.905v-2.095h6v-2h-4v-2h2v-2h-2.586l17.293-17.293a1 1 0 0 0 .293-.707v-6a1 1 0 0 0 -1.707-.707l-18.707 18.707h-.586v-1a3 3 0 0 0 -2-2.816v-5.184a1 1 0 0 0 -1-1h-1v-6a5.006 5.006 0 0 1 5-5h20v-2h-20a7.008 7.008 0 0 0 -7 7zm-19 32c0 11.2-3.162 19-6 19s-6-7.8-6-19 3.162-19 6-19 6 7.8 6 19zm7-24h-8v-2h8zm14 0v4h-2v-4zm-6 10h2v2h2v-2h2v2h2v-2h2v4h-10zm-8.9 15.987c.591-.523 2.895-1.413 6.9-1.873v3.537c-3.948-.427-6.271-1.157-6.9-1.664zm18.9 6.013h-4v2h4v2h-4v2h4v3a1 1 0 0 1 -1 1h-1v-2h-2v2h-2v-2h-2v2h-1a1 1 0 0 1 -1-1v-3h4v-2h-4v-2h4v-2h-4v-2.182c2.425.169 4.445.182 5 .182s2.575-.013 5-.182zm8.9-6.013c-.629.507-2.952 1.237-6.9 1.664v-3.537c4.005.46 6.309 1.35 6.9 1.873zm-8.9-1.987h-4v2h4v1.829c-1.49.106-3.15.171-5 .171s-3.51-.065-5-.171v-1.829h4v-2h-4v-4h2v2h2v-2h2v2h2v-2h2zm2-6h-14v-2h14zm17-22.414-17 17v-3.172l17-17zm-27 12.414v-1a1 1 0 0 1 1-1h4a1 1 0 0 1 1 1v1z"/></svg>