<svg height="512" viewBox="0 0 60 60" width="512" xmlns="http://www.w3.org/2000/svg"><g id="Page-1" fill="none" fill-rule="evenodd"><g id="017---Painting" fill="rgb(0,0,0)" fill-rule="nonzero"><path id="Shape" d="m3 42h1c0 1.1045695.8954305 2 2 2h8v2c.0032271.914748.6266634 1.7107205 1.514 1.933l-7.434 6.867c-.90436562.8384294-1.20351232 2.1448883-.75408471 3.2933029.44942761 1.1484145 1.55586229 1.9048045 2.78908471 1.9066971h.1c.7549711-.0003704 1.4818929-.2861382 2.035-.8l6.75-6.225v4.025c0 1.6568542 1.3431458 2.9999999 3 2.9999999s3-1.3431457 3-2.9999999v-4.025l6.747 6.225c.5531071.5138618 1.2800289.7996296 2.035.8h.1c1.2332224-.0018926 2.3396571-.7582826 2.7890847-1.9066971.4494276-1.1484146.1502809-2.4548735-.7540847-3.2933029l-7.434-6.862c.8903306-.2215723 1.5157145-1.0205137 1.517-1.938v-2h8c1.1045695 0 2-.8954305 2-2h1c.8432764-.0018069 1.6463071-.3608088 2.21-.988l8.8 16.722c.7383588 1.3944394 2.1871423 2.2664031 3.765 2.266.5726708.0002652 1.1393232-.1168089 1.665-.344 2.0265606-.8852954 3.0383751-3.1743681 2.329-5.269l-6.793-19.787c-.2733507-.789238-.861752-1.4297808-1.625-1.769-.2554787-.107814-.5247343-.1795033-.8-.213.9908553-1.8715916 1.0791278-4.0916456.24-6.036-1.4366886-3.2044562-3.8025099-5.9036734-6.791-7.748v-13.834c0-1.65685425-1.3431458-3-3-3h-12c0-1.1045695-.8954305-2-2-2h-10c-1.1045695 0-2 .8954305-2 2h-12c-1.65685425 0-3 1.34314575-3 3v34c0 1.6568542 1.34314575 3 3 3zm7.9 15.735c-.1846811.1703758-.4267332.2649831-.678.265h-.1c-.41179026-.0000276-.78146086-.2524806-.93134191-.6360258-.14988105-.3835451-.04932393-.8197528.25334191-1.0989742l8.947-8.265h.609v2.252zm12.1-.735c0 .5522847-.4477153 1-1 1s-1-.4477153-1-1v-9h2zm11.816.364c-.1443579.387747-.5173039.64252-.931.636h-.1c-.2515517.0005044-.4939008-.0945765-.678-.266l-8.107-7.482v-2.252h.609l8.953 8.265c.3084027.2758489.4100837.7157994.254 1.099zm-6.816-11.364h-12v-2h12zm1-4h-23v-2h32v2zm27.647 15.816c-1.0748633.457548-2.321136.0172272-2.87-1.014l-6.04-11.481 5.928-2.559 4.213 12.27c.3744248 1.1068443-.1602929 2.316149-1.231 2.784zm-5.562-22.567 1.928 5.616-6.21 2.68-2.765-5.254c-.1294323-.2464895-.1502488-.5357786-.0574409-.79826.092808-.2624814.2908379-.4743909.5464409-.58474l5.215-2.252c.254687-.1130411.545313-.1130411.8 0 .2568843.1117467.4542547.3272912.543.593zm-2.078-4.049c-.4860412 1.2344568-1.4456447 2.2232264-2.665 2.746-2.5349936 1.0936256-5.47661-.0743363-6.571-2.609-.7213848-1.7053961-.7522193-3.6243068-.086-5.352.7473756.4093829 1.5839079.628818 2.436.639.6781661-.002752 1.3484716-.145392 1.969-.419 1.1086999-.46945 2.0728796-1.2248506 2.794-2.189.8388668 1.0198659 1.5343108 2.149668 2.067 3.358.528867 1.2166781.5490317 2.5943647.056 3.826zm-3.527-8.7c-.5105165.8398093-1.2755951 1.4948903-2.184 1.87-1.0436829.4316864-2.2387784.2697949-3.13-.424.1353273-.8298418.0341283-1.6810219-.292-2.456-.4336853-.9949104-1.0635772-1.8921321-1.852-2.638 2.825452.3428722 5.4528739 1.6280472 7.458 3.648zm-28.48-20.5h10v2h-10zm-15 3c0-.55228475.44771525-1 1-1h12v1c0 .55228475.4477153 1 1 1h12c.5522847 0 1-.44771525 1-1v-1h12c.5522847 0 1 .44771525 1 1v12.8c-2.2295003-.9934941-4.7221481-1.2329287-7.1-.682-.4217415.104694-.7276007.4697674-.7568089.9033266-.0292082.4335591.2249207.8363581.6288089.9966734 1.4467784.659902 2.6073271 1.8190306 3.269 3.265.2724586.9914182.1914974 2.0467433-.229 2.985-.012.041-.024.085-.036.126-2.72782-2.2783381-4.7457731-5.2905192-5.815-8.68-.1267034-.4232751-.5161679-.7132318-.958-.7132318s-.8312966.2899567-.958.7132318c-1.486 4.966-5.115 8.4-8.161 10.522-1.8520273-2.1675113-3.1894399-4.7260991-3.912-7.484-.1129385-.4429574-.5118716-.7529393-.969-.7529393s-.8560615.3099819-.969.7529393c-2.415 9.38-11.334 13.29-11.426 13.328-.49774432.2225391-.72548409.8027838-.51199251 1.3044753.21349157.5016916.78951814.7398987 1.29499251.5355247 5.1588187-2.4124326 9.2788649-6.5984905 11.609-11.795 2.3291529 5.1983836 6.4493142 9.3863329 11.609 11.8.1238533.051408.2569153.0769314.391.075.4753954.0005149.8854396-.3337304.9807706-.7994696s-.1504063-.9342148-.5877706-1.1205304c-2.2758579-1.1037681-4.3519408-2.5789597-6.143-4.365 3.3072088-2.2555187 5.9765648-5.3261392 7.75-8.915 1.4747249 3.0369887 3.622489 5.6977538 6.28 7.78-.2156419 1.5479937.0110902 3.1254113.654 4.55.8404544 1.9436889 2.517845 3.4007382 4.56 3.961-.1676755.2250502-.3023673.4728831-.4.736-.1763069.5148505-.2088072 1.0680465-.094 1.6v.573c0 .5522847-.4477153 1-1 1h-1v-1c0-.5522847-.4477153-1-1-1h-34c-.55228475 0-1 .4477153-1 1v1h-1c-.55228475 0-1-.4477153-1-1z"/><path id="Shape" d="m11 18c2.7614237 0 5-2.2385763 5-5s-2.2385763-5-5-5c-2.76142375 0-5 2.2385763-5 5 .00330612 2.7600532 2.23994685 4.9966939 5 5zm0-8c1.6568542 0 3 1.3431458 3 3s-1.3431458 3-3 3c-1.65685425 0-3-1.3431458-3-3s1.34314575-3 3-3z"/></g></g></svg>