<svg xmlns="http://www.w3.org/2000/svg" width="538.394" height="364.075" viewBox="0 0 538.394 364.075"><defs><style>.a8yasd{fill:#172439;}.b0912j3{fill:#244e72;}.c{fill:#6add91;}.d{fill:#fefeff;}.e,.g{fill:none;stroke-linecap:round;stroke-linejoin:round;stroke-width:4px;}.e{stroke:#47b27c;}.f{fill:#47b27c;}.g{stroke:#6add91;}.h{fill:#f99d6a;}.i{fill:#204560;}</style></defs><g transform="translate(-433.303 -1608.818)"><g transform="translate(121.268 84.661)"><path class="a8yasd" d="M445.155,667.663l1.486,3.188-8.081,3.117,4.217-7.3Z" transform="translate(93.172 1214.264)"/><g transform="translate(544.795 1814.483)"><path class="b0912j3" d="M321.977,691.685l41.388-29.291L400.1,674.673l34.033-52.679,49.688,14.149,19.033,34.134,41.193-13,13,13,52.664-13,17.9,34.3Z" transform="translate(-321.977 -621.994)"/><path class="c" d="M523.891,675.148,534,671.957l-14.22-4.175Z" transform="translate(-343.017 -628.107)"/><path class="c" d="M459.943,625.223l12.368,3.522c-.044-.013-6.184-6.214-6.184-6.214Z" transform="translate(-336.652 -617.582)"/><path class="c" d="M603.962,670.354l18.267-4.508-11.639-3.858Z" transform="translate(-351.971 -626.841)"/><path class="c" d="M535.7,671.957l3.295-4.175,4.7,1.652Z" transform="translate(-344.709 -627.873)"/><path class="c" d="M436.463,671.838l.594-5.17h5.5v3.082l-4.218,4.217Z" transform="translate(-334.154 -627.845)"/><path class="a8yasd" d="M609.17,697.432c-.891-.569-15.453-6.215-15.453-6.215l-8.7-15.193,31.28,21.408Z" transform="translate(-349.956 -631.091)"/><path class="a8yasd" d="M518.262,671.961l-5.165,11.33-13.67,5.039-5.943,5.039-26.621-.107,20.38-17.7s20.8-1.189,19.614-1.189-22.882-5.6-22.882-5.6l15.255-30.943Z" transform="translate(-337.388 -624.719)"/></g></g><g transform="translate(-98.429 -121.339)"><path class="a8yasd" d="M445.155,667.663l1.486,3.188-8.081,3.117,4.217-7.3Z" transform="translate(93.172 1214.264)"/><g transform="translate(544.795 1814.483)"><path class="b0912j3" d="M321.977,691.685l41.388-29.291L400.1,674.673l34.033-52.679,49.688,14.149,19.033,34.134,41.193-13,13,13,52.664-13,17.9,34.3Z" transform="translate(-321.977 -621.994)"/><path class="c" d="M523.891,675.148,534,671.957l-14.22-4.175Z" transform="translate(-343.017 -628.107)"/><path class="c" d="M459.943,625.223l12.368,3.522c-.044-.013-6.184-6.214-6.184-6.214Z" transform="translate(-336.652 -617.582)"/><path class="c" d="M603.962,670.354l18.267-4.508-11.639-3.858Z" transform="translate(-351.971 -626.841)"/><path class="c" d="M535.7,671.957l3.295-4.175,4.7,1.652Z" transform="translate(-344.709 -627.873)"/><path class="c" d="M436.463,671.838l.594-5.17h5.5v3.082l-4.218,4.217Z" transform="translate(-334.154 -627.845)"/><path class="a8yasd" d="M609.17,697.432c-.891-.569-15.453-6.215-15.453-6.215l-8.7-15.193,31.28,21.408Z" transform="translate(-349.956 -631.091)"/><path class="a8yasd" d="M518.262,671.961l-5.165,11.33-13.67,5.039-5.943,5.039-26.621-.107,20.38-17.7s20.8-1.189,19.614-1.189-22.882-5.6-22.882-5.6l15.255-30.943Z" transform="translate(-337.388 -624.719)"/></g></g><g transform="translate(70.591 28)"><g transform="translate(601.084 1767.317)"><path class="d" d="M1234.47,668.974c-1.785,0-250.49-.516-253-.522l.011-5.216c2.284,0,208.151.432,246.789.509-8.662-7.909-29.049-25.473-42.986-37.337-16.025,0-223.8-.048-226.37,0l-.095-5.215c2.7-.049,218.251,0,227.426,0h.959l.73.621c.122.1,12.318,10.482,24.308,20.865,7.048,6.1,12.649,11.016,16.647,14.6,2.388,2.143,4.232,3.835,5.477,5.031,2.033,1.951,3.26,3.129,2.6,4.931l-.628,1.707Z" transform="translate(-958.818 -621.171)"/></g><g transform="translate(138.495 -21)"><path class="b0912j3" d="M935.491,658.707H930.58l1.615,5.848h4.911Z" transform="translate(-443.536 1152.659)"/><rect class="b0912j3" width="4.911" height="5.848" transform="translate(498.805 1811.366)"/><rect class="b0912j3" width="4.911" height="5.848" transform="translate(509.919 1811.366)"/><rect class="b0912j3" width="4.911" height="5.848" transform="translate(521.033 1811.366)"/><rect class="b0912j3" width="4.911" height="5.848" transform="translate(532.147 1811.366)"/><rect class="b0912j3" width="4.911" height="5.848" transform="translate(543.262 1811.366)"/><rect class="b0912j3" width="4.911" height="5.848" transform="translate(554.376 1811.366)"/><rect class="b0912j3" width="4.911" height="5.848" transform="translate(565.49 1811.366)"/><rect class="b0912j3" width="4.911" height="5.848" transform="translate(576.604 1811.366)"/><rect class="b0912j3" width="4.911" height="5.848" transform="translate(587.718 1811.366)"/><rect class="b0912j3" width="4.911" height="5.848" transform="translate(598.833 1811.366)"/><rect class="b0912j3" width="4.911" height="5.848" transform="translate(609.947 1811.366)"/><path class="b0912j3" d="M884.186,658.707l4.168,5.848h6.494l-5.331-5.848Z" transform="translate(-411.681 1152.659)"/><path class="b0912j3" d="M836.744,664.555l-5.137-5.841,5.137-.006,7.754,5.848Z" transform="translate(-375.579 1152.659)"/><path class="b0912j3" d="M766.385,665.039c-.388,0-18.9-5.858-18.9-5.858l7.946-.474,18.416,5.751Z" transform="translate(-317.82 1152.659)"/><path class="b0912j3" d="M637.863,670.276l-50.6-5.385,12.6-1.1,48.35,5.2Z" transform="translate(-207.811 1149.166)"/><path class="b0912j3" d="M503.37,690.213s-67.655.969-67.655,0,11.631-3.877,11.631-3.877h75.409Z" transform="translate(-103.753 1133.688)"/><path class="b0912j3" d="M426.014,727.133s-76.329.286-76.044,0,9.327-8.013,9.327-8.013h72.016Z" transform="translate(-44.878 1111.177)"/><path class="b0912j3" d="M326.465,772.319l-2.714,9.5h100.8l-9.4-9.4Z" transform="translate(-26.877 1074.651)"/><path class="b0912j3" d="M395.441,940.362H558.277l-29.665-13.089H379.733Z" transform="translate(-65.315 968.256)"/><path class="b0912j3" d="M328.968,861.7H470.114L446.57,851.82H319.381Z" transform="translate(-23.876 1020.064)"/><path class="e" d="M1076.571,1030.886" transform="translate(-543.776 897.114)"/><path class="e" d="M832.932,672.643H663.562s-107.174,0-79.867,32.788C602.576,728.1,665.013,756.4,703.56,772.389" transform="translate(-202.3 1143.09)"/><path class="e" d="M393.106,760.626c-17.879-12.382-39.493-31.555-42.821-53.521-5.815-38.383,70.474-48.4,154.263-48.4H662.983" transform="translate(-44.88 1152.659)"/><path class="e" d="M487.611,983.931" transform="translate(-139.385 929.354)"/></g><g transform="translate(611.365 1580.818)"><path class="f" d="M1277.568,597.305h34.945a3.391,3.391,0,0,0,3.39,3.391h8.345a3.39,3.39,0,0,0,3.39-3.391v-7.153h-4.47v-1.341a3.129,3.129,0,0,0-3.129-3.129h0a3.129,3.129,0,0,0-3.13,3.129v1.341h-35.764Z" transform="translate(-1109.103 -419.085)"/><g transform="translate(165.858 41.806)"><path class="f" d="M1281.263,363.173h16.69s13.039-1.043,10.432,10.432-6.78,30.251-6.78,30.251h-28.686Z" transform="translate(-1272.918 -363.148)"/><path class="g" d="M1317.627,368.331s-6.079-1.346-8.166,8.042-6.78,31.815-6.78,31.815" transform="translate(-1285.991 -365.395)"/></g><path class="f" d="M1095.128,406.231c-.471.471-24.968,16.959-24.968,16.959l2.826,5.182,26.382-13.19Z" transform="translate(-1018.003 -340.265)"/><rect class="f" width="6.259" height="35.466" rx="3.129" transform="translate(70.367 54.468) rotate(-23.549)"/><g transform="translate(102.723)"><g transform="translate(24.523 29.103)"><path class="b0912j3" d="M1209.18,411.009h41.5a.173.173,0,0,0,.17-.141l10.257-53.779a13.976,13.976,0,0,0-13.728-16.594h-29.439a13.873,13.873,0,0,0-13.818,15.1l4.889,55.26A.174.174,0,0,0,1209.18,411.009Z" transform="translate(-1204.064 -340.495)"/></g><g transform="translate(5.579 41.217)"><path class="b0912j3" d="M1174.314,439.326l23.97-25.507a7.552,7.552,0,0,0,2.181-5.389l5.441-43.14-16.442-3.192-2.9,42.834a4.075,4.075,0,0,1-.654,2.377l-15.63,28.776Z" transform="translate(-1170.282 -362.098)"/></g><g transform="translate(0 115.204)"><path class="h" d="M1165.912,494.035l-3.083,2.191a4.76,4.76,0,0,0-1.963,3.27l-.532,4.122a.268.268,0,0,0,.473.2l3.191-3.877a1.391,1.391,0,0,1,1.373-.474h0a3.528,3.528,0,0,0,3.19-.885l1.383-1.311Z" transform="translate(-1160.333 -494.035)"/></g><g transform="translate(42.241 7.718)"><g transform="translate(0 0)"><path class="h" d="M5.8,0h0A10.353,10.353,0,0,1,16.149,10.353v8.28a0,0,0,0,1,0,0H0a0,0,0,0,1,0,0V5.8A5.8,5.8,0,0,1,5.8,0Z" transform="translate(16.149 18.633) rotate(180)"/></g></g><g transform="translate(40.184)"><path class="c" d="M1231.991,288.6l15.22,2.041c3.2.44,4.822,2.159,4.822,4.822v8.175a2.767,2.767,0,0,1-2.767,2.767h0a2.822,2.822,0,0,1-2.822-2.822v-3.39a2.664,2.664,0,0,0-2.665-2.665h-9.731Z" transform="translate(-1231.991 -288.597)"/></g><g transform="translate(54.006 13.035)"><ellipse class="h" cx="1.514" cy="1.514" rx="1.514" ry="1.514"/></g><path class="h" d="M1244.386,327.259V342.5l11.255-10.277v-10.56Z" transform="translate(-1197.251 -303.121)"/></g><g transform="translate(0 80.747)"><path class="c" d="M1200.079,450.3H988.22l24.827,105.93h162.2Z" transform="translate(-982.013 -440.367)"/><rect class="c" width="224.273" height="16.965" rx="4.076"/><path class="f" d="M1199.727,462.842H991.171l2.048,8.272,203.41,4.694Z" transform="translate(-983.31 -445.877)"/><line class="e" x2="176.687" transform="translate(24.413 43.448)"/><line class="e" x2="167.884" transform="translate(28.815 67.034)"/><line class="e" x2="159.08" transform="translate(33.217 90.619)"/><g transform="translate(42.206 97.105)"><ellipse class="b0912j3" cx="18.755" cy="18.755" rx="18.755" ry="18.755"/><ellipse class="a8yasd" cx="10.94" cy="10.94" rx="10.94" ry="10.94" transform="translate(7.815 7.815)"/><ellipse class="c" cx="5.21" cy="5.21" rx="5.21" ry="5.21" transform="translate(13.545 13.545)"/><g transform="translate(102.35)"><ellipse class="b0912j3" cx="18.755" cy="18.755" rx="18.755" ry="18.755"/><ellipse class="a8yasd" cx="10.94" cy="10.94" rx="10.94" ry="10.94" transform="translate(7.815 7.815)"/><ellipse class="c" cx="5.21" cy="5.21" rx="5.21" ry="5.21" transform="translate(13.545 13.545)"/></g></g><path class="e" d="M1240.862,531a15,15,0,0,0,1.769,2.221" transform="translate(-1092.98 -475.815)"/><path class="e" d="M1251.148,531.248a3.261,3.261,0,0,0,.967,2.073" transform="translate(-1097.498 -475.923)"/><path class="e" d="M1119.385,574.785l-.26-2.066" transform="translate(-1039.51 -494.138)"/><path class="e" d="M1054.307,569.738l-1.916,2.484" transform="translate(-1010.199 -492.828)"/><path class="e" d="M1037.339,523.394h-.137" transform="translate(-1003.527 -472.473)"/><path class="e" d="M1184.566,520.94h-.137" transform="translate(-1068.194 -471.395)"/><path class="e" d="M1205.519,614.68l.82,1.654" transform="translate(-1077.457 -512.568)"/><path class="e" d="M1199.4,616.147l.688,1.376" transform="translate(-1074.768 -513.213)"/><path class="e" d="M1146.935,498.832h-.275" transform="translate(-1051.604 -461.685)"/></g><g transform="translate(75.808 61.384)"><path class="h" d="M1123.438,401.115l-3.088-2.183a4.757,4.757,0,0,0-3.735-.769l-4.066.863a.268.268,0,0,0-.037.514l4.716,1.728a1.39,1.39,0,0,1,.9,1.138h0a3.529,3.529,0,0,0,1.891,2.716l1.694.87Z" transform="translate(-1112.337 -398.06)"/></g><g transform="translate(85.142 38.4)"><path class="i" d="M1128.982,387.968l40.706,14.942c4.722,2.246,5.727,2.354,10.185-.38l38.4-29.881a8.338,8.338,0,0,0,2.982-11.569h0a8.338,8.338,0,0,0-11.828-2.552l-33.045,30.595a30.308,30.308,0,0,1-6.341.922l-39.292-6.932Z" transform="translate(-1128.982 -357.074)"/></g><path class="c" d="M999.4,521.388a10.675,10.675,0,0,0,0,16.077Z" transform="translate(-985.322 -390.845)"/><rect class="f" width="6.259" height="20.863" transform="translate(14.082 127.889)"/></g></g></g></svg>
