<svg xmlns="http://www.w3.org/2000/svg" width="97.258" height="91.069" viewBox="0 0 97.258 91.069"><defs><style>.a1283y{fill:#6adc91;}.b1283y{fill:#172439;}.c871y23b{fill:#6add91;}</style></defs><g transform="translate(0)"><circle class="a1283y" cx="18.955" cy="18.955" r="18.955" transform="translate(0 28.192)"/><g transform="translate(6.188 0)"><path class="b1283y" d="M-5210.589,2318.877a28.345,28.345,0,0,1-20.1-8.313,28.455,28.455,0,0,1,0-40.2,28.458,28.458,0,0,1,40.2,0,28.457,28.457,0,0,1,0,40.2A28.342,28.342,0,0,1-5210.589,2318.877Zm0-52.81a24.33,24.33,0,0,0-17.263,7.14,24.437,24.437,0,0,0,0,34.519,24.437,24.437,0,0,0,34.519,0,24.437,24.437,0,0,0,0-34.519,24.333,24.333,0,0,0-17.256-7.138Z" transform="translate(5239.001 -2262.054)"/><g transform="translate(26.397 7.616)"><path class="c871y23b" d="M-5184.089,2294.7a2.012,2.012,0,0,1-2.012-2.012,16.654,16.654,0,0,0-4.911-11.859,16.663,16.663,0,0,0-11.859-4.911,2.011,2.011,0,0,1-2.011-2.011,2.011,2.011,0,0,1,2.011-2.012,20.65,20.65,0,0,1,14.7,6.089,20.647,20.647,0,0,1,6.087,14.7,2.007,2.007,0,0,1-2,2.016Z" transform="translate(5204.882 -2271.898)"/></g><g transform="translate(45.086 45.086)"><g transform="translate(6.336 6.33)"><path class="b1283y" d="M-5140.8,2368.164a7.894,7.894,0,0,1-5.6-2.315l-23.82-23.82a7.925,7.925,0,0,1,0-11.2,7.864,7.864,0,0,1,5.6-2.321,7.864,7.864,0,0,1,5.6,2.321l23.82,23.82a7.925,7.925,0,0,1,0,11.2A7.89,7.89,0,0,1-5140.8,2368.164Zm-23.821-35.633a3.884,3.884,0,0,0-2.758,1.14,3.906,3.906,0,0,0,0,5.516l23.821,23.82a3.9,3.9,0,0,0,5.516,0,3.9,3.9,0,0,0,0-5.516l-23.82-23.82a3.883,3.883,0,0,0-2.758-1.14Z" transform="translate(5172.537 -2328.511)"/></g><path class="b1283y" d="M-5170.654,2332.409a2,2,0,0,1-1.42-.588l-8.064-8.065a2.012,2.012,0,0,1,0-2.84,2.012,2.012,0,0,1,2.84,0l8.064,8.065a2.012,2.012,0,0,1,0,2.84A2,2,0,0,1-5170.654,2332.409Z" transform="translate(5180.726 -2320.33)"/></g></g></g></svg>
