<svg xmlns="http://www.w3.org/2000/svg" width="85.875" height="82.539" viewBox="0 0 85.875 82.539"><defs><style>.a0912j3{fill:#6adc91;}.b198y2ha{fill:#172439;}.c89123ha{fill:#6add91;}</style></defs><circle class="a0912j3" cx="18.955" cy="18.955" r="18.955" transform="translate(47.966 32.651)"/><g transform="translate(0 0)"><path class="b198y2ha" d="M-4552.639,2263.29a27.929,27.929,0,0,0-27.9,27.9,27.717,27.717,0,0,0,1.807,9.9l-26.673,26.671a2.03,2.03,0,0,0-.6,1.437v14.6a2.032,2.032,0,0,0,2.031,2.033h12.026a2.034,2.034,0,0,0,1.436-.594l4.054-4.048a2.035,2.035,0,0,0,.6-1.439v-4.978h4.978a2.032,2.032,0,0,0,2.033-2.03v-2h1.989a2.032,2.032,0,0,0,2.033-2.03h0v-4.375h4.375a2.032,2.032,0,0,0,1.438-.6l6.467-6.468a27.747,27.747,0,0,0,9.9,1.811,27.928,27.928,0,0,0,27.9-27.9A27.929,27.929,0,0,0-4552.639,2263.29Zm0,51.728h0a23.664,23.664,0,0,1-9.566-2,2.032,2.032,0,0,0-2.236.407l-.019.017-6.827,6.828h-5.567a2.033,2.033,0,0,0-2.033,2.032h0v4.375h-1.989a2.032,2.032,0,0,0-2.033,2.032h0v1.992h-4.973a2.033,2.033,0,0,0-2.033,2.033v6.167l-2.862,2.856h-9.154v-2.872l0-5.176v-3.672l27.035-27.037.015-.017a2.035,2.035,0,0,0,.41-2.237,23.658,23.658,0,0,1-2-9.565,23.857,23.857,0,0,1,23.829-23.829,23.857,23.857,0,0,1,23.829,23.829A23.858,23.858,0,0,1-4552.639,2315.018Z" transform="translate(4605.998 -2263.29)"/><path class="c89123ha" d="M-4597.379,2349.594l24.846-24.849a1.83,1.83,0,0,0,0-2.588,1.831,1.831,0,0,0-2.588,0l-22.26,22.26Z" transform="translate(4604.048 -2276.493)"/><path class="b198y2ha" d="M-4528.284,2278.531a7.623,7.623,0,0,0-7.615,7.615,7.623,7.623,0,0,0,7.615,7.615,7.624,7.624,0,0,0,7.616-7.615A7.624,7.624,0,0,0-4528.284,2278.531Zm0,11.163a3.554,3.554,0,0,1-3.549-3.549,3.554,3.554,0,0,1,3.549-3.549,3.553,3.553,0,0,1,3.549,3.549,3.553,3.553,0,0,1-3.549,3.549Z" transform="translate(4590.132 -2266.74)"/></g></svg>
