<svg xmlns="http://www.w3.org/2000/svg" width="53.622" height="44.485" viewBox="0 0 53.622 44.485"><defs><style>.a{fill:#6add92;}</style></defs><g transform="translate(53.622) rotate(90)"><g transform="translate(0 21.485)"><path class="a" d="M22.243,23.821a1.167,1.167,0,0,1-.741-.266L.427,6.227a1.165,1.165,0,0,1,0-1.8L5.484.266a1.167,1.167,0,1,1,1.482,1.8L3,5.325,22.243,21.142,41.48,5.325,37.521,2.068A1.166,1.166,0,1,1,39,.266l5.057,4.159a1.165,1.165,0,0,1,0,1.8L22.984,23.555A1.169,1.169,0,0,1,22.243,23.821Z"/><g transform="translate(0 8.315)"><path class="a" d="M22.243,23.821a1.167,1.167,0,0,1-.741-.266L.427,6.227a1.165,1.165,0,0,1,0-1.8L5.484.266a1.167,1.167,0,1,1,1.482,1.8L3,5.326,22.243,21.142,41.48,5.326,37.521,2.069A1.166,1.166,0,1,1,39,.266l5.057,4.159a1.165,1.165,0,0,1,0,1.8L22.984,23.555A1.169,1.169,0,0,1,22.243,23.821Z"/></g></g><g transform="translate(0 0)"><path class="a" d="M22.243,36.99a1.167,1.167,0,0,1-.741-.266L.427,19.4a1.165,1.165,0,0,1,0-1.8L21.5.266a1.167,1.167,0,0,1,1.482,0L44.059,17.594a1.165,1.165,0,0,1,0,1.8L22.984,36.724A1.169,1.169,0,0,1,22.243,36.99ZM3,18.495,22.243,34.311,41.48,18.495,22.243,2.679Z"/></g></g></svg>