<svg xmlns="http://www.w3.org/2000/svg" width="56.527" height="45.256" viewBox="0 0 56.527 45.256"><defs><style>.a{fill:#6dde94;}.b{fill:none;stroke:#6dde94;stroke-linecap:round;stroke-linejoin:round;stroke-width:2px;}</style></defs><g transform="translate(33.766 2.771)"><path class="a" d="M-3016.751-638.722a1.6,1.6,0,0,1-.675-.224l-6.066-3.146-6.178,2.921a1.383,1.383,0,0,1-1.46-.112,1.463,1.463,0,0,1-.562-1.461l1.8-6.4-4.381-4.605a1.612,1.612,0,0,1-.337-1.573,1.616,1.616,0,0,1,1.235-1.011l6.066-.786,2.81-5.729a1.361,1.361,0,0,1,1.347-.786,1.458,1.458,0,0,1,1.348.9l2.584,5.842,6.066,1.011a1.319,1.319,0,0,1,1.124,1.011,1.362,1.362,0,0,1-.337,1.461l-4.493,4.381,1.573,6.292a1.563,1.563,0,0,1-.562,1.573A1.16,1.16,0,0,1-3016.751-638.722Zm-13.93-2.472Zm7.19-3.257a2.86,2.86,0,0,1,.787.224l4.943,2.472-1.236-5.168a1.447,1.447,0,0,1,.45-1.349l3.707-3.708-5.842-1.011-2.472-5.392-2.245,4.605a1.355,1.355,0,0,1-1.125.786l-5.055.674,3.6,3.82a1.268,1.268,0,0,1,.336,1.235l-1.461,5.168,5.055-2.359C-3023.942-644.338-3023.716-644.45-3023.492-644.45Zm-.336,2.246Zm.673-.112Zm-4.381-12.358Zm.562-.449Zm3.032-4.719Z" transform="translate(3034.704 661.639)"/></g><g transform="translate(0 0)"><g transform="translate(19.425 44.063)"><path class="b" d="M-3046.721-627.039" transform="translate(3046.721 627.039)"/></g><g transform="translate(0 23.952)"><path class="a" d="M-3027.494-622.586h-33.2a2.305,2.305,0,0,1-2.3-2.307v-7.233c0-6.6,8.3-11.765,18.9-11.765s18.9,5.168,18.9,11.765v7.233A2.305,2.305,0,0,1-3027.494-622.586Zm-16.6-18.918c-8.952,0-16.515,4.3-16.515,9.378v7.233l33.117-.08-.087-7.153C-3027.581-637.209-3035.144-641.5-3044.1-641.5Z" transform="translate(3062.998 643.891)"/></g><g transform="translate(8.173)"><path class="a" d="M-3045.421-642.656a10.7,10.7,0,0,1-10.729-10.652,10.7,10.7,0,0,1,10.729-10.652,10.7,10.7,0,0,1,10.729,10.652A10.7,10.7,0,0,1-3045.421-642.656Zm0-18.918a8.314,8.314,0,0,0-8.342,8.266,8.314,8.314,0,0,0,8.342,8.265,8.314,8.314,0,0,0,8.343-8.265A8.314,8.314,0,0,0-3045.421-661.574Z" transform="translate(3056.15 663.961)"/></g><g transform="translate(45.147 44.063)"><path class="b" d="M-3025.168-627.039" transform="translate(3025.168 627.039)"/></g></g></svg>