<svg xmlns="http://www.w3.org/2000/svg" xmlns:xlink="http://www.w3.org/1999/xlink" width="95.905" height="95.905" viewBox="0 0 95.905 95.905"><defs><style>.a{fill:none;}.b{fill:url(#a);}.c{clip-path:url(#b);}.d{fill:#6bde92;}.e{fill:#f2f3f5;}.f{fill:#f3b540;}.g{fill:#f29a41;}.h{fill:#2aad7e;}.i{fill:#161b35;}.j{fill:#df6d6a;}.k{fill:#23385e;}</style><linearGradient id="a" x1="1.717" y1="1.773" x2="-0.328" y2="-0.366" gradientUnits="objectBoundingBox"><stop offset="0.21" stop-color="#23385e"/><stop offset="1" stop-color="#6bde92"/></linearGradient><clipPath id="b"><ellipse class="a" cx="47.952" cy="47.952" rx="47.952" ry="47.952"/></clipPath></defs><ellipse class="b" cx="47.952" cy="47.952" rx="47.952" ry="47.952" transform="translate(0 0)"/><g transform="translate(0 0)"><g class="c"><g transform="translate(-2646.86 9.863)"><g transform="translate(2647.057)"><g transform="translate(70.903 53.03)"><path class="d" d="M208,968.071V975.4h-22.5V928.022S208,929.812,208,968.071Z" transform="translate(-185.492 -928.022)"/></g><g transform="translate(14.035 44.503)"><path class="d" d="M104.4,932.276l3.571,79.994H166l3.573-80.013A6.938,6.938,0,0,0,164.9,925.4l-27.723-9.543-28.079,9.555A6.937,6.937,0,0,0,104.4,932.276Z" transform="translate(-104.391 -915.861)"/><g transform="translate(15.573)"><path class="e" d="M160.812,921.714l-17-5.853L126.6,921.717c3.221,7.781,10.262,15.833,19.354,15.833C154.929,937.55,158.649,929.483,160.812,921.714Z" transform="translate(-126.6 -915.861)"/></g><g transform="translate(18.756)"><path class="f" d="M158.834,920.566l-13.859-4.705-13.836,4.773c1.661,6.543,9.419,14.177,16.479,14.177S157.173,927.11,158.834,920.566Z" transform="translate(-131.139 -915.861)"/></g><g transform="translate(22.678)"><path class="g" d="M136.733,919.281c3.306,3.927,8.069,7.014,12.556,7.014,4.308,0,6.911-2.872,8.668-6.594l-11.31-3.84Z" transform="translate(-136.733 -915.861)"/></g><g transform="translate(63.179 33.017)"><path class="h" d="M195.328,985.159l-.836-.04.934-22.172.836.04Z" transform="translate(-194.491 -962.947)"/></g></g><g transform="translate(27.273)"><g transform="translate(31.338 23.916)"><rect class="g" width="6.521" height="9.04" rx="3.26"/></g><g transform="translate(2.81 0.691)"><path class="f" d="M144.91,853.38h-1.764a15.916,15.916,0,0,0-15.87,15.87v17.633h0a15.87,15.87,0,0,0,15.87,15.87h1.764a15.916,15.916,0,0,0,15.869-15.87V869.25A15.916,15.916,0,0,0,144.91,853.38Z" transform="translate(-127.277 -853.38)"/></g><g transform="translate(15.046 24.281)"><ellipse class="i" cx="1.499" cy="1.499" rx="1.499" ry="1.499"/><g transform="translate(12.637)"><ellipse class="i" cx="1.499" cy="1.499" rx="1.499" ry="1.499"/></g><g transform="translate(7.71 3.794)"><path class="j" d="M159.819,898.823h-4.1v-.947h2.757l-1.809-5.126.894-.316Z" transform="translate(-155.723 -892.434)"/></g></g><g transform="translate(0.267)"><path class="k" d="M127.4,878.921s8.252-4.268,8.252-12.35l27.714,6.175s-4.439-28.767-31.356-17.9l-4.569-2.454,1.014,4.1-2.648-.572,1.471,2.488S119.035,869.815,127.4,878.921Z" transform="translate(-123.65 -852.395)"/></g><g transform="translate(0 23.916)"><rect class="g" width="6.521" height="9.04" rx="3.26"/></g></g><g transform="translate(0 53.03)"><path class="d" d="M84.376,968.071V975.4h22.5V928.022S84.376,929.812,84.376,968.071Z" transform="translate(-84.376 -928.022)"/><g transform="translate(19.038 22.967)"><path class="h" d="M115.465,985.665h-3.939v-.948h3.1V960.776h.837Z" transform="translate(-111.526 -960.776)"/></g></g></g><g transform="translate(0 34.127)"><path class="j" d="M-3684.946,904.836a6.08,6.08,0,0,1-5.689-3.516l.653-.256a5.285,5.285,0,0,0,5.036,3.071Z" transform="translate(3690.635 -901.064)"/></g><g transform="translate(740.579 34.127)"><path class="j" d="M-2628.795,904.836a6.077,6.077,0,0,1-5.689-3.516l.653-.256a5.285,5.285,0,0,0,5.037,3.071Z" transform="translate(2634.484 -901.064)"/></g><g transform="translate(1801.078 34.127)"><path class="j" d="M-1116.4,904.836a6.081,6.081,0,0,1-5.69-3.516l.654-.256a5.284,5.284,0,0,0,5.036,3.071Z" transform="translate(1122.088 -901.064)"/></g><g transform="translate(2691.706 34.305)"><path class="j" d="M155.674,906.372a8.146,8.146,0,0,1-7.624-4.712l.875-.342a7.083,7.083,0,0,0,6.748,4.115Z" transform="translate(-148.051 -901.318)"/></g></g></g></g></svg>