<svg xmlns="http://www.w3.org/2000/svg" xmlns:xlink="http://www.w3.org/1999/xlink" width="95.905" height="95.905" viewBox="0 0 95.905 95.905"><defs><style>.a{fill:url(#a);}.b{fill:#23385e;}.c{fill:#fff;}.d{fill:#6bdc90;}.e{fill:none;stroke:#23385e;stroke-linecap:round;stroke-linejoin:round;}.f{fill:url(#b);}</style><linearGradient id="a" x1="1.717" y1="1.773" x2="-0.328" y2="-0.366" gradientUnits="objectBoundingBox"><stop offset="0.21" stop-color="#23385e"/><stop offset="1" stop-color="#6bde92"/></linearGradient><linearGradient id="b" x1="0.5" y1="-1.493" x2="0.5" y2="4.049" xlink:href="#a"/></defs><ellipse class="a" cx="47.953" cy="47.952" rx="47.953" ry="47.952" transform="translate(0 0)"/><g transform="translate(14.409 24.076)"><g transform="translate(19.457 0)"><g transform="translate(0)"><rect class="b" width="14.649" height="42.665" transform="translate(16.827 46.377) rotate(180)"/><rect class="b" width="15.479" height="3.712" transform="translate(15.479 3.712) rotate(-180)"/><rect class="c" width="32.152" height="3.712" transform="translate(15.479 0)"/><rect class="c" width="29.455" height="42.665" transform="translate(16.827 3.712)"/><rect class="c" width="32.152" height="3.712" transform="translate(15.479 0)"/><g transform="translate(22.473 8.392)"><rect class="b" width="6.041" height="6.041"/><rect class="b" width="6.041" height="6.041" transform="translate(12.124)"/></g><g transform="translate(22.473 21.622)"><rect class="b" width="6.041" height="6.041"/></g><g transform="translate(34.596 34.734)"><rect class="b" width="6.041" height="6.041"/></g><g transform="translate(34.596 21.622)"><rect class="b" width="6.041" height="6.041"/></g><path class="b" d="M940.272,935.851V921.41h6.923v14.441" transform="translate(-918.24 -889.474)"/></g></g><g transform="translate(0 3.035)"><path class="d" d="M906.535,906.408c.129-5.944-8.655-21.2-11.355-25.748a.95.95,0,0,0-1.613-.035c-2.894,4.423-12.331,19.287-12.46,25.231a12.717,12.717,0,0,0,25.427.551Z" transform="translate(-881.105 -880.194)"/><line class="e" y1="34.149" x2="0.74" transform="translate(12.31 10.569)"/><line class="e" y1="8.697" x2="9.082" transform="translate(12.554 24.771)"/><line class="e" x1="4.732" y1="4.942" transform="translate(8.076 16.803)"/><line class="e" x1="8.697" y1="9.082" transform="translate(3.857 24.385)"/><line class="e" y1="4.732" x2="4.942" transform="translate(12.808 17.012)"/></g></g><path class="f" d="M868.55,942a47.955,47.955,0,0,0,84.694,0Z" transform="translate(-862.945 -871.552)"/></svg>