<svg id="Layer_3" enable-background="new 0 0 64 64" height="512" viewBox="0 0 64 64" width="512" xmlns="http://www.w3.org/2000/svg"><g><path d="m37.707 25.293c-.187-.188-.442-.293-.707-.293h-5v-2h4v-2h-4v-3c0-.553-.448-1-1-1h-3-3c-.552 0-1 .447-1 1v2.365c-3.091 1.787-5 5.027-5 8.635 0 5.514 4.486 10 10 10 3.61 0 6.86-1.904 8.635-4.951l2.658 2.658c.195.195.451.293.707.293s.512-.098.707-.293l3-3c.391-.391.391-1.023 0-1.414zm-8.707 11.707c-4.411 0-8-3.589-8-8 0-2.473 1.126-4.728 3-6.226v7.226c0 .553.448 1 1 1h9.586l1.557 1.557c-1.348 2.711-4.074 4.443-7.143 4.443zm12-2.414-5.293-5.293c-.187-.188-.442-.293-.707-.293h-9v-10h4v2h-2v2h2v3c0 .553.448 1 1 1h5.586l6 6z"/><path d="m32 13c0-2.206-1.794-4-4-4s-4 1.794-4 4 1.794 4 4 4 4-1.794 4-4zm-4 2c-1.103 0-2-.897-2-2s.897-2 2-2 2 .897 2 2-.897 2-2 2z"/><path d="m49 40v-32c0-1.654-1.346-3-3-3h-28c-1.654 0-3 1.346-3 3v32c0 1.654 1.346 3 3 3h28c1.654 0 3-1.346 3-3zm-32 0v-32c0-.552.449-1 1-1h28c.551 0 1 .448 1 1v32c0 .552-.449 1-1 1h-28c-.551 0-1-.448-1-1z"/><path d="m37 61v-14h9c3.86 0 7-3.141 7-7v-32c0-3.859-3.14-7-7-7h-28c-3.86 0-7 3.141-7 7v32c0 3.859 3.14 7 7 7h9v14h-26v2h62v-2zm-24-21v-32c0-2.757 2.243-5 5-5h28c2.757 0 5 2.243 5 5v32c0 2.757-2.243 5-5 5h-28c-2.757 0-5-2.243-5-5zm16 7h6v14h-6z"/></g></svg>