<?xml version="1.0"?>
<svg xmlns="http://www.w3.org/2000/svg" id="Outline" viewBox="0 0 512 512" width="512" height="512"><path d="M488.453,384.023l-7.609-31.284c-.04-.166-.086-.331-.137-.493A77.4,77.4,0,0,0,440,305.184V223.422a63.972,63.972,0,1,0-16,.007v75.825A97.682,97.682,0,0,0,398.77,296h-1.436L371.88,234.91C363.043,213.7,341.577,200,317.193,200H184.029c-32.18,0-61.741,17.536-75.311,44.676L82.03,298.052c-30.92,6.823-53.579,30.19-57.535,61.459l-3.833,25.226A7.993,7.993,0,0,0,16,392v32a8,8,0,0,0,8,8H86.458a47.953,47.953,0,0,0,83.084,0H326.457a47.955,47.955,0,0,0,83.086,0H488a8,8,0,0,0,8-8V392A7.994,7.994,0,0,0,488.453,384.023ZM471.981,384H448V368h20.089ZM384,159.972a47.972,47.972,0,1,1,47.972,47.971A48.026,48.026,0,0,1,384,159.972ZM248,216h69.193c17.629,0,33.67,10.072,39.917,25.064L380,296H248ZM123.028,251.832c10.884-21.768,34.828-35.832,61-35.832H232v80H101.08c-.046,0-.091,0-.137,0ZM80.679,416H32V400H80.679a47.468,47.468,0,0,0,0,16ZM128,440a32,32,0,1,1,32-32A32.036,32.036,0,0,1,128,440Zm192.679-24H175.321a47.468,47.468,0,0,0,0-16H320.679a47.468,47.468,0,0,0,0,16ZM368,440a32,32,0,1,1,32-32A32.036,32.036,0,0,1,368,440Zm0-80a48.017,48.017,0,0,0-41.543,24H169.542a47.953,47.953,0,0,0-83.084,0h-49.5l3.372-22.188c.011-.07.02-.139.029-.209C44.01,332.4,68.979,312,101.08,312H398.77a79.121,79.121,0,0,1,30.189,5.739c16.2,6.659,28.331,18.721,34.652,34.261H440a8,8,0,0,0-8,8v24H409.543A48.017,48.017,0,0,0,368,360Zm112,56H415.321a47.468,47.468,0,0,0,0-16H480Z"/><path d="M24,456a8,8,0,0,0,0,16H488a8,8,0,0,0,0-16H24Z"/><path d="M463.943,159.972a31.972,31.972,0,1,0-31.971,31.971A32.008,32.008,0,0,0,463.943,159.972Zm-47.943,0a15.972,15.972,0,1,1,15.972,15.971A15.99,15.99,0,0,1,416,159.972Z"/><path d="M272,328H256a8,8,0,0,0,0,16h16a8,8,0,0,0,0-16Z"/></svg>
