<?xml version="1.0" encoding="iso-8859-1"?>
<!-- Generator: Adobe Illustrator 19.0.0, SVG Export Plug-In . SVG Version: 6.00 Build 0)  -->
<svg version="1.1" id="Capa_1" xmlns="http://www.w3.org/2000/svg" xmlns:xlink="http://www.w3.org/1999/xlink" x="0px" y="0px"
	 viewBox="0 0 512 512" style="enable-background:new 0 0 512 512;" xml:space="preserve">
<g>
	<g>
		<path d="M242.696,59.715v154.016h-65.972L0,59.715v154.016v15.001v223.553h512V294.414L242.696,59.715z M352.466,195.174
			l49.766,43.371v96.249l-49.766-43.371V195.174z M272.698,125.658l49.766,43.371v96.249l-49.766-43.371V125.658z M109.768,195.175
			l21.292,18.556h-21.292V195.175z M109.768,243.732h49.766v91.063l-49.766-43.371V243.732z M30.001,125.657l49.765,43.371v44.703
			H30.001V125.657z M79.768,243.732v21.545l-24.722-21.545H79.768z M30.001,422.284V261.703l184.257,160.581H30.001z
			 M239.302,404.313l-49.766-43.371v-96.25h0l49.766,43.371V404.313z M269.304,422.284v-127.87l-58.155-50.682h40.929v0.001
			l204.877,178.551H269.304z M481.999,404.313l-49.765-43.371v-96.25l49.765,43.371V404.313z"/>
	</g>
</g>
<g>
</g>
<g>
</g>
<g>
</g>
<g>
</g>
<g>
</g>
<g>
</g>
<g>
</g>
<g>
</g>
<g>
</g>
<g>
</g>
<g>
</g>
<g>
</g>
<g>
</g>
<g>
</g>
<g>
</g>
</svg>
