<svg id="Capa_1" enable-background="new 0 0 512 512" height="512" viewBox="0 0 512 512" width="512" xmlns="http://www.w3.org/2000/svg"><g><g><path d="m270.482 81.98c0 24.928 20.281 45.208 45.209 45.208 24.929 0 45.209-20.281 45.209-45.208 0-24.929-20.281-45.209-45.209-45.209s-45.209 20.281-45.209 45.209zm75.389 0c0 16.641-13.539 30.179-30.18 30.179s-30.18-13.538-30.18-30.179 13.539-30.18 30.18-30.18c16.642 0 30.18 13.54 30.18 30.18z"/><path d="m429.035 195.128h-4.768v-68.752c0-4.151-3.365-7.515-7.515-7.515s-7.515 3.364-7.515 7.515v68.752h-47.319c-3.579 0-6.943-1.393-9.474-3.925l-56.122-56.121c-5.369-5.37-12.508-8.327-20.102-8.327l-96.695-.001c-7.593 0-14.732 2.957-20.101 8.326l-25.872 25.872v-133.398c0-6.906 5.618-12.524 12.524-12.524h250.635c6.906 0 12.525 5.618 12.525 12.524v68.764c0 4.151 3.364 7.515 7.515 7.515 4.15 0 7.515-3.364 7.515-7.515v-68.764c.001-15.193-12.36-27.554-27.553-27.554h-250.636c-15.193 0-27.554 12.361-27.554 27.554v148.428l-18.809 18.809c-5.37 5.37-8.327 12.509-8.327 20.103s2.957 14.733 8.327 20.104c5.214 5.214 11.966 7.973 18.809 8.282v51.132h-35.558c-15.676 0-28.43 12.754-28.43 28.429 0 15.676 12.753 28.43 28.43 28.43h35.559v60.991c0 4.151 3.364 7.515 7.515 7.515 4.15 0 7.515-3.364 7.515-7.515v-60.991h63.327c15.675 0 28.428-12.752 28.428-28.428v-10.02l37.116 37.116c2.531 2.53 3.924 5.894 3.924 9.474v92.489c0 15.676 12.753 28.429 28.429 28.429s28.429-12.753 28.429-28.429v-49.322c0-4.151-3.365-7.515-7.515-7.515s-7.515 3.364-7.515 7.515v49.321c0 7.388-6.011 13.4-13.4 13.4s-13.4-6.012-13.4-13.4v-92.489c0-7.594-2.957-14.733-8.326-20.102l-49.944-49.944c-4.641-4.64-12.828-1.233-12.828 5.314v28.161c0 7.387-6.01 13.398-13.398 13.398h-113.916c-7.389 0-13.4-6.012-13.4-13.4 0-7.389 6.011-13.399 13.4-13.399h92.998c4.15 0 7.515-3.364 7.515-7.515v-54.055c0-3.579 1.393-6.943 3.924-9.474l56.984-56.984c4.64-4.641 1.235-12.829-5.314-12.829h-42.22c-7.593 0-14.732 2.957-20.101 8.326l-47.459 47.459c-5.224 5.224-13.726 5.225-18.95.001-5.165-5.165-5.166-13.786 0-18.951l59.71-59.71c2.531-2.531 5.895-3.925 9.474-3.925l96.695.001c3.579 0 6.944 1.393 9.474 3.925l56.122 56.122c5.369 5.369 12.508 8.326 20.101 8.326h67.116c7.389 0 13.4 6.011 13.4 13.399s-6.011 13.4-13.4 13.4h-84.443c-3.578 0-6.943-1.393-9.474-3.925l-29.173-29.173c-2.893-2.893-7.734-2.893-10.627 0l-54.595 54.595c-2.893 2.894-2.893 7.734 0 10.628l63.53 63.529c2.53 2.53 3.924 5.894 3.924 9.474v30.436c0 4.151 3.365 7.515 7.515 7.515s7.515-3.364 7.515-7.515v-30.436c0-7.594-2.957-14.733-8.326-20.102l-58.216-58.215 43.968-43.968 23.86 23.86c5.369 5.369 12.508 8.326 20.101 8.326h64.645v232.46c0 6.906-5.618 12.525-12.525 12.525h-250.636c-6.906 0-12.524-5.618-12.524-12.525v-42.127c0-4.151-3.365-7.515-7.515-7.515s-7.515 3.364-7.515 7.515v42.127c0 15.193 12.361 27.554 27.554 27.554h250.635c15.193 0 27.554-12.361 27.554-27.554v-232.46h4.768c15.676 0 28.43-12.753 28.43-28.43.001-15.673-12.753-28.427-28.429-28.427zm-241.657-7.59c2.531-2.531 5.895-3.925 9.474-3.925h24.078l-44.155 44.156c-5.37 5.369-8.327 12.508-8.327 20.102v46.54h-34.896v-54.633c2.284-1.259 4.433-2.847 6.367-4.781z"/></g></g></svg>