<svg xmlns="http://www.w3.org/2000/svg" width="41.974" height="48.307" viewBox="0 0 41.974 48.307"><defs><style>.a{fill:#6dde94;}</style></defs><g transform="translate(-14.05 -10.85)"><path class="a" d="M35.12,31.57A10.36,10.36,0,1,0,24.77,21.21,10.36,10.36,0,0,0,35.12,31.57Zm0-18.18A7.94,7.94,0,1,1,29.5,15.712,7.95,7.95,0,0,1,35.12,13.39Z"/><path class="a" d="M40.3,34.46a43.83,43.83,0,0,0-10.6,0C20.55,35.9,14.05,41.08,14.05,47.1V57.94a1.21,1.21,0,0,0,2.41,0V47.1c0-4.7,5.42-8.91,13.24-10.23a35.14,35.14,0,0,1,10.84,0c7.82,1.32,13.24,5.53,13.24,10.23V57.94a1.08,1.08,0,0,0,1.06,1.2A1,1,0,0,0,56,57.94V47.1C56,41.2,49.57,35.9,40.3,34.46Z"/><rect class="a" width="8.52" height="5.52" rx="1.03" transform="translate(38.81 45.13)"/></g></svg>