<svg xmlns="http://www.w3.org/2000/svg" viewBox="0 0 70 70"><defs></defs><title>05_access_type_v1</title><g id="Layer_84" data-name="Layer 84"><path  d="M51.58,22.33H18.42a3.83,3.83,0,0,0-3.82,3.83V43.84a3.83,3.83,0,0,0,3.82,3.83H51.58a3.83,3.83,0,0,0,3.82-3.83V26.16A3.83,3.83,0,0,0,51.58,22.33Zm-33.16,2H51.58a1.83,1.83,0,0,1,1.82,1.83V37.49H16.6V26.16A1.83,1.83,0,0,1,18.42,24.33ZM51.58,45.67H18.42a1.83,1.83,0,0,1-1.82-1.83V42.48H53.4v1.36A1.83,1.83,0,0,1,51.58,45.67Z"/><path  d="M24.39,32.91h3.75a2.5,2.5,0,0,0,0-5H24.39a2.5,2.5,0,0,0,0,5Z"/><path  d="M21.74,17H43.08v2l5.18-3-5.18-3v2H21.74a1,1,0,0,0,0,2Z"/><path  d="M48.26,53H26.92V51l-5.18,3,5.18,3V55H48.26a1,1,0,0,0,0-2Z"/></g></svg>