<svg xmlns="http://www.w3.org/2000/svg" viewBox="0 0 70 70"><defs></defs><title>05_access_type_v1</title><g id="Layer_84" data-name="Layer 84"><path  d="M54.81,46.12,38.72,30l3.68-3.69a6,6,0,0,0,0-8.48L40.53,16A16.3,16.3,0,0,0,17.48,39l1.88,1.88a6,6,0,0,0,8.48,0l3.68-3.69.66.65a2.6,2.6,0,0,1,.75,1.88l0,.62a4.56,4.56,0,0,0,4.84,4.68l.36,0a2.54,2.54,0,0,1,2,.74l.83.83a2.63,2.63,0,0,1,.73,1.49l.13,1.11a4.55,4.55,0,0,0,4.62,4,2.59,2.59,0,0,1,1.86.75l3,3a1,1,0,0,0,.71.29,1.05,1.05,0,0,0,.71-.29l2.18-2.19a6.08,6.08,0,0,0,0-8.6Zm-1.42,7.19-1.47,1.47-2.26-2.25a4.58,4.58,0,0,0-3.22-1.34h-.09A2.52,2.52,0,0,1,43.76,49l-.14-1.12a4.6,4.6,0,0,0-1.3-2.65l-.83-.83A4.54,4.54,0,0,0,38,43l-.35,0a2.57,2.57,0,0,1-2.72-2.63l0-.62a4.56,4.56,0,0,0-1.34-3.35L32.23,35.1a1,1,0,0,0-1.41,0l-4.4,4.39a4,4,0,0,1-5.65,0L18.9,37.62a14.3,14.3,0,0,1,0-20.22,14.33,14.33,0,0,1,20.21,0L41,19.27a4,4,0,0,1,0,5.66L36.6,29.32a1,1,0,0,0-.3.71,1,1,0,0,0,.3.7l16.79,16.8a4.08,4.08,0,0,1,0,5.78Z"/><path  d="M21.44,20a4.59,4.59,0,1,0,6.5,0A4.59,4.59,0,0,0,21.44,20ZM26.52,25a2.59,2.59,0,1,1-3.66-3.67,2.58,2.58,0,0,1,3.66,0A2.6,2.6,0,0,1,26.52,25Z"/><path  d="M35.12,32.21a1,1,0,0,0-1.42,0,1,1,0,0,0,0,1.41L51,50.75a1,1,0,0,0,.71.29,1,1,0,0,0,.7-.3,1,1,0,0,0,0-1.41Z"/></g></svg>