<svg id="Layer_3" enable-background="new 0 0 64 64" height="512" viewBox="0 0 64 64" width="512" xmlns="http://www.w3.org/2000/svg"><path d="m63 43v-1c0-1.654-1.346-3-3-3s-3 1.346-3 3v3h-6v-3c0-.552.448-1 1-1s1 .448 1 1v1h2v-1c0-1.654-1.346-3-3-3s-3 1.346-3 3v7h-2v-16h1c.553 0 1-.448 1-1v-3h5c.553 0 1-.448 1-1v-10c0-.552-.447-1-1-1h-7v-6h1c.553 0 1-.448 1-1v-8c0-.552-.447-1-1-1h-46c-.553 0-1 .448-1 1v8c0 .552.447 1 1 1h1v16h-1c-.553 0-1 .448-1 1v4c0 .552.447 1 1 1h1v20h-1c-.553 0-1 .447-1 1v8c0 .553.447 1 1 1h60c.553 0 1-.447 1-1v-8c0-.553-.447-1-1-1h-1v-3c0-.553-.447-1-1-1h-1v-7c0-.552.448-1 1-1s1 .448 1 1v1zm-15-16h-1v-2h6v2zm5-4h-2v-4h2zm-4-4v4h-2v-4zm-46-16h44v6h-44zm2 8h40v16h-40zm-2 18h43 1v2h-44zm2 4h40v16h-15c-.553 0-1 .447-1 1v3h-8v-13c0-.553-.447-1-1-1h-12c-.553 0-1 .447-1 1v13h-2zm14 20h-10v-12h10zm42 8h-58v-6h58zm-30-8v-2h28v2zm20-4v-2h6v2z"/><path d="m24 47h18c.553 0 1-.447 1-1v-10c0-.553-.447-1-1-1h-18c-.553 0-1 .447-1 1v10c0 .553.447 1 1 1zm1-10h16v8h-16z"/><path d="m11 45h2v4h-2z"/><path d="m27.172 40h5.657v2h-5.657z" transform="matrix(.707 -.707 .707 .707 -20.205 33.222)"/><path d="m12.172 18h5.657v2h-5.657z" transform="matrix(.707 -.707 .707 .707 -9.042 16.172)"/><path d="m22.172 18h5.657v2h-5.657z" transform="matrix(.707 -.707 .707 .707 -6.113 23.243)"/><path d="m32.172 18h5.657v2h-5.657z" transform="matrix(.707 -.707 .707 .707 -3.184 30.314)"/><path d="m33.172 40h5.657v2h-5.657z" transform="matrix(.707 -.707 .707 .707 -18.447 37.465)"/><path d="m42 13h-34c-.553 0-1 .448-1 1v10c0 .552.447 1 1 1h34c.553 0 1-.448 1-1v-10c0-.552-.447-1-1-1zm-1 10h-32v-8h32z"/></svg>