<?xml version="1.0" encoding="iso-8859-1"?>
<!-- Generator: Adobe Illustrator 21.0.0, SVG Export Plug-In . SVG Version: 6.00 Build 0)  -->
<svg xmlns="http://www.w3.org/2000/svg" xmlns:xlink="http://www.w3.org/1999/xlink" version="1.1" id="Capa_1" x="0px" y="0px" viewBox="0 0 512.003 512.003" style="enable-background:new 0 0 512.003 512.003;" xml:space="preserve" width="512" height="512">
<g>
	<path d="M105.751,90c24.813,0,45-20.187,45-45s-20.187-45-45-45s-45,20.187-45,45S80.938,90,105.751,90z M105.751,30   c8.271,0,15,6.729,15,15s-6.729,15-15,15s-15-6.729-15-15S97.48,30,105.751,30z"/>
	<path d="M225.751,90c24.813,0,45-20.187,45-45s-20.187-45-45-45s-45,20.187-45,45S200.938,90,225.751,90z M225.751,30   c8.271,0,15,6.729,15,15s-6.729,15-15,15s-15-6.729-15-15S217.48,30,225.751,30z"/>
	<path d="M345.751,90c24.813,0,45-20.187,45-45s-20.187-45-45-45s-45,20.187-45,45S320.938,90,345.751,90z M345.751,30   c8.271,0,15,6.729,15,15s-6.729,15-15,15s-15-6.729-15-15S337.48,30,345.751,30z"/>
	<path d="M105.751,210c24.813,0,45-20.187,45-45s-20.187-45-45-45s-45,20.187-45,45S80.938,210,105.751,210z M105.751,150   c8.271,0,15,6.729,15,15s-6.729,15-15,15s-15-6.729-15-15S97.48,150,105.751,150z"/>
	<path d="M345.751,210c24.813,0,45-20.187,45-45s-20.187-45-45-45s-45,20.187-45,45S320.938,210,345.751,210z M345.751,150   c8.271,0,15,6.729,15,15s-6.729,15-15,15s-15-6.729-15-15S337.48,150,345.751,150z"/>
	<path d="M150.751,285c0-24.813-20.187-45-45-45s-45,20.187-45,45s20.187,45,45,45S150.751,309.813,150.751,285z M105.751,299.999   c-8.271,0-15-6.729-15-15s6.729-15,15-15s15,6.729,15,15S114.023,299.999,105.751,299.999z"/>
	<path d="M406.234,242.584c-11.522,0-22.047,4.351-30.019,11.497c-7.971-7.146-18.495-11.497-30.018-11.497   s-22.047,4.351-30.019,11.497c-7.971-7.146-18.495-11.497-30.018-11.497c-5.248,0-10.292,0.896-14.982,2.546v-71.276   c0-24.823-20.195-45.018-45.019-45.018s-45.018,20.195-45.018,45.018c0,35.192,0.022,81.063,0.047,131.366l0.009,19.238   c-16.361-6.865-35.985-3.647-49.285,9.653c-16.815,16.814-17.14,43.825-0.754,62.829c35.446,41.11,76.44,84.123,102.985,110.668   c2.813,2.813,6.628,4.394,10.606,4.394l191.5,0.001c3.979,0,7.793-1.581,10.606-4.394s4.394-6.628,4.394-10.606V287.602   C451.251,262.779,431.057,242.584,406.234,242.584z M421.251,482.003l-170.27-0.001c-26.152-26.361-64.082-66.354-97.102-104.651   c-5.241-6.079-7.184-15.597-0.754-22.025c5.85-5.849,15.366-5.848,21.214,0l11.267,11.267c4.292,4.292,10.746,5.573,16.35,3.25   c5.605-2.324,9.26-7.795,9.257-13.864c0,0-0.07-146.935-0.07-182.124c0-8.281,6.736-15.018,15.018-15.018   s15.019,6.737,15.019,15.018l0.002,132.019c0,8.284,6.716,15,15,15s15-6.716,15-15v-19.2c0.484-7.786,7.157-14.089,14.98-14.089   c8.28,0,15.018,6.737,15.018,15.018c0,0.483,0.072,18.271,0.072,18.271c0,8.284,6.716,15,15,15s15-6.716,15-15   c0,0-0.028-17.904-0.068-18.35c0.043-8.245,6.76-14.94,15.015-14.94c8.28,0,15.018,6.737,15.018,15.018   c0,0.336,0.036,18.271,0.036,18.271c0,8.284,6.716,15,15,15s15-6.716,15-15c0,0-0.036-18.177-0.036-18.271   c0-8.281,6.737-15.018,15.019-15.018c8.28,0,15.018,6.737,15.018,15.018V482.003z"/>
</g>















</svg>
