<svg height="488pt" viewBox="0 -3 488 488" width="488pt" xmlns="http://www.w3.org/2000/svg"><path d="m137.800781 482.675781h212.398438c14.355469-.015625 25.984375-11.648437 26-26v-307.402343c-.015625-14.351563-11.644531-25.984376-26-26h-212.398438c-14.355469.015624-25.984375 11.648437-26 26v307.402343c.015625 14.351563 11.644531 25.984375 26 26zm-14-333.402343c.007813-7.726563 6.269531-13.992188 14-14h212.398438c7.730469.007812 13.992187 6.273437 14 14v307.402343c-.007813 7.726563-6.269531 13.992188-14 14h-212.398438c-7.730469-.007812-13.992187-6.273437-14-14zm0 0"/><path d="m244 384.21875c44.871094 0 81.242188-36.375 81.242188-81.242188 0-44.871093-36.371094-81.242187-81.242188-81.242187s-81.242188 36.371094-81.242188 81.242187c.050782 44.847657 36.394532 81.191407 81.242188 81.242188zm0-150.484375c38.242188 0 69.242188 31 69.242188 69.242187 0 38.242188-31 69.242188-69.242188 69.242188s-69.242188-31-69.242188-69.242188c.042969-38.226562 31.019532-69.199218 69.242188-69.242187zm0 0"/><path d="m244 342.199219c21.664062 0 39.222656-17.5625 39.222656-39.222657 0-21.664062-17.558594-39.222656-39.222656-39.222656s-39.222656 17.558594-39.222656 39.222656c.023437 21.652344 17.570312 39.199219 39.222656 39.222657zm0-66.445313c15.035156 0 27.222656 12.1875 27.222656 27.222656 0 15.035157-12.1875 27.222657-27.222656 27.222657s-27.222656-12.1875-27.222656-27.222657c.015625-15.027343 12.195312-27.207031 27.222656-27.222656zm0 0"/><path d="m6 300.476562c4.164062 0 6.183594 2.199219 9.679688 6.40625 3.714843 4.476563 8.800781 10.601563 18.570312 10.601563 9.992188 0 15.144531-6.210937 18.910156-10.742187 3.515625-4.234376 5.382813-6.269532 9.335938-6.269532 4 0 6.023437 2.179688 9.53125 6.363282 3.769531 4.492187 8.9375 10.648437 18.71875 10.648437 3.316406 0 6-2.6875 6-6 0-3.316406-2.683594-6-6-6-4 0-6.019532-2.183594-9.527344-6.363281-3.773438-4.496094-8.9375-10.648438-18.722656-10.648438-9.765625 0-14.851563 6.128906-18.566406 10.601563-3.496094 4.207031-5.515626 6.40625-9.679688 6.40625-3.957031 0-5.824219-2.035157-9.339844-6.269531-3.761718-4.535157-8.917968-10.742188-18.910156-10.742188-3.3125 0-6 2.6875-6 6 0 3.316406 2.6875 6 6 6zm0 0"/><path d="m6 250.476562c4.164062 0 6.183594 2.199219 9.679688 6.40625 3.714843 4.476563 8.800781 10.601563 18.570312 10.601563 9.992188 0 15.144531-6.210937 18.910156-10.742187 3.515625-4.234376 5.382813-6.269532 9.335938-6.269532 4 0 6.023437 2.179688 9.53125 6.363282 3.769531 4.492187 8.9375 10.648437 18.71875 10.648437 3.316406 0 6-2.6875 6-6 0-3.316406-2.683594-6-6-6-4 0-6.019532-2.183594-9.527344-6.363281-3.773438-4.496094-8.9375-10.648438-18.722656-10.648438-9.765625 0-14.851563 6.128906-18.566406 10.601563-3.496094 4.207031-5.515626 6.40625-9.679688 6.40625-3.957031 0-5.824219-2.035157-9.339844-6.269531-3.761718-4.535157-8.917968-10.742188-18.910156-10.742188-3.3125 0-6 2.6875-6 6 0 3.316406 2.6875 6 6 6zm0 0"/><path d="m53.160156 356.746094c3.515625-4.234375 5.382813-6.269532 9.335938-6.269532 4 0 6.023437 2.179688 9.53125 6.363282 3.769531 4.492187 8.9375 10.648437 18.71875 10.648437 3.316406 0 6-2.6875 6-6 0-3.316406-2.683594-6-6-6-4 0-6.019532-2.183593-9.527344-6.363281-3.773438-4.496094-8.9375-10.648438-18.722656-10.648438-9.765625 0-14.851563 6.128907-18.566406 10.601563-3.496094 4.207031-5.515626 6.40625-9.679688 6.40625-3.957031 0-5.824219-2.035156-9.339844-6.269531-3.761718-4.535156-8.917968-10.742188-18.910156-10.742188-3.3125 0-6 2.6875-6 6 0 3.316406 2.6875 6 6 6 4.164062 0 6.183594 2.199219 9.679688 6.40625 3.714843 4.476563 8.800781 10.601563 18.570312 10.601563 9.992188.007812 15.148438-6.203125 18.910156-10.734375zm0 0"/><path d="m482 288.476562c-9.992188 0-15.148438 6.207032-18.910156 10.738282-3.515625 4.238281-5.382813 6.273437-9.339844 6.273437-4.164062 0-6.183594-2.203125-9.679688-6.410156-3.714843-4.472656-8.796874-10.597656-18.566406-10.597656-9.785156 0-14.949218 6.152343-18.722656 10.648437-3.507812 4.179688-5.523438 6.359375-9.527344 6.359375-3.316406 0-6 2.6875-6 6 0 3.316407 2.683594 6 6 6 9.78125 0 14.949219-6.152343 18.71875-10.648437 3.507813-4.179688 5.527344-6.359375 9.53125-6.359375 3.953125 0 5.820313 2.035156 9.335938 6.269531 3.765625 4.53125 8.917968 10.738281 18.910156 10.738281 9.765625 0 14.855469-6.128906 18.570312-10.597656 3.496094-4.210937 5.515626-6.40625 9.679688-6.40625 3.3125 0 6-2.6875 6-6s-2.6875-6-6-6zm0 0"/><path d="m482 238.476562c-9.992188 0-15.148438 6.207032-18.910156 10.738282-3.515625 4.238281-5.382813 6.273437-9.339844 6.273437-4.164062 0-6.183594-2.203125-9.679688-6.410156-3.714843-4.472656-8.796874-10.597656-18.566406-10.597656-9.785156 0-14.949218 6.152343-18.722656 10.648437-3.507812 4.179688-5.523438 6.359375-9.527344 6.359375-3.316406 0-6 2.6875-6 6 0 3.316407 2.683594 6 6 6 9.78125 0 14.949219-6.152343 18.71875-10.648437 3.507813-4.179688 5.527344-6.359375 9.53125-6.359375 3.953125 0 5.820313 2.035156 9.335938 6.269531 3.765625 4.53125 8.917968 10.738281 18.910156 10.738281 9.765625 0 14.855469-6.128906 18.570312-10.597656 3.496094-4.210937 5.515626-6.40625 9.679688-6.40625 3.3125 0 6-2.6875 6-6s-2.6875-6-6-6zm0 0"/><path d="m482 338.476562c-9.992188 0-15.148438 6.207032-18.910156 10.738282-3.515625 4.238281-5.382813 6.273437-9.339844 6.273437-4.164062 0-6.183594-2.203125-9.679688-6.410156-3.714843-4.472656-8.796874-10.597656-18.566406-10.597656-9.785156 0-14.949218 6.152343-18.722656 10.648437-3.507812 4.179688-5.523438 6.359375-9.527344 6.359375-3.316406 0-6 2.6875-6 6 0 3.316407 2.683594 6 6 6 9.78125 0 14.949219-6.152343 18.71875-10.648437 3.507813-4.179688 5.527344-6.359375 9.53125-6.359375 3.953125 0 5.820313 2.035156 9.335938 6.269531 3.765625 4.53125 8.917968 10.738281 18.910156 10.738281 9.765625 0 14.855469-6.128906 18.570312-10.597656 3.496094-4.210937 5.515626-6.40625 9.679688-6.40625 3.3125 0 6-2.6875 6-6s-2.6875-6-6-6zm0 0"/><path d="m386.230469 160.234375c3.632812 2.882813 8.144531 4.429687 12.78125 4.386719h.257812c10.191407-.121094 18.417969-7.382813 18.707031-16.324219.023438-.21875.03125-.433594.03125-.652344l-.5-42.929687 42.277344-10.957032.171875 14.621094c-2.238281-.757812-4.585937-1.136718-6.949219-1.121094-10.441406.125-18.847656 7.742188-18.738281 16.984376.105469 9.164062 8.550781 16.535156 18.875 16.535156h.253907c10.191406-.117188 18.421874-7.382813 18.710937-16.324219.019531-.21875.03125-.4375.03125-.65625l-.695313-59.113281c-.019531-1.84375-.886718-3.574219-2.351562-4.695313-1.464844-1.117187-3.363281-1.503906-5.148438-1.042969l-54.246093 14.050782c-2.671875.6875-4.53125 3.117187-4.5 5.878906l.625 53.296875c-2.242188-.738281-4.589844-1.101563-6.949219-1.070313-10.441406.121094-18.847656 7.738282-18.738281 16.976563.121093 4.757813 2.355469 9.214844 6.09375 12.15625zm73.902343-36.300781c.027344 2.535156-3.1875 4.800781-6.878906 4.839844-3.695312.042968-6.964844-2.144532-6.992187-4.679688-.03125-2.53125 3.183593-4.796875 6.878906-4.839844h.105469c3.652344 0 6.855468 2.167969 6.886718 4.679688zm-.601562-51.457032.101562 8.917969-42.28125 10.957031-.097656-8.917968zm-60.515625 70.625c1.917969-.0625 3.800781.535157 5.328125 1.699219.960938.707031 1.566406 1.792969 1.660156 2.976563.03125 2.535156-3.183594 4.800781-6.878906 4.84375-1.917969.058594-3.800781-.542969-5.328125-1.703125-.960937-.703125-1.566406-1.789063-1.660156-2.972657-.03125-2.539062 3.183593-4.800781 6.882812-4.84375zm0 0"/><path d="m301.980469 65.476562c.121093 4.757813 2.355469 9.214844 6.09375 12.15625 3.632812 2.882813 8.144531 4.433594 12.78125 4.386719h.253906c10.191406-.117187 18.421875-7.382812 18.710937-16.324219.023438-.214843.03125-.433593.03125-.652343l-.691406-59.113281c-.023437-1.84375-.890625-3.574219-2.355468-4.695313-1.464844-1.121094-3.359376-1.503906-5.144532-1.042969l-54.25 14.046875c-2.671875.691407-4.53125 3.117188-4.5 5.878907l.625 53.304687c-2.160156-.714844-4.417968-1.082031-6.691406-1.078125h-.257812c-10.441407.121094-18.847657 7.738281-18.738282 16.980469.121094 4.753906 2.355469 9.210937 6.09375 12.152343 3.632813 2.882813 8.144532 4.429688 12.78125 4.386719h.253906c10.191407-.121093 18.421876-7.382812 18.710938-16.324219.019531-.21875.03125-.4375.03125-.652343l-.5-42.929688 42.28125-10.960937.171875 14.578125c-2.242187-.742188-4.589844-1.105469-6.949219-1.074219-10.445312.121094-18.851562 7.738281-18.742187 16.976562zm-28.257813 23.546876c.03125 2.535156-3.1875 4.800781-6.878906 4.839843-1.917969.054688-3.800781-.542969-5.332031-1.699219-.957031-.703124-1.5625-1.789062-1.660157-2.976562-.03125-2.535156 3.183594-4.800781 6.878907-4.84375h.113281c1.878906-.035156 3.71875.5625 5.21875 1.703125.957031.703125 1.5625 1.789063 1.660156 2.976563zm11.351563-55.429688-.097657-8.917969 42.277344-10.957031.097656 8.917969zm41.117187 28.605469c.957032.703125 1.5625 1.789062 1.660156 2.976562.03125 2.535157-3.1875 4.800781-6.878906 4.839844-1.921875.0625-3.800781-.539063-5.332031-1.699219-.957031-.703125-1.566406-1.789062-1.660156-2.976562-.03125-2.535156 3.183593-4.800782 6.878906-4.839844 1.917969-.066406 3.804687.53125 5.332031 1.699219zm0 0"/></svg>