<?xml version="1.0" encoding="iso-8859-1"?>
<!-- Generator: Adobe Illustrator 19.0.0, SVG Export Plug-In . SVG Version: 6.00 Build 0)  -->
<svg version="1.1" id="Capa_1" xmlns="http://www.w3.org/2000/svg" xmlns:xlink="http://www.w3.org/1999/xlink" x="0px" y="0px"
	 viewBox="0 0 512 512" style="enable-background:new 0 0 512 512;" xml:space="preserve">
<g>
	<g>
		<path d="M336.325,330.942h-44.537v-50.099c0-9.65-7.851-17.5-17.5-17.5h-42.436c16.575-13.972,28.713-33.096,33.905-54.912
			c16.657-0.733,29.983-14.45,29.983-31.212v-10.384c0-15.811-11.856-28.906-27.18-30.959v-1.188V16.715
			C268.561,7.498,261.083,0,251.893,0h-84.059c-14.995,0-28.335,7.245-36.739,18.431h-21.337c-25.369,0-46.008,20.73-46.008,46.212
			v70.047v0.898h-1.629c-17.307,0-31.387,14.018-31.387,31.248v10.384c0,17.23,14.08,31.247,31.387,31.247h4.441
			c5.197,21.802,17.33,40.913,33.897,54.877H45.084c-9.649,0-17.5,7.85-17.5,17.5V494.5c0,9.649,7.851,17.5,17.5,17.5h229.203
			c9.649,0,17.5-7.851,17.5-17.5V461c0-4.143-3.357-7.5-7.5-7.5s-7.5,3.357-7.5,7.5v33.5c0,1.355-1.145,2.5-2.5,2.5H45.084
			c-1.355,0-2.5-1.145-2.5-2.5v-62.551c18.041,29.351,50.563,48.98,87.609,48.98c38.056,0,71.597-20.845,89.297-51.897
			c10.603-2.742,18.458-12.356,18.463-23.761c0-5.341-1.704-10.385-4.767-14.52c3.06-4.132,4.764-9.174,4.767-14.517
			c-0.001-1.64-0.18-3.246-0.491-4.812h39.325V421c0,4.143,3.357,7.5,7.5,7.5s7.5-3.357,7.5-7.5v-49.576h44.537
			c5.79,0,10.5-4.71,10.5-10.5v-19.481C346.825,335.652,342.115,330.942,336.325,330.942z M268.561,184.492V151.15
			c7,1.849,12.18,8.17,12.18,15.686v10.384c0,7.641-5.353,14.049-12.531,15.774C268.438,190.189,268.561,187.355,268.561,184.492z
			 M62.122,193.467c-9.036,0-16.387-7.288-16.387-16.247v-10.384c0-8.959,7.351-16.248,16.387-16.248h1.629v33.904
			c0,3.024,0.139,6.016,0.394,8.975H62.122z M109.759,33.431h13.872c-1.166,4.062-1.804,8.346-1.804,12.779v9.445
			c-10.238,2.666-19.188,6.386-26.772,11.157c-6.415,4.036-11.851,8.781-16.304,14.216c0,0,0-16.385,0-16.385
			C78.751,47.433,92.661,33.431,109.759,33.431z M78.751,184.492v-56.791c0-22.146,7.946-37.909,24.292-48.192
			c14.631-9.204,35.865-13.871,63.114-13.871c16,0,30.084,1.637,41.86,4.863c4.002,1.094,8.121-1.258,9.216-5.251
			c1.095-3.995-1.257-8.121-5.251-9.216c-13.068-3.581-28.486-5.396-45.825-5.396c-10.553,0-20.327,0.684-29.33,2.013v-6.44
			c0-17.209,13.91-31.21,31.008-31.21h84.059c0.92,0,1.668,0.769,1.668,1.715v64.386c-1.984-2.433-4.146-4.741-6.522-6.897
			c-3.066-2.783-7.81-2.554-10.595,0.513c-2.784,3.067-2.554,7.811,0.513,10.595c11.173,10.141,16.604,24.007,16.604,42.391v56.791
			c0,48.473-39.209,87.908-87.404,87.908C117.961,272.4,78.751,232.965,78.751,184.492z M185.477,285.541v2.935
			c0,12.749-10.467,23.121-23.332,23.121c-12.865,0-23.332-10.372-23.332-23.121v-4.82c8.709,2.429,17.875,3.744,27.344,3.744
			C172.762,287.4,179.216,286.747,185.477,285.541z M130.194,465.93c-48.308,0-87.609-39.055-87.609-87.059v-42.596
			c0-7.607,6.244-13.797,13.92-13.797c7.677,0,13.922,6.19,13.922,13.797v42.596c0,32.788,26.812,59.463,59.768,59.463
			c18.882,0,35.878-8.75,46.873-22.574c3.956,8.299,12.451,14.053,22.271,14.053l1.819,0.001
			C185.177,451.731,159.226,465.93,130.194,465.93z M213.306,414.817l-13.966-0.005c-5.317,0-9.643-4.28-9.643-9.541v-58.073
			c0-5.26,4.326-9.539,9.647-9.539l13.959-0.006c5.321,0.003,9.648,4.284,9.648,9.543c-0.001,3.324-1.723,6.359-4.607,8.121
			c-2.231,1.362-3.592,3.789-3.591,6.404c0.001,2.614,1.364,5.04,3.597,6.4c2.881,1.756,4.602,4.79,4.602,8.11
			c-0.002,3.324-1.725,6.359-4.606,8.119c-2.231,1.361-3.593,3.787-3.593,6.4c0.001,2.616,1.362,5.042,3.593,6.404
			c2.885,1.762,4.607,4.796,4.607,8.114C222.951,410.53,218.624,414.814,213.306,414.817z M231.746,330.944
			c-4.518-5.075-11.107-8.284-18.44-8.289l-13.964,0.006c-13.589,0-24.645,11.008-24.645,24.539v36.505
			c-0.014,0.091-0.033,0.179-0.044,0.271c-2.587,22.439-21.701,39.36-44.46,39.36c-24.685,0-44.768-19.946-44.768-44.463v-42.596
			c0-15.879-12.975-28.797-28.922-28.797c-5.043,0-9.787,1.295-13.92,3.565v-30.199c0.001-1.358,1.146-2.502,2.501-2.502h78.729
			v10.132c0,21.021,17.195,38.121,38.332,38.121c21.137,0,38.332-17.101,38.332-38.121v-7.022c2.604-0.934,5.156-1.975,7.658-3.109
			h66.152c1.355,0,2.5,1.145,2.5,2.5v50.099H231.746z M250.047,356.423h-13.899c1.17-2.877,1.803-5.993,1.804-9.224
			c0-0.421-0.011-0.84-0.032-1.257h12.127V356.423z M310.686,356.423h-45.639v-10.481h45.639V356.423z M331.825,356.424h-6.139
			v-10.481h6.139V356.424z"/>
	</g>
</g>
<g>
	<g>
		<path d="M174.014,157.3c-4.143,0-7.5,3.357-7.5,7.5v14.457h-5.098c-4.143,0-7.5,3.357-7.5,7.5c0.001,4.142,3.358,7.5,7.501,7.5
			h7.275c7.07,0,12.822-5.763,12.822-12.847V164.8C181.514,160.657,178.157,157.3,174.014,157.3z"/>
	</g>
</g>
<g>
	<g>
		<path d="M213.399,144.767c-4.143,0-7.5,3.357-7.5,7.5v12.477c0,4.143,3.357,7.5,7.5,7.5s7.5-3.357,7.5-7.5v-12.477
			C220.899,148.124,217.542,144.767,213.399,144.767z"/>
	</g>
</g>
<g>
	<g>
		<path d="M125.133,144.767c-4.143,0-7.5,3.357-7.5,7.5v12.477c0,4.143,3.358,7.5,7.5,7.5c4.143,0,7.5-3.357,7.5-7.5v-12.477
			C132.633,148.124,129.276,144.767,125.133,144.767z"/>
	</g>
</g>
<g>
	<g>
		<path d="M188.651,214.804h-46.52c-4.143,0-7.5,3.357-7.5,7.5c0,4.142,3.358,7.5,7.5,7.5h46.52c4.143,0,7.5-3.357,7.5-7.5
			S192.794,214.804,188.651,214.804z"/>
	</g>
</g>
<g>
	<g>
		<path d="M381.006,251.276h-16.66c-3.713,0-6.734-2.995-6.734-6.676c0-3.681,3.022-6.675,6.734-6.675h10.633
			c4.143,0,7.5-3.357,7.5-7.5s-3.357-7.5-7.5-7.5h-10.633c-11.984,0-21.734,9.724-21.734,21.675c0,11.952,9.75,21.676,21.734,21.676
			h16.66c3.713,0,6.734,2.995,6.734,6.676c0,3.681-3.021,6.675-6.734,6.675c-4.143,0-7.5,3.357-7.5,7.5c0,4.142,3.357,7.5,7.5,7.5
			H382c0.48,0,0.948-0.045,1.402-0.131c10.861-1.193,19.338-10.4,19.338-21.544C402.741,261,392.991,251.276,381.006,251.276z"/>
	</g>
</g>
<g>
	<g>
		<path d="M358.43,307.333h-11.025c-3.715,0-6.736-2.995-6.736-6.677c0-3.68,3.022-6.673,6.736-6.673c4.143,0,7.5-3.357,7.5-7.5
			s-3.357-7.5-7.5-7.5c-11.985,0-21.736,9.723-21.736,21.673c0,11.952,9.751,21.677,21.736,21.677h9.998v9.857
			c0,4.142,3.358,7.5,7.5,7.5c4.143,0,7.5-3.358,7.5-7.5v-10.771C372.403,313.652,366.134,307.333,358.43,307.333z"/>
	</g>
</g>
<g>
	<g>
		<path d="M440.939,123.047l39.798-39.523c2.373-2.356,3.679-5.497,3.679-8.846s-1.306-6.489-3.678-8.845l-24.561-24.396
			c-2.357-2.341-5.494-3.631-8.832-3.631s-6.475,1.29-8.833,3.632l-39.874,39.599l-39.869-39.6
			c-2.357-2.341-5.494-3.631-8.832-3.631s-6.475,1.29-8.833,3.632l-24.56,24.394c-2.372,2.356-3.678,5.497-3.678,8.846
			s1.306,6.489,3.678,8.845l39.796,39.525l-39.796,39.527c-2.372,2.355-3.679,5.497-3.679,8.845c0,3.349,1.307,6.49,3.679,8.846
			l24.561,24.394c2.357,2.341,5.494,3.631,8.832,3.631s6.475-1.29,8.833-3.632l39.868-39.598l39.873,39.597
			c2.357,2.343,5.495,3.633,8.833,3.633h0.001c3.337,0,6.474-1.289,8.833-3.632l24.559-24.392c2.373-2.356,3.679-5.497,3.679-8.846
			s-1.306-6.489-3.678-8.845L440.939,123.047z M447.344,192.29l-39.875-39.599c-2.358-2.341-5.494-3.631-8.832-3.631
			s-6.475,1.29-8.833,3.632l-39.868,39.598l-21.014-20.87l39.796-39.527c2.372-2.355,3.679-5.497,3.679-8.845
			c0-3.349-1.307-6.49-3.679-8.846l-39.795-39.524l21.013-20.871l39.869,39.6c2.357,2.341,5.494,3.631,8.832,3.631
			s6.475-1.29,8.833-3.632l39.874-39.599l21.013,20.871l-39.798,39.524c-2.373,2.356-3.679,5.497-3.679,8.846
			s1.306,6.489,3.678,8.845l39.799,39.529L447.344,192.29z"/>
	</g>
</g>
<g>
</g>
<g>
</g>
<g>
</g>
<g>
</g>
<g>
</g>
<g>
</g>
<g>
</g>
<g>
</g>
<g>
</g>
<g>
</g>
<g>
</g>
<g>
</g>
<g>
</g>
<g>
</g>
<g>
</g>
</svg>
