<svg xmlns="http://www.w3.org/2000/svg" viewBox="0 0 70 70"><defs></defs><title>02_Icons_sub_category_v1</title><g id="Layer_139" data-name="Layer 139"><path  d="M35.63,62.33H26.9c-8.87,0-15.75-14.88-15.75-27.69a1,1,0,0,1,2,0c0,13,6.81,25.69,13.75,25.69h8.73c6.93,0,13.74-12.72,13.74-25.69a1,1,0,0,1,2,0C51.37,47.45,44.49,62.33,35.63,62.33Z"/><path  d="M25.32,33.38a1,1,0,0,1-1-1,6.08,6.08,0,0,1,2.33-4.67c1-.94,1.73-1.68,1.73-3.23s-.76-2.3-1.73-3.24a6.07,6.07,0,0,1-2.33-4.66,6.08,6.08,0,0,1,2.33-4.67c1-.94,1.73-1.68,1.73-3.24a1,1,0,1,1,2,0,6.11,6.11,0,0,1-2.33,4.67c-1,.94-1.73,1.68-1.73,3.24s.76,2.29,1.73,3.23a6.11,6.11,0,0,1,2.33,4.67,6.1,6.1,0,0,1-2.33,4.66c-1,.94-1.73,1.68-1.73,3.24A1,1,0,0,1,25.32,33.38Z"/><path  d="M33.15,33.38a1,1,0,0,1-1-1,6.08,6.08,0,0,1,2.33-4.67c1-.94,1.72-1.68,1.72-3.23s-.76-2.3-1.72-3.24a6.07,6.07,0,0,1-2.33-4.66,6.08,6.08,0,0,1,2.33-4.67c1-.94,1.72-1.68,1.72-3.24a1,1,0,0,1,2,0,6.08,6.08,0,0,1-2.33,4.67c-1,.94-1.72,1.68-1.72,3.24s.76,2.29,1.72,3.23a5.84,5.84,0,0,1,0,9.33c-1,.94-1.72,1.68-1.72,3.24A1,1,0,0,1,33.15,33.38Z"/><path  d="M31.26,40.71c-10,0-20.11-2.09-20.11-6.07,0-2.61,4.14-4.08,7.62-4.86a1,1,0,0,1,.43,2c-4.44,1-6,2.28-6,2.9,0,1.38,6.39,4.07,18.11,4.07S49.37,36,49.37,34.64c0-.7-2-2.18-7.39-3.18a1,1,0,1,1,.37-2c4.11.76,9,2.27,9,5.14C51.37,38.62,41.25,40.71,31.26,40.71Z"/><path  d="M50.63,54A8.17,8.17,0,0,1,46,52.6a1,1,0,0,1-.27-1.38A1,1,0,0,1,47.16,51a6.22,6.22,0,1,0,3.47-11.37,1,1,0,0,1,0-2,8.22,8.22,0,1,1,0,16.43Z"/></g></svg>