<svg xmlns="http://www.w3.org/2000/svg" viewBox="0 0 70 70"><defs></defs><title>02_Icons_sub_category_v1</title><g id="Layer_5" data-name="Layer 5"><path  d="M22.21,40.78a3,3,0,1,0,0,6,3,3,0,0,0,3-3A3,3,0,0,0,22.21,40.78Zm0,4.19a1.2,1.2,0,1,1,1.19-1.19A1.15,1.15,0,0,1,22.21,45Z"/><path  d="M47.79,40.78a3,3,0,1,0,0,6,3,3,0,0,0,3-3A3,3,0,0,0,47.79,40.78Zm0,4.19a1.2,1.2,0,0,1,0-2.39,1.22,1.22,0,0,1,1.2,1.2A1.16,1.16,0,0,1,47.79,45Z"/><path  d="M29.6,40.51a.9.9,0,0,0-.9.9v4.73a.9.9,0,1,0,1.8,0V41.41A.9.9,0,0,0,29.6,40.51Z"/><path  d="M33.2,40.51a.9.9,0,0,0-.9.9v4.73a.9.9,0,0,0,1.8,0V41.41A.9.9,0,0,0,33.2,40.51Z"/><path  d="M36.8,40.51a.9.9,0,0,0-.9.9v4.73a.9.9,0,0,0,1.8,0V41.41A.9.9,0,0,0,36.8,40.51Z"/><path  d="M40.4,40.51a.9.9,0,0,0-.9.9v4.73a.9.9,0,1,0,1.8,0V41.41A.9.9,0,0,0,40.4,40.51Z"/><path  d="M55.27,9.76H14.73a3.68,3.68,0,0,0-3.68,3.68V46.6a3.19,3.19,0,0,0,3.19,3.18h.5v3c0,1,.79.77,1.77.77h.83v5.23a1.43,1.43,0,0,0,1.42,1.42H24.4a1.42,1.42,0,0,0,1.42-1.42V53.59H44.17v5.2a1.43,1.43,0,0,0,1.43,1.42h5.64a1.43,1.43,0,0,0,1.42-1.42v-5.2h.83a1.77,1.77,0,0,0,1.77-1.77v-2h.51A3.19,3.19,0,0,0,59,46.6V13.44A3.68,3.68,0,0,0,55.27,9.76ZM24,58.44H19.14V53.62H24Zm26.84,0H46V53.6h4.88ZM20.77,22.56h0a.28.28,0,0,1,.26-.21H48.92a.28.28,0,0,1,.26.21l2.36,11H18.46Zm28.1,29.23H45.06l-28.52,0,0-16,1-.4H52.47l1,.37,0,16ZM57,46.6a1.18,1.18,0,0,1-1.18,1.18h-.51v-12a1.75,1.75,0,0,0-1.13-1.65l-.71-.28L50.94,22.22a2.06,2.06,0,0,0-2-1.67H21a2.08,2.08,0,0,0-2,1.68L16.58,33.84l-.72.28a1.78,1.78,0,0,0-1.12,1.65v12h-.5a1.18,1.18,0,0,1-1.19-1.18V13.44a1.68,1.68,0,0,1,1.68-1.68H55.27A1.68,1.68,0,0,1,57,13.44Z"/></g></svg>