<svg xmlns="http://www.w3.org/2000/svg" viewBox="0 0 70 70"><defs></defs><title>01_Icons_category_v1</title><g id="Layer_27" data-name="Layer 27"><path  d="M54.7,33.13H12a.9.9,0,0,1-.9-.9v-5.4a.9.9,0,0,1,.9-.9H54.7a.9.9,0,0,1,.9.9v5.4A.9.9,0,0,1,54.7,33.13Zm-41.82-1.8H53.8v-3.6H12.88Z"/><path  d="M45.55,50.5H28.22a.9.9,0,1,1,0-1.8H45.55a.9.9,0,1,1,0,1.8Z"/><path  d="M51.66,50.5H45.55a.9.9,0,1,1,0-1.8h5.21V33.13H15.92v9a.9.9,0,1,1-1.8,0V32.23a.9.9,0,0,1,.9-.9H51.66a.9.9,0,0,1,.9.9V49.6A.9.9,0,0,1,51.66,50.5Z"/><path  d="M35.57,24.61a.9.9,0,0,1-.9-.9,7.34,7.34,0,0,0-14.68,0,.9.9,0,0,1-1.8,0,9.14,9.14,0,1,1,18.28,0A.9.9,0,0,1,35.57,24.61Z"/><path  d="M27.33,15.3a2,2,0,1,1,2-2A2,2,0,0,1,27.33,15.3Z"/><path  d="M18.37,58.65a7.29,7.29,0,1,1,7.28-7.28A7.3,7.3,0,0,1,18.37,58.65Zm0-12.77a5.49,5.49,0,1,0,5.48,5.49A5.49,5.49,0,0,0,18.37,45.88Z"/><path  d="M44.14,58.65a3.06,3.06,0,1,1,3.06-3.06A3.07,3.07,0,0,1,44.14,58.65Zm0-4.32a1.26,1.26,0,1,0,1.26,1.26A1.27,1.27,0,0,0,44.14,54.33Z"/><path  d="M54.7,27.73a.9.9,0,0,1-.63-1.54l1.75-1.75a.9.9,0,0,1,1.27,1.27l-1.75,1.76A.93.93,0,0,1,54.7,27.73Z"/><path  d="M58,26H56.46a.9.9,0,0,1,0-1.8H58A.9.9,0,0,1,58,26Z"/></g></svg>