<svg xmlns="http://www.w3.org/2000/svg" viewBox="0 0 70 70"><defs></defs><title>01_Icons_category_v1</title><g id="Layer_127" data-name="Layer 127"><path  d="M54.07,46.18l-9-6.9H29.77a3.76,3.76,0,0,1-3.7-3.7V15.38a3.76,3.76,0,0,1,3.7-3.7H59a3.76,3.76,0,0,1,3.7,3.7v20.3a3.76,3.76,0,0,1-3.7,3.7h-4.8v6.8Zm-24.3-32.5a1.75,1.75,0,0,0-1.7,1.7v20.3a1.75,1.75,0,0,0,1.7,1.7h16l6.4,4.8v-4.8H59a1.75,1.75,0,0,0,1.7-1.7V15.38a1.75,1.75,0,0,0-1.7-1.7Z"/><rect  x="33.37" y="20.88" width="16.2" height="2" rx="1"/><rect  x="33.37" y="27.48" width="21.9" height="2" rx="1"/><path  d="M38.55,41.72a1,1,0,0,0-.91.57,14.93,14.93,0,0,1-13.31,8.13,11.84,11.84,0,0,1-2.6-.2l-.5-.1-3,3.2v-4.2l-.6-.3a15,15,0,0,1,4.94-28.28,1.06,1.06,0,0,0,1-1h0a1.05,1.05,0,0,0-1.18-1,17,17,0,0,0-15,16.86,16.77,16.77,0,0,0,8.8,14.9v8.1l5.9-6.1a21.16,21.16,0,0,0,2.4.2,16.82,16.82,0,0,0,15-9.21,1,1,0,0,0-.92-1.49Z"/></g></svg>