<svg xmlns="http://www.w3.org/2000/svg" viewBox="0 0 70 70"><defs></defs><title>02_Icons_sub_category_v1</title><g id="Layer_64" data-name="Layer 64"><path  d="M35,28.58a9.81,9.81,0,1,1,9.81-9.81A9.82,9.82,0,0,1,35,28.58ZM35,11a7.81,7.81,0,1,0,7.81,7.81A7.81,7.81,0,0,0,35,11Z"/><path  d="M49.82,43.78a1,1,0,0,1-1-1C48.82,33.1,35.56,33,35,33s-13.82.11-13.82,9.79a1,1,0,0,1-2,0C19.18,33.47,29.12,31,35,31s15.82,2.48,15.82,11.79A1,1,0,0,1,49.82,43.78Z"/><path  d="M57.92,61a1,1,0,0,1-1-1v-8.4a1,1,0,0,1,1-1h1V47.7H11.08v2.94h1a1,1,0,0,1,1,1V60a1,1,0,1,1-2,0v-7.4h-1a1,1,0,0,1-1-1V46.7a1,1,0,0,1,1-1H59.92a1,1,0,0,1,1,1v4.94a1,1,0,0,1-1,1h-1V60A1,1,0,0,1,57.92,61Z"/><path  d="M57.92,52.64H12.08a1,1,0,1,1,0-2H57.92a1,1,0,0,1,0,2Z"/></g></svg>