<?xml version="1.0" encoding="utf-8"?>
<!-- Generator: Adobe Illustrator 23.0.3, SVG Export Plug-In . SVG Version: 6.00 Build 0)  -->
<svg version="1.1" id="Layer_1" xmlns="http://www.w3.org/2000/svg" xmlns:xlink="http://www.w3.org/1999/xlink" x="0px" y="0px"
	 viewBox="0 0 70 70" style="enable-background:new 0 0 70 70;" xml:space="preserve">
<style type="text/css">
	.st0{fill:#6ADD92;}
</style>
<title>02_Icons_sub_category_v1</title>
<g id="Layer_26">
	<path  d="M40.9,31.6H21.7c-0.5,0-0.9-0.4-0.9-0.9c0-0.5,0.4-0.9,0.9-0.9c0,0,0,0,0,0h19.2c0.5,0,0.9,0.4,0.9,0.9
		C41.8,31.2,41.4,31.6,40.9,31.6C40.9,31.6,40.9,31.6,40.9,31.6z"/>
	<path  d="M53.7,32.9c-0.5,0-0.9-0.4-0.9-0.9V16.8c0-0.5,0.4-0.9,0.9-0.9c0.5,0,0.9,0.4,0.9,0.9c0,0,0,0,0,0V32
		C54.6,32.5,54.2,32.9,53.7,32.9z"/>
	<path  d="M53.7,61.2H13.9c-0.5,0-0.9-0.4-0.9-0.9l0,0V9.7c0-0.5,0.4-0.9,0.9-0.9h32.8c0.5,0,0.9,0.4,0.9,0.9
		c0,0.5-0.4,0.9-0.9,0.9l0,0H14.8v48.8h38.1V47.6c0-0.5,0.4-0.9,0.9-0.9c0.5,0,0.9,0.4,0.9,0.9v12.7C54.6,60.8,54.2,61.2,53.7,61.2z
		"/>
	<path  d="M53.7,17.7h-7.1c-0.5,0-0.9-0.4-0.9-0.9c0,0,0,0,0,0V9.7c0-0.4,0.2-0.7,0.6-0.8c0.3-0.1,0.7-0.1,1,0.2l7.1,7.1
		c0.3,0.3,0.3,0.7,0.2,1C54.4,17.5,54.1,17.7,53.7,17.7z M47.6,15.9h4l-4-4V15.9z"/>
	<path  d="M29.6,24.9h-7.9c-0.5,0-0.9-0.4-0.9-0.9c0-0.5,0.4-0.9,0.9-0.9c0,0,0,0,0,0h7.9c0.5,0,0.9,0.4,0.9,0.9
		C30.5,24.5,30.1,24.9,29.6,24.9C29.6,24.9,29.6,24.9,29.6,24.9z"/>
	<path  d="M38.9,45.2H21.7c-0.5,0-0.9-0.4-0.9-0.9c0-0.5,0.4-0.9,0.9-0.9c0,0,0,0,0,0h17.2c0.5,0,0.9,0.4,0.9,0.9
		C39.8,44.8,39.4,45.2,38.9,45.2C38.9,45.2,38.9,45.2,38.9,45.2z"/>
	<path  d="M42.6,38.4H21.7c-0.5,0-0.9-0.4-0.9-0.9c0-0.5,0.4-0.9,0.9-0.9c0,0,0,0,0,0h20.9c0.5,0,0.9,0.4,0.9,0.9
		C43.5,38,43.1,38.4,42.6,38.4z"/>
	<path  d="M38,51.9H21.7c-0.5,0-0.9-0.4-0.9-0.9c0-0.5,0.4-0.9,0.9-0.9c0,0,0,0,0,0H38c0.5,0,0.9,0.4,0.9,0.9
		C38.9,51.5,38.5,51.9,38,51.9C38,51.9,38,51.9,38,51.9z"/>
	<path  d="M45.6,50.5c-0.2,0-0.5-0.1-0.6-0.3l-2.6-2.6c-0.3-0.4-0.3-0.9,0-1.3l10.6-10.7c0.4-0.3,0.9-0.3,1.3,0l2.6,2.6
		c0.4,0.4,0.4,0.9,0,1.3L46.2,50.2C46,50.4,45.8,50.5,45.6,50.5z M44.3,47l1.3,1.3l9.3-9.4l-1.3-1.3L44.3,47z"/>
	<path  d="M41.5,51.9c-0.2,0-0.5-0.1-0.6-0.3c-0.3-0.2-0.3-0.6-0.2-0.9l1.5-4c0.1-0.3,0.3-0.5,0.7-0.6
		c0.3-0.1,0.6,0,0.8,0.2l2.6,2.6c0.2,0.2,0.3,0.5,0.2,0.8c-0.1,0.3-0.3,0.5-0.6,0.7l-4,1.5C41.8,52,41.7,52,41.5,51.9z"/>
</g>
</svg>
