<svg xmlns="http://www.w3.org/2000/svg" viewBox="0 0 70 70"><defs></defs><title>02_Icons_sub_category_v1</title><g id="Layer_13" data-name="Layer 13"><path  d="M40.55,58.67H29.45a1,1,0,0,1-1-1V48.2a1,1,0,0,1,1-1h11.1a1,1,0,0,1,1,1v9.47A1,1,0,0,1,40.55,58.67Zm-10.1-2h9.1V49.2h-9.1Z"/><path  d="M41,49.2H29a3.21,3.21,0,0,1-3.2-3.2V44.56a9.87,9.87,0,0,0-2.09-5.87,14,14,0,1,1,22.52.06,9.66,9.66,0,0,0-2.05,5.8V46A3.21,3.21,0,0,1,41,49.2ZM35,18.3a13.33,13.33,0,0,0-1.41.08A12,12,0,0,0,25.33,37.5a11.9,11.9,0,0,1,2.48,7.06V46A1.2,1.2,0,0,0,29,47.2H41a1.2,1.2,0,0,0,1.2-1.2V44.55a11.64,11.64,0,0,1,2.45-7A12,12,0,0,0,35,18.3Z"/><path  d="M29.45,57.58a1,1,0,0,1-.3-2l11.11-3.46a1,1,0,1,1,.59,1.91L29.74,57.53A1,1,0,0,1,29.45,57.58Z"/><path  d="M29.45,53.75a1,1,0,0,1-.3-2l11.11-3.46a1,1,0,0,1,1.25.66,1,1,0,0,1-.66,1.25L29.74,53.71A1,1,0,0,1,29.45,53.75Z"/><path  d="M35,62.25a4.58,4.58,0,0,1-4.58-4.58,1,1,0,0,1,2,0,2.58,2.58,0,0,0,5.16,0,1,1,0,0,1,2,0A4.58,4.58,0,0,1,35,62.25Z"/><path  d="M25.31,31.29a1,1,0,0,1-1-1A10.7,10.7,0,0,1,35,19.6a1,1,0,0,1,0,2,8.7,8.7,0,0,0-8.69,8.69A1,1,0,0,1,25.31,31.29Z"/><path  d="M38.58,49.2H31.42a1,1,0,0,1-1-.85L29,39.21a1,1,0,0,1,1.43-1.05l2.86,1.42.92-1.15a1,1,0,0,1,1.56,0l.92,1.15,2.86-1.42A1,1,0,0,1,41,39.21l-1.42,9.14A1,1,0,0,1,38.58,49.2Zm-6.3-2h5.44l1-6.39-1.86.92a1,1,0,0,1-1.22-.27l-.64-.8-.64.8a1,1,0,0,1-1.22.27l-1.86-.92Z"/><path  d="M35,12.83a1,1,0,0,1-1-1V8.75a1,1,0,0,1,2,0v3.08A1,1,0,0,1,35,12.83Z"/><path  d="M47.89,18.17a1,1,0,0,1-.71-.29,1,1,0,0,1,0-1.41l2.18-2.18a1,1,0,0,1,1.41,1.41l-2.18,2.18A1,1,0,0,1,47.89,18.17Z"/><path  d="M56.29,31.05H53.21a1,1,0,0,1,0-2h3.08a1,1,0,0,1,0,2Z"/><path  d="M50,46.1a1,1,0,0,1-.7-.29l-2.18-2.18a1,1,0,1,1,1.41-1.41l2.18,2.18a1,1,0,0,1,0,1.41A1,1,0,0,1,50,46.1Z"/><path  d="M19.94,46.08a1,1,0,0,1-.71-.29,1,1,0,0,1,0-1.41l2.18-2.18a1,1,0,1,1,1.41,1.41l-2.18,2.18A1,1,0,0,1,19.94,46.08Z"/><path  d="M16.79,31H13.71a1,1,0,0,1,0-2h3.08a1,1,0,0,1,0,2Z"/><path  d="M22.13,18.15a1,1,0,0,1-.7-.29l-2.18-2.18a1,1,0,1,1,1.41-1.41l2.18,2.18a1,1,0,0,1,0,1.41A1,1,0,0,1,22.13,18.15Z"/></g></svg>