<svg xmlns="http://www.w3.org/2000/svg" viewBox="0 0 70 70"><defs></defs><title>02_Icons_sub_category_v1</title><g id="Layer_64" data-name="Layer 64"><path  d="M56.41,46.26H13.59a3,3,0,0,1-3-3V15.12a3,3,0,0,1,3-3H56.41a3,3,0,0,1,3,3V43.27A3,3,0,0,1,56.41,46.26ZM13.59,14.13a1,1,0,0,0-1,1V43.27a1,1,0,0,0,1,1H56.41a1,1,0,0,0,1-1V15.12a1,1,0,0,0-1-1Z"/><path  d="M43.83,30.2H25.1a1,1,0,0,1,0-2H43.83a1,1,0,0,1,0,2Z"/><path  d="M37.49,37.61a1,1,0,0,1-.71-.29,1,1,0,0,1,0-1.42l6.71-6.7-6.71-6.71a1,1,0,0,1,0-1.41,1,1,0,0,1,1.42,0l7.41,7.41a1,1,0,0,1,0,1.41L38.2,37.32A1,1,0,0,1,37.49,37.61Z"/><path  d="M17,61.36a1,1,0,0,1-1-1V48.76a1,1,0,0,1,2,0v11.6A1,1,0,0,1,17,61.36Z"/><path  d="M53,61.36a1,1,0,0,1-1-1V48.76a1,1,0,0,1,2,0v11.6A1,1,0,0,1,53,61.36Z"/></g></svg>