<svg xmlns="http://www.w3.org/2000/svg" viewBox="0 0 70 70"><defs></defs><title>01_Icons_category_v1</title><g id="Layer_87" data-name="Layer 87"><path  d="M55.7,22.72a5.24,5.24,0,1,1,5.24-5.24A5.25,5.25,0,0,1,55.7,22.72Zm0-8.54A3.3,3.3,0,1,0,59,17.48,3.3,3.3,0,0,0,55.7,14.18Z"/><path  d="M57.85,57.76a1,1,0,0,1-1-1V26.87a1,1,0,0,1,1.93,0V56.79A1,1,0,0,1,57.85,57.76Z"/><path  d="M53.56,57.76a1,1,0,0,1-1-1V26.87a1,1,0,0,1,1.93,0V56.79A1,1,0,0,1,53.56,57.76Z"/><path  d="M61.34,57.76H50.06a1,1,0,0,1,0-1.94H61.34a1,1,0,0,1,0,1.94Z"/><path  d="M60,26.91H51.43a1,1,0,1,1,0-1.93H60a1,1,0,1,1,0,1.93Z"/><path  d="M60,33.19H51.43a1,1,0,1,1,0-1.93H60a1,1,0,1,1,0,1.93Z"/><path  d="M14.3,22.72a5.24,5.24,0,1,1,5.24-5.24A5.25,5.25,0,0,1,14.3,22.72Zm0-8.54a3.3,3.3,0,1,0,3.3,3.3A3.31,3.31,0,0,0,14.3,14.18Z"/><path  d="M16.44,57.76a1,1,0,0,1-1-1V26.87a1,1,0,0,1,1.93,0V56.79A1,1,0,0,1,16.44,57.76Z"/><path  d="M12.15,57.76a1,1,0,0,1-1-1V26.87a1,1,0,0,1,1.93,0V56.79A1,1,0,0,1,12.15,57.76Z"/><path  d="M19.94,57.76H8.66a1,1,0,0,1,0-1.94H19.94a1,1,0,0,1,0,1.94Z"/><path  d="M18.57,26.91H10A1,1,0,1,1,10,25h8.54a1,1,0,1,1,0,1.93Z"/><path  d="M18.57,33.19H10a1,1,0,1,1,0-1.93h8.54a1,1,0,1,1,0,1.93Z"/><path  d="M35,43.68c-4.73,0-9.45-2.2-13.86-6.6a1,1,0,0,1,0-1.37,1,1,0,0,1,1.37,0c8,8.06,16.93,8.06,25,0a1,1,0,0,1,1.37,0,1,1,0,0,1,0,1.37C44.45,41.48,39.73,43.68,35,43.68Z"/></g></svg>