<svg xmlns="http://www.w3.org/2000/svg" viewBox="0 0 70 70"><defs></defs><title>02_Icons_sub_category_v1</title><g id="Layer_4" data-name="Layer 4"><path  d="M18.08,48.65a6.16,6.16,0,0,0-6.18,6.18,6.18,6.18,0,0,0,12.36,0A6.16,6.16,0,0,0,18.08,48.65Zm0,10.52a4.25,4.25,0,1,1,0-8.5,4.23,4.23,0,0,1,4.25,4.25A4.29,4.29,0,0,1,18.08,59.17Z"/><path  d="M50.41,48.65a6.17,6.17,0,0,0-6.19,6.18,6.19,6.19,0,0,0,12.37,0A6.16,6.16,0,0,0,50.41,48.65Zm0,10.52a4.25,4.25,0,1,1,4.25-4.25A4.29,4.29,0,0,1,50.41,59.17Z"/><path  d="M33.55,40.75a1,1,0,0,0,1-1V25.92a1,1,0,0,0-1-1h-20a1,1,0,0,0-1,1V39.79a1,1,0,0,0,1,1Zm-19-13.86h18V38.82h-18Z"/><path  d="M29.8,30.18H17.35a.92.92,0,0,0,0,1.84H29.8a.92.92,0,1,0,0-1.84Z"/><path  d="M46.65,19.58a1,1,0,0,1-.89-.55l-4-8h-30v4.29a1,1,0,0,1-2,0V10a1,1,0,0,1,1-1H42.35a1,1,0,0,1,.89.55l4.31,8.59a1,1,0,0,1-.9,1.45Z"/><path  d="M42.11,53.86h-.4a.5.5,0,0,1-.41-.24l0-.14V20.34A2.33,2.33,0,0,0,39,18H8.87a2.33,2.33,0,0,0-2.32,2.31V53.48a2.33,2.33,0,0,0,2.32,2.31h.77a1,1,0,0,0,0-1.93H8.78a.38.38,0,0,1-.39-.38V20.34A.38.38,0,0,1,8.78,20H38.91a.39.39,0,0,1,.39.38V53.48a.39.39,0,0,1-.39.38H26.71a1,1,0,1,0,0,1.93h15.4a1,1,0,1,0,0-1.93Z"/><path  d="M61,34.54a.52.52,0,0,1-.48-.29l-5.8-11.78a2.44,2.44,0,0,0-2.22-1.35H43.74a1,1,0,0,0-1,1h0a1,1,0,0,0,1,1h8.69a.54.54,0,0,1,.49.29l5.79,11.78a2.5,2.5,0,0,0,2.12,1.36H61a.46.46,0,0,1,.46.48V53.38a.48.48,0,0,1-.49.48H58.78a1,1,0,1,0,0,1.93h2.06a2.71,2.71,0,0,0,2.61-2.41V37A2.4,2.4,0,0,0,61,34.54Z"/></g></svg>