<svg xmlns="http://www.w3.org/2000/svg" viewBox="0 0 70 70"><defs></defs><title>02_Icons_sub_category_v1</title><g id="Layer_47" data-name="Layer 47"><path  d="M56.29,59H13.49a.94.94,0,0,1-1-1V34.47a1,1,0,0,1,2,0V57h40.8V34.47a1,1,0,0,1,2,0V58A1,1,0,0,1,56.29,59Z"/><path  d="M56.29,48.21H13.49a1,1,0,0,1,0-2h42.8a.94.94,0,0,1,1,1A1,1,0,0,1,56.29,48.21Z"/><path  d="M60,26.54H10a1.12,1.12,0,0,1-.87-.4A.94.94,0,0,1,9,25.26L13.35,11.7A1.08,1.08,0,0,1,14.4,11H55.6a1.08,1.08,0,0,1,1,.72L61,25.26a.94.94,0,0,1-.18.88A1.12,1.12,0,0,1,60,26.54Zm-48.48-2h47L54.79,13H15.21Z"/><path  d="M15,31.11a5.85,5.85,0,0,1-6.08-5.57,1.09,1.09,0,0,1,2.18,0A3.75,3.75,0,0,0,15,29.11a3.75,3.75,0,0,0,3.91-3.57,1.09,1.09,0,0,1,2.18,0A5.85,5.85,0,0,1,15,31.11Z"/><path  d="M25,31.11a5.85,5.85,0,0,1-6.08-5.57,1.09,1.09,0,0,1,2.18,0A3.75,3.75,0,0,0,25,29.11a3.75,3.75,0,0,0,3.9-3.57,1.1,1.1,0,0,1,2.19,0A5.85,5.85,0,0,1,25,31.11Z"/><path  d="M35,31.11a5.85,5.85,0,0,1-6.09-5.57,1.1,1.1,0,0,1,2.19,0,3.92,3.92,0,0,0,7.8,0,1.1,1.1,0,0,1,2.19,0A5.85,5.85,0,0,1,35,31.11Z"/><path  d="M45,31.11a5.85,5.85,0,0,1-6.09-5.57,1.1,1.1,0,0,1,2.19,0,3.92,3.92,0,0,0,7.8,0,1.09,1.09,0,0,1,2.18,0A5.85,5.85,0,0,1,45,31.11Z"/><path  d="M55,31.11a5.85,5.85,0,0,1-6.09-5.57,1.09,1.09,0,0,1,2.18,0,3.92,3.92,0,0,0,7.81,0,1.09,1.09,0,0,1,2.18,0A5.85,5.85,0,0,1,55,31.11Z"/><path  d="M50,26.54a1.06,1.06,0,0,1-1.07-.83L46.29,12.16A1,1,0,0,1,47.17,11a1.08,1.08,0,0,1,1.27.81l2.62,13.55a1,1,0,0,1-.89,1.16Z"/><path  d="M40,26.54a1.06,1.06,0,0,1-1.09-.94L38,12a1,1,0,0,1,1-1.06,1.06,1.06,0,0,1,1.15.94l.87,13.56a1,1,0,0,1-1,1.06Z"/><path  d="M30,26.54h-.07a1,1,0,0,1-1-1.06l.87-13.56A1.1,1.1,0,0,1,32,12L31.1,25.6A1.06,1.06,0,0,1,30,26.54Z"/><path  d="M20,26.54l-.19,0a1,1,0,0,1-.89-1.16l2.62-13.55A1.08,1.08,0,0,1,22.83,11a1,1,0,0,1,.88,1.16L21.09,25.71A1.06,1.06,0,0,1,20,26.54Z"/></g></svg>