<svg xmlns="http://www.w3.org/2000/svg" viewBox="0 0 70 70"><defs></defs><title>02_Icons_sub_category_v1</title><g id="Layer_139" data-name="Layer 139"><path  d="M37.82,60.63H32.18c-10.49,0-22.69-9.82-22.69-22.49a1,1,0,0,1,2,0c0,9.47,9,20.49,20.69,20.49h5.64c11.65,0,20.69-11,20.69-20.49a1,1,0,0,1,2,0C60.51,50.81,48.31,60.63,37.82,60.63Z"/><path  d="M24.2,37.36a1,1,0,0,1-1-1c0-2.59,1.34-3.89,2.52-5.05s1.92-1.87,1.92-3.61-.84-2.57-1.92-3.62-2.52-2.46-2.52-5,1.34-3.89,2.52-5,1.92-1.88,1.92-3.62a1,1,0,1,1,2,0c0,2.59-1.34,3.89-2.52,5.05S25.2,17.29,25.2,19s.85,2.58,1.92,3.62,2.52,2.46,2.52,5.05-1.34,3.89-2.52,5.05-1.92,1.87-1.92,3.61A1,1,0,0,1,24.2,37.36Z"/><path  d="M32.78,37.36a1,1,0,0,1-1-1c0-2.59,1.34-3.89,2.52-5.05s1.92-1.87,1.92-3.61-.84-2.57-1.92-3.62-2.52-2.46-2.52-5,1.34-3.89,2.52-5,1.92-1.88,1.92-3.62a1,1,0,1,1,2,0c0,2.59-1.34,3.89-2.52,5.05S33.78,17.29,33.78,19s.84,2.58,1.92,3.62,2.52,2.46,2.52,5.05-1.34,3.89-2.52,5.05-1.92,1.87-1.92,3.61A1,1,0,0,1,32.78,37.36Z"/><path  d="M41.36,37.36a1,1,0,0,1-1-1c0-2.59,1.34-3.89,2.52-5.05s1.92-1.87,1.92-3.61-.85-2.57-1.92-3.62-2.52-2.46-2.52-5,1.34-3.89,2.52-5,1.92-1.88,1.92-3.62a1,1,0,1,1,2,0c0,2.59-1.34,3.89-2.52,5.05S42.36,17.29,42.36,19s.84,2.58,1.92,3.62,2.52,2.46,2.52,5.05-1.34,3.89-2.52,5.05-1.92,1.87-1.92,3.61A1,1,0,0,1,41.36,37.36Z"/><path  d="M35,43.83c-9.48,0-25.51-1.2-25.51-5.69,0-.75,0-3,9.61-4.59a1,1,0,0,1,.31,2c-6.17,1-7.83,2.26-7.92,2.62.34,1.27,8.71,3.68,23.51,3.68s23.17-2.41,23.51-3.71c-.11-.4-2.12-1.84-9.66-2.85A1,1,0,0,1,48,34.15a1,1,0,0,1,1.13-.86c11.39,1.52,11.39,4,11.39,4.85C60.51,42.63,44.48,43.83,35,43.83Z"/></g></svg>