<svg xmlns="http://www.w3.org/2000/svg" viewBox="0 0 70 70"><defs></defs><title>02_Icons_sub_category_v1</title><g id="Layer_47" data-name="Layer 47"><path  d="M34.5,59.29a1.42,1.42,0,0,1-.6-.2c-1.1-.9-26.6-21-26.5-33.1.1-6.6,4.2-12.3,10-14,2.9-.8,10.2-1.6,17,8.1,4.3-7.2,10.6-10.6,17.1-9a14.54,14.54,0,0,1,11.1,14c.1,12.2-26.4,33.1-27.6,34C35,59.19,34.7,59.29,34.5,59.29ZM20.8,13.49a9,9,0,0,0-2.8.4c-5,1.4-8.5,6.4-8.6,12.1-.1,10.1,21.2,27.9,25.1,31,4-3.2,26.3-21.6,26.2-31.9A12.72,12.72,0,0,0,51.1,13c-6-1.5-11.7,2-15.7,9.4a1,1,0,0,1-.8.5,1.19,1.19,0,0,1-.9-.5C30,16.69,25.4,13.49,20.8,13.49Z"/><path  d="M37.34,47h0a1,1,0,0,1-1-.79L33.12,30.77l-3.5,11.86a1,1,0,0,1-1,.72,1,1,0,0,1-.94-.78l-1.86-8.3-1.13,2a1,1,0,0,1-.87.51h-4a1,1,0,0,1,0-2h3.42l2.12-3.69a1,1,0,0,1,1.85.28l1.58,7,3.53-12a1,1,0,0,1,1-.71,1,1,0,0,1,.94.79l3.08,14.68,2.29-10.87a1,1,0,0,1,.93-.79,1,1,0,0,1,1,.68l2.49,7.55,1.33-2.46a1,1,0,0,1,.88-.52h4a1,1,0,0,1,0,2h-3.4l-2.16,4a1,1,0,0,1-1,.52,1,1,0,0,1-.86-.68l-2.06-6.23L38.32,46.21A1,1,0,0,1,37.34,47Z"/></g></svg>