<svg xmlns="http://www.w3.org/2000/svg" viewBox="0 0 70 70"><defs></defs><title>01_Icons_category_v1</title><g id="Layer_125" data-name="Layer 125"><path  d="M34.06,59.92H26.28a1,1,0,0,1-1-1V51.14a1,1,0,0,1,1-1h7.78a1,1,0,0,1,1,1v7.78A1,1,0,0,1,34.06,59.92Zm-6.78-2h5.78V52.14H27.28Z"/><path  d="M41.84,59.92H34.06a1,1,0,0,1-1-1V51.14a1,1,0,0,1,1-1h7.78a1,1,0,0,1,1,1v7.78A1,1,0,0,1,41.84,59.92Zm-6.78-2h5.78V52.14H35.06Z"/><path  d="M38.89,52.14H31.11a1,1,0,0,1-1-1V43.35a1,1,0,0,1,1-1h7.78a1,1,0,0,1,1,1v7.79A1,1,0,0,1,38.89,52.14Zm-6.78-2h5.78V44.35H32.11Z"/><path  d="M50.9,59.92a1,1,0,0,1-1-1V34.18a1.44,1.44,0,0,0-1.43-1.44H21.53a1.44,1.44,0,0,0-1.43,1.44V58.92a1,1,0,0,1-2,0V34.18a3.44,3.44,0,0,1,3.43-3.44H48.47a3.44,3.44,0,0,1,3.43,3.44V58.92A1,1,0,0,1,50.9,59.92Z"/></g><g id="Layer_15" data-name="Layer 15"><path  d="M8.62,31.55a.91.91,0,0,1-.71-.34A.89.89,0,0,1,8.05,30L34.44,11a.9.9,0,0,1,1.12,0L62,30a.89.89,0,0,1,.14,1.26.9.9,0,0,1-1.27.14L35,12.86,9.18,31.35A.94.94,0,0,1,8.62,31.55Z"/><path  d="M57.57,59.92a.9.9,0,0,1-.9-.9V33a.9.9,0,0,1,1.8,0V59A.9.9,0,0,1,57.57,59.92Z"/><path  d="M12.43,59.92a.9.9,0,0,1-.9-.9V33a.9.9,0,0,1,1.8,0V59A.9.9,0,0,1,12.43,59.92Z"/></g></svg>