<?xml version="1.0" encoding="iso-8859-1"?>
<!-- Generator: Adobe Illustrator 19.0.0, SVG Export Plug-In . SVG Version: 6.00 Build 0)  -->
<svg version="1.1" id="Capa_1" xmlns="http://www.w3.org/2000/svg" xmlns:xlink="http://www.w3.org/1999/xlink" x="0px" y="0px"
	 viewBox="0 0 512.002 512.002" style="enable-background:new 0 0 512.002 512.002;" xml:space="preserve">
<g>
	<g>
		<path d="M272.501,65h-11.893l2.196-2.196c2.929-2.93,2.929-7.678,0-10.607c-2.929-2.928-7.678-2.928-10.606,0l-9.697,9.697
			l-9.697-9.697c-2.929-2.928-7.678-2.928-10.606,0c-2.929,2.93-2.929,7.678,0,10.607L224.394,65h-11.893
			c-4.142,0-7.5,3.357-7.5,7.5v60c0,4.143,3.358,7.5,7.5,7.5h60c4.142,0,7.5-3.357,7.5-7.5v-60
			C280.001,68.357,276.643,65,272.501,65z M235.001,125h-15V80h15V125z M265.001,125h-15V80h15V125z"/>
	</g>
</g>
<g>
	<g>
		<path d="M242.501,155c-4.142,0-7.5,3.357-7.5,7.5c0,12.406-10.093,22.5-22.5,22.5h-53.548c-3.274-11.528-13.889-20-26.452-20h-50
			c-12.703,0-23.418,8.661-26.562,20.385C27.314,188.654,5.001,213.014,5.001,242.5c0,23.265,14.243,44.221,35.336,53.06
			c-0.215,2.187-0.336,4.39-0.336,6.605V352.5c0,4.143,3.358,7.5,7.5,7.5h22.5v134.5c0,3.229,2.066,6.095,5.128,7.115l30,10
			c0.787,0.262,1.586,0.387,2.373,0.387c3.14,0,6.066-1.987,7.114-5.13c1.31-3.93-0.814-8.178-4.744-9.487L85,489.095V360h45v134.5
			c0,3.229,2.066,6.095,5.128,7.115l30,10c0.787,0.262,1.586,0.387,2.373,0.387c3.14,0,6.066-1.987,7.114-5.13
			c1.31-3.93-0.814-8.178-4.744-9.487l-24.872-8.29V360h52.5c4.142,0,7.5-3.357,7.5-7.5v-75c0-28.838-18.232-54.229-45-63.66V200
			h52.502c20.678,0,37.5-16.822,37.5-37.5C250.001,158.357,246.643,155,242.501,155z M55.001,259.759
			c-5.047,6.242-8.892,13.29-11.43,20.791c-14.177-7.088-23.57-21.806-23.57-38.05c0-20.875,15.132-38.27,35-41.824V259.759z
			 M190.001,277.5V345h-135v-42.835c0-12.785,4.661-25.109,13.125-34.703c1.208-1.37,1.875-3.135,1.875-4.962v-70
			c0-6.893,5.607-12.5,12.5-12.5h50c6.893,0,12.5,5.607,12.5,12.5v26.891c0,3.422,2.316,6.41,5.631,7.264
			C173.812,232.619,190.001,253.528,190.001,277.5z"/>
	</g>
</g>
<g>
	<g>
		<path d="M129.836,50.001c4.762-5.312,7.665-12.323,7.665-20.001c0-16.542-13.458-30-30-30s-30,13.458-30,30
			c0,7.678,2.903,14.689,7.665,20.001C67.357,58.41,55.001,76.536,55.001,97.5c0,28.948,23.551,52.5,52.5,52.5
			c28.949,0,52.5-23.552,52.5-52.5C160.001,76.536,147.645,58.41,129.836,50.001z M107.501,15c8.271,0,15,6.729,15,15
			s-6.729,15-15,15c-8.271,0-15-6.729-15-15S99.23,15,107.501,15z M107.501,135c-20.678,0-37.5-16.822-37.5-37.5
			S86.823,60,107.501,60c20.678,0,37.5,16.822,37.5,37.5S128.179,135,107.501,135z"/>
	</g>
</g>
<g>
	<g>
		<path d="M499.501,304.5h-106v-15.755c14.672-2.99,26.255-14.573,29.245-29.245h31.755c4.142,0,7.5-3.357,7.5-7.5
			s-3.358-7.5-7.5-7.5h-7.5v-49.791c0-0.029,0-32.709,0-32.709c0-12.406-10.093-22.5-22.5-22.5h-107
			c-12.407,0-22.5,10.094-22.5,22.5v32.681c0,0.029,0,49.819,0,49.819h-7.5c-4.142,0-7.5,3.357-7.5,7.5s3.358,7.5,7.5,7.5h31.755
			c2.99,14.672,14.573,26.255,29.245,29.245V304.5h-106c-4.142,0-7.5,3.357-7.5,7.5v192.5c0,4.143,3.358,7.5,7.5,7.5
			c4.142,0,7.5-3.357,7.5-7.5v-8.247c6.866-1.378,13.143-4.629,18.2-9.411c6.85,6.479,15.936,10.158,25.7,10.158
			c9.763,0,18.85-3.68,25.7-10.158c6.851,6.479,15.937,10.158,25.7,10.158c9.764,0,18.85-3.68,25.7-10.158
			c6.851,6.479,15.937,10.158,25.7,10.158c9.764,0,18.85-3.68,25.7-10.158c6.851,6.479,15.937,10.158,25.7,10.158
			s18.85-3.68,25.7-10.158c5.057,4.782,11.333,8.033,18.2,9.411v8.247c0,4.143,3.358,7.5,7.5,7.5c4.142,0,7.5-3.357,7.5-7.5V312
			C507.001,307.857,503.643,304.5,499.501,304.5z M310.001,162c0-4.136,3.364-7.5,7.5-7.5h107c4.136,0,7.5,3.364,7.5,7.5v30.267
			c-3.766,4.559-9.355,7.233-15.333,7.233c-6.68,0-12.88-3.33-16.586-8.907c-1.39-2.092-3.735-3.35-6.247-3.35
			s-4.856,1.257-6.247,3.349c-3.707,5.578-9.907,8.908-16.587,8.908s-12.88-3.33-16.587-8.908c-1.39-2.092-3.735-3.349-6.247-3.349
			s-4.857,1.258-6.247,3.35c-3.706,5.577-9.907,8.907-16.586,8.907c-5.978,0-11.567-2.674-15.333-7.233V162z M309.999,244.5v-33.559
			h0.002c4.702,2.301,9.924,3.559,15.333,3.559c8.507,0,16.569-3.077,22.833-8.503c6.264,5.427,14.326,8.503,22.833,8.503
			s16.569-3.076,22.833-8.503c6.264,5.426,14.326,8.503,22.833,8.503c5.409,0,10.632-1.258,15.333-3.559V244.5H309.999z
			 M334.791,259.5h72.42c-3.096,8.729-11.432,15-21.21,15h-30C346.224,274.5,337.887,268.229,334.791,259.5z M378.501,289.5v15h-15
			v-15H378.501z M492,480.724c-4.845-1.7-9.01-5.035-11.778-9.62c-1.357-2.249-3.793-3.624-6.421-3.624
			c-2.627,0-5.063,1.375-6.421,3.624C463.262,477.927,456.055,482,448.101,482s-15.161-4.073-19.279-10.896
			c-1.358-2.249-3.793-3.624-6.421-3.624s-5.063,1.375-6.421,3.624C411.862,477.927,404.655,482,396.701,482
			c-7.954,0-15.161-4.073-19.279-10.896c-1.358-2.249-3.793-3.624-6.421-3.624s-5.063,1.375-6.421,3.624
			C360.462,477.927,353.255,482,345.301,482c-7.954,0-15.161-4.073-19.279-10.896c-1.358-2.249-3.793-3.624-6.421-3.624
			s-5.063,1.375-6.421,3.624C309.062,477.927,301.854,482,293.901,482c-7.954,0-15.161-4.073-19.279-10.896
			c-1.357-2.249-3.793-3.624-6.421-3.624c-2.627,0-5.063,1.375-6.421,3.624c-2.767,4.584-6.933,7.92-11.779,9.62V349.5h34.965
			l27.928,55.854c1.271,2.541,3.867,4.146,6.708,4.146s5.438-1.605,6.708-4.146l27.926-55.854h33.529l27.928,55.854
			c1.271,2.541,3.867,4.146,6.708,4.146s5.438-1.605,6.708-4.146l27.926-55.854H492V480.724z M301.737,349.5h35.729l-17.864,35.729
			L301.737,349.5z M404.536,349.5h35.73l-17.864,35.729L404.536,349.5z M492.001,334.5h-242v-15h242V334.5z"/>
	</g>
</g>
<g>
</g>
<g>
</g>
<g>
</g>
<g>
</g>
<g>
</g>
<g>
</g>
<g>
</g>
<g>
</g>
<g>
</g>
<g>
</g>
<g>
</g>
<g>
</g>
<g>
</g>
<g>
</g>
<g>
</g>
</svg>
