<svg height="512" viewBox="0 0 128 128" width="512" xmlns="http://www.w3.org/2000/svg"><g><path d="m83.908 31.758a5.266 5.266 0 0 0 -7.527 7.366l-16.543 16.543a12.578 12.578 0 0 1 -10.486 3.576 16.147 16.147 0 0 0 -13.478 4.564l-34.355 34.356a5.19 5.19 0 0 0 0 7.331l20.981 20.985a5.186 5.186 0 0 0 7.332 0l34.358-34.356a16.154 16.154 0 0 0 4.564-13.478 12.581 12.581 0 0 1 3.576-10.486l16.544-16.543a5.266 5.266 0 0 0 7.365-7.528zm-56.264 45.229 5.244 5.244a1.749 1.749 0 0 0 2.428.045 7.362 7.362 0 0 1 10.4 10.405 1.749 1.749 0 0 0 .045 2.428l5.244 5.245-9.421 9.421-5.245-5.244a1.75 1.75 0 0 0 -2.429-.045 7.361 7.361 0 0 1 -10.4-10.4 1.751 1.751 0 0 0 -.045-2.429l-5.245-5.244zm-.284 47.013a1.725 1.725 0 0 1 -2.383 0l-20.984-20.98a1.689 1.689 0 0 1 0-2.383l11.754-11.754 4.144 4.143a10.864 10.864 0 0 0 15.08 15.081l4.143 4.143zm66.405-74.939a1.809 1.809 0 0 1 -2.5 0l-1.155-1.156a1.748 1.748 0 0 0 -2.474 0l-17.781 17.78a16.1 16.1 0 0 0 -4.57 13.422 12.638 12.638 0 0 1 -3.569 10.541l-8.231 8.231-4.143-4.143a10.864 10.864 0 0 0 -15.081-15.081l-4.143-4.143 8.231-8.23a12.647 12.647 0 0 1 8.907-3.677 12.285 12.285 0 0 1 1.634.108 16.1 16.1 0 0 0 13.422-4.572l17.781-17.779a1.752 1.752 0 0 0 0-2.475l-1.158-1.157a1.767 1.767 0 1 1 2.5-2.5l12.33 12.333a1.77 1.77 0 0 1 0 2.498z"/><path d="m126.1 11.2-.3-.3a9.464 9.464 0 0 0 -5.947-2.764 9.612 9.612 0 0 0 -2.759-5.936l-.223-.222a6.664 6.664 0 0 0 -4.664-1.978h-.022a6.475 6.475 0 0 0 -6.485 6.332l-.336 13.225a3 3 0 0 0 3 3.075h.075l13.226-.337a6.5 6.5 0 0 0 4.435-11.095zm-1.609 4.85a2.994 2.994 0 0 1 -2.912 2.743l-12.7.324.322-12.7a2.991 2.991 0 0 1 3-2.924h.01a3.141 3.141 0 0 1 2.189.955l.223.222a6.076 6.076 0 0 1 1.717 5.03 1.751 1.751 0 0 0 1.956 1.956 5.991 5.991 0 0 1 5.026 1.72l.3.3a2.99 2.99 0 0 1 .867 2.376z"/><path d="m92.856 35.141a1.752 1.752 0 0 0 2.475 0l8.374-8.374a1.75 1.75 0 1 0 -2.475-2.475l-8.374 8.374a1.751 1.751 0 0 0 0 2.475z"/><path d="m120.423 32.81-.236-.063a22.3 22.3 0 0 0 -21.5 5.748l2.476 2.475a18.78 18.78 0 0 1 18.117-4.843l.237.063a1.75 1.75 0 0 0 .908-3.38z"/><path d="m88.265 29.824a1.743 1.743 0 0 0 1.237-.513 22.292 22.292 0 0 0 5.748-21.501 1.75 1.75 0 1 0 -3.379.91 18.784 18.784 0 0 1 -4.844 18.116 1.751 1.751 0 0 0 1.238 2.988z"/></g></svg>