<svg id="icons" enable-background="new 0 0 64 64" height="512" viewBox="0 0 64 64" width="512" xmlns="http://www.w3.org/2000/svg"><path d="m60.5 0h-57c-.553 0-1 .447-1 1v36 21c0 .553.447 1 1 1h2.001v4c0 .553.447 1 1 1h50.998c.553 0 1-.447 1-1v-4h2.001c.553 0 1-.447 1-1v-21-36c0-.553-.447-1-1-1zm-15.983 26.999h3.029c.534 0 .969.435.969.969 0 .005.003.009.003.015s-.004.012-.004.019c0 1.654 1.346 3 3 3l2.002-.002c.552 0 1 .448 1 1s-.449 1.001-1.001 1.001h-8.998c-1.654 0-3-1.346-3-3 0-1.655 1.345-3.002 3-3.002zm-.029 9.001h-.011c-1.228-.016-2.279-.77-2.728-1.84.793.529 1.743.841 2.767.841h8.999c.004 0 .006-.002.01-.002.349-.001.679-.072.99-.184v.187c0 .547-.441.99-.986.998zm12.028-.998v-3.002c0-1.654-1.346-3-3-3l-2.002.001c-.552 0-1-.448-1-1 0-.005-.003-.009-.003-.015s.004-.012.004-.019c0-1.637-1.332-2.969-2.969-2.969h-3.029c-2.757 0-5 2.244-5 5.002v3.003c0 1.128.39 2.158 1.022 2.996h-6.138c1.301-1.271 2.111-3.043 2.111-5.001 0-3.859-3.141-6.999-7-6.999s-7 3.14-7 6.999c0 1.958.811 3.729 2.111 5.001h-3.179c.033-.162.051-.329.051-.5 0-.565-.195-1.081-.513-1.5.317-.419.513-.935.513-1.5s-.195-1.081-.513-1.5c.317-.419.513-.935.513-1.5 0-1.379-1.121-2.5-2.5-2.5h-8.995c-1.379 0-2.5 1.121-2.5 2.5 0 .565.195 1.081.513 1.5-.318.42-.513.936-.513 1.501s.195 1.081.513 1.5c-.318.419-.513.935-.513 1.5 0 .171.018.338.051.5h-3.051v-13.004h6.961c.014 0 .025.004.039.004.027 0 .055-.004.081-.004h16.874c.014 0 .025.004.039.004.007 0 .013-.004.02-.004h3.961c.007 0 .013.004.02.004.014 0 .025-.004.039-.004h6.923c.014 0 .025.004.039.004.007 0 .013-.004.02-.004h3.961c.007 0 .013.004.02.004.014 0 .025-.004.039-.004h6.923c.014 0 .025.004.039.004.007 0 .013-.004.02-.004h3.961c.007 0 .013.004.02.004.014 0 .025-.004.039-.004h4.962v13.004h-3.168c.111-.313.184-.646.184-.998zm-32.003-4.003c0-2.757 2.243-4.999 5-4.999s5 2.242 5 4.999c0 2.758-2.243 5.001-5 5.001s-5-2.243-5-5.001zm-14.513 5.001c-.275 0-.5-.225-.5-.5s.225-.5.5-.5h8.996c.275 0 .5.225.5.5s-.225.5-.5.5zm-.5-6.5c0-.275.225-.5.5-.5h8.996c.275 0 .5.225.5.5s-.225.5-.5.5h-8.996c-.275 0-.5-.225-.5-.5zm.5 3.5c-.275 0-.5-.225-.5-.5s.225-.5.5-.5h8.996c.275 0 .5.225.5.5s-.225.5-.5.5zm40.477-12.004c-.542-.011-.98-.451-.98-.996 0-.552.448-1 1-1h4c.552 0 1 .448 1 1 0 .545-.438.985-.98.996zm-11.001 0c-.542-.011-.98-.451-.98-.996 0-.552.448-1 1-1h4c.552 0 1 .448 1 1 0 .545-.438.985-.98.996zm-11.001 0c-.542-.011-.98-.451-.98-.996 0-.552.448-1 1-1h4c.552 0 1 .448 1 1 0 .545-.438.985-.98.996zm5.034-5.996h4c.552 0 1 .448 1 1s-.448 1-1 1h-4c-.552 0-1-.448-1-1s.448-1 1-1zm6.001-4h4c.552 0 1 .448 1 1s-.448 1-1 1h-4c-.552 0-1-.448-1-1s.448-1 1-1zm10.001 4c.552 0 1 .448 1 1s-.448 1-1 1h-4c-.552 0-1-.448-1-1s.448-1 1-1zm-9.187 2c.112-.314.185-.647.185-1s-.072-.686-.185-1h2.371c-.112.314-.185.647-.185 1s.072.686.185 1zm-5.014 2h1.37c-.112.314-.185.647-.185 1 0 .351.072.683.183.996h-1.366c.11-.313.183-.646.183-.996-.001-.353-.073-.686-.185-1zm11.001 0h1.37c-.112.314-.185.647-.185 1 0 .351.072.683.184.996h-1.367c.11-.313.183-.646.183-.996-.001-.353-.073-.686-.185-1zm8.185-2h-2.17c.112-.314.185-.647.185-1 0-1.654-1.346-3-3-3h-3.186c.112-.314.185-.647.185-1 0-1.654-1.346-3-3-3h-4c-1.654 0-3 1.346-3 3 0 .353.072.686.185 1h-3.186c-1.654 0-3 1.346-3 3 0 .353.072.686.185 1h-2.199c-1.654 0-3 1.346-3 3 0 .351.072.683.184.996h-9.519c.564-.578.995-1.253 1.202-1.996h4.136c0 .553.447 1 1 1s1-.447 1-1v-2c0-.553-.447-1-1-1s-1 .447-1 1h-4.136c-.644-2.316-3.426-4-5.862-4-2.757 0-5 2.243-5 5 0 1.128.39 2.158 1.022 2.996h-3.022v-18.996h55v18.996h-2.187c.11-.313.183-.646.183-.996 0-1.654-1.346-3-3-3zm-43.035 3.996c-1.636-.021-2.961-1.355-2.961-2.996 0-1.654 1.346-3 3-3 1.747 0 4.001 1.455 4.001 3 0 1.533-2.22 2.975-3.961 2.996zm45.038 41.004h-48.998v-3h48.998zm3.001-5h-55v-19h36.5 3.478c.014 0 .025.004.039.004.003 0 .006-.002.01-.002h8.989c.007 0 .013-.002.02-.002h5.964z"/><path d="m27.526 29.995h-.011c-.552 0-.994.447-.994 1s.452 1 1.005 1c.552 0 1-.447 1-1s-.448-1-1-1z"/><path d="m31.53 29.995h-.01c-.552 0-.994.447-.994 1s.452 1 1.005 1c.552 0 1-.447 1-1s-.449-1-1.001-1z"/><path d="m29.524 31.993h-.011c-.552 0-.994.447-.994 1s.452 1 1.005 1c.552 0 1-.447 1-1s-.448-1-1-1z"/><path d="m29.524 27.997h-.011c-.552 0-.994.447-.994 1s.452 1 1.005 1c.552 0 1-.447 1-1s-.448-1-1-1z"/><path d="m45.547 30.993c.552 0 1-.447 1-1s-.448-1-1-1h-.011c-.552 0-.994.447-.994 1s.452 1 1.005 1z"/><path d="m19.499 5.002c-2.437 0-5.219 1.684-5.862 4h-4.136c0-.553-.447-1-1-1s-1 .447-1 1v2c0 .553.447 1 1 1s1-.447 1-1h4.136c.644 2.316 3.426 4 5.862 4 2.757 0 5-2.243 5-5s-2.243-5-5-5zm0 8c-1.747 0-4.001-1.455-4.001-3s2.254-3 4.001-3c1.654 0 3 1.346 3 3s-1.346 3-3 3z"/></svg>