<?xml version="1.0" encoding="utf-8"?>
<!-- Generator: Adobe Illustrator 24.1.0, SVG Export Plug-In . SVG Version: 6.00 Build 0)  -->
<svg version="1.1" id="Layer_1" xmlns="http://www.w3.org/2000/svg" xmlns:xlink="http://www.w3.org/1999/xlink" x="0px" y="0px"
	 viewBox="0 0 404 404" style="enable-background:new 0 0 404 404;" xml:space="preserve">
<style type="text/css">
	.st0{fill:#939393;}
</style>
<path class="st0" d="M329.5,11H74.3c-5.3,0-9.5,4.3-9.5,9.6v358.3c0,7.2,4,13.8,10.4,17c6.4,3.3,14,2.7,19.9-1.5l106.9-76.8
	l106.9,76.8c5.8,4.2,13.5,4.7,19.8,1.5c6.4-3.3,10.4-9.9,10.4-17V20.6C339,15.3,334.7,11,329.5,11z M325.4,388l-117.6-85.3
	c-3.5-2.5-8.2-2.5-11.6,0L78.4,388V20h246.9V388z"/>
</svg>
