<svg id="Layer_1" data-name="Layer 1" xmlns="http://www.w3.org/2000/svg" viewBox="0 0 18 18" fill="#6adc91"><g id="Group_4659" data-name="Group 4659"><g id="Rectangle_686" data-name="Rectangle 686"><path  d="M17,17.72H1v-15H17ZM2.82,15.94H15.18V4.47H2.82Z"/></g><g id="Line_53" data-name="Line 53"><path  d="M15.63,8.59H2.36a.89.89,0,0,1,0-1.78H15.63a.89.89,0,1,1,0,1.78Z"/></g><g id="Group_4658" data-name="Group 4658"><g id="Line_54" data-name="Line 54"><path  d="M6,6a.89.89,0,0,1-.89-.89V1.17a.89.89,0,0,1,1.78,0V5.08A.89.89,0,0,1,6,6Z"/></g><g id="Line_55" data-name="Line 55"><path  d="M12,6a.89.89,0,0,1-.89-.89V1.17a.89.89,0,0,1,1.78,0V5.08A.89.89,0,0,1,12,6Z"/></g></g></g></svg>
