<svg xmlns="http://www.w3.org/2000/svg" width="22.15" height="22.15" viewBox="0 0 22.15 22.15"><path d="M19.612,62.972H2.538A2.54,2.54,0,0,1,0,60.434V45.206a2.54,2.54,0,0,1,2.538-2.538H19.612a2.54,2.54,0,0,1,2.538,2.538V60.434A2.54,2.54,0,0,1,19.612,62.972ZM2.538,44.052a1.155,1.155,0,0,0-1.154,1.154V60.434a1.155,1.155,0,0,0,1.154,1.154H19.612a1.155,1.155,0,0,0,1.154-1.154V45.206a1.155,1.155,0,0,0-1.154-1.154Zm0,0" transform="translate(0 -40.822)"/><path d="M21.458,172.052H.692a.692.692,0,1,1,0-1.384H21.458a.692.692,0,1,1,0,1.384Zm0,0" transform="translate(0 -163.285)"/><path d="M107.36,5.538a.692.692,0,0,1-.692-.692V.692a.692.692,0,1,1,1.384,0V4.845A.692.692,0,0,1,107.36,5.538Zm0,0" transform="translate(-102.053)"/><path d="M374.024,5.538a.692.692,0,0,1-.692-.692V.692a.692.692,0,0,1,1.384,0V4.845A.692.692,0,0,1,374.024,5.538Zm0,0" transform="translate(-357.181)"/></svg>