<svg xmlns="http://www.w3.org/2000/svg" width="56.198" height="47.774" viewBox="0 0 56.198 47.774"><defs></defs><g transform="translate(17.126)"><path  d="M287.023-697.389a1.072,1.072,0,0,1-.963-.6l-2.647-4.212c0-.12-.241-.241-.361-.241H271.139c-.12,0-.241,0-.361.241l-2.647,4.212a1.184,1.184,0,0,1-1.685.361,1.184,1.184,0,0,1-.361-1.685l2.647-4.212a2.927,2.927,0,0,1,2.407-1.324h11.913a3.1,3.1,0,0,1,2.407,1.324l2.768,4.212a1.184,1.184,0,0,1-.361,1.685A1.3,1.3,0,0,1,287.023-697.389Z" transform="translate(-265.881 704.85)"/></g><g transform="translate(0 5.054)"><path  d="M296.536-657.93H262.962a11.3,11.3,0,0,1-11.312-11.312v-20.1a11.3,11.3,0,0,1,11.312-11.312H269.7a1.137,1.137,0,0,1,1.2,1.2,1.137,1.137,0,0,1-1.2,1.2h-6.739a8.885,8.885,0,0,0-8.9,8.905v20.1a8.885,8.885,0,0,0,8.9,8.905h33.574a8.885,8.885,0,0,0,8.905-8.905v-20.1a8.885,8.885,0,0,0-8.905-8.905H289.8a1.137,1.137,0,0,1-1.2-1.2,1.137,1.137,0,0,1,1.2-1.2h6.739a11.3,11.3,0,0,1,11.312,11.312v20.1A11.3,11.3,0,0,1,296.536-657.93Z" transform="translate(-251.65 700.65)"/></g><g transform="translate(13.719 11.793)"><path  d="M277.611-665.928a14.534,14.534,0,0,1-14.561-14.561,14.534,14.534,0,0,1,14.561-14.561,14.534,14.534,0,0,1,14.561,14.561A14.69,14.69,0,0,1,277.611-665.928Zm0-26.836a12.121,12.121,0,0,0-12.154,12.154,12.121,12.121,0,0,0,12.154,12.154,12.121,12.121,0,0,0,12.154-12.154A12.277,12.277,0,0,0,277.611-692.764Z" transform="translate(-263.05 695.05)"/></g><g transform="translate(18.652 16.607)"><path  d="M276.777-671.8a9.655,9.655,0,0,1-9.627-9.627,9.655,9.655,0,0,1,9.627-9.627,9.655,9.655,0,0,1,9.627,9.627A9.655,9.655,0,0,1,276.777-671.8Zm0-16.847a7.242,7.242,0,0,0-7.22,7.22,7.242,7.242,0,0,0,7.22,7.22,7.242,7.242,0,0,0,7.22-7.22A7.242,7.242,0,0,0,276.777-688.643Z" transform="translate(-267.15 691.05)"/></g><g transform="translate(42.479 12.997)"><path  d="M291.4-691.643h-3.249a1.137,1.137,0,0,1-1.2-1.2,1.137,1.137,0,0,1,1.2-1.2H291.4a1.137,1.137,0,0,1,1.2,1.2A1.206,1.206,0,0,1,291.4-691.643Z" transform="translate(-286.95 694.05)"/></g></svg>