<svg xmlns="http://www.w3.org/2000/svg" width="52.739" height="45.49" viewBox="0 0 52.739 45.49"><defs><style>.a{fill:#6add92;}</style></defs><path class="a" d="M34.817,18.77a1.567,1.567,0,0,0-1.567,1.567v13.94a1.576,1.576,0,0,0,1.1,1.5l6.9,2.131a1.629,1.629,0,0,0,.466.072,1.567,1.567,0,0,0,.457-3.062l-5.793-1.791V20.337A1.567,1.567,0,0,0,34.817,18.77Z" transform="translate(-8.393 -11.569)"/><path class="a" d="M58.726,34.417l-3.581-3.581a1.549,1.549,0,0,0-1.1-.466,1.567,1.567,0,0,0-1.11.466l-3.581,3.581a1.567,1.567,0,0,0,2.211,2.176l.9-.9A19.7,19.7,0,0,1,16.5,46.441a1.577,1.577,0,0,0-2.6,1.791A22.794,22.794,0,0,0,55.593,35.7l.9.9a1.567,1.567,0,0,0,2.238-2.176Z" transform="translate(-6.339 -12.783)"/><path class="a" d="M15.347,32.342a1.549,1.549,0,0,0-2.211,0l-.9.9a19.7,19.7,0,0,1,36.681-9.624,1.567,1.567,0,0,0,2.686-1.576A22.794,22.794,0,0,0,9.125,33.255L8.167,32.3a1.57,1.57,0,1,0-2.22,2.22L9.527,38.1a1.549,1.549,0,0,0,1.1.457,1.567,1.567,0,0,0,1.11-.457l3.581-3.581A1.567,1.567,0,0,0,15.347,32.342Z" transform="translate(-5.486 -10.726)"/></svg>