<svg xmlns="http://www.w3.org/2000/svg" width="45.024" height="45.351" viewBox="0 0 45.024 45.351"><g transform="translate(0 0)"><g transform="translate(0 0)"><path d="M44.829,45.369l-14.8-1.643a22.149,22.149,0,0,1-7.516,1.316h0A22.511,22.511,0,1,1,40.333,36.29ZM22.521,42.393a19.562,19.562,0,0,0,6.862-1.236l.3-.115,10.6,1.183-3.109-6.288.556-.662a19.871,19.871,0,1,0-15.208,7.118Z" transform="translate(-0.004 -0.018)"/></g><g transform="translate(10.806 14.838)"><path d="M21.213,33.14,12.24,24.168,14.112,22.3l7.1,7.1L33.789,16.82l1.872,1.872Z" transform="translate(-12.24 -16.82)"/></g></g></svg>