<svg xmlns="http://www.w3.org/2000/svg" width="16.115" height="22.523" viewBox="0 0 16.115 22.523"><path d="M14.308,3.76V1.126h1.244a.563.563,0,1,0,0-1.126H.563a.563.563,0,1,0,0,1.126H1.807V3.76A6.007,6.007,0,0,0,3.634,8.043l3.6,3.482-3.443,3.24A5.974,5.974,0,0,0,1.92,19.113V21.4H.563a.563.563,0,0,0,0,1.126H15.552a.563.563,0,0,0,0-1.126H14.364V19.155a5.98,5.98,0,0,0-1.943-4.4L8.881,11.52l3.6-3.477A6.006,6.006,0,0,0,14.308,3.76Zm-1.07,15.4V21.4H3.046V19.113a4.847,4.847,0,0,1,1.52-3.527l3.5-3.287,3.6,3.286A4.851,4.851,0,0,1,13.238,19.155Zm-5.18-8.407L4.418,7.234A4.876,4.876,0,0,1,2.934,3.76V1.126H13.182V3.76A4.877,4.877,0,0,1,11.7,7.234Zm0,0"/></svg>