<svg xmlns="http://www.w3.org/2000/svg" width="47.865" height="51.62" viewBox="0 0 47.865 51.62"><path d="M57.984,22.33h-38.9A4.493,4.493,0,0,0,14.6,26.823V47.565a4.493,4.493,0,0,0,4.482,4.493h38.9a4.493,4.493,0,0,0,4.482-4.493V26.823a4.493,4.493,0,0,0-4.482-4.493Zm-38.9,2.346h38.9a2.147,2.147,0,0,1,2.135,2.147V40.115H16.946V26.823a2.147,2.147,0,0,1,2.135-2.147Zm38.9,25.036h-38.9a2.147,2.147,0,0,1-2.135-2.147v-1.6H60.119v1.6a2.147,2.147,0,0,1-2.135,2.147Z" transform="translate(-14.6 -11.384)"/><path d="M24.823,33.776h4.4a2.933,2.933,0,0,0,0-5.866h-4.4a2.933,2.933,0,0,0,0,5.866Z" transform="translate(-13.338 -10.418)"/><path d="M21.913,17.693H46.949v2.346l6.077-3.52L46.949,13v2.346H21.913a1.173,1.173,0,1,0,0,2.346Z" transform="translate(-13.537 -13)"/><path d="M52.853,53.346H27.817V51L21.74,54.52l6.077,3.52V55.693H52.853a1.173,1.173,0,0,0,0-2.346Z" transform="translate(-13.364 -6.419)"/></svg>