<svg xmlns="http://www.w3.org/2000/svg" width="22.754" height="22.754" viewBox="0 0 22.754 22.754">><path d="M19.422,3.332a11.377,11.377,0,0,0-16.09,16.09,11.377,11.377,0,0,0,16.09-16.09ZM11.377,21.421A10.044,10.044,0,1,1,21.421,11.377,10.055,10.055,0,0,1,11.377,21.421Z"/><g transform="translate(7.854 4.284)"><path d="M180.971,102.827h-1.428a1.475,1.475,0,1,1,0-2.951H182.4a.667.667,0,1,0,0-1.333h-1.475V97.068a.667.667,0,1,0-1.333,0v1.475h-.047a2.809,2.809,0,1,0,0,5.617h1.428a1.475,1.475,0,0,1,0,2.951h-2.856a.667.667,0,1,0,0,1.333h1.475v1.476a.667.667,0,1,0,1.333,0v-1.476h.047a2.809,2.809,0,0,0,0-5.617Z" transform="translate(-176.734 -96.401)"/></g></svg>