<svg xmlns="http://www.w3.org/2000/svg" viewBox="0 0 70 70"><defs></defs><title>02_Icons_sub_category_v1</title><g id="Layer_108" data-name="Layer 108"><path  d="M44.45,37.73h7.1a1.08,1.08,0,0,0,1-1V23a.94.94,0,0,0-1-1l-7.1,1.64a.94.94,0,0,0-1,1v12.1A.94.94,0,0,0,44.45,37.73Zm.9-12.1,5.1-1v11.1h-5.1Z"/><path  d="M18.45,37.73h7.1a1.08,1.08,0,0,0,1-1V29.19a.94.94,0,0,0-1-1l-7.1,1.44a.94.94,0,0,0-1,1v6.1A.94.94,0,0,0,18.45,37.73Zm.9-6.1,5.1-1v5.1h-5.1Z"/><path  d="M44.45,51.93h7.1a1,1,0,0,0,1-1v-7.1a.94.94,0,0,0-1-1h-7.1a.94.94,0,0,0-1,1v7.1A.94.94,0,0,0,44.45,51.93Zm.9-7.1h5.1v5.1h-5.1Z"/><path  d="M18.45,51.93h7.1a1,1,0,0,0,1-1v-7.1a.94.94,0,0,0-1-1h-7.1a.94.94,0,0,0-1,1v7.1A.94.94,0,0,0,18.45,51.93Zm.9-7.1h5.1v5.1h-5.1Z"/><path  d="M31.45,37.73h7.1a1.08,1.08,0,0,0,1-1V26.13a.94.94,0,0,0-1-1l-7.1,1.5a.94.94,0,0,0-1,1v9.1A.94.94,0,0,0,31.45,37.73Zm.9-9.1,5.1-1v8.1h-5.1Z"/><path  d="M57.09,13.67c-.59.12-44.47,11.15-44.47,11.15-.84.21-1.37.61-1.37,1.37V58.13a1,1,0,0,0,1,1h45.4a1.18,1.18,0,0,0,1.1-1v-43A1.33,1.33,0,0,0,57.09,13.67ZM37.45,57.13h-5.1V44.83h5.1Zm19.2,0H39.55l-.1-13.3a.94.94,0,0,0-1-1h-7.1a1,1,0,0,0-1,1v13.3H13.25V26.87l43.4-11Z"/></g></svg>