<svg xmlns="http://www.w3.org/2000/svg" viewBox="0 0 70 70"><defs></defs><title>02_Icons_sub_category_v1</title><g id="Layer_108" data-name="Layer 108"><path  d="M46.12,35h7.1a1.08,1.08,0,0,0,1-1v-7.1a.94.94,0,0,0-1-1h-7.1a.94.94,0,0,0-1,1V34A.94.94,0,0,0,46.12,35Zm.9-7.1h5.1V33H47Z"/><path  d="M20.12,35h7.1a1.08,1.08,0,0,0,1-1v-7.1a.94.94,0,0,0-1-1h-7.1a.94.94,0,0,0-1,1V34A.94.94,0,0,0,20.12,35Zm.9-7.1h5.1V33H21Z"/><path  d="M46.12,49.21h7.1a1,1,0,0,0,1-1v-7.1a.94.94,0,0,0-1-1h-7.1a.94.94,0,0,0-1,1v7.1A.94.94,0,0,0,46.12,49.21Zm.9-7.1h5.1v5.1H47Z"/><path  d="M20.12,49.21h7.1a1,1,0,0,0,1-1v-7.1a.94.94,0,0,0-1-1h-7.1a.94.94,0,0,0-1,1v7.1A.94.94,0,0,0,20.12,49.21Zm.9-7.1h5.1v5.1H21Z"/><path  d="M33.12,35h7.1a1.08,1.08,0,0,0,1-1v-7.1a.94.94,0,0,0-1-1h-7.1a.94.94,0,0,0-1,1V34A.94.94,0,0,0,33.12,35Zm.9-7.1h5.1V33H34Z"/><path  d="M58.32,19.15h-44a1.37,1.37,0,0,0-1.37,1.38V55.41a1,1,0,0,0,1,1h45.4a1.18,1.18,0,0,0,1.1-1V20.53A1.38,1.38,0,0,0,59,19.15ZM39.12,54.41H34V42.11h5.1Zm19.2,0H41.22l-.1-13.3a.94.94,0,0,0-1-1H33a.94.94,0,0,0-1,1v13.3H14.92V21.15h43.4Z"/><path  d="M51.52,21.11a1,1,0,0,1-1-1V14.59h-7l-6.23,6.23a1,1,0,1,1-1.41-1.41l6.52-6.52a1,1,0,0,1,.71-.3h8.43a1,1,0,0,1,1,1v6.52A1,1,0,0,1,51.52,21.11Z"/><path  d="M23.67,20.78a1,1,0,0,1-1-1V13.59a1,1,0,0,1,2,0v6.19A1,1,0,0,1,23.67,20.78Z"/></g></svg>