<svg xmlns="http://www.w3.org/2000/svg" viewBox="0 0 70 70"><defs></defs><title>02_Icons_sub_category_v1</title><g id="Layer_5" data-name="Layer 5"><path  d="M24.71,48.22a3,3,0,1,1,3-3A3,3,0,0,1,24.71,48.22Zm0-4.19a1.2,1.2,0,1,0,0,2.39,1.16,1.16,0,0,0,1.19-1.2A1.2,1.2,0,0,0,24.71,44Z"/><path  d="M45.29,48.22a3,3,0,1,1,3-3A3,3,0,0,1,45.29,48.22Zm0-4.19a1.2,1.2,0,0,0,0,2.39,1.16,1.16,0,0,0,1.2-1.2A1.21,1.21,0,0,0,45.29,44Z"/><path  d="M50,53H20c-1,0-1.77.2-1.77-.77V39.21a1.77,1.77,0,0,1,1.12-1.64l.72-.28,2.43-9.61a2,2,0,0,1,2-1.68H45.42a2.06,2.06,0,0,1,2,1.66l2.48,9.63.71.28a1.74,1.74,0,0,1,1.13,1.64V51.27A1.77,1.77,0,0,1,50,53ZM24.53,27.8a.28.28,0,0,0-.26.21h0l-2.51,10.1a.92.92,0,0,1-.56.68L20,39.24l0,12,30,0,0-12-1.16-.42a.91.91,0,0,1-.55-.67L45.68,28a.27.27,0,0,0-.26-.21Zm-1.14,0h0Z"/><path  d="M38.87,46.12H31.14a.9.9,0,1,1,0-1.8h7.73a.9.9,0,0,1,0,1.8Z"/><path  d="M26.9,57.65H22.26a1.42,1.42,0,0,1-1.42-1.42V52.14a.91.91,0,0,1,.9-.91h5.68a.9.9,0,0,1,.9.91v4.09A1.41,1.41,0,0,1,26.9,57.65Zm-4.26-1.8h3.88V53H22.64Z"/><path  d="M47.74,57.65H43.1a1.41,1.41,0,0,1-1.42-1.42V52.14a.9.9,0,0,1,.9-.91h5.68a.9.9,0,0,1,.9.91v4.09A1.42,1.42,0,0,1,47.74,57.65Zm-4.26-1.8h3.88V53H43.48Z"/><path  d="M49.13,38.85H20.87a.9.9,0,1,1,0-1.8H49.13a.9.9,0,1,1,0,1.8Z"/><path  d="M57.24,57.65a.9.9,0,0,1-.9-.9V13.39a.91.91,0,0,1,1.81,0V56.75A.9.9,0,0,1,57.24,57.65Z"/><path  d="M62.23,57.65a.9.9,0,0,1-.91-.9V13.39a.91.91,0,0,1,1.81,0V56.75A.9.9,0,0,1,62.23,57.65Z"/><path  d="M12.76,57.65a.9.9,0,0,1-.9-.9V13.39a.9.9,0,0,1,1.8,0V56.75A.9.9,0,0,1,12.76,57.65Z"/><path  d="M7.77,57.65a.9.9,0,0,1-.9-.9V13.39a.91.91,0,0,1,1.81,0V56.75A.9.9,0,0,1,7.77,57.65Z"/><path  d="M57.15,19H12.76a.9.9,0,1,1,0-1.8H57.15a.9.9,0,0,1,0,1.8Z"/></g></svg>