<svg xmlns="http://www.w3.org/2000/svg" viewBox="0 0 70 70"><defs></defs><title>02_Icons_sub_category_v1</title><g id="Layer_64" data-name="Layer 64"><path  d="M57.41,47.28a1,1,0,0,1-1-1,21.41,21.41,0,0,0-42.82,0,1,1,0,0,1-2,0,23.41,23.41,0,0,1,46.82,0A1,1,0,0,1,57.41,47.28Z"/><path  d="M35,20.91a4.23,4.23,0,1,1,4.22-4.22A4.23,4.23,0,0,1,35,20.91Zm0-6.45a2.23,2.23,0,1,0,2.22,2.23A2.22,2.22,0,0,0,35,14.46Z"/><path  d="M60.92,57.54H9.08a2.48,2.48,0,0,1-2.47-2.48V51.58a2.48,2.48,0,0,1,2.47-2.47H60.92a2.48,2.48,0,0,1,2.47,2.47v3.48A2.48,2.48,0,0,1,60.92,57.54ZM9.08,51.11a.47.47,0,0,0-.47.47v3.48a.48.48,0,0,0,.47.48H60.92a.48.48,0,0,0,.47-.48V51.58a.47.47,0,0,0-.47-.47Z"/></g></svg>