<svg xmlns="http://www.w3.org/2000/svg" viewBox="0 0 70 70"><defs></defs><title>02_Icons_sub_category_v1</title><g id="Layer_119" data-name="Layer 119"><path  d="M56.75,47.68a1,1,0,0,1-1-1V16.41H14.25V46.68a1,1,0,0,1-2,0V15.41a1,1,0,0,1,1-1h43.5a1,1,0,0,1,1,1V46.68A1,1,0,0,1,56.75,47.68Z"/><path  d="M60.19,55.59H9.81a1,1,0,0,1-1-1V49.91a1,1,0,0,1,1-1H60.19a1,1,0,0,1,1,1v4.68A1,1,0,0,1,60.19,55.59Zm-49.38-2H59.19V50.91H10.81Z"/><path  d="M51.81,50.91H43.28a1,1,0,0,1-1-1V46.33a1,1,0,0,1,1-1h8.53a1,1,0,0,1,1,1v3.58A1,1,0,0,1,51.81,50.91Zm-7.53-2h6.53V47.33H44.28Z"/></g></svg>