<svg id="Layer_1" data-name="Layer 1" xmlns="http://www.w3.org/2000/svg" viewBox="0 0 70 70"><g id="Layer_9" data-name="Layer 9"><path class="cls-1" d="M51.67,52.37h-6a1,1,0,0,1,0-2h5v-40H18.33a1,1,0,0,1,0-2H51.67a1,1,0,0,1,1,1v42A1,1,0,0,1,51.67,52.37Z"/><path class="cls-1" d="M40.84,61.66a1,1,0,0,1-.38-.08L18,52.29a1,1,0,0,1-.62-.92v-42a1,1,0,0,1,.44-.83,1,1,0,0,1,.94-.09l22.51,9.29a1,1,0,0,1,.62.92v42a1,1,0,0,1-.44.83A1,1,0,0,1,40.84,61.66Zm-21.51-11,20.51,8.47V19.3L19.33,10.83Z"/><path class="cls-1" d="M36.92,38.19a1,1,0,0,1-.38-.07l-3.25-1.35a1,1,0,0,1,.76-1.84l3.25,1.34a1,1,0,0,1,.54,1.3A1,1,0,0,1,36.92,38.19Z"/><path class="cls-1" d="M36.92,40.73a1,1,0,0,1-1-1V36.19a1,1,0,0,1,2,0v3.54A1,1,0,0,1,36.92,40.73Z"/></g></svg>
