<?xml version="1.0" encoding="iso-8859-1"?>
<!-- Generator: Adobe Illustrator 19.0.0, SVG Export Plug-In . SVG Version: 6.00 Build 0)  -->
<svg version="1.1" id="Capa_1" xmlns="http://www.w3.org/2000/svg" xmlns:xlink="http://www.w3.org/1999/xlink" x="0px" y="0px"
	 viewBox="0 0 512 512" style="enable-background:new 0 0 512 512;" xml:space="preserve">
<g>
	<g>
		<path d="M504.5,484.964h-56.629v-0.494c0-17.396-14.152-31.549-31.549-31.549c-2.913,0-5.774,0.411-8.532,1.203v-26.641
			c18.834-1.645,36.79-9.282,50.985-22.004c18.542-16.616,29.176-40.418,29.176-65.3c0-15.479-4.117-30.71-11.906-44.047
			c-3.614-6.187-5.14-13.697-4.413-21.722c0.786-8.688-0.043-17.467-2.465-26.092c-7.387-26.321-29.507-46.279-56.354-50.847
			c-21.147-3.604-42.544,2.163-58.705,15.809c-16.172,13.652-25.446,33.609-25.446,54.754c0,1.932,0.081,3.892,0.24,5.827
			c0.697,8.435-0.867,16.231-4.524,22.546c-1.442,2.488-2.758,5.054-3.948,7.674l-83.445-55.63
			c-7.927-5.276-18.171-5.275-26.102,0.003l-35.56,23.706v-20.675h0.516c4.142,0,7.5-3.357,7.5-7.5s-3.358-7.5-7.5-7.5h-56.113
			c-4.142,0-7.5,3.357-7.5,7.5s3.358,7.5,7.5,7.5h0.516v56.629c0,0.25,0.013,0.498,0.037,0.742l-16.177,10.785l-25.14-117.307
			c-0.741-3.458-3.797-5.929-7.333-5.929c-3.536,0-6.592,2.471-7.333,5.929l-48.097,224.43c-0.475,2.214,0.077,4.524,1.501,6.286
			c1.424,1.762,3.567,2.785,5.833,2.785H64.13v49.129H7.5c-4.142,0-7.5,3.357-7.5,7.5s3.358,7.5,7.5,7.5h497
			c4.143,0,7.5-3.357,7.5-7.5S508.643,484.964,504.5,484.964z M135.242,251.485h25.081v30.675l-25.081,16.721V251.485z
			 M96.193,484.964H79.129v-49.129h17.064V484.964z M79.129,420.835v-16.548c0-4.143-3.358-7.5-7.5-7.5c-4.142,0-7.5,3.357-7.5,7.5
			v16.548H32.81l38.819-181.139l38.819,181.139H79.129z M344.162,356.727c-1.682,0-3.312-0.495-4.718-1.434l-71.256-47.506
			c-3.446-2.298-8.103-1.367-10.4,2.08c-2.298,3.446-1.367,8.103,2.08,10.4l71.252,47.503c1.738,1.161,3.609,2.061,5.558,2.718
			v114.475H111.193v-49.129h8.532c2.265,0,4.409-1.023,5.833-2.785c1.424-1.762,1.976-4.072,1.501-6.286l-12.347-57.612
			l109.224-72.838l11.881,7.922c3.447,2.298,8.104,1.367,10.401-2.08c2.298-3.446,1.367-8.103-2.08-10.4l-16.042-10.696
			c-2.52-1.68-5.802-1.68-8.322,0l-108.443,72.318l-3.849-17.961l111.716-74.479c2.877-1.914,6.597-1.915,9.47-0.003l120.243,80.162
			c1.896,1.263,3.186,3.189,3.633,5.425c0.446,2.235-0.003,4.51-1.269,6.408C349.69,355.307,347.031,356.727,344.162,356.727z
			 M351.677,370.496c4.876-1.636,9.145-4.842,12.079-9.246c3.487-5.229,4.729-11.505,3.495-17.67
			c-1.232-6.164-4.792-11.479-10.021-14.964l-24.112-16.075c1.224-2.956,2.633-5.844,4.238-8.615
			c5.199-8.977,7.444-19.8,6.494-31.299c-0.126-1.525-0.189-3.07-0.189-4.593c0-16.717,7.334-32.497,20.122-43.293
			c12.967-10.946,29.483-15.379,46.514-12.482c21.161,3.601,38.601,19.346,44.429,40.113c1.927,6.862,2.589,13.822,1.967,20.686
			c-1.01,11.149,1.203,21.744,6.399,30.64c6.45,11.043,9.859,23.658,9.859,36.481c0,20.625-8.815,40.354-24.187,54.13
			c-11.629,10.42-25.803,16.634-40.975,18.161v-32.209c0-4.143-3.357-7.5-7.5-7.5s-7.5,3.357-7.5,7.5v32.189
			c-0.252-0.025-0.503-0.036-0.755-0.063c-14.831-1.628-29.054-8.103-40.357-18.311V370.496z M392.791,427.526v21.024
			c-5.104-2.377-10.718-3.645-16.549-3.645c-9.276,0-17.811,3.218-24.564,8.584V413.03c11.617,7.786,24.94,12.753,38.721,14.266
			C391.197,427.384,391.994,427.46,392.791,427.526z M432.871,484.964h-81.193v-0.494c0-13.545,11.02-24.564,24.564-24.564
			c7.737,0,14.886,3.627,19.611,9.95c1.196,1.601,2.981,2.658,4.961,2.938c1.976,0.278,3.987-0.242,5.579-1.451
			c2.951-2.238,6.384-3.421,9.929-3.421c9.125-0.001,16.549,7.423,16.549,16.548V484.964z"/>
	</g>
</g>
<g>
	<g>
		<path d="M279.532,422.089v-49.846c0-4.143-3.357-7.5-7.5-7.5h-96.193c-4.142,0-7.5,3.357-7.5,7.5v49.846
			c-9.308,3.139-16.032,11.946-16.032,22.3c0,12.976,10.557,23.532,23.532,23.532c4.142,0,7.5-3.357,7.5-7.5s-3.358-7.5-7.5-7.5
			c-4.705,0-8.532-3.827-8.532-8.532s3.828-8.532,8.532-8.532h96.193c4.705,0,8.532,3.827,8.532,8.532s-3.827,8.532-8.532,8.532
			h-64.129c-4.142,0-7.5,3.357-7.5,7.5s3.358,7.5,7.5,7.5h64.129c12.976,0,23.532-10.557,23.532-23.532
			C295.564,434.035,288.84,425.229,279.532,422.089z M216.436,420.856h-33.097v-41.113h33.097V420.856z M264.532,420.856h-33.097
			v-41.113h33.097V420.856z"/>
	</g>
</g>
<g>
	<g>
		<path d="M336.163,12.035c-26.252,0-50.188,12.568-65.116,33.903c-4.961-1.222-10-1.839-15.047-1.839
			c-29.32,0-54.82,20.42-61.714,48.425c-23.607,2.78-41.979,22.911-41.979,47.253c0,3.431,0.372,6.825,1.11,10.155
			c-14.514,4.494-25.159,18.108-25.159,33.933c0,5.322,1.149,10.444,3.417,15.225c1.775,3.741,6.249,5.335,9.99,3.561
			c3.743-1.774,5.337-6.248,3.563-9.99c-1.307-2.756-1.969-5.715-1.969-8.797c0-11.067,9.027-20.263,20.123-20.498
			c2.505-0.053,4.818-1.353,6.165-3.465s1.551-4.758,0.542-7.052c-1.846-4.198-2.782-8.598-2.782-13.073
			c0-17.835,14.405-32.368,32.19-32.579c0.242,0.028,0.555,0.055,0.915,0.06c0.035,0.001,0.069,0.001,0.104,0.001
			c3.728,0,6.897-2.742,7.424-6.443c3.383-23.783,24.045-41.716,48.06-41.716c5.323,0,10.654,0.908,15.846,2.699
			c3.354,1.155,7.057-0.192,8.881-3.236c11.824-19.741,32.548-31.527,55.435-31.527c35.646,0,64.646,28.999,64.646,64.645
			s-29,64.646-64.646,64.646c-13.893,0-27.182-4.412-38.431-12.76c-2.854-2.118-6.802-1.941-9.457,0.421
			c-8.937,7.957-20.398,12.339-32.273,12.339c-6.409,0-12.661-1.243-18.581-3.695c-3.489-1.446-7.505-0.072-9.379,3.203
			c-5.833,10.192-16.62,16.524-28.152,16.524c-2.239,0-4.505-0.255-6.928-0.78c-2.445-0.53-4.993,0.195-6.794,1.932
			c-1.801,1.736-2.617,4.257-2.177,6.72c0.261,1.459,0.383,2.614,0.383,3.637c0,10.163-7.57,18.911-17.608,20.349
			c-4.1,0.587-6.948,4.387-6.361,8.486c0.536,3.74,3.744,6.438,7.415,6.438c0.354,0,0.712-0.025,1.072-0.076
			c16.217-2.322,28.713-15.654,30.31-31.711c0.23,0.004,0.46,0.006,0.689,0.006c14.782,0,28.707-7.061,37.65-18.77
			c5.973,1.818,12.16,2.737,18.462,2.737c13.575,0,26.729-4.363,37.625-12.389c12.765,8.123,27.354,12.389,42.536,12.389
			c43.917,0,79.646-35.729,79.646-79.646C415.809,47.764,380.08,12.035,336.163,12.035z"/>
	</g>
</g>
<g>
</g>
<g>
</g>
<g>
</g>
<g>
</g>
<g>
</g>
<g>
</g>
<g>
</g>
<g>
</g>
<g>
</g>
<g>
</g>
<g>
</g>
<g>
</g>
<g>
</g>
<g>
</g>
<g>
</g>
</svg>
