<?xml version="1.0" encoding="iso-8859-1"?>
<!-- Generator: Adobe Illustrator 19.0.0, SVG Export Plug-In . SVG Version: 6.00 Build 0)  -->
<svg version="1.1" id="Capa_1" xmlns="http://www.w3.org/2000/svg" xmlns:xlink="http://www.w3.org/1999/xlink" x="0px" y="0px"
	 viewBox="0 0 512 512" style="enable-background:new 0 0 512 512;" xml:space="preserve">
<g>
	<g>
		<g>
			<path d="M460.626,149.395v155.21h-63.664v-51.413h24.124v-58.625H282.737v-79.111H263.5v-13.478l31.671-10.686l-4.795-14.213
				L263.5,86.146V66.128l31.671-10.686l-4.795-14.213L263.5,50.297v-14.82l-38.013-14.362l-5.302,14.031L248.5,45.844v18.503
				l-26.876-9.067l-4.795,14.213L248.5,80.177v35.278h-19.237v79.111H90.914v58.625h24.124v51.413H51.374v-155.21H0v196.387v10.197
				v134.643h15v-54.408h138v54.408h15V355.979v-10.197v-14.635l18.425-2.39l46.095,5.801v141.327h-32.206v15h32.206h46.961h32.206
				v-15H279.48V333.977l46.643-5.227L344,331.091v14.69v10.197v134.643h15v-54.408h138v54.408h15V355.979v-10.197V149.395H460.626z
				 M396.962,209.567h9.124v28.625h-9.124V209.567z M244.263,130.456h23.475v64.111h-23.475V130.456z M105.914,238.192v-28.625
				h9.124v28.625H105.914z M153,421.214H15v-65.234h138V421.214z M153,340.979H15V164.395h21.374v140.21H27.87v15h8.504h7.5h71.164
				v18.413L153,333.092V340.979z M264.481,475.885L264.481,475.885H247.52V336.445l4.683,0.589l12.278-1.376V475.885z
				 M333.104,314.536v-39.222h-15.001v0.001v39.241l-58.349,6.539v-69.11h-15v68.994l-50.844-6.398v-18.17h-15v18.195l-48.872,6.34
				V210.122h99.225h53.475h99.225v110.814L333.104,314.536z M497,421.214H359v-65.234h138V421.214z M497,340.979H359v-7.923
				l37.962,4.972v-18.423h71.164h7.5h8.504v-15h-8.504v-140.21H497V340.979z"/>
			<rect x="178.91" y="227.49" width="15" height="59.742"/>
			<rect x="318.1" y="227.49" width="15" height="36.412"/>
		</g>
	</g>
</g>
<g>
</g>
<g>
</g>
<g>
</g>
<g>
</g>
<g>
</g>
<g>
</g>
<g>
</g>
<g>
</g>
<g>
</g>
<g>
</g>
<g>
</g>
<g>
</g>
<g>
</g>
<g>
</g>
<g>
</g>
</svg>
