<svg height="512" viewBox="0 0 60 60" width="512" xmlns="http://www.w3.org/2000/svg"><g id="037---Graffiti"><path id="Shape" d="m58 0h-56c-1.1045695 0-2 .8954305-2 2v33c0 1.1045695.8954305 2 2 2h25.01c.5522847 0 1-.4477153 1-1s-.4477153-1-1-1h-14.01v-5h17c.5522847 0 1-.4477153 1-1s-.4477153-1-1-1h-5v-5h11c.5522847 0 1-.4477153 1-1s-.4477153-1-1-1h-23v-5h18c.5522847 0 1-.4477153 1-1s-.4477153-1-1-1h-6v-5h9c.5522847 0 1-.44771525 1-1s-.4477153-1-1-1h-21v-5h45v5h-14.6c-.5522847 0-1 .44771525-1 1s.4477153 1 1 1h3.6v4.37c0 .5522847.4477153 1 1 1s1-.4477153 1-1v-4.37h9v5h-6.08c-.5522847 0-1 .4477153-1 1s.4477153 1 1 1h6.08v5h-4.08c-.5522847 0-1 .4477153-1 1s.4477153 1 1 1h4.08v5h-3c-.5522847 0-1 .4477153-1 1s.4477153 1 1 1h3v5h-2.41c-.5522847 0-1 .4477153-1 1s.4477153 1 1 1h2.41c1.1045695 0 2-.8954305 2-2v-33c0-1.1045695-.8954305-2-2-2zm-47 35h-9v-5h9zm12-7h-21v-5h21zm-12-7h-9v-5h9zm12-7h-21v-5h21zm-12-7h-9v-5h9z"/><path id="Shape" d="m33.2 28.142-8.564 22.558c-.5878488 1.5485965.190623 3.2805732 1.739 3.869 15 5.7 14.073 5.434 14.849 5.434 1.2474566.002561 2.366323-.7671076 2.81-1.933 8.823-23.222 7.6-19.994 8.571-22.563.4253077-1.1516372.1060258-2.4461948-.806-3.268.8297436-2.6991787.0005332-5.6340904-2.119-7.5l1.492-3.942c.2726377-.7141406.2497573-1.5074393-.0635877-2.2046788-.313345-.6972396-.8913724-1.2410508-1.6064123-1.5113212l-1.746-.658c-.713712-.2724514-1.5065626-.2493241-2.2031798.0642662-.6966173.3135904-1.2395911.8918-1.5088202 1.6067338l-1.482 3.906c-2.8217348.0105766-5.3823238 1.6534393-6.568 4.214-1.2424017-.0033122-2.3562201.7652783-2.794 1.928zm17.534 6.658-8.57 22.558c-.1985853.513465-.7730121.7719348-1.289.58l-13.791-5.244c-.5155023-.1964128-.7745779-.7731804-.579-1.289 6.87-18.076 4.914-12.927 8.569-22.56.0943113-.2478033.2838992-.4475387.5264532-.5546306.2425539-.107092.5178849-.1126269.7645468-.0153694 11.83 4.489 13.45 5.1 13.859 5.261.475281.222289.697933.7741167.51 1.264zm-4.819-16c.0816019-.2186588.2472685-.3955975.4600907-.4913956.2128221-.0957982.4551192-.1024971.6729093-.0186044 1.841.694 2.045.689 2.239 1.126s.144.331-1.306 4.164c-.886961-.446981-1.811525-.8150665-2.763-1.1-.21-.078-.417-.131-.625-.19zm-1.4 5.55c1.0233371.3180623 2.0181643.7214791 2.974 1.206.327.192.332.325.606.439 1.5999223 1.2602853 2.3361388 3.3258894 1.894 5.314l-12.043-4.573c1.2962675-2.3145434 4.0917503-3.33116 6.572-2.39z"/><path id="Shape" d="m33.192 14.963c-.1962388.5161072.0629575 1.0935911.579 1.29l7.89 3c.5166624.1963372 1.0946628-.0633376 1.291-.58s-.0633376-1.0946628-.58-1.291l-7.89-3c-.2481026-.0941343-.523447-.0857972-.7653997.0231753-.2419527.1089726-.4306721.3096441-.5246003.5578247z"/><path id="Shape" d="m43.349 15.808c.3743724-.0003382.7171999-.2097574.8884041-.5426897.1712043-.3329323.1421065-.7336073-.0754041-1.0383103l-5.891-8.255c-.3208774-.4498359-.9456641-.55437739-1.3955-.23349996s-.5543774.94566403-.2335 1.39549996l5.891 8.255c.188124.2635382.492206.4196783.816.419z"/><path id="Shape" d="m39.36 36.368c-1.655 1.409-5.22 5.153-5.845 6.8-.9317044 2.453525.301975 5.1977956 2.7555 6.1295s5.1977956-.301975 6.1295-2.7555c.625-1.646.445-6.814.141-8.968-.0983304-.7014697-.5711537-1.2935895-1.2334791-1.5446944-.6623255-.2511048-1.4088587-.1212748-1.9475209.3386944zm1.167 9.464c-.3380337.9337482-1.1530664 1.6128393-2.1324886 1.7768048-.9794221.1639655-1.9711908-.2126482-2.5949086-.9853892s-.7825603-1.8216509-.4156028-2.7444156c.392-1.033 3.387-4.359 5.188-5.915.314 2.361.347 6.836-.045 7.868z"/></g></svg>