<svg height="492pt" viewBox="0 -19 492.0005 492" width="492pt" xmlns="http://www.w3.org/2000/svg"><path d="m293.25 319.34375c0-25.460938-20.640625-46.097656-46.097656-46.097656-25.460938 0-46.101563 20.636718-46.101563 46.097656s20.640625 46.101562 46.101563 46.101562c25.445312-.03125 46.066406-20.652343 46.097656-46.101562zm-80.207031 0c0-18.832031 15.265625-34.097656 34.097656-34.097656 18.835937 0 34.101563 15.265625 34.101563 34.097656s-15.265626 34.101562-34.101563 34.101562c-18.820313-.023437-34.074219-15.277343-34.097656-34.101562zm0 0"/><path d="m167.8125 448.25c0 3.3125 2.6875 6 6 6h144.375c3.316406 0 6-2.6875 6-6 0-43.183594-35.003906-78.1875-78.1875-78.1875-43.179688 0-78.1875 35.003906-78.1875 78.1875zm78.1875-66.1875c34.214844.042969 62.773438 26.117188 65.917969 60.1875h-131.835938c3.144531-34.070312 31.703125-60.144531 65.917969-60.1875zm0 0"/><path d="m368.855469 319.34375c0 25.460938 20.640625 46.101562 46.097656 46.101562 25.460937 0 46.101563-20.640624 46.101563-46.101562s-20.640626-46.097656-46.101563-46.097656c-25.445313.027344-46.066406 20.652344-46.097656 46.097656zm80.207031 0c0 18.832031-15.265625 34.101562-34.101562 34.101562-18.832032 0-34.097657-15.269531-34.097657-34.101562s15.265625-34.097656 34.097657-34.097656c18.824218.023437 34.078124 15.273437 34.101562 34.097656zm0 0"/><path d="m413.8125 370.0625c-43.160156.046875-78.136719 35.027344-78.1875 78.1875 0 3.3125 2.6875 6 6 6h144.375c3.3125 0 6-2.6875 6-6-.046875-43.160156-35.027344-78.140625-78.1875-78.1875zm-65.910156 72.1875c3.101562-34.089844 31.683594-60.191406 65.914062-60.191406 34.234375 0 62.816406 26.101562 65.917969 60.191406zm0 0"/><path d="m79.332031 365.449219c25.460938 0 46.101563-20.640625 46.101563-46.101563 0-25.460937-20.640625-46.097656-46.101563-46.097656-25.457031 0-46.097656 20.636719-46.097656 46.097656.03125 25.449219 20.652344 46.070313 46.097656 46.101563zm0-80.207031c18.835938 0 34.101563 15.265624 34.101563 34.097656 0 18.832031-15.265625 34.101562-34.101563 34.101562-18.832031 0-34.097656-15.269531-34.097656-34.101562.023437-18.824219 15.277344-34.074219 34.097656-34.097656zm0 0"/><path d="m156.375 448.25c.101562-28-14.78125-53.917969-39.011719-67.945312-24.234375-14.03125-54.117187-14.03125-78.351562 0-24.230469 14.027343-39.113281 39.945312-39.011719 67.945312 0 3.3125 2.6875 6 6 6h144.375c3.3125 0 6-2.6875 6-6zm-144.097656-6c3.101562-34.089844 31.683594-60.191406 65.914062-60.191406 34.234375 0 62.816406 26.101562 65.917969 60.191406zm0 0"/><path d="m87.875 255.5h316.25c14.351562-.015625 25.984375-11.648438 26-26v-203.5c-.015625-14.351562-11.648438-25.984375-26-26h-316.25c-14.351562.015625-25.984375 11.648438-26 26v203.5c.015625 14.351562 11.648438 25.984375 26 26zm-14-229.5c.007812-7.726562 6.273438-13.992188 14-14h316.25c7.730469.007812 13.992188 6.273438 14 14v203.5c-.007812 7.730469-6.269531 13.992188-14 14h-316.25c-7.726562-.007812-13.992188-6.269531-14-14zm0 0"/><path d="m231.042969 187.886719c.289062.046875.578125.070312.871093.070312h.046876c1.566406.101563 3.136718.164063 4.726562.164063s3.160156-.066406 4.726562-.164063h76.1875c.945313 0 1.710938.765625 1.710938 1.710938 0 .945312-.765625 1.710937-1.710938 1.710937h-28.289062c-12.144531.015625-21.984375 9.855469-22 22 0 3.316406 2.6875 6 6 6s6-2.683594 6-6c.007812-5.519531 4.480469-9.992187 10-10h28.289062c7.570313 0 13.710938-6.136718 13.710938-13.710937 0-7.570313-6.140625-13.710938-13.710938-13.710938h-39.753906c31.285156-20.1875 43.328125-60.074219 28.441406-94.203125-14.890624-34.128906-52.316406-52.4375-88.394531-43.242187-36.082031 9.199219-60.179687 43.1875-56.914062 80.277343 3.265625 37.089844 32.929687 66.347657 70.0625 69.097657zm5.644531-139.765625c34.511719-.011719 62.8125 27.34375 63.976562 61.832031 1.164063 34.492187-25.230468 63.691406-59.664062 66.003906h-8.625c-34.421875-2.328125-60.800781-31.523437-59.636719-66.003906 1.164063-34.480469 29.449219-61.828125 63.949219-61.832031zm0 0"/><path d="m236.613281 96.6875c9.0625 0 16.867188-6.402344 18.632813-15.292969 1.769531-8.890625-2.988282-17.789062-11.363282-21.257812s-18.03125-.539063-23.070312 6.996093c-5.035156 7.539063-4.042969 17.582032 2.367188 23.992188 3.554687 3.574219 8.390624 5.578125 13.433593 5.5625zm-4.949219-23.945312c2.734376-2.734376 7.167969-2.734376 9.898438 0 2.734375 2.734374 2.734375 7.167968 0 9.898437-2.730469 2.734375-7.164062 2.734375-9.898438 0-1.324218-1.304687-2.070312-3.085937-2.070312-4.949219 0-1.859375.746094-3.644531 2.070312-4.949218zm0 0"/><path d="m236.761719 127.550781c-9.0625 0-16.867188 6.402344-18.632813 15.292969-1.769531 8.890625 2.988282 17.789062 11.363282 21.261719 8.375 3.46875 18.03125.539062 23.066406-7 5.039062-7.535157 4.046875-17.582031-2.359375-23.988281-3.554688-3.578126-8.394531-5.582032-13.4375-5.566407zm4.949219 23.945313c-2.734376 2.734375-7.164063 2.734375-9.898438 0s-2.734375-7.164063 0-9.898438 7.164062-2.734375 9.898438 0c2.734374 2.734375 2.734374 7.164063 0 9.898438zm0 0"/><path d="m257.683594 125.628906c6.410156 6.410156 16.453125 7.398438 23.992187 2.363282 7.535157-5.039063 10.464844-14.695313 6.996094-23.070313s-12.371094-13.132813-21.261719-11.363281c-8.890625 1.769531-15.292968 9.570312-15.292968 18.636718-.011719 5.042969 1.992187 9.878907 5.566406 13.433594zm8.484375-18.382812c2.734375-2.734375 7.167969-2.734375 9.902343 0 2.730469 2.734375 2.730469 7.167968-.003906 9.902344-2.730468 2.730468-7.164062 2.730468-9.898437 0-2.734375-2.734376-2.734375-7.167969 0-9.902344zm0 0"/><path d="m215.691406 125.476562c6.425782-6.410156 7.425782-16.464843 2.390625-24.015624-5.035156-7.550782-14.703125-10.492188-23.089843-7.023438-8.390626 3.46875-13.15625 12.378906-11.386719 21.28125 1.765625 8.902344 9.578125 15.316406 18.652343 15.316406 5.039063 0 9.871094-2 13.433594-5.558594zm-18.382812-8.484374c-2.730469-2.734376-2.730469-7.164063.003906-9.898438 2.730469-2.734375 7.164062-2.734375 9.898438 0 2.734374 2.734375 2.734374 7.164062 0 9.898438-2.734376 2.730468-7.164063 2.730468-9.902344 0zm0 0"/></svg>