<svg id="Layer_5" enable-background="new 0 0 64 64" height="512" viewBox="0 0 64 64" width="512" xmlns="http://www.w3.org/2000/svg"><g><circle cx="54" cy="25" r="1"/><path d="m16.364 27.435 1.414 1.414c4.289-4.289 4.289-11.267 0-15.556l-1.414 1.414c3.509 3.509 3.509 9.219 0 12.728z"/><path d="m14.95 26.021c1.322-1.322 2.05-3.08 2.05-4.949 0-1.87-.728-3.628-2.05-4.95l-1.414 1.414c.944.944 1.464 2.199 1.464 3.535 0 1.335-.52 2.591-1.464 3.535z"/><path d="m6.293 24.293 1.414 1.414 4.707-4.707-4.707-4.707-1.414 1.414 2.293 2.293h-7.586v2h7.586z"/><path d="m5 40h-2c0 6.065 4.935 11 11 11v-2c-4.962 0-9-4.038-9-9z"/><path d="m14 45c-2.757 0-5-2.243-5-5h-2c0 3.86 3.14 7 7 7z"/><path d="m19.364 33.222-5.364 5.364v-3.243h-2v6.657h6.657v-2h-3.243l5.364-5.364z"/><path d="m59 61v-6.515c0-5.592-2.136-10.849-6-14.869v-2.616h1.382c.559 0 1.118-.132 1.618-.382 1.234-.617 2-1.856 2-3.236v-2.661l3-1v-.721c0-2.918-1.714-8.284-2.01-9.19-.102-4.874-4.092-8.81-8.99-8.81h-2c-4.962 0-9 4.038-9 9v3.528c0 2.772-.655 5.547-1.895 8.025-1.377 2.754-2.105 5.839-2.105 8.919v.528c0 1.771.776 3.36 2 4.46v15.54h-4v-60h-2v8.586l-6-6v-2.586h-2v60h-22v2h62v-2zm-3-31.721v4.103c0 .617-.343 1.171-.895 1.447-.223.112-.473.171-.723.171h-5.382v2h2v2h-4v-1-6.618l-1.187-.594c-.501-.25-.813-.754-.813-1.316 0-.811.661-1.472 1.472-1.472h1.395l.819-5.736c.104-.721.73-1.264 1.458-1.264h7.126c.459 1.469 1.497 4.979 1.696 7.291zm-19 11.193c0-2.772.655-5.547 1.895-8.025 1.377-2.754 2.105-5.839 2.105-8.919v-3.528c0-3.86 3.14-7 7-7h2c3.519 0 6.432 2.613 6.92 6h-6.776c-1.717 0-3.195 1.282-3.437 2.981l-.577 4.036c-1.755.172-3.13 1.656-3.13 3.455 0 1.324.736 2.514 1.919 3.105l.081.041v5.382 2 1c0 2.206-1.794 4-4 4s-4-1.794-4-4zm4 6.528c3.309 0 6-2.691 6-6h4.58c3.498 3.645 5.42 8.417 5.42 13.485v6.515h-10v-14h-2v4h-6v-4.35c.627.222 1.298.35 2 .35zm-2 6h6v8h-6zm-8-31.414-6-6v-3.172l6 6zm0 2.828v3.172l-6-6v-3.172zm0 6v3.172l-6-6v-3.172zm0 6v3.172l-6-6v-3.172zm0 6v3.172l-6-6v-3.172zm0 6v3.172l-6-6v-3.172zm-6 0 6 6v3.172l-6-6zm6-36v3.172l-6-6v-3.172zm-6 42 6 6v.586h-6z"/></g></svg>