<svg id="Capa_1" enable-background="new 0 0 512 512" height="512" viewBox="0 0 512 512" width="512" xmlns="http://www.w3.org/2000/svg"><path d="m476.355 399.668h-439.739c-5.361 0-9.707-4.346-9.707-9.707v-324.223h459.153v324.222c0 5.361-4.346 9.708-9.707 9.708z" fill="#82cd64"/><path d="m447.233 65.738v324.222c0 5.361-4.346 9.707-9.707 9.707h38.829c5.361 0 9.707-4.346 9.707-9.707v-324.222z" fill="#6dc54a"/><path d="m396.072 48.071h-280.145v-30.87c0-5.361 4.346-9.707 9.707-9.707h260.731c5.361 0 9.707 4.346 9.707 9.707z" fill="#b7afb9"/><path d="m386.365 7.494h-38.829c5.361 0 9.707 4.346 9.707 9.707v30.87h38.829v-30.87c.001-5.361-4.346-9.707-9.707-9.707z" fill="#a79fa9"/><path d="m494.798 75.445h-477.597c-5.361 0-9.707-4.346-9.707-9.707v-14.561c0-5.361 4.346-9.707 9.707-9.707h477.597c5.361 0 9.707 4.346 9.707 9.707v14.561c.001 5.361-4.345 9.707-9.707 9.707z" fill="#e5e2e6"/><path d="m494.798 41.47h-38.829c5.361 0 9.707 4.346 9.707 9.707v14.561c0 5.361-4.346 9.707-9.707 9.707h38.829c5.361 0 9.707-4.346 9.707-9.707v-14.561c.001-5.361-4.345-9.707-9.707-9.707z" fill="#d6d1d7"/><path d="m494.798 33.976h-91.232v-16.774c0-9.486-7.716-17.202-17.201-17.202h-17.24c-4.139 0-7.494 3.355-7.494 7.494s3.355 7.494 7.494 7.494h17.24c1.221 0 2.214.993 2.214 2.214v16.774h-265.158v-16.774c0-1.221.993-2.214 2.213-2.214h208.521c4.139 0 7.494-3.355 7.494-7.494s-3.354-7.494-7.494-7.494h-208.52c-9.485 0-17.201 7.716-17.201 17.202v16.774h-23.928c-4.139 0-7.494 3.355-7.494 7.494s3.355 7.494 7.494 7.494h410.293c1.221 0 2.214.993 2.214 2.214v14.56c0 1.221-.993 2.214-2.214 2.214h-477.598c-1.221 0-2.213-.993-2.213-2.214v-14.56c0-1.221.993-2.214 2.213-2.214h32.333c4.139 0 7.494-3.355 7.494-7.494s-3.355-7.494-7.494-7.494h-32.333c-9.485 0-17.201 7.716-17.201 17.201v14.56c0 9.485 7.716 17.202 17.201 17.202h2.213v307.021c0 9.485 7.716 17.202 17.201 17.202h130.61l-43.729 94.189c-1.609 3.465-.276 7.705 3.023 9.629 3.766 2.196 8.739.627 10.571-3.318l46.659-100.5h65.241v97.345c0 4.139 3.355 7.494 7.494 7.494s7.494-3.355 7.494-7.494v-97.345h67.381l47.948 100.57c1.85 3.882 6.748 5.412 10.485 3.28 3.362-1.919 4.708-6.238 3.043-9.73l-44.873-94.12h128.392c9.484 0 17.201-7.716 17.201-17.202v-46.196c0-4.139-3.355-7.494-7.494-7.494s-7.494 3.355-7.494 7.494v46.196c0 1.221-.992 2.214-2.213 2.214h-439.738c-1.221 0-2.213-.993-2.213-2.214v-307.021h444.165v225.859c0 4.139 3.355 7.494 7.494 7.494s7.494-3.355 7.494-7.494v-225.859h1.243c9.485 0 17.202-7.716 17.202-17.202v-14.56c-.001-9.485-7.717-17.201-17.203-17.201z"/></svg>