<?xml version="1.0" encoding="iso-8859-1"?>
<!-- Generator: Adobe Illustrator 19.0.0, SVG Export Plug-In . SVG Version: 6.00 Build 0)  -->
<svg version="1.1" id="Capa_1" xmlns="http://www.w3.org/2000/svg" xmlns:xlink="http://www.w3.org/1999/xlink" x="0px" y="0px"
	 viewBox="0 0 512 512" style="enable-background:new 0 0 512 512;" xml:space="preserve">
<g>
	<g>
		<rect x="34.133" width="17.067" height="128"/>
	</g>
</g>
<g>
	<g>
		<rect x="68.267" width="17.067" height="128"/>
	</g>
</g>
<g>
	<g>
		<path d="M102.4,0v150.793c0,5.495-1.818,10.957-5.12,15.351l-18.773,25.003c-1.161,1.545-1.758,3.43-1.707,5.359l7.612,273.766
			c0,13.585-11.051,24.636-25.344,24.636c-0.009,0-0.026,0-0.034,0c-6.588-0.179-12.698-2.927-17.229-7.706
			c-4.531-4.779-6.912-11.051-6.733-17.638l7.595-273.067c0.051-1.929-0.546-3.814-1.707-5.359l-18.773-24.994
			c-3.302-4.403-5.12-9.856-5.12-15.36V0H0v150.784c0,9.165,3.029,18.253,8.533,25.6l16.99,22.63l-7.509,270.08
			c-0.316,11.145,3.729,21.743,11.383,29.841c7.654,8.098,18.005,12.732,29.167,13.047L59.733,512c0,0,0.009,0,0.017,0
			c22.997,0,41.711-18.705,41.719-41.711l-7.526-271.275l16.99-22.63c5.504-7.339,8.533-16.427,8.533-25.6V0H102.4z"/>
	</g>
</g>
<g>
	<g>
		<path d="M198.315,0c-0.009,0-0.009,0-0.017,0c-20.25,0-37.146,14.532-40.158,34.56l-38.571,254.285
			c-0.375,2.458,0.341,4.958,1.963,6.852c1.621,1.886,3.977,2.97,6.468,2.97h41.583L149.99,461.995
			c-2.961,24.431,14.498,46.711,38.929,49.681c1.792,0.213,3.584,0.324,5.385,0.324c24.61,0,44.629-20.028,44.629-44.629V40.704
			C238.933,18.313,220.723,0.06,198.315,0z M221.867,467.371c0,15.198-12.365,27.563-27.563,27.563
			c-1.118,0-2.227-0.077-3.328-0.205c-7.305-0.887-13.833-4.557-18.372-10.359c-4.54-5.794-6.554-13.013-5.666-20.335
			l20.736-172.885c0.29-2.423-0.469-4.855-2.091-6.682s-3.942-2.867-6.383-2.867h-41.276L175.01,37.12c0-0.009,0-0.009,0-0.009
			c1.758-11.614,11.546-20.045,23.279-20.045h0.009c12.996,0.034,23.569,10.641,23.569,23.637V467.371z"/>
	</g>
</g>
<g>
	<g>
		<path d="M512,238.933c0-42.342-26.803-76.8-59.733-76.8c-32.93,0-59.733,34.458-59.733,76.8c0,30.114,13.995,59.708,33.92,73.011
			l-7.202,165.538c-0.819,18.185,13.303,33.647,31.505,34.483l1.502,0.034c0.008,0,0.026,0,0.043,0
			c8.798,0,17.084-3.422,23.313-9.651c6.246-6.229,9.694-14.515,9.702-23.347l-7.236-167.057
			C498.005,298.641,512,269.047,512,238.933z M465.459,299.588c-2.978,1.519-4.796,4.642-4.651,7.987l7.441,171.418
			c-0.008,4.258-1.672,8.26-4.693,11.281c-2.987,2.995-6.963,4.642-11.938,4.642c-0.034,0-0.068,0-0.094,0
			c-8.789-0.401-15.625-7.876-15.224-16.674l7.424-170.667c0.145-3.345-1.673-6.468-4.651-7.987
			c-16.529-8.405-29.474-35.055-29.474-60.655c0-32.939,19.14-59.733,42.667-59.733c23.526,0,42.667,26.795,42.667,59.733
			C494.933,264.533,481.988,291.183,465.459,299.588z"/>
	</g>
</g>
<g>
	<g>
		<path d="M409.6,102.4C409.6,45.935,375.151,0,332.8,0C290.449,0,256,45.935,256,102.4c0,42.487,21.504,83.721,50.884,99.183
			l-15.121,267.75c-0.009,10.965,4.25,21.274,11.998,29.03c7.748,7.757,18.057,12.023,29.013,12.032c0.017,0,0.026,0,0.043,0
			c10.948,0,21.24-4.258,28.996-11.998c7.757-7.748,12.023-18.057,12.015-29.542l-15.112-267.281
			C388.096,186.121,409.6,144.887,409.6,102.4z M346.692,188.348c-3.405,1.357-5.564,4.745-5.359,8.414l15.428,272.614
			c0,6.4-2.5,12.425-7.031,16.947c-4.514,4.514-10.53,7.006-16.93,7.006c-0.009,0-0.017,0-0.026,0c-6.4,0-12.425-2.5-16.947-7.031
			c-4.523-4.531-7.014-10.556-7.023-16.478l15.445-273.067c0.205-3.669-1.954-7.057-5.359-8.414
			c-25.702-10.231-45.824-47.983-45.824-85.939c0-47.053,26.803-85.333,59.733-85.333c32.93,0,59.733,38.281,59.733,85.333
			C392.533,140.356,372.412,178.108,346.692,188.348z"/>
	</g>
</g>
<g>
	<g>
		<rect x="34.133" y="221.867" width="51.2" height="17.067"/>
	</g>
</g>
<g>
	<g>
		<rect x="179.2" y="315.733" width="51.2" height="17.067"/>
	</g>
</g>
<g>
	<g>
		<rect x="315.733" y="221.867" width="34.133" height="17.067"/>
	</g>
</g>
<g>
	<g>
		<rect x="435.2" y="324.267" width="34.133" height="17.067"/>
	</g>
</g>
<g>
	<g>
		<path d="M332.8,51.2V34.133c-23.927,0-42.667,29.986-42.667,68.267c0,38.281,18.739,68.267,42.667,68.267V153.6
			c-12.109,0-25.6-21.026-25.6-51.2C307.2,72.226,320.691,51.2,332.8,51.2z"/>
	</g>
</g>
<g>
	<g>
		<path d="M452.267,213.333v-17.067c-14.592,0-25.6,18.338-25.6,42.667s11.008,42.667,25.6,42.667v-17.067
			c-1.69,0-8.533-8.235-8.533-25.6S450.577,213.333,452.267,213.333z"/>
	</g>
</g>
<g>
</g>
<g>
</g>
<g>
</g>
<g>
</g>
<g>
</g>
<g>
</g>
<g>
</g>
<g>
</g>
<g>
</g>
<g>
</g>
<g>
</g>
<g>
</g>
<g>
</g>
<g>
</g>
<g>
</g>
</svg>
