<svg height="512pt" viewBox="0 0 512 512" width="512pt" xmlns="http://www.w3.org/2000/svg"><path d="m409.644531 102.261719c-41.042969-41-95.605469-63.582031-153.644531-63.582031-50.738281 0-100.113281 17.851562-139.039062 50.269531-1.621094 1.351562-2.597657 3.316406-2.691407 5.425781-.097656 2.105469.699219 4.152344 2.191407 5.644531l61.433593 61.378907 234.015625 233.808593c1.40625 1.40625 3.316406 2.191407 5.300782 2.191407.109374 0 .226562 0 .339843-.007813 2.101563-.09375 4.070313-1.070313 5.417969-2.6875 32.449219-38.890625 50.320312-88.226563 50.320312-138.925781-.003906-57.988282-22.605468-112.507813-63.644531-153.515625zm-169.445312 100.183593c13.953125 5.40625 32.425781 10.402344 59.480469 10.402344 7.363281 0 14.503906-.53125 21.621093-1.59375v18.085938c0 14.769531-4.902343 28.796875-13.910156 40.238281zm176.386719 176.230469-98.515626-98.429687c11.800782-14.320313 18.234376-32.128906 18.234376-50.90625v-27.085938c0-.015625 0-.027344 0-.042968v-27.039063c0-4.144531-3.359376-7.5-7.5-7.5-4.144532 0-7.5 3.355469-7.5 7.5v20.898437c-7.125 1.1875-14.25 1.777344-21.621094 1.777344-34.199219 0-52.710938-8.433594-67.585938-15.210937-6.484375-2.953125-12.648437-5.75-19.15625-7.421875l-22.246094-22.226563v-33.5h130.605469v20.675781c0 4.144532 3.359375 7.5 7.5 7.5 4.144531 0 7.5-3.355468 7.5-7.5v-23.324218c0-6.808594-5.539062-12.351563-12.351562-12.351563h-135.898438c-6.8125 0-12.355469 5.542969-12.355469 12.351563v21.164062l-42.699218-42.664062c35.164062-26.925782 78.519531-41.660156 123.003906-41.660156 111.539062 0 202.285156 90.660156 202.285156 202.101562 0 44.441406-14.753906 87.765625-41.699218 122.894531zm0 0"/><path d="m437.015625 74.914062c-48.351563-48.308593-112.636719-74.914062-181.015625-74.914062s-132.664062 26.605469-181.015625 74.914062c-48.355469 48.308594-74.984375 112.542969-74.984375 180.867188 0 68.320312 26.628906 132.554688 74.984375 180.863281 48.351563 48.308594 112.636719 74.914063 181.015625 74.914063s132.664062-26.605469 181.015625-74.914063c48.355469-48.308593 74.984375-112.542969 74.984375-180.863281 0-68.324219-26.628906-132.558594-74.984375-180.867188zm-10.601563 351.121094c-45.519531 45.480469-106.039062 70.523438-170.414062 70.523438s-124.894531-25.042969-170.414062-70.523438c-45.519532-45.476562-70.585938-105.941406-70.585938-170.253906s25.066406-124.777344 70.585938-170.257812c45.519531-45.476563 106.039062-70.523438 170.414062-70.523438s124.894531 25.046875 170.414062 70.523438c45.519532 45.480468 70.585938 105.945312 70.585938 170.257812s-25.066406 124.777344-70.585938 170.253906zm0 0"/><path d="m280.71875 297.792969c0-.003907 0-.003907-.003906-.003907l-92.207032-92.128906c-.003906-.003906-.007812-.007812-.015624-.011718l-88.847657-88.769532c-1.492187-1.492187-3.539062-2.269531-5.652343-2.1875-2.105469.101563-4.074219 1.082032-5.421876 2.707032-32.148437 38.792968-49.855468 87.9375-49.855468 138.382812 0 54.832031 20.511718 107.183594 57.761718 147.40625 37.039063 39.996094 87.257813 64.480469 141.40625 68.949219.210938.019531.417969.023437.625.023437 3.863282 0 7.144532-2.964844 7.464844-6.882812.34375-4.128906-2.726562-7.75-6.855468-8.089844-50.402344-4.160156-97.152344-26.957031-131.636719-64.191406-34.671875-37.441406-53.765625-86.171875-53.765625-137.214844 0-44.199219 14.601562-87.328125 41.273437-122.351562l80.707031 80.636718v15.273438c0 34.8125 22.3125 64.507812 53.390626 75.589844v62.894531h-11.914063c-17.515625 0-31.769531 14.242187-31.769531 31.746093 0 6.808594 5.542968 12.347657 12.355468 12.347657h40.742188c4.140625 0 7.5-3.355469 7.5-7.5 0-4.140625-3.359375-7.5-7.5-7.5h-37.886719c1.277344-7.976563 8.214844-14.09375 16.558594-14.09375h19.414063c4.140624 0 7.5-3.355469 7.5-7.5v-66.632813c3.890624.578125 7.867187.886719 11.914062.886719 3.996094 0 7.980469-.300781 11.914062-.886719v66.632813c0 4.144531 3.355469 7.5 7.5 7.5h19.414063c8.34375 0 15.28125 6.117187 16.558594 14.097656h-37.886719c-4.144531 0-7.5 3.355469-7.5 7.5 0 4.140625 3.355469 7.5 7.5 7.5h40.742188c6.8125 0 12.355468-5.542969 12.355468-12.351563 0-17.503906-14.253906-31.746093-31.769531-31.746093h-11.914063v-46.636719l95.546876 95.464844c-30.6875 23.378906-67.015626 37.351562-105.578126 40.535156-4.128906.339844-7.199218 3.960938-6.855468 8.089844.339844 4.128906 3.964844 7.191406 8.089844 6.859375 44.378906-3.664063 86.007812-20.628907 120.378906-49.066407 1.625-1.347656 2.609375-3.316406 2.710937-5.429687.097657-2.109375-.699219-4.164063-2.191406-5.65625zm-90.023438-68.453125v-.285156l65.578126 65.515624c-.089844 0-.183594.007813-.273438.007813-36.007812 0-65.304688-29.265625-65.304688-65.238281zm0 0"/></svg>