<svg height="512pt" viewBox="-45 0 511 512" width="512pt" xmlns="http://www.w3.org/2000/svg"><path d="m420.5 256c0-56.089844-21.84375-108.824219-61.507812-148.492188-29.953126-29.949218-67.308594-49.785156-108.492188-57.699218v-39.808594c0-5.523438-4.476562-10-10-10h-60c-5.523438 0-10 4.476562-10 10v39.828125c-27.128906 5.214844-52.601562 15.601563-75.808594 30.972656-4.605468 3.050781-5.867187 9.253907-2.816406 13.859375 1.921875 2.902344 5.105469 4.476563 8.347656 4.476563 1.894532 0 3.8125-.535157 5.511719-1.664063 19.90625-13.183594 41.648437-22.316406 64.765625-27.246094v20.515626c-30.335938 7.300781-57.925781 22.765624-80.207031 45.046874-32.109375 32.109376-49.792969 74.800782-49.792969 120.207032 0 38.148437 12.347656 74.199218 35.710938 104.253906 1.757812 2.265625 4.40625 3.664062 7.269531 3.84375.210937.011719.417969.019531.625.019531 2.644531 0 5.1875-1.046875 7.070312-2.929687l224.507813-224.507813c2.03125-2.03125 3.089844-4.832031 2.910156-7.695312-.175781-2.863281-1.578125-5.511719-3.84375-7.273438-18.941406-14.722656-41.011719-25.324219-64.25-30.949219v-20.542968c35.746094 7.621094 68.171875 25.257812 94.347656 51.4375 35.886719 35.886718 55.652344 83.601562 55.652344 134.347656 0 50.75-19.765625 98.460938-55.652344 134.347656-13.203125 13.207032-28.078125 24.265625-44.347656 33.019532v-23.125c10.929688-6.832032 21.074219-14.898438 30.207031-24.03125.367188-.367188.730469-.730469 1.089844-1.101563 3.871094-3.9375 3.816406-10.269531-.121094-14.140625s-10.269531-3.820312-14.140625.117188c-.324218.328124-.644531.65625-.96875.980468-5.023437 5.023438-10.402344 9.667969-16.066406 13.921875v-153.988281c0-4.234375-.308594-8.476562-.90625-12.667969l36.058594-36.0625c16.289062 24.523438 24.847656 52.898438 24.847656 82.730469 0 13.632812-1.832031 27.144531-5.4375 40.164062-1.476562 5.320313 1.640625 10.832032 6.964844 12.308594 5.320312 1.472656 10.832031-1.644531 12.304687-6.96875 4.089844-14.753906 6.167969-30.066406 6.167969-45.503906 0-38.148438-12.347656-74.199219-35.710938-104.25-1.761718-2.265625-4.410156-3.664062-7.269531-3.84375-2.859375-.167969-5.667969.878906-7.695312 2.90625l-48.085938 48.085938c-.011719.015624-.027343.03125-.042969.046874l-15.976562 15.976563c-.003906.003906-.011719.011719-.015625.015625l-142.269531 142.269531c-.003906 0-.007813.003907-.007813.007813l-18.109375 18.109375c-2.03125 2.03125-3.089844 4.832031-2.910156 7.695312.175781 2.863281 1.578125 5.511719 3.84375 7.273438 4.566406 3.546875 9.339844 6.882812 14.25 9.953125v23.121094c-16.269531-8.753907-31.144531-19.8125-44.347656-33.019532-35.886719-35.886718-55.652344-83.597656-55.652344-134.347656 0-37.453125 10.886719-73.683594 31.476562-104.773438 3.050782-4.601562 1.792969-10.808593-2.8125-13.855468-4.605468-3.050782-10.808593-1.789063-13.859374 2.8125-22.769532 34.375-34.804688 74.425781-34.804688 115.816406 0 56.089844 21.84375 108.824219 61.507812 148.492188 17.117188 17.113281 36.773438 30.972656 58.492188 41.28125v56.226562c0 5.523438 4.476562 10 10 10h159.996094c5.523437 0 10-4.476562 10-10v-56.226562c21.71875-10.308594 41.375-24.167969 58.492187-41.28125 39.667969-39.667969 61.511719-92.402344 61.511719-148.492188zm-208.421875-44h-70.859375c3.496094-24.382812 19.617188-45.300781 43.058594-54.863281 3.761718-1.535157 6.222656-5.191407 6.222656-9.257813v-48.902344c0-.011718 0-.019531 0-.03125v-38.945312h40v38.945312.03125 48.902344c0 4.0625 2.460938 7.722656 6.222656 9.257813 6.78125 2.765625 13.144532 6.667969 18.789063 11.425781zm-71.578125 20h51.578125l-51.578125 51.578125zm90-212v20h-40v-20zm-145.152344 318.730469c-16.289062-24.523438-24.847656-52.898438-24.847656-82.730469 0-40.066406 15.601562-77.734375 43.933594-106.066406 18.507812-18.507813 41.160156-31.675782 66.066406-38.53125v30.027344c-30.585938 15.203124-50 46.132812-50 80.570312v81.578125zm207.871094-207.871094-23.527344 23.523437c-5.832031-5.105468-12.292968-9.484374-19.191406-12.941406v-30.03125c15.117188 4.1875 29.59375 10.769532 42.71875 19.449219zm-152.71875 298.496094v-60.933594l136.421875-136.421875h3.578125v197.355469zm0 62.644531v-42.644531h140v42.644531zm0 0"/><path d="m69.082031 124.578125c2.402344 0 4.808594-.859375 6.726563-2.597656l.003906-.007813c4.085938-3.714844 4.382812-10.035156.667969-14.125-3.710938-4.082031-10.039063-4.382812-14.125-.667968-4.085938 3.714843-4.390625 10.039062-.675781 14.125 1.972656 2.171874 4.683593 3.273437 7.402343 3.273437zm0 0"/><path d="m354.613281 327.675781c-4.59375-3.0625-10.804687-1.816406-13.871093 2.777344-3.0625 4.59375-1.820313 10.804687 2.773437 13.867187 1.707031 1.136719 3.632813 1.679688 5.539063 1.679688 3.230468 0 6.402343-1.5625 8.328124-4.453125l.003907-.007813c3.0625-4.59375 1.820312-10.800781-2.773438-13.863281zm0 0"/></svg>