<?xml version="1.0" encoding="iso-8859-1"?>
<!-- Generator: Adobe Illustrator 19.0.0, SVG Export Plug-In . SVG Version: 6.00 Build 0)  -->
<svg version="1.1" id="Capa_1" xmlns="http://www.w3.org/2000/svg" xmlns:xlink="http://www.w3.org/1999/xlink" x="0px" y="0px"
	 viewBox="0 0 512 512" style="enable-background:new 0 0 512 512;" xml:space="preserve">
<g>
	<g>
		<path d="M461,205H209.406L440.83,70.125c4.758-2.773,6.379-8.871,3.625-13.64L414.73,5c-1.326-2.297-3.51-3.973-6.072-4.659
			c-2.56-0.686-5.291-0.327-7.588,0.999L103.356,173.225H51c-5.522,0-10,4.477-10,10V285v217c0,5.523,4.478,10,10,10h410
			c5.522,0,10-4.477,10-10V285v-70C471,209.477,466.522,205,461,205z M438.477,225l-27.969,50h-38.583l27.969-50H438.477z
			 M376.977,225l-27.969,50h-38.583l27.969-50H376.977z M315.477,225l-27.969,50h-38.583l27.969-50H315.477z M215.394,225h38.583
			l-27.969,50h-38.583L215.394,225z M402.41,23.66l13.413,23.233l-32.054-12.471L402.41,23.66z M361.563,47.243l47.261,18.387
			L377.91,83.647c-0.181-0.083-0.357-0.172-0.545-0.245l-46.856-18.23L361.563,47.243z M308.303,77.993l47.56,18.503l-30.93,18.026
			c-0.269-0.133-0.543-0.26-0.828-0.371l-46.856-18.229L308.303,77.993z M255.042,108.742l47.859,18.62l-30.967,18.048
			c-0.35-0.187-0.711-0.361-1.09-0.509l-46.856-18.229L255.042,108.742z M201.782,139.492l48.158,18.736l-31.015,18.076
			c-0.427-0.244-0.869-0.469-1.341-0.653l-46.856-18.229L201.782,139.492z M120.45,186.449l28.071-16.207l48.458,18.852
			l-25.764,15.015c-0.455,0.265-0.871,0.569-1.267,0.89H120.45V186.449z M120.45,225h72.027l-27.969,50H120.45V225z M61,193.225
			h39.45V275H61V193.225z M451,492H61V295h49.45H451V492z M451,275h-17.575L451,243.582V275z"/>
	</g>
</g>
<g>
	<g>
		<path d="M358.5,362.85h-205c-5.522,0-10,4.477-10,10s4.477,10,10,10h205c5.522,0,10-4.477,10-10S364.022,362.85,358.5,362.85z"/>
	</g>
</g>
<g>
	<g>
		<path d="M358.5,403.849h-41.895c-5.522,0-10,4.477-10,10s4.478,10,10,10H358.5c5.522,0,10-4.477,10-10
			S364.022,403.849,358.5,403.849z"/>
	</g>
</g>
<g>
	<g>
		<path d="M288.549,403.849h-0.112c-5.522,0-10,4.477-10,10s4.478,10,10,10h0.112c5.522,0,10-4.477,10-10
			S294.071,403.849,288.549,403.849z"/>
	</g>
</g>
<g>
	<g>
		<path d="M260.881,403.85H153.5c-5.522,0-10,4.477-10,10s4.477,10,10,10h107.381c5.522,0,10-4.477,10-10
			S266.403,403.85,260.881,403.85z"/>
	</g>
</g>
<g>
	<g>
		<path d="M87.799,221.77c-1.86-1.86-4.44-2.93-7.07-2.93c-2.64,0-5.21,1.07-7.08,2.93c-1.859,1.86-2.92,4.44-2.92,7.07
			s1.061,5.21,2.92,7.07c1.87,1.86,4.44,2.93,7.08,2.93c2.63,0,5.21-1.07,7.07-2.93c1.861-1.86,2.93-4.44,2.93-7.07
			S89.659,223.63,87.799,221.77z"/>
	</g>
</g>
<g>
</g>
<g>
</g>
<g>
</g>
<g>
</g>
<g>
</g>
<g>
</g>
<g>
</g>
<g>
</g>
<g>
</g>
<g>
</g>
<g>
</g>
<g>
</g>
<g>
</g>
<g>
</g>
<g>
</g>
</svg>
