<?xml version="1.0"?>
<svg xmlns="http://www.w3.org/2000/svg" xmlns:xlink="http://www.w3.org/1999/xlink" width="512" height="512" viewBox="0 0 128 128"><defs><linearGradient id="a" x1="116.915" y1="133.194" x2="9.69" y2="25.969" gradientUnits="userSpaceOnUse"><stop offset="0" stop-color="#d7245a"/><stop offset="1" stop-color="#4aceef"/></linearGradient></defs><path d="M120.25,108.739h-1.707l-1.9-64.5a8.505,8.505,0,0,0,7.951-8.472,1.75,1.75,0,0,0-3.5,0,5.006,5.006,0,0,1-5,5H99.781a5,5,0,0,1,0-10h16.313a1.75,1.75,0,0,0,0-3.5H99.781a8.495,8.495,0,0,0-.549,16.972l-.094,3.2a93.862,93.862,0,0,1-70.222,1.833l-.148-5.033a8.495,8.495,0,0,0-.549-16.972H11.906a8.495,8.495,0,0,0-.549,16.972l-1.9,64.5H7.75A7.759,7.759,0,0,0,0,116.489v4.9a1.75,1.75,0,0,0,1.75,1.75h124.5a1.75,1.75,0,0,0,1.75-1.75v-4.9A7.759,7.759,0,0,0,120.25,108.739ZM101.3,92.935h13.277l.465,15.8H100.834Zm11.844-48.667,1.33,45.167H101.4l1.33-45.167ZM97.622,98.9,89.729,75.934a1.753,1.753,0,0,0-1.656-1.181H67.719a1.75,1.75,0,0,0,0,3.5H86.824L97.3,108.739H95.625a7.759,7.759,0,0,0-7.75,7.75v3.145H40.125v-3.145a7.759,7.759,0,0,0-7.75-7.75H30.7L41.176,78.253h4.98a1.75,1.75,0,0,0,0-3.5H39.927a1.753,1.753,0,0,0-1.656,1.181L30.378,98.9,29.341,63.7a106.731,106.731,0,0,0,32.383,5.019A106.6,106.6,0,0,0,98.7,62.16ZM26.6,89.435H13.527l1.33-45.167H25.268Zm2.43-36.369a97.472,97.472,0,0,0,70-1.759l-.208,7.073a103.1,103.1,0,0,1-37.091,6.842,103.227,103.227,0,0,1-32.491-5.21ZM6.906,35.768a5.006,5.006,0,0,1,5-5H28.219a5,5,0,0,1,0,10H11.906A5.006,5.006,0,0,1,6.906,35.768Zm6.518,57.167H26.7l.465,15.8H12.959ZM3.5,116.489a4.255,4.255,0,0,1,4.25-4.25H32.375a4.255,4.255,0,0,1,4.25,4.25v3.146H3.5Zm121,3.146H91.375v-3.146a4.255,4.255,0,0,1,4.25-4.25H120.25a4.255,4.255,0,0,1,4.25,4.25ZM52.37,30.9,50.224,43.411a1.75,1.75,0,0,0,2.539,1.844L64,39.348l11.237,5.907a1.75,1.75,0,0,0,2.539-1.844L75.63,30.9l9.092-8.862a1.751,1.751,0,0,0-.97-2.985L71.187,17.226,65.569,5.841a1.749,1.749,0,0,0-3.138,0L56.812,17.226,44.248,19.051a1.751,1.751,0,0,0-.97,2.985Zm5.857-10.341a1.752,1.752,0,0,0,1.317-.957L64,10.57l4.456,9.03a1.752,1.752,0,0,0,1.317.957l9.966,1.448-7.211,7.029a1.752,1.752,0,0,0-.5,1.549l1.7,9.924-8.914-4.685a1.749,1.749,0,0,0-1.628,0l-8.914,4.685,1.7-9.924a1.752,1.752,0,0,0-.5-1.549l-7.211-7.029ZM60.187,76.5a1.75,1.75,0,0,1-1.75,1.75h-3a1.75,1.75,0,0,1,0-3.5h3A1.75,1.75,0,0,1,60.187,76.5Z" fill="url(#a)"/></svg>
