<svg id="Capa_1" enable-background="new 0 0 512 512" height="512" viewBox="0 0 512 512" width="512" xmlns="http://www.w3.org/2000/svg"><circle cx="256" cy="335.257" r="7.5"/><circle cx="408.304" cy="233.667" r="7.5"/><circle cx="440.95" cy="233.667" r="7.5"/><ellipse cx="473.596" cy="233.667" rx="7.5" ry="7.5" transform="matrix(.987 -.16 .16 .987 -31.314 78.879)"/><circle cx="408.304" cy="262.667" r="7.5"/><circle cx="440.95" cy="262.667" r="7.5"/><ellipse cx="473.596" cy="262.667" rx="7.5" ry="7.5" transform="matrix(.987 -.16 .16 .987 -35.959 79.253)"/><path d="m478.45 28.391h-343.425c-4.142 0-7.5 3.358-7.5 7.5s3.358 7.5 7.5 7.5h343.425c10.229 0 18.55 8.321 18.55 18.55v7.004h-482v-7.004c0-10.229 8.322-18.55 18.55-18.55h71.475c4.142 0 7.5-3.358 7.5-7.5s-3.358-7.5-7.5-7.5h-71.475c-18.5 0-33.55 15.05-33.55 33.55v286.569c0 18.499 15.051 33.55 33.55 33.55h158.842v53.453h-12.624c-17.674 0-32.054 14.379-32.054 32.054v8.542c0 4.142 3.358 7.5 7.5 7.5h201.572c4.142 0 7.5-3.358 7.5-7.5v-8.542c0-17.674-14.379-32.054-32.053-32.054h-12.625v-53.453h14.956c4.142 0 7.5-3.358 7.5-7.5s-3.358-7.5-7.5-7.5h-301.014c-10.228 0-18.55-8.321-18.55-18.55v-45.056h482v45.056c0 10.228-8.321 18.55-18.55 18.55h-113.886c-4.142 0-7.5 3.358-7.5 7.5s3.358 7.5 7.5 7.5h113.886c18.5 0 33.55-15.05 33.55-33.55v-286.569c0-18.5-15.05-33.55-33.55-33.55zm-146.217 422.122c9.403 0 17.053 7.65 17.053 17.054v1.042h-186.572v-1.042c0-9.403 7.65-17.054 17.054-17.054zm-124.841-68.453h97.216v53.453h-97.216zm289.608-249.644-39.67-29.233c-2.956-2.178-7.055-1.896-9.685.667-18.075 17.62-45.881 44.542-56.825 54.741-6.509-6.379-18.988-18.972-30.25-30.461-1.488-1.519-3.54-2.33-5.675-2.243-2.124.09-4.11 1.078-5.464 2.718-3.935 4.765-28.839 34.927-44.823 54.363v-99.023h192.392zm0 64.066h-184.085c10.731-13.058 28.271-34.329 42.778-51.903 30.372 30.947 30.833 31.023 33.787 31.504 3.758.612 5.817-1.263 9.223-4.367 1.713-1.562 4.166-3.854 7.288-6.81 5.219-4.941 12.414-11.838 21.385-20.497 10.222-9.868 20.476-19.831 26.177-25.377l43.447 32.016zm-237.126-112.537h29.733v112.538h-29.733zm-15 0v112.538h-229.874v-112.538zm-229.874 204.51v-76.972h482v76.972z"/><path d="m191.032 226.167h-111.365c-4.142 0-7.5 3.358-7.5 7.5s3.358 7.5 7.5 7.5h111.365c4.142 0 7.5-3.358 7.5-7.5s-3.358-7.5-7.5-7.5z"/><path d="m191.032 255.167h-111.365c-4.142 0-7.5 3.358-7.5 7.5s3.358 7.5 7.5 7.5h111.365c4.142 0 7.5-3.358 7.5-7.5s-3.358-7.5-7.5-7.5z"/><path d="m322.233 226.167h-97.088c-4.142 0-7.5 3.358-7.5 7.5s3.358 7.5 7.5 7.5h97.088c4.142 0 7.5-3.358 7.5-7.5s-3.358-7.5-7.5-7.5z"/><path d="m322.233 255.167h-97.088c-4.142 0-7.5 3.358-7.5 7.5s3.358 7.5 7.5 7.5h97.088c4.142 0 7.5-3.358 7.5-7.5s-3.358-7.5-7.5-7.5z"/><path d="m101.229 182.708c1.16.67 2.455 1.005 3.75 1.005s2.59-.335 3.75-1.005l62.352-35.999c2.32-1.34 3.75-3.815 3.75-6.495s-1.43-5.155-3.75-6.495l-62.352-35.999c-2.32-1.34-5.18-1.34-7.5 0s-3.75 3.815-3.75 6.495v71.998c0 2.679 1.43 5.155 3.75 6.495zm11.25-65.503 39.852 23.009-39.852 23.009z"/></svg>