<?xml version="1.0" encoding="iso-8859-1"?>
<!-- Generator: Adobe Illustrator 19.0.0, SVG Export Plug-In . SVG Version: 6.00 Build 0)  -->
<svg version="1.1" id="Capa_1" xmlns="http://www.w3.org/2000/svg" xmlns:xlink="http://www.w3.org/1999/xlink" x="0px" y="0px"
	 viewBox="0 0 512.003 512.003" style="enable-background:new 0 0 512.003 512.003;" xml:space="preserve">
<g>
	<g>
		<path d="M96.405,128.103c-1.003-1.51-2.191-2.441-3.465-2.929c-5.123-6.358-7.879-14.338-11.896-21.389
			c-1.105-1.941-3.695-2.555-5.609-1.471c-7.926,4.495-15.826,9.023-23.426,14.059c-1.937,1.282-2.596,3.609-1.494,5.696
			c2.932,5.557,3.932,11.854,6.603,17.544c1.373,2.924,3.368,5.728,4.884,8.688c-5.94,0.432-11.687,5.67-13.785,10.86
			c-2.979,7.362,0.737,15.687,9.537,14.337c3.943-0.15,8.18-2.252,10.849-4.998c1.892-1.947,3.223-4.512,3.812-7.166
			c1.24-2.431,1.859-5.146,1.577-7.904c-0.608-5.967-4.03-11.291-6.935-16.382c-2.887-5.06-4.976-10.505-7.55-15.724
			c5.3-3.506,10.792-6.688,16.324-9.817c2.501,5.085,4.518,10.266,7.329,15.134c-2.855,1.438-5.39,3.531-6.742,6.309
			c-2.439,5.006-0.05,11.187,5.098,13.313C91.116,150.228,102.2,136.818,96.405,128.103z"/>
	</g>
</g>
<g>
	<g>
		<path d="M292.311,90.158c-1.67-3.704-3.732-7.29-4.873-11.164c-1.308-4.444-1.344-9.122-2.683-13.571
			c-0.53-1.764-2.299-3.344-4.239-3.229c-10.049,0.597-17.764,7.384-27.412,8.896c-2.463,0.386-4.05,3.619-3.322,5.851
			c2.53,7.752,4.848,15.998,4.689,24.237c-5.764-0.71-12.371,1.988-14.079,7.491c-1.333,4.295,0.262,9.873,4.874,11.329
			c1.131,0.357,2.285,0.431,3.434,0.297c0.545,0.197,1.106,0.352,1.682,0.449c12.41,2.105,15.869-13.499,14.303-22.199
			c-0.416-2.319-6.99-19.092-4.334-20.34c5.428-2.549,11.081-5.582,16.779-6.753c0.59,3.304,0.843,6.655,1.668,9.925
			c0.645,2.555,1.693,4.973,2.772,7.38c-6.203,1.481-11.18,6.514-7.804,13.775c3.848,8.27,17.051,7.146,21.17-0.312
			C297.701,97.217,295.848,92.672,292.311,90.158z"/>
	</g>
</g>
<g>
	<g>
		<path d="M456.012,100.485c-0.63-3.956-1.72-8.346-5.624-10.289c-3.403-1.692-7.533-1.014-11.08-0.172
			c-3.42,0.811-8.187,1.811-10.697,4.504c-3.36,3.602-1.571,7.736-1.018,11.93c0.88,6.656,2.037,13.382,2.225,20.102
			c0.031,1.121,0.124,2.614,0.084,4.115c-6.361-2.442-15.337,0.96-17.226,8.116c-1.515,5.741,1.224,9.483,5.293,11.098
			c6.677,3.641,16.676-0.719,18.148-7.993c0.279-0.375,0.548-0.771,0.796-1.2c3.197-5.546,2.673-12.893,2.022-19.001
			c-0.381-3.577-0.984-7.135-1.585-10.684c5.208-1.122,10.156-3.099,15.28-4.569C455.349,105.663,456.429,103.1,456.012,100.485z"/>
	</g>
</g>
<g>
	<g>
		<path d="M478.173,373.539c-6.042-6.996-15.077-8.506-23.798-9.4c-8.529-0.875-16.333-1.007-24.615,0.813
			c-1.709,0.376-21.105,5.896-21.201,4.453c-0.08-1.217,0.203-2.299,0.221-3.514c0.092-6.267-1.734-14.049-4.961-20.196
			c2.875-1.749,3.936-4.872,4.635-8.255c3.215,1.402,6.701,1.785,9.643-0.769c3.813-3.308,3.412-9.129,2.496-13.591
			c-1.371-6.675-3.979-13.508-6.337-19.893c-1.751-4.744-3.569-10.911-7.54-14.398c3.947-14.047-3.22-31.739,14.133-38.55
			c7.067-2.774,15.162-4.745,20.971-9.898c6.252-5.548,6.584-13.675,4.35-21.273c-0.509-1.729-2.202-3.173-4.066-3.097
			c-8.322,0.341-15.796,3.523-23.2,7.084c-0.97,0.467-1.938,0.911-2.905,1.336c0.672-0.723,1.303-1.504,1.868-2.379
			c3.323-5.147,4.525-11.867,5.136-17.847c1.198-11.759-1.377-25.913-12.727-32.045c-2.053-1.11-4.197-1.88-6.385-2.344
			c2.105-6.705,1.505-14.967,1.222-21.56c-0.409-9.524-1.36-18.982-1.268-28.527c0.108-11.271,0.733-22.525,1.264-33.783
			c0.466-9.879,1.895-20.925,0.224-30.888c4.253-0.715,8.23-5.114,9.537-9.097c1.004-3.062,1.372-6.314,1.336-9.526
			c-0.07-6.246-1.621-12.659-4.576-18.175c-5.447-10.168-15.928-17.521-27.538-18.168c-10.393-0.579-20.622,3.656-27.363,11.543
			c-5.104,5.973-12.672,16.131-9.644,24.559c1.043,2.898,3.15,4.958,5.748,6.503c-2.475,3.431-4.18,7.817-6.012,11.216
			c-3.482,6.457-6.877,12.956-10.225,19.483c-6.536,12.748-12.934,25.566-19.219,38.439c-6.281,12.868-12.527,25.752-18.65,38.695
			c-5.107,10.793-10.601,21.577-15.268,32.611c-2.777-6.515-7.732-11.997-14.953-14.871c-8.082-3.217-18.219-3.315-26.052,0.71
			c-1.109,0.57-2.23,1.272-3.329,2.074c-1.254-6.582-5.818-13.604-8.446-18.587c-6.913-13.106-12.841-26.727-19.386-40.019
			c-6.692-13.594-13.902-26.627-19.613-40.695c-4.54-11.18-8.718-23.412-16.72-32.654c0.654-0.866,1.198-1.824,1.587-2.906
			c3.029-8.428-4.537-18.586-9.642-24.559c-6.743-7.884-16.973-12.119-27.366-11.54c-11.609,0.646-22.09,8-27.537,18.168
			c-2.889,5.393-4.428,11.637-4.568,17.741c-0.162,6.976,2.234,16.809,9.945,18.861c-1.36,9.389-1.014,19.307-1.479,28.714
			c-0.516,10.43-1.052,20.862-1.156,31.307c-0.103,10.085-0.271,20.143-0.684,30.222c-0.197,4.839-0.094,9.67-0.193,14.511
			c-0.065,3.167-1.092,6.776-0.922,10.035c-2.51,0.433-4.972,1.242-7.314,2.509c-11.35,6.132-13.925,20.286-12.726,32.045
			c0.61,5.979,1.812,12.699,5.136,17.847c0.564,0.875,1.195,1.656,1.867,2.379c-0.968-0.425-1.936-0.869-2.904-1.336
			c-7.405-3.561-14.878-6.743-23.201-7.084c-1.864-0.076-3.558,1.368-4.066,3.097c-2.234,7.599-1.902,15.726,4.35,21.273
			c5.809,5.153,13.903,7.124,20.971,9.898c17.353,6.811,10.186,24.503,14.133,38.55c-3.971,3.487-5.788,9.654-7.541,14.398
			c-2.357,6.385-4.965,13.218-6.336,19.893c-0.916,4.462-1.316,10.283,2.496,13.591c2.941,2.554,6.428,2.171,9.643,0.769
			c0.699,3.383,1.76,6.506,4.635,8.255c-3.227,6.147-5.054,13.931-4.961,20.196c0.018,1.184,0.176,2.398,0.442,3.596
			c-8.755-0.025-17.52-0.225-26.194,0.027c-6.137,0.178-12.076,0.793-18.152,0.528c-4.035-0.177-8.627,1.079-12.462,2.194
			c-7.675,2.231-17.228,6.735-18.657,15.565c-0.769,4.755-1.473,9.755-1.362,14.599c0.222,9.691,4.292,19.181,14.61,21.37
			c1.443,0.306,2.922,0.547,4.414,0.761c-1.383,16.412-1.822,32.903-1.875,49.374c-0.021,7.308-0.078,15.663,3.191,22.391
			c2.687,5.526,7.852,8.831,13.514,10.774c12.381,4.251,26.367,2.573,39.236,3.066c22.805,0.874,45.631,0.627,68.447,0.625
			c45.679-0.004,91.363,0.217,137.041,0.603c22.868,0.192,45.719,0.724,68.582-0.028c11.089-0.364,22.221-0.801,33.312-0.234
			c7.604,0.389,15.202,1.363,22.821,0.636c8.053-0.769,15.646-3.297,20.467-10.156c4.536-6.456,6.066-14.668,7.068-22.333
			c0.954-7.306,1.316-14.698,1.72-22.052c0.651-11.854-2.212-23.604-0.892-35.453c0.022-0.208,0.033-0.409,0.037-0.605
			c3.387-0.722,6.653-1.792,9.637-3.437C486.66,409.659,488.681,385.706,478.173,373.539z M408.625,314.773
			c1.152,3.882,2.784,7.883,3.212,11.927c0.052,0.485-0.054,1.547-0.025,2.296c-0.431-0.186-0.966-0.357-1.276-0.529
			c-1.053-0.582-2.019-1.335-2.99-2.039c-2.277-1.65-6.004,0.033-6.568,2.672c-0.529,2.48,0.176,10.076-3.62,9.008
			c-2.224-0.627-4.152-3.816-5.688-5.417c-1.571-1.64-3.198-3.184-5.155-4.355c-1.826-1.095-3.902-0.291-5.037,1.321
			c-1.671,2.371-6.18,6.605-8.764,4.287c-2.168-1.946-3.254-5.751-5.15-8.077c-1.334-1.637-4.653-1.665-5.989,0
			c-1.54,1.919-3.229,3.577-4.975,5.303c-0.241,0.238-0.935,0.554-1.241,0.816c-0.262-0.942-0.954-3.239-0.925-3.137
			c-0.635-2.231-3.038-3.633-5.289-3.003c-1.286,0.359-3.526,0.75-4.63,1.575c-0.031,0.024-0.067,0.045-0.104,0.063
			c-0.175-0.267-0.364-0.563-0.43-0.809c-1.415-5.36-1.487-9.65,0.071-15.078c1.461-5.084,4.086-9.607,7.127-13.898
			c1.127-1.59,2.307-3.057,3.282-4.602c1.872,2.582,4.666,4.764,8.739,6.369c10.092,3.977,31.003,6.577,39.563-2.952
			c0.629,1.733,1.318,3.454,1.879,5.2C406.027,306.047,407.33,310.411,408.625,314.773z M383.758,340.081
			c-0.209-0.403-0.473-0.731-0.771-0.996c0.655-0.672,1.286-1.377,1.892-2.088c3.537,4.185,6.281,9.193,11.717,10.007
			c1.412,5.485,3.781,10.717,4.187,16.497c0.116,1.655-0.142,4.246-0.895,6.121c-1.966-0.038-3.93-0.104-5.895-0.187
			C387.236,361.315,388.398,349.06,383.758,340.081z M384.573,368.93c-6.642-0.419-13.299-0.922-20.016-1.245
			c1.839-3.77,2.632-8.355,3.128-11.907c0.588-4.216,1.225-8.879,1.146-13.419c0.933,0.575,2.002,1.024,3.301,1.267
			c1.699,0.316,3.258,0.166,4.7-0.309c0.46,6.818,3.317,14.465,5.676,20.646C383.104,365.518,383.779,367.226,384.573,368.93z
			 M362.84,337.153c-0.589,4.095-0.952,8.217-1.635,12.304c-0.561,3.361-1.277,6.708-2.324,9.955
			c-0.495,1.54-1.451,5.741-3.143,6.535c-5.009,2.354-3.813-10.589-3.499-12.58c0.589-3.734,2.129-8.054,2.761-12.21
			c0.373-0.006,0.756-0.03,1.157-0.093C358.792,340.654,360.936,339.064,362.84,337.153z M439.213,224.911
			c1.473,6.406-1.462,10.554-8.418,13.725c-6.885,3.139-15.091,4.113-21.439,8.357c-13.241,8.852-8.623,26.836-11.826,40.027
			c-2.652,10.915-23.668,7.317-31.043,4.195c-7.072-2.993-7.605-9.459-6.592-16.577c1.267-8.889,4.635-17.556,4.205-26.647
			c-0.474-10.053-6.669-19.916-11.021-28.74c-1.67-3.387-6.066-9.18-5.139-13.205c0.602-2.608,3.839-3.969,6.557-4.946
			c5.605,7.745,6.234,18.263,13.381,25.192c7.361,7.137,19.738,11.73,29.953,10.438c0.52-0.064,0.969-0.231,1.356-0.461
			C412.928,238.942,425.783,227.87,439.213,224.911z M406.993,181.346c4.444,5.72,6.843,12.462,6.718,19.958
			c-0.123,2.039-0.354,4.035-0.621,5.898c-0.015,0.094-0.027,0.192-0.041,0.287c-1.811,9.043-7.81,18.287-17.907,18.377
			c-15.657,0.139-24.974-18.243-19.515-31.87C379.956,183.186,396.307,173.359,406.993,181.346z M356.613,28.803
			c2.873-7.096,10.576-14.338,17.775-17.205c9.829-3.916,18.646,0.328,25.477,7.656c5.301,5.688,8.688,13.481,8.331,21.33
			c-0.112,1.15-0.255,2.306-0.41,3.472c-0.073,0.384-0.142,0.769-0.235,1.151c-0.832,3.401-2.613,2.978-5.701,2.509
			c-4.164-0.632-8.287-1.675-12.332-2.826c-7.783-2.215-15.441-4.764-23.254-6.87c-2.941-0.793-6.791-1.546-9.228-3.519
			C354.996,32.85,355.678,31.113,356.613,28.803z M286.033,191.354c6.617-12.629,11.998-26.031,17.995-38.969
			c6.024-12.999,12.111-25.972,18.39-38.85c6.124-12.564,12.357-25.075,18.723-37.519c3.342-6.532,6.707-13.054,10.063-19.578
			c1.815-3.528,4.647-7.58,6.128-11.7c3.756,1.354,7.827,2.133,11.088,2.941c10.772,2.673,21.641,7.33,32.916,7.523
			c-1.335,9.331-0.779,19.264-1.304,28.596c-0.632,11.256-1.435,22.508-1.694,33.781c-0.217,9.381,0.533,18.652,1.006,28.011
			c0.232,4.601,0.377,9.219,0.121,13.822c-0.185,3.347-0.931,6.568-1.42,9.838c-13.599,0.281-27.344,10.782-30.827,23.747
			c-1.48,5.51-1.548,11.358-0.39,16.89c-2.36-5.484-4.242-11.126-8.496-15.748c-0.801-0.871-2.449-1.417-3.59-0.949
			c-8.038,3.295-15.452,8.084-12.572,17.839c4.07,13.789,14.932,25.563,13.794,40.785c-0.74,9.898-5.754,22.548-4.614,32.735
			c-5.35,2.761-8.888,9.582-11.683,14.602c-3.528,6.339-5.962,13.675-6.022,20.986c-0.043,4.999,1.389,12.542,6.217,15.286
			c2.408,1.368,4.901,0.821,7.365,0.023c-1.932,7.94-3.896,17.252-3.576,25.37c0.079,2.016,0.555,4.167,1.385,6.16
			c-12.816-0.37-25.635-0.66-38.434-1.479c-4.75-0.304-9.492-0.668-14.229-1.048c0.757-1.188,1.382-2.479,1.837-3.83
			c1.656-4.912,1.922-10.524,1.282-15.64c-0.536-4.281-1.86-8.359-3.179-12.451c-0.746-2.317-1.256-4.852-2.018-7.246
			c1.648-0.387,3.127-1.404,4.279-2.627c5.963-6.333,3.249-17.215,1.104-24.541c-2.059-7.036-4.576-16.942-9.574-22.6
			c0.18-0.391,0.35-0.791,0.508-1.209c4.291-11.499-1.234-24.05,3.747-35.426c5.288-12.072,16.835-20.74,20.53-33.62
			c1.627-5.671,0.947-11.779-3.408-16.066c-3.926-3.864-9.482-5.634-14.539-2.979c-2.793,1.466-5.105,3.521-7.079,5.919
			c-0.017-0.142-0.045-0.282-0.064-0.425C285.882,191.598,285.965,191.486,286.033,191.354z M241.958,353.13
			c2.376-5.609,4.294-11.397,6.013-17.238c1.094-3.718,2.585-7.751,3.197-11.703c2.715,2.447,6.01,4.108,9.829,3.21
			c0.476-0.112,1.376-0.434,2.355-0.857c-0.033,1.125,0.019,2.242,0.052,3.229c0.162,4.808,0.775,9.566,1.604,14.304
			c1.029,5.9,2.413,13.027,5.605,18.668c-7.332-0.512-14.678-0.907-22.055-1.024c-3.601-0.058-7.199-0.073-10.799-0.068
			C239.48,358.888,240.816,355.823,241.958,353.13z M234.879,348.792c-1.484,3.647-3.462,9.405-7.01,11.603
			c-2.109,1.306-2.215,1.098-2.604-0.354c-2.044-7.625,0.009-16.521,1.473-24.086c0.918-4.744,2.754-9.945,3.566-14.928
			c1.636,3.201,4.23,5.686,8.266,6.147c1.066,0.122,2.123,0.091,3.161-0.063c-0.397,1.638-0.773,3.276-1.226,4.854
			C238.878,337.646,237.107,343.315,234.879,348.792z M270.371,327.348c4.039,1.235,7.326-1.179,11.035-2.262
			c0.191,5.166,2.99,10.51,4.324,15.333c1.201,4.343,1.738,8.622,1.186,13.115c-0.318,2.588-1.287,9.39-4.986,9.249
			c-1.96-0.073-3.402-2.887-4.199-4.324c-3.533-6.386-4.926-14.189-6.135-21.307C271.176,334.685,271.045,330.802,270.371,327.348z
			 M283.039,315.534c-1.906,0.152-3.475,1.15-5.23,1.805c-1.04,0.388-3.251,1.543-4.267,1.438c-1.851-0.19-3.552-4.049-7.212-3.586
			c-2.045,0.259-3.505,1.236-5.104,2.459c-0.618,0.473-1.475,1.563-2.231,1.748c-2.401,0.588-4.231-2.242-5.044-3.922
			c-0.922-1.902-3.741-2.505-5.461-1.432c-2.186,1.363-5.186,3.938-7.864,4.108c-3.128,0.199-3.349-3.154-3.837-5.776
			c-0.486-2.607-4.291-4.258-6.477-2.634c-1.641,1.22-3.328,2.422-5.158,3.343c-0.664,0.334-1.59,0.53-2.189,0.938
			c-0.221,0.148-0.4,0.245-0.545,0.304c-0.578-3.145,1.447-7.991,2.242-10.824c2.014-7.185,4.442-14.591,8.109-21.178
			c7.131,4.615,18.104,3.901,25.947,3.913c6.996,0.011,15.145-0.203,21.073-3.733c1.329,4.188,3.608,8.313,5.017,12.318
			c1.994,5.679,5.359,13.878,3.795,20.015C287.757,318.156,286.072,315.292,283.039,315.534z M282.186,212.773
			c1.185-1.363,2.318-2.766,3.271-4.324c2.351-3.847,4.38-7.885,7.392-11.287c2.049-2.314,4.241-4.745,7.303-2.971
			c4.799,2.781,3.01,8.518,1.081,12.521c-4.44,9.216-12.318,16.227-17.29,25.125c-4.947,8.854-5.167,17.223-5.074,27.042
			c0.037,4.084,0.301,8.98-1.486,12.785c-1.801,3.83-6.262,4.299-10.047,4.738c-8.172,0.949-18.778,1.439-26.766-0.982
			c-7.432-2.254-5.676-12.176-5.312-18.317c0.582-9.788,1.821-20.173-4.59-28.397c-5.077-6.513-28.24-21.887-18.141-31.618
			c5.451-5.253,8.692,4.051,11.108,7.798c2.396,3.713,6.021,6.527,8.641,10.099c2.491,3.396,5.615,6.244,9.252,8.376
			c7.421,4.346,16.593,5.565,24.818,2.919C273.614,223.942,278.907,218.937,282.186,212.773z M247.44,176.897
			c5.096-1.986,10.8-2.172,16.055-0.604c8.09,2.415,12.939,9.621,13.477,17.868c0.514,7.872-2.523,16.369-9.126,21.023
			c-8.376,5.905-21.499,3.974-27.968-3.921C230.16,199.404,236.166,184.5,247.44,176.897z M204.319,110.448
			c6.628,13.468,12.649,27.227,19.303,40.68c1.975,3.994,4.146,7.888,6.044,11.92c1.784,3.789,4.496,8.913,3.865,13.29
			c-0.115,0.799-1.73,2.457-2.196,3.345c-0.758,1.446-1.315,2.979-1.788,4.54c-0.998,3.297-2.199,6.643-2.586,10.079
			c-2.066-3.468-4.761-6.45-9.014-7.267c-5.639-1.082-11.035,2.337-13.859,7.086c-3.688,6.197-2.254,12.866,1.124,18.833
			c3.522,6.222,8.575,10.841,13.626,15.778c5.447,5.326,7.615,10.101,7.49,17.788c-0.154,9.345-3.607,22.593,1.899,31.248
			c-3.183,2.804-5.209,7.265-6.813,10.919c-2.762,6.292-5.244,12.919-6.725,19.643c-1.111,5.046-1.559,12.107,4.475,14.154
			c1.16,0.395,2.357,0.496,3.561,0.415c-1.029,3.079-1.732,6.316-2.4,8.722c-2.227,8.022-4.317,16.678-4.063,25.064
			c0.053,1.736,0.287,3.574,0.76,5.309c-15.141,0.476-30.269,1.414-45.369,2.673c0.346-1.288,0.553-2.595,0.602-3.85
			c0.32-8.118-1.645-17.43-3.576-25.37c2.464,0.798,4.957,1.345,7.365-0.023c4.828-2.744,6.26-10.287,6.217-15.286
			c-0.061-7.312-2.493-14.647-6.023-20.986c-2.793-5.02-6.332-11.841-11.683-14.602c1.142-10.188-3.873-22.837-4.613-32.735
			c-1.139-15.223,9.724-26.996,13.794-40.785c2.881-9.755-4.535-14.544-12.572-17.839c-1.141-0.468-2.788,0.078-3.59,0.949
			c-4.254,4.622-6.137,10.264-8.495,15.748c1.158-5.531,1.091-11.38-0.391-16.89c-3.441-12.808-16.897-23.217-30.333-23.738
			c0.465-1.916,0.461-4.035,0.579-5.996c0.293-4.834,0.058-9.682,0.176-14.52c0.259-10.61,0.751-21.191,0.813-31.81
			c0.065-11.142,0.623-22.27,1.172-33.396c0.455-9.206,1.654-19.042,0.665-28.326c11.467-0.053,22.507-4.818,33.45-7.533
			c5.478-1.358,13.244-2.625,17.949-6.703C183.393,64.227,193.098,87.644,204.319,110.448z M116.078,45.207
			c-0.094-0.383-0.162-0.768-0.236-1.151c-0.154-1.166-0.297-2.321-0.409-3.472c-0.356-7.849,3.03-15.642,8.331-21.33
			c6.829-7.328,15.646-11.572,25.477-7.656c5.15,2.052,9.885,5.715,13.282,10.083c2.056,2.643,7.792,9.808,4.069,12.82
			c-2.438,1.973-6.285,2.726-9.228,3.519c-7.812,2.106-15.471,4.655-23.254,6.87c-4.046,1.151-8.167,2.194-12.331,2.826
			C118.69,48.185,116.91,48.608,116.078,45.207z M108.911,181.346c10.687-7.987,27.036,1.839,31.367,12.65
			c5.457,13.627-3.858,32.009-19.515,31.87c-10.098-0.09-16.098-9.334-17.907-18.377c-0.015-0.095-0.028-0.193-0.042-0.287
			c-0.268-1.863-0.497-3.859-0.621-5.898C102.068,193.809,104.467,187.065,108.911,181.346z M106.549,246.994
			c-6.349-4.244-14.554-5.219-21.439-8.357c-2.844-1.296-5.809-3.05-7.463-5.799c-0.846-1.403-2.197-5.295-1.262-6.835
			c1.172-1.929,4.744,0.293,6.338,0.925c4.781,1.895,9.498,3.947,14.242,5.934c3.285,1.375,6.656,2.622,10.164,3.293
			c3.691,0.707,7.555,0.293,11.284,0.617c3.565,0.311,7.073,0.113,10.577-0.639c6.994-1.498,13.877-4.836,19.037-9.84
			c7.146-6.93,7.775-17.447,13.381-25.192c2.719,0.978,5.955,2.338,6.557,4.946c0.928,4.025-3.469,9.818-5.139,13.205
			c-4.353,8.824-10.547,18.688-11.021,28.74c-0.43,9.092,2.939,17.759,4.205,26.647c1.014,7.118,0.48,13.584-6.592,16.577
			c-7.375,3.122-28.391,6.72-31.042-4.195C115.172,273.83,119.79,255.846,106.549,246.994z M108.36,326.427
			c-0.974,0.704-1.938,1.457-2.991,2.039c-0.31,0.172-0.846,0.344-1.275,0.529c0.028-0.749-0.078-1.811-0.027-2.296
			c0.429-4.044,2.061-8.045,3.213-11.927c1.295-4.361,2.598-8.726,3.984-13.059c0.561-1.746,1.25-3.467,1.88-5.2
			c8.558,9.529,29.47,6.929,39.562,2.952c4.074-1.605,6.868-3.787,8.739-6.369c0.976,1.545,2.155,3.012,3.282,4.602
			c3.041,4.291,5.666,8.814,7.126,13.898c1.56,5.428,1.487,9.718,0.072,15.078c-0.065,0.246-0.255,0.542-0.43,0.809
			c-0.037-0.019-0.073-0.039-0.104-0.063c-1.104-0.825-3.344-1.216-4.629-1.575c-2.252-0.63-4.655,0.771-5.29,3.003
			c0.028-0.103-0.662,2.194-0.925,3.137c-0.308-0.263-1-0.578-1.24-0.816c-1.746-1.726-3.436-3.384-4.976-5.303
			c-1.335-1.665-4.655-1.637-5.989,0c-1.896,2.326-2.981,6.131-5.15,8.077c-2.583,2.318-7.093-1.916-8.764-4.287
			c-1.136-1.612-3.211-2.416-5.037-1.321c-1.957,1.172-3.584,2.716-5.155,4.355c-1.535,1.601-3.464,4.79-5.687,5.417
			c-3.797,1.068-3.091-6.527-3.621-9.008C114.363,326.461,110.637,324.776,108.36,326.427z M162.731,365.443
			c-0.974,0.088-1.947,0.184-2.921,0.274c-1.471-1.167-2.328-4.878-2.787-6.306c-1.046-3.247-1.764-6.594-2.324-9.955
			c-0.683-4.087-1.046-8.209-1.635-12.304c1.904,1.91,4.049,3.501,6.683,3.911c0.401,0.063,0.784,0.087,1.157,0.093
			c0.632,4.156,2.172,8.476,2.761,12.21C163.907,354.898,164.665,362.891,162.731,365.443z M133.396,363.963
			c2.358-6.182,5.216-13.828,5.676-20.646c1.442,0.475,3.001,0.625,4.7,0.309c1.299-0.242,2.368-0.691,3.302-1.267
			c-0.079,4.54,0.558,9.203,1.146,13.419c0.449,3.213,1.139,7.276,2.627,10.813c-5.623,0.566-11.242,1.164-16.854,1.793
			c-0.84,0.095-1.682,0.175-2.523,0.254C132.203,367.031,132.836,365.429,133.396,363.963z M122.063,369.26
			c-2.037,0.084-4.078,0.141-6.119,0.176c-0.697-1.857-0.934-4.334-0.821-5.935c0.405-5.78,2.774-11.012,4.187-16.497
			c5.436-0.813,8.181-5.822,11.717-10.007c0.605,0.711,1.236,1.416,1.891,2.088c-0.297,0.265-0.561,0.593-0.77,0.996
			C127.54,348.994,128.655,361.138,122.063,369.26z M450.934,471.039c-0.514,6.438-1.234,13.083-3.483,19.184
			c-2.296,6.226-6.183,8.999-12.753,9.907c-6.93,0.958-14.094,0.063-21.027-0.408c-9.757-0.662-19.568-0.425-29.335-0.139
			c-21.101,0.617-42.137,0.526-63.244,0.397c-42.466-0.26-84.932-0.219-127.397-0.2c-36.825,0.016-73.689,0.525-110.498-0.66
			c-6.3-0.202-14.087-0.408-19.503-4.079c-5.675-3.847-5.17-12.737-5.253-18.813c-0.232-17.047,0.065-33.96-1.4-50.938
			c5.706,0.398,11.5,0.449,16.953,0.624c11.82,0.378,23.625,0.813,35.441,1.267c24.801,0.951,49.628,0.121,74.409-0.994
			c49.998-2.252,99.964-3.813,150.014-4.3c24.67-0.239,49.388-0.806,74.041,0.259c11.983,0.517,23.984,1.135,35.981,0.675
			c2.309-0.088,4.695-0.165,7.109-0.3c-0.928,9.355,0.66,18.604,0.943,27.956C452.139,457.294,451.477,464.241,450.934,471.039z
			 M472.674,394.82c-0.121,6.236-2.479,11.335-8.518,13.67c-8.295,3.206-18.691,2.732-27.436,2.799
			c-10.3,0.078-20.592-0.474-30.879-0.899c-21.111-0.875-42.268-0.4-63.391-0.209c-42.965,0.389-85.934,1.179-128.861,3.075
			c-21.26,0.939-42.509,2.151-63.785,2.627c-21.188,0.474-42.21-0.69-63.371-1.158c-10.543-0.234-21.012-0.925-31.537-1.407
			c-3.098-0.142-7.864,0.192-10.529-1.716c-1.995-1.43-2.277-4.593-2.547-6.894c-0.605-5.165-2.31-16.218,3.996-18.78
			c3.086-1.255,6.491-1.855,9.762-2.395c9.083-1.496,18.339-1.977,27.525-2.338c16.212-0.638,32.762,0.716,48.9-1.029
			c36.021-3.896,72.055-7.21,108.322-7.222c18.406-0.006,36.709,0.89,55.039,2.515c18.125,1.607,36.332,1.775,54.51,2.273
			c20.207,0.553,40.695,3.635,60.872,1.766c8.234-0.763,16.353-2.424,24.581-3.25c6.576-0.661,13.223-0.604,19.826-0.6
			c4.669,0.533,9.423,1.563,12.805,4.266C472.273,383.362,472.772,389.728,472.674,394.82z"/>
	</g>
</g>
<g>
	<g>
		<path d="M56.77,275.185c2.558-6.104-0.792-11.538-4.907-15.956c-1.389-1.491-3.699-1.607-5.416-0.698
			c-5.777,3.061-11.307,6.531-17.035,9.679c-2.811,1.545-2.682,4.966-0.923,7.169c4.438,5.557,8.312,12.107,11.092,18.642
			c1.068,2.512,2.04,5.16,2.663,7.85c-3.684,0.589-7.156,3.211-8.769,6.988c-1.796,4.207-0.969,9.614,2.319,12.132
			c2.444,2.747,6.429,3.994,10.374,2.333c5.962-2.509,8.876-10.287,6.113-16.041c-0.009-3.836-0.857-7.775-1.945-11.176
			c-1.122-3.508-2.549-6.9-4.196-10.185C50.262,282.995,54.814,279.85,56.77,275.185z"/>
	</g>
</g>
<g>
</g>
<g>
</g>
<g>
</g>
<g>
</g>
<g>
</g>
<g>
</g>
<g>
</g>
<g>
</g>
<g>
</g>
<g>
</g>
<g>
</g>
<g>
</g>
<g>
</g>
<g>
</g>
<g>
</g>
</svg>
