<svg id="icons" enable-background="new 0 0 64 64" height="512" viewBox="0 0 64 64" width="512" xmlns="http://www.w3.org/2000/svg"><path d="m13.295 58.291c-.002.002-.004.003-.005.004l-3.997 3.998c-.391.391-.391 1.023 0 1.414.195.195.451.293.707.293s.512-.098.707-.293l3.707-3.707h7.589v3c0 .553.447 1 1 1s1-.447 1-1v-3h7.579l3.707 3.707c.195.195.451.293.707.293s.512-.098.707-.293c.391-.391.391-1.023 0-1.414l-3.988-3.988c-.006-.007-.013-.014-.02-.02l-8.692-8.694v-21.663l9.566-5.522c.718 1.726.812 3.662.241 5.559-.079.265-.046.552.094.791.139.239.371.41.642.472 2.264.518 4.129 1.872 5.25 3.814 1.125 1.948 1.367 4.245.683 6.468-.002.006 0 .012-.002.018-.022.078-.021.16-.023.241-.002.05-.016.099-.011.146.006.051.031.098.045.147.021.077.037.154.075.224.003.006.003.012.006.018.056.096.127.174.205.244.02.017.04.029.061.045.083.063.173.113.27.147.014.005.023.016.037.02.007.002.014.001.02.003.088.024.177.039.269.04.002 0 .004.001.006.001h.001c.096 0 .192-.018.286-.046.03-.009.056-.023.084-.035.043-.017.088-.029.129-.053l2.563-1.48c4.856-2.804 8.331-7.333 9.783-12.753 1.365-5.095.766-10.393-1.638-15.044l.033-.02c.479-.276.643-.888.366-1.366-.277-.479-.89-.643-1.366-.366l-.036.019c-6.015-9.361-18.408-12.467-28.144-6.846l-.001.001-2.538 1.468c-.003.002-.004.004-.006.006-.087.051-.157.123-.226.198-.021.023-.05.04-.069.064-.028.039-.041.089-.063.132-.039.073-.082.145-.103.225-.001.005-.005.009-.006.014-.011.047 0 .092-.004.138-.008.079-.02.156-.008.235.012.08.046.151.076.225.018.043.02.089.044.13.003.006.008.009.011.015.011.017.024.029.035.045.057.083.124.154.199.214.022.018.043.034.066.05.099.066.204.117.318.146.003.001.006.003.009.004 2.25.523 4.105 1.879 5.224 3.815 1.121 1.943 1.363 4.237.681 6.46-.081.265-.049.552.09.792.138.24.37.412.64.475 1.936.45 3.572 1.506 4.708 3.005l-2.548 1.471-1.422-2.462c-.014-.022-.035-.035-.051-.057-.012-.026-.012-.055-.026-.08-.277-.478-.891-.642-1.366-.366l-10.394 6c-.479.276-.643.888-.366 1.366l2 3.465c.186.32.521.5.867.5.17 0 .342-.043.499-.134l2.234-1.29v20.499zm6.34-30.151-1-1.732 6.063-3.499.999 1.731zm9.669-12.147c.505-2.444.12-4.916-1.114-7.056-1.021-1.767-2.529-3.139-4.354-4.008l.661-.382c.001-.001.002-.001.002-.001 9.073-5.239 20.717-2.118 25.955 6.954 2.537 4.394 3.21 9.514 1.896 14.417s-4.458 9.002-8.852 11.538l-.678.392c.167-2.025-.267-4.029-1.292-5.807-1.235-2.14-3.185-3.707-5.554-4.49.496-2.449.113-4.917-1.108-7.045-.001-.002 0-.003-.001-.004 0-.001-.001-.001-.002-.002-.003-.006-.006-.012-.009-.018-1.232-2.129-3.179-3.697-5.55-4.488zm-1.875 7.647-1-1.732.866-.499 1 1.731zm-11.016 34.36 5.59-5.591v5.591zm13.17 0h-5.58v-5.581z"/></svg>