<?xml version="1.0" encoding="iso-8859-1"?>
<!-- Generator: Adobe Illustrator 19.0.0, SVG Export Plug-In . SVG Version: 6.00 Build 0)  -->
<svg xmlns="http://www.w3.org/2000/svg" xmlns:xlink="http://www.w3.org/1999/xlink" version="1.1" id="Layer_1" x="0px" y="0px" viewBox="0 0 512 512" style="enable-background:new 0 0 512 512;" xml:space="preserve" width="512" height="512">
<g>
	<rect x="216.5" y="185" width="16" height="15"/>
	<rect x="248.5" y="185" width="16" height="15"/>
	<rect x="280.5" y="185" width="16" height="15"/>
	<path d="M455.5,465V280h32v-47h-36.73L263.5,108.486V72h64V9h-64V0h-15v108.486L62.229,233H24.5v47h32v185h-32v47h463v-47H455.5z    M440.5,465h-33V280h33V465z M168.5,280v168h15V280h33v185h-97V280H168.5z M231.5,280h49v185h-49V280z M295.5,280h33v185h-33V280z    M343.5,280h49v185h-49V280z M312.5,24v33h-49V24H312.5z M256.5,121.514L423.729,233H89.27L256.5,121.514z M39.5,248h433v17h-433   V248z M71.5,280h33v185h-33V280z M472.5,497h-433v-17h433V497z"/>
</g>















</svg>
