<?xml version="1.0" encoding="iso-8859-1"?>
<!-- Generator: Adobe Illustrator 16.0.0, SVG Export Plug-In . SVG Version: 6.00 Build 0)  -->
<!DOCTYPE svg PUBLIC "-//W3C//DTD SVG 1.1//EN" "http://www.w3.org/Graphics/SVG/1.1/DTD/svg11.dtd">
<svg version="1.1" id="Capa_1" xmlns="http://www.w3.org/2000/svg" xmlns:xlink="http://www.w3.org/1999/xlink" x="0px" y="0px"
	 width="197.736px" height="197.736px" viewBox="0 0 197.736 197.736" style="enable-background:new 0 0 197.736 197.736;"
	 xml:space="preserve">
<g>
	<g>
		<ellipse cx="104.412" cy="16.621" rx="16.844" ry="16.621"/>
		<path d="M99.926,74.839c-3.344-4.826-5.857-10.884-6.264-18.354c5.346-5.536,5.23-14.358-0.28-19.749
			c-5.531-5.413-14.403-5.315-19.813,0.216c-17.25,17.626-25.329,46.984-20.577,74.795c0.414,2.425,1.65,4.438,2.867,6.388
			c5.599,8.967,11.215,32.926-7.866,66.102c-2.48,4.312-0.996,9.818,3.317,12.3c1.417,0.813,2.959,1.2,4.482,1.2
			c3.119,0,6.152-1.62,7.817-4.518c14.229-24.738,16.422-45.594,14.611-60.939c5.574,9.557,9.923,26.389,1.188,53.705
			c-1.516,4.738,1.096,9.809,5.837,11.324c0.912,0.291,1.836,0.43,2.744,0.428c3.813,0,7.354-2.439,8.577-6.266
			c7.876-24.629,7.761-45.963-0.343-63.408c-4.871-10.487-11.335-16.666-15.451-19.801c-0.035-0.41-0.083-0.82-0.155-1.232
			c-2.083-12.196-0.522-25.291,3.836-35.991c2.781,7.519,7.18,13.343,11.465,17.627c1.319,1.32,2.667,2.532,4.007,3.642v9.692
			c0,4.335,3.514,7.849,7.849,7.849h33.223c4.334,0,7.849-3.514,7.849-7.849V68.777H99.926V74.839z"/>
		<path d="M105.671,57.843c-4.334,0-7.849,3.514-7.849,7.849h53.122c0-4.335-3.514-7.849-7.849-7.849H105.671z"/>
	</g>
</g>
<g>
</g>
<g>
</g>
<g>
</g>
<g>
</g>
<g>
</g>
<g>
</g>
<g>
</g>
<g>
</g>
<g>
</g>
<g>
</g>
<g>
</g>
<g>
</g>
<g>
</g>
<g>
</g>
<g>
</g>
</svg>
