<svg id="_x33_0" enable-background="new 0 0 64 64" height="512" viewBox="0 0 64 64" width="512" xmlns="http://www.w3.org/2000/svg"><path d="m58 38c2.757 0 5-2.243 5-5s-2.243-5-5-5h-1v-2c0-13.785-11.215-25-25-25s-25 11.215-25 25v2h-1c-2.757 0-5 2.243-5 5s2.243 5 5 5c.352 0 .686-.072 1-.184v15.184c-1.103 0-2 .897-2 2v6c0 1.103.897 2 2 2h50c1.103 0 2-.897 2-2v-6c0-1.103-.897-2-2-2v-15.184c.314.112.648.184 1 .184zm3-5c0 1.654-1.346 3-3 3-.551 0-1-.449-1-1s.449-1 1-1h1v-2h-14v2h1c.551 0 1 .449 1 1s-.449 1-1 1c-1.654 0-3-1.346-3-3s1.346-3 3-3h12c1.654 0 3 1.346 3 3zm-12 20v-18c0-.352-.072-.686-.184-1h2.184v19zm2-25h-2v-2c0-5.288-2.511-10.334-6.721-13.537-.869-1.447-2.442-2.44-4.279-2.463-.079 0-.155.009-.234.012-3.7-1.333-7.843-1.332-11.542.003-.096-.004-.19-.015-.287-.015h-.001c-1.796.023-3.355 1.018-4.218 2.467-4.209 3.203-6.718 8.247-6.718 13.533v2h-2v-2c0-10.477 8.523-19 19-19s19 8.523 19 19zm-12.913-5.863c-.905-1.289-2.396-2.137-4.087-2.137-.352 0-.686.072-1 .184v-3.184c0-2.757 2.243-5 5.038-5h.001c1.632.021 2.961 1.367 2.961 3 0 1.654-1.346 3-3 3-.551 0-1-.449-1-1s.449-1 1-1h1v-2h-1c-1.654 0-3 1.346-3 3s1.346 3 3 3c.396 0 .776-.058 1.145-.145-.53.649-.907 1.422-1.058 2.282zm-12.174 0c-.151-.859-.527-1.633-1.058-2.282.369.087.749.145 1.145.145 1.654 0 3-1.346 3-3s-1.346-3-3-3h-1v2h1c.551 0 1 .449 1 1s-.449 1-1 1c-1.654 0-3-1.346-3-3 0-1.633 1.329-2.979 3-3 2.757 0 5 2.243 5 5v3.184c-.314-.112-.648-.184-1-.184-1.691 0-3.182.848-4.087 2.137zm-4.837-6.387c.138.903.516 1.718 1.069 2.395-.369-.087-.749-.145-1.145-.145-.676 0-1.321.138-1.911.385.558-.944 1.222-1.825 1.987-2.635zm8.776-4.579c1.419-.202 2.864-.203 4.283-.002-.87.578-1.598 1.349-2.136 2.246-.54-.896-1.271-1.666-2.147-2.244zm13.072 4.579c.764.81 1.428 1.69 1.987 2.634-.59-.246-1.236-.384-1.911-.384-.396 0-.776.058-1.145.145.553-.677.932-1.492 1.069-2.395zm-25.924 10.837c.314.523.69 1.003 1.124 1.426-.042-.001-.081-.013-.124-.013h-1zm1-3.626c.021-1.632 1.367-2.961 3-2.961 1.654 0 3 1.346 3 3 0 .551-.449 1-1 1s-1-.449-1-1v-1h-2v1c0 1.654 1.346 3 3 3 .781 0 1.486-.307 2.021-.797.043 1.05.409 2.01 1.005 2.797h-3.026c-2.757 0-5-2.243-5-5.039zm9 2.039c0-1.654 1.346-3 3-3 .551 0 1 .449 1 1s-.449 1-1 1h-1v2h1c.352 0 .686-.072 1-.184v2.184h-1c-1.654 0-3-1.346-3-3zm6 .816c.314.112.648.184 1 .184h1v-2h-1c-.551 0-1-.449-1-1s.449-1 1-1c1.654 0 3 1.346 3 3s-1.346 3-3 3h-1zm5.979-.613c.535.49 1.24.797 2.021.797 1.654 0 3-1.346 3-3v-1h-2v1c0 .551-.449 1-1 1s-1-.449-1-1c0-1.654 1.346-3 3-3 1.633 0 2.979 1.329 3 3 0 2.757-2.243 5-5 5h-3.026c.596-.787.962-1.747 1.005-2.797zm8.021 1.365v1.432h-1c-.046 0-.088.012-.134.014.439-.428.818-.915 1.134-1.446zm-38-.568c0-12.682 10.318-23 23-23s23 10.318 23 23v2h-2v-2c0-11.58-9.42-21-21-21s-21 9.42-21 21v2h-2zm-3 10c-1.654 0-3-1.346-3-3s1.346-3 3-3h12c1.654 0 3 1.346 3 3s-1.346 3-3 3c-.551 0-1-.449-1-1s.449-1 1-1h1v-2h-14v2h1c.551 0 1 .449 1 1s-.449 1-1 1zm9 17h-2v-19h2.184c-.112.314-.184.648-.184 1zm-6-18c0-.352-.072-.686-.184-1h2.184v19h-2zm8 26h-10v-6h10zm0-8v-15.184c.314.112.648.184 1 .184 2.757 0 5-2.243 5-5 0-1.175-.424-2.242-1.105-3.096.361.058.728.096 1.105.096h8v13h-6c-1.103 0-2 .897-2 2v4c0 1.103.897 2 2 2h6v10h-12v-6c0-1.103-.897-2-2-2zm22-8 .001 4h-2.001v-4zm-4 4h-2v-4h2zm-4 0h-6v-4h6zm14 6v6h-12v-10h6c1.103 0 2-.897 2-2v-4c0-1.103-.897-2-2-2h-6v-13h8c.377 0 .744-.038 1.105-.096-.681.854-1.105 1.921-1.105 3.096 0 2.757 2.243 5 5 5 .352 0 .686-.072 1-.184v15.184c-1.103 0-2 .897-2 2zm12 6h-10v-6h10zm-4-8v-19h2.184c-.112.314-.184.648-.184 1v18z"/></svg>