<svg xmlns="http://www.w3.org/2000/svg" viewBox="0 0 70 70"><defs><style>.cls-1{fill:#6add92;}</style></defs><title>06_Icons_specification_v1</title><g id="Layer_90" data-name="Layer 90"><path class="cls-1" d="M53.15,32.78a1.9,1.9,0,0,0-1.9,1.9V56.79H18.75V34.68a1.9,1.9,0,1,0-3.8,0v24a1.91,1.91,0,0,0,1.9,1.9h36.3a1.91,1.91,0,0,0,1.9-1.9v-24A1.9,1.9,0,0,0,53.15,32.78Z"/><path class="cls-1" d="M36.22,7.86s0,0,0,0L36,7.72l-.13-.08a1,1,0,0,0-.19-.08.76.76,0,0,0-.16-.06l-.19,0a1,1,0,0,0-.17,0h-.36a.85.85,0,0,0-.22,0l-.14,0-.19.08-.15.06-.15.1-.17.11s0,0,0,0L9.58,28.23a1.9,1.9,0,0,0-.23,2.68,1.88,1.88,0,0,0,1.45.67A1.92,1.92,0,0,0,12,31.14L35,11.8,58,31.14a1.92,1.92,0,0,0,1.22.44,1.88,1.88,0,0,0,1.45-.67,1.9,1.9,0,0,0-.23-2.68Z"/></g></svg>