<svg xmlns="http://www.w3.org/2000/svg" viewBox="0 0 70 70"><defs><style>.cls-1{fill:#6add92;}</style></defs><title>06_Icons_specification_v1</title><g id="Layer_90" data-name="Layer 90"><path class="cls-1" d="M18,58.18a6.92,6.92,0,1,1,6.91-6.92A6.93,6.93,0,0,1,18,58.18Zm0-11a4.12,4.12,0,1,0,4.11,4.12A4.12,4.12,0,0,0,18,47.14Z"/><path class="cls-1" d="M52,58.18a6.92,6.92,0,1,1,6.92-6.92A6.93,6.93,0,0,1,52,58.18Zm0-11a4.12,4.12,0,1,0,4.12,4.12A4.12,4.12,0,0,0,52,47.14Z"/><path class="cls-1" d="M41.49,49.66h-13a1.4,1.4,0,0,1,0-2.8h13a1.4,1.4,0,0,1,0,2.8Z"/><path class="cls-1" d="M63.31,49.66H61.52a1.4,1.4,0,0,1,0-2.8h.39V33.26L55.37,22.62H47.68a1.39,1.39,0,0,1-1.4-1.4v-6.6l-38.19,0V46.86h.39a1.4,1.4,0,1,1,0,2.8H6.69a1.4,1.4,0,0,1-1.4-1.4v-35a1.4,1.4,0,0,1,1.4-1.4l41,0h0a1.41,1.41,0,0,1,1,.41,1.43,1.43,0,0,1,.41,1v6.6h7.08a1.41,1.41,0,0,1,1.19.67L64.5,32.13a1.37,1.37,0,0,1,.21.73v15.4A1.4,1.4,0,0,1,63.31,49.66Z"/><path class="cls-1" d="M47.68,42.36a1.4,1.4,0,0,1-1.4-1.4V21.22a1.4,1.4,0,1,1,2.8,0V41A1.4,1.4,0,0,1,47.68,42.36Z"/></g></svg>