<?xml version="1.0" encoding="iso-8859-1"?>
<!-- Generator: Adobe Illustrator 19.0.0, SVG Export Plug-In . SVG Version: 6.00 Build 0)  -->
<svg xmlns="http://www.w3.org/2000/svg" xmlns:xlink="http://www.w3.org/1999/xlink" version="1.1" id="Layer_1" x="0px" y="0px" viewBox="0 0 512 512" style="enable-background:new 0 0 512 512;" xml:space="preserve" width="512" height="512">
<g>
	<path d="M507.583,125.704c-2.761-1.858-6.266-2.222-9.349-0.967l-69.715,28.339L53.766,0.737c-3.084-1.255-6.588-0.891-9.349,0.967   C41.656,3.563,40,6.673,40,10.001v48c0,4.069,2.465,7.732,6.234,9.264L98,88.307v199.126L6.234,324.737   C2.465,326.269,0,329.931,0,334v48c0,3.328,1.656,6.438,4.417,8.296C6.091,391.423,8.039,392,10,392   c1.273,0,2.552-0.243,3.765-0.736L54,374.908V502c0,5.523,4.477,10,10,10h384c5.522,0,10-4.477,10-10V210.681l47.766-19.417   c3.77-1.532,6.234-5.195,6.234-9.264v-48C512,130.672,510.345,127.563,507.583,125.704z M60,51.271V24.861l341.965,139.01   l-32.484,13.205L60,51.271z M208,216c5.523,0,10-4.477,10-10v-40c0-5.523-4.477-10-10-10h-90V96.438l224.925,91.433L118,279.303   V216H208z M118,196v-20h80v20H118z M202,492H74v-20h128V492z M202,452H74v-20h128V452z M202,412H74v-20h128V412z M202,372H74   v-5.222l128-52.032V372z M398,492h-62V392h62V492z M438,492h-20v-20h20V492z M438,332h-72v-20h72V332z M438,292h-80   c-5.522,0-10,4.477-10,10v40c0,5.523,4.478,10,10,10h80v100h-20v-70c0-5.523-4.478-10-10-10h-83c-8,0-9,8-9,8v72h-6   c-5.51,0-10,4.49-10,10c0,5.51,4.49,10,10,10h6v20h-94v-20h8c5.51,0,10-4.49,10-10c0-5.51-4.49-10-10-10h-8V352h80   c5.522,0,10-4.477,10-10v-40c0-5.523-4.478-10-10-10h-44.046L438,218.811V292z M222,332v-20h70v20H222z M492,175.271L20,367.14   V340.73L492,148.86V175.271z"/>
	<path d="M366,452h2c5.522,0,10-4.477,10-10s-4.478-10-10-10h-2c-5.522,0-10,4.477-10,10S360.478,452,366,452z"/>
	<path d="M270,472c5.51,0,10-4.49,10-10c0-5.51-4.49-10-10-10s-10,4.49-10,10C260,467.51,264.49,472,270,472z"/>
</g>















</svg>
