<svg height="512pt" viewBox="0 0 512 512" width="512pt" xmlns="http://www.w3.org/2000/svg"><path d="m437.019531 74.980469c-48.351562-48.351563-112.640625-74.980469-181.019531-74.980469s-132.667969 26.628906-181.019531 74.980469c-48.351563 48.351562-74.980469 112.640625-74.980469 181.019531s26.628906 132.667969 74.980469 181.019531c48.351562 48.351563 112.640625 74.980469 181.019531 74.980469 41.007812 0 81.789062-9.933594 117.929688-28.726562 34.972656-18.179688 65.765624-44.664063 89.050781-76.585938 2.472656-3.390625 1.730469-8.148438-1.664063-10.621094-3.394531-2.476562-8.152344-1.730468-10.625 1.660156-21.90625 30.035157-50.875 54.949219-83.773437 72.054688-33.988281 17.671875-72.34375 27.011719-110.917969 27.011719-64.316406 0-124.785156-25.046875-170.265625-70.527344s-70.527344-105.949219-70.527344-170.265625 25.046875-124.785156 70.527344-170.265625 105.949219-70.527344 170.265625-70.527344 124.785156 25.046875 170.265625 70.527344 70.527344 105.949219 70.527344 170.265625c0 40.972656-10.46875 81.421875-30.277344 116.980469-2.042969 3.667969-.726563 8.296875 2.941406 10.34375 3.671875 2.042969 8.300781.722656 10.34375-2.945313 21.066407-37.8125 32.199219-80.824218 32.199219-124.378906 0-68.378906-26.628906-132.667969-74.980469-181.019531zm0 0"/><path d="m371.089844 430.304688c.574218.132812 1.152344.195312 1.726562.195312 1.550782 0 3.078125-.472656 4.367188-1.378906 56.433594-39.574219 90.125-104.292969 90.125-173.121094 0-116.523438-94.792969-211.320312-211.308594-211.320312-27.859375 0-54.960938 5.355468-80.546875 15.910156-1.996094.824218-3.550781 2.460937-4.269531 4.5-.71875 2.039062-.535156 4.285156.5 6.179687l194.464844 355.277344c1.039062 1.898437 2.835937 3.265625 4.941406 3.757813zm-115.089844-370.414063c108.128906 0 196.101562 87.972656 196.101562 196.109375 0 61.03125-28.546874 118.585938-76.78125 155.628906l-53.164062-97.128906h67.289062c4.199219 0 7.601563-3.40625 7.601563-7.605469v-65.984375c5.847656-15.367187 4.804687-36.179687-2.855469-54.839844-6.144531-14.96875-15.667968-26.308593-27.089844-32.378906-1.332031-5.964844-4.550781-17.589844-11.277343-29.285156-12.996094-22.589844-32.667969-34.53125-56.882813-34.53125-13.546875 0-25.476562 3.832031-34.488281 11.078125-8.164063 6.558594-13.753906 15.632813-16.167969 26.238281-4.835937 21.261719 4.148438 43.007813 21.5 52.988282 6.175782 14.101562 24.683594 36.546874 58.886719 36.546874 20.578125 0 28.457031 8.519532 31.476563 15.183594h-1.046876c-.015624 0-.027343 0-.042968 0s-.03125 0-.046875 0h-82.0625l-87.761719-160.335937c21.378906-7.757813 43.8125-11.683594 66.8125-11.683594zm72.671875 141.628906c-34.796875 0-45.25-28.078125-45.664063-29.234375-.664062-1.917968-2.066406-3.488281-3.894531-4.367187-10.976562-5.269531-19.996093-19.789063-16-37.351563 3.632813-15.957031 17.027344-25.480468 35.828125-25.480468 18.59375 0 33.226563 8.929687 43.488282 26.542968 8.128906 13.949219 10.410156 28.292969 10.429687 28.421875.398437 2.636719 2.144531 4.871094 4.609375 5.890625 9.339844 3.875 17.386719 13.074219 22.652344 25.90625 5.550781 13.515625 6.941406 28.640625 3.894531 40.0625h-7.988281c-2.929688-11.089844-12.964844-30.390625-47.355469-30.390625zm53.167969 45.597657v52.175781h-15.179688v-52.175781zm-30.386719 52.175781h-37.621094l-28.558593-52.175781h66.179687zm0 0"/><path d="m59.890625 256c0-61.03125 28.546875-118.582031 76.78125-155.625l32.5625 59.492188c2.015625 3.683593 6.636719 5.035156 10.320313 3.019531 3.683593-2.015625 5.035156-6.636719 3.019531-10.320313l-36.730469-67.109375c-1.039062-1.898437-2.835938-3.261719-4.945312-3.753906-2.105469-.492187-4.320313-.0625-6.089844 1.179687-56.4375 39.574219-90.128906 104.292969-90.128906 173.117188 0 116.523438 94.796874 211.320312 211.320312 211.320312 27.875 0 54.972656-5.351562 80.542969-15.90625 1.996093-.824218 3.546875-2.460937 4.269531-4.496093.71875-2.039063.535156-4.289063-.5-6.183594l-143.128906-261.484375c-2.015625-3.683594-6.636719-5.035156-10.320313-3.019531-3.683593 2.015625-5.035156 6.636719-3.019531 10.320312l24.828125 45.359375h-22.652344c-.011719 0-.027343 0-.042969 0-.015624 0-.03125 0-.042968 0h-76.589844c-4.199219 0-7.601562 3.40625-7.601562 7.605469v67.378906c0 4.199219 3.402343 7.605469 7.601562 7.605469h144.535156l68.929688 125.929688c-21.367188 7.753906-43.800782 11.679687-66.808594 11.679687-108.136719 0-196.109375-87.972656-196.109375-196.109375zm57.058594-8.882812h61.425781v52.175781h-61.425781zm76.632812 52.175781v-52.175781h23.414063l28.558594 52.175781zm0 0"/></svg>