<svg xmlns="http://www.w3.org/2000/svg" viewBox="0 0 70 70"><defs></defs><title>06_Icons_specification_v1</title><g id="Layer_90" data-name="Layer 90"><path  d="M19.25,34.6a5.5,5.5,0,0,0-5.5,5.5,5.5,5.5,0,1,0,5.5-5.5Zm2.5,5.5a2.45,2.45,0,0,1-2.5,2.5,2.5,2.5,0,1,1,2.5-2.5Z"/><path  d="M50.85,34.6a5.5,5.5,0,0,0-5.5,5.5,5.5,5.5,0,1,0,5.5-5.5Zm2.5,5.5a2.45,2.45,0,0,1-2.5,2.5,2.5,2.5,0,1,1,2.5-2.5Z"/><path  d="M58.93,29.53l-1.59-.61L52.52,15.44a4.84,4.84,0,0,0-4.67-3.34H22a4.91,4.91,0,0,0-4.68,3.34L12.65,28.92l-1.59.62a3.22,3.22,0,0,0-2,3V47.8a3.2,3.2,0,0,0,3.2,3.2h1.8v4.3a2.55,2.55,0,0,0,2.6,2.6h6.7A2.61,2.61,0,0,0,26,55.3V51h18.2v4.3a2.54,2.54,0,0,0,2.6,2.6h6.7a2.59,2.59,0,0,0,1.86-.79,2.65,2.65,0,0,0,.74-1.81V51h1.8a3.17,3.17,0,0,0,2.3-1A3,3,0,0,0,61,47.8V32.5A3.24,3.24,0,0,0,58.93,29.53ZM54.55,48H12.35a.18.18,0,0,1-.2-.2V32.5c0-.08,0-.11.09-.14l1.86-.76H56.19l1.83.75s.13.07.13.15V47.8a.19.19,0,0,1-.2.2ZM16,28.6l4.23-12.17a1.76,1.76,0,0,1,1.82-1.33h26A1.92,1.92,0,0,1,50,16.47l4.3,12.13ZM17.05,51H23v3.89l-5.9-.08Zm30.1,0h5.9v3.89l-5.9-.08Z"/><path  d="M42.45,38.6H27.75a1.5,1.5,0,1,0,0,3h14.7A1.5,1.5,0,0,0,44,40.1,1.44,1.44,0,0,0,42.45,38.6Z"/></g></svg>