<svg xmlns="http://www.w3.org/2000/svg" viewBox="0 0 70 70"><defs></defs><title>06_Icons_specification_v1</title><g id="Layer_90" data-name="Layer 90"><path  d="M18,54.18a6.92,6.92,0,1,1,6.92-6.92A6.93,6.93,0,0,1,18,54.18Zm0-11a4.12,4.12,0,1,0,4.12,4.12A4.12,4.12,0,0,0,18,43.14Z"/><path  d="M52,54.18a6.92,6.92,0,1,1,6.91-6.92A6.93,6.93,0,0,1,52,54.18Zm0-11a4.12,4.12,0,1,0,4.11,4.12A4.13,4.13,0,0,0,52,43.14Z"/><path  d="M41.49,45.66h-13a1.4,1.4,0,0,1,0-2.8h13a1.4,1.4,0,0,1,0,2.8Z"/><path  d="M63.31,45.66H61.52a1.4,1.4,0,0,1,0-2.8h.39V33.62l-9.12-2.18a1.41,1.41,0,0,1-.83-.56L43.51,18.62H30.37l-.28,12.22a1.4,1.4,0,0,1-1.4,1.37H8.09V42.86h.39a1.4,1.4,0,1,1,0,2.8H6.69a1.4,1.4,0,0,1-1.4-1.4V30.81a1.4,1.4,0,0,1,1.4-1.4H27.32l.28-12.22A1.4,1.4,0,0,1,29,15.82H44.25a1.4,1.4,0,0,1,1.15.61L54,28.84l9.68,2.32a1.39,1.39,0,0,1,1.07,1.36V44.26A1.4,1.4,0,0,1,63.31,45.66Z"/></g></svg>