<svg xmlns="http://www.w3.org/2000/svg" viewBox="0 0 70 70"><defs></defs><title>06_Icons_specification_v1</title><g id="Layer_90" data-name="Layer 90"><path  d="M20.26,52a6.92,6.92,0,1,1,6.92-6.91A6.92,6.92,0,0,1,20.26,52Zm0-11a4.12,4.12,0,1,0,4.12,4.12A4.12,4.12,0,0,0,20.26,41Z"/><path  d="M49.27,52a6.92,6.92,0,1,1,6.92-6.91A6.92,6.92,0,0,1,49.27,52Zm0-11a4.12,4.12,0,1,0,4.12,4.12A4.12,4.12,0,0,0,49.27,41Z"/><path  d="M38.76,46.5h-8a1.4,1.4,0,0,1,0-2.8h8a1.4,1.4,0,0,1,0,2.8Z"/><path  d="M61,46.5H58.79a1.4,1.4,0,0,1,0-2.8h.85V33.86l-9.57-2.19a1.36,1.36,0,0,1-.77-.49L40.85,20.79H18.21L10.36,32V43.7h.39a1.4,1.4,0,1,1,0,2.8H9a1.4,1.4,0,0,1-1.4-1.4V31.52a1.4,1.4,0,0,1,.25-.8l8.52-12.14A1.42,1.42,0,0,1,17.48,18h24a1.4,1.4,0,0,1,1.09.51L51.16,29l10.19,2.34a1.39,1.39,0,0,1,1.09,1.36V45.1A1.4,1.4,0,0,1,61,46.5Z"/></g></svg>