<svg xmlns="http://www.w3.org/2000/svg" viewBox="0 0 70 70"><defs></defs><title>06_Icons_specification_v1</title><g id="Layer_10" data-name="Layer 10"><path  d="M54.2,35a1.61,1.61,0,0,0-.47-1.14L32.64,12.77a1.65,1.65,0,0,0-2.28,0L9.28,33.86a1.59,1.59,0,0,0,0,2.28L30.36,57.23a1.63,1.63,0,0,0,1.14.47,1.61,1.61,0,0,0,1.14-.47L53.73,36.14A1.61,1.61,0,0,0,54.2,35Zm-3.9,0L31.5,53.8,12.7,35,31.5,16.2Z"/><path  d="M36.78,10.92,38.5,9.2l3,3-.55.56a1.6,1.6,0,0,0-.48,1.14A1.58,1.58,0,0,0,40.93,15a1.64,1.64,0,0,0,2.28,0l.56-.55,3,3L46.2,18a1.61,1.61,0,0,0,0,2.28,1.64,1.64,0,0,0,2.28,0l.56-.55,3,3-.56.56A1.64,1.64,0,0,0,51,24.43a1.58,1.58,0,0,0,.48,1.14,1.64,1.64,0,0,0,2.28,0l.56-.55,3,3-1.72,1.72a1.62,1.62,0,0,0,1.14,2.76A1.63,1.63,0,0,0,57.86,32l2.86-2.86a1.61,1.61,0,0,0,0-2.29L39.64,5.78a1.65,1.65,0,0,0-2.28,0L34.49,8.64A1.63,1.63,0,0,0,34,9.78a1.61,1.61,0,0,0,.47,1.14A1.64,1.64,0,0,0,36.78,10.92Z"/><path  d="M57.86,38a1.65,1.65,0,0,0-2.28,0,1.6,1.6,0,0,0-.48,1.14,1.58,1.58,0,0,0,.48,1.14L57.3,42l-3,3-.56-.56a1.65,1.65,0,0,0-2.28,0,1.62,1.62,0,0,0,0,2.29l.56.56-3,3-.56-.56A1.62,1.62,0,1,0,46.2,52l.55.56-3,3L43.21,55a1.65,1.65,0,0,0-2.28,0,1.59,1.59,0,0,0,0,2.28l.55.56-3,3-1.72-1.72a1.62,1.62,0,0,0-2.29,2.29l2.87,2.86a1.57,1.57,0,0,0,1.14.47,1.59,1.59,0,0,0,1.14-.47L60.72,43.14a1.61,1.61,0,0,0,0-2.29Z"/></g></svg>