<svg xmlns="http://www.w3.org/2000/svg" viewBox="0 0 70 70"><defs></defs>
<title>06_Icons_specification_v1</title>
<g id="Layer_80" data-name="Layer 80">
<path  d="M35,35.21a12.4,12.4,0,1,0-12.39-12.4A12.41,12.41,0,0,0,35,35.21ZM35,14a8.8,8.8,0,1,1-8.79,8.79A8.8,8.8,0,0,1,35,14Z"/>
<path  d="M47.51,32.7a1.78,1.78,0,0,0-2.51.39,1.8,1.8,0,0,0,.38,2.51,17.42,17.42,0,0,1,7.19,14.16C52.57,53.25,44.85,56,35,56s-17.57-2.73-17.57-6.22A17.42,17.42,0,0,1,24.62,35.6,1.8,1.8,0,0,0,25,33.09a1.79,1.79,0,0,0-2.51-.39,21.24,21.24,0,0,0-8.66,17.06c0,2.3,1.25,5.5,7.23,7.7A41.76,41.76,0,0,0,35,59.58c10.54,0,21.17-3,21.17-9.82A21.24,21.24,0,0,0,47.51,32.7Z"/>
</g>
</svg>