<svg xmlns="http://www.w3.org/2000/svg" width="36.183" height="31.225" viewBox="0 0 36.183 31.225"><g transform="translate(3.866 9.845)"><g transform="translate(-3.866 -9.845)"><path class="a" d="M34.323,18.77a1.074,1.074,0,0,0-1.073,1.073v9.551a1.074,1.074,0,0,0,.756,1.025l4.725,1.462a1.073,1.073,0,0,0,.635-2.051L35.4,28.6v-8.76A1.074,1.074,0,0,0,34.323,18.77Z" transform="translate(-16.225 -13.782)"/><path class="a" d="M44.492,33.13l-2.473-2.473a1.072,1.072,0,0,0-1.517,0l-2.448,2.448a1.073,1.073,0,0,0,1.518,1.517l.611-.611A13.465,13.465,0,0,1,15.555,41.4a1.073,1.073,0,1,0-1.779,1.2A15.612,15.612,0,0,0,42.33,34l.644.644a1.073,1.073,0,0,0,1.518-1.518Z" transform="translate(-8.623 -18.258)"/><path class="a" d="M12.242,25.5a1.072,1.072,0,0,0-1.517,0l-.6.6a13.465,13.465,0,0,1,25.126-6.578,1.073,1.073,0,0,0,1.858-1.075A15.613,15.613,0,0,0,7.979,26.127l-.657-.657A1.073,1.073,0,1,0,5.8,26.988l2.473,2.473a1.074,1.074,0,0,0,1.518,0l2.447-2.448A1.072,1.072,0,0,0,12.242,25.5Z" transform="translate(-5.49 -10.637)"/></g></g></svg>
