<svg xmlns="http://www.w3.org/2000/svg" viewBox="0 0 70 70"><defs></defs><title>06_Icons_specification_v1</title><g id="Layer_90" data-name="Layer 90"><path  d="M53.15,32.78a1.9,1.9,0,0,0-1.9,1.9V56.79H18.75V34.68a1.9,1.9,0,1,0-3.8,0v24a1.91,1.91,0,0,0,1.9,1.9h36.3a1.91,1.91,0,0,0,1.9-1.9v-24A1.9,1.9,0,0,0,53.15,32.78Z"/><path  d="M11.11,26.94,9.58,28.23a1.86,1.86,0,0,0-.67,1.29,1.89,1.89,0,0,0,1.89,2.06A2,2,0,0,0,12,31.14l1.53-1.29a2,2,0,0,0,.67-1.29,1.91,1.91,0,0,0-3.12-1.62Z"/><path  d="M17.21,26.19a1.88,1.88,0,0,0,1.22-.45L21.69,23a2,2,0,0,0,.67-1.3,1.93,1.93,0,0,0-.44-1.38,1.9,1.9,0,0,0-2.68-.23L16,22.84a1.89,1.89,0,0,0-.23,2.67A1.89,1.89,0,0,0,17.21,26.19Z"/><path  d="M25.34,19.35a1.88,1.88,0,0,0,1.22-.45l3.26-2.74A1.89,1.89,0,0,0,30,13.48a1.9,1.9,0,0,0-2.67-.23L24.12,16a1.88,1.88,0,0,0-.67,1.29,1.85,1.85,0,0,0,.44,1.39A1.89,1.89,0,0,0,25.34,19.35Z"/><path  d="M33.31,12.49h.16a1.91,1.91,0,0,0,1.23-.44l.3-.26.31.26A2,2,0,0,0,38,11.83a1.9,1.9,0,0,0-.23-2.68L36.22,7.86a1.88,1.88,0,0,0-2.44,0L32.25,9.15a1.89,1.89,0,0,0,1.06,3.34Z"/><path  d="M43.44,18.9a1.88,1.88,0,0,0,2.67-.23,1.85,1.85,0,0,0,.44-1.39A1.88,1.88,0,0,0,45.88,16l-3.25-2.74a1.91,1.91,0,0,0-2.68.23,1.9,1.9,0,0,0,.23,2.68Z"/><path  d="M51.57,25.74a1.88,1.88,0,0,0,2.67-.23,1.84,1.84,0,0,0,.44-1.38,1.89,1.89,0,0,0-.67-1.3L50.76,20.1a1.85,1.85,0,0,0-1.39-.44,1.88,1.88,0,0,0-1.29.67A1.89,1.89,0,0,0,48.31,23Z"/><path  d="M60.42,28.23l-1.53-1.29a1.91,1.91,0,0,0-2.68.23,1.91,1.91,0,0,0,.24,2.68L58,31.14a1.92,1.92,0,0,0,1.22.44,1.88,1.88,0,0,0,1.45-.67,1.9,1.9,0,0,0-.23-2.68Z"/></g></svg>