<svg xmlns="http://www.w3.org/2000/svg" viewBox="0 0 70 70"><defs></defs><title>06_Icons_specification_v1</title><g id="Layer_119" data-name="Layer 119"><path  d="M60.91,48.28H59.47V15.45h1.44a1.53,1.53,0,1,0,0-3.06H9.09a1.53,1.53,0,0,0,0,3.06h1.34V48.28H9.09a1.54,1.54,0,0,0,0,3.07h9.84a1.54,1.54,0,1,0,0-3.07H13.49V15.45H56.41V48.28H51.07a1.54,1.54,0,0,0,0,3.07h9.84a1.54,1.54,0,0,0,0-3.07Z"/><path  d="M47.59,34.79H22.41a1.85,1.85,0,0,0-1.85,1.84v5.52A1.85,1.85,0,0,0,22.41,44h.38V57a2.61,2.61,0,0,0,2.61,2.6H44.6A2.61,2.61,0,0,0,47.21,57V44h.38a1.85,1.85,0,0,0,1.85-1.85V36.63A1.85,1.85,0,0,0,47.59,34.79ZM44.14,44V56.19a.36.36,0,0,1-.35.36H26.21a.36.36,0,0,1-.35-.36V44Zm2.23-6.15v3.08H23.63V37.85Z"/></g></svg>