<svg xmlns="http://www.w3.org/2000/svg" viewBox="0 0 70 70"><defs></defs><title>06_Icons_specification_v1</title><g id="Layer_90" data-name="Layer 90"><path  d="M62.77,9.78H7.23a1.4,1.4,0,0,0-1.4,1.4v9a1.4,1.4,0,0,0,1.4,1.4H12.4V58.82a1.4,1.4,0,1,0,2.8,0V21.56H54.8V58.82a1.4,1.4,0,1,0,2.8,0V21.56h5.17a1.4,1.4,0,0,0,1.4-1.4v-9A1.4,1.4,0,0,0,62.77,9.78Zm-15.29,9,4.66-6.18h5.13L52.6,18.76Zm-8.64,0,4.67-6.18h5.12L44,18.76Zm-8.63,0,4.67-6.18H40l-4.66,6.18Zm-8.63,0,4.66-6.18h5.13L26.7,18.76Zm-8.63,0,4.66-6.18h5.13l-4.67,6.18ZM8.63,12.58H14.1L9.44,18.76H8.63Zm52.74,6.18H56.11l4.67-6.18h.59Z"/><path  d="M39.32,29.15a1.4,1.4,0,0,0,0-2.8H29.65a1.4,1.4,0,0,0-1.4,1.4V58.82a1.4,1.4,0,0,0,1.4,1.4h9.67a1.4,1.4,0,0,0,0-2.8H31.05v-5h3.27a1.4,1.4,0,0,0,0-2.8H31.05v-5h3.27a1.4,1.4,0,0,0,0-2.8H31.05v-5h3.27a1.4,1.4,0,0,0,0-2.8H31.05v-5Z"/></g></svg>