<svg xmlns="http://www.w3.org/2000/svg" viewBox="0 0 70 70"><defs></defs><title>06_Icons_specification_v1</title><g id="Layer_106" data-name="Layer 106"><path  d="M55.75,30.9a6,6,0,0,0-6.1,6.1v5.8H20.15V37a6,6,0,0,0-6.1-6.1A6,6,0,0,0,8,37V50a6,6,0,0,0,6.1,6.1H56a6,6,0,0,0,6.1-6V37A6.21,6.21,0,0,0,55.75,30.9Zm-37,14.9h32.5a1.44,1.44,0,0,0,1.5-1.5V37a3.1,3.1,0,0,1,3.1-3.1,3.21,3.21,0,0,1,3.3,3.1V50.1a3.06,3.06,0,0,1-3.1,3.1H14.15a3.06,3.06,0,0,1-3.1-3.1V37a3.06,3.06,0,0,1,3.1-3.1,3.15,3.15,0,0,1,3.1,3.1v7.3A1.44,1.44,0,0,0,18.75,45.8Z"/><path  d="M13.85,29a1.44,1.44,0,0,0,1.5-1.5V19.6a3.67,3.67,0,0,1,3.7-3.7h32a3.8,3.8,0,0,1,3.7,3.7v7.9a1.45,1.45,0,0,0,1.5,1.5,1.5,1.5,0,0,0,1.5-1.5V19.6a6.79,6.79,0,0,0-6.7-6.7H18.75a6.26,6.26,0,0,0-6.4,6.53V27.5A1.44,1.44,0,0,0,13.85,29Z"/></g></svg>