<svg xmlns="http://www.w3.org/2000/svg" width="31.554" height="29.842" viewBox="0 0 31.554 29.842"><g transform="translate(-7.864 -7.108)"><g transform="translate(7.864 16.16)"><path class="a" d="M38.4,43.466H8.881a1.017,1.017,0,0,1-1.017-1.017V23.694a1.017,1.017,0,0,1,1.017-1.017H38.4a1.017,1.017,0,0,1,1.017,1.017V42.449A1.017,1.017,0,0,1,38.4,43.466ZM9.9,41.432H37.383V24.712H9.9Z" transform="translate(-7.864 -22.677)"/></g><g transform="translate(15.411 7.108)"><path class="a" d="M36.287,18.2H21.862a1.017,1.017,0,0,1-.8-1.651l7.212-9.072a1.052,1.052,0,0,1,1.592,0l7.213,9.072a1.017,1.017,0,0,1-.8,1.651ZM23.97,16.16H34.179l-5.1-6.419Z" transform="translate(-20.844 -7.108)"/></g><g transform="translate(11.927 23.177)"><path class="a" d="M17.969,41.12a2.92,2.92,0,0,1-1.275-.274,3.143,3.143,0,0,1-.983-.722,3.29,3.29,0,0,1-.633-1.023,3.232,3.232,0,0,1-.226-1.187,3.129,3.129,0,0,1,.235-1.2,3.174,3.174,0,0,1,1.651-1.713A3.009,3.009,0,0,1,18,34.745a2.935,2.935,0,0,1,1.276.274,3.115,3.115,0,0,1,.983.726,3.279,3.279,0,0,1,.629,1.027,3.23,3.23,0,0,1,.222,1.169,3.14,3.14,0,0,1-.235,1.2,3.181,3.181,0,0,1-1.642,1.717A2.958,2.958,0,0,1,17.969,41.12Zm-1.638-3.187a2.347,2.347,0,0,0,.106.7,1.883,1.883,0,0,0,.315.607,1.514,1.514,0,0,0,1.226.584,1.5,1.5,0,0,0,.726-.168,1.569,1.569,0,0,0,.513-.438,1.92,1.92,0,0,0,.305-.611,2.411,2.411,0,0,0,.1-.7,2.347,2.347,0,0,0-.106-.7,1.8,1.8,0,0,0-.319-.6,1.593,1.593,0,0,0-.518-.416,1.535,1.535,0,0,0-.7-.155,1.509,1.509,0,0,0-.722.163,1.61,1.61,0,0,0-.514.43,1.831,1.831,0,0,0-.31.606A2.414,2.414,0,0,0,16.331,37.933Z" transform="translate(-14.852 -34.745)"/><g transform="translate(7.092 0.035)"><path class="a" d="M27.05,41.093V34.806h2.683a1.845,1.845,0,0,1,.828.186,2.118,2.118,0,0,1,.646.487,2.314,2.314,0,0,1,.425.681,2.027,2.027,0,0,1,.155.77,2.214,2.214,0,0,1-.146.8,2.277,2.277,0,0,1-.408.681,1.907,1.907,0,0,1-.633.478,1.881,1.881,0,0,1-.823.177H28.5v2.028ZM28.5,37.8h1.186a.561.561,0,0,0,.443-.222.983.983,0,0,0,.186-.647,1.126,1.126,0,0,0-.058-.381.774.774,0,0,0-.155-.265.59.59,0,0,0-.221-.155.674.674,0,0,0-.248-.049H28.5Z" transform="translate(-27.05 -34.806)"/></g><g transform="translate(12.608 0.035)"><path class="a" d="M40.956,39.818v1.275H36.538V34.806h4.338v1.275H37.99V37.3h2.479V38.48H37.99v1.337Z" transform="translate(-36.538 -34.806)"/></g><g transform="translate(17.912 0.035)"><path class="a" d="M47.112,37.5v3.595H45.66V34.806h1.134l2.93,3.692V34.806h1.452v6.287H50.008Z" transform="translate(-45.66 -34.806)"/></g></g></g></svg>
