<svg id="Capa_1" enable-background="new 0 0 512 512" height="512" viewBox="0 0 512 512" width="512" xmlns="http://www.w3.org/2000/svg"><g><path d="m481.73 99.36h-389.185c-4.143 0-7.5 3.358-7.5 7.5s3.357 7.5 7.5 7.5h389.185c8.42 0 15.27 6.85 15.27 15.27v82.561c0 8.42-6.85 15.27-15.27 15.27h-451.46c-8.42 0-15.27-6.85-15.27-15.27v-82.561c0-8.419 6.85-15.27 15.27-15.27h32.289c4.143 0 7.5-3.358 7.5-7.5s-3.357-7.5-7.5-7.5h-32.289c-16.691 0-30.27 13.578-30.27 30.269v133.05c0 16.69 13.579 30.27 30.27 30.27h30.579c1.611 16.178 15.3 28.854 31.895 28.854h148.263c4.143 0 7.5-3.357 7.5-7.5s-3.357-7.5-7.5-7.5h-5.5v-38.527h40.987v38.527h-5.5c-4.143 0-7.5 3.357-7.5 7.5s3.357 7.5 7.5 7.5h148.262c16.595 0 30.285-12.676 31.896-28.854h30.578c16.69 0 30.27-13.579 30.27-30.27v-133.05c0-16.69-13.579-30.269-30.27-30.269zm-406.042 190.388v-20.376c0-.604.491-1.096 1.096-1.096h33.874v38.527h-17.914c-9.404 0-17.056-7.651-17.056-17.055zm90.121-21.472v38.527h-40.15v-38.527zm54.698 38.527h-39.698v-38.527h39.698zm70.987-38.527h39.698v38.527h-39.698zm94.848 0v38.527h-40.149v-38.527zm49.971 21.472c0 9.404-7.651 17.056-17.057 17.056h-17.914v-38.527h33.874c.604 0 1.097.491 1.097 1.096zm45.417-11.799h-30.418v-8.577c0-8.875-7.221-16.096-16.097-16.096h-358.431c-8.875 0-16.096 7.221-16.096 16.096v8.577h-30.418c-8.42 0-15.27-6.85-15.27-15.27v-24.37c4.486 2.633 9.703 4.15 15.27 4.15h451.46c5.567 0 10.783-1.517 15.27-4.15v24.37c0 8.42-6.85 15.27-15.27 15.27z"/><path d="m268.258 182.622c4.143 0 7.5-3.358 7.5-7.5s-3.357-7.5-7.5-7.5h-24.515c-4.143 0-7.5 3.358-7.5 7.5s3.357 7.5 7.5 7.5z"/><path d="m467.165 191.516c0-13.175-10.719-23.895-23.895-23.895s-23.895 10.719-23.895 23.895 10.719 23.895 23.895 23.895 23.895-10.72 23.895-23.895zm-32.789 0c0-4.904 3.99-8.895 8.895-8.895s8.895 3.99 8.895 8.895-3.99 8.895-8.895 8.895-8.895-3.991-8.895-8.895z"/><path d="m194.499 350.815c-4.143 0-7.5 3.357-7.5 7.5v13.271c0 14.366-11.688 26.055-26.055 26.055h-9.278c-4.143 0-7.5 3.357-7.5 7.5s3.357 7.5 7.5 7.5h9.278c22.638 0 41.055-18.417 41.055-41.055v-13.271c0-4.143-3.357-7.5-7.5-7.5z"/><path d="m159.166 351.935v-8.349c0-4.143-3.357-7.5-7.5-7.5s-7.5 3.357-7.5 7.5v8.349c0 7.504-6.104 13.608-13.608 13.608h-5.837c-4.143 0-7.5 3.357-7.5 7.5s3.357 7.5 7.5 7.5h5.837c15.774 0 28.608-12.834 28.608-28.608z"/><path d="m360.335 397.64h-9.279c-14.366 0-26.055-11.688-26.055-26.055v-13.271c0-4.143-3.357-7.5-7.5-7.5s-7.5 3.357-7.5 7.5v13.271c0 22.638 18.417 41.055 41.055 41.055h9.279c4.143 0 7.5-3.357 7.5-7.5s-3.357-7.5-7.5-7.5z"/><path d="m387.28 365.543h-5.837c-7.504 0-13.608-6.104-13.608-13.608v-8.349c0-4.143-3.357-7.5-7.5-7.5s-7.5 3.357-7.5 7.5v8.349c0 15.774 12.834 28.608 28.608 28.608h5.837c4.143 0 7.5-3.357 7.5-7.5s-3.357-7.5-7.5-7.5z"/></g></svg>