<?xml version="1.0" encoding="iso-8859-1"?>
<!-- Generator: Adobe Illustrator 19.0.0, SVG Export Plug-In . SVG Version: 6.00 Build 0)  -->
<svg version="1.1" id="Capa_1" xmlns="http://www.w3.org/2000/svg" xmlns:xlink="http://www.w3.org/1999/xlink" x="0px" y="0px"
	 viewBox="0 0 463.009 463.009" style="enable-background:new 0 0 463.009 463.009;" xml:space="preserve">
<path d="M391.784,1.84c-1.638-1.424-3.811-2.067-5.962-1.769c-0.868,0.122-21.573,3.112-49.264,14.994
	c-25.525,10.952-62.08,31.893-91.272,69.463c-6.743,8.679-10.459,19.667-10.464,30.94c-0.001,3.429-0.003,7.544-0.003,12.405
	l-17.903,23.871h-61.023c-0.146-4.014-3.437-7.226-7.486-7.226c-4.142,0-7.5,3.358-7.5,7.5v57.808c0,4.142,3.358,7.5,7.5,7.5
	c4.05,0,7.341-3.212,7.486-7.226h8.336l5.806,23.223c0.812,3.249,3.678,5.536,7.002,5.658v50.056h-6.678v-6.952
	c0-4.142-3.358-7.5-7.5-7.5s-7.5,3.358-7.5,7.5v28.904c0,4.142,3.358,7.5,7.5,7.5s7.5-3.358,7.5-7.5v-6.952h6.678v61.155
	l-64.072,51.258c-0.006,0.005-0.012,0.01-0.018,0.014l-41.484,33.188c-3.234,2.587-3.759,7.307-1.171,10.542
	c1.481,1.852,3.661,2.815,5.861,2.815c1.643,0,3.298-0.538,4.68-1.644l40.132-32.106l56.463-14.727
	c0.996,2.975,3.799,5.121,7.108,5.121s6.113-2.146,7.108-5.121l56.463,14.727l40.132,32.106c1.383,1.106,3.037,1.644,4.68,1.644
	c2.2,0,4.38-0.964,5.861-2.815c2.587-3.234,2.063-7.954-1.171-10.542l-41.484-33.188c-0.006-0.005-0.012-0.01-0.018-0.014
	l-64.072-51.258V238.981c3.324-0.122,6.19-2.409,7.002-5.658l5.805-23.223h12.072l17.903,23.87
	c0.001,4.861,0.002,8.976,0.003,12.405c0.005,11.273,3.721,22.262,10.464,30.94c29.193,37.57,65.747,58.511,91.272,69.463
	c27.691,11.882,48.396,14.873,49.264,14.994c0.347,0.048,0.694,0.072,1.04,0.072c1.797,0,3.548-0.646,4.922-1.841
	c1.638-1.425,2.578-3.489,2.578-5.659V7.499C394.362,5.329,393.422,3.265,391.784,1.84z M213.165,195.1h-57.259v-28.355h57.259
	V195.1z M177.036,384.401v14.73l-27.32,7.126L177.036,384.401z M219.356,406.258l-27.32-7.126v-14.73L219.356,406.258z
	 M185.906,224.004h-2.74l-3.476-13.904h9.693L185.906,224.004z M228.165,161.745l6.652-8.869c0,8.2,0.001,17.512,0.002,28.046
	c-0.001,10.534-0.002,19.847-0.002,28.048l-6.652-8.869V161.745z M379.362,345.189c-21.75-5.1-80.41-23.252-122.232-77.076
	c-4.71-6.062-7.305-13.783-7.309-21.743c-0.005-12.207-0.006-33.1-0.002-65.446c0,0,0-0.001,0-0.002
	c-0.004-32.346-0.003-53.239,0.002-65.446c0.003-7.959,2.599-15.681,7.309-21.743c41.826-53.828,100.49-71.979,122.232-77.077
	V345.189z"/>
<g>
</g>
<g>
</g>
<g>
</g>
<g>
</g>
<g>
</g>
<g>
</g>
<g>
</g>
<g>
</g>
<g>
</g>
<g>
</g>
<g>
</g>
<g>
</g>
<g>
</g>
<g>
</g>
<g>
</g>
</svg>
