<?xml version="1.0" encoding="iso-8859-1"?>
<!-- Generator: Adobe Illustrator 19.0.0, SVG Export Plug-In . SVG Version: 6.00 Build 0)  -->
<svg version="1.1" id="Capa_1" xmlns="http://www.w3.org/2000/svg" xmlns:xlink="http://www.w3.org/1999/xlink" x="0px" y="0px"
	 viewBox="0 0 511.998 511.998" style="enable-background:new 0 0 511.998 511.998;" xml:space="preserve">
<g>
	<g>
		<path d="M481.999,209.998h-96V180c0-5.521-4.478-10-10-10H316c-5.523,0-10,4.479-10,10v29.998h-20.001V100.996
			c0-8.129,6.869-14.996,15-14.996c8.131,0,15,6.867,15,14.996v20c0,5.521,4.477,10,10,10H366c5.522,0,10-4.479,10-10v-20
			c0-41.354-33.646-74.998-75.001-74.998c-41.356,0-75.001,33.645-75.001,74.998v109.002h-20V180c0-5.521-4.477-10-10-10h-60
			c-5.522,0-10,4.479-10,10v29.998H29.999c-16.542,0-29.999,13.457-29.999,30v20.004c0,5.521,4.477,10,10,10h10.271
			c2.433,45.746,21.512,88.527,54.355,121.371c35.229,35.229,81.883,54.629,131.371,54.629H206V476c0,5.523,4.477,10,10,10h79.998
			c5.523,0,10-4.477,10-10v-29.998H306c49.488,0,96.145-19.4,131.371-54.629c32.845-32.844,51.923-75.625,54.355-121.371h10.272
			c5.523,0,10-4.479,10-10v-20.004C511.998,223.455,498.541,209.998,481.999,209.998z M326,190h39.999v19.998H326V190z
			 M245.998,100.996c0-30.326,24.674-54.998,55.001-54.998c30.327,0,55.001,24.672,55.001,54.998v10h-20.001v-10
			c0-19.297-15.701-34.996-35-34.996s-35,15.699-35,34.996v109.002h-20.001V100.996z M145.998,190h40v19.998h-40V190z M285.998,466
			H226v-19.998h59.998V466z M306,426.002h-10.002H216h-10.002c-88.175,0-160.513-69.105-165.701-156h431.404
			C466.513,356.897,394.175,426.002,306,426.002z M491.998,250.002h-9.999h-452H20v-10.004c0-5.514,4.485-10,9.999-10h105.999h60
			H316h59.999h106c5.514,0,9.999,4.486,9.999,10V250.002z"/>
	</g>
</g>
<g>
	<g>
		<path d="M139.841,367.059l-0.266-0.166c-4.67-2.947-10.846-1.551-13.794,3.119c-2.947,4.67-1.551,10.845,3.121,13.795l0.4,0.25
			c1.641,1.018,3.461,1.502,5.26,1.502c3.346,0,6.615-1.68,8.508-4.732C145.981,376.134,144.536,369.97,139.841,367.059z"/>
	</g>
</g>
<g>
	<g>
		<path d="M118.542,350.418c-14.619-14.15-25.725-31.727-32.115-50.828c-1.752-5.238-7.419-8.064-12.655-6.31
			c-5.239,1.751-8.065,7.417-6.313,12.656c7.404,22.131,20.258,42.483,37.173,58.854c1.941,1.879,4.448,2.814,6.954,2.814
			c2.613,0,5.225-1.018,7.186-3.045C122.614,360.59,122.51,354.26,118.542,350.418z"/>
	</g>
</g>
<g>
	<g>
		<path d="M358.58,290h-0.475c-5.523,0-10,4.477-10,10c0,5.522,4.477,10,10,10h0.475c5.522,0,10-4.479,10-10
			C368.58,294.477,364.102,290,358.58,290z"/>
	</g>
</g>
<g>
	<g>
		<path d="M435.945,290h-48.28c-5.522,0-10,4.477-10,10c0,5.522,4.478,10,10,10h48.28c5.523,0,10-4.479,10-10
			C445.945,294.477,441.468,290,435.945,290z"/>
	</g>
</g>
<g>
</g>
<g>
</g>
<g>
</g>
<g>
</g>
<g>
</g>
<g>
</g>
<g>
</g>
<g>
</g>
<g>
</g>
<g>
</g>
<g>
</g>
<g>
</g>
<g>
</g>
<g>
</g>
<g>
</g>
</svg>
