<svg id="_x33_0" enable-background="new 0 0 64 64" height="512" viewBox="0 0 64 64" width="512" xmlns="http://www.w3.org/2000/svg"><path d="m59 14.083.847-5.083h1.153c1.103 0 2-.897 2-2v-4c0-1.103-.897-2-2-2h-58c-1.103 0-2 .897-2 2v4c0 1.103.897 2 2 2h1.153l.847 5.083v40.917c-1.103 0-2 .897-2 2v4h-2v2h62v-2h-2v-4c0-1.103-.897-2-2-2zm-8 40.917v-36h2v36zm-8 2v4h-2v-4c0-1.103-.897-2-2-2v-40.917l.847-5.083h4.306l.847 5.083v40.917c-1.103 0-2 .897-2 2zm-36-41c0-.552.449-1 1-1s1 .448 1 1-.449 1-1 1-1-.448-1-1zm10 0c0 .552-.449 1-1 1s-1-.448-1-1 .449-1 1-1 1 .448 1 1zm-4 0c0 .552-.449 1-1 1s-1-.448-1-1 .449-1 1-1 1 .448 1 1zm0 3v36h-2v-36zm2 0h2.012l-.012 36h-2zm4 36v-40.917l.847-5.083h4.306l.847 5.083v40.917c-1.103 0-2 .897-2 2v4h-2v-4c0-1.103-.897-2-2-2zm16 0v-36h2.012l-.012 36zm2-39c0 .552-.449 1-1 1s-1-.448-1-1 .449-1 1-1 1 .448 1 1zm-4 0c0 .552-.449 1-1 1s-1-.448-1-1 .449-1 1-1 1 .448 1 1zm-4 0c0 .552-.449 1-1 1s-1-.448-1-1 .449-1 1-1 1 .448 1 1zm-2 3h2v36h-2zm4 0h2v36h-2zm6.153-6h-10.317l-.658-4h11.642zm-12.153 44h14v4h-14zm28-41c0 .552-.449 1-1 1s-1-.448-1-1 .449-1 1-1 1 .448 1 1zm-4 0c0 .552-.449 1-1 1s-1-.448-1-1 .449-1 1-1 1 .448 1 1zm-2 3h2v36h-2zm8-3c0-.552.449-1 1-1s1 .448 1 1-.449 1-1 1-1-.448-1-1zm2.153-3h-10.317l-.658-4h11.642zm-54.153-10h58l.001 4h-58.001zm14.82 6-.667 4h-10.317l-.658-4zm-10.82 10h2v36h-2zm-2 38h14v4h-14zm40 4v-4h14v4zm10-6v-36h2.012l-.012 36z"/></svg>