<svg height="512pt" viewBox="-16 0 512 512" width="512pt" xmlns="http://www.w3.org/2000/svg"><path d="m469.667969 94.3125h-126.75v-33.644531c0-33.449219-27.214844-60.667969-60.667969-60.667969h-84.828125c-33.453125 0-60.671875 27.21875-60.671875 60.667969v34.644531h-126.75c-5.523438 0-10 4.476562-10 10v56.085938c0 3.867187 2.226562 7.386718 5.722656 9.039062 3.492188 1.65625 7.628906 1.148438 10.617188-1.304688.128906-.101562 13.488281-10.542968 35.820312-10.542968 22.285156 0 35.746094 10.484375 35.820313 10.542968 1.824219 1.496094 4.070312 2.265626 6.339843 2.265626 1.453126 0 2.914063-.3125 4.277344-.960938 3.492188-1.652344 5.722656-5.171875 5.722656-9.039062v-6.808594h32.429688v43.519531c0 2.386719.894531 4.777344 2.464844 6.574219l38.769531 44.464844 23.390625 120.691406v53.472656l-15.585938 28.199219c-1.707031 3.09375-1.65625 6.859375.132813 9.90625l26.832031 45.644531c1.792969 3.058594 5.074219 4.933594 8.621094 4.933594h35.484375c3.546875 0 6.824219-1.875 8.621094-4.933594l26.832031-45.644531c1.789062-3.046875 1.839844-6.8125.132812-9.90625l-15.585937-28.199219v-53.472656l23.359375-120.539063 40.125-44.492187c1.640625-1.808594 2.574219-4.257813 2.574219-6.699219v-43.519531h32.429687v6.800781c0 5.523437 4.488282 10 10.011719 10 2.300781 0 4.496094-.765625 6.28125-2.21875.132813-.105469 13.582031-10.582031 35.867187-10.582031 22.289063 0 35.738282 10.476562 35.84375 10.558594 1.78125 1.449218 4.019532 2.242187 6.316407 2.242187 5.523437 0 10-4.476563 10-10v-57.078125c0-5.523438-4.476563-10-10-10zm-385.347657 50.335938c-8.089843-3.21875-18.96875-6.058594-32.160156-6.058594s-24.070312 2.839844-32.160156 6.058594v-29.339844h64.320312zm52.429688-10.058594h-32.429688v-19.277344h32.429688zm20-50.757813h166.167969v20.457031.019532 40.28125.019531 43.5h-166.167969zm0-23.164062c0-22.425781 18.246094-40.667969 40.671875-40.667969h84.828125c22.425781 0 40.667969 18.242188 40.667969 40.667969v3.164062h-166.167969zm100.292969 306.3125c-.121094.625-.183594 1.261719-.183594 1.898437v57.011719c0 1.691406.429687 3.359375 1.246094 4.839844l14.074219 25.464843-21.039063 35.804688h-24.046875l-21.042969-35.804688 14.074219-25.464843c.816406-1.480469 1.25-3.148438 1.25-4.839844v-57.011719c0-.636718-.0625-1.273437-.183594-1.898437l-21.777344-112.378907h30.421876v26.425782c0 5.523437 4.476562 10 10 10 5.519531 0 10-4.476563 10-10v-26.425782h28.984374zm29.5-132.378907h-94.703125l-23.101563-26.488281h141.695313zm56.375-100.011718v-20.277344h32.429687v20.277344zm116.75 9.996094c-8.054688-3.195313-18.894531-5.996094-32.160157-5.996094-13.175781 0-24.0625 2.847656-32.160156 6.070312v-30.347656h64.320313zm0 0"/><path d="m263.101562 106.3125h-43.140624c-5.523438 0-10 4.476562-10 9.996094 0 5.523437 4.476562 10 10 10h43.140624c5.519532 0 10-4.476563 10-10 0-5.519532-4.480468-9.996094-10-9.996094zm0 0"/><path d="m263.101562 145.589844h-43.140624c-5.523438 0-10 4.476562-10 10 0 5.523437 4.476562 10 10 10h43.140624c5.519532 0 10-4.476563 10-10 0-5.523438-4.480468-10-10-10zm0 0"/><path d="m249.0625 318.988281c-1.613281-3.933593-5.699219-6.453125-9.941406-6.148437-4.167969.304687-7.722656 3.230468-8.898438 7.226562-1.175781 3.996094.410156 8.453125 3.789063 10.867188 3.355469 2.394531 7.941406 2.472656 11.371093.183594 3.921876-2.613282 5.496094-7.777344 3.679688-12.128907zm0 0"/><path d="m329.195312 426.378906 18.417969-28.128906c3.023438-4.621094 1.730469-10.820312-2.890625-13.84375-4.621094-3.027344-10.820312-1.734375-13.84375 2.886719l-18.417968 28.128906c-3.023438 4.621094-1.730469 10.820313 2.890624 13.84375 1.6875 1.109375 3.589844 1.636719 5.46875 1.636719 3.261719 0 6.457032-1.59375 8.375-4.523438zm0 0"/><path d="m396.519531 418.207031c-1.425781-2.855469-4.128906-4.859375-7.277343-5.394531-3.152344-.53125-6.363282.472656-8.648438 2.703125l-58.953125 57.492187c-2.96875 2.890626-3.84375 7.3125-2.199219 11.117188 1.585938 3.675781 5.203125 6.039062 9.179688 6.039062.136718 0 .277344-.003906.417968-.007812l85.855469-3.589844c3.386719-.140625 6.472657-1.988281 8.195313-4.90625 1.722656-2.921875 1.847656-6.515625.335937-9.550781zm-42.210937 50.878907 30.4375-29.6875 13.890625 27.832031zm0 0"/><path d="m148.785156 397.304688c-.753906-3.3125-3.136718-6.011719-6.324218-7.175782-3.191407-1.164062-6.75-.628906-9.460938 1.417969l-51.328125 38.816406c-2.710937 2.050781-4.195313 5.335938-3.941406 8.722657.253906 3.386718 2.210937 6.414062 5.191406 8.039062l68.679687 37.375c1.496094.816406 3.140626 1.21875 4.777344 1.21875 2.136719 0 4.265625-.6875 6.039063-2.027344 3.132812-2.375 4.585937-6.359375 3.710937-10.191406zm-42.6875 39.660156 26.621094-20.128906 8.996094 39.515624zm0 0"/><path d="m111.15625 492.207031-42.851562-8.875c-5.398438-1.117187-10.699219 2.355469-11.820313 7.765625s2.355469 10.699219 7.765625 11.820313l42.855469 8.871093c.683593.144532 1.363281.210938 2.035156.210938 4.644531 0 8.804687-3.25 9.78125-7.976562 1.121094-5.40625-2.355469-10.699219-7.765625-11.816407zm0 0"/></svg>