<svg height="512" viewBox="0 0 60 60" width="512" xmlns="http://www.w3.org/2000/svg"><g id="Page-1" fill="none" fill-rule="evenodd"><g id="006---Backdrop" fill="rgb(0,0,0)" fill-rule="nonzero"><path id="Shape" d="m58 4h-3v-2c0-1.1045695-.8954305-2-2-2h-46c-1.1045695 0-2 .8954305-2 2v2h-3c-1.1045695 0-2 .8954305-2 2v2c0 1.1045695.8954305 2 2 2h3v2c0 1.1045695.8954305 2 2 2v35c0 2.574-1.731 7.248-5.447 9.1-.42147024.2040519-.64490274.6732513-.53766446 1.129074.10723828.4558226.51642664.7761896.98466446.770926h56c.4682378.0052636.8774262-.3151034.9846645-.770926.1072382-.4558227-.1161943-.9250221-.5376645-1.129074-3.716-1.852-5.447-6.526-5.447-9.1v-35c1.1045695 0 2-.8954305 2-2v-2h3c1.1045695 0 2-.8954305 2-2v-2c0-1.1045695-.8954305-2-2-2zm-56 4v-2h3v2zm52.931 50h-49.862c2.37183005-2.4149738 3.77121398-5.6188546 3.931-9v-35h42v35c.159786 3.3811454 1.55917 6.5850262 3.931 9zm-2.931-46h-45v-10h46v3 7zm3-4v-2h3v2z"/><path id="Shape" d="m47 47h-28c-.5522847 0-1 .4477153-1 1s.4477153 1 1 1h28c.5522847 0 1-.4477153 1-1s-.4477153-1-1-1z"/><path id="Shape" d="m15 47h-2c-.5522847 0-1 .4477153-1 1s.4477153 1 1 1h2c.5522847 0 1-.4477153 1-1s-.4477153-1-1-1z"/></g></g></svg>