<svg id="Capa_1" enable-background="new 0 0 512.006 512.006" height="512" viewBox="0 0 512.006 512.006" width="512" xmlns="http://www.w3.org/2000/svg"><g><path d="m283.628 272.201c2.758 2.798 5.274 5.29 8.119 9.396 2.358 3.404 7.032 4.251 10.437 1.892s4.251-7.031 1.892-10.437c-3.44-4.964-6.409-7.981-9.766-11.381-11.402-11.566-28.634-29.046-30.6-59.835-.269-4.197-3.187-7.713-7.261-8.75-4.073-1.037-8.311.657-10.55 4.211-1.201 1.907-2.51 3.962-3.902 6.147-17.115 26.868-45.761 71.839-45.761 108.351 0 35.652 31.179 63.836 67.442 59.315 30.274-3.773 52.206-29.381 52.15-60.889-.008-4.138-3.364-7.486-7.5-7.486-4.146 0-7.508 3.365-7.5 7.514.036 20.427-13.351 42.779-39.006 45.977-27.822 3.468-50.587-18.255-50.587-44.431 0-29.71 23.22-68.409 39.557-94.226 5.979 27.39 22.412 44.059 32.836 54.632z"/><path d="m244.779 469.652c1.307 0 1.082-.026 11.223-2.744l165.994 44.478c9.63 2.58 19.491-3.133 22.064-12.737l7.68-28.662c.377-1.405.581-2.83.616-4.248 11.746-.36 21.191-10.028 21.191-21.86v-21.961c0-11.851-9.475-21.53-21.247-21.862-.02-1.48-.222-2.98-.622-4.474l-7.558-28.206c-2.604-9.72-12.634-15.508-22.354-12.905l-69.528 18.63c23.929-24.92 37.052-57.487 37.052-92.21 0-23.537-13.342-64.13-39.656-120.648-4.775-10.257-18.561-12.161-25.935-3.537-1.321 1.546-2.675 3.078-4.054 4.59 7.331-25.149 4.719-52.894-7.99-76.825-18.743-35.303-35.71-64.883-44.155-79.373-2.319-3.98-6.88-5.9-11.341-4.784-4.474 1.121-7.592 4.975-7.76 9.588-1.917 52.665-23.2 102.488-59.93 140.29l-14.239 14.654c-2.887 2.971-2.818 7.719.152 10.605s7.719 2.818 10.605-.152l14.239-14.654c35.673-36.715 57.737-84.023 63.059-134.584 9.154 15.982 22.141 39.11 36.125 65.443 13.987 26.336 14.258 59.085-2.492 86.492-2.537 4.127-1.725 9.418 1.933 12.581 3.658 3.166 9.015 3.208 12.734.103 8.83-7.369 17.038-15.477 24.519-24.229.066-.078.205-.244.508-.198.297.04.382.223.428.32 31.617 67.91 38.254 99.649 38.254 114.316 0 43.786-23.588 81.558-58.437 102.074-.424.196-.822.429-1.194.693-18.026 10.328-39.133 16.031-61.757 15.454-63.485-1.636-115.135-55.281-115.135-119.586 0-28.218 8.539-55.358 24.693-78.49 2.371-3.396 1.541-8.071-1.855-10.442-3.395-2.373-8.07-1.542-10.443 1.854-37.82 54.155-38.406 130.049 10.274 180.799.097.1 3.176.886-54.254-14.502-9.616-2.578-19.487 3.118-22.064 12.737l-7.654 28.564h-16.14c-12.06 0-21.871 9.812-21.871 21.871v21.961c0 11.849 9.471 21.527 21.24 21.862.023 1.493.231 2.994.628 4.474l7.558 28.206c2.597 9.69 12.602 15.517 22.354 12.905l121.567-32.574c4.001-1.071 6.375-5.185 5.303-9.186s-5.182-6.378-9.186-5.303l-121.566 32.577c-1.736.47-3.52-.567-3.983-2.299l-7.558-28.206c-.464-1.731.567-3.518 2.3-3.982 279.948-75.011 94.066-25.205 179.889-48.201 23.177-.158 45.421-6.187 65.059-17.432l103.589-27.757c1.727-.462 3.52.567 3.983 2.3l7.557 28.205c.465 1.732-.567 3.52-2.299 3.983-66.407 17.793-122.01 32.692-192.05 51.459-4.001 1.071-6.375 5.185-5.303 9.186.899 3.349 3.929 5.559 7.24 5.559zm-153.849-65.624 7.681-28.663c.437-1.632 2.108-2.556 3.692-2.132l88.451 23.7c8.869 5.058 18.277 9.054 28.063 11.918l-60.767 16.282-64.987-17.413c-1.589-.425-2.569-2.066-2.133-3.692zm-37.473 39.851v-21.961c0-3.789 3.082-6.871 6.871-6.871h18.69c2.425 3.523 5.985 6.043 10.161 7.162l39.894 10.689-55.843 14.963c-2.214.593-4.258 1.576-6.054 2.889h-6.848c-3.789 0-6.871-3.082-6.871-6.871zm383.796 22.224-7.68 28.663c-.43 1.606-2.081 2.563-3.692 2.132l-140.901-37.754 68.975-18.482 81.167 21.748c1.603.43 2.563 2.08 2.131 3.693zm21.296-44.185v21.961c0 3.789-3.082 6.871-6.871 6.871h-6.73c-1.766-1.284-3.771-2.245-5.943-2.827l-56.072-15.024 55.844-14.963c2.24-.6 4.271-1.595 6.038-2.889h6.864c3.788 0 6.87 3.082 6.87 6.871z"/><path d="m266.685 429.672c-1.071-4.001-5.184-6.379-9.186-5.303l-128.188 34.347c-4.001 1.071-6.375 5.185-5.303 9.186.897 3.351 3.928 5.561 7.239 5.561 1.527 0-6.797 2.085 130.134-34.604 4.002-1.073 6.376-5.186 5.304-9.187z"/><path d="m336.644 418.426c1.406 0-3.715 1.259 61.274-16.154 4.001-1.071 6.375-5.185 5.303-9.186-1.071-4.001-5.183-6.378-9.186-5.303l-59.328 15.896c-4.001 1.071-6.375 5.185-5.303 9.186.898 3.351 3.928 5.561 7.24 5.561z"/><path d="m109.823 401.131c52.164 13.977 48.184 13.023 49.591 13.023 3.312 0 6.342-2.21 7.239-5.561 1.072-4.001-1.302-8.114-5.303-9.186l-47.645-12.766c-4.002-1.076-8.114 1.302-9.186 5.303-1.071 4.002 1.303 8.115 5.304 9.187z"/><path d="m418.542 468.322-62.646-16.786c-4.003-1.075-8.114 1.302-9.186 5.303s1.302 8.114 5.303 9.186l62.646 16.786c3.993 1.073 8.113-1.297 9.186-5.303 1.072-4.001-1.302-8.115-5.303-9.186z"/></g></svg>