<?xml version="1.0" encoding="iso-8859-1"?>
<!-- Generator: Adobe Illustrator 19.0.0, SVG Export Plug-In . SVG Version: 6.00 Build 0)  -->
<svg version="1.1" id="Capa_1" xmlns="http://www.w3.org/2000/svg" xmlns:xlink="http://www.w3.org/1999/xlink" x="0px" y="0px"
	 viewBox="0 0 509.36 509.36" style="enable-background:new 0 0 509.36 509.36;" xml:space="preserve">
<g>
	<g>
		<path d="M438.68,205.36h-176v-16c0-2.96,0-5.92,0-8.88c8.089-4.873,16.449-9.28,25.04-13.2c9.6,6.88,33.92,22.32,59.84,22.32
			c5.156,0.034,10.293-0.612,15.28-1.92c37.68-10.08,56-58.08,56.88-60.08l2-5.36l-4.4-3.6c-1.68-1.36-41.68-33.76-79.36-24
			c-32.96,8.8-51.12,46.56-56,57.28c-6.133,2.72-12.16,5.707-18.08,8.96c2.211-19.589,6.75-38.845,13.52-57.36
			c12.16-2.16,40.96-9.36,53.6-31.36c16-27.6-1.04-65.68-1.76-67.36L327.48,0l-5.76,0.56c-1.76,0-43.28,4.56-59.2,32
			c-13.84,24-2.96,56,0.72,64.8c-4.283,11.504-7.758,23.293-10.4,35.28c-2.96-2.96-6.08-5.76-9.2-8.56v-2c0-2.8-7.12-68-50-92.8
			S90.84,31.2,88.28,32.32l-5.2,2.4l0.56,5.68c0,2.8,7.12,68,50,92.8c13.23,7.226,28.13,10.841,43.2,10.48
			c18.399-0.393,36.6-3.882,53.84-10.32c6.672,5.816,13.028,11.985,19.04,18.48c-1.511,9.273-2.526,18.619-3.04,28
			c-4.96-2-9.84-4.16-14.56-6.48c-3.976-1.944-8.776-0.296-10.72,3.68s-0.296,8.776,3.68,10.72c6.88,3.36,14.08,6.4,21.28,9.12v8.48
			H70.68c-13.255,0-24,10.745-24,24v48c-0.01,10.644,6.992,20.024,17.2,23.04L97.8,476.96c3.641,18.815,20.116,32.404,39.28,32.4
			h235.2c19.189-0.003,35.672-13.633,39.28-32.48l33.92-176.56c10.18-3.008,17.175-12.345,17.2-22.96v-48
			C462.68,216.105,451.935,205.36,438.68,205.36z M342.68,110.48c23.28-6.24,49.6,9.6,60.24,16.96
			c-5.52,11.68-20.48,38.64-43.68,44.8c-18.88,5.04-40-4.48-52.8-12.16c3.68-1.36,7.44-2.64,11.2-3.84l22.72-6.88
			c4.179-1.434,6.405-5.984,4.972-10.163c-1.371-3.998-5.617-6.24-9.692-5.117l-22.96,7.04c-2.56,0.8-5.12,1.76-8,2.64
			C312.68,130.88,325.32,115.04,342.68,110.48z M276.44,40.72c8.8-15.28,30.4-21.2,40.96-23.28c3.52,10.16,9.12,32,0,47.12
			c-7.708,10.734-19.1,18.252-32,21.12c3.984-8.733,8.471-17.227,13.44-25.44c1.684-4.085-0.263-8.761-4.348-10.445
			c-3.308-1.363-7.118-0.365-9.332,2.445c-4.48,7.28-8,14.8-12.08,22.48C270.214,63.341,271.402,51.318,276.44,40.72z M166.68,88.56
			l38.72,25.84c3.44,2.32,6.88,4.8,10.16,7.28c-19.2,5.6-50.72,11.68-74.08-2.24c-29.04-16.72-38.8-59.04-41.28-74.64
			c14.8-5.52,56-18.4,85.28-1.6c24.48,14.16,35.12,46.4,39.44,65.52c-3.52-2.64-7.12-5.28-10.8-8L175.4,75.2
			c-3.872-2.127-8.736-0.713-10.864,3.16C162.634,81.823,163.545,86.156,166.68,88.56z M446.68,277.36c0,4.418-3.582,8-8,8
			c-3.887-0.071-7.262,2.663-8,6.48L395.8,473.92c-2.181,11.271-12.039,19.419-23.52,19.44h-235.2
			c-11.511,0.018-21.413-8.139-23.6-19.44L80.36,301.36h262.32c4.418,0,8-3.582,8-8s-3.582-8-8-8h-272c-4.418,0-8-3.582-8-8v-48
			c0-4.418,3.582-8,8-8h368c4.418,0,8,3.582,8,8V277.36z"/>
	</g>
</g>
<g>
	<g>
		<path d="M94.68,237.36c-4.418,0-8,3.582-8,8v16c0,4.418,3.582,8,8,8s8-3.582,8-8v-16C102.68,240.942,99.098,237.36,94.68,237.36z"
			/>
	</g>
</g>
<g>
	<g>
		<path d="M134.68,237.36c-4.418,0-8,3.582-8,8v16c0,4.418,3.582,8,8,8s8-3.582,8-8v-16
			C142.68,240.942,139.098,237.36,134.68,237.36z"/>
	</g>
</g>
<g>
	<g>
		<path d="M174.68,237.36c-4.418,0-8,3.582-8,8v16c0,4.418,3.582,8,8,8s8-3.582,8-8v-16
			C182.68,240.942,179.098,237.36,174.68,237.36z"/>
	</g>
</g>
<g>
	<g>
		<path d="M214.68,237.36c-4.418,0-8,3.582-8,8v16c0,4.418,3.582,8,8,8s8-3.582,8-8v-16
			C222.68,240.942,219.098,237.36,214.68,237.36z"/>
	</g>
</g>
<g>
	<g>
		<path d="M254.68,237.36c-4.418,0-8,3.582-8,8v16c0,4.418,3.582,8,8,8s8-3.582,8-8v-16
			C262.68,240.942,259.098,237.36,254.68,237.36z"/>
	</g>
</g>
<g>
	<g>
		<path d="M294.68,237.36c-4.418,0-8,3.582-8,8v16c0,4.418,3.582,8,8,8s8-3.582,8-8v-16
			C302.68,240.942,299.098,237.36,294.68,237.36z"/>
	</g>
</g>
<g>
	<g>
		<path d="M334.68,237.36c-4.418,0-8,3.582-8,8v16c0,4.418,3.582,8,8,8s8-3.582,8-8v-16
			C342.68,240.942,339.098,237.36,334.68,237.36z"/>
	</g>
</g>
<g>
	<g>
		<path d="M374.68,237.36c-4.418,0-8,3.582-8,8v16c0,4.418,3.582,8,8,8s8-3.582,8-8v-16
			C382.68,240.942,379.098,237.36,374.68,237.36z"/>
	</g>
</g>
<g>
	<g>
		<path d="M414.68,237.36c-4.418,0-8,3.582-8,8v16c0,4.418,3.582,8,8,8s8-3.582,8-8v-16
			C422.68,240.942,419.098,237.36,414.68,237.36z"/>
	</g>
</g>
<g>
	<g>
		<path d="M358.68,461.36h-32c-4.418,0-8,3.582-8,8s3.582,8,8,8h32c4.418,0,8-3.582,8-8S363.098,461.36,358.68,461.36z"/>
	</g>
</g>
<g>
	<g>
		<path d="M294.68,461.36h-152c-4.418,0-8,3.582-8,8s3.582,8,8,8h152c4.418,0,8-3.582,8-8S299.098,461.36,294.68,461.36z"/>
	</g>
</g>
<g>
	<g>
		<path d="M406.68,285.36h-32c-4.418,0-8,3.582-8,8s3.582,8,8,8h32c4.418,0,8-3.582,8-8S411.098,285.36,406.68,285.36z"/>
	</g>
</g>
<g>
	<g>
		<path d="M213.56,163.52l-9.84-5.2c-3.91-2.077-8.763-0.59-10.84,3.32c-2.077,3.91-0.59,8.763,3.32,10.84l9.84,5.12
			c1.156,0.624,2.447,0.953,3.76,0.96c4.418-0.022,7.982-3.621,7.96-8.04C217.746,167.594,216.135,164.91,213.56,163.52z"/>
	</g>
</g>
<g>
</g>
<g>
</g>
<g>
</g>
<g>
</g>
<g>
</g>
<g>
</g>
<g>
</g>
<g>
</g>
<g>
</g>
<g>
</g>
<g>
</g>
<g>
</g>
<g>
</g>
<g>
</g>
<g>
</g>
</svg>
