<?xml version="1.0"?>
<svg xmlns="http://www.w3.org/2000/svg" width="512" height="512" viewBox="0 0 128 128"><g><path d="M121.5,56.25H107.54L91.355,21.858,107.43,13.35a1.762,1.762,0,0,0,.73-2.37l-2.8-5.3a1.737,1.737,0,0,0-1.03-.85,1.779,1.779,0,0,0-1.34.12L5.714,56.436H5.73A1.743,1.743,0,0,0,4.75,58V91A1.75,1.75,0,0,0,6.5,92.75H9.01v6.58a1.75,1.75,0,0,0,1.75,1.75h1.25V121.5a1.75,1.75,0,0,0,1.75,1.75h6a1.75,1.75,0,0,0,1.75-1.75V101.08h1.25a1.75,1.75,0,0,0,1.75-1.75V92.75h30.8v14.188h-2.75a1.75,1.75,0,0,0-1.75,1.75v6a1.749,1.749,0,0,0,1.75,1.75H75.442a1.749,1.749,0,0,0,1.75-1.75v-6a1.75,1.75,0,0,0-1.75-1.75h-2.75V92.75h30.8v6.58a1.75,1.75,0,0,0,1.75,1.75h1.25V121.5a1.75,1.75,0,0,0,1.75,1.75h6a1.75,1.75,0,0,0,1.75-1.75V101.08h1.25a1.75,1.75,0,0,0,1.75-1.75V92.75h2.51A1.75,1.75,0,0,0,123.25,91V58A1.75,1.75,0,0,0,121.5,56.25Zm-17.417,24v-2.5h6.084v2.5Zm-9.583,0v-2.5h6.083v2.5Zm-9.583,0v-2.5H91v2.5Zm-9.584,0v-2.5h6.084v2.5Zm-9.583,0v-2.5h6.083v2.5Zm-9.583,0v-2.5H62.25v2.5Zm-9.584,0v-2.5h6.084v2.5ZM37,80.25v-2.5h6.083v2.5Zm-9.583,0v-2.5H33.5v2.5Zm-9.584,0v-2.5h6.084v2.5Zm-9.583,0v-2.5h6.083v2.5Zm105.417-2.5h6.083v2.5h-6.083Zm6.083-3.5H8.25V59.75h111.5Zm-16.078-18h-77.3L88.259,23.5ZM103.08,8.87l1.17,2.2L18.878,56.25H13.56ZM18.01,119.75h-2.5V101.08h2.5Zm3-22.17h-8.5V92.75h8.5Zm52.682,15.358H54.308v-2.5H73.692Zm-4.5-6H58.808V92.75H69.192Zm43.3,12.812h-2.5V101.08h2.5Zm3-22.17h-8.5V92.75h8.5Zm4.26-8.33H8.25v-5.5h111.5Z"/><path d="M83.9,65.25H44.1a1.75,1.75,0,0,0,0,3.5H83.9a1.75,1.75,0,0,0,0-3.5Z"/></g></svg>
