<svg id="Layer_1" data-name="Layer 1" xmlns="http://www.w3.org/2000/svg" viewBox="0 0 280.55 140"><defs><style>.cls-1{fill:#1c3942;}</style></defs><title>04_cities</title><path class="cls-1" d="M268.21,112.93H257.27v-7.54a.75.75,0,0,0-.75-.74h-5.59V48.17l11.41,9.75a.75.75,0,0,0,1-1.14L225.51,24.46a.74.74,0,0,0-1,0L186.73,56.78a.75.75,0,0,0-.08,1.06.74.74,0,0,0,1,.08l11.41-9.75v56.48h-5.59a.74.74,0,0,0-.74.74v7.54H172.52v-7.54a.75.75,0,0,0-.75-.74h-5.58V47.17l11.4,9.75a.75.75,0,0,0,1-1.14L140.76,23.46a.74.74,0,0,0-1,0L102,55.78a.75.75,0,0,0,.49,1.32.74.74,0,0,0,.48-.18l11.41-9.75v57.48h-5.59a.74.74,0,0,0-.74.74v7.54H87.77v-7.54a.74.74,0,0,0-.75-.74H81.44V48.17l11.4,9.75a.78.78,0,0,0,.49.18.75.75,0,0,0,.49-1.32L56,24.46a.74.74,0,0,0-1,0L17.23,56.78a.75.75,0,1,0,1,1.14l11.41-9.75v56.48H24a.74.74,0,0,0-.75.74v7.54H12.56a.75.75,0,0,0,0,1.5H23.28V121a.74.74,0,0,0,.75.75H87a.74.74,0,0,0,.75-.75v-6.54H108V121a.74.74,0,0,0,.74.75h63a.75.75,0,0,0,.75-.75v-6.54h20.26V121a.74.74,0,0,0,.74.75h63a.75.75,0,0,0,.75-.75v-6.54h10.94a.75.75,0,0,0,0-1.5ZM55.53,26,79.79,46.76H31.26ZM31.11,48.26H79.94V61.38H31.11Zm0,14.62H79.94V76.55H75V72.89a.75.75,0,0,0-.75-.75H65a.76.76,0,0,0-.75.75v3.66H59.87V69a.75.75,0,0,0-.75-.75H41.51a.76.76,0,0,0-.75.75v7.56H31.11ZM59.87,92V78.05h4.35v7.19A.76.76,0,0,0,65,86h9.29a.75.75,0,0,0,.75-.75V78.05h4.93V92Zm20.07,1.5v11.12H59.87V93.47Zm-14.22-9V73.64h7.79V84.49ZM58.37,69.74v34.85H42.26V69.74ZM31.11,78.05h9.65v14a.65.65,0,0,0-.31-.08H31.27a.9.9,0,0,0-.16,0Zm0,15.39a.9.9,0,0,0,.16,0h9.18a.65.65,0,0,0,.31-.08v11.2H31.11Zm55.16,26.78H24.78V106.14H86.27Zm54-95.21,24.27,20.75H116ZM115.86,47.26h48.83v6.06H115.86Zm0,7.56h48.83v6H115.86Zm0,7.46h48.83v6H142.78V67a.74.74,0,0,0-.75-.75h-17.6a.74.74,0,0,0-.75.75v1.21h-7.82Zm26.92,33.81v-6h21.91v6Zm21.91,1.5v7H142.78v-7Zm-21.91-9v-6h21.91v6Zm0-7.47v-5h21.91v5Zm0-6.46v-5h21.91v5Zm-1.49-6.93v36.82H125.18V67.77Zm-25.43,2h7.82v5h-7.82Zm0,6.46h7.82v5h-7.82Zm0,6.46h7.82v6h-7.82Zm0,7.46h7.82v6h-7.82Zm0,7.47h7.82v7h-7.82ZM171,120.22h-61.5V106.14H171ZM225,26l24.27,20.75H200.76ZM200.61,48.26h48.83V60.78H200.61Zm0,14h48.83V74.7H227.53V67a.74.74,0,0,0-.75-.75H209.17a.74.74,0,0,0-.74.75V74.7h-7.82Zm26.92,26.35V76.2h21.91V88.63Zm21.91,1.49v14.47H227.53V90.12ZM226,67.77v36.82H209.92V67.77ZM200.61,76.2h7.82V88.63h-7.82Zm0,13.92h7.82v14.47h-7.82Zm55.16,30.1h-61.5V106.14h61.5Z"/></svg>