<svg id="Layer_1" data-name="Layer 1" xmlns="http://www.w3.org/2000/svg" viewBox="0 0 280.55 140"><defs><style>.cls-1{fill:#1c3942;}</style></defs><title>04_cities</title><path class="cls-1" d="M180.9,77.88a2.36,2.36,0,1,0-2.35-2.35A2.36,2.36,0,0,0,180.9,77.88Zm0-3.14a.79.79,0,1,1,0,1.58.79.79,0,1,1,0-1.58Z"/><path class="cls-1" d="M105.4,65.33a4.31,4.31,0,1,0-4.31,4.31A4.32,4.32,0,0,0,105.4,65.33Zm-7.06,0a2.75,2.75,0,1,1,2.75,2.74A2.75,2.75,0,0,1,98.34,65.33Z"/><path class="cls-1" d="M265.56,122.09H244v-3.25c3.49-.6,6.12-5.18,6.12-10.92,0-6.16-3-11-6.9-11s-6.9,4.83-6.9,11c0,5.74,2.63,10.32,6.11,10.92v3.25H201.05L197.53,113h0v0l.88-.43a3.09,3.09,0,0,0,1.79,1.31,3.21,3.21,0,0,0,.81.1,3.15,3.15,0,0,0,1.55-.41,3.11,3.11,0,0,0,1.22-4.06,40.93,40.93,0,0,0,3.55-2.65,3.1,3.1,0,0,0,4.41-4.31A41,41,0,0,0,214.48,99a3.06,3.06,0,0,0,1.22.28,3.1,3.1,0,0,0,2.69-1.56,3.09,3.09,0,0,0-.79-4,38.69,38.69,0,0,0,1.8-4.18c.11,0,.21,0,.32,0a3.16,3.16,0,0,0,1.55-.42,3.1,3.1,0,0,0-.23-5.5,42.6,42.6,0,0,0,.66-4.55,3.11,3.11,0,0,0,.09-6.07,42.8,42.8,0,0,0-.55-4.67,3.08,3.08,0,0,0,1.17-1.15,3.14,3.14,0,0,0,.31-2.36,3.1,3.1,0,0,0-2.95-2.29,40.52,40.52,0,0,0-1.79-4.5,3.09,3.09,0,0,0-2.89-5.13,41.67,41.67,0,0,0-3-3.94A3.09,3.09,0,0,0,208,44.84a43.16,43.16,0,0,0-4-3.1,3.09,3.09,0,0,0-.06-1.28,3.11,3.11,0,0,0-3.81-2.2,3.06,3.06,0,0,0-1.11.56,39.59,39.59,0,0,0-4.7-2A2.92,2.92,0,0,0,194,35.7a3,3,0,0,0-1.88-1.45,3.13,3.13,0,0,0-3.26,1.09,40.78,40.78,0,0,0-5.08-.66,3.11,3.11,0,0,0-5.74,0,41,41,0,0,0-5.08.66,3.11,3.11,0,0,0-5.53,1.5,39.59,39.59,0,0,0-4.7,2,3.23,3.23,0,0,0-1.11-.56,3.11,3.11,0,0,0-3.87,3.48,41.72,41.72,0,0,0-4,3.1,3,3,0,0,0-1.3-.3,3.11,3.11,0,0,0-3.11,3.11A3.05,3.05,0,0,0,149.7,49a39.94,39.94,0,0,0-3,3.94,3.11,3.11,0,0,0-3.31,1.48,3,3,0,0,0-.31,2.36,3.16,3.16,0,0,0,.72,1.29,40.52,40.52,0,0,0-1.79,4.5,3.17,3.17,0,0,0-1.5.4,3.1,3.1,0,0,0,0,5.4A40.47,40.47,0,0,0,140,73a3.1,3.1,0,0,0,.09,6.07,40.69,40.69,0,0,0,.65,4.56,3.1,3.1,0,0,0,1.33,5.91c.1,0,.21,0,.31,0a41.93,41.93,0,0,0,1.8,4.19,3.09,3.09,0,0,0,1.91,5.54,3,3,0,0,0,1.21-.27,41.13,41.13,0,0,0,2.76,3.55,3.09,3.09,0,0,0,4.4,4.31A42,42,0,0,0,158,109.5a3.1,3.1,0,0,0,1.23,4.06,3,3,0,0,0,1.55.42,3.12,3.12,0,0,0,2.6-1.43l.88.44-3.53,9.1H125.18v-1.18a.77.77,0,0,0-.3-.61l-.49-.39v-5.12a.81.81,0,0,0-.32-.64l-.77-.55V92.81l1-1.63a.77.77,0,0,0,0-.8l-.8-1.38,2.19-2.32s0-.06,0-.08a.69.69,0,0,0,.1-.19,1.16,1.16,0,0,0,0-.18s0,0,0-.08,0-.05,0-.08,0-.07,0-.11a.43.43,0,0,0,0-.07.8.8,0,0,0-.08-.16,1,1,0,0,0-.09-.13.8.8,0,0,0-.27-.18h0l-13.72-4.64V79.38l1-2.13v0a.66.66,0,0,0,.08-.32h0V74a.78.78,0,0,0-.27-.59.81.81,0,0,0-.63-.18,4.23,4.23,0,0,0-1.39.47V60.47l.54-1.26a.81.81,0,0,0-.07-.74.78.78,0,0,0-.65-.35h-.69V51.84a.79.79,0,0,0-.48-.72.81.81,0,0,0-.31-.06H108V41.78l.44-1.42a.85.85,0,0,0,0-.23V38.49l1-1.45a.78.78,0,0,0-.65-1.22h-.57V34.25a.78.78,0,0,0-.78-.79h-1l-2.7-9.85V21.53a.78.78,0,0,0-.78-.78h-.2l0-.31a2.37,2.37,0,0,0,.66-.9,2.43,2.43,0,1,0-3.82.9l0,.31h-.2a.78.78,0,0,0-.78.78v2.08l-2.7,9.85H94.74a.79.79,0,0,0-.79.79v1.57h-.57A.77.77,0,0,0,92.74,37l1,1.45v1.64s0,0,0,.06a1,1,0,0,0,0,.17l.44,1.42v9.27h-.81a.78.78,0,0,0-.78.79h0v6.28h-.69a.79.79,0,0,0-.72,1.09l.54,1.26V73.72a4.29,4.29,0,0,0-1.4-.47.74.74,0,0,0-.62.18.76.76,0,0,0-.28.59v2.89h0a.66.66,0,0,0,.08.32v0l1,2.14v1.38L76.83,85.41h0a1,1,0,0,0-.3.19l0,.06a.92.92,0,0,0-.13.24s0,0,0,0a.21.21,0,0,0,0,.08.31.31,0,0,0,0,.22.7.7,0,0,0,0,.14.94.94,0,0,0,.12.22s0,0,0,.07L78.7,89l-.81,1.38a.79.79,0,0,0,0,.8l1,1.62V113.6l-.77.55a.79.79,0,0,0-.33.64v5.12l-.49.39a.77.77,0,0,0-.3.61v1.18H54.94v-7c1.73-1.24,8.31-6.28,8-10.49a4.11,4.11,0,0,0-2.25-3.23A16.77,16.77,0,0,0,59,86.74c-1.4-2-3.17-3.14-4.85-3.14h0c-1.68,0-3.45,1.14-4.85,3.14a16.77,16.77,0,0,0-1.65,14.64,4.11,4.11,0,0,0-2.25,3.23c-.34,4.21,6.24,9.25,8,10.49v7H35V119c3.39-.6,6-5.06,6-10.64,0-6-3-10.71-6.73-10.71s-6.74,4.7-6.74,10.71c0,5.58,2.56,10,5.95,10.64v3.11H15a.78.78,0,1,0,0,1.56H33.73a.74.74,0,0,0,1,0h208a.71.71,0,0,0,.49.19.73.73,0,0,0,.49-.19h21.88a.78.78,0,1,0,0-1.56Zm-27.71-14.17c0-5.11,2.45-9.42,5.34-9.42s5.33,4.31,5.33,9.42c0,4.64-2,8.62-4.55,9.31v-3.51l2.46-1a.79.79,0,0,0,.45-1,.8.8,0,0,0-1-.45L244,112v-5.33l1-.37a.78.78,0,0,0-.56-1.46L244,105v-2.11a.79.79,0,0,0-1.57,0v5.6l-1.18-.79a.79.79,0,0,0-.87,1.31l2.05,1.36v6.82C239.87,116.54,237.85,112.56,237.85,107.92ZM47,104.74c.08-.93.73-1.68,2-2.28a.77.77,0,0,0,.4-1c-2.12-5.89-.75-11,1.24-13.85,1.09-1.55,2.42-2.48,3.57-2.48h0c1.15,0,2.48.93,3.57,2.48,2,2.83,3.36,8,1.24,13.85a.78.78,0,0,0,.4,1c1.25.6,1.9,1.35,2,2.28.21,2.64-3.82,6.38-6.41,8.4v-3.07l3.76-3.78a.78.78,0,0,0-1.1-1.11l-2.66,2.67V90.6a.78.78,0,1,0-1.56,0v17.25l-2.65-2.67a.79.79,0,0,0-1.11,0,.78.78,0,0,0,0,1.11l3.76,3.78v3.07C50.79,111.12,46.76,107.38,47,104.74Zm-17.91,3.6c0-5,2.36-9.15,5.17-9.15s5.16,4.19,5.16,9.15c0,4.49-1.94,8.33-4.38,9V114l2.37-.91a.79.79,0,0,0-.56-1.47l-1.81.7v-5.13l.94-.36a.79.79,0,0,0,.45-1,.78.78,0,0,0-1-.45l-.37.14v-2a.79.79,0,0,0-1.57,0v5.41l-1.12-.74a.78.78,0,1,0-.86,1.3l2,1.32v6.59C31,116.67,29.06,112.83,29.06,108.34Zm154.59,6.49a3.08,3.08,0,0,0-5.5,0,40.5,40.5,0,0,1-4.63-.62,3,3,0,0,0-3.3-2.41l1-3.26a34.52,34.52,0,0,0,19.29,0l1,3.27a2.88,2.88,0,0,0-1.09.08,3.11,3.11,0,0,0-2.22,2.33A40.5,40.5,0,0,1,183.65,114.83Zm-1.23,1.62a1.53,1.53,0,0,1-3,0C180.39,116.49,181.41,116.49,182.42,116.45Zm-2.27-1.54a1.48,1.48,0,0,1,.75-.2,1.45,1.45,0,0,1,.75.2Q180.9,114.93,180.15,114.91Zm19.45-4.71a1.55,1.55,0,0,1,1.55-.87C200.64,109.63,200.12,109.92,199.6,110.2Zm8.21-5.88a1.52,1.52,0,0,1,.41-.93,1.55,1.55,0,0,1,.95-.42C208.73,103.43,208.27,103.88,207.81,104.32Zm6.56-8.93a1.47,1.47,0,0,1,.93-.72h.06c-.36.65-.75,1.28-1.14,1.9A1.47,1.47,0,0,1,214.37,95.39Zm3.86-9.32a1.51,1.51,0,0,1,.72-.94c.05,0,.11,0,.17-.06-.2.78-.4,1.55-.64,2.31A1.52,1.52,0,0,1,218.23,86.07Zm.49-21.57c.25.87.48,1.76.67,2.65A1.43,1.43,0,0,1,219,67a1.53,1.53,0,0,1-.23-2.5Zm1.58,11c0,.61,0,1.21-.07,1.82a1.54,1.54,0,0,1,.05-2.6C220.29,75,220.3,75.27,220.3,75.53ZM214.51,55c.5.81,1,1.65,1.4,2.5a1.53,1.53,0,0,1-1.4-2.5ZM208,47c.7.66,1.38,1.35,2,2.06A1.51,1.51,0,0,1,208,47Zm-8.45-6.12c.88.47,1.73,1,2.57,1.52a1.55,1.55,0,0,1-1.87.25A1.53,1.53,0,0,1,199.52,40.83Zm-9.76-3.67c1,.22,2,.47,2.89.77a1.48,1.48,0,0,1-.58.66,1.55,1.55,0,0,1-2.31-1.43Zm-8.86-1c.51,0,1,0,1.51,0a1.54,1.54,0,0,1-3,0c.5,0,1,0,1.5,0Zm-10,2.6a1.53,1.53,0,0,1-1.78-.81c1-.3,1.93-.56,2.92-.79A1.54,1.54,0,0,1,170.9,38.74Zm-9.32,3.86a1.52,1.52,0,0,1-1.86-.29c.83-.53,1.68-1,2.55-1.5A1.53,1.53,0,0,1,161.58,42.6Zm-7.55,5a1.54,1.54,0,0,1-1.54,1.54,1.6,1.6,0,0,1-.72-.18q.61-.67,1.26-1.32c.27-.27.54-.52.81-.77A1.53,1.53,0,0,1,154,47.65Zm-6.59,9.1a1.55,1.55,0,0,1-1.57.74c.44-.85.91-1.69,1.41-2.5A1.55,1.55,0,0,1,147.44,56.75Zm-3.86,9.32a1.54,1.54,0,0,1-1.18,1.1c.19-.9.42-1.8.67-2.68A1.53,1.53,0,0,1,143.58,66.07Zm-2.08,9.48c0-.27,0-.53,0-.8a1.56,1.56,0,0,1,.74,1.32,1.53,1.53,0,0,1-.69,1.28C141.54,76.75,141.5,76.15,141.5,75.55Zm1.82,11.83c-.24-.76-.44-1.53-.63-2.31a1.54,1.54,0,0,1,.89,1A1.55,1.55,0,0,1,143.32,87.38Zm4.27,9.18h0c-.4-.62-.78-1.25-1.14-1.9a1.53,1.53,0,0,1,1.14,1.9Zm5,6.39a1.54,1.54,0,0,1,1.4,1.38C153.54,103.88,153.07,103.42,152.62,103Zm8,6.39.14,0a1.54,1.54,0,0,1,.77.21,1.51,1.51,0,0,1,.62.66C161.68,109.92,161.17,109.64,160.67,109.34ZM193.12,106c-.51.21-1,.4-1.56.58l-8.2-25.77,1.31,3.4ZM178.18,81.49l.26-.67-.2.62Zm0-6.62a2,2,0,0,1,.08-.26,2.77,2.77,0,0,1,.1-.26c0-.08.08-.16.13-.24a1.58,1.58,0,0,1,.15-.24,1.68,1.68,0,0,1,.18-.21,2.09,2.09,0,0,1,.2-.22l.21-.17.24-.16.25-.13.24-.1a2.29,2.29,0,0,1,.28-.09l.25-.05.27,0h.3l.24,0,.31.05.23.07a1.69,1.69,0,0,1,.28.12l.22.11a2.2,2.2,0,0,1,.25.17,1.56,1.56,0,0,1,.2.16l.23.22.14.18a3,3,0,0,1,.2.29c0,.06.07.12.1.19s.09.21.13.31l.06.21a1.65,1.65,0,0,1,.06.32,1.49,1.49,0,0,1,0,.21c0,.11,0,.22,0,.34s0,.13,0,.2,0,.22-.07.33a1.46,1.46,0,0,1,0,.2,2.88,2.88,0,0,1-.13.31l-.1.2a2.33,2.33,0,0,1-.17.26l-.17.21-.21.22a2.93,2.93,0,0,1-1.23.65,2.54,2.54,0,0,1-.47.07h-.39a2.65,2.65,0,0,1-.48-.07,2.83,2.83,0,0,1-1.26-.68l-.13-.14a2.52,2.52,0,0,1-.21-.25l-.15-.22c0-.09-.09-.17-.13-.26a1.22,1.22,0,0,1-.1-.24c0-.09-.06-.19-.09-.28s0-.17,0-.25a2.64,2.64,0,0,1,0-.28,2.35,2.35,0,0,1,0-.26l0-.28A2,2,0,0,1,178.16,74.87Zm2,5.86,1.36-.68L190,106.93a32.77,32.77,0,0,1-18.26,0Zm4-2.23a3.59,3.59,0,0,0,.25-.33,2.92,2.92,0,0,0,.21-.28,4.5,4.5,0,0,0,.23-.43,3.17,3.17,0,0,0,.17-.38,3.22,3.22,0,0,0,.2-.67c0-.13,0-.26.05-.4s0-.27,0-.41,0-.26,0-.4,0-.27,0-.41-.07-.26-.1-.39A2.91,2.91,0,0,0,185,74a3.29,3.29,0,0,0-.17-.39,3.84,3.84,0,0,0-.18-.35c-.08-.13-.17-.25-.26-.37a2.14,2.14,0,0,0-.13-.19l-.12-.12c-.05,0-.09-.12-.14-.17a1.56,1.56,0,0,0-.2-.16,4.15,4.15,0,0,0-.32-.27l-.37-.24a3.24,3.24,0,0,0-.37-.19,3.56,3.56,0,0,0-.41-.17l-.39-.11-.44-.09-.22,0h-.63a3,3,0,0,0-.42,0l-.41.08-.41.12-.39.17-.38.2a4,4,0,0,0-.37.25,2.43,2.43,0,0,0-.2.14c-.05,0-.08.09-.13.13l-.16.13c-.06.06-.1.13-.16.2s-.19.22-.28.34-.16.24-.23.36-.14.25-.2.38-.11.26-.16.4l-.12.4c0,.14,0,.27-.07.41a3.13,3.13,0,0,0,0,.43,2.67,2.67,0,0,0,0,.4c0,.15,0,.3,0,.44s.05.26.08.39a2.13,2.13,0,0,0,.13.43c0,.13.1.26.15.38a3.58,3.58,0,0,0,.21.39,3,3,0,0,0,.25.37c.05.07.08.14.14.21l.13.15-10.38,26.77a32.71,32.71,0,1,1,27.24,0Zm-6.06,3.24.08,0-7.92,24.87c-.53-.18-1.05-.38-1.56-.58Zm15.52,31.07a.46.46,0,0,0-.07-.07L192,108.05c.55-.19,1.1-.39,1.64-.61l1.81,4.67Zm-25.49-5.35c.55.22,1.1.42,1.65.61l-1.49,4.67a.46.46,0,0,1-.07.07l-1.89-.69Zm26.21,6.75,1.74-.64,3.31,8.52h-2.86l-2.14-6.72A3,3,0,0,0,194.32,114.21Zm-28.58-.64,1.74.64a3,3,0,0,0,0,1.16l-2.14,6.72h-2.86Zm3.5,1.29h0l0-.06c.88.26,1.76.49,2.65.69a1.55,1.55,0,0,1-1.81.87,1.5,1.5,0,0,1-.93-.72,2.15,2.15,0,0,1-.1-.27Zm.86-1.46a1.48,1.48,0,0,1,1.5.41C171.1,113.69,170.6,113.54,170.1,113.4Zm20.8,0a1.55,1.55,0,0,1,.8,0c-.5.14-1,.29-1.5.41A1.61,1.61,0,0,1,190.9,113.39Zm1.65,1.42.19.61a1.53,1.53,0,0,1-1,1,1.55,1.55,0,0,1-1.81-.88C190.78,115.3,191.67,115.07,192.55,114.81Zm2.58-8A34.38,34.38,0,0,0,180.9,41.14h0a34.4,34.4,0,0,0-14.23,65.7l-1.81,4.66q-.48-.21-1-.45a3.1,3.1,0,0,0-3.9-3.19,3.26,3.26,0,0,0-.94.45,38.14,38.14,0,0,1-3.67-2.75,3,3,0,0,0,.21-1.08,3.12,3.12,0,0,0-3.11-3.11,3,3,0,0,0-1.15.23A39.89,39.89,0,0,1,148.57,98a3.1,3.1,0,0,0-2.94-5,39.14,39.14,0,0,1-1.75-4.1,3.09,3.09,0,0,0-1.57-5.61,39.65,39.65,0,0,1-.64-4.37,3.09,3.09,0,0,0-.09-5.92,39.15,39.15,0,0,1,.51-4.32,3.1,3.1,0,0,0,1.47-5.83,38.66,38.66,0,0,1,1.6-4,3,3,0,0,0,.94.16,3.11,3.11,0,0,0,2-5.45,38.39,38.39,0,0,1,2.59-3.42,3,3,0,0,0,1.76.55,3.11,3.11,0,0,0,3.11-3.11,3.05,3.05,0,0,0-.59-1.8,39.38,39.38,0,0,1,3.4-2.66,3.08,3.08,0,0,0,5.26-3.1,38.15,38.15,0,0,1,4-1.67,3.09,3.09,0,0,0,5.93-1.6,40.52,40.52,0,0,1,4.27-.55,3.09,3.09,0,0,0,6.14,0,39.85,39.85,0,0,1,4.27.56,3.09,3.09,0,0,0,2.26,3.42,3.16,3.16,0,0,0,.81.11,3,3,0,0,0,1.54-.42,3,3,0,0,0,1.31-1.5,38.49,38.49,0,0,1,4,1.67,3.08,3.08,0,0,0,5.26,3.1,37.91,37.91,0,0,1,3.4,2.66,3.1,3.1,0,0,0,4.28,4.35,39.39,39.39,0,0,1,2.58,3.43,3.1,3.1,0,0,0,2.07,5.43,3.21,3.21,0,0,0,.91-.15,39.17,39.17,0,0,1,1.61,4,3.1,3.1,0,0,0-.07,5.41,3.15,3.15,0,0,0,1.55.41,41.08,41.08,0,0,1,.51,4.32,3.09,3.09,0,0,0-.09,5.92,39.63,39.63,0,0,1-.63,4.37A3.09,3.09,0,0,0,217.92,89a38,38,0,0,1-1.75,4.1,2.88,2.88,0,0,0-1.27.07,3.09,3.09,0,0,0-2.2,3.8,3.25,3.25,0,0,0,.53,1.09,37.86,37.86,0,0,1-2.77,3.54,3.1,3.1,0,0,0-4.05,4,39.77,39.77,0,0,1-3.67,2.74,2.92,2.92,0,0,0-.94-.45,3.11,3.11,0,0,0-3.81,2.2,3.09,3.09,0,0,0-.09,1c-.32.15-.63.3-1,.44Zm6.63,5.38a1.53,1.53,0,0,1-1.94-.34l.41-.2c.76-.4,1.5-.84,2.22-1.29A1.54,1.54,0,0,1,201.76,112.2Zm8.65-6.63a1.53,1.53,0,0,1-1.88.2c.72-.66,1.42-1.35,2.09-2.06A1.53,1.53,0,0,1,210.41,105.57Zm6.78-9.81a1.53,1.53,0,0,1-1.8,1.9c.52-.81,1-1.64,1.48-2.49A1.54,1.54,0,0,1,217.19,95.76Zm4-8.89A1.55,1.55,0,0,1,219.92,88c.29-.9.54-1.8.76-2.73A1.57,1.57,0,0,1,221.21,86.87Zm1.42-10.8a1.52,1.52,0,0,1-.83,1.35c0-.63.07-1.26.07-1.89,0-.27,0-.53,0-.8A1.55,1.55,0,0,1,222.63,76.07Zm-1.42-10.81a1.57,1.57,0,0,1-.16,1.18,1.37,1.37,0,0,1-.16.18c-.18-.8-.38-1.6-.6-2.38A1.54,1.54,0,0,1,221.21,65.26ZM217,55.2a1.55,1.55,0,0,1,.12,1.24c-.35-.67-.71-1.32-1.1-2A1.51,1.51,0,0,1,217,55.2Zm-6.63-8.64a1.6,1.6,0,0,1,.44,1c-.33-.34-.65-.69-1-1l-.45-.43A1.51,1.51,0,0,1,210.41,46.56ZM201,39.72a1.48,1.48,0,0,1,.76.21,1.53,1.53,0,0,1,.65.73c-.52-.32-1-.62-1.57-.92Zm-9.7-4a1.37,1.37,0,0,1,.4,0,1.42,1.42,0,0,1,.7.45c-.51-.15-1-.3-1.55-.43A1.76,1.76,0,0,1,191.3,35.71Zm-10.4-1.37a1.51,1.51,0,0,1,.84.25l-.84,0h0l-.83,0A1.51,1.51,0,0,1,180.9,34.34Zm-10.8,1.42a1.37,1.37,0,0,1,.4,0,1.63,1.63,0,0,1,.45.07l-1.59.44A1.53,1.53,0,0,1,170.1,35.76ZM160,39.93a1.51,1.51,0,0,1,.77-.21l.15,0c-.51.29-1,.59-1.53.9A1.51,1.51,0,0,1,160,39.93Zm-7.63,6.19c-.16.15-.33.3-.48.46-.34.33-.66.68-1,1A1.53,1.53,0,0,1,152.41,46.12Zm-7.8,10.25a1.54,1.54,0,0,1,1.13-1.89c-.38.64-.75,1.3-1.1,2C144.64,56.41,144.62,56.4,144.61,56.37Zm-4,8.9a1.58,1.58,0,0,1,.72-.94,1,1,0,0,1,.2-.08c-.22.79-.43,1.6-.6,2.41A1.54,1.54,0,0,1,140.59,65.27Zm-1.41,10.8a1.54,1.54,0,0,1,.77-1.34c0,.28,0,.55,0,.82h0c0,.63,0,1.25.06,1.87A1.51,1.51,0,0,1,139.18,76.07Zm1.42,10.8a1.53,1.53,0,0,1,.52-1.6c.22.92.48,1.83.76,2.72A1.53,1.53,0,0,1,140.6,86.87Zm4.17,10.06a1.53,1.53,0,0,1,.16-1.77c.47.85,1,1.69,1.48,2.5A1.53,1.53,0,0,1,144.77,96.93Zm7.72,9.09a1.54,1.54,0,0,1-1.54-1.54,1.57,1.57,0,0,1,.21-.78c.31.32.6.65.92,1s.81.75,1.22,1.12A1.62,1.62,0,0,1,152.49,106Zm8.72,6.34a1.52,1.52,0,0,1-1.83-2q1.26.78,2.58,1.47A1.63,1.63,0,0,1,161.21,112.36Zm-73.62,9.73v-4.71h3v4.71Zm4.51-1h6v1h-6Zm2.89-3a.09.09,0,0,1,.09-.1.1.1,0,0,1,.09.1C95.17,118.19,95,118.19,95,118.09Zm4.63,4v-4.71h2.94v4.71Zm4.51-1h6v1h-6Zm2.88-3a.09.09,0,0,1,.09-.1.1.1,0,0,1,.09.1C107.19,118.19,107,118.19,107,118.09Zm3.85-2.28a.78.78,0,0,0-.78.78v2.91H107.4a1.45,1.45,0,0,0,1.18-1.41,1.48,1.48,0,1,0-3,0,1.45,1.45,0,0,0,1.18,1.41h-2.68v-2.9a.78.78,0,0,0-.78-.79H98.84a.79.79,0,0,0-.79.79v2.9H95.38a1.46,1.46,0,0,0,1.17-1.41,1.48,1.48,0,1,0-1.77,1.41H92.1v-2.9a.78.78,0,0,0-.78-.79H86.81a.78.78,0,0,0-.78.79v2.9H83a1.46,1.46,0,0,0,1.18-1.41,1.48,1.48,0,1,0-3,0,1.46,1.46,0,0,0,1.17,1.41h-3v-4.31l.57-.4h42.34l.57.4v4.31h-3a1.46,1.46,0,0,0,1.17-1.41,1.47,1.47,0,1,0-2.94,0,1.46,1.46,0,0,0,1.17,1.41h-3v-2.91a.78.78,0,0,0-.78-.78ZM82.6,118.09a.09.09,0,1,1,.18,0C82.78,118.19,82.6,118.19,82.6,118.09Zm18.49-31.16h22.2l-1.11,1.18H80l-1.11-1.18Zm17,26.29-.34-1.73-.46-16.85.63-1.27h.93v19.85Zm-37.69,0V93.37h1.26v19.85Zm20.64-23.54h21l.64,1.09-.63,1h-42l-.63-1,.64-1.09Zm12.31,5-.46,16.85-.34,1.73h-.15l-.34-1.73-.46-16.85.64-1.27h.48Zm-5.68,0-.47,16.85-.33,1.73h-.16l-.34-1.73L106,94.64l.64-1.27h.48Zm-11.5,0-.46,16.85-.34,1.73h-.15l-.34-1.73-.46-16.85.63-1.27h.48Zm-5.69,0-.46,16.85-.34,1.73h-.15l-.34-1.73-.46-16.85.64-1.27h.48Zm-7.25-1.27h.93l.63,1.27-.46,16.85L84,113.22h-.76Zm2.65,18.35a.49.49,0,0,0,0-.12l.47-17.11a.67.67,0,0,0-.08-.37L86,93.37h1.7l-.37.75a.78.78,0,0,0-.09.37l.48,17.11a.49.49,0,0,0,0,.12l.29,1.5H85.64Zm5.69,0a.49.49,0,0,0,0-.12l.47-17.11a.67.67,0,0,0-.08-.37l-.37-.75h1.7l-.37.75a.78.78,0,0,0-.09.37l.48,17.11a.49.49,0,0,0,0,.12l.29,1.5H91.33Zm5.69,0a.49.49,0,0,0,0-.12l.47-17.11a.67.67,0,0,0-.08-.37l-.38-.75H99l-.37.75a.78.78,0,0,0-.09.37l.48,17.11a.49.49,0,0,0,0,.12l.29,1.5H97Zm3.65,1.5-.34-1.73-.46-16.85.63-1.27h.6l.64,1.27-.47,16.85-.33,1.73H101Zm2.15-1.5s0-.08,0-.12l.47-17.11a.78.78,0,0,0-.09-.37l-.37-.75h1.71l-.38.75a.77.77,0,0,0-.08.37l.47,17.11s0,.08,0,.12l.29,1.5h-2.34Zm5.69,0s0-.08,0-.12l.47-17.11a.78.78,0,0,0-.09-.37l-.37-.75h1.7l-.37.75a.67.67,0,0,0-.08.37l.47,17.11a.49.49,0,0,0,0,.12l.29,1.5h-2.34Zm5.69,0a.49.49,0,0,0,0-.12L115,94.49a.67.67,0,0,0-.08-.37l-.37-.75h1.7l-.37.75a.67.67,0,0,0-.08.37l.47,17.11a.49.49,0,0,0,0,.12l.29,1.5H114.2Zm6-18.35h1.26v19.85h-1.26Zm-1.07,24.72a.09.09,0,1,1,.18,0C119.58,118.19,119.4,118.19,119.4,118.09Zm-3.25,3h7.19l.27.22v.8h-7.46Zm4.21-35.7H81.84l9.74-3.3h0l9.51-3.22,9.51,3.22h0ZM99.19,55.65h-3V54.51h3Zm-3.74,1.56H108v.91H94.16v-.91ZM106,55.65h-3V54.51h3Zm4.21,23.21a.68.68,0,0,0-.08.34v1l-7.53-2.55h8.17ZM93.57,76.13a3.61,3.61,0,0,0-.28-.84v-15a.77.77,0,0,0-.06-.3l-.14-.33h16L109,60a.85.85,0,0,0-.06.31v15a3.61,3.61,0,0,0-.28.84h-15Zm6.06,1.56-7.52,2.55v-1a.77.77,0,0,0-.08-.34l-.56-1.18Zm11.55-2.58v1h-.93a1.66,1.66,0,0,1,.12-.31A2.75,2.75,0,0,1,111.18,75.11ZM108,52.63v3h-.5V53.72a.78.78,0,0,0-.79-.78h-4.52a.79.79,0,0,0-.79.78v1.93h-.66V53.72a.78.78,0,0,0-.79-.78H95.45a.78.78,0,0,0-.79.78v1.93h-.5v-3H108Zm-6.93-15.25h6.24l-.29.43a.77.77,0,0,0-.14.44v1.1H95.29v-1.1a.77.77,0,0,0-.14-.44l-.29-.43Zm3.1,13.68v-9.4a.81.81,0,0,0-.2-.53l-.2-.22h2.83l-.16.52a.91.91,0,0,0,0,.23v9.4Zm-3.1,0H99.56V42l.94-1.05h1.18l.95,1.05v9.1Zm-5.33,0v-9.4a.85.85,0,0,0,0-.23l-.16-.52h2.83l-.2.22a.81.81,0,0,0-.2.53v9.4Zm5.33-30.31h0l0-.21,0,0,0,.17Zm-.79-2.5a.86.86,0,1,1,1.59.68.9.9,0,0,1-.46.46h0a.78.78,0,0,0-.32.3.84.84,0,0,0-.31-.31h0l0,0h0a.93.93,0,0,1-.38-.43A.87.87,0,0,1,100.3,18.25ZM100,23.92a.76.76,0,0,0,0-.21V22.32h2.08v1.39a.76.76,0,0,0,0,.21l2.61,9.54H97.41ZM96.39,35h10.27v.78H95.52V35ZM91.81,75.84a1,1,0,0,1,.12.29H91v-1A2.57,2.57,0,0,1,91.81,75.84ZM78.57,121.29l.27-.22H86v1H78.57Zm33.07.8v-1.8h0v-2.9h3v4.71Zm55.3,0,1.55-4.86a2.9,2.9,0,0,0,1.21.65,3.21,3.21,0,0,0,.8.11,3.1,3.1,0,0,0,3-2.2,39.87,39.87,0,0,0,4.35.59,3.1,3.1,0,0,0,6.19,0,41.27,41.27,0,0,0,4.27-.57h0l.1.09A3.12,3.12,0,0,0,191.3,118a3.22,3.22,0,0,0,.81-.11,3,3,0,0,0,1.21-.65l1.54,4.86Z"/></svg>