<svg id="Layer_1" data-name="Layer 1" xmlns="http://www.w3.org/2000/svg" viewBox="0 0 280.55 140"><defs><style>.cls-1{fill:#6adc91;}</style></defs><title>04_cities</title><path class="cls-1" d="M269.68,94.6H248.47l-3.61-45.51h-7.23l-.84-10.27H217.48l-.84,10.27h-7.23l-.33,4.06c-6.86-11.75-17.55-21.31-30.35-27.73a.87.87,0,0,0-.81-.56.75.75,0,0,0-.26.05,87.12,87.12,0,0,0-75.13,0,.78.78,0,0,0-.22,0,.87.87,0,0,0-.81.54C88.83,31.75,78.25,41.16,71.36,52.76l-.29-3.67H63.84L63,38.82H43.69l-.84,10.27H35.61L32,94.6H10.87a.87.87,0,1,0,0,1.73h21l-2.16,27.28H77L74.81,96.33H205.66l-2.16,27.28h47.27l-2.16-27.28h21.07a.87.87,0,1,0,0-1.73Zm-50.6-54h16.11l.7,8.54H218.38ZM178.79,82.7V41.08a67.75,67.75,0,0,1,17.17,15V82.7Zm-18.91,0V32.92a71.74,71.74,0,0,1,16.82,6.92l0,0h0a.81.81,0,0,0,.24.17l0,0s0,0,0,0V82.7Zm-18.9,0V30.31a75.38,75.38,0,0,1,17.17,2.17V82.7Zm-18.9,0V32.47a75.24,75.24,0,0,1,17.17-2.16V82.7Zm-18.91,0V40a72.2,72.2,0,0,1,17.17-7.11V82.7Zm-18.9,0V56.09a67.58,67.58,0,0,1,17.17-15V82.7Zm-10.54,0-.51-6.5s0-.06,0-.1a63.6,63.6,0,0,1,9.27-17.77V82.7ZM180.58,40.15H196V53.41A69.8,69.8,0,0,0,180.58,40.15Zm-58.5-19.27,14.69,7.76a76.36,76.36,0,0,0-14.69,2.05Zm-1.74,10.23a74.6,74.6,0,0,0-13.65,5.08l13.65-14.56Zm39.54-9.45L173.18,36a75.24,75.24,0,0,0-13.3-4.91Zm-1.73,9a76.47,76.47,0,0,0-14.69-2.05l14.69-7.76Zm20.64,7.73v-11a75.65,75.65,0,0,1,16,11Zm-1.74-.75L161.47,20.82a83.71,83.71,0,0,1,15.58,5.71ZM141,28V18.13a86.24,86.24,0,0,1,15.65,1.6Zm-1.73,0-15.66-8.27a86.16,86.16,0,0,1,15.66-1.58Zm-36.08,9.43V26.51a82.88,82.88,0,0,1,15.57-5.7Zm-1.73,1.3-16.09-.27a75.73,75.73,0,0,1,16.09-11.08ZM84.27,40.17l14.94.25a69.75,69.75,0,0,0-14.94,13ZM71.64,56.27H81.91a65.56,65.56,0,0,0-9,15.85Zm126.05,2.08a63.78,63.78,0,0,1,9.16,17.43.85.85,0,0,0,.4.47l-.51,6.45h-9.05Zm9.85,14.27a65.51,65.51,0,0,0-8.89-15.88H208.8ZM208.16,55H197.69V41.17A64.33,64.33,0,0,1,208.16,55ZM82.54,41.16V54.54H72.34A65,65,0,0,1,82.54,41.16Zm-37.25-.61H61.4l.7,8.54H44.58ZM31.58,121.88l5.63-71.06H69.47l5.63,71.06ZM74.68,94.6l-.81-10.17H206.6l-.8,10.17Zm130.69,27.28L211,50.82h32.25l5.63,71.06Z"/></svg>