<svg id="Layer_1" data-name="Layer 1" xmlns="http://www.w3.org/2000/svg" viewBox="0 0 280.55 140"><defs><style>.cls-1{fill:#1c3942;}</style></defs><title>04_cities</title><path id="Path_1609" data-name="Path 1609" class="cls-1" d="M254.44,123H224.29l-7.39-5.36a1,1,0,0,0-1.2,0l-7.21,5.12-7.2-5.12a1,1,0,0,0-1.21,0L193.92,122v-6.83h2.27a1,1,0,1,0,0-2.08h-2.27v-1.32h2.27a1,1,0,0,0,0-2.09h-2.27V106.6h.92a1,1,0,0,0,0-2.08h-.92V102a1,1,0,0,0-1-1h-2.12c-1.61-5.76-2.47-8.67-3-22l1.08.88a1,1,0,0,0,.66.24h.14a1,1,0,0,0,.71-.44l2.09-3a4.53,4.53,0,0,0,1.37.24,3.35,3.35,0,0,0,2.86-1.55,3.59,3.59,0,0,0-.2-4.45l1.42-2a1,1,0,0,0-.25-1.45l0,0-5.06-3.31a1,1,0,0,0-1.39.23l-1.79,2.28a9.8,9.8,0,0,1-2.3-2.9,10.77,10.77,0,0,0-.17-1.39c-.64-2.6-1.92-6-5.76-6a1.11,1.11,0,0,1-.9-.34,3.55,3.55,0,0,1-.62-2.19,3.8,3.8,0,0,0,1.61-3c.06-.71,0-2.6,0-2.81V48c0-.2,0-.41-.06-.61l1.76-.91a1,1,0,1,0-1-1.85l-1.64.84-.23-.27-.13-.1,1.95-2.41a1,1,0,0,0-.16-1.47,1,1,0,0,0-1.46.16l-2.23,2.76a.45.45,0,0,1-.11,0V39.72a1,1,0,0,0-2.09,0v4.34l-.07,0-2.23-2.75a1,1,0,0,0-1.46-.16,1,1,0,0,0-.16,1.47L173.88,45l-.17.14-.2.24-1.61-.83a1,1,0,0,0-1.43.38,1,1,0,0,0,.38,1.42l.09.05,1.72.89a3.93,3.93,0,0,0-.06.69c0,.21-.06,2.1,0,2.81a3.83,3.83,0,0,0,1.53,2.9l0,.29c-1.76-1.4-5.94-8.47-6.6-24.58,0-.31,0-.6,0-.85h1.79a1,1,0,0,0,1-1.05V24.39a1,1,0,0,0-1-1h-1.55a5.64,5.64,0,0,0,.35-2,8.58,8.58,0,0,0-2.15-6.16.6.6,0,0,0-.15-.09l-.17-.11-.18,0-.21,0L165,15a1,1,0,0,0-.25.05l-.09.06a.83.83,0,0,0-.22.14,8.5,8.5,0,0,0-2.15,6.16,5.41,5.41,0,0,0,.34,2h-1.55a1,1,0,0,0-1,1h0v3.13a1,1,0,0,0,1,1.05h1.73A5.72,5.72,0,0,0,162.7,30c.56,12.64,3,24.38,5.12,29.44,1,2.43.72,3.58-.62,20.68h0a107.81,107.81,0,0,1-3,20.84H162a1,1,0,0,0-1,1v2.5h-.92a1,1,0,0,0,0,2.09H161v3.08h-2.27a1,1,0,1,0,0,2.08H161v1.33h-2.27a1,1,0,0,0,0,2.08H161v7.7l-4.55.11H132.83V96.56a1,1,0,0,0-1-1h-4.72V87a1,1,0,0,0-1-1h-5.65V62.82H122a1,1,0,0,0,0-2.09h-4.75V53.05a7.89,7.89,0,0,0-1.33-4.39V47a6.48,6.48,0,0,0-1-3.53V41.58a5.51,5.51,0,0,0-.93-3.07V36.35a4.56,4.56,0,0,0-1.07-2.93V31.65a3.51,3.51,0,0,0-2.48-3.34v-8a1,1,0,1,0-2.08,0h0v8a3.51,3.51,0,0,0-2.48,3.34v1.77a4.56,4.56,0,0,0-1.07,2.93v2.16a5.51,5.51,0,0,0-.93,3.07V43.5a6.48,6.48,0,0,0-1,3.53v1.63a7.89,7.89,0,0,0-1.33,4.39v7.69H96.73a1,1,0,0,0,0,2.08h1.63V86H92.71a1,1,0,0,0-1,1v8.51H87a1,1,0,0,0-1,1v25.83l-6.58-4.76a1,1,0,0,0-1.21,0l-7.3,5.19-7.15-5.19a1,1,0,0,0-1.21,0L54.91,123H26.12a1,1,0,0,0,0,2.09h228.3a1,1,0,1,0,0-2.09ZM66.86,123H58.52l4.55-3.24L67.62,123Zm7.33,0,4.54-3.24L83.28,123Zm17.48,0H88V97.6h3.67Zm6.7,0H93.76V88.05h4.61ZM108,31.65a1.43,1.43,0,0,1,2.86,0V32A4.51,4.51,0,0,0,108,32Zm-1.07,4.71a2.5,2.5,0,0,1,5,0v.31a5.45,5.45,0,0,0-5,0Zm2.5,1.79a3.42,3.42,0,0,1,3.42,3.29,6.53,6.53,0,0,0-6.84,0,3.43,3.43,0,0,1,3.42-3.3Zm-3.62,6.26h0a4.46,4.46,0,0,1,6.22-1,4.52,4.52,0,0,1,1,1h0a4.47,4.47,0,0,1,.82,2.12,7.88,7.88,0,0,0-8.89,0,4.48,4.48,0,0,1,.83-2.12ZM103.89,123h-3.43V62.78h3.43Zm8.89,0H106V62.78h6.8ZM104,60.74h-.4V53.05a5.81,5.81,0,0,1,11.62,0v7.69ZM118.3,123h-3.43V62.78h3.43ZM125,96.57V123h-4.61V88.05H125ZM130.76,123h-3.68V97.61h3.68ZM195,74.21a1.38,1.38,0,0,1-1.23.65l1.44-2.06a1.49,1.49,0,0,1-.21,1.4Zm-2.75-7.81,3.36,2.2-6.28,9-1.64-1.35c0-.18,0-.38,0-.56,0-1.18-.09-2.26-.13-3.27Zm-4.13,1.88-.71.91c0-.57-.05-1.1-.08-1.6a7.46,7.46,0,0,0,.79.7ZM174.69,48a2.18,2.18,0,0,1,.54-1.39,2.84,2.84,0,0,1,3.37,0,2.18,2.18,0,0,1,.54,1.39v.13c0,.6,0,2,0,2.51-.11,1.22-.7,1.74-2,1.74h-.49c-1.29,0-1.88-.52-2-1.74-.05-.52,0-2,0-2.65Zm-9.52-30.2a7.87,7.87,0,0,1,.77,3.57,2.44,2.44,0,0,1-.67,2h-.2a2.44,2.44,0,0,1-.67-2,7.94,7.94,0,0,1,.76-3.59Zm-3,8.69V25.45h6V26.5Zm2.65,3.43a4.39,4.39,0,0,1,.17-1.35h.37c0,.28,0,.6.07.94.76,19,6.28,26.83,9.05,26.83a1.32,1.32,0,0,0,1.45-1v0a2.58,2.58,0,0,0,.34-.86c.14,0,.27,0,.42,0h.48c.14,0,.27,0,.4,0a5,5,0,0,0,1.15,2.94,3.23,3.23,0,0,0,2.42,1,3,3,0,0,1,1.29.26,20.37,20.37,0,0,1-2.26,6.16A12.23,12.23,0,0,1,170,71.38c.68-8.25.76-10.28-.26-12.72-2.05-4.91-4.41-16.35-5-28.75Zm4.49,50.37h0c.2-2.62.4-4.87.55-6.83,9.72-.52,13.16-8.84,14.26-12.9a11.45,11.45,0,0,1,.78,2.29c.06.41.11.82.13,1.24v.08c.12,1.65.25,4.57.39,7.92h0l.18,4.68h0c.55,13.72,1.35,17.19,3,24.2H184.7V95.83a1,1,0,0,0-2.09,0V101h-3.13V83.52a1,1,0,1,0-2.08,0h0V101h-3.13V91.12a1,1,0,0,0-2.08,0V101h-5.86a113.74,113.74,0,0,0,3-20.7Zm22.55,42.59H163.09v-7.72h28.75Zm0-9.79H163.09v-1.32h28.75Zm0-3.4H163.09v-3.08h28.75Zm0-5.17H163.09v-1.46h28.75ZM196.15,123l4.54-3.23,4.55,3.23Zm15.61,0,4.54-3.23,4.55,3.23Z"/></svg>