<svg id="Layer_1" data-name="Layer 1" xmlns="http://www.w3.org/2000/svg" viewBox="0 0 280.55 140"><defs><style>.cls-1{fill:#1c3942;}</style></defs><title>04_cities</title><path id="Path_1606" data-name="Path 1606" class="cls-1" d="M246.34,117.25c-.35-4.2-.72-9.86-1.09-16.31h0c-.11-1.93-.21-3.93-.32-6v0q-.15-2.94-.31-6v0c-.09-2-.2-4-.29-6v0l-.27-6V76.8l-.27-6v0c-.08-2-.17-4-.25-6v0c-.09-2-.17-4.06-.25-6v0c-.09-2.07-.17-4.1-.25-6v0c-.18-4.51-.34-8.63-.47-12.13h0c0-.89-.06-1.74-.09-2.54l.52-.29a.72.72,0,0,0,1.29-.53v-7.2a.9.9,0,0,0-.21-.58.67.67,0,0,0-.5-.23c-3,0-6.1.07-9.25.07-51.1,0-109.33-6.07-126-7.93-.32,0-.63-.08-1-.1a3.45,3.45,0,0,0-3.14,1.9,4.59,4.59,0,0,0,1.48,6.33,4.46,4.46,0,0,0,1.18.52c.2,0,8.29,1.12,13.81,1.75l4.08.45c-.28,7.68-2.35,64.61-4.1,85.14h-7.39V104.05h5.22a.7.7,0,0,0,.5-.24.93.93,0,0,0,.2-.58A4,4,0,0,0,115.59,99a3.53,3.53,0,0,0-3,1.73,3.51,3.51,0,0,0-3-1.73,4,4,0,0,0-3.67,4.24.82.82,0,0,0,.2.58.66.66,0,0,0,.49.24h5.23v13.18h-9.86c-1.24-7-3.29-28.49-.67-33.83a9.27,9.27,0,0,1,4.55-3.85h0a45.28,45.28,0,0,1,4.77-1.86c3.3-1.15,5.69-2,5.69-3.89,0-6.42-11.39-7.38-18.18-7.38S80,67.38,80,73.8a2.34,2.34,0,0,0,1.17,1.94l0,0a15,15,0,0,0,3.39,1.53h0l1.1.39c3.51,1.21,7.87,2.72,9.33,5.71,2.62,5.34.56,26.85-.67,33.83H72.84c-1-5.51-2.5-21.78-.52-25.84a7.05,7.05,0,0,1,3.44-2.89h0a34,34,0,0,1,3.67-1.43c2.62-.91,4.51-1.56,4.51-3.18,0-2.68-2.47-5.88-14.2-5.88s-14.2,3.19-14.2,5.88c0,1.43,1.48,2.11,3.65,2.88h0l.85.3c2.68.93,6,2.08,7.11,4.32,2,4,.44,20.33-.51,25.84H54c-1.55-8.59-4.17-35.88-.86-42.65a11.83,11.83,0,0,1,5.8-4.92h0a58,58,0,0,1,6-2.33c4.07-1.4,7-2.42,7-4.67,0-7.86-14.16-9-22.6-9s-22.59,1.17-22.59,9a2.74,2.74,0,0,0,1.38,2.26l0,0a24.62,24.62,0,0,0,5.59,2.38c4.42,1.53,9.91,3.43,11.78,7.25,3.32,6.77.69,34.07-.85,42.65H31v-7.54h5.65a.66.66,0,0,0,.49-.24.82.82,0,0,0,.2-.58,4.21,4.21,0,0,0-3.88-4.48,3.76,3.76,0,0,0-3.17,1.89,3.75,3.75,0,0,0-3.17-1.89,4.22,4.22,0,0,0-3.88,4.48.93.93,0,0,0,.2.58.68.68,0,0,0,.5.24h5.64v7.54H17.89a.82.82,0,0,0,0,1.63H262.66a.84.84,0,0,0,.69-.94.85.85,0,0,0-.69-.69ZM115.58,100.62a2.34,2.34,0,0,1,2.15,1.8h-4.3a2.32,2.32,0,0,1,2.14-1.8Zm-8.07,1.8a2.18,2.18,0,0,1,4.29,0ZM87.35,76.57a53.73,53.73,0,0,1,21.73,0,35.29,35.29,0,0,0-3.49,1.4,61.68,61.68,0,0,0-14.75,0c-1.14-.54-2.34-1-3.49-1.4Zm-4.52-1.69c2.42-2,7.9-3.12,15.38-3.12s13,1.13,15.39,3.12c-.6.28-1.31.55-2,.8a40.5,40.5,0,0,0-13.39-1.85,40.53,40.53,0,0,0-13.39,1.85c-.69-.25-1.4-.53-2-.8Zm15.38-6.82c10.51,0,16.79,2.15,16.79,5.75a.39.39,0,0,1-.08.2c-3.34-3.35-11.8-3.87-16.7-3.87S84.85,70.66,81.51,74a.5.5,0,0,1-.08-.2c0-3.6,6.28-5.75,16.78-5.75ZM93.3,79.36c1.54-.13,3.18-.2,4.91-.2s3.37.07,4.92.2A9.78,9.78,0,0,0,101,81.29c-1.82-.07-3.75-.07-5.57,0a9.82,9.82,0,0,0-2.13-1.94Zm3.09,3.53c1.2,0,2.44,0,3.65,0-2.77,6.39-.55,27.59.58,34.35H95.81c1.13-6.77,3.35-28,.58-34.35ZM62,86.07a42.9,42.9,0,0,1,15.49,0c-.69.26-1.39.53-2.07.85a48.88,48.88,0,0,0-11.34,0c-.68-.32-1.38-.6-2.08-.85ZM58.2,84.69c1.94-1.4,6-2.18,11.53-2.18s9.59.78,11.54,2.18c-.37.16-.78.31-1.2.46a31.48,31.48,0,0,0-10.34-1.41,31.48,31.48,0,0,0-10.34,1.41l-1.19-.46Zm11.53-5c7.73,0,12.59,1.56,12.79,4.07-2.58-2.33-8.27-2.84-12.79-2.84s-10.19.51-12.79,2.83c.25-2.51,5.1-4.06,12.8-4.06Zm-3.29,8.68c1-.07,2.14-.11,3.29-.11s2.25,0,3.29.11a7.26,7.26,0,0,0-1.19,1.16c-1.36-.06-2.82-.06-4.18,0a7.32,7.32,0,0,0-1.2-1.16Zm2.14,2.76c.76,0,1.54,0,2.31,0-2,5.19-.36,20.78.51,26.15H68.08c.87-5.37,2.46-20.95.51-26.15ZM35,66.1a57.75,57.75,0,0,1,14.28-1.57,58.24,58.24,0,0,1,14.29,1.56,53.16,53.16,0,0,0-5,2,78.5,78.5,0,0,0-18.51,0A50.54,50.54,0,0,0,35,66.1Zm-5.34-2c2.94-2.66,10-4.16,19.62-4.16S66,61.4,68.91,64.06a28.57,28.57,0,0,1-2.86,1.17A50.19,50.19,0,0,0,49.28,62.9a50.19,50.19,0,0,0-16.77,2.33,29.4,29.4,0,0,1-2.85-1.17Zm19.62-8.79c5,0,21.19.53,21.19,7.39a.8.8,0,0,1-.27.52c-4-4.26-14.74-4.92-20.92-4.92s-16.87.66-20.92,4.92a.79.79,0,0,1-.26-.52c0-6.86,16.21-7.39,21.18-7.39ZM42.52,69.45c2.11-.18,4.37-.28,6.76-.28s4.66.1,6.77.28a12.6,12.6,0,0,0-3.2,2.8c-2.32-.1-4.8-.1-7.12,0a12.46,12.46,0,0,0-3.21-2.8Zm4.2,4.4c1.69,0,3.44,0,5.13,0-3.68,7.66-.75,35.14.66,43.4H46.06c1.41-8.27,4.34-35.75.66-43.42ZM33.46,106a2.55,2.55,0,0,1,2.37,2H31.1a2.52,2.52,0,0,1,2.37-2Zm-8.71,2a2.4,2.4,0,0,1,4.74,0Zm208.56,9.18,11-8.83c.09,1.42.18,2.77.27,4.06l-5.93,4.77Zm-7.78,0,18.38-14.8q.12,2.1.24,4.08l-13.32,10.72Zm-4.54,0c-.07-.77-.13-1.6-.2-2.46l22.8-18.34c.07,1.4.14,2.76.22,4.1l-20.75,16.7ZM219.24,38h1.2l-3.22,2.6c0-.92-.07-1.81-.1-2.64l1.52,0Zm7.85.08h1l-10.7,8.6c-.05-1.45-.11-2.83-.16-4.15L222.87,38h.5l3.73,0Zm-8.83,28.72L241.44,48.1c.05,1.33.1,2.72.16,4.15L218.44,70.88c-.06-1.39-.11-2.77-.17-4.14Zm.26,6,23.15-18.63c.06,1.35.11,2.73.17,4.14L218.71,76.93q-.09-2.09-.18-4.14Zm.27,6,23.13-18.61c.05,1.36.11,2.74.17,4.13L219,83l-.18-4.14Zm.28,6,23.1-18.58c.06,1.36.12,2.74.18,4.13L219.27,89c-.06-1.37-.12-2.75-.19-4.13Zm.3,6,23.06-18.56c.06,1.38.12,2.75.19,4.13L219.58,95c-.07-1.35-.13-2.73-.2-4.12Zm.31,6,23-18.53c.07,1.38.13,2.75.2,4.12l-23,18.5q-.12-2-.24-4.11Zm.33,6,23-18.48c.07,1.38.14,2.75.2,4.11L220.26,107c-.07-1.33-.15-2.69-.24-4.09Zm.37,6,22.9-18.43q.1,2.08.21,4.11l-22.84,18.37c-.08-1.28-.17-2.64-.26-4.06Zm21-62.7L218.18,64.83c-.06-1.39-.12-2.77-.17-4.13L241.2,42c.06,1.3.11,2.69.17,4.14Zm-23.84,2.38L230.6,38h5.33L217.68,52.7c-.05-1.42-.1-2.81-.15-4.15ZM241.05,38c0,.68,0,1.39.08,2.13l-23.2,18.66c-.06-1.4-.11-2.78-.17-4.14L238.42,38,241,38ZM107.11,28.3A2.66,2.66,0,0,1,105,25.56a2.61,2.61,0,0,1,2.35-2.77l.83.09c16.64,1.87,74.93,8,126.1,8,2.91,0,5.78,0,8.55-.06v5.56l-1.74,0-1.69,0H236l-4.55,0h-4.69c-1.2,0-2.4,0-3.59,0h-.86l-3.4,0h-.8l-3.92-.07h0c-5.8-.12-11.5-.29-17.06-.5l-5.76-.23-1.63-.08-4.67-.22L182,35l-2.72-.15c-21.81-1.22-40.1-2.91-51.55-4.11l-1.54-.16L120.88,30c-5.41-.62-13.5-1.71-13.77-1.75Zm80.65,89,12.17-9.79c.09,1.42.18,2.78.27,4.06l-7.12,5.73Zm-7.78,0,19.6-15.77c.08,1.4.15,2.77.23,4.09l-14.52,11.68Zm-3.28,0c-.09-1-.18-2.18-.27-3.4L199.25,95.5c.07,1.39.15,2.76.22,4.1l-22,17.67Zm-31.52,0,10.3-8.29c.09,1.43.19,2.78.28,4.06l-5.26,4.23Zm-7.78,0L155.12,103q.12,2.11.24,4.08l-12.64,10.18Zm-5.24,0c-.06-.6-.11-1.25-.16-1.92L154.78,97c.08,1.4.15,2.76.23,4.1l-20.08,16.15ZM128.24,37l4.95-4,4.74.46-9.53,7.67c-.05-1.55-.1-3-.15-4.16ZM128.17,35c0-1.1-.07-2-.09-2.57l2.91.3Zm.3,8,11.67-9.39,4.78.43L128.63,47.19c0-1.48-.1-2.86-.15-4.17Zm.24,6.07,18.44-14.84,4.82.4-23.1,18.58c-.05-1.43-.1-2.82-.15-4.15Zm.24,6.07L152.16,36.5c.05,1.25.1,2.64.15,4.15L129.12,59.32c-.05-1.42-.11-2.8-.16-4.16Zm.25,6.06,23.18-18.66c.05,1.31.1,2.7.16,4.15L129.36,65.38c0-1.41-.1-2.79-.15-4.15Zm.25,6.06,23.17-18.64c0,1.33.11,2.71.16,4.14L129.63,71.43c0-1.4-.11-2.78-.17-4.15Zm.27,6,23.14-18.63c.06,1.36.11,2.74.17,4.15L129.9,77.48l-.18-4.15Zm.27,6,23.12-18.6c0,1.36.11,2.74.17,4.14l-23.1,18.58L130,79.38Zm.28,6,23.09-18.58c.06,1.37.12,2.74.18,4.13L130.47,89.53c-.06-1.36-.13-2.73-.19-4.11Zm.3,6,23.05-18.56c.06,1.38.13,2.75.19,4.13l-23,18.53c-.07-1.35-.14-2.73-.21-4.12Zm.31,6,23-18.52c.07,1.38.13,2.75.2,4.12l-23,18.49c-.07-1.34-.15-2.71-.22-4.11Zm.34,6,23-18.47c.06,1.38.13,2.75.2,4.11l-22.92,18.44c-.08-1.32-.16-2.68-.24-4.09Zm.36,6L154.47,91q.1,2.09.21,4.11l-22.82,18.36c-.08-1.27-.18-2.64-.27-4.07ZM153.51,35h0v-.19c4.9.39,10.16.77,15.71,1.13-.58,15.54-2.39,62.9-3.95,81.33h-7.76c-1.61-19-3.52-69.57-4-82.29Zm28.2,1.68,2.42.13-11,8.87c-.05-1.47-.11-2.86-.15-4.15l6.19-5,.46,0Zm9.16.45.62,0L173.35,51.73c-.06-1.44-.11-2.82-.16-4.15L186.46,36.9l2.92.14Zm-17.2,22.61,23.2-18.67c0,1.28.1,2.66.16,4.15L173.85,63.86c-.06-1.41-.11-2.8-.17-4.16Zm.26,6.06,23.18-18.65c0,1.32.1,2.7.16,4.14L174.12,69.89c-.07-1.38-.13-2.76-.19-4.13Zm.26,6L197.34,53.2c.06,1.34.11,2.72.17,4.14L174.37,76c-.06-1.39-.12-2.78-.18-4.15Zm.27,6,23.13-18.61c.06,1.35.11,2.73.17,4.14L174.65,82c-.06-1.38-.12-2.76-.19-4.13Zm.28,6,23.1-18.58c.06,1.36.12,2.74.18,4.13L174.94,88c-.07-1.37-.13-2.75-.2-4.14Zm.29,6L198.1,71.37l.18,4.13L175.24,94c-.07-1.36-.13-2.73-.2-4.12Zm.31,6,23-18.53c.06,1.37.12,2.75.19,4.12l-23,18.51c-.07-1.36-.14-2.72-.21-4.12Zm.33,6,23-18.49c.06,1.38.13,2.75.2,4.12L175.91,106c-.08-1.33-.16-2.7-.24-4.1Zm.35,6,22.92-18.44c.07,1.38.14,2.75.2,4.1L176.29,112c-.08-1.29-.17-2.65-.26-4.07Zm20.71-70.57c0,.55,0,1.14.07,1.77L173.59,57.79c-.05-1.41-.11-2.79-.17-4.14l20.41-16.42,2.76.12Zm-19.89-1-4,3.19c0-1.27-.09-2.42-.13-3.43l4.1.23Zm21.3,1q7.5.27,15.29.44c-.7,18.82-2.4,61.93-3.88,79.41H202c-1.52-18.05-3.32-64.49-3.89-79.87Zm-71.93-5.14.45,0c.33,9.24,2.34,64.34,4.07,84.94h-8.6c1.75-20.66,3.8-77,4.09-85Zm26.75,85,2.93-2.36c.06.83.13,1.62.19,2.36ZM170.61,36l.73,0c0,1.43.11,3.13.18,5h0c.13,3.43.29,7.56.48,12.14h0c.15,3.8.31,7.88.49,12.13h0c.17,3.94.35,8,.53,12.09h0c.7,15.41,1.51,30.88,2.26,39.79h-8.61c1.58-18.6,3.38-65.72,4-81.26Zm24.93,81.24,4.78-3.85c.1,1.39.2,2.68.3,3.85Zm19.3-79.38.86,0c.69,18.72,2.4,61.72,3.87,79.36H211c1.5-17.65,3.19-60.64,3.89-79.4Zm26.25,79.38,3.59-2.89c.08,1,.16,2,.23,2.89Z"/></svg>