<svg xmlns="http://www.w3.org/2000/svg" width="270.93" height="182.689" viewBox="0 0 270.93 182.689"><defs></defs><g transform="translate(-79.59 -54.4)"><path class="b" d="M332.39,222.77l-24.07-15.79-17.96,2.71L271.7,186.85l-22.11,4.59-16.58-19.06H171.5l-19.33,15.73-33.16,6.92L96.93,222.77"></path><path class="b" d="M157.45,222.77l17.28-22.2,25.17,9.12h17.77l27.53,12.9,15.1-3.65,4.4,3.83"></path><line class="b" x1="8.95" y2="13.08" transform="translate(208.72 209.69)"></line><line class="b" x1="1.67" y2="13.08" transform="translate(198.23 209.69)"></line><line class="b" x1="11.26" y2="13.08" transform="translate(279.09 209.69)"></line><line class="b" x1="1.24" y2="12.82" transform="translate(248.35 191.44)"></line><line class="b" x2="5.52" y2="16.23" transform="translate(248.35 204.26)"></line><line class="b" x1="20.05" y2="10.41" transform="translate(228.3 204.26)"></line><line class="b" x1="46.57" y2="32.44" transform="translate(186.44 172.38)"></line><line class="b" x2="16.43" y2="19.89" transform="translate(152.17 188.11)"></line><line class="b" x1="16.34" y2="34.66" transform="translate(135.83 188.11)"></line><line class="b" x2="12.7" transform="translate(147.69 198.05)"></line><line class="b" x2="20.76" transform="translate(145 205.41)"></line><line class="b" x2="23.6" transform="translate(141.06 212.77)"></line><line class="b" x2="20.85" transform="translate(137.73 220.13)"></line><line class="b" x2="21.97" transform="translate(218.98 182.07)"></line><line class="b" x2="39.32" transform="translate(208.53 189.43)"></line><line class="b" x2="50.96" transform="translate(198.01 196.79)"></line><line class="b" x2="9.24" transform="translate(223.49 211.51)"></line><line class="b" x2="59.65" transform="translate(188.7 204.15)"></line><rect class="b" width="32.74" height="74.03" transform="translate(192.75 98.04)"></rect><rect class="b" width="45.59" height="11.64" transform="translate(185.93 86.4)"></rect><path class="b" d="M209.12,60.84h0a11.54,11.54,0,0,1,11.54,11.54v14H197.58v-14a11.54,11.54,0,0,1,11.54-11.54Z"></path><line class="b" x2="32.74" transform="translate(192.75 70.81)"></line><line class="b" x2="38.74" transform="translate(189.75 154.86)"></line><line class="c" y1="8.38" transform="translate(204.72 78.02)"></line><line class="c" y2="7.54" transform="translate(201.59 112.24)"></line><line class="b" y1="4.44" transform="translate(209.12 56.4)"></line><path class="b" d="M176.91,172.07l5.09-7.13,10.75,7.13"></path><line class="b" x1="6.21" y1="4.66" transform="translate(173.91 161.95)"></line><path class="b" d="M200.52,172.07l5.1-7.13,10.75,7.13"></path><line class="b" x1="6.21" y1="4.66" transform="translate(197.53 161.95)"></line><path class="d" d="M319.24,108a8.28,8.28,0,0,0-6.46,3.11,11.23,11.23,0,0,0-11-9,10.529,10.529,0,0,0-2,.2,15.84,15.84,0,0,0-30.32,6.41v.13a8.3,8.3,0,1,0-3.72,15.71h53.53a8.3,8.3,0,0,0,0-16.6Z"></path><path class="d" d="M110.7,118.45a7.67,7.67,0,0,1,1.37.13,10.64,10.64,0,0,1,20.36,4.31v.09a5.57,5.57,0,1,1,2.5,10.54H110.7a7.54,7.54,0,0,1,0-15.07Z"></path><path class="b" d="M81.59,231.09c5.13,0,5.13,4,10.26,4s5.14-4,10.27-4,5.13,4,10.26,4,5.14-4,10.27-4,5.13,4,10.26,4,5.14-4,10.27-4,5.13,4,10.26,4,5.13-4,10.26-4,5.13,4,10.27,4,5.13-4,10.26-4,5.13,4,10.26,4,5.14-4,10.27-4,5.13,4,10.27,4,5.13-4,10.26-4,5.13,4,10.27,4,5.13-4,10.26-4,5.14,4,10.27,4,5.14-4,10.27-4,5.13,4,10.27,4,5.13-4,10.26-4,5.14,4,10.27,4,5.13-4,10.27-4,5.13,4,10.27,4,5.13-4,10.27-4,5.13,4,10.27,4,5.14-4,10.28-4"></path></g></svg>