<svg width="100%" height="100%" id="Layer_1" data-name="Layer 1" xmlns="http://www.w3.org/2000/svg" viewBox="0 0 431.5 289.49"><defs></defs><title>04_cities</title><polyline class="cls-2" points="131.09 197.24 131.09 165.78 114.42 165.78 114.42 197.24"></polyline><polyline class="cls-2" points="317.08 197.24 317.08 165.78 300.4 165.78 300.4 197.24"></polyline><rect class="cls-2" x="71.16" y="150.38" width="289.18" height="15.39"></rect><path class="cls-2" d="M122.76,65.69h0a4.37,4.37,0,0,1,4.37,4.37v80.32a0,0,0,0,1,0,0h-8.73a0,0,0,0,1,0,0V70.06A4.37,4.37,0,0,1,122.76,65.69Z"></path><path class="cls-2" d="M308.74,65.69h0a4.37,4.37,0,0,1,4.37,4.37v80.32a0,0,0,0,1,0,0h-8.73a0,0,0,0,1,0,0V70.06A4.37,4.37,0,0,1,308.74,65.69Z"></path><path class="cls-2" d="M71.16,207.9c5.56,0,5.56,4,11.12,4s5.56-4,11.12-4,5.56,4,11.12,4,5.56-4,11.12-4,5.56,4,11.12,4,5.56-4,11.12-4,5.56,4,11.12,4,5.56-4,11.12-4,5.56,4,11.12,4,5.56-4,11.12-4,5.56,4,11.12,4,5.56-4,11.12-4,5.56,4,11.12,4,5.56-4,11.12-4,5.56,4,11.12,4,5.57-4,11.13-4,5.56,4,11.12,4,5.56-4,11.12-4,5.57,4,11.13,4,5.56-4,11.12-4,5.56,4,11.12,4,5.56-4,11.13-4,5.56,4,11.12,4,5.57-4,11.13-4,5.56,4,11.13,4,5.57-4,11.13-4"></path><path class="cls-2" d="M71.16,221.8c5.56,0,5.56,4,11.12,4s5.56-4,11.12-4,5.56,4,11.12,4,5.56-4,11.12-4,5.56,4,11.12,4,5.56-4,11.12-4,5.56,4,11.12,4,5.56-4,11.12-4,5.56,4,11.12,4,5.56-4,11.12-4,5.56,4,11.12,4,5.56-4,11.12-4,5.56,4,11.12,4,5.56-4,11.12-4,5.56,4,11.12,4,5.57-4,11.13-4,5.56,4,11.12,4,5.56-4,11.12-4,5.57,4,11.13,4,5.56-4,11.12-4,5.56,4,11.12,4,5.56-4,11.13-4,5.56,4,11.12,4,5.57-4,11.13-4,5.56,4,11.13,4,5.57-4,11.13-4"></path><path class="cls-2" d="M304.37,73.28S273.53,121,250.11,124.52h0c-15.59,2.31-53.13,2.31-68.72,0h0C158,121,127.12,73.28,127.12,73.28"></path><path class="cls-2" d="M118.39,73.28s-25.09,44.27-47.2,55.37"></path><path class="cls-2" d="M313.11,73.28s25.11,44.31,47.23,55.39"></path><line class="cls-2" x1="285.94" y1="99.4" x2="285.94" y2="150.38"></line><line class="cls-2" x1="334.79" y1="105.84" x2="334.79" y2="150.38"></line><line class="cls-2" x1="96.71" y1="105.84" x2="96.71" y2="150.38"></line><line class="cls-2" x1="265.3" y1="117.98" x2="265.3" y2="150.38"></line><line class="cls-2" x1="244.66" y1="126.25" x2="244.66" y2="150.38"></line><line class="cls-2" x1="224.02" y1="126.25" x2="224.02" y2="150.38"></line><line class="cls-2" x1="207.48" y1="126.25" x2="207.48" y2="150.38"></line><line class="cls-2" x1="186.84" y1="126.25" x2="186.84" y2="150.38"></line><line class="cls-2" x1="166.2" y1="117.98" x2="166.2" y2="150.38"></line><line class="cls-2" x1="145.56" y1="99.4" x2="145.56" y2="150.38"></line></svg>