<svg xmlns="http://www.w3.org/2000/svg" width="245" height="182.391" viewBox="0 0 245 182.391"><defs></defs><g transform="translate(-78.27 -42.81)"><path class="b" d="M90.95,233.285V223.52H311.519v9.765" transform="translate(-1.242 -20.786)"></path><path class="c" d="M293.626,94.486a4.9,4.9,0,0,1,3.836,1.847,6.681,6.681,0,0,1,6.53-5.3,6.114,6.114,0,0,1,1.211.124,9.394,9.394,0,0,1,17.983,3.8v.08a4.92,4.92,0,1,1,2.209,9.314H293.582a4.922,4.922,0,0,1,0-9.844Z" transform="translate(-24.238 -4.74)"></path><path class="c" d="M150.832,113.691A6.186,6.186,0,0,0,146.016,116a8.351,8.351,0,0,0-8.183-6.663,8.7,8.7,0,0,0-1.529.141,11.788,11.788,0,0,0-22.569,4.772s0,.071,0,.106a6.186,6.186,0,1,0-2.775,11.691h39.872a6.186,6.186,0,0,0,0-12.372Z" transform="translate(-2.845 -6.705)"></path><path class="c" d="M290.915,142.509a6.955,6.955,0,0,0-1.219.115,9.394,9.394,0,0,0-17.983,3.8v.088a4.842,4.842,0,0,0-2.2-.53,4.922,4.922,0,1,0,0,9.844h21.4a6.663,6.663,0,0,0,0-13.317Z" transform="translate(-21.438 -10.726)"></path><line class="b" y1="9.305" transform="translate(142.128 192.024)"></line><line class="b" y1="5.877" transform="translate(239.767 195.453)"></line><line class="b" y1="5.877" transform="translate(123.809 195.453)"></line><line class="b" y1="17.391" transform="translate(254.843 183.938)"></line><line class="b" y1="8.696" transform="translate(280.7 192.634)"></line><line class="b" y1="5.877" transform="translate(300.963 195.453)"></line><path class="b" d="M119.811,222.269a9.8,9.8,0,0,0-19.591,0" transform="translate(-2.32 -19.535)"></path><path class="b" d="M175.855,222.692a6.062,6.062,0,1,0-12.115,0" transform="translate(-9.708 -19.957)"></path><path class="b" d="M300.834,222.722a6.062,6.062,0,0,0-12.124,0" transform="translate(-24.244 -19.988)"></path><path class="d" d="M80.27,242.68c4.631,0,4.631,3.535,9.261,3.535s4.639-3.535,9.27-3.535,4.639,3.535,9.27,3.535,4.631-3.535,9.27-3.535,4.631,3.535,9.27,3.535,4.631-3.535,9.27-3.535,4.631,3.535,9.261,3.535,4.631-3.535,9.27-3.535,4.631,3.535,9.261,3.535,4.631-3.535,9.27-3.535,4.631,3.535,9.261,3.535,4.639-3.535,9.27-3.535,4.639,3.535,9.27,3.535,4.639-3.535,9.27-3.535,4.639,3.535,9.27,3.535,4.639-3.535,9.27-3.535,4.639,3.535,9.27,3.535,4.639-3.535,9.27-3.535,4.639,3.535,9.27,3.535,4.639-3.535,9.27-3.535,4.631,3.535,9.27,3.535,4.631-3.535,9.27-3.535,4.639,3.535,9.27,3.535,4.639-3.535,9.279-3.535,4.639,3.535,9.27,3.535,4.639-3.535,9.279-3.535" transform="translate(0 -23.014)"></path><path class="d" d="M193.72,201.056V68.37h0c23.1,0,32.873,21.209,32.873,35.091" transform="translate(-13.195 -2.74)"></path><path class="d" d="M238.585,207.22H193.72V83.38c24.743,0,44.865,29.674,44.865,70.81Z" transform="translate(-13.195 -4.486)"></path><line class="d" y2="34.084" transform="translate(180.525 44.81)"></line><line class="d" x2="44.865" transform="translate(180.525 192.943)"></line><line class="d" x2="44.865" transform="translate(180.525 173.864)"></line><line class="d" x2="44.865" transform="translate(180.525 154.794)"></line><line class="d" x2="44.061" transform="translate(180.525 135.715)"></line><line class="d" x2="39.43" transform="translate(180.525 116.645)"></line><line class="d" x2="30.858" transform="translate(180.525 97.566)"></line><line class="d" y2="102.013" transform="translate(213.398 100.721)"></line><line class="d" y2="13.388" transform="translate(188.116 66.46)"></line><line class="d" y2="13.096" transform="translate(197.368 70.296)"></line><line class="d" y2="12.469" transform="translate(205.436 77.727)"></line></g></svg>