<svg width="100%" height="100%" id="Layer_1" data-name="Layer 1" xmlns="http://www.w3.org/2000/svg" viewBox="0 0 431.5 289.49"><defs></defs><title>04_cities</title><path class="cls-2" d="M96.45,134.35H335a0,0,0,0,1,0,0v69.3a3.5,3.5,0,0,1-3.5,3.5H100a3.5,3.5,0,0,1-3.5-3.5v-69.3A0,0,0,0,1,96.45,134.35Z"></path><path class="cls-2" d="M114.45,134.35h224.6a18.28,18.28,0,0,0-18.28-18.28H146.34"></path><path class="cls-2" d="M168.12,134.35H91.25a18.27,18.27,0,0,1,18.28-18.28h40.32a18.27,18.27,0,0,1,18.27,18.28Z"></path><line class="cls-2" x1="87.55" y1="229.3" x2="343.94" y2="229.3"></line><path class="cls-2" d="M322.72,207.15c0,8.23-4.23,14.9-9.45,14.9s-9.44-6.67-9.44-14.9"></path><path class="cls-2" d="M297.43,207.15c0,8.23-4.23,14.9-9.44,14.9s-9.45-6.67-9.45-14.9"></path><path class="cls-2" d="M206.19,207.15c0,8.23-4.23,14.9-9.44,14.9s-9.44-6.67-9.44-14.9"></path><path class="cls-2" d="M231.67,207.15c0,8.23-4.23,14.9-9.45,14.9s-9.44-6.67-9.44-14.9"></path><line class="cls-2" x1="173.54" y1="134.35" x2="173.54" y2="206.79"></line><polyline class="cls-2" points="244.41 134.35 244.41 207.15 270.76 207.15 270.76 134.35"></polyline><line class="cls-2" x1="173.54" y1="172.77" x2="96.45" y2="172.77"></line><line class="cls-2" x1="244.41" y1="172.77" x2="173.54" y2="172.77"></line><line class="cls-2" x1="335.05" y1="172.77" x2="270.76" y2="172.77"></line><circle class="cls-2" cx="133.95" cy="182.79" r="4.18"></circle><polygon class="cls-2" points="200.69 108.71 130.43 108.71 128.43 116.07 202.69 116.07 200.69 108.71"></polygon><polygon class="cls-2" points="310.21 108.71 261.89 108.71 259.89 116.07 312.21 116.07 310.21 108.71"></polygon><line class="cls-2" x1="148.52" y1="108.71" x2="179.68" y2="84.55"></line><line class="cls-2" x1="164.1" y1="108.71" x2="195.26" y2="84.55"></line><rect class="cls-2" x="172.6" y="78.01" width="27.25" height="6.37"></rect><line class="cls-2" x1="189.5" y1="78.01" x2="189.5" y2="84.38"></line><line class="cls-2" x1="166.66" y1="81.19" x2="119.11" y2="81.19"></line><line class="cls-2" x1="302.8" y1="81.19" x2="205.69" y2="81.19"></line><line class="cls-2" x1="99.96" y1="207.15" x2="99.96" y2="223.15"></line><line class="cls-2" x1="168.54" y1="207.15" x2="168.54" y2="223.15"></line><line class="cls-2" x1="96.45" y1="213.81" x2="173.54" y2="213.81"></line><line class="cls-2" x1="96.45" y1="220.79" x2="173.54" y2="220.79"></line><line class="cls-2" x1="208.98" y1="135.69" x2="208.98" y2="172.77"></line><line class="cls-2" x1="302.9" y1="135.69" x2="302.9" y2="172.77"></line></svg>