<svg xmlns="http://www.w3.org/2000/svg" width="278.46" height="165.971" viewBox="0 0 278.46 165.971"><defs></defs><g transform="translate(-76.52 -61.76)"><rect class="b" width="249.18" height="77.62" transform="translate(91.16 133.03)"></rect><rect class="b" width="49.94" height="129.59" transform="translate(200.42 81.06)"></rect><line class="b" y1="17.3" transform="translate(200.42 63.76)"></line><line class="b" y1="17.3" transform="translate(250.36 63.76)"></line><line class="b" y1="12.36" transform="translate(340.34 120.67)"></line><line class="b" y1="12.36" transform="translate(91.16 120.67)"></line><path class="b" d="M220.13,99.74l-4.75-4.46-4.75,4.46v19.27h9.5Z"></path><path class="b" d="M240.15,99.74l-4.75-4.46-4.74,4.46v19.27h9.49Z"></path><rect class="b" width="9.42" height="3.86" transform="translate(230.69 77.21)"></rect><rect class="b" width="9.42" height="3.86" transform="translate(211.04 77.21)"></rect><line class="b" y2="27.81" transform="translate(225.39 142.18)"></line><line class="b" y2="19.65" transform="translate(215.38 150.34)"></line><line class="b" y2="19.65" transform="translate(235.4 150.34)"></line><path class="b" d="M231.12,186.74h0a7.87,7.87,0,0,0-11.46,0h0a7.88,7.88,0,0,0-2.15,5.41v18.51h15.76V192.15a7.88,7.88,0,0,0-2.15-5.41Z"></path><path class="b" d="M191,198.12h0a5.27,5.27,0,0,0-7.66,0h0a5.28,5.28,0,0,0-1.43,3.62v8.92h10.53v-8.92a5.29,5.29,0,0,0-1.44-3.62Z"></path><path class="b" d="M107.52,198.12h0a5.27,5.27,0,0,0-7.66,0h0a5.29,5.29,0,0,0-1.44,3.62v8.92H109v-8.92a5.29,5.29,0,0,0-1.48-3.62Z"></path><path class="b" d="M272.53,198.12h0a5.27,5.27,0,0,0-7.66,0h0a5.29,5.29,0,0,0-1.44,3.62v8.92H274v-8.92a5.29,5.29,0,0,0-1.47-3.62Z"></path><path class="b" d="M329.26,198.12h0a5.26,5.26,0,0,0-7.65,0h0a5.24,5.24,0,0,0-1.44,3.62v8.92H330.7v-8.92a5.24,5.24,0,0,0-1.44-3.62Z"></path><rect class="b" width="10.38" height="13.72" transform="translate(121.19 177.41)"></rect><rect class="b" width="10.38" height="13.72" transform="translate(140.22 177.41)"></rect><rect class="b" width="10.38" height="13.72" transform="translate(159.24 177.41)"></rect><path class="b" d="M108.64,142.49l-5.11,5.41-5.11-5.41v-9.46h10.22Z"></path><path class="b" d="M125.61,142.49l-5.11,5.41-5.1-5.41v-9.46h10.21Z"></path><path class="b" d="M142.58,142.49l-5.1,5.41-5.11-5.41v-9.46h10.21Z"></path><path class="b" d="M159.56,142.49l-5.11,5.41-5.11-5.41v-9.46h10.22Z"></path><path class="b" d="M176.53,142.49l-5.11,5.41-5.11-5.41v-9.46h10.22Z"></path><path class="b" d="M193.5,142.49l-5.11,5.41-5.1-5.41v-9.46H193.5Z"></path><path class="b" d="M266.74,142.49l-5.11,5.41-5.11-5.41v-9.46h10.22Z"></path><path class="b" d="M283.71,142.49l-5.11,5.41-5.1-5.41v-9.46h10.21Z"></path><path class="b" d="M300.68,142.49l-5.11,5.41-5.1-5.41v-9.46h10.21Z"></path><path class="b" d="M317.65,142.49l-5.1,5.41-5.11-5.41v-9.46h10.21Z"></path><path class="b" d="M334.63,142.49l-5.11,5.41-5.11-5.41v-9.46h10.22Z"></path><rect class="b" width="274.46" height="15.07" transform="translate(78.52 210.66)"></rect><line class="c" x2="10.39" transform="translate(121.19 198.36)"></line><line class="c" x2="10.38" transform="translate(140.22 198.36)"></line><line class="c" x2="10.38" transform="translate(159.24 198.36)"></line></g></svg>