<svg xmlns="http://www.w3.org/2000/svg" width="253.61" height="195.486" viewBox="0 0 253.61 195.486"><defs></defs><g transform="translate(-88.95 -42.714)"><rect class="b" width="249.61" height="13.05" transform="translate(90.95 223.15)"></rect><line class="c" x2="30.72" transform="translate(211.5 150.48)"></line><line class="c" x2="30.99" transform="translate(213.63 168.18)"></line><line class="c" x2="22.59" transform="translate(227.26 203.59)"></line><path class="d" d="M294.28,95.29a5.55,5.55,0,0,1,4.34,2.09,7.56,7.56,0,0,1,7.39-6,6.921,6.921,0,0,1,1.37.14,10.63,10.63,0,0,1,20.35,4.3v.09a5.567,5.567,0,1,1,2.5,10.54h-36a5.57,5.57,0,1,1,0-11.14Z"></path><path class="d" d="M156.9,114.8a7,7,0,0,0-5.45,2.61,9.45,9.45,0,0,0-9.26-7.54,9.851,9.851,0,0,0-1.73.16,13.34,13.34,0,0,0-25.54,5.4s0,.08,0,.12a7,7,0,1,0-3.14,13.23H156.9a7,7,0,1,0,0-14Z"></path><path class="d" d="M294.38,142.86A7.873,7.873,0,0,0,293,143a10.63,10.63,0,0,0-20.35,4.3v.1a5.48,5.48,0,0,0-2.49-.6,5.57,5.57,0,1,0,0,11.14h24.22a7.54,7.54,0,0,0,0-15.07Z"></path><path class="c" d="M185.56,212.68l-2.02,10.47h65.42L216.25,53.29l-16.13,83.75"></path><line class="c" x2="30.09" transform="translate(218.64 185.88)"></line><path class="d" d="M216.11,213.71a109.41,109.41,0,0,1,25,9.44s-40.87-44.65-26.59-94.38c0,0-13.36,4.28-26.17,19.66"></path><path class="d" d="M165.28,223.15s7.61-7.77,22.8-10.53"></path><path class="d" d="M158.13,223.15s22.44-23.71,67.67,0c0,0-48.24-40.14-35.63-84.06C190.17,139.09,151.64,170,158.13,223.15Z"></path><line class="b" y1="10.53" transform="translate(277.03 211.03)"></line><line class="b" y1="6.65" transform="translate(146.54 214.91)"></line><line class="b" y1="6.65" transform="translate(297.76 214.91)"></line><line class="b" y1="10.53" transform="translate(129.48 211.03)"></line><line class="b" y1="6.65" transform="translate(100.22 214.91)"></line><path class="b" d="M304.91,223.15a11.09,11.09,0,1,1,22.17,0"></path><path class="b" d="M249.85,223.15a6.86,6.86,0,1,1,13.71,0"></path><path class="b" d="M110.58,223.15a6.86,6.86,0,0,1,13.72,0"></path></g></svg>