<svg width="100%" height="100%" id="Layer_1" data-name="Layer 1" xmlns="http://www.w3.org/2000/svg" viewBox="0 0 431.5 289.49"><defs></defs><title>04_cities</title><path class="cls-2" d="M144.27,147.28a48.34,48.34,0,0,0-31.05-10.8l15.29,36.88"></path><path class="cls-2" d="M182.09,126.19c-13.92-11.23-32.79-18.12-53.58-18.12l25.89,65.29"></path><path class="cls-2" d="M227.61,173.36C227.61,132.62,264,99.6,309,99.6l-19.5,73.76"></path><path class="cls-2" d="M251.5,121.15c-17.95-26.19-49.34-43.5-86.39-43.5l33.47,95.71"></path><polyline class="cls-2" points="113.22 188.16 113.22 173.37 304.09 173.37 318.89 188.16"></polyline><line class="cls-2" x1="100.25" y1="188.16" x2="331.25" y2="188.16"></line><path class="cls-2" d="M100.25,200.36c4.44,0,4.44,4,8.88,4s4.44-4,8.88-4,4.44,4,8.88,4,4.44-4,8.89-4,4.44,4,8.87,4,4.45-4,8.89-4,4.44,4,8.88,4,4.44-4,8.88-4,4.44,4,8.88,4,4.44-4,8.89-4,4.44,4,8.88,4,4.44-4,8.88-4,4.45,4,8.89,4,4.44-4,8.88-4,4.45,4,8.89,4,4.44-4,8.88-4,4.45,4,8.89,4,4.44-4,8.89-4,4.44,4,8.88,4,4.44-4,8.89-4,4.44,4,8.88,4,4.44-4,8.89-4,4.44,4,8.89,4,4.44-4,8.89-4,4.44,4,8.89,4,4.45-4,8.89-4"></path><path class="cls-2" d="M100.25,213.67c4.44,0,4.44,4,8.88,4s4.44-4,8.88-4,4.44,4,8.88,4,4.44-4,8.89-4,4.44,4,8.87,4,4.45-4,8.89-4,4.44,4,8.88,4,4.44-4,8.88-4,4.44,4,8.88,4,4.44-4,8.89-4,4.44,4,8.88,4,4.44-4,8.88-4,4.45,4,8.89,4,4.44-4,8.88-4,4.45,4,8.89,4,4.44-4,8.88-4,4.45,4,8.89,4,4.44-4,8.89-4,4.44,4,8.88,4,4.44-4,8.89-4,4.44,4,8.88,4,4.44-4,8.89-4,4.44,4,8.89,4,4.44-4,8.89-4,4.44,4,8.89,4,4.45-4,8.89-4"></path><line class="cls-2" x1="248.22" y1="173.36" x2="263.02" y2="188.16"></line></svg>