<svg xmlns="http://www.w3.org/2000/svg" viewBox="0 0 70 70"><defs><style>.cls-1{fill:#6dde94;}</style></defs><title>02_Icons_sub_category_v1</title><g id="Layer_47" data-name="Layer 47"><path class="cls-1" d="M58.43,63.29H11.57A3.55,3.55,0,0,1,8,59.74v-41a3.55,3.55,0,0,1,3.55-3.54H58.43A3.55,3.55,0,0,1,62,18.72v41A3.55,3.55,0,0,1,58.43,63.29ZM11.57,17.18A1.54,1.54,0,0,0,10,18.72v41a1.55,1.55,0,0,0,1.55,1.55H58.43A1.55,1.55,0,0,0,60,59.74v-41a1.54,1.54,0,0,0-1.55-1.54Z"/><path class="cls-1" d="M52,56.88H18a2.38,2.38,0,0,1-2.37-2.38V33.73A2.38,2.38,0,0,1,18,31.35H52a2.38,2.38,0,0,1,2.37,2.38V54.5A2.38,2.38,0,0,1,52,56.88ZM18,33.35a.38.38,0,0,0-.37.38V54.5a.38.38,0,0,0,.37.38H52a.38.38,0,0,0,.37-.38V33.73a.38.38,0,0,0-.37-.38Z"/><path class="cls-1" d="M19,27.86a3.34,3.34,0,1,1,3.34-3.34A3.35,3.35,0,0,1,19,27.86Zm0-4.68a1.34,1.34,0,1,0,1.34,1.34A1.34,1.34,0,0,0,19,23.18Z"/><path class="cls-1" d="M29.66,27.86A3.34,3.34,0,1,1,33,24.52,3.35,3.35,0,0,1,29.66,27.86Zm0-4.68A1.34,1.34,0,1,0,31,24.52,1.34,1.34,0,0,0,29.66,23.18Z"/><path class="cls-1" d="M40.34,27.86a3.34,3.34,0,1,1,3.34-3.34A3.35,3.35,0,0,1,40.34,27.86Zm0-4.68a1.34,1.34,0,1,0,1.34,1.34A1.34,1.34,0,0,0,40.34,23.18Z"/><path class="cls-1" d="M51,27.86a3.34,3.34,0,1,1,3.34-3.34A3.35,3.35,0,0,1,51,27.86Zm0-4.68a1.34,1.34,0,1,0,1.34,1.34A1.34,1.34,0,0,0,51,23.18Z"/><path class="cls-1" d="M23.41,45.11a1,1,0,0,1-.71-.29,1,1,0,0,1,0-1.41l6.74-6.74a1,1,0,1,1,1.41,1.41l-6.73,6.74A1,1,0,0,1,23.41,45.11Z"/><path class="cls-1" d="M24.85,52.59a1,1,0,0,1-.71-.29,1,1,0,0,1,0-1.42L39.5,35.52a1,1,0,0,1,1.42,0,1,1,0,0,1,0,1.41L25.56,52.3A1,1,0,0,1,24.85,52.59Z"/><path class="cls-1" d="M42.68,50.14a1,1,0,0,1-.71-.29,1,1,0,0,1,0-1.42l3.79-3.78a1,1,0,0,1,1.41,1.41l-3.78,3.79A1,1,0,0,1,42.68,50.14Z"/><path class="cls-1" d="M27.46,17.18H21.93a4.4,4.4,0,0,1-4.39-4.39,1,1,0,0,1,2,0,2.4,2.4,0,0,0,2.39,2.39h5.53a2.39,2.39,0,0,0,2.38-2.39,1,1,0,1,1,2,0A4.39,4.39,0,0,1,27.46,17.18Z"/><path class="cls-1" d="M24.69,17.18a1,1,0,0,1-1-1V12.79a1,1,0,0,1,2,0v3.39A1,1,0,0,1,24.69,17.18Z"/><path class="cls-1" d="M48.07,17.18H42.54a4.39,4.39,0,0,1-4.38-4.39,1,1,0,0,1,2,0,2.39,2.39,0,0,0,2.38,2.39h5.53a2.4,2.4,0,0,0,2.39-2.39,1,1,0,0,1,2,0A4.4,4.4,0,0,1,48.07,17.18Z"/><path class="cls-1" d="M45.31,17.18a1,1,0,0,1-1-1V12.79a1,1,0,0,1,2,0v3.39A1,1,0,0,1,45.31,17.18Z"/></g></svg>