<svg xmlns="http://www.w3.org/2000/svg" viewBox="0 0 70 70"><defs><style>.cls-1{fill:#6dde94;}</style></defs><title>02_Icons_sub_category_v1</title><g id="Layer_64" data-name="Layer 64"><path class="cls-1" d="M35,33.21A12.29,12.29,0,1,1,47.29,20.92,12.3,12.3,0,0,1,35,33.21Zm0-22.58A10.29,10.29,0,1,0,45.29,20.92,10.31,10.31,0,0,0,35,10.63Z"/><path class="cls-1" d="M59.05,59.24a1,1,0,0,1-1-.81c-1.46-7.8-8.27-16.86-18.48-19.08a1,1,0,1,1,.43-2c11.05,2.4,18.44,12.21,20,20.66a1,1,0,0,1-.8,1.17Z"/><path class="cls-1" d="M30.06,39.41a1,1,0,0,1-.22-2A23.57,23.57,0,0,1,40,37.4a1,1,0,0,1-.43,2,21.77,21.77,0,0,0-9.3,0A.83.83,0,0,1,30.06,39.41Z"/><path class="cls-1" d="M11,59.24h-.18a1,1,0,0,1-.8-1.17c1.57-8.39,8.9-18.17,19.87-20.63a1,1,0,1,1,.44,2c-10.13,2.27-16.89,11.3-18.34,19A1,1,0,0,1,11,59.24Z"/><path class="cls-1" d="M35,62.21a1,1,0,0,1-.75-.34l-4.46-5a1,1,0,0,1-.24-.85L31.94,43.6,29.64,39a1,1,0,1,1,1.79-.89L33.88,43a1,1,0,0,1,.08.63L31.61,55.9,35,59.7l3.39-3.8L36,43.64a1,1,0,0,1,.08-.63l2.45-4.9a1,1,0,1,1,1.79.89l-2.3,4.6L40.45,56a1,1,0,0,1-.24.85l-4.46,5A1,1,0,0,1,35,62.21Z"/></g></svg>