<svg xmlns="http://www.w3.org/2000/svg" viewBox="0 0 70 70"><defs><style>.cls-1{fill:#6dde94;}</style></defs><title>02_Icons_sub_category_v1</title><g id="Layer_119" data-name="Layer 119"><path class="cls-1" d="M62.65,16.14H7.35A1.17,1.17,0,0,1,6.17,15V10.45A1.18,1.18,0,0,1,7.35,9.27h55.3a1.18,1.18,0,0,1,1.18,1.18V15A1.17,1.17,0,0,1,62.65,16.14ZM8,14.3H62V11.11H8Z"/><path class="cls-1" d="M61.5,52.1a1.34,1.34,0,0,1-1.33,1.33H50.83a.92.92,0,0,1-.92-.92h0a.92.92,0,0,1,.92-.92h8.83V16.14H10.34V51.59h9.07a.92.92,0,0,1,.92.92h0a.92.92,0,0,1-.92.92H9.83A1.34,1.34,0,0,1,8.5,52.1V14.3h53Z"/><path class="cls-1" d="M35.06,34.67a6.63,6.63,0,1,1,6.62-6.62A6.6,6.6,0,0,1,35.06,34.67Zm0-11.41a4.79,4.79,0,1,0,4.79,4.79A4.79,4.79,0,0,0,35.06,23.26Z"/><path class="cls-1" d="M41.64,41.47c-.74-2.09-3.42-3.56-6.5-3.56s-5.64,1.35-6.5,3.31l-1.72-.73c1.11-2.7,3.88-4.42,8.22-4.42s7.24,2,8.22,4.78Z"/><polygon class="cls-1" points="47.77 60.73 22.35 60.73 22.35 45.27 24.19 45.27 24.19 58.88 45.93 58.88 45.93 45.27 47.77 45.27 47.77 60.73"/><path class="cls-1" d="M49.49,46.13H20.64V40.24H49.49Zm-27-1.84H47.65V42.08H22.48Z"/></g></svg>