<svg xmlns="http://www.w3.org/2000/svg" viewBox="0 0 70 70"><defs><style>.cls-1{fill:#6add92;}</style></defs><title>02_Icons_sub_category_v1</title><g id="Layer_140" data-name="Layer 140"><path class="cls-1" d="M58.4,57.52H55.9a1,1,0,0,1,0-2h1.5V41.22a1.37,1.37,0,0,0-1.4-1.4H18a1.37,1.37,0,0,0-1.4,1.4v14.3H37.3a1,1,0,0,1,0,2H15.6a.94.94,0,0,1-1-1V41.22a3.37,3.37,0,0,1,3.4-3.4H56a3.37,3.37,0,0,1,3.4,3.4v15.3A1,1,0,0,1,58.4,57.52Z"/><path class="cls-1" d="M54.9,24.82H17.2a1,1,0,0,1-.9-.6,1.13,1.13,0,0,1,.3-1.1L35.5,7.32a1.05,1.05,0,0,1,1.3,0l18.9,15.8a1.13,1.13,0,0,1,.3,1.1A1.38,1.38,0,0,1,54.9,24.82Zm-35.1-2H52.3L36.1,9.32Z"/><path class="cls-1" d="M42.3,24.82H29.7a1.23,1.23,0,0,1-.8-.4,1,1,0,0,1-.1-.9l6.3-15.8a1.05,1.05,0,0,1,1.9,0l6.3,15.8a.94.94,0,0,1-.1.9A1,1,0,0,1,42.3,24.82Zm-11.1-2h9.6L36,10.72Z"/><path class="cls-1" d="M36,39.82a.94.94,0,0,1-1-1v-11a1,1,0,0,1,2,0v11A1,1,0,0,1,36,39.82Z"/><path class="cls-1" d="M46.6,62.72a6.3,6.3,0,1,1,6.3-6.3A6.27,6.27,0,0,1,46.6,62.72Zm0-10.5a4.3,4.3,0,1,0,4.3,4.3A4.27,4.27,0,0,0,46.6,52.22Z"/><path class="cls-1" d="M15.3,43.42H11.7a1,1,0,0,1,0-2h3.6a.94.94,0,0,1,1,1A1,1,0,0,1,15.3,43.42Z"/><path class="cls-1" d="M11.6,44.82a.94.94,0,0,1-1-1v-2.7a1,1,0,0,1,2,0v2.7A1,1,0,0,1,11.6,44.82Z"/><rect class="cls-1" x="18.8" y="42.22" width="14.2" height="2" rx="1"/><rect class="cls-1" x="18.8" y="45.92" width="11.1" height="2" rx="1"/><path class="cls-1" d="M18.6,62.9a.94.94,0,0,1-1-1V56.6a1,1,0,0,1,2,0v5.3A.94.94,0,0,1,18.6,62.9Z"/></g></svg>