<svg xmlns="http://www.w3.org/2000/svg" viewBox="0 0 70 70"><defs><style>.cls-1{fill:#6dde94;}</style></defs><title>02_Icons_sub_category_v1</title><g id="Layer_122" data-name="Layer 122"><path class="cls-1" d="M58,48.75H12A2.25,2.25,0,0,1,9.75,46.5V15.4A2.25,2.25,0,0,1,12,13.15H58a2.25,2.25,0,0,1,2.25,2.25V46.5A2.25,2.25,0,0,1,58,48.75Zm-45.1-2H57.1a1.14,1.14,0,0,0,1.15-1.15V16.3a1.14,1.14,0,0,0-1.15-1.15H12.9a1.14,1.14,0,0,0-1.15,1.15V45.6A1.14,1.14,0,0,0,12.9,46.75Z"/><path class="cls-1" d="M45.55,56.85H24.45l3.4-5v-5.1h14.3v5.1Zm-17.3-2h13.6l-1.6-2.4v-3.7H30v3.7Z"/><rect class="cls-1" x="10.75" y="40.45" width="48.5" height="2"/></g></svg>