<svg xmlns="http://www.w3.org/2000/svg" viewBox="0 0 70 70"><defs><style>.cls-1{fill:#6add92;}.cls-2{fill:#6dde94;}</style></defs><title>02_Icons_sub_category_v1</title><g id="Layer_119" data-name="Layer 119"><path class="cls-1" d="M56,50.76H14A5.6,5.6,0,0,1,8.37,45.1v-28A5.6,5.6,0,0,1,14,11.47H56a5.67,5.67,0,0,1,5.66,5.66v28A5.67,5.67,0,0,1,56,50.76ZM14,13.47a3.58,3.58,0,0,0-3.66,3.66v28A3.58,3.58,0,0,0,14,48.76H56a3.66,3.66,0,0,0,3.66-3.66v-28A3.67,3.67,0,0,0,56,13.47Z"/><path class="cls-1" d="M43.13,58.53H26.87A1,1,0,0,1,26,58a1,1,0,0,1,.12-1.06L29,53.29V49.76a1,1,0,0,1,1-1H40a1,1,0,0,1,1,1v3.53l2.89,3.61A1,1,0,0,1,44,58,1,1,0,0,1,43.13,58.53ZM29,56.53H41l-1.8-2.26a1,1,0,0,1-.22-.63V50.76H31v2.88a1,1,0,0,1-.22.63Z"/></g><g id="Layer_64" data-name="Layer 64"><path class="cls-2" d="M35,31.3a7.12,7.12,0,1,1,7.11-7.12A7.12,7.12,0,0,1,35,31.3Zm0-12.23a5.12,5.12,0,1,0,5.11,5.11A5.11,5.11,0,0,0,35,19.07Z"/><path class="cls-2" d="M48,46.65a1,1,0,0,1-1-.82c-.92-4.91-5.79-10.22-12-10.22S23.88,40.92,23,45.83a1,1,0,0,1-2-.36c1.09-5.83,6.63-11.86,14-11.86s12.92,6,14,11.86a1,1,0,0,1-.8,1.16Z"/></g></svg>