<svg xmlns="http://www.w3.org/2000/svg" viewBox="0 0 70 70"><defs><style>.cls-1{fill:#6add92;}</style></defs><title>02_Icons_sub_category_v1</title><g id="Layer_13" data-name="Layer 13"><path class="cls-1" d="M39.38,32.11a9.85,9.85,0,0,0-.78-1.19,2.53,2.53,0,0,1-.69-1.8V24.18a.87.87,0,0,0,.62-.84V19.65a.9.9,0,0,0-.9-.9H32.48a.9.9,0,0,0-.9.9v3.69a.88.88,0,0,0,.63.84v4.94a2.54,2.54,0,0,1-.7,1.8,11.22,11.22,0,0,0-.78,1.19l-.13.23a10.6,10.6,0,0,0-1.35,5.16V55.94a.9.9,0,0,0,.9.9H40a.9.9,0,0,0,.9-.9V37.5a10.49,10.49,0,0,0-1.35-5.16Zm-6-11.56h3.35v1.89H33.38ZM31.05,41.08h4.61v9.34H31.05Zm8,14h-8V52.22h5.51a.91.91,0,0,0,.9-.9V40.18a.91.91,0,0,0-.9-.9H31.05V37.5a8.79,8.79,0,0,1,1.12-4.28L32.3,33A10.45,10.45,0,0,1,33,32a4.2,4.2,0,0,0,1-2.86V24.24H36.1v4.88a4.25,4.25,0,0,0,1,2.87,8.49,8.49,0,0,1,.66,1l.13.24a8.66,8.66,0,0,1,1.12,4.28Z"/><path class="cls-1" d="M56.2,29.91l-.13-.23a11.13,11.13,0,0,0-.79-1.19,2.52,2.52,0,0,1-.69-1.79V21.75a.88.88,0,0,0,.62-.84V17.23a.9.9,0,0,0-.9-.9H49.17a.9.9,0,0,0-.9.9v3.68a.88.88,0,0,0,.62.84V26.7a2.52,2.52,0,0,1-.69,1.79,11.13,11.13,0,0,0-.79,1.19l-.13.23a10.6,10.6,0,0,0-1.35,5.16V55.94a.9.9,0,0,0,.9.9h9.82a.9.9,0,0,0,.9-.9V35.07A10.6,10.6,0,0,0,56.2,29.91ZM50.07,18.13h3.34V20H50.07ZM48.85,30.79l.13-.23a9.1,9.1,0,0,1,.67-1,4.24,4.24,0,0,0,1-2.86V21.81h2.1V26.7a4.24,4.24,0,0,0,1,2.86,9.1,9.1,0,0,1,.67,1l.13.23a8.82,8.82,0,0,1,1.12,4.28v1.08h-8V35.07A8.82,8.82,0,0,1,48.85,30.79Zm6.9,15.73h-8V38h8Zm-8,8.52V48.32h8V55Z"/><path class="cls-1" d="M22.59,27.68a11.13,11.13,0,0,0-.79-1.19,2.52,2.52,0,0,1-.69-1.79V18.58a.88.88,0,0,0,.62-.84V14.06a.9.9,0,0,0-.9-.9H15.69a.9.9,0,0,0-.9.9v3.68a.88.88,0,0,0,.62.84V24.7a2.52,2.52,0,0,1-.69,1.79,11.13,11.13,0,0,0-.79,1.19l-.13.23a10.6,10.6,0,0,0-1.35,5.16V55.94a.9.9,0,0,0,.9.9h9.82a.9.9,0,0,0,.9-.9V33.07a10.6,10.6,0,0,0-1.35-5.16ZM16.59,15h3.34v1.88H16.59ZM15.37,28.79l.13-.23a9.1,9.1,0,0,1,.67-1,4.24,4.24,0,0,0,1-2.86V18.64h2.1V24.7a4.29,4.29,0,0,0,1,2.86,9.1,9.1,0,0,1,.67,1l.13.23a8.82,8.82,0,0,1,1.12,4.28V35h-8V33.07A8.82,8.82,0,0,1,15.37,28.79Zm6.9,20.46h-8V36.79h8Zm-8,5.79v-4h8v4Z"/></g></svg>