<svg xmlns="http://www.w3.org/2000/svg" viewBox="0 0 70 70"><defs><style>.cls-1{fill:#6add92;}.cls-2{fill:#6dde94;}</style></defs><title>02_Icons_sub_category_v1</title><g id="Layer_5" data-name="Layer 5"><path class="cls-1" d="M24.71,48.16a3,3,0,1,1,3-3A3,3,0,0,1,24.71,48.16Zm0-4.19a1.2,1.2,0,1,0,0,2.39,1.15,1.15,0,0,0,1.19-1.19A1.21,1.21,0,0,0,24.71,44Z"/><path class="cls-1" d="M45.29,48.16a3,3,0,1,1,3-3A3,3,0,0,1,45.29,48.16Zm0-4.19a1.2,1.2,0,0,0,0,2.39,1.16,1.16,0,0,0,1.2-1.19A1.22,1.22,0,0,0,45.29,44Z"/><path class="cls-1" d="M50,53H20c-1,0-1.77.2-1.77-.77V39.16a1.77,1.77,0,0,1,1.12-1.65l.72-.28,2.42-9.61a2.08,2.08,0,0,1,2-1.68H45.42a2.06,2.06,0,0,1,2,1.67l2.48,9.62.71.28a1.75,1.75,0,0,1,1.13,1.65V51.21A1.77,1.77,0,0,1,50,53ZM24.53,27.74a.28.28,0,0,0-.26.21h0L21.75,38.06a.88.88,0,0,1-.55.67L20,39.19l0,12,30,0,0-12-1.16-.43a.88.88,0,0,1-.55-.67L45.68,28a.28.28,0,0,0-.26-.21Zm-1.14.05h0Z"/><path class="cls-1" d="M38.87,46.07H31.13a.9.9,0,0,1,0-1.8h7.74a.9.9,0,0,1,0,1.8Z"/><path class="cls-1" d="M26.9,57.6H22.26a1.43,1.43,0,0,1-1.42-1.43V52.08a.9.9,0,0,1,.9-.9h5.68a.9.9,0,0,1,.9.9v4.09A1.42,1.42,0,0,1,26.9,57.6Zm-4.26-1.8h3.88V53H22.64Z"/><path class="cls-1" d="M47.74,57.6H43.1a1.43,1.43,0,0,1-1.43-1.43V52.08a.9.9,0,0,1,.91-.9h5.68a.9.9,0,0,1,.9.9v4.09A1.43,1.43,0,0,1,47.74,57.6Zm-4.26-1.8h3.88V53H43.48Z"/><path class="cls-1" d="M49.13,38.79H20.87a.9.9,0,1,1,0-1.8H49.13a.9.9,0,0,1,0,1.8Z"/><path class="cls-2" d="M61,58.6a1,1,0,0,1-1-1V15.08a1.69,1.69,0,0,0-1.68-1.68H11.73a1.69,1.69,0,0,0-1.68,1.68V57.6a1,1,0,0,1-2,0V15.08a3.68,3.68,0,0,1,3.68-3.68H58.27A3.68,3.68,0,0,1,62,15.08V57.6A1,1,0,0,1,61,58.6Z"/></g></svg>