<svg xmlns="http://www.w3.org/2000/svg" viewBox="0 0 70 70"><defs><style>.cls-1{fill:#6dde94;}</style></defs><title>02_Icons_sub_category_v1</title><g id="Layer_13" data-name="Layer 13"><path class="cls-1" d="M50,49.1H20a1,1,0,0,1-.93-1.37L28.43,24.3a1,1,0,0,1,.93-.63H40.64a1,1,0,0,1,.93.63L51,47.73A1,1,0,0,1,50,49.1Zm-28.56-2H48.54L40,25.67H30Z"/><path class="cls-1" d="M50,59.38a1,1,0,0,1-1-1V48.1a1,1,0,0,1,2,0V58.38A1,1,0,0,1,50,59.38Z"/><path class="cls-1" d="M20,59.38a1,1,0,0,1-1-1V48.1a1,1,0,0,1,2,0V58.38A1,1,0,0,1,20,59.38Z"/><path class="cls-1" d="M44.25,34.46a1,1,0,0,1-1-1v-18a1,1,0,0,1,2,0v18A1,1,0,0,1,44.25,34.46Z"/><path class="cls-1" d="M25.75,34.46a1,1,0,0,1-1-1v-18a1,1,0,0,1,2,0v18A1,1,0,0,1,25.75,34.46Z"/><path class="cls-1" d="M51.14,18.05H18.86a1,1,0,0,1,0-2H51.14a1,1,0,0,1,0,2Z"/><path class="cls-1" d="M51.14,23.47a1,1,0,0,1-1-1V11.62a1,1,0,1,1,2,0V22.47A1,1,0,0,1,51.14,23.47Z"/><path class="cls-1" d="M54.75,22a1,1,0,0,1-1-1V13.14a1,1,0,0,1,2,0V21A1,1,0,0,1,54.75,22Z"/><path class="cls-1" d="M58.35,19.61a1,1,0,0,1-1-1V15.48a1,1,0,1,1,2,0v3.13A1,1,0,0,1,58.35,19.61Z"/><path class="cls-1" d="M18.86,23.47a1,1,0,0,1-1-1V11.62a1,1,0,1,1,2,0V22.47A1,1,0,0,1,18.86,23.47Z"/><path class="cls-1" d="M15.25,22a1,1,0,0,1-1-1V13.14a1,1,0,0,1,2,0V21A1,1,0,0,1,15.25,22Z"/><path class="cls-1" d="M11.65,19.61a1,1,0,0,1-1-1V15.48a1,1,0,0,1,2,0v3.13A1,1,0,0,1,11.65,19.61Z"/><path class="cls-1" d="M50,54.21H20a1,1,0,0,1-1-1V48.1a1,1,0,0,1,1-1H50a1,1,0,0,1,1,1v5.11A1,1,0,0,1,50,54.21Zm-29-2H49V49.1H21Z"/></g></svg>