<svg xmlns="http://www.w3.org/2000/svg" viewBox="0 0 70 70"><defs><style>.cls-1{fill:#6add92;}.cls-2{fill:#6dde94;}</style></defs><title>02_Icons_sub_category_v1</title><g id="Layer_4" data-name="Layer 4"><path class="cls-1" d="M60,54.78H30.18a.91.91,0,0,1,0-1.81H59.11V18.89H10.89V53h2a.91.91,0,0,1,0,1.81H10a.9.9,0,0,1-.9-.9V18a.9.9,0,0,1,.9-.9H60a.9.9,0,0,1,.9.9V53.88A.9.9,0,0,1,60,54.78Z"/><path class="cls-1" d="M21.53,60.42a6.55,6.55,0,1,1,6.55-6.54A6.56,6.56,0,0,1,21.53,60.42Zm0-11.29a4.75,4.75,0,1,0,4.75,4.75A4.75,4.75,0,0,0,21.53,49.13Z"/><path class="cls-1" d="M56.81,60.42a.91.91,0,0,1-.9-.9V53.88a.9.9,0,1,1,1.8,0v5.64A.9.9,0,0,1,56.81,60.42Z"/><path class="cls-1" d="M54.39,36.18H37.6a.9.9,0,0,1-.9-.9V22.06a.9.9,0,0,1,.9-.9H54.39a.9.9,0,0,1,.9.9V35.28A.9.9,0,0,1,54.39,36.18ZM38.5,34.38h15V23h-15Z"/><path class="cls-1" d="M31.66,36.18H14.87a.9.9,0,0,1-.9-.9V22.06a.9.9,0,0,1,.9-.9H31.66a.9.9,0,0,1,.9.9V35.28A.9.9,0,0,1,31.66,36.18Zm-15.89-1.8h15V23h-15Z"/><path class="cls-2" d="M39.86,16.11a1,1,0,0,1-.71-.3l-5.23-5.23H14.29v4.48a1,1,0,1,1-2,0V9.58a1,1,0,0,1,1-1H34.34a1,1,0,0,1,.7.3l5.53,5.52a1,1,0,0,1-.71,1.71Z"/><path class="cls-2" d="M53.54,50.3h-6a1,1,0,0,1,0-2h6a1,1,0,1,1,0,2Z"/><path class="cls-2" d="M53.54,46.7h-6a1,1,0,0,1,0-2h6a1,1,0,1,1,0,2Z"/><path class="cls-2" d="M53.54,43.1h-6a1,1,0,0,1,0-2h6a1,1,0,0,1,0,2Z"/></g></svg>