<svg xmlns="http://www.w3.org/2000/svg" width="16.523" height="19.788" viewBox="0 0 16.523 19.788"><defs><style>.a{fill:#172439;}</style></defs><path class="a" d="M38.281,370.4H34.826a2.438,2.438,0,0,0-2.318-2.051H30.421A2.437,2.437,0,0,0,28.1,370.4h-3.56a1.393,1.393,0,0,0-1.392,1.392v.73a1.387,1.387,0,0,0,.894,1.3l1.472,12.84a1.581,1.581,0,0,0,1.6,1.478h8.624a1.634,1.634,0,0,0,1.6-1.459l1.369-12.826a1.314,1.314,0,0,0,.962-1.33v-.73A1.393,1.393,0,0,0,38.281,370.4Zm-7.86-.659h2.087a1.015,1.015,0,0,1,.878.659H29.543A1.015,1.015,0,0,1,30.421,369.745Zm5.5,16.756,0,.04c0,.16-.158.173-.208.173H27.118a.218.218,0,0,1-.211-.213l-1.451-12.582H37.364Zm2.363-13.976H24.545V371.8H38.28Z" transform="translate(-23.152 -368.353)"/></svg>