<svg xmlns="http://www.w3.org/2000/svg" width="44.018" height="44.02" viewBox="0 0 44.018 44.02"><defs><style>.a{fill:#e05252;}</style></defs><g transform="translate(-12.991 -12.99)"><path class="a" d="M35,57.009A22.009,22.009,0,1,1,57.009,35,22.034,22.034,0,0,1,35,57.009Zm0-41.518A19.509,19.509,0,1,0,54.509,35,19.531,19.531,0,0,0,35,15.491Z"/><path class="a" d="M34.443,42.568a1.527,1.527,0,0,0-1.141.472,1.6,1.6,0,0,0-.451,1.149,1.638,1.638,0,0,0,.451,1.179,1.525,1.525,0,0,0,1.141.474,1.55,1.55,0,0,0,1.155-.489,1.626,1.626,0,0,0,.466-1.164,1.6,1.6,0,0,0-1.621-1.621Z"/><path class="a" d="M39.338,25.463a6.706,6.706,0,0,0-4.286-1.3,6.3,6.3,0,0,0-4.279,1.418,5.428,5.428,0,0,0-1.762,4L29,29.831l2.175.078.013-.245a3.215,3.215,0,0,1,1.04-2.414,4.006,4.006,0,0,1,2.673-.824,4.232,4.232,0,0,1,2.694.784,2.728,2.728,0,0,1,.957,2.288,4.007,4.007,0,0,1-.3,1.607,4.254,4.254,0,0,1-.733,1.166c-.3.329-.735.748-1.289,1.244a16.262,16.262,0,0,0-1.455,1.394,5.571,5.571,0,0,0-.975,1.6,5.868,5.868,0,0,0-.4,2.26v1.25h2.146v-1.25a3.969,3.969,0,0,1,.625-2.311,10.914,10.914,0,0,1,1.94-2.011,19.185,19.185,0,0,0,1.5-1.421A5.424,5.424,0,0,0,40.6,31.44a5.585,5.585,0,0,0,.4-2.185A4.582,4.582,0,0,0,39.338,25.463Z"/></g></svg>