<svg xmlns="http://www.w3.org/2000/svg" width="16.196" height="16.119" viewBox="0 0 16.196 16.119"><defs><style>.a{fill:none;stroke:#6adc91;}</style></defs><g transform="translate(0.508 0.5)"><path class="a" d="M-5.409,1225.393a1.178,1.178,0,0,1-.5-.166l-3.987-1.994-4.071,1.911a1.021,1.021,0,0,1-1.08-.083,1.082,1.082,0,0,1-.415-1.08l1.163-4.154-2.824-2.99a1.324,1.324,0,0,1-.249-1.08.955.955,0,0,1,.831-.664l3.987-.5,1.828-3.738a1.056,1.056,0,0,1,1-.581.972.972,0,0,1,.914.664l1.745,3.822,3.987.664a.975.975,0,0,1,.831.748,1.2,1.2,0,0,1-.249,1.08l-2.907,2.824,1,4.153a1.157,1.157,0,0,1-.415,1.163Zm-9.221-1.745Zm4.486-.5Zm.582,0Zm-4.486-3.073Z" transform="translate(17.403 -1210.274)"/></g></svg>