<svg xmlns="http://www.w3.org/2000/svg" viewBox="0 0 70 70"><defs><style>.cls-1{fill:#6dde94;}</style></defs><title>05_access_type_v1</title><g id="Layer_84" data-name="Layer 84"><path class="cls-1" d="M50.66,31.25H48.89V22.77a14,14,0,0,0-28,0v8.48H19.14a3.59,3.59,0,0,0-3.59,3.58v22a3.59,3.59,0,0,0,3.59,3.59H50.66a3.59,3.59,0,0,0,3.59-3.59v-22A3.59,3.59,0,0,0,50.66,31.25ZM22.91,22.77a12,12,0,0,1,24,0v8.48h-24Zm12,19.78a1.78,1.78,0,1,1,1.78-1.77A1.78,1.78,0,0,1,34.9,42.55Zm17.35,14.3a1.59,1.59,0,0,1-1.59,1.59H41.51V52.76l2.72-2.71a3.63,3.63,0,0,0,1.76.46,3.8,3.8,0,1,0-3.22-1.83l-3,3a1,1,0,0,0-.3.71v6.09H35.9v-14s0,0,0,0a3.78,3.78,0,1,0-2,0s0,0,0,0v14H31.7V49.61a1,1,0,0,0-1-1H27.75a3.72,3.72,0,0,0-1-1.77,3.78,3.78,0,1,0-2.67,6.45,3.75,3.75,0,0,0,3.6-2.68h2v7.83H19.14a1.59,1.59,0,0,1-1.59-1.59v-22a1.59,1.59,0,0,1,1.59-1.58H50.66a1.59,1.59,0,0,1,1.59,1.58Zm-8-10.12A1.78,1.78,0,1,1,46,48.51,1.77,1.77,0,0,1,44.22,46.73Zm-18.86,4a1.83,1.83,0,0,1-2.52,0,1.79,1.79,0,0,1,0-2.52,1.79,1.79,0,0,1,2.52,0A1.79,1.79,0,0,1,25.36,50.77Z"/></g></svg>