<svg xmlns="http://www.w3.org/2000/svg" viewBox="0 0 70 70"><defs><style>.cls-1{fill:#6add92;}</style></defs><title>03_Icons_amenities_v1</title><g id="Layer_114" data-name="Layer 114"><path class="cls-1" d="M15.25,42.88c-3.7,0-6.7-3.7-6.7-8.1s3-8.1,6.7-8.1,6.7,3.7,6.7,8.1S19,42.88,15.25,42.88Zm0-14.3c-2.6,0-4.7,2.8-4.7,6.1s2.1,6.1,4.7,6.1S20,38,20,34.68,17.85,28.58,15.25,28.58Z"/><path class="cls-1" d="M27.35,30.18c-3.7,0-6.7-3.7-6.7-8.3s3-8.3,6.7-8.3,6.7,3.7,6.7,8.3S31.05,30.18,27.35,30.18Zm0-14.6c-2.6,0-4.7,2.8-4.7,6.3s2.1,6.3,4.7,6.3,4.7-2.8,4.7-6.3S30,15.58,27.35,15.58Z"/><path class="cls-1" d="M43,29.78c-3.7,0-6.7-3.7-6.7-8.3s3-8.3,6.7-8.3,6.7,3.7,6.7,8.3S46.65,29.78,43,29.78Zm0-14.6c-2.6,0-4.7,2.8-4.7,6.3s2.1,6.3,4.7,6.3,4.7-2.8,4.7-6.3S45.55,15.18,43,15.18Z"/><path class="cls-1" d="M39.65,56.78h-7.3c-3.9.1-7.2.2-9.4-1.9-1.4-1.4-2.1-3.6-2.1-6.8,0-9.7,6.3-17.6,14-17.6s14,7.9,14,17.6c0,3.2-.7,5.4-2.1,6.8C45.05,56.48,42.55,56.78,39.65,56.78Zm-4.8-2.1h2.6c3.4.1,6.4.2,7.9-1.4q1.5-1.5,1.5-5.4c0-8.6-5.4-15.6-12-15.6s-12,7-12,15.6q0,3.9,1.5,5.4c1.6,1.5,4.5,1.5,7.9,1.4Z"/><path class="cls-1" d="M54.75,43.38c-3.7,0-6.7-3.7-6.7-8.1s3-8.1,6.7-8.1,6.7,3.7,6.7,8.1S58.45,43.38,54.75,43.38Zm0-14.3c-2.6,0-4.7,2.8-4.7,6.1s2.1,6.1,4.7,6.1,4.7-2.8,4.7-6.1S57.35,29.08,54.75,29.08Z"/></g></svg>