<svg xmlns="http://www.w3.org/2000/svg" viewBox="0 0 70 70"><defs><style>.cls-1{fill:#6add92;}</style></defs><title>03_Icons_amenities_v1</title><g id="Layer_80" data-name="Layer 80"><path class="cls-1" d="M35,21.85a5.59,5.59,0,0,1-5.6-5.6,4.69,4.69,0,0,1,4.7-4.7,3.9,3.9,0,0,1,3.9,3.9,3.33,3.33,0,0,1-3.3,3.3,2.9,2.9,0,0,1-2.9-2.9,1,1,0,0,1,2,0,.9.9,0,0,0,.9.9,1.32,1.32,0,0,0,1.3-1.3,1.9,1.9,0,0,0-1.9-1.9,2.69,2.69,0,0,0-2.7,2.7,3.59,3.59,0,0,0,3.6,3.6,1,1,0,0,1,0,2Z"/><circle class="cls-1" cx="41.9" cy="35.15" r="1.2"/><circle class="cls-1" cx="28.1" cy="35.15" r="1.2"/><path class="cls-1" d="M35.1,48.85a7.9,7.9,0,0,1-7.3-5.1,1,1,0,0,1,1.9-.7,5.74,5.74,0,0,0,10.8,0,1,1,0,1,1,1.9.7A7.76,7.76,0,0,1,35.1,48.85Z"/><path class="cls-1" d="M35,58.55a19.32,19.32,0,0,1-19.2-16.7,2.2,2.2,0,0,1-.8.1c-1.8,0-3.3-1.9-3.3-4.3s1.4-4.3,3.3-4.3a2.3,2.3,0,0,1,1.4.4,19.39,19.39,0,0,1,37.2,0,3.26,3.26,0,0,1,1.4-.4c1.8,0,3.3,1.9,3.3,4.3S56.9,42,55,42a2.2,2.2,0,0,1-.8-.1A19.32,19.32,0,0,1,35,58.55ZM16.7,39.05H17a1,1,0,0,1,.7.9,17.42,17.42,0,0,0,34.8,0,1,1,0,0,1,.7-.9,1,1,0,0,1,1.1.4,1,1,0,0,0,.8.5c.6,0,1.3-1,1.3-2.3s-.7-2.3-1.3-2.3c-.4,0-.7.3-1,.9a1.1,1.1,0,0,1-1,.6,1.22,1.22,0,0,1-.9-.8,17.4,17.4,0,0,0-34.2,0,1,1,0,0,1-.9.8,1,1,0,0,1-1-.6c-.3-.6-.6-.9-1-.9-.6,0-1.3,1-1.3,2.3s.7,2.3,1.3,2.3c.4,0,.7-.4.8-.5C16,39.15,16.3,39.05,16.7,39.05Z"/></g></svg>