<svg xmlns="http://www.w3.org/2000/svg" viewBox="0 0 70 70"><defs><style>.cls-1{fill:#6add92;}</style></defs><title>03_Icons_amenities_v1</title><g id="Layer_80" data-name="Layer 80"><path class="cls-1" d="M35.21,49.27a1,1,0,0,1-1-1V27a1,1,0,1,1,2,0V48.27A1,1,0,0,1,35.21,49.27Z"/><path class="cls-1" d="M35.21,28a3.64,3.64,0,1,1,3.64-3.64A3.65,3.65,0,0,1,35.21,28Zm0-5.28a1.64,1.64,0,1,0,1.64,1.64A1.63,1.63,0,0,0,35.21,22.73Z"/><path class="cls-1" d="M45.9,40a3.64,3.64,0,1,1,3.64-3.64A3.64,3.64,0,0,1,45.9,40Zm0-5.28a1.64,1.64,0,1,0,1.64,1.64A1.64,1.64,0,0,0,45.9,34.72Z"/><path class="cls-1" d="M39.88,49.27a1,1,0,0,1-1-1V36.36a1,1,0,0,1,1-1h3.38a1,1,0,1,1,0,2H40.88V48.27A1,1,0,0,1,39.88,49.27Z"/><path class="cls-1" d="M24.9,37.25a3.6,3.6,0,0,1-2-.59,3.64,3.64,0,0,1-1.08-5h0a3.61,3.61,0,0,1,2.3-1.58A3.63,3.63,0,0,1,28,35.58a3.61,3.61,0,0,1-2.29,1.59A4,4,0,0,1,24.9,37.25Zm-1.37-4.53A1.63,1.63,0,0,0,24,35a1.63,1.63,0,0,0,2.26-.48A1.64,1.64,0,0,0,24.56,32a1.68,1.68,0,0,0-1,.72Z"/><path class="cls-1" d="M31,49.27a1,1,0,0,1-1-1V39.41l-3.54-3.67a1,1,0,1,1,1.43-1.39l3.83,4A1,1,0,0,1,32,39v9.27A1,1,0,0,1,31,49.27Z"/><path class="cls-1" d="M35,59.39a1.26,1.26,0,0,1-.27,0c-27.75-7.81-23-45.59-22.91-46a1,1,0,0,1,1.69-.58c.38.36,9.48,8.77,20.8-1.91a1,1,0,0,1,1.38,0c11.36,10.71,20.42,2.27,20.8,1.91a1,1,0,0,1,1.69.58c0,.38,4.84,38.16-22.91,46A1.26,1.26,0,0,1,35,59.39ZM13.63,15.47c-.54,7.43-1,35.34,21.37,41.88C57.42,50.81,56.91,22.9,56.37,15.47c-4.32,3-12.61,5.26-21.37-2.5C26.24,20.72,18,18.48,13.63,15.47Z"/></g></svg>