<svg xmlns="http://www.w3.org/2000/svg" viewBox="0 0 70 70"><defs><style>.cls-1{fill:#6add92;}</style></defs><title>03_Icons_amenities_v1</title><g id="Layer_31" data-name="Layer 31"><path class="cls-1" d="M40.51,58.14H21.18a4.29,4.29,0,0,1-4.28-4.29V23.63A2.69,2.69,0,0,1,19.58,21H42.12a2.69,2.69,0,0,1,2.68,2.68V53.85A4.29,4.29,0,0,1,40.51,58.14Zm-20.93-35a.47.47,0,0,0-.47.47V53.85a2.08,2.08,0,0,0,2.07,2.08H40.51a2.08,2.08,0,0,0,2.08-2.08V23.63a.47.47,0,0,0-.47-.47Z"/><path class="cls-1" d="M47.86,50.5H43.69a1.1,1.1,0,0,1-1.1-1.1V29.69a1.1,1.1,0,0,1,1.1-1.1h4.17a5.24,5.24,0,0,1,5.24,5.23V45.27A5.24,5.24,0,0,1,47.86,50.5ZM44.8,48.3h3.06a3,3,0,0,0,3-3V33.82a3,3,0,0,0-3-3H44.8Z"/><path class="cls-1" d="M24.46,50.73a1.11,1.11,0,0,1-1.11-1.1V29.69a1.11,1.11,0,0,1,2.21,0V49.63A1.1,1.1,0,0,1,24.46,50.73Z"/><path class="cls-1" d="M30.85,50.73a1.11,1.11,0,0,1-1.11-1.1V29.69a1.11,1.11,0,0,1,2.21,0V49.63A1.1,1.1,0,0,1,30.85,50.73Z"/><path class="cls-1" d="M37.24,50.73a1.11,1.11,0,0,1-1.11-1.1V29.69a1.11,1.11,0,0,1,2.21,0V49.63A1.1,1.1,0,0,1,37.24,50.73Z"/><path class="cls-1" d="M20.38,22.83a1.09,1.09,0,0,1-1.09-1,3.67,3.67,0,0,1-.05-.49,4.88,4.88,0,0,1,4.24-4.84A4.87,4.87,0,0,1,33,15.4,4.88,4.88,0,0,1,35.31,17a4.8,4.8,0,0,1,2.27-.56,4.89,4.89,0,0,1,4.88,4.88,2.58,2.58,0,0,1,0,.39,1.16,1.16,0,0,1-1.21,1,1.07,1.07,0,0,1-1-1.17l0-.17a2.67,2.67,0,0,0-4.52-2,1.06,1.06,0,0,1-1,.28,1.09,1.09,0,0,1-.79-.68,2.71,2.71,0,0,0-2-1.66,1.1,1.1,0,0,1-.91-1,2.66,2.66,0,1,0-5.21,1,1.13,1.13,0,0,1-.26,1,1.11,1.11,0,0,1-1,.34,2.71,2.71,0,0,0-.41,0,2.68,2.68,0,0,0-2.67,2.67s0,.24,0,.25a1.1,1.1,0,0,1-1,1.22Z"/></g></svg>