<svg xmlns="http://www.w3.org/2000/svg" viewBox="0 0 70 70"><defs><style>.cls-1{fill:#6add92;}</style></defs><title>03_Icons_amenities_v1</title><g id="Layer_65" data-name="Layer 65"><path class="cls-1" d="M50.4,38.55a6.15,6.15,0,0,1-4.5-2,4.25,4.25,0,0,0-3.2-1.5,4.43,4.43,0,0,0-3.2,1.5,6.06,6.06,0,0,1-9,0,4.16,4.16,0,0,0-6.4,0,6.06,6.06,0,0,1-9,0,4.25,4.25,0,0,0-3.2-1.5,1,1,0,1,1,0-2,6.15,6.15,0,0,1,4.5,2,4.25,4.25,0,0,0,3.2,1.5,4.43,4.43,0,0,0,3.2-1.5,6.06,6.06,0,0,1,9,0,4.25,4.25,0,0,0,3.2,1.5,4.43,4.43,0,0,0,3.2-1.5,6.06,6.06,0,0,1,9,0,4.16,4.16,0,0,0,6.4,0,6.15,6.15,0,0,1,4.5-2,1,1,0,1,1,0,2,4.43,4.43,0,0,0-3.2,1.5A5.79,5.79,0,0,1,50.4,38.55Z"/><path class="cls-1" d="M50.4,48.75a6.15,6.15,0,0,1-4.5-2,4.25,4.25,0,0,0-3.2-1.5,4.43,4.43,0,0,0-3.2,1.5,6.06,6.06,0,0,1-9,0,4.16,4.16,0,0,0-6.4,0,6.06,6.06,0,0,1-9,0,4.25,4.25,0,0,0-3.2-1.5,1,1,0,1,1,0-2,6.15,6.15,0,0,1,4.5,2,4.25,4.25,0,0,0,3.2,1.5,4.43,4.43,0,0,0,3.2-1.5,6.06,6.06,0,0,1,9,0,4.25,4.25,0,0,0,3.2,1.5,4.43,4.43,0,0,0,3.2-1.5,6.06,6.06,0,0,1,9,0,4.16,4.16,0,0,0,6.4,0,6.15,6.15,0,0,1,4.5-2,1,1,0,0,1,0,2,4.43,4.43,0,0,0-3.2,1.5A5.79,5.79,0,0,1,50.4,48.75Z"/><path class="cls-1" d="M41.1,31.35a.94.94,0,0,1-1-1V18.45a5.7,5.7,0,0,1,5.7-5.7,1,1,0,0,1,0,2,3.69,3.69,0,0,0-3.7,3.7v11.9A1,1,0,0,1,41.1,31.35Z"/><path class="cls-1" d="M27.7,31.35a.94.94,0,0,1-1-1V18.45a5.7,5.7,0,0,1,5.7-5.7,1,1,0,0,1,0,2,3.69,3.69,0,0,0-3.7,3.7v11.9A.94.94,0,0,1,27.7,31.35Z"/><path class="cls-1" d="M41.1,22.75H27.7a1,1,0,0,1,0-2H41.1a.94.94,0,0,1,1,1A1,1,0,0,1,41.1,22.75Z"/><path class="cls-1" d="M41.1,28.45H27.7a1,1,0,0,1,0-2H41.1a.94.94,0,0,1,1,1A1,1,0,0,1,41.1,28.45Z"/><path class="cls-1" d="M59.1,57.25H10.9a4.69,4.69,0,0,1-4.7-4.7v-27a4.69,4.69,0,0,1,4.7-4.7l11.6-.1h0a1,1,0,0,1,1,1,.94.94,0,0,1-1,1l-11.6.1a2.69,2.69,0,0,0-2.7,2.7v27a2.69,2.69,0,0,0,2.7,2.7H59.1a2.69,2.69,0,0,0,2.7-2.7v-27a2.69,2.69,0,0,0-2.7-2.7l-12.8-.1a1,1,0,0,1,0-2h0l12.8.1a4.69,4.69,0,0,1,4.7,4.7v27A4.69,4.69,0,0,1,59.1,57.25Z"/></g></svg>