<svg xmlns="http://www.w3.org/2000/svg" viewBox="0 0 70 70"><defs><style>.cls-1{fill:#6add92;}</style></defs><title>03_Icons_amenities_v1</title><g id="Layer_13" data-name="Layer 13"><path class="cls-1" d="M51.86,42H26a1,1,0,0,1-1-.76L19.24,18.26H15a1,1,0,0,1,0-2H20A1,1,0,0,1,21,17l5.75,23H51L53.84,25H30.44a1,1,0,1,1,0-2H55.05a1,1,0,0,1,.77.36,1,1,0,0,1,.21.82L52.85,41.15A1,1,0,0,1,51.86,42Z"/><path class="cls-1" d="M29.33,53.74a4.5,4.5,0,1,1,4.49-4.5A4.5,4.5,0,0,1,29.33,53.74Zm0-7a2.5,2.5,0,1,0,2.49,2.49A2.49,2.49,0,0,0,29.33,46.75Z"/><path class="cls-1" d="M48.37,53.74a4.5,4.5,0,1,1,4.49-4.5A4.5,4.5,0,0,1,48.37,53.74Zm0-7a2.5,2.5,0,1,0,2.49,2.49A2.5,2.5,0,0,0,48.37,46.75Z"/></g></svg>