<svg xmlns="http://www.w3.org/2000/svg" viewBox="0 0 70 70"><defs><style>.cls-1{fill:#6add92;}</style></defs><title>03_Icons_amenities_v1</title><g id="Layer_95" data-name="Layer 95"><path class="cls-1" d="M54.88,48.9H29.78V33.3A13,13,0,0,1,52.9,24.78a1,1,0,0,1-.24,1.51h0a1,1,0,0,1-1.32-.19,11.23,11.23,0,0,0-8.67-4.2,11,11,0,0,0-11,11V46.8h23.1v2.1Z"/><rect class="cls-1" x="22.97" y="20" width="19.9" height="1.88" rx="0.94"/><path class="cls-1" d="M30.77,48.9H8.17V33a13.27,13.27,0,0,1,7.27-11.73,1,1,0,0,1,1.41.55h0A1,1,0,0,1,16.38,23a11.2,11.2,0,0,0-6.3,10V46.8H30.67l.1,2.1Z"/><path class="cls-1" d="M59.53,48.9H37.33A2.26,2.26,0,0,1,35,46.6V30.5a2.26,2.26,0,0,1,2.3-2.3h22.2a2.26,2.26,0,0,1,2.3,2.3V46.6A2.4,2.4,0,0,1,59.53,48.9ZM37.33,30.1a.26.26,0,0,0-.3.3V46.5a.26.26,0,0,0,.3.3h22.2a.27.27,0,0,0,.3-.3V30.4a.27.27,0,0,0-.3-.3Z"/><path class="cls-1" d="M48.33,39.55a.67.67,0,0,1-.46-.19l-9.31-6a.94.94,0,0,1,1-1.58l8.85,5.67,8.84-5.67a.94.94,0,0,1,1,1.58l-9.4,6.05C48.61,39.46,48.52,39.55,48.33,39.55Z"/><path class="cls-1" d="M29.47,59.1h-9.4V46.8h9.4Zm-7.4-2h5.4V48.8h-5.4Z"/><path class="cls-1" d="M34.77,59.1h-7.4V46.8h7.4Zm-5.3-2h3.41V48.8H29.47Z"/><rect class="cls-1" x="19.97" y="43.2" width="5.9" height="2"/><rect class="cls-1" x="16.67" y="43.2" width="1.7" height="2"/><path class="cls-1" d="M20.67,36.7h-2V12.9h-8.5v1.8h6.3a1,1,0,0,1,1,1h0a1,1,0,0,1-1,1H8.17V10.9h12.5Z"/></g></svg>