<svg xmlns="http://www.w3.org/2000/svg" viewBox="0 0 70 70"><defs><style>.cls-1{fill:#6add92;}</style></defs><title>03_Icons_amenities_v1</title><g id="Layer_81" data-name="Layer 81"><path class="cls-1" d="M58.75,37.7H20.25a1,1,0,0,1-1-.8l-4.5-21.1A.78.78,0,0,1,15,15a1.23,1.23,0,0,1,.8-.4h43a.94.94,0,0,1,1,1V36.7A1,1,0,0,1,58.75,37.7Zm-37.7-2h36.7V16.6H17Z"/><path class="cls-1" d="M19.15,32.5h-8.1a.94.94,0,0,1-1-1V20.6a.94.94,0,0,1,1-1h5.8a1,1,0,0,1,1,.8l2.3,10.9a.78.78,0,0,1-.2.8A1.23,1.23,0,0,1,19.15,32.5Zm-7.2-2h5.9L16,21.6H12Z"/><path class="cls-1" d="M43.85,51.9a1.05,1.05,0,0,1-1-.8l-3.5-13.7a1,1,0,0,1,1.9-.5l3.5,13.7a1,1,0,0,1-.7,1.2C44.05,51.9,44,51.9,43.85,51.9Z"/><path class="cls-1" d="M55.45,51.9H43.85a1,1,0,0,1,0-2h11.6a.94.94,0,0,1,1,1A1.08,1.08,0,0,1,55.45,51.9Z"/><path class="cls-1" d="M59,55.4a4.5,4.5,0,0,1,0-9,.94.94,0,0,1,1,1v7A1.08,1.08,0,0,1,59,55.4Zm-1-6.8a2.51,2.51,0,0,0,0,4.6Z"/><path class="cls-1" d="M53.55,25.9H23.15a1,1,0,0,1,0-2h30.4a1,1,0,0,1,0,2Z"/></g></svg>