<svg height="512" viewBox="0 0 60 60" width="512" xmlns="http://www.w3.org/2000/svg"><g id="018---Park"><path id="Shape" d="m53.91 14.75c-1.514492-.9115984-2.5499389-2.4446451-2.83-4.19-.37-2.33-.31-4.41-1.94-6.6-2.4644954-3.24255644-6.6492874-4.66649322-10.58-3.6-3.9390783 1.25160458-6.6003324 4.92705612-6.56 9.06-.0616238 1.6835636-.8859689 3.2476111-2.24 4.25-4.5550715 3.5908161-6.0416031 9.8433586-3.59 15.1.7560012 1.5528753.7560012 3.3671247 0 4.92-2.59 5-.48 11.24 3 13.41 2.9493019 1.9713896 6.6561807 2.4347495 10 1.25.2757561-.1023351.5602666-.1793203.85-.23v9.88h-4.09c-.2707221-2.1528443-1.4043068-4.1033813-3.1408247-5.4043557-1.736518-1.3009743-3.9270013-1.8407814-6.0691753-1.4956443-1.8755358-3.3596374-5.5122941-5.3452153-9.3525676-5.1062649-3.8402735.2389503-7.2028391 2.6600417-8.6474324 6.2262649-2.09244987-.5304065-4.31258012-.0657515-6.01670884 1.2592476-1.70412873 1.3249992-2.7016273 3.3621244-2.70329116 5.5207524 0 .5522847.44771525 1 1 1h58c.5522847 0 1-.4477153 1-1s-.4477153-1-1-1h-17v-9.88c.2962421.0553534.5872773.1356389.87.24 3.2839485 1.1488305 6.9150469.709257 9.83-1.19 3.15-1.91 4.74-6.62 4.18-10.28-.2558933-1.5168873.0806113-3.0741161.94-4.35 1.9384017-2.8494464 2.6176152-6.371477 1.8778302-9.7374039-.7397849-3.365927-2.83325-6.2785606-5.7878302-8.0525961zm-51.81 43.25c.2973634-1.4821016 1.24927703-2.7501119 2.58947254-3.4493443s2.92478456-.7546148 4.31052746-.1506557c.26389424.1148656.56448468.110461.82490005-.0120874.26041535-.1225484.45540375-.3513574.53509995-.6279126.9162106-3.2384743 3.7613213-5.5572046 7.1180548-5.8011272 3.3567334-.2439226 6.5071737 1.6391309 7.8819452 4.7111272.2079347.45013.7143136.6799154 1.19.54 1.6174144-.4054868 3.3306201-.1196072 4.7287412.7890767s2.3550395 2.3582037 2.6412588 4.0009233zm54.07-26.59c-1.1491167 1.6961769-1.6036853 3.7685798-1.27 5.79.3043987 2.2651152-.2136247 4.5642876-1.46 6.48-.4420561.7301099-1.052378 1.3438606-1.78 1.79-2.3995755 1.569375-5.3907905 1.9386608-8.1 1-.5043868-.1817554-1.0277131-.3058777-1.56-.37v-11.69l9.21-9.2c.2536586-.2536586.3527235-.623374.259878-.969878-.0928454-.3465041-.3634959-.6171546-.71-.71-.346504-.0928455-.7162194.0062194-.969878.259878l-7.79 7.8v-11.18l4.71-4.7c.3921221-.3921222.3921221-1.0278778 0-1.42-.3921222-.3921221-1.0278778-.3921221-1.42 0l-3.29 3.3v-7.59c0-.55228475-.4477153-1-1-1s-1 .44771525-1 1v13.59l-4.29-4.3c-.3921222-.3921221-1.0278778-.3921221-1.42 0-.3921221.3921222-.3921221 1.0278778 0 1.42l5.71 5.7v12.18l-6.29-6.3c-.3921222-.3921221-1.0278778-.3921221-1.42 0-.3921221.3921222-.3921221 1.0278778 0 1.42l7.71 7.7v4.68c-.5278418.0757172-1.0469907.2029924-1.55.38-2.7521091.9595962-5.7957705.5629192-8.21-1.07-.7434551-.4630045-1.3616133-1.101768-1.8-1.86-1.7054283-2.6880838-1.8946922-6.0683372-.5-8.93 1.0208231-2.1131749 1.0208231-4.5768251 0-6.69-2.0645247-4.4106293-.822064-9.6620967 3-12.68 1.8314187-1.3797524 2.9354622-3.5179166 3-5.81-.0463147-3.24522857 2.0246349-6.14293698 5.11-7.15 3.1288593-.83582075 6.4529789.29722239 8.42 2.87 1.28 1.72 1.21 3.42 1.57 5.72.3712716 2.3332546 1.7549024 4.383078 3.78 5.6 2.4927523 1.4781466 4.265317 3.9191536 4.8994037 6.7469911.6340868 2.8278376.073525 5.7920021-1.5494037 8.1930089z"/><path id="Shape" d="m13 6c-3.86599325 0-7 3.13400675-7 7 0 3.8659932 3.13400675 7 7 7 3.8659932 0 7-3.1340068 7-7 0-3.86599325-3.1340068-7-7-7zm0 12c-2.7614237 0-5-2.2385763-5-5s2.2385763-5 5-5 5 2.2385763 5 5-2.2385763 5-5 5z"/><path id="Shape" d="m12 23v2c0 .5522847.4477153 1 1 1s1-.4477153 1-1v-2c0-.5522847-.4477153-1-1-1s-1 .4477153-1 1z"/><path id="Shape" d="m14 3v-2c0-.55228475-.4477153-1-1-1s-1 .44771525-1 1v2c0 .55228475.4477153 1 1 1s1-.44771525 1-1z"/><path id="Shape" d="m1 14h2c.55228475 0 1-.4477153 1-1s-.44771525-1-1-1h-2c-.55228475 0-1 .4477153-1 1s.44771525 1 1 1z"/><path id="Shape" d="m26 13c0-.5522847-.4477153-1-1-1h-2c-.5522847 0-1 .4477153-1 1s.4477153 1 1 1h2c.5522847 0 1-.4477153 1-1z"/><path id="Shape" d="m4.51 22.49c.2672459-.0011094.52292856-.1091444.71-.3l1.42-1.41c.39212215-.3921222.39212214-1.0278778-.00000002-1.42-.39212217-.3921221-1.0278778-.3921222-1.41999998 0l-1.41 1.42c-.28716137.2848091-.37449029.714552-.22126791 1.0888524.15322239.3743004.51682383.6194518.92126791.6211476z"/><path id="Shape" d="m20.78 3.81-1.42 1.41c-.3921222.39212217-.3921222 1.02787782 0 1.41999999s1.0278778.39212217 1.42.00000001l1.41-1.42c.3397768-.39676028.3169323-.98819417-.0524368-1.35756322-.369369-.36936905-.9608029-.39221358-1.3575632-.05243678z"/><path id="Shape" d="m5.22 6.64c.39212217.39212217 1.02787783.39212217 1.42 0s.39212217-1.02787783 0-1.42l-1.42-1.41c-.39676028-.3397768-.98819417-.31693227-1.35756322.05243678s-.39221358.96080294-.05243678 1.35756322z"/><path id="Shape" d="m20.78 22.19c.3967603.3397768.9881942.3169323 1.3575632-.0524368.3693691-.369369.3922136-.9608029.0524368-1.3575632l-1.41-1.42c-.3921222-.3921221-1.0278778-.3921221-1.42 0-.3921221.3921222-.3921221 1.0278778 0 1.42z"/><path id="Shape" d="m16.44 21.31c-.2456665.101696-.4407193.2970399-.5420488.5428578-.1013295.2458178-.1005922.5218691.0020488.7671422l.77 1.85c.1034047.2489095.30291.4455373.5532955.545315s.5304469.0942554.7767045-.015315c.247471-.0997768.4448032-.2943172.5480958-.5403415.1032926-.2460242.1039782-.5231262.0019042-.7696585l-.77-1.84c-.1013104-.2532703-.3016877-.4541618-.5546975-.556121-.2530099-.1019592-.5366901-.0961357-.7853025.016121z"/><path id="Shape" d="m8.25 4.14c.2098682.51086339.79413661.7548682 1.305.545.5108634-.2098682.7548682-.79413661.545-1.305l-.77-1.85c-.10340466-.24890954-.30291003-.44553732-.55329553-.545315-.25038549-.09977767-.53044688-.09425545-.77670447.015315-.49838828.21946074-.72954963.7973641-.52 1.3z"/><path id="Shape" d="m4.68 16.44c-.21180064-.506169-.7919039-.7471349-1.3-.54l-1.85.77c-.43520918.1853077-.68105236.6502026-.58921562 1.1142198.09183673.4640172.49623039.8002194.96921562.8057802.28 0 .25 0 2.23-.84.24566648-.101696.44071928-.2970399.54204878-.5428578.10132951-.2458178.10059227-.5218691-.00204878-.7671422z"/><path id="Shape" d="m21.32 9.56c.2118006.506169.7919039.7471349 1.3.54l1.85-.77c.5108634-.21262963.7526296-.79913661.54-1.31s-.7991366-.75262963-1.31-.54l-1.84.77c-.2456665.10169598-.4407193.29703988-.5420488.54285775s-.1005922.52186912.0020488.76714225z"/><path id="Shape" d="m8.25 21.86-.77 1.84c-.20954963.5026359.02161172 1.0805393.52 1.3.5080961.2071349 1.08819936-.033831 1.3-.54l.77-1.85c.1357609-.3304707.0849052-.7082658-.13341032-.9910735-.21831554-.2828078-.57092356-.427663-.92500002-.38-.35407647.0476629-.65582875.2806028-.79158966.6110735z"/><path id="Shape" d="m16.83 4.76c.4037019-.00201515.7665964-.24657449.92-.62l.77-1.84c.2095496-.5026359-.0216117-1.08053926-.52-1.3-.5080961-.20713492-1.0881994.03383105-1.3.54l-.8 1.84c-.1270609.3092766-.0911433.66159267.0957149.93886606.1868581.27727338.4999295.44281199.8342851.44113394z"/><path id="Shape" d="m1.53 9.33c2 .81 2 .84 2.23.84.47298523-.0055608.87737889-.34176304.96921562-.80578024.09183674-.46401721-.15400644-.9289121-.58921562-1.11421976l-1.84-.77c-.51086339-.21262961-1.09737035.02913663-1.30999997.54000001s.0291366 1.09737035.53999997 1.30999999z"/><path id="Shape" d="m24.09 18.59c.4729852-.0055608.8773789-.341763.9692156-.8057802.0918368-.4640172-.1540064-.9289121-.5892156-1.1142198l-1.85-.77c-.5108634-.2098682-1.0951318.0341366-1.305.545s.0341366 1.0951318.545 1.305c1.95.81 1.96.84 2.23.84z"/><path id="Shape" d="m17 50c-.11 0-2.73 0-3.95 3.68-.1015601.2580489-.0914031.5466842.0280448.7969559.1194478.2502717.3374593.4397037.6019552.5230441.2647934.0999692.5595481.0830461.8111599-.0465721s.4365112-.3597896.5088401-.6334279c.72-2.18 2-2.32 2.07-2.32.5522847 0 1-.4477153 1-1 .0006815-.2778025-.114229-.5433688-.3171923-.7330542-.2029634-.1896854-.4756859-.2863929-.7528077-.2669458z"/></g></svg>