<svg id="Layer_5" enable-background="new 0 0 64 64" height="512" viewBox="0 0 64 64" width="512" xmlns="http://www.w3.org/2000/svg"><path d="m61 40c0-2.757-2.243-5-5-5h-8.355c-.612-.494-1.29-.909-2.019-1.231 1.439-1.097 2.374-2.824 2.374-4.769 0-3.309-2.691-6-6-6s-6 2.691-6 6c0 1.945.935 3.672 2.374 4.769-.728.322-1.407.736-2.019 1.231h-8.355c-2.757 0-5 2.243-5 5v3h-2v6.09c-.694.117-1.349.351-1.941.685-.019-.022-.04-.039-.059-.061v-15.74c.838.635 1.87 1.026 3 1.026 2.418 0 4.439-1.726 4.9-4.01.034.001.066.01.1.01 2.757 0 5-2.243 5-5 0-.139-.03-.27-.041-.407 1.804-.774 3.041-2.575 3.041-4.593 0-1.604-.775-3.08-2.019-4.008.631-.837 1.019-1.866 1.019-2.992 0-1.241-.466-2.422-1.298-3.336.198-.541.298-1.098.298-1.664 0-2.757-2.243-5-5-5-.569 0-1.124.107-1.653.292-.992-1.95-3.013-3.292-5.347-3.292-1.333 0-2.624.456-3.672 1.277-.908-.813-2.092-1.277-3.328-1.277-2.113 0-3.924 1.32-4.65 3.209-.432-.123-.879-.209-1.35-.209-2.757 0-5 2.243-5 5 0 .572.105 1.138.295 1.673-.796.886-1.295 2.045-1.295 3.327 0 1.126.388 2.155 1.019 2.992-1.244.928-2.019 2.404-2.019 4.008 0 2.013 1.225 3.811 3.021 4.589-.014.139-.021.275-.021.411 0 2.757 2.243 5 5 5 .034 0 .067-.006.1-.006.463 2.282 2.483 4.006 4.9 4.006 1.13 0 2.162-.391 3-1.026v14.108c-1.198-.693-2.569-1.082-4-1.082-4.411 0-8 3.589-8 8-2.206 0-4 1.794-4 4s1.794 4 4 4h16 1 7v-8h7v4.5c0 1.93 1.57 3.5 3.5 3.5.98 0 1.864-.407 2.5-1.058.636.651 1.52 1.058 2.5 1.058 1.93 0 3.5-1.57 3.5-3.5v-4.5h7v8h8v-8-1-11h-2zm-2 0v3h-4v6h-7c1.654 0 3-1.346 3-3v-4c0-1.849-.562-3.569-1.522-5h6.522c1.654 0 3 1.346 3 3zm2 10.026c-.838-.635-1.87-1.026-3-1.026h-1v-4h4zm-23-21.026c0-2.206 1.794-4 4-4s4 1.794 4 4-1.794 4-4 4-4-1.794-4-4zm4 6c3.859 0 7 3.141 7 7v4c0 .552-.448 1-1 1h-3.171c.11-.312.171-.649.171-1 0-.352-.072-.686-.184-1h2.184v-4h-2v2h-3-3v-2h-2v4h5c.552 0 1 .448 1 1s-.448 1-1 1h-6c-.552 0-1-.448-1-1v-4c0-3.859 3.141-7 7-7zm-17 5c0-1.654 1.346-3 3-3h6.522c-.96 1.431-1.522 3.151-1.522 5v4c0 1.654 1.346 3 3 3h-7v-6h-4zm2 5v4h-1c-1.13 0-2.162.391-3 1.026v-5.026zm-13-12c-1.654 0-3-1.346-3-3s1.346-3 3-3v-2c-2.41 0-4.426 1.714-4.896 3.987-.035.001-.069.013-.104.013-1.654 0-3-1.346-3-3 0-.241.042-.5.131-.816l.291-1.029-1.046-.222c-1.377-.291-2.376-1.525-2.376-2.933 0-1.117.625-2.131 1.59-2.647.718.4 1.532.647 2.41.647.577 0 1.144-.098 1.683-.291l-.674-1.883c-.322.115-.662.174-1.009.174-1.654 0-3-1.346-3-3s1.346-3 3-3v-2c-.692 0-1.351.142-1.951.397-.018-.132-.049-.261-.049-.397 0-1.654 1.346-3 3-3s3 1.346 3 3h2c0-1.567-.739-2.95-1.871-3.868.373-1.246 1.525-2.132 2.871-2.132.97 0 1.886.479 2.45 1.279l.729 1.033.837-.947c.779-.88 1.838-1.365 2.984-1.365 2.206 0 4 1.794 4 4s-1.794 4-4 4v2c3.309 0 6-2.691 6-6 0-.272-.024-.537-.06-.799.337-.128.693-.201 1.06-.201 1.654 0 3 1.346 3 3 0 .481-.128.96-.379 1.422l-.399.732.649.524c.718.58 1.129 1.426 1.129 2.322 0 1.654-1.346 3-3 3v2c.878 0 1.692-.247 2.41-.647.965.516 1.59 1.53 1.59 2.647 0 1.13-.649 2.14-1.615 2.649-.844-1.568-2.482-2.649-4.385-2.649v2c1.654 0 3 1.346 3 3s-1.346 3-3 3-3-1.346-3-3h-2c0 2.023 1.213 3.76 2.945 4.546-.258 1.394-1.478 2.454-2.945 2.454-1.654 0-3-1.346-3-3v-6.35l8.406-3.736-.812-1.828-3.058 1.359-1.587-4.762-1.896.633 1.648 4.945-2.7 1.2v-10.461h-2v7.382l-2.292-1.146-2.851-4.75-1.715 1.029 2.598 4.331-3.448 3.448 1.414 1.414 3.49-3.49 2.803 1.4v9.382c0 1.654-1.346 3-3 3zm-9 28c-1.103 0-2-.897-2-2s.897-2 2-2h2v-2c0-3.309 2.691-6 6-6 1.741 0 3.372.752 4.503 2.041-.932 1.057-1.503 2.441-1.503 3.959h2c0-1.859 1.279-3.411 3-3.858v2.858 1 6zm22 0h-4v-6h4zm-3.829-8c.413-1.164 1.525-2 2.829-2h10v2zm16.329 8c-.827 0-1.5-.673-1.5-1.5v-9c0-.827.673-1.5 1.5-1.5s1.5.673 1.5 1.5v9c0 .827-.673 1.5-1.5 1.5zm6.5-1.5c0 .827-.673 1.5-1.5 1.5s-1.5-.673-1.5-1.5v-9c0-.827.673-1.5 1.5-1.5s1.5.673 1.5 1.5zm2-8.5h10c1.304 0 2.416.836 2.829 2h-12.829zm13 10h-4v-6h4z"/><path d="m11 51h2v2h-2z"/><path d="m15 57h2v2h-2z"/><path d="m9 57h2v2h-2z"/><path d="m9 35v-1h-3c-2.757 0-5 2.243-5 5v1h3c2.757 0 5-2.243 5-5zm-3 1h.829c-.413 1.164-1.525 2-2.829 2h-.829c.413-1.164 1.525-2 2.829-2z"/><path d="m7 44v1h3c2.757 0 5-2.243 5-5v-1h-3c-2.757 0-5 2.243-5 5zm5-3h.829c-.413 1.164-1.525 2-2.829 2h-.829c.413-1.164 1.525-2 2.829-2z"/><path d="m52 6c.552 0 1 .448 1 1v1h-1v2h4v-2h-1v-1c0-.552.448-1 1-1s1 .448 1 1h2c0-1.654-1.346-3-3-3-.771 0-1.468.301-2 .78-.532-.479-1.229-.78-2-.78-1.654 0-3 1.346-3 3h2c0-.552.448-1 1-1z"/><path d="m56 15c-1.654 0-3 1.346-3 3h2c0-.552.448-1 1-1s1 .448 1 1v1h-1v2h4v-2h-1v-1c0-.552.448-1 1-1s1 .448 1 1h2c0-1.654-1.346-3-3-3-.771 0-1.468.301-2 .78-.532-.479-1.229-.78-2-.78z"/><path d="m39 12c.552 0 1 .448 1 1v1h-1v2h4v-2h-1v-1c0-.552.448-1 1-1s1 .448 1 1h2c0-1.654-1.346-3-3-3-.771 0-1.468.301-2 .78-.532-.48-1.229-.78-2-.78-1.654 0-3 1.346-3 3h2c0-.552.448-1 1-1z"/></svg>