<?xml version="1.0" encoding="iso-8859-1"?>
<!-- Generator: Adobe Illustrator 19.0.0, SVG Export Plug-In . SVG Version: 6.00 Build 0)  -->
<svg version="1.1" id="Capa_1" xmlns="http://www.w3.org/2000/svg" xmlns:xlink="http://www.w3.org/1999/xlink" x="0px" y="0px"
	 viewBox="0 0 344.4 344.4" style="enable-background:new 0 0 344.4 344.4;" xml:space="preserve">
<g>
	<g>
		<g>
			<path d="M315.2,91.4h-2c0-0.4,0-0.8,0-0.8c0-11.2-9.2-20-20-20h-26.8c-11.2,0-20,9.2-20,20c0,0.4,0,0.8,0,0.8H220l-30-44
				c-1.2-1.6-2.8-2.4-4.8-2.4h-69.6c-2,0-4,1.2-4.8,2.8l-26,43.6h-56c-16,0-28.8,12.8-28.8,28.8v150.4c0,16,12.8,28.8,28.8,28.8
				h286.8c16,0,28.8-12.8,28.8-28.8V120.2C344,104.6,331.2,91.4,315.2,91.4z M258,90.6c0-4.8,4-8.8,8.8-8.8h26.8
				c4.8,0,8.8,4,8.8,8.8c0,0.4,0,0.8,0,0.8H258C258,91.4,258,91,258,90.6z M119.2,56.6h63.2l24,35.2H178V69.4c0-3.2-2.4-5.6-5.6-5.6
				h-41.6c-3.2,0-5.6,2.4-5.6,5.6v22.4H98.4L119.2,56.6z M166.4,75v16.4h-29.6V75H166.4z M332.8,270.6h-0.4
				c0,9.6-7.6,17.2-17.2,17.2H28.8c-9.6,0-17.2-7.6-17.2-17.2V120.2c0-9.6,7.6-17.2,17.2-17.2h102H172h44.8c0,0,0,0,0.4,0
				c0,0,0,0,0.4,0H254c0,0,0,0,0.4,0c0,0,0,0,0.4,0H306h9.6c9.6,0,17.2,7.6,17.2,17.2V270.6z"/>
			<path d="M106,177c9.6,0,17.6-8,17.6-17.6c0-9.6-8-17.6-17.6-17.6c-9.6,0-17.6,8-17.6,17.6C88.8,169,96.4,177,106,177z M106,149
				c6,0,10.4,4.8,10.4,10.4c0,6-4.8,10.4-10.4,10.4c-6,0-10.4-4.8-10.4-10.4C95.6,153.8,100.4,149,106,149z"/>
			<circle cx="268" cy="133.8" r="12.8"/>
			<circle cx="298.8" cy="159.4" r="12.8"/>
			<path d="M280,195.8c-18.8,0-34.4,15.6-34.4,34.4s15.6,34.4,34.4,34.4s34.4-15.6,34.4-34.4S298.8,195.8,280,195.8z M280,253.4
				c-12.8,0-22.8-10.4-22.8-22.8c0-12.8,10.4-22.8,22.8-22.8c12.8,0,22.8,10.4,22.8,22.8C302.8,243,292.8,253.4,280,253.4z"/>
			<path d="M225.6,120.6H36c-3.2,0-5.6,2.4-5.6,5.6v132.4c0,3.2,2.4,5.6,5.6,5.6h190c3.2,0,5.6-2.4,5.6-5.6v-132
				C231.6,123.4,228.8,120.6,225.6,120.6z M220,253.8H41.6v-0.4v-15.6L80.8,197l36,32.8c1.2,1.2,2.8,1.6,4.4,1.6s3.2-0.8,4-2
				l41.6-50.4l52.8,60c0,0,0.4,0,0.4,0.4V253.8z M220,221.8l-49.2-55.6c-1.2-1.6-2.8-2-4.4-2c-1.6,0-3.2,0.8-4.4,2L120,217
				l-35.6-32.4c-2.4-2-6-2-8,0.4l-34.8,36v-88.8H220V221.8z"/>
		</g>
	</g>
</g>
<g>
</g>
<g>
</g>
<g>
</g>
<g>
</g>
<g>
</g>
<g>
</g>
<g>
</g>
<g>
</g>
<g>
</g>
<g>
</g>
<g>
</g>
<g>
</g>
<g>
</g>
<g>
</g>
<g>
</g>
</svg>
