<?xml version="1.0"?>
<svg xmlns="http://www.w3.org/2000/svg" viewBox="0 0 512 512" width="512" height="512"><g id="Dance_Floor" data-name="Dance Floor"><g id="Outline"><path d="M82.138,31.845A8,8,0,0,0,79,16.155L54.914,20.972,40.971,7.03A24,24,0,1,0,7.029,40.97L20.973,54.914,16.155,79a8,8,0,1,0,15.69,3.137l5.181-25.909,19.2-19.2ZM29.657,40.97,18.343,29.656A8,8,0,1,1,29.656,18.343L40.97,29.657Z"/><path d="M512,24A24,24,0,0,0,471.029,7.03L457.086,20.972,433,16.155a8,8,0,0,0-3.139,15.69l25.909,5.181,19.2,19.2,5.181,25.909A8,8,0,0,0,495.845,79l-4.818-24.086L504.97,40.971A23.84,23.84,0,0,0,512,24Zm-18.344,5.657L482.343,40.97,471.03,29.657l11.314-11.314a8,8,0,1,1,11.312,11.314Z"/><circle cx="456" cy="321.14" r="8"/><path d="M456,345.14a8.011,8.011,0,0,0-8,8V432H384V368h40a8,8,0,0,0,0-16H384V288h56.02a8.036,8.036,0,0,1,7.259,4.68,8.026,8.026,0,0,0,7.281,4.67,7.995,7.995,0,0,0,7.27-11.33A24.06,24.06,0,0,0,440,272H72a24,24,0,0,0-24,24V488a24,24,0,0,0,24,24H440a24,24,0,0,0,24-24V353.14A8.011,8.011,0,0,0,456,345.14ZM128,432H88a8,8,0,0,0,0,16h40v48H72a8.036,8.036,0,0,1-8-8V368h64Zm8-128a8,8,0,0,0-8,8v40H64V296a8.036,8.036,0,0,1,8-8H208v64H144V312A8,8,0,0,0,136,304Zm72,64v64H144V368Zm80,128H144V448h64v24a8,8,0,0,0,16,0V448h64Zm0-64H224V368h64Zm8-128a8,8,0,0,0-8,8v40H224V288H368v64H304V312A8,8,0,0,0,296,304Zm72,64v64H304V368Zm80,120a8.037,8.037,0,0,1-8,8H304V448h64v24a8,8,0,0,0,16,0V448h64Z"/><path d="M82,174.534a8,8,0,1,0,14.856-5.942L63.428,85.029a8,8,0,1,0-14.856,5.942Z"/><path d="M98.339,193.846a8,8,0,0,0-4.457,10.4l18.69,46.726a8,8,0,0,0,14.856-5.942L108.737,198.3A8,8,0,0,0,98.339,193.846Z"/><path d="M72,48a7.991,7.991,0,0,0-5.2,14.07l68.33,58.57a8,8,0,1,0,10.41-12.14L77.2,49.93A7.93,7.93,0,0,0,72,48Z"/><path d="M183.72,162.3,290.8,254.08a8,8,0,0,0,10.4-12.15L194.13,150.15a8,8,0,0,0-10.41,12.15Z"/><path d="M159.42,141.47a7.987,7.987,0,1,0-2.771-5.46A8.028,8.028,0,0,0,159.42,141.47Z"/><path d="M435.939,146.14a7.959,7.959,0,0,0,7.431-5.03l20.06-50.14a8,8,0,0,0-14.861-5.94L428.51,135.17a8,8,0,0,0,7.429,10.97Z"/><path d="M415.149,190.13a8.038,8.038,0,0,0-2.969-.57,7.956,7.956,0,0,0-7.43,5.03l-20.181,50.44a8,8,0,0,0,14.861,5.94l20.179-50.44A8.025,8.025,0,0,0,415.149,190.13Z"/><path d="M424.06,175.85a7.983,7.983,0,1,0-2.97-.57A7.966,7.966,0,0,0,424.06,175.85Z"/><path d="M226.794,228.211l-16,13.715a8,8,0,1,0,10.412,12.148l16-13.714a8,8,0,0,0-10.412-12.149Z"/><circle cx="256" cy="120" r="8"/><circle cx="256" cy="152" r="8"/><path d="M223.344,66.04l-4.882,26.933a8,8,0,0,0,11.435,8.59L256,88.577l26.1,12.986a8,8,0,0,0,11.435-8.59L288.656,66.04l20.768-19.158a8,8,0,0,0-4.334-13.8l-29.074-4L263.093,4.3a8,8,0,0,0-14.186,0L235.984,29.078l-29.074,4a8,8,0,0,0-4.334,13.805Zm18.913-21.674a8,8,0,0,0,6-4.226L256,25.3l7.74,14.84a8,8,0,0,0,6,4.226l16.37,2.252L274.576,57.26a8,8,0,0,0-2.448,7.307l2.822,15.566-15.387-7.654a7.994,7.994,0,0,0-7.126,0L237.05,80.133l2.822-15.566a8,8,0,0,0-2.448-7.307L225.887,46.618Z"/><path d="M273.926,198.35a8,8,0,0,0,11.28.867l97.741-83.778a8,8,0,1,0-10.412-12.148l-97.741,83.778A8,8,0,0,0,273.926,198.35Z"/><path d="M402.041,96.54a7.969,7.969,0,0,0,5.2-1.926l37.963-32.54a8,8,0,1,0-10.412-12.148L396.831,82.465a8,8,0,0,0,5.21,14.075Z"/></g></g></svg>
