<svg xmlns="http://www.w3.org/2000/svg" viewBox="0 0 70 70"><defs><style>.cls-1{fill:#6dde94;}.cls-2{fill:#6add92;}</style></defs><title>03_Icons_amenities_v1</title><g id="Layer_66" data-name="Layer 66"><path class="cls-1" d="M49.34,49.73h-4.1a1,1,0,0,1,0-2h4.1a.94.94,0,0,1,1,1A1,1,0,0,1,49.34,49.73Z"/><path class="cls-2" d="M22.34,57.63h-8.9a.94.94,0,0,1-1-1V40.43a5.89,5.89,0,0,1,1.7-4.2,3.49,3.49,0,0,0,1-2.4V30a.94.94,0,0,1,1-1h3.7a.94.94,0,0,1,1,1v3.8a3.25,3.25,0,0,0,1,2.4,5.89,5.89,0,0,1,1.7,4.2v16.2A1.36,1.36,0,0,1,22.34,57.63Zm-8-2h6.9V40.43a4.3,4.3,0,0,0-1.1-2.8,5.37,5.37,0,0,1-1.5-3.8V31h-1.7v2.8a5.37,5.37,0,0,1-1.5,3.8,4.3,4.3,0,0,0-1.1,2.8v15.2Z"/><path class="cls-1" d="M17.94,51a.76.76,0,0,1-.4-.1L13,49.23a.87.87,0,0,1-.6-.9v-4.5a1,1,0,0,1,.7-.9l4.5-1.5a.85.85,0,0,1,.7,0l4.5,1.5a1,1,0,0,1,.7.9v4.5a1,1,0,0,1-.6.9l-4.5,1.7A1.09,1.09,0,0,1,17.94,51Zm-3.5-3.4,3.5,1.3,3.5-1.3v-3.1l-3.5-1.2-3.5,1.2Z"/><path class="cls-1" d="M19.84,34.83h-3.7a1,1,0,0,1,0-2h3.7a1,1,0,1,1,0,2Z"/><g id="Users"><path class="cls-1" d="M55.44,57.6h-20a1,1,0,0,1,0-2h20a.13.13,0,0,0,.12-.12v-7.3c0-5.32-7.57-9.66-16.86-9.66a23.91,23.91,0,0,0-12.15,3,1,1,0,0,1-1-1.72A26,26,0,0,1,38.7,36.52c10.57,0,18.86,5.13,18.86,11.66v7.3A2.12,2.12,0,0,1,55.44,57.6Z"/><path class="cls-1" d="M38.7,33.45A10.54,10.54,0,1,1,49.31,22.91,10.59,10.59,0,0,1,38.7,33.45Zm0-19.08a8.54,8.54,0,1,0,8.61,8.54A8.58,8.58,0,0,0,38.7,14.37Z"/></g><path class="cls-2" d="M29.67,52.43a1.23,1.23,0,0,1-.8-.4l-3.7-5.2a1.18,1.18,0,0,1-.1-1,1.05,1.05,0,0,1,.9-.5h7.3a1.05,1.05,0,0,1,.9.5.92.92,0,0,1-.1,1L30.37,52A.84.84,0,0,1,29.67,52.43ZM28,47.23l1.7,2.5,1.7-2.5Z"/><path class="cls-2" d="M29.67,57.63a.94.94,0,0,1-1-1v-5.2a1,1,0,1,1,2,0v5.2A.94.94,0,0,1,29.67,57.63Z"/><path class="cls-2" d="M31.77,57.63h-4.2a1,1,0,0,1,0-2h4.2a.94.94,0,0,1,1,1A1,1,0,0,1,31.77,57.63Z"/></g></svg>