<?xml version="1.0" encoding="iso-8859-1"?>
<!-- Generator: Adobe Illustrator 19.0.0, SVG Export Plug-In . SVG Version: 6.00 Build 0)  -->
<svg version="1.1" id="Capa_1" xmlns="http://www.w3.org/2000/svg" xmlns:xlink="http://www.w3.org/1999/xlink" x="0px" y="0px"
	 viewBox="0 0 512 512" style="enable-background:new 0 0 512 512;" xml:space="preserve">
<g>
	<g>
		<path d="M256,0C116.589,0,0,116.387,0,256c0,67.468,26.88,131.504,75.688,180.312C124.495,485.12,188.532,512,256,512
			c139.411,0,256-116.387,256-256C512,116.518,395.866,0,256,0z M96.9,415.099C11.255,329.453,7.845,197.225,86.638,107.852
			l44.027,44.027C124.339,165.529,121,180.507,121,196c0,6.359,0,53.641,0,60c0,24.813,20.187,45,45,45h75v34.173l-32.765,12.249
			C199.975,337.4,187.471,331,173.5,331c-24.813,0-45,20.187-45,45s20.187,45,45,45s45-20.187,45-45c0-0.129-0.009-0.255-0.01-0.384
			l36.385-13.602l34.156,12.769C289.02,375.188,289,375.592,289,376c0,24.813,20.187,45,45,45c17.762,0,33.148-10.346,40.462-25.325
			l29.687,29.686C314.775,504.155,182.546,500.745,96.9,415.099z M189.787,211H151v-15c0-7.157,1.013-14.155,2.939-20.848
			L189.787,211z M168.766,147.553C183.305,130.435,203.971,121,226,121h15v90h-8.787L168.766,147.553z M219.787,241l30,30H166
			c-8.271,0-15-6.729-15-15v-15H219.787z M188.5,376c0,8.271-6.729,15-15,15s-15-6.729-15-15s6.729-15,15-15
			S188.5,367.729,188.5,376z M292.213,271l-30-30h98.679c0.036,0,0.072,0.003,0.108,0.003V256c0,8.271-6.729,15-15,15H292.213z
			 M314.325,335.538c-5.582,2.725-10.512,6.575-14.511,11.248L271,336.014V301h8.787L314.325,335.538z M319,376
			c0-8.271,6.729-15,15-15c3.071,0,5.927,0.931,8.308,2.521l4.171,4.171c1.59,2.38,2.521,5.237,2.521,8.308c0,8.271-6.729,15-15,15
			S319,384.271,319,376z M425.362,404.148c-4.091-4.09-99.77-99.769-103.148-103.148H346c24.813,0,45-20.187,45-45v-30
			c0-6.872-4.627-12.651-10.932-14.427L387.712,181H406c8.284,0,15-6.716,15-15s-6.716-15-15-15h-30
			c-6.883,0-12.883,4.685-14.552,11.362L349.289,211H271V106c0-8.284-6.716-15-15-15h-30c-30.154,0-58.342,12.63-78.508,35.28
			l-39.641-39.641C197.225,7.845,329.454,11.255,415.1,96.901C500.745,182.547,504.155,314.775,425.362,404.148z"/>
	</g>
</g>
<g>
</g>
<g>
</g>
<g>
</g>
<g>
</g>
<g>
</g>
<g>
</g>
<g>
</g>
<g>
</g>
<g>
</g>
<g>
</g>
<g>
</g>
<g>
</g>
<g>
</g>
<g>
</g>
<g>
</g>
</svg>
