<?xml version="1.0" encoding="iso-8859-1"?>
<!-- Generator: Adobe Illustrator 19.0.0, SVG Export Plug-In . SVG Version: 6.00 Build 0)  -->
<svg version="1.1" id="Capa_1" xmlns="http://www.w3.org/2000/svg" xmlns:xlink="http://www.w3.org/1999/xlink" x="0px" y="0px"
	 viewBox="0 0 512 512" style="enable-background:new 0 0 512 512;" xml:space="preserve">
<g>
	<g>
		<path d="M256,0C116.513,0,0,116.141,0,256c0,139.481,116.134,256,256,256c139.41,0,256-116.387,256-256
			C512,116.518,395.866,0,256,0z M256,482c-59.455,0-115.957-23.759-159.099-66.901C11.255,329.453,7.845,197.225,86.639,107.852
			L181,202.213v74.643c-8.778-3.73-18.994-5.856-30-5.856c-33.645,0-60,19.766-60,45s26.355,45,60,45s60-19.766,60-45v-83.787
			l107.269,107.269C290.94,343.75,271,361.553,271,383.5c0,25.234,26.355,45,60,45c23.145,0,42.84-9.355,52.879-23.409
			l20.271,20.271C362.608,461.985,310.552,482,256,482z M181,316c0,6.116-11.687,15-30,15s-30-8.884-30-15c0-6.116,11.687-15,30-15
			S181,309.884,181,316z M249.287,228.074L361,265.311v74.475L249.287,228.074z M361,383.5c0,6.116-11.687,15-30,15s-30-8.884-30-15
			c0-6.116,11.687-15,30-15c8.685,0,15.875,1.999,21.04,4.753l8.73,8.73C360.917,382.502,361,383.01,361,383.5z M211,183.689
			c0-37.066,0-38.442,0-49.377l150,50c0,10.474,0,40.4,0,49.377L211,183.689z M425.362,404.148L391,369.786
			c0-15.38,0-189.576,0-196.286c0-6.457-4.132-12.188-10.257-14.23l-180-60C191.045,96.037,181,103.265,181,113.5
			c0,6.623,0,39.664,0,46.287l-73.149-73.149C149.392,50.015,201.449,30,256,30c59.455,0,115.957,23.759,159.1,66.901
			C500.745,182.547,504.155,314.775,425.362,404.148z"/>
	</g>
</g>
<g>
</g>
<g>
</g>
<g>
</g>
<g>
</g>
<g>
</g>
<g>
</g>
<g>
</g>
<g>
</g>
<g>
</g>
<g>
</g>
<g>
</g>
<g>
</g>
<g>
</g>
<g>
</g>
<g>
</g>
</svg>
