<svg height="480pt" viewBox="-56 0 480 480.00051" width="480pt" xmlns="http://www.w3.org/2000/svg"><path d="m43.601562 185.183594c-7.679687 20.109375-16.535156 39.75-26.53125 58.816406-9.390624 15.890625-15.214843 33.632812-17.070312 52v176c0 4.417969 3.582031 8 8 8h176c4.417969 0 8-3.582031 8-8v-176c-1.855469-18.367188-7.679688-36.109375-17.070312-52-9.996094-19.070312-18.851563-38.710938-26.53125-58.824219-1.941407-4.800781-3.644532-9.015625-5.023438-12.289062-7.328125-17.375-12.613281-66.925781-14.734375-92.886719h7.359375c4.417969 0 8-3.582031 8-8v-32c0-4.417969-3.582031-8-8-8h-8v-24c0-4.417969-3.582031-8-8-8h-48c-4.417969 0-8 3.582031-8 8v24h-8c-4.417969 0-8 3.582031-8 8v32c0 4.417969 3.582031 8 8 8h7.359375c-2.117187 25.953125-7.40625 75.503906-14.734375 92.886719-1.375 3.28125-3.082031 7.488281-5.023438 12.296875zm132.398438 118.816406v128h-160v-128zm-160 160v-16h160v16zm64-448h32v16h-32zm-16 32h64v16h-64zm-.625 131.105469c9.097656-21.601563 14.402344-78.53125 16-99.105469h33.167969c1.664062 20.574219 6.945312 77.519531 16 99.113281 1.359375 3.199219 3.035156 7.351563 4.945312 12.070313 7.941407 20.800781 17.125 41.105468 27.503907 60.800781 6.421874 11.253906 11.152343 23.386719 14.046874 36.015625h-158.078124c2.871093-12.617188 7.578124-24.746094 13.96875-36 10.367187-19.699219 19.539062-40 27.46875-60.800781 1.945312-4.734375 3.617187-8.871094 4.976562-12.09375zm0 0"/><path d="m352 264v-64c0-4.417969-3.582031-8-8-8h-128c-4.417969 0-8 3.582031-8 8v64c.050781 36.644531 27.585938 67.421875 64 71.527344v99.527344l-59.574219 29.785156c-3.324219 1.65625-5.070312 5.382812-4.21875 8.996094.851563 3.613281 4.078125 6.167968 7.792969 6.164062h128c3.746094.042969 7.019531-2.519531 7.878906-6.167969.855469-3.644531-.929687-7.398437-4.300781-9.03125l-59.578125-29.746093v-99.527344c36.414062-4.105469 63.949219-34.882813 64-71.527344zm-16-56v16h-112v-16zm-112 56v-24h112v24c0 30.929688-25.070312 56-56 56-30.925781 0-56-25.070312-56-56zm25.886719 200 30.113281-15.054688 30.113281 15.054688zm0 0"/><path d="m288 280h16v16h-16zm0 0"/><path d="m50.34375 373.65625 40 40c3.125 3.121094 8.1875 3.121094 11.3125 0l39.734375-39.746094c6.832031-5.214844 10.839844-13.316406 10.839844-21.910156s-4.007813-16.695312-10.839844-21.910156c-12.640625-11.074219-30.988281-12.707032-45.390625-4.042969-14.398438-8.675781-32.753906-7.042969-45.390625 4.042969-6.585937 5.414062-10.53125 13.390625-10.839844 21.910156.269531 8.398438 4.121094 16.277344 10.574219 21.65625zm11.046875-31.746094c8.398437-7.222656 20.820313-7.222656 29.21875 0 3.054687 2.789063 7.726563 2.789063 10.78125 0 8.398437-7.222656 20.820313-7.222656 29.21875 0 3.144531 2.476563 5.160156 6.113282 5.597656 10.089844-.488281 4.101562-2.609375 7.832031-5.886719 10.34375l-34.320312 34.34375-34.609375-34.597656c-3.496094-2.160156-5.625-5.980469-5.625-10.089844s2.128906-7.929688 5.625-10.089844zm0 0"/><path d="m48 256h16v16h-16zm0 0"/><path d="m72 232h16v16h-16zm0 0"/><path d="m225.871094 165.65625c3.125 3.121094 8.1875 3.121094 11.3125 0l31.738281-31.746094c5.507813-4.359375 8.863281-10.890625 9.199219-17.910156-.335938-7.019531-3.691406-13.550781-9.199219-17.910156-10.375-9.097656-25.359375-10.667969-37.394531-3.914063-12.03125-6.742187-27.007813-5.175781-37.382813 3.914063-5.507812 4.359375-8.863281 10.890625-9.199219 17.910156.296876 6.894531 3.550782 13.328125 8.925782 17.65625zm-20.949219-55.746094c6.101563-5.238281 15.117187-5.238281 21.222656 0 3.054688 2.785156 7.722657 2.785156 10.777344 0 6.101563-5.238281 15.117187-5.238281 21.222656 0 2.046875 1.460938 3.472657 3.632813 4 6.089844 0 1.601562-1.417969 3.753906-4.25 6.34375l-26.34375 26.34375-26.605469-26.597656c-2.046874-1.460938-3.476562-3.632813-4-6.089844.519532-2.453125 1.9375-4.625 3.976563-6.089844zm0 0"/><path d="m368 31.503906c-.316406-8.515625-4.261719-16.488281-10.839844-21.902344-12.648437-11.070312-31.003906-12.6875-45.390625-4-14.390625-8.691406-32.746093-7.074218-45.394531 4-6.582031 5.414063-10.535156 13.386719-10.855469 21.902344.28125 8.402344 4.136719 16.28125 10.59375 21.664063l40 40c3.121094 3.125 8.1875 3.125 11.3125 0l39.734375-39.753907c6.582032-5.414062 10.527344-13.390624 10.839844-21.910156zm-21.886719 10.34375-34.34375 34.34375-34.609375-34.589844c-3.160156-2.46875-5.195312-6.105468-5.640625-10.089843.453125-3.980469 2.484375-7.617188 5.640625-10.085938 8.398438-7.226562 20.816406-7.226562 29.214844 0 3.054688 2.785157 7.730469 2.785157 10.785156 0 8.398438-7.226562 20.816406-7.226562 29.214844 0 3.148438 2.472657 5.171875 6.101563 5.625 10.078125-.492188 4.101563-2.613281 7.828125-5.886719 10.34375zm0 0"/></svg>