<svg height="512pt" viewBox="-31 0 512 512" width="512pt" xmlns="http://www.w3.org/2000/svg"><path d="m223.5625 189.953125c-36.417969.796875-65.398438 31.078125-64.601562 67.496094.789062 35.925781 30.273437 64.617187 66.03125 64.617187.488281 0 .976562-.003906 1.464843-.019531 36.421875-.796875 65.398438-31.078125 64.605469-67.496094h-.003906c-.796875-36.414062-31.351563-65.703125-67.496094-64.597656zm2.53125 115.582031c-27.214844.429688-50.027344-21.132812-50.621094-48.449218-.601562-27.316407 21.136719-50.023438 48.453125-50.625.367188-.007813.730469-.011719 1.09375-.011719 26.820313 0 48.9375 21.515625 49.523438 48.464843.605469 27.316407-21.132813 50.023438-48.449219 50.621094zm0 0"/><path d="m200.0625 248.285156c4.558594-.097656 8.175781-3.875 8.074219-8.4375-.097657-4.558594-3.875-8.175781-8.4375-8.074218-4.558594.097656-8.175781 3.875-8.074219 8.4375.101562 4.558593 3.878906 8.175781 8.4375 8.074218zm0 0"/><path d="m249.601562 247.199219c4.558594-.097657 8.171876-3.875 8.074219-8.433594-.101562-4.5625-3.878906-8.175781-8.4375-8.078125-4.558593.097656-8.175781 3.878906-8.078125 8.4375.101563 4.558594 3.878906 8.175781 8.441406 8.074219zm0 0"/><path d="m243.785156 263.699219c-4.589844 5.449219-11.304687 8.660156-18.410156 8.8125-7.34375.085937-13.960938-2.761719-18.785156-8-3.082032-3.355469-8.308594-3.570313-11.667969-.480469-3.355469 3.085938-3.570313 8.3125-.480469 11.667969 7.828125 8.507812 18.867188 13.339843 30.398438 13.339843.300781 0 .597656-.003906.898437-.007812 11.851563-.261719 23.039063-5.617188 30.679688-14.695312 2.9375-3.484376 2.492187-8.695313-.996094-11.632813-3.492187-2.941406-8.691406-2.492187-11.636719.996094zm0 0"/><path d="m91.515625 231.226562c2.953125 0 5.675781-1.574218 7.152344-4.128906l38.144531-66.066406c1.472656-2.554688 1.472656-5.703125 0-8.257812-1.476562-2.554688-4.203125-4.128907-7.152344-4.128907h-76.289062c-2.953125 0-5.679688 1.574219-7.152344 4.128907-1.472656 2.554687-1.472656 5.703124 0 8.257812l38.144531 66.066406c1.476563 2.554688 4.199219 4.128906 7.152344 4.128906zm23.839844-66.066406-23.839844 41.292969-23.84375-41.292969zm0 0"/><path d="m186.871094 132.128906h76.28125c2.953125 0 5.675781-1.574218 7.152344-4.128906 1.472656-2.554688 1.472656-5.703125 0-8.257812l-38.144532-66.066407c-2.949218-5.113281-11.351562-5.113281-14.304687 0l-38.140625 66.066407c-1.472656 2.554687-1.472656 5.703124 0 8.257812 1.476562 2.554688 4.203125 4.128906 7.15625 4.128906zm38.140625-57.804687 23.839843 41.289062h-47.679687zm0 0"/><path d="m351.351562 227.097656c1.476563 2.554688 4.203126 4.128906 7.15625 4.128906 2.953126 0 5.675782-1.574218 7.152344-4.128906l38.144532-66.066406c1.472656-2.554688 1.472656-5.703125 0-8.257812-1.476563-2.554688-4.199219-4.128907-7.152344-4.128907h-76.285156c-2.953126 0-5.675782 1.574219-7.152344 4.128907-1.472656 2.554687-1.472656 5.703124 0 8.257812zm31-61.9375-23.84375 41.292969-23.839843-41.292969zm0 0"/><path d="m387.117188 256 59.59375-103.222656c4.414062-7.644532 4.414062-17.136719.003906-24.773438-4.414063-7.644531-12.628906-12.390625-21.457032-12.390625h-119.199218l-59.589844-103.222656c-4.414062-7.644531-12.632812-12.390625-21.457031-12.390625s-17.046875 4.746094-21.457031 12.386719l-59.59375 103.226562h-119.195313c-8.824219 0-17.046875 4.746094-21.453125 12.382813-4.414062 7.644531-4.414062 17.136718-.003906 24.777344l59.597656 103.226562-59.59375 103.222656c-4.414062 7.644532-4.414062 17.136719-.003906 24.773438 4.410156 7.644531 12.628906 12.390625 21.457031 12.390625h119.195313l59.59375 103.222656c4.410156 7.644531 12.628906 12.390625 21.457031 12.390625s17.042969-4.746094 21.457031-12.386719l59.59375-103.226562h119.195312c8.824219 0 17.042969-4.746094 21.453126-12.382813 4.414062-7.644531 4.414062-17.136718.003906-24.777344zm45.289062 119.746094c-1.46875 2.542968-4.210938 4.125-7.148438 4.125h-123.964843c-2.953125 0-5.675781 1.574218-7.152344 4.128906l-61.980469 107.359375c-2.933594 5.089844-11.359375 5.09375-14.296875-.003906l-61.976562-107.355469c-1.476563-2.554688-4.203125-4.128906-7.15625-4.128906h-123.964844c-2.941406 0-5.683594-1.582032-7.152344-4.132813-1.46875-2.542969-1.46875-5.707031.003907-8.253906l61.976562-107.355469c1.472656-2.554687 1.472656-5.703125 0-8.257812l-61.984375-107.359375c-1.46875-2.546875-1.46875-5.707031.003906-8.261719 1.46875-2.542969 4.210938-4.125 7.152344-4.125h123.960937c2.953126 0 5.679688-1.570312 7.15625-4.128906l61.976563-107.359375c2.9375-5.085938 11.363281-5.089844 14.296875.003906l61.980469 107.355469c1.476562 2.558594 4.203125 4.128906 7.152343 4.128906h123.964844c2.9375 0 5.683594 1.582031 7.152344 4.132812 1.46875 2.546876 1.46875 5.707032-.003906 8.257813l-61.976563 107.355469c-1.472656 2.554687-1.472656 5.703125 0 8.257812l61.980469 107.359375c1.472656 2.542969 1.472656 5.707031 0 8.257813zm0 0"/><path d="m346.59375 251.871094-57.214844-99.097656c-1.476562-2.554688-4.203125-4.128907-7.152344-4.128907h-114.429687c-2.953125 0-5.675781 1.574219-7.152344 4.128907l-57.214843 99.097656c-1.46875 2.554687-1.46875 5.703125 0 8.257812l57.214843 99.097656c1.476563 2.554688 4.203125 4.128907 7.152344 4.128907h114.429687c2.953126 0 5.675782-1.574219 7.152344-4.128907l57.214844-99.097656c1.472656-2.554687 1.472656-5.703125 0-8.257812zm-69.136719 94.96875h-104.894531l-52.441406-90.839844 52.441406-90.839844h104.894531l52.445313 90.839844zm0 0"/><path d="m98.667969 284.902344c-1.476563-2.554688-4.199219-4.128906-7.152344-4.128906-2.949219 0-5.675781 1.574218-7.152344 4.128906l-38.144531 66.066406c-1.472656 2.554688-1.472656 5.703125 0 8.257812 1.472656 2.554688 4.199219 4.128907 7.152344 4.128907h76.285156c2.953125 0 5.675781-1.574219 7.152344-4.128907 1.472656-2.554687 1.472656-5.703124 0-8.257812zm-30.996094 61.9375 23.84375-41.292969 23.835937 41.292969zm0 0"/><path d="m365.660156 284.902344c-2.953125-5.113282-11.355468-5.113282-14.308594 0l-38.140624 66.066406c-1.472657 2.554688-1.472657 5.703125 0 8.257812 1.476562 2.554688 4.203124 4.128907 7.152343 4.128907h76.285157c2.953124 0 5.679687-1.574219 7.15625-4.128907 1.472656-2.554687 1.472656-5.703124 0-8.257812zm-30.992187 61.9375 23.839843-41.292969 23.839844 41.292969zm0 0"/><path d="m263.152344 379.871094h-76.28125c-2.953125 0-5.675782 1.574218-7.152344 4.128906-1.472656 2.554688-1.472656 5.703125 0 8.257812l38.140625 66.066407c1.476563 2.554687 4.203125 4.128906 7.15625 4.128906 2.949219 0 5.675781-1.574219 7.152344-4.128906l38.140625-66.066407c1.472656-2.554687 1.472656-5.703124 0-8.257812-1.476563-2.554688-4.203125-4.128906-7.15625-4.128906zm-38.140625 57.804687-23.839844-41.289062h47.679687zm0 0"/><path d="m315.851562 107.355469c2.109376 0 4.226563-.808594 5.835938-2.417969l24.773438-24.777344c3.226562-3.222656 3.226562-8.449218 0-11.675781-3.222657-3.222656-8.449219-3.222656-11.675782 0l-24.773437 24.773437c-3.222657 3.226563-3.222657 8.453126 0 11.679688 1.613281 1.609375 3.726562 2.417969 5.839843 2.417969zm0 0"/><path d="m128.332031 104.933594c1.613281 1.613281 3.730469 2.421875 5.839844 2.421875 2.113281 0 4.226563-.808594 5.839844-2.421875 3.226562-3.222656 3.226562-8.449219 0-11.675782l-24.773438-24.773437c-3.226562-3.226563-8.453125-3.226563-11.675781 0-3.226562 3.226563-3.226562 8.453125 0 11.675781zm0 0"/><path d="m321.6875 407.0625c-3.222656-3.222656-8.449219-3.222656-11.675781 0-3.222657 3.226562-3.222657 8.453125 0 11.679688l24.773437 24.773437c1.613282 1.613281 3.726563 2.417969 5.839844 2.417969s4.226562-.804688 5.839844-2.417969c3.222656-3.226563 3.222656-8.453125 0-11.675781zm0 0"/><path d="m128.332031 407.0625-24.773437 24.777344c-3.222656 3.222656-3.222656 8.449218 0 11.675781 1.613281 1.613281 3.726562 2.417969 5.839844 2.417969 2.113281 0 4.226562-.804688 5.839843-2.417969l24.773438-24.773437c3.226562-3.226563 3.226562-8.453126 0-11.679688-3.226563-3.222656-8.453125-3.226562-11.679688 0zm0 0"/><path d="m10.300781 264.257812h33.035157c4.558593 0 8.257812-3.695312 8.257812-8.257812 0-4.558594-3.699219-8.257812-8.257812-8.257812h-33.035157c-4.558593 0-8.257812 3.695312-8.257812 8.257812 0 4.558594 3.699219 8.257812 8.257812 8.257812zm0 0"/><path d="m439.71875 247.742188h-33.03125c-4.558594 0-8.257812 3.695312-8.257812 8.257812 0 4.558594 3.699218 8.257812 8.257812 8.257812h33.03125c4.5625 0 8.261719-3.695312 8.261719-8.257812s-3.699219-8.257812-8.261719-8.257812zm0 0"/></svg>