<?xml version="1.0" encoding="iso-8859-1"?>
<!-- Generator: Adobe Illustrator 19.0.0, SVG Export Plug-In . SVG Version: 6.00 Build 0)  -->
<svg version="1.1" id="Capa_1" xmlns="http://www.w3.org/2000/svg" xmlns:xlink="http://www.w3.org/1999/xlink" x="0px" y="0px"
	 viewBox="0 0 512 512" style="enable-background:new 0 0 512 512;" xml:space="preserve">
<g>
	<g>
		<path d="M324.5,129.75c-4.143,0-7.5,3.358-7.5,7.5v60c0,4.142,3.357,7.5,7.5,7.5s7.5-3.358,7.5-7.5v-60
			C332,133.108,328.643,129.75,324.5,129.75z"/>
	</g>
</g>
<g>
	<g>
		<path d="M187.5,129.75c-4.143,0-7.5,3.358-7.5,7.5v60c0,4.142,3.357,7.5,7.5,7.5s7.5-3.358,7.5-7.5v-60
			C195,133.108,191.643,129.75,187.5,129.75z"/>
	</g>
</g>
<g>
	<g>
		<path d="M146.513,73.235c0.012-9.923-3.879-19.417-10.98-26.518c-7.091-7.091-16.563-10.98-26.472-10.98
			C102.007,28.711,92.543,24.75,82.5,24.75c-10.043,0-19.507,3.961-26.515,10.986c-9.954,0-19.429,3.89-26.519,10.98
			c-7.102,7.102-10.992,16.594-10.98,26.518C11.461,80.243,7.5,89.706,7.5,99.75s3.961,19.507,10.986,26.515
			c-0.011,9.924,3.879,19.417,10.981,26.518c5.503,5.503,12.63,9.156,20.273,10.448c8.988,7.199,20.376,11.519,32.76,11.519
			c12.384,0,23.772-4.32,32.76-11.519c7.643-1.292,14.77-4.945,20.272-10.448c7.103-7.102,10.993-16.595,10.981-26.518
			c7.025-7.008,10.986-16.472,10.986-26.515C157.499,89.707,153.538,80.243,146.513,73.235z M82.5,159.75
			c-20.678,0-37.5-16.822-37.5-37.5s16.822-37.5,37.5-37.5s37.5,16.822,37.5,37.5S103.178,159.75,82.5,159.75z M134.711,116.755
			C131.956,90.38,109.593,69.75,82.5,69.75s-49.456,20.63-52.211,47.006c-4.955-4.287-7.789-10.438-7.789-17.006
			c0-6.824,3.052-13.205,8.372-17.505c1.979-1.6,3.012-4.093,2.743-6.624c-0.721-6.803,1.633-13.473,6.459-18.298
			c4.824-4.825,11.486-7.175,18.298-6.458c2.532,0.274,5.023-0.764,6.622-2.743c4.302-5.321,10.683-8.373,17.506-8.373
			s13.204,3.052,17.506,8.373c1.599,1.978,4.097,3.013,6.622,2.743c6.807-0.722,13.474,1.633,18.298,6.458
			c4.826,4.825,7.18,11.495,6.459,18.298c-0.269,2.53,0.765,5.023,2.743,6.623c5.32,4.301,8.372,10.682,8.372,17.505
			C142.5,106.316,139.667,112.468,134.711,116.755z"/>
	</g>
</g>
<g>
	<g>
		<path d="M504.5,354.75h-38.308c9.745-9.537,15.808-22.821,15.808-37.5v-100c0-15.164-12.337-27.5-27.5-27.5h-50
			c-15.163,0-27.5,12.336-27.5,27.5v62.5h-22.5v-52.5c0-4.142-3.357-7.5-7.5-7.5h-63c-12.406,0-22.5,10.093-22.5,22.5
			s10.094,22.5,22.5,22.5h10.5v15h-77v-15H228c12.406,0,22.5-10.093,22.5-22.5s-10.094-22.5-22.5-22.5h-63
			c-4.143,0-7.5,3.358-7.5,7.5v52.5H135v-62.5c0-15.164-12.337-27.5-27.5-27.5h-50c-15.163,0-27.5,12.336-27.5,27.5v100
			c0,14.679,6.063,27.963,15.808,37.5H7.5c-4.143,0-7.5,3.358-7.5,7.5v117.5c0,4.142,3.357,7.5,7.5,7.5s7.5-3.358,7.5-7.5v-80h7.5
			c4.143,0,7.5-3.358,7.5-7.5c0-4.142-3.357-7.5-7.5-7.5H15v-15h105v15H52.5c-4.143,0-7.5,3.358-7.5,7.5c0,4.142,3.357,7.5,7.5,7.5
			H120v80c0,4.142,3.357,7.5,7.5,7.5s7.5-3.358,7.5-7.5v-65h36.4v65c0,4.142,3.357,7.5,7.5,7.5h28.5c4.143,0,7.5-3.358,7.5-7.5
			c0-4.142-3.357-7.5-7.5-7.5h-21v-57.5h139.2v57.5h-21c-4.143,0-7.5,3.358-7.5,7.5c0,4.142,3.357,7.5,7.5,7.5h28.5
			c4.143,0,7.5-3.358,7.5-7.5v-65H377v65c0,4.142,3.357,7.5,7.5,7.5s7.5-3.358,7.5-7.5v-80h105v80c0,4.142,3.357,7.5,7.5,7.5
			s7.5-3.358,7.5-7.5v-117.5C512,358.108,508.643,354.75,504.5,354.75z M294.5,249.75H284c-4.136,0-7.5-3.364-7.5-7.5
			s3.364-7.5,7.5-7.5h10.5V249.75z M120,354.75H82.5c-20.678,0-37.5-16.822-37.5-37.5v-22.5h75V354.75z M120,279.75H45v-62.5
			c0-6.893,5.607-12.5,12.5-12.5h50c6.893,0,12.5,5.607,12.5,12.5V279.75z M309.5,234.75h30v45h-30V234.75z M217.5,234.75H228
			c4.136,0,7.5,3.364,7.5,7.5s-3.364,7.5-7.5,7.5h-10.5V234.75z M172.5,234.75h30v45h-30V234.75z M377,399.75H135v-75h34.965
			l27.928,55.854c1.271,2.541,3.867,4.146,6.708,4.146c2.841,0,5.438-1.605,6.708-4.146l27.926-55.854h33.531l27.928,55.854
			c1.271,2.541,3.867,4.146,6.708,4.146s5.438-1.605,6.708-4.146l27.926-55.854H377V399.75z M186.735,324.75h35.73l-17.864,35.729
			L186.735,324.75z M289.536,324.75h35.73l-17.864,35.729L289.536,324.75z M377,309.75H135v-15h242V309.75z M392,217.25
			c0-6.893,5.607-12.5,12.5-12.5h50c6.893,0,12.5,5.607,12.5,12.5v92.5h-75V217.25z M392,324.75h74.245
			c-3.484,17.096-18.635,30-36.745,30H392V324.75z M497,384.75H392v-15h105V384.75z"/>
	</g>
</g>
<g>
	<g>
		<path d="M482,114.75h-0.544c-3.651-25.407-25.554-45-51.956-45s-48.304,19.593-51.956,45H377c-16.542,0-30,13.458-30,30
			s13.458,30,30,30h105c16.542,0,30-13.458,30-30S498.542,114.75,482,114.75z M429.5,84.75c17.96,0,33.005,12.694,36.651,29.58
			c-20.154-2-38.58-11.212-52.297-26.147C418.62,85.985,423.917,84.75,429.5,84.75z M377,159.75c-8.271,0-15-6.729-15-15
			s6.729-15,15-15h0.544c1.678,11.676,7.21,22.118,15.264,30H377z M429.501,159.75c-20.678,0-37.5-16.822-37.5-37.5
			c-0.001-9.663,3.674-18.483,9.699-25.139c16.692,18.803,39.576,30.244,64.607,32.299
			C462.955,146.674,447.73,159.75,429.501,159.75z M482,159.75h-15.808c8.054-7.882,13.586-18.324,15.264-30H482
			c8.271,0,15,6.729,15,15S490.271,159.75,482,159.75z"/>
	</g>
</g>
<g>
</g>
<g>
</g>
<g>
</g>
<g>
</g>
<g>
</g>
<g>
</g>
<g>
</g>
<g>
</g>
<g>
</g>
<g>
</g>
<g>
</g>
<g>
</g>
<g>
</g>
<g>
</g>
<g>
</g>
</svg>
