<svg xmlns="http://www.w3.org/2000/svg" viewBox="0 0 70 70"><defs></defs><title>02_Icons_sub_category_v1</title><g id="Layer_131" data-name="Layer 131"><path  d="M22.45,26.7a.91.91,0,0,1-.7-.3L15,19.8a1.06,1.06,0,0,1-.2-1.2l2.1-4.4a1.15,1.15,0,0,1,.9-.6h9.3a1,1,0,0,1,.9.6l2.1,4.4a1.06,1.06,0,0,1-.2,1.2l-6.8,6.6A.6.6,0,0,1,22.45,26.7Zm-5.6-7.8,5.6,5.4,5.6-5.4-1.6-3.2h-8.1Z"/><path  d="M47.55,26.7a.91.91,0,0,1-.7-.3l-6.8-6.6a1.06,1.06,0,0,1-.2-1.2L42,14.2a1.15,1.15,0,0,1,.9-.6h9.3a1,1,0,0,1,.9.6l2.1,4.4a1.06,1.06,0,0,1-.2,1.2l-6.8,6.6A.71.71,0,0,1,47.55,26.7ZM42,18.9l5.6,5.4,5.6-5.4-1.6-3.2h-8.1Z"/><path  d="M63.3,38.28a15.9,15.9,0,0,0-26.2-9.76A1,1,0,0,0,37,30v0a1,1,0,0,0,1.47.14,13.87,13.87,0,0,1,23,10.92,14,14,0,0,1-14,13.45A13.87,13.87,0,0,1,33.65,40.88,14,14,0,0,1,34.13,37,1,1,0,0,0,34,36.2h0a1,1,0,0,0-1.84.31,15.76,15.76,0,0,0-.51,4.31A15.9,15.9,0,1,0,63.3,38.28Z"/><path  d="M33.36,51a.94.94,0,0,0-1.43-.18,13.9,13.9,0,0,1-11.11,3.64A13.69,13.69,0,0,1,8.73,42.85a13.91,13.91,0,1,1,27.18,1.2,1,1,0,0,0,.21.91h0a1,1,0,0,0,1.68-.38A15.9,15.9,0,1,0,23,56.39a15.79,15.79,0,0,0,10.29-4.22.93.93,0,0,0,.14-1.2Z"/></g></svg>