<svg xmlns="http://www.w3.org/2000/svg" width="296.37" height="144.734" viewBox="0 0 296.37 144.734">
  <g id="Group_6044" data-name="Group 6044" transform="translate(-39.63 -5135.483)">
    <g id="Group_5732" data-name="Group 5732" transform="translate(39.63 5135.483)">
      <g id="Group_4186" data-name="Group 4186" transform="translate(44.7 11.983)">
        <g id="Group_4162" data-name="Group 4162" transform="translate(21.038 22.661)">
          <g id="Group_4161" data-name="Group 4161">
            <g id="Group_4160" data-name="Group 4160">
              <path id="Path_1636" data-name="Path 1636" d="M2092.37,906.024h-34.738a.146.146,0,0,1-.143-.118l-8.586-45.021A11.7,11.7,0,0,1,2060.395,847h24.644a11.614,11.614,0,0,1,11.569,12.636l-4.093,46.26A.146.146,0,0,1,2092.37,906.024Z" transform="translate(-2048.692 -846.995)" fill="#fefeff"/>
            </g>
          </g>
        </g>
        <g id="Group_4165" data-name="Group 4165" transform="translate(30.009 81.69)">
          <g id="Group_4164" data-name="Group 4164">
            <g id="Group_4163" data-name="Group 4163">
              <path id="Path_1637" data-name="Path 1637" d="M2092.947,956.5l-.67-50.966H2057.59l5.255,50.966h10.1l1.882-38.49h2.891l5.125,38.49" transform="translate(-2057.59 -905.537)" fill="#244e72"/>
            </g>
          </g>
        </g>
        <g id="Group_4168" data-name="Group 4168" transform="translate(43.189 3.252)">
          <g id="Group_4167" data-name="Group 4167">
            <g id="Group_4166" data-name="Group 4166">
              <path id="Rectangle_757" data-name="Rectangle 757" d="M0,0H11.9a0,0,0,0,1,0,0V8.513a5.221,5.221,0,0,1-5.221,5.221H2.923A2.923,2.923,0,0,1,0,10.812V0A0,0,0,0,1,0,0Z" fill="#f99d6a"/>
            </g>
          </g>
        </g>
        <g id="Group_4171" data-name="Group 4171" transform="translate(42.655)">
          <g id="Group_4170" data-name="Group 4170">
            <g id="Group_4169" data-name="Group 4169">
              <path id="Path_1638" data-name="Path 1638" d="M2084.084,824.521l-10.6,1.421c-2.23.307-3.357,1.5-3.357,3.358h0v4.254a1.927,1.927,0,0,0,1.926,1.927h1.965v-4.326a1.856,1.856,0,0,1,1.855-1.855h6.662Z" transform="translate(-2070.131 -824.521)" fill="#6add91"/>
            </g>
          </g>
        </g>
        <g id="Group_4174" data-name="Group 4174" transform="translate(44.906 7.382)">
          <g id="Group_4173" data-name="Group 4173">
            <g id="Group_4172" data-name="Group 4172">
              <circle id="Ellipse_118" data-name="Ellipse 118" cx="1.116" cy="1.116" r="1.116" fill="#f99d6a"/>
            </g>
          </g>
        </g>
        <g id="Group_4175" data-name="Group 4175" transform="translate(56.609 28.057)">
          <path id="Path_1639" data-name="Path 1639" d="M2137.872,901.982l-28.057-8.452a6.322,6.322,0,0,1-3.838-2.993l-22.009-28.993,10.583-9.2,20.037,29.835a3.4,3.4,0,0,0,1.469,1.449l23.38,14.314Z" transform="translate(-2083.969 -852.346)" fill="#fefeff"/>
        </g>
        <g id="Group_4178" data-name="Group 4178" transform="translate(110.511 73.655)">
          <g id="Group_4177" data-name="Group 4177">
            <g id="Group_4176" data-name="Group 4176">
              <path id="Path_1640" data-name="Path 1640" d="M2138.993,897.568l3.152.3a3.992,3.992,0,0,1,2.792,1.549l2.111,2.766a.224.224,0,0,1-.257.346l-3.937-1.474a1.164,1.164,0,0,0-1.194.232h0a2.956,2.956,0,0,1-2.683.694l-1.551-.371Z" transform="translate(-2137.427 -897.568)" fill="#f99d6a"/>
            </g>
          </g>
        </g>
        <g id="Group_4181" data-name="Group 4181" transform="translate(24.251 84.961)">
          <g id="Group_4180" data-name="Group 4180">
            <g id="Group_4179" data-name="Group 4179">
              <path id="Path_1641" data-name="Path 1641" d="M2054.91,908.781l2.779,1.516a3.983,3.983,0,0,1,1.955,2.524l.851,3.374a.225.225,0,0,1-.373.217l-3.037-2.907a1.162,1.162,0,0,0-1.187-.258h0a2.955,2.955,0,0,1-2.74-.419l-1.279-.952Z" transform="translate(-2051.879 -908.781)" fill="#f99d6a"/>
            </g>
          </g>
        </g>
        <g id="Group_4182" data-name="Group 4182" transform="translate(0 26.654)">
          <path id="Path_1642" data-name="Path 1642" d="M2052.113,912.38l-21.395-20.164a7.636,7.636,0,0,1-.973-11.041l21.922-30.219,10.916,9.587L2040.292,886a.9.9,0,0,0-.035,1.207l14.854,22.055Z" transform="translate(-2027.828 -850.955)" fill="#fefeff"/>
        </g>
        <g id="Group_4185" data-name="Group 4185" transform="translate(41.189 11.313)">
          <g id="Group_4184" data-name="Group 4184">
            <g id="Group_4183" data-name="Group 4183">
              <path id="Path_1643" data-name="Path 1643" d="M2076.448,835.741h-4.454l-3.317,11.348a3.993,3.993,0,0,0,3.993,3.993h3.35a3.993,3.993,0,0,0,3.994-3.993Z" transform="translate(-2068.677 -835.741)" fill="#f99d6a"/>
            </g>
          </g>
        </g>
      </g>
      <g id="Group_4222" data-name="Group 4222" transform="translate(166.449 20.65)">
        <g id="Group_4187" data-name="Group 4187" transform="translate(3.933 28.942)">
          <path id="Path_1644" data-name="Path 1644" d="M2155.073,915.946l-2.6-2.247,12.708-26.613,5.074-25.266,7.337,3.6-.254,27.158Z" transform="translate(-2152.472 -861.82)" fill="#6add91"/>
        </g>
        <g id="Group_4190" data-name="Group 4190" transform="translate(22.501 73.117)">
          <g id="Group_4189" data-name="Group 4189">
            <g id="Group_4188" data-name="Group 4188">
              <path id="Path_1645" data-name="Path 1645" d="M2170.887,956.6V905.631h34.688L2200.32,956.6h-9.432l-1.211-38.49h-2.891l-6.466,38.49" transform="translate(-2170.887 -905.631)" fill="#f99d6a"/>
            </g>
          </g>
        </g>
        <g id="Group_4193" data-name="Group 4193" transform="translate(12.567 22.689)">
          <g id="Group_4192" data-name="Group 4192">
            <g id="Group_4191" data-name="Group 4191">
              <path id="Path_1646" data-name="Path 1646" d="M2211.24,906.047h-50.206l9.2-44.42a7.536,7.536,0,0,1,7.38-6.008h19.4a7.543,7.543,0,0,1,7.456,6.4Z" transform="translate(-2161.035 -855.619)" fill="#6add91"/>
            </g>
          </g>
        </g>
        <g id="Group_4196" data-name="Group 4196" transform="translate(16.736 73.117)">
          <g id="Group_4195" data-name="Group 4195">
            <g id="Group_4194" data-name="Group 4194">
              <path id="Path_1647" data-name="Path 1647" d="M2203.964,948.767h-35.721l-3.074-43.136h41.869Z" transform="translate(-2165.169 -905.631)" fill="#fefeff"/>
            </g>
          </g>
        </g>
        <g id="Group_4197" data-name="Group 4197" transform="translate(43.131 24.869)">
          <path id="Path_1648" data-name="Path 1648" d="M2200.315,912.655l-2.6-2.2,13.89-22.347a.659.659,0,0,0-.112-.909l-20.147-21.511,10.753-7.906,19.3,25.722a4.4,4.4,0,0,1,.012,6.23Z" transform="translate(-2191.346 -857.781)" fill="#6add91"/>
        </g>
        <g id="Group_4200" data-name="Group 4200" transform="translate(45.566 77.496)">
          <g id="Group_4199" data-name="Group 4199">
            <g id="Group_4198" data-name="Group 4198">
              <path id="Path_1649" data-name="Path 1649" d="M2197.694,909.973l-2.1,1.382a3.163,3.163,0,0,0-1.381,2.126l-.45,2.724a.178.178,0,0,0,.309.147l2.211-2.5a.924.924,0,0,1,.923-.282h0a2.348,2.348,0,0,0,2.14-.512l.948-.838Z" transform="translate(-2193.762 -909.973)" fill="#f99d6a"/>
            </g>
          </g>
        </g>
        <g id="Group_4203" data-name="Group 4203" transform="translate(0 80.82)">
          <g id="Group_4202" data-name="Group 4202">
            <g id="Group_4201" data-name="Group 4201">
              <path id="Path_1650" data-name="Path 1650" d="M2152.5,913.27l-2.1,1.382a3.165,3.165,0,0,0-1.38,2.126l-.45,2.724a.178.178,0,0,0,.31.147l2.21-2.5a.925.925,0,0,1,.924-.282h0a2.346,2.346,0,0,0,2.139-.512l.949-.838Z" transform="translate(-2148.572 -913.27)" fill="#f99d6a"/>
            </g>
          </g>
        </g>
        <g id="Group_4206" data-name="Group 4206" transform="translate(39.046 9.909)">
          <g id="Group_4205" data-name="Group 4205">
            <g id="Group_4204" data-name="Group 4204">
              <path id="Path_1651" data-name="Path 1651" d="M2194.021,846.156a3.366,3.366,0,1,1-3.363-3.213A3.291,3.291,0,0,1,2194.021,846.156Z" transform="translate(-2187.295 -842.944)" fill="#244e72"/>
            </g>
          </g>
        </g>
        <g id="Group_4209" data-name="Group 4209" transform="translate(38.232 7.208)">
          <g id="Group_4208" data-name="Group 4208">
            <g id="Group_4207" data-name="Group 4207">
              <rect id="Rectangle_758" data-name="Rectangle 758" width="4.177" height="4.848" fill="#244e72"/>
            </g>
          </g>
        </g>
        <g id="Group_4212" data-name="Group 4212" transform="translate(39.386 8.888)">
          <g id="Group_4211" data-name="Group 4211">
            <g id="Group_4210" data-name="Group 4210">
              <path id="Path_1652" data-name="Path 1652" d="M2189.5,842.867a.935.935,0,1,1-.935-.935A.935.935,0,0,1,2189.5,842.867Z" transform="translate(-2187.632 -841.932)" fill="#f99d6a"/>
            </g>
          </g>
        </g>
        <g id="Group_4215" data-name="Group 4215" transform="translate(32.745 11.342)">
          <g id="Group_4214" data-name="Group 4214">
            <g id="Group_4213" data-name="Group 4213">
              <path id="Path_1653" data-name="Path 1653" d="M2187.858,844.365h-3.783l-3.029,11.348v4.542a1.284,1.284,0,0,0,2.04,1.038l7.591-5.58Z" transform="translate(-2181.046 -844.365)" fill="#f99d6a"/>
            </g>
          </g>
        </g>
        <g id="Group_4218" data-name="Group 4218" transform="translate(30.474 4.156)">
          <g id="Group_4217" data-name="Group 4217" transform="translate(0 0)">
            <g id="Group_4216" data-name="Group 4216">
              <path id="Rectangle_759" data-name="Rectangle 759" d="M2.448,0H5.6A4.374,4.374,0,0,1,9.971,4.374V11.5a0,0,0,0,1,0,0H0a0,0,0,0,1,0,0V2.448A2.448,2.448,0,0,1,2.448,0Z" transform="translate(9.971 11.505) rotate(180)" fill="#f99d6a"/>
            </g>
          </g>
        </g>
        <g id="Group_4221" data-name="Group 4221" transform="translate(27.192)">
          <g id="Group_4220" data-name="Group 4220">
            <g id="Group_4219" data-name="Group 4219">
              <path id="Path_1654" data-name="Path 1654" d="M2190.755,840.326h-11.612a3.6,3.6,0,0,1-3.6-3.6h0a3.6,3.6,0,0,1,3.6-3.6h4.405a7.208,7.208,0,0,1,7.207,7.209Z" transform="translate(-2175.539 -833.117)" fill="#244e72"/>
            </g>
          </g>
        </g>
      </g>
      <ellipse id="Ellipse_119" data-name="Ellipse 119" cx="27.719" cy="26.536" rx="27.719" ry="26.536" transform="translate(0 0)" fill="#6add91"/>
      <ellipse id="Ellipse_120" data-name="Ellipse 120" cx="27.719" cy="26.536" rx="27.719" ry="26.536" transform="translate(240.932 20.351)" fill="#fefeff"/>
      <path id="Path_1655" data-name="Path 1655" d="M2034.652,845.154s11.9-3.916,11.4-4.847-11.4-4.917-11.4-4.917Z" transform="translate(-1983.071 -812.448)" fill="#6add91"/>
      <path id="Path_1656" data-name="Path 1656" d="M2224.81,854.3s-11.9,3.917-11.4,4.848,11.4,4.917,11.4,4.917Z" transform="translate(-1981.583 -812.29)" fill="#fefeff"/>
    </g>
    <g id="Group_5815" data-name="Group 5815" transform="translate(54.838 5150.969)">
      <g id="Group_5811" data-name="Group 5811" transform="translate(0 0)">
        <g id="Group_5797" data-name="Group 5797" transform="translate(2.336 11.182)">
          <g id="Group_5793" data-name="Group 5793">
            <g id="Group_5792" data-name="Group 5792">
              <g id="Group_5791" data-name="Group 5791">
                <path id="Path_2128" data-name="Path 2128" d="M16.732-809.93a2.461,2.461,0,0,1-2.485-2.485,2.492,2.492,0,0,1,2.485-2.485,2.461,2.461,0,0,1,2.485,2.485A2.461,2.461,0,0,1,16.732-809.93Zm0-3.976a1.529,1.529,0,0,0-1.491,1.491,1.529,1.529,0,0,0,1.491,1.491,1.464,1.464,0,0,0,1.491-1.491A1.529,1.529,0,0,0,16.732-813.906Z" transform="translate(-14.247 814.9)" fill="#172439"/>
              </g>
            </g>
          </g>
          <g id="Group_5796" data-name="Group 5796" transform="translate(15.705)">
            <g id="Group_5795" data-name="Group 5795">
              <g id="Group_5794" data-name="Group 5794">
                <path id="Path_2129" data-name="Path 2129" d="M48.332-809.93a2.461,2.461,0,0,1-2.485-2.485,2.492,2.492,0,0,1,2.485-2.485,2.461,2.461,0,0,1,2.485,2.485A2.461,2.461,0,0,1,48.332-809.93Zm0-3.976a1.529,1.529,0,0,0-1.491,1.491,1.529,1.529,0,0,0,1.491,1.491,1.464,1.464,0,0,0,1.491-1.491A1.529,1.529,0,0,0,48.332-813.906Z" transform="translate(-45.847 814.9)" fill="#172439"/>
              </g>
            </g>
          </g>
        </g>
        <g id="Group_5800" data-name="Group 5800">
          <g id="Group_5799" data-name="Group 5799">
            <g id="Group_5798" data-name="Group 5798">
              <path id="Path_2130" data-name="Path 2130" d="M33.552-818.564H10.889a1.336,1.336,0,0,1-1.342-1.342v-7.6a1.354,1.354,0,0,1,.845-1.243l.895-.348,2.336-6.809A2.195,2.195,0,0,1,15.71-837.4H28.582a2.149,2.149,0,0,1,2.087,1.491L33.1-829.1l.895.348a1.354,1.354,0,0,1,.845,1.243v7.6A1.266,1.266,0,0,1,33.552-818.564ZM15.759-836.406a1.123,1.123,0,0,0-1.143.845l-2.435,7.008a.448.448,0,0,1-.3.3l-1.093.447a.272.272,0,0,0-.2.3v7.6a.34.34,0,0,0,.348.348H33.6a.34.34,0,0,0,.348-.348v-7.6a.335.335,0,0,0-.2-.3l-1.093-.447a.448.448,0,0,1-.3-.3l-2.485-7.008a1.2,1.2,0,0,0-1.193-.845Z" transform="translate(-9.547 837.4)" fill="#172439"/>
            </g>
          </g>
        </g>
        <g id="Group_5803" data-name="Group 5803" transform="translate(8.548 13.17)">
          <g id="Group_5802" data-name="Group 5802">
            <g id="Group_5801" data-name="Group 5801">
              <path id="Path_2131" data-name="Path 2131" d="M34.55-809.906H27.244a.47.47,0,0,1-.5-.5.47.47,0,0,1,.5-.5H34.55a.47.47,0,0,1,.5.5A.5.5,0,0,1,34.55-809.906Z" transform="translate(-26.747 810.9)" fill="#172439"/>
            </g>
          </g>
        </g>
        <g id="Group_5810" data-name="Group 5810" transform="translate(2.485 17.842)">
          <g id="Group_5806" data-name="Group 5806">
            <g id="Group_5805" data-name="Group 5805">
              <g id="Group_5804" data-name="Group 5804">
                <path id="Path_2132" data-name="Path 2132" d="M18.921-797.077h-3.33a1.019,1.019,0,0,1-1.044-1.044V-801a.47.47,0,0,1,.5-.5h4.423a.47.47,0,0,1,.5.5v2.883A1.05,1.05,0,0,1,18.921-797.077Zm-3.38-3.429v2.385l3.38.05c.05,0,.05,0,.05-.05v-2.385Z" transform="translate(-14.547 801.5)" fill="#172439"/>
              </g>
            </g>
          </g>
          <g id="Group_5809" data-name="Group 5809" transform="translate(14.959)">
            <g id="Group_5808" data-name="Group 5808">
              <g id="Group_5807" data-name="Group 5807">
                <path id="Path_2133" data-name="Path 2133" d="M49.021-797.077h-3.33a1.019,1.019,0,0,1-1.044-1.044V-801a.47.47,0,0,1,.5-.5h4.423a.47.47,0,0,1,.5.5v2.883A1.05,1.05,0,0,1,49.021-797.077Zm-3.38-3.429v2.385l3.38.05c.05,0,.05,0,.05-.05v-2.385Z" transform="translate(-44.647 801.5)" fill="#172439"/>
              </g>
            </g>
          </g>
        </g>
      </g>
      <g id="Group_5814" data-name="Group 5814" transform="translate(1.69 8.2)">
        <g id="Group_5813" data-name="Group 5813">
          <g id="Group_5812" data-name="Group 5812">
            <path id="Path_2134" data-name="Path 2134" d="M34.467-819.906H13.444a.47.47,0,0,1-.5-.5.47.47,0,0,1,.5-.5H34.467a.47.47,0,0,1,.5.5A.5.5,0,0,1,34.467-819.906Z" transform="translate(-12.947 820.9)" fill="#172439"/>
          </g>
        </g>
      </g>
    </g>
    <g id="Group_5849" data-name="Group 5849" transform="translate(293.843 5167.775)">
      <g id="Group_5819" data-name="Group 5819" transform="translate(0 0)">
        <g id="Group_5818" data-name="Group 5818">
          <g id="Group_5817" data-name="Group 5817">
            <g id="Group_5816" data-name="Group 5816">
              <path id="Path_2135" data-name="Path 2135" d="M343.131,1307.183a.416.416,0,0,1-.26-.739l14.472-10.58a.415.415,0,0,1,.519,0l14.472,10.58a.415.415,0,0,1-.519.647L357.6,1296.72l-14.213,10.372A.412.412,0,0,1,343.131,1307.183Z" transform="translate(-342.716 -1295.773)" fill="#6add92"/>
            </g>
          </g>
        </g>
      </g>
      <g id="Group_5826" data-name="Group 5826" transform="translate(1.758 11.496)">
        <g id="Group_5822" data-name="Group 5822" transform="translate(25.427 0)">
          <g id="Group_5821" data-name="Group 5821">
            <g id="Group_5820" data-name="Group 5820">
              <path id="Path_2136" data-name="Path 2136" d="M402.085,1334.932a.416.416,0,0,1-.415-.416v-13.4a.415.415,0,0,1,.831,0v13.4A.415.415,0,0,1,402.085,1334.932Z" transform="translate(-401.67 -1320.703)" fill="#6add92"/>
            </g>
          </g>
        </g>
        <g id="Group_5825" data-name="Group 5825" transform="translate(0 0)">
          <g id="Group_5824" data-name="Group 5824">
            <g id="Group_5823" data-name="Group 5823">
              <path id="Path_2137" data-name="Path 2137" d="M346.943,1334.932a.415.415,0,0,1-.415-.416v-13.4a.415.415,0,0,1,.831,0v13.4A.416.416,0,0,1,346.943,1334.932Z" transform="translate(-346.528 -1320.703)" fill="#6add92"/>
            </g>
          </g>
        </g>
      </g>
      <g id="Group_5848" data-name="Group 5848" transform="translate(6.665 11.496)">
        <g id="Group_5829" data-name="Group 5829" transform="translate(14.898 0)">
          <g id="Group_5828" data-name="Group 5828">
            <g id="Group_5827" data-name="Group 5827">
              <path id="Path_2138" data-name="Path 2138" d="M389.892,1334.932a.416.416,0,0,1-.415-.416v-13.4a.415.415,0,0,1,.831,0v13.4A.415.415,0,0,1,389.892,1334.932Z" transform="translate(-389.477 -1320.703)" fill="#6add92"/>
            </g>
          </g>
        </g>
        <g id="Group_5832" data-name="Group 5832" transform="translate(0 0)">
          <g id="Group_5831" data-name="Group 5831">
            <g id="Group_5830" data-name="Group 5830">
              <path id="Path_2139" data-name="Path 2139" d="M357.169,1321.118a.415.415,0,0,1,.415-.415h14.9a.415.415,0,0,1,0,.83h-14.9A.415.415,0,0,1,357.169,1321.118Z" transform="translate(-357.169 -1320.703)" fill="#6add92"/>
            </g>
          </g>
        </g>
        <g id="Group_5835" data-name="Group 5835" transform="translate(0 2.76)">
          <g id="Group_5834" data-name="Group 5834">
            <g id="Group_5833" data-name="Group 5833">
              <path id="Path_2140" data-name="Path 2140" d="M357.169,1327.1a.415.415,0,0,1,.415-.415h14.9a.415.415,0,0,1,0,.831h-14.9A.416.416,0,0,1,357.169,1327.1Z" transform="translate(-357.169 -1326.689)" fill="#6add92"/>
            </g>
          </g>
        </g>
        <g id="Group_5838" data-name="Group 5838" transform="translate(0 5.521)">
          <g id="Group_5837" data-name="Group 5837">
            <g id="Group_5836" data-name="Group 5836">
              <path id="Path_2141" data-name="Path 2141" d="M357.169,1333.09a.415.415,0,0,1,.415-.415h14.9a.415.415,0,1,1,0,.83h-14.9A.415.415,0,0,1,357.169,1333.09Z" transform="translate(-357.169 -1332.675)" fill="#6add92"/>
            </g>
          </g>
        </g>
        <g id="Group_5841" data-name="Group 5841" transform="translate(0 8.28)">
          <g id="Group_5840" data-name="Group 5840">
            <g id="Group_5839" data-name="Group 5839">
              <path id="Path_2142" data-name="Path 2142" d="M357.169,1339.076a.416.416,0,0,1,.415-.416h14.9a.415.415,0,0,1,0,.831h-14.9A.415.415,0,0,1,357.169,1339.076Z" transform="translate(-357.169 -1338.66)" fill="#6add92"/>
            </g>
          </g>
        </g>
        <g id="Group_5844" data-name="Group 5844" transform="translate(0 11.041)">
          <g id="Group_5843" data-name="Group 5843">
            <g id="Group_5842" data-name="Group 5842">
              <path id="Path_2143" data-name="Path 2143" d="M357.169,1345.061a.415.415,0,0,1,.415-.415h14.9a.415.415,0,0,1,0,.831h-14.9A.416.416,0,0,1,357.169,1345.061Z" transform="translate(-357.169 -1344.646)" fill="#6add92"/>
            </g>
          </g>
        </g>
        <g id="Group_5847" data-name="Group 5847" transform="translate(0 0)">
          <g id="Group_5846" data-name="Group 5846">
            <g id="Group_5845" data-name="Group 5845">
              <path id="Path_2144" data-name="Path 2144" d="M357.585,1334.932a.416.416,0,0,1-.415-.416v-13.4a.415.415,0,0,1,.83,0v13.4A.415.415,0,0,1,357.585,1334.932Z" transform="translate(-357.169 -1320.703)" fill="#6add92"/>
            </g>
          </g>
        </g>
      </g>
    </g>
  </g>
</svg>
