<svg xmlns="http://www.w3.org/2000/svg" width="88.906" height="95.294" viewBox="0 0 88.906 95.294"><defs><style>.a871y23b{fill:#6adc91;}.b871y23b{fill:#172439;}.c871y23b{fill:#6add91;}</style></defs><g transform="translate(0)"><circle class="a871y23b" cx="18.955" cy="18.955" r="18.955" transform="translate(0 0)"/><g transform="translate(9.284 13.434)"><g transform="translate(63.066 15.389)"><path class="b871y23b" d="M-5493.611,2307.039a1.871,1.871,0,0,1-1.872-1.871h0v-21.508a1.872,1.872,0,0,1,1.833-1.91,1.872,1.872,0,0,1,1.91,1.834c0,.025,0,.05,0,.076v21.508A1.873,1.873,0,0,1-5493.611,2307.039Z" transform="translate(5495.483 -2281.749)"/></g><g transform="translate(0 0.002)"><path class="b871y23b" d="M-5512.061,2343.718h-63.067a1.871,1.871,0,0,1-1.872-1.871h0v-78.114a1.871,1.871,0,0,1,1.869-1.872h47.645a1.872,1.872,0,0,1,1.833,1.91,1.872,1.872,0,0,1-1.833,1.833h-45.77v74.371h59.323v-18.9a1.872,1.872,0,0,1,1.833-1.91,1.872,1.872,0,0,1,1.91,1.834c0,.025,0,.05,0,.076v20.774A1.873,1.873,0,0,1-5512.061,2343.718Z" transform="translate(5577 -2261.86)"/></g><g transform="translate(33.111 33.536)"><g transform="translate(12.931)"><path class="c871y23b" d="M-5515.617,2339.522a1.872,1.872,0,0,1-1.872-1.872,1.872,1.872,0,0,1,.532-1.308l29.836-30.573a1.872,1.872,0,0,1,2.647-.032,1.872,1.872,0,0,1,.032,2.646l-29.836,30.573A1.87,1.87,0,0,1-5515.617,2339.522Z" transform="translate(5517.489 -2305.205)"/></g><g transform="translate(0 17.039)"><path class="c871y23b" d="M-5519.4,2344.506a1.866,1.866,0,0,1-1.354-.578l-12.931-13.535a1.873,1.873,0,0,1,.061-2.648h0a1.874,1.874,0,0,1,2.646.061l12.927,13.535a1.871,1.871,0,0,1-.058,2.645,1.872,1.872,0,0,1-1.294.519Z" transform="translate(5534.202 -2327.228)"/></g></g><g transform="translate(14.198 17.204)"><path class="b871y23b" d="M-5535.008,2287.841h-21.769a1.872,1.872,0,0,1-1.873-1.871h0a1.873,1.873,0,0,1,1.871-1.872h21.771a1.873,1.873,0,0,1,1.91,1.834,1.874,1.874,0,0,1-1.834,1.91h-.076Z" transform="translate(5558.649 -2284.095)"/></g><g transform="translate(14.198 28.792)"><path class="b871y23b" d="M-5535.008,2302.817h-21.769a1.871,1.871,0,0,1-1.873-1.869v0a1.873,1.873,0,0,1,1.871-1.872h21.771a1.873,1.873,0,0,1,1.91,1.834,1.874,1.874,0,0,1-1.834,1.91h-.076Z" transform="translate(5558.649 -2299.073)"/></g><g transform="translate(14.198 40.381)"><path class="b871y23b" d="M-5535.008,2317.8h-21.769a1.872,1.872,0,0,1-1.873-1.871h0a1.872,1.872,0,0,1,1.869-1.872h21.772a1.872,1.872,0,0,1,1.833,1.91,1.871,1.871,0,0,1-1.833,1.833Z" transform="translate(5558.649 -2314.052)"/></g><g transform="translate(14.198 51.969)"><path class="b871y23b" d="M-5544.89,2332.775h-11.887a1.872,1.872,0,0,1-1.873-1.871h0a1.872,1.872,0,0,1,1.869-1.872h11.891a1.873,1.873,0,0,1,1.834,1.91,1.872,1.872,0,0,1-1.834,1.833Z" transform="translate(5558.649 -2329.03)"/></g><g transform="translate(47.642)"><path class="b871y23b" d="M-5498.124,2281.029h-15.425a1.873,1.873,0,0,1-1.872-1.872v-15.425a1.871,1.871,0,0,1,1.87-1.873,1.871,1.871,0,0,1,1.326.55l15.424,15.425a1.872,1.872,0,0,1,0,2.647,1.872,1.872,0,0,1-1.324.549Zm-13.553-3.744h9.034l-9.034-9.036Z" transform="translate(5515.421 -2261.858)"/></g></g></g></svg>
