<svg xmlns="http://www.w3.org/2000/svg" width="49.355" height="49.618" viewBox="0 0 49.355 49.618"><defs><style>.a{fill:#6add92;stroke:#6add92;stroke-width:0.6px;}</style></defs><g transform="translate(0.353 0.317)"><g transform="translate(0 0)"><path class="a" d="M-1967.7-382.118a21.979,21.979,0,0,1-21.946-21.945,21.979,21.979,0,0,1,21.946-21.945,21.978,21.978,0,0,1,21.945,21.945A21.978,21.978,0,0,1-1967.7-382.118Zm0-41.94a20.022,20.022,0,0,0-19.995,19.995,20.022,20.022,0,0,0,19.995,19.995,20.021,20.021,0,0,0,19.995-19.995A20.021,20.021,0,0,0-1967.7-424.058Zm3.9,27.115a.732.732,0,0,1-.488-.1l-6.242-3.8a1.024,1.024,0,0,1-.488-.878V-415.67a.921.921,0,0,1,.975-.975.921.921,0,0,1,.975.975v13.46l5.755,3.511a.96.96,0,0,1,.294,1.365A1.015,1.015,0,0,1-1963.8-396.944Zm16.483-19.6a1.042,1.042,0,0,1-.584-.2.947.947,0,0,1-.1-1.365l2.341-2.828-9.266-7.705-2.341,2.829a.948.948,0,0,1-1.366.1.947.947,0,0,1-.1-1.366l2.926-3.609a1.568,1.568,0,0,1,.682-.39,1.405,1.405,0,0,1,.683.2l10.729,8.973a.948.948,0,0,1,.1,1.365l-2.926,3.609A1.166,1.166,0,0,1-1947.316-416.548Zm-40.77,0a.887.887,0,0,1-.78-.39l-2.926-3.609a1.044,1.044,0,0,1,.1-1.365l10.729-8.973a.647.647,0,0,1,.683-.2.986.986,0,0,1,.682.39l2.926,3.609a.943.943,0,0,1-.1,1.366.943.943,0,0,1-1.365-.1l-2.341-2.829-9.266,7.705,2.341,2.828a.942.942,0,0,1-.1,1.365A.825.825,0,0,1-1988.085-416.548Z" transform="translate(1992 431.119)"/></g></g></svg>