<svg height="512" viewBox="0 0 64 64" width="512" xmlns="http://www.w3.org/2000/svg"><g id="Canteen"><path d="m61 2h-58a1 1 0 0 0 -1 1v4a1 1 0 0 0 1 1h8v4h-3a1 1 0 0 0 -1 1v12a1 1 0 0 0 1 1h48a1 1 0 0 0 1-1v-12a1 1 0 0 0 -1-1h-3v-4h8a1 1 0 0 0 1-1v-4a1 1 0 0 0 -1-1zm-6 12v10h-46v-10zm-42-2v-4h2v4zm4 0v-4h30v4zm32 0v-4h2v4zm11-6h-56v-2h56z"/><path d="m50 45v-6a1 1 0 0 0 -1-1h-34a1 1 0 0 0 -1 1v6a1 1 0 0 0 1 1h3v15a1 1 0 0 0 1 1h4a1 1 0 0 0 1-1v-3h16v3a1 1 0 0 0 1 1h4a1 1 0 0 0 1-1v-15h3a1 1 0 0 0 1-1zm-28 15h-2v-14h2zm18-4h-16v-2h16zm0-4h-16v-6h16zm4 8h-2v-14h2zm4-16h-32v-4h32z"/><path d="m15 48h-7v-13a1 1 0 0 0 -1-1h-4a1 1 0 0 0 -1 1v26a1 1 0 0 0 1 1h4a1 1 0 0 0 1-1v-7h2v7a1 1 0 0 0 1 1h4a1 1 0 0 0 1-1v-12a1 1 0 0 0 -1-1zm-11-12h2v12h-2zm2 24h-2v-6h2zm8 0h-2v-6h2zm0-8h-10v-2h10z"/><path d="m61 34h-4a1 1 0 0 0 -1 1v13h-7a1 1 0 0 0 -1 1v12a1 1 0 0 0 1 1h4a1 1 0 0 0 1-1v-7h2v7a1 1 0 0 0 1 1h4a1 1 0 0 0 1-1v-26a1 1 0 0 0 -1-1zm-9 26h-2v-6h2zm8 0h-2v-6h2zm0-8h-10v-2h10zm0-4h-2v-12h2z"/><path d="m14 18h4v2h-4z"/><path d="m20 18h30v2h-30z"/></g></svg>