<?xml version="1.0" encoding="iso-8859-1"?>
<!-- Generator: Adobe Illustrator 19.0.0, SVG Export Plug-In . SVG Version: 6.00 Build 0)  -->
<svg version="1.1" id="Layer_1" xmlns="http://www.w3.org/2000/svg" xmlns:xlink="http://www.w3.org/1999/xlink" x="0px" y="0px"
	 viewBox="0 0 512 512" style="enable-background:new 0 0 512 512;" xml:space="preserve">
<g>
	<g>
		<path d="M448,0H192c-8.832,0-16,7.168-16,16v160h32V32h224v448H208V336h-32v160c0,8.832,7.168,16,16,16h256
			c8.832,0,16-7.168,16-16V16C464,7.168,456.832,0,448,0z"/>
	</g>
</g>
<g>
	<g>
		<path d="M363.312,244.688l-96-96l-22.624,22.624L313.376,240H48v32h265.376l-68.688,68.688l22.624,22.624l96-96
			C369.568,261.056,369.568,250.944,363.312,244.688z"/>
	</g>
</g>
<g>
</g>
<g>
</g>
<g>
</g>
<g>
</g>
<g>
</g>
<g>
</g>
<g>
</g>
<g>
</g>
<g>
</g>
<g>
</g>
<g>
</g>
<g>
</g>
<g>
</g>
<g>
</g>
<g>
</g>
</svg>
