<svg id="Isolation_Mode" data-name="Isolation Mode" xmlns="http://www.w3.org/2000/svg" viewBox="0 0 2139.45 1340.98"><defs><style>.cls-1,.cls-2{fill:#88db9a;}.cls-2,.cls-3{stroke:#173839;}.cls-2,.cls-3,.cls-4{stroke-linecap:round;stroke-linejoin:round;}.cls-2,.cls-4{stroke-width:3px;}.cls-3{fill:none;stroke-width:4px;}.cls-4{fill:#fff;stroke:#88db9a;}</style></defs><title>ufo</title><polyline class="cls-1" points="1430.24 1152.2 1104.63 459.19 1104.63 458.35 1104.17 458.35 1043.19 458.35 1042.73 458.35 1042.73 459.19 717.13 1152.2"/><ellipse class="cls-2" cx="1073.45" cy="458.35" rx="30.72" ry="11.17"/><ellipse class="cls-3" cx="1073.45" cy="414.38" rx="225.17" ry="87.33"/><ellipse class="cls-3" cx="1073.45" cy="327.05" rx="483.62" ry="187.57"/><path class="cls-3" d="M1557.07,327.05c0-122.62-216.52-200.1-483.62-200.1s-483.61,77.48-483.61,200.1c0,103.59,216.52,187.57,483.61,187.57S1557.07,430.64,1557.07,327.05Z"/><path class="cls-3" d="M1295.28,146.91C1250.15,44.46,1167.69,2,1073.45,2S896.76,44.46,851.63,146.91"/><path class="cls-3" d="M1290.72,437.4C1415,412,1511.41,365.6,1554.82,308.85"/><path class="cls-3" d="M592.09,308.85C635.49,365.6,731.89,412,856.19,437.4"/><path class="cls-3" d="M1266.57,369.45c46.29-50,79.08-117.69,91-194.21"/><path class="cls-3" d="M789.37,175.24c11.89,76.52,44.67,144.22,91,194.21"/><path class="cls-3" d="M1225.15,478.92a408.76,408.76,0,0,1,51.07,18.46"/><path class="cls-3" d="M870.67,497.39a408.73,408.73,0,0,1,50.42-18.28"/><line class="cls-3" x1="1073.45" y1="327.05" x2="1073.45" y2="139.48"/><line class="cls-3" x1="1073.45" y1="514.62" x2="1073.45" y2="501.71"/><ellipse class="cls-4" cx="1073.45" cy="1155.53" rx="356.78" ry="60.98"/><path class="cls-3" d="M2137.45,1113.64s-476.37-133.54-1064-133.54-1064,133.54-1064,133.54"/><path class="cls-3" d="M1606.92,1116.27a38.82,38.82,0,0,1,8.72-15.65"/><path class="cls-3" d="M1618.65,1116.21a36.36,36.36,0,0,1,7.08-8.31"/><path class="cls-3" d="M657.84,1068.92a41.77,41.77,0,0,0-18.4-14"/><path class="cls-3" d="M642,1070.89a34.93,34.93,0,0,0-11.1-6.45"/><path class="cls-3" d="M625.93,1080.64a41.16,41.16,0,0,0-9.77-2.79"/><path class="cls-3" d="M1356.21,1248.9l2.09-1.4"/><path class="cls-3" d="M1347.83,1248.9l-4.89-7"/><path class="cls-3" d="M1338.76,1251.69a36.58,36.58,0,0,0-9.08-2.79"/><path class="cls-3" d="M1084.62,1258a14.34,14.34,0,0,0-3.93-3.3l3.9,3.34"/><path class="cls-3" d="M1093.06,1257.06a8.81,8.81,0,0,1,3.59-4.33"/><path class="cls-3" d="M1099.52,1259.39l7-1"/><path class="cls-3" d="M763.5,1258l-4.12-7"/><path class="cls-3" d="M771.74,1256.05l2.37-4.16"/><path class="cls-3" d="M759.26,1259.84a6.92,6.92,0,0,0-4.11-3.57,21.57,21.57,0,0,0,4.14,3.09"/><path class="cls-3" d="M775.09,1259.34l5.57-2.36"/><path class="cls-3" d="M493.51,1210a15.84,15.84,0,0,0-7.42-3.83"/><path class="cls-3" d="M502.82,1207.24l-9.31-7.45"/><path class="cls-3" d="M510.27,1206.31a38.94,38.94,0,0,0-.93-7.91"/><path class="cls-3" d="M520.51,1206.77a26.25,26.25,0,0,1,8.38-4.18"/><path class="cls-3" d="M1234.53,1338.06a11.83,11.83,0,0,1,9-7"/><path class="cls-3" d="M1223.73,1339c-.59-2.45-2-5-5.41-5"/><path class="cls-3" d="M1230,1338.24c.3-3-2.44-11.15-8.24-12.2"/><polyline class="cls-3" points="270.7 1053.88 303.45 938.28 333.35 1043.79"/><line class="cls-3" x1="303.45" y1="984.6" x2="303.45" y2="1047.75"/><line class="cls-3" x1="303.45" y1="1047.75" x2="291.07" y2="1035.37"/><line class="cls-3" x1="303.45" y1="1028.42" x2="311.66" y2="1020.21"/><line class="cls-3" x1="303.45" y1="1004.77" x2="299.42" y2="1000.74"/><polyline class="cls-3" points="646.85 1001.63 679.61 886.04 710.83 996.2"/><line class="cls-3" x1="679.61" y1="932.35" x2="679.61" y2="999.02"/><line class="cls-3" x1="679.61" y1="995.5" x2="667.23" y2="983.12"/><line class="cls-3" x1="679.61" y1="976.17" x2="687.82" y2="967.96"/><line class="cls-3" x1="679.61" y1="952.52" x2="675.58" y2="948.49"/><polyline class="cls-3" points="344.59 1042.72 367.6 961.52 388.61 1035.64"/><line class="cls-3" x1="367.6" y1="994.06" x2="367.6" y2="1038.42"/><line class="cls-3" x1="367.6" y1="1038.42" x2="358.91" y2="1029.72"/><line class="cls-3" x1="367.6" y1="1024.84" x2="373.37" y2="1019.07"/><line class="cls-3" x1="367.6" y1="1008.22" x2="364.77" y2="1005.39"/><polyline class="cls-3" points="494.04 1020.25 535.68 873.29 574.31 1009.58"/><line class="cls-3" x1="535.69" y1="933.12" x2="535.69" y2="1014.69"/><line class="cls-3" x1="535.69" y1="1014.69" x2="519.69" y2="998.7"/><line class="cls-3" x1="535.69" y1="989.72" x2="546.29" y2="979.12"/><line class="cls-3" x1="535.69" y1="959.17" x2="530.47" y2="953.96"/><polyline class="cls-3" points="1920.88 1063.53 1888.12 947.94 1858.22 1053.44"/><line class="cls-3" x1="1888.12" y1="994.26" x2="1888.12" y2="1057.4"/><line class="cls-3" x1="1888.12" y1="1057.4" x2="1900.5" y2="1045.02"/><line class="cls-3" x1="1888.12" y1="1038.07" x2="1879.91" y2="1029.86"/><line class="cls-3" x1="1888.12" y1="1014.43" x2="1892.15" y2="1010.39"/><polyline class="cls-3" points="1502.5 1001.63 1469.74 886.04 1438.52 996.2"/><line class="cls-3" x1="1469.74" y1="932.35" x2="1469.74" y2="999.02"/><line class="cls-3" x1="1469.74" y1="995.5" x2="1482.12" y2="983.12"/><line class="cls-3" x1="1469.74" y1="976.17" x2="1461.53" y2="967.96"/><line class="cls-3" x1="1469.74" y1="952.52" x2="1473.77" y2="948.49"/><polyline class="cls-3" points="1767.77 1037.01 1744.76 955.8 1723.75 1029.92"/><line class="cls-3" x1="1744.76" y1="988.34" x2="1744.76" y2="1032.7"/><line class="cls-3" x1="1744.76" y1="1032.7" x2="1753.45" y2="1024"/><line class="cls-3" x1="1744.76" y1="1019.12" x2="1738.99" y2="1013.35"/><line class="cls-3" x1="1744.76" y1="1002.51" x2="1747.59" y2="999.67"/><polyline class="cls-3" points="1708.07 1027.86 1666.42 880.9 1627.79 1017.19"/><line class="cls-3" x1="1666.42" y1="940.73" x2="1666.42" y2="1022.31"/><line class="cls-3" x1="1666.42" y1="1022.31" x2="1682.41" y2="1006.32"/><line class="cls-3" x1="1666.42" y1="997.33" x2="1655.82" y2="986.73"/><line class="cls-3" x1="1666.42" y1="966.79" x2="1671.63" y2="961.58"/><path class="cls-3" d="M491.29,568.41a18.14,18.14,0,0,0-7,1.4,28.74,28.74,0,0,0-34.93-22,43.22,43.22,0,0,0-82-.52,30.46,30.46,0,1,0-14.64,57.17H491.29a18,18,0,1,0,0-36.09Z"/><path class="cls-3" d="M1824.7,683.21a33.44,33.44,0,0,0-16.6,4.4,60.65,60.65,0,0,0-116.25-22.15,43.75,43.75,0,0,0-7.73-.71,42.74,42.74,0,0,0-42.58,39.14,24.29,24.29,0,1,0-10.16,46.36H1824.7a33.52,33.52,0,1,0,0-67Z"/><path class="cls-3" d="M1299.88,663.05a111.06,111.06,0,0,1,162.39-28.31c14.61-31.44,37.88-59.59,68.56-75.71s69.1-19,100-3.36a184.95,184.95,0,0,1,215-122.42c24.78-42,68.7-72.19,116.79-80.29,28.76-4.84,62.73.2,79,24.39"/><path class="cls-3" d="M822.29,828c-19.56-48.05-79.7-75.06-128.61-57.78-35.84-52.7-107.62-41.95-140.19-32.84s-62.41,34.62-67.85,68c6.14-22.44-18.21-41.07-40.15-48.83a227.21,227.21,0,0,0-98.26-11.83c-27.65,2.79-59.69,15.87-64.08,43.31-8.61-19.08-24.36-33.86-39.83-48-33.64-30.64-68.41-60.94-109.1-81.3S45.74,628.68,2,641.24"/><path class="cls-3" d="M850,653.32c-18.2-60.2-87.88-99.51-148.82-84-.31-18.3-14.59-33.34-29.75-43.6A157.61,157.61,0,0,0,545.59,504c-38.67-88-123.76-154-218.64-169.59"/></svg>
