<?xml version="1.0" encoding="iso-8859-1"?>
<!-- Generator: Adobe Illustrator 19.0.0, SVG Export Plug-In . SVG Version: 6.00 Build 0)  -->
<svg version="1.1" id="Layer_1" xmlns="http://www.w3.org/2000/svg" xmlns:xlink="http://www.w3.org/1999/xlink" x="0px" y="0px"
	 viewBox="0 0 512 512" style="enable-background:new 0 0 512 512;" xml:space="preserve">
<polygon style="fill:#999999;" points="101.36,195.4 96.088,189.384 258.776,46.704 415.752,189.432 410.376,195.352 258.68,57.424 
	"/>
<circle cx="258.72" cy="64.512" r="37.48"/>
<circle style="fill:#999999;" cx="258.72" cy="64.512" r="19.528"/>
<rect y="177.232" style="fill:#E21B1B;" width="512" height="307.736"/>
<g>
	<path style="fill:#FFFFFF;" d="M195.472,275.304c0,24.52-14.864,38.52-35.056,38.52c-20.616,0-33.64-15.736-33.64-37.224
		c0-22.464,14.112-38.304,34.728-38.304C182.88,238.296,195.472,254.472,195.472,275.304z M140.88,276.392
		c0,14.864,7.488,26.696,20.296,26.696c12.912,0,20.184-11.936,20.184-27.24c0-13.784-6.832-26.808-20.184-26.808
		C147.936,249.04,140.88,261.304,140.88,276.392z"/>
	<path style="fill:#FFFFFF;" d="M206.96,240.472c4.776-0.864,11.392-1.52,20.4-1.52c9.768,0,16.928,2.064,21.6,5.968
		c4.336,3.584,7.16,9.336,7.16,16.168c0,6.944-2.168,12.696-6.296,16.6c-5.32,5.32-13.672,7.816-23.112,7.816
		c-2.496,0-4.776-0.112-6.512-0.432v27.56h-13.24V240.472z M220.2,274.536c1.632,0.44,3.8,0.544,6.512,0.544
		c9.984,0,16.056-4.88,16.056-13.464c0-8.136-5.64-12.48-14.864-12.48c-3.688,0-6.296,0.328-7.704,0.648V274.536z"/>
	<path style="fill:#FFFFFF;" d="M308.52,280.192h-27.56v21.488h30.824v10.96h-44.168v-73.144h42.536v10.96H280.96v18.88h27.56
		V280.192z"/>
	<path style="fill:#FFFFFF;" d="M323.496,312.632v-73.144h15.192l18.88,31.36c4.88,8.144,9.12,16.6,12.48,24.52h0.216
		c-0.864-9.768-1.192-19.2-1.192-30.384V239.48h12.376v73.144h-13.784l-19.104-32.112c-4.664-8.032-9.544-17.032-13.136-25.28
		l-0.32,0.112c0.536,9.44,0.648,19.096,0.648,31.144v26.16h-12.256V312.632z"/>
	<path style="fill:#FFFFFF;" d="M110.176,349.64v29.296h30.928V349.64h13.344v73.144h-13.344v-32.232h-30.928v32.232H96.824V349.64
		L110.176,349.64L110.176,349.64z"/>
	<path style="fill:#FFFFFF;" d="M234.64,385.456c0,24.52-14.864,38.52-35.056,38.52c-20.616,0-33.64-15.736-33.64-37.224
		c0-22.464,14.112-38.304,34.728-38.304C222.048,348.448,234.64,364.616,234.64,385.456z M180.056,386.536
		c0,14.864,7.488,26.696,20.296,26.696c12.912,0,20.184-11.936,20.184-27.24c0-13.784-6.832-26.808-20.184-26.808
		C187.104,359.192,180.056,371.456,180.056,386.536z"/>
	<path style="fill:#FFFFFF;" d="M259.368,349.64v42.648c0,14.32,5.968,20.944,14.976,20.944c9.664,0,15.416-6.624,15.416-20.944
		V349.64h13.344v41.784c0,22.568-11.608,32.552-29.184,32.552c-16.928,0-27.888-9.448-27.888-32.456v-41.88H259.368z"/>
	<path style="fill:#FFFFFF;" d="M318.072,408.24c4.336,2.496,10.848,4.664,17.688,4.664c8.568,0,13.344-4.016,13.344-9.984
		c0-5.528-3.688-8.792-13.024-12.16c-12.04-4.336-19.752-10.744-19.752-21.264c0-11.936,9.984-21.056,25.832-21.056
		c7.92,0,13.784,1.736,17.584,3.688l-3.256,10.744c-2.608-1.408-7.704-3.472-14.536-3.472c-8.472,0-12.16,4.552-12.16,8.792
		c0,5.64,4.224,8.248,14,12.048c12.696,4.776,18.88,11.176,18.88,21.704c0,11.72-8.896,21.92-27.784,21.92
		c-7.712,0-15.744-2.168-19.752-4.56L318.072,408.24z"/>
	<path style="fill:#FFFFFF;" d="M415.616,390.336h-27.56v21.488h30.824v10.96h-44.168V349.64h42.536v10.96h-29.184v18.88h27.56
		v10.856H415.616z"/>
</g>
<g>
</g>
<g>
</g>
<g>
</g>
<g>
</g>
<g>
</g>
<g>
</g>
<g>
</g>
<g>
</g>
<g>
</g>
<g>
</g>
<g>
</g>
<g>
</g>
<g>
</g>
<g>
</g>
<g>
</g>
</svg>
