<svg xmlns="http://www.w3.org/2000/svg" width="46.007" height="55.706" viewBox="0 0 46.007 55.706"><defs><style>.a{fill:#6add92;}</style></defs><g transform="translate(1765.065 161.638)"><g transform="translate(-1765.065 -161.638)"><path class="a" d="M-1742.061-105.931h-.209c-12.966-3.242-22.795-16.207-22.795-30.323v-14.639a.914.914,0,0,1,.627-.941l21.958-9.724a1.135,1.135,0,0,1,.836,0l21.958,9.724a1,1,0,0,1,.627.941v14.639c0,14.116-9.829,27.081-22.795,30.323Zm-20.912-44.335v14.011c0,13.07,8.992,25.095,20.912,28.232,11.92-3.032,20.913-15.162,20.913-28.232v-14.011l-20.913-9.306Zm20.912,39.106a.988.988,0,0,1-1.046-1.046v-20.7h-16a.987.987,0,0,1-1.046-1.046A.988.988,0,0,1-1759.1-135h16v-19.449a.988.988,0,0,1,1.046-1.046.988.988,0,0,1,1.046,1.046V-135h16a.988.988,0,0,1,1.046,1.046.987.987,0,0,1-1.046,1.046h-16v20.7A1.048,1.048,0,0,1-1742.061-111.159Z" transform="translate(1765.065 161.638)"/></g></g></svg>