<svg xmlns="http://www.w3.org/2000/svg" width="63.546" height="63.546" viewBox="0 0 63.546 63.546"><defs><style>.a{fill:#6add92;}</style></defs><g transform="translate(30.689 0)"><path class="a" d="M-1572.874-323.837a1.078,1.078,0,0,1-1.141-1.141v-6.731a1.078,1.078,0,0,1,1.141-1.141,1.078,1.078,0,0,1,1.141,1.141v6.731A1.078,1.078,0,0,1-1572.874-323.837Z" transform="translate(1574.015 332.85)"/></g><g transform="translate(47.574 9.127)"><path class="a" d="M-1558.074-317.891a1.036,1.036,0,0,1-.8-.342,1.1,1.1,0,0,1,0-1.6l4.678-4.677a1.1,1.1,0,0,1,1.6,0,1.1,1.1,0,0,1,0,1.6l-4.677,4.677A1.035,1.035,0,0,1-1558.074-317.891Z" transform="translate(1559.215 324.85)"/></g><g transform="translate(54.533 30.689)"><path class="a" d="M-1545.243-303.668h-6.731a1.078,1.078,0,0,1-1.141-1.141,1.078,1.078,0,0,1,1.141-1.141h6.731a1.078,1.078,0,0,1,1.141,1.141A1.078,1.078,0,0,1-1545.243-303.668Z" transform="translate(1553.115 305.95)"/></g><g transform="translate(47.688 47.688)"><path class="a" d="M-1553.3-284.091a1.035,1.035,0,0,1-.8-.342l-4.677-4.677a1.1,1.1,0,0,1,0-1.6,1.1,1.1,0,0,1,1.6,0l4.677,4.678a1.1,1.1,0,0,1,0,1.6A1.233,1.233,0,0,1-1553.3-284.091Z" transform="translate(1559.115 291.05)"/></g><g transform="translate(30.689 54.647)"><path class="a" d="M-1572.874-276.051a1.078,1.078,0,0,1-1.141-1.141v-6.617a1.078,1.078,0,0,1,1.141-1.141,1.078,1.078,0,0,1,1.141,1.141v6.731A1.053,1.053,0,0,1-1572.874-276.051Z" transform="translate(1574.015 284.95)"/></g><g transform="translate(9.013 47.688)"><path class="a" d="M-1591.874-284.091a1.035,1.035,0,0,1-.8-.342,1.1,1.1,0,0,1,0-1.6l4.677-4.678a1.1,1.1,0,0,1,1.6,0,1.1,1.1,0,0,1,0,1.6l-4.677,4.677A1.036,1.036,0,0,1-1591.874-284.091Z" transform="translate(1593.015 291.05)"/></g><g transform="translate(0 30.689)"><path class="a" d="M-1593.043-303.668h-6.731a1.078,1.078,0,0,1-1.141-1.141,1.078,1.078,0,0,1,1.141-1.141h6.731a1.078,1.078,0,0,1,1.141,1.141A1.078,1.078,0,0,1-1593.043-303.668Z" transform="translate(1600.915 305.95)"/></g><g transform="translate(9.127 9.127)"><path class="a" d="M-1587.1-317.891a1.036,1.036,0,0,1-.8-.342l-4.678-4.677a1.1,1.1,0,0,1,0-1.6,1.1,1.1,0,0,1,1.6,0l4.678,4.677a1.1,1.1,0,0,1,0,1.6A1.233,1.233,0,0,1-1587.1-317.891Z" transform="translate(1592.915 324.85)"/></g><g transform="translate(12.207 12.207)"><path class="a" d="M-1570.592-282.9a19.622,19.622,0,0,1-19.623-19.623,19.622,19.622,0,0,1,19.623-19.623,19.622,19.622,0,0,1,19.623,19.623A19.622,19.622,0,0,1-1570.592-282.9Zm0-36.964a17.333,17.333,0,0,0-17.341,17.341,17.333,17.333,0,0,0,17.341,17.341,17.333,17.333,0,0,0,17.341-17.341A17.333,17.333,0,0,0-1570.592-319.868Z" transform="translate(1590.215 322.15)"/></g><g transform="translate(19.395 17.455)"><path class="a" d="M-1568.856-284.693a16.184,16.184,0,0,1-11.294-4.677,13.084,13.084,0,0,1,0-18.368,10.6,10.6,0,0,1,14.945,0,8.677,8.677,0,0,1,0,12.321,7.094,7.094,0,0,1-10.154,0,6.061,6.061,0,0,1,0-8.442,5.027,5.027,0,0,1,7.073,0,1.1,1.1,0,0,1,0,1.6,1.1,1.1,0,0,1-1.6,0,2.828,2.828,0,0,0-3.879,0,3.651,3.651,0,0,0,0,5.248,4.889,4.889,0,0,0,6.959,0,6.472,6.472,0,0,0,0-9.127,8.4,8.4,0,0,0-11.751,0,10.537,10.537,0,0,0,0,15.059,13.565,13.565,0,0,0,19.281,0,17.421,17.421,0,0,0,0-24.528,1.1,1.1,0,0,1,0-1.6,1.1,1.1,0,0,1,1.6,0,19.624,19.624,0,0,1,0,27.723A14.953,14.953,0,0,1-1568.856-284.693Z" transform="translate(1583.915 317.55)"/></g></svg>