<svg xmlns="http://www.w3.org/2000/svg" width="63" height="48.956" viewBox="0 0 63 48.956"><defs><style>.a{fill:none;stroke:#6dde94;stroke-linecap:round;stroke-linejoin:round;stroke-width:2px;}.b{fill:#6dde94;}</style></defs><g transform="translate(21.014 47.665)"><path class="a" d="M-2261.187-627.039" transform="translate(2261.187 627.039)"/></g><g transform="translate(0 25.91)"><path class="b" d="M-2239.059-620.845h-35.919a2.5,2.5,0,0,1-2.488-2.5v-7.825c0-7.136,8.981-12.726,20.448-12.726s20.448,5.59,20.448,12.726v7.825A2.5,2.5,0,0,1-2239.059-620.845Zm-17.959-20.464c-9.685,0-17.866,4.646-17.866,10.144v7.825l35.824-.086-.093-7.738C-2239.152-636.663-2247.334-641.309-2257.018-641.309Z" transform="translate(2277.465 643.891)"/></g><g transform="translate(8.842 0)"><path class="b" d="M-2259.01-640.915a11.578,11.578,0,0,1-11.606-11.523,11.578,11.578,0,0,1,11.606-11.523,11.578,11.578,0,0,1,11.606,11.523A11.578,11.578,0,0,1-2259.01-640.915Zm0-20.464a8.992,8.992,0,0,0-9.024,8.941,8.992,8.992,0,0,0,9.024,8.941,8.993,8.993,0,0,0,9.024-8.941A8.993,8.993,0,0,0-2259.01-661.379Z" transform="translate(2270.616 663.961)"/></g><g transform="translate(48.837 47.665)"><path class="a" d="M-2239.635-627.039" transform="translate(2239.635 627.039)"/></g><g transform="translate(43.091 32.207)"><path class="b" d="M-2226.3-622.264h-15.761a1.292,1.292,0,0,1-1.291-1.291,1.292,1.292,0,0,1,1.291-1.291h15.3v-4.96c0-3.592-5.483-6.625-11.971-6.625a20.361,20.361,0,0,0-3.82.355,1.293,1.293,0,0,1-1.512-1.025,1.291,1.291,0,0,1,1.025-1.511,22.818,22.818,0,0,1,4.306-.4c8.16,0,14.553,4.045,14.553,9.207v5.417A2.125,2.125,0,0,1-2226.3-622.264Z" transform="translate(2244.086 639.013)"/></g><g transform="translate(40.524 12.855)"><path class="b" d="M-2238.153-638.266a7.9,7.9,0,0,1-7.923-7.869,7.9,7.9,0,0,1,7.923-7.868,7.9,7.9,0,0,1,7.922,7.868A7.9,7.9,0,0,1-2238.153-638.266Zm0-13.155a5.319,5.319,0,0,0-5.341,5.286,5.32,5.32,0,0,0,5.341,5.287,5.319,5.319,0,0,0,5.339-5.287A5.318,5.318,0,0,0-2238.153-651.421Z" transform="translate(2246.075 654.003)"/></g></svg>